<?xml version="1.0" encoding="utf-8" standalone="no"?>
<!DOCTYPE svg PUBLIC "-//W3C//DTD SVG 1.1//EN"
  "http://www.w3.org/Graphics/SVG/1.1/DTD/svg11.dtd">
<!-- Created with matplotlib (http://matplotlib.org/) -->
<svg height="144pt" version="1.1" viewBox="0 0 173 144" width="173pt" xmlns="http://www.w3.org/2000/svg" xmlns:xlink="http://www.w3.org/1999/xlink">
 <defs>
  <style type="text/css">
*{stroke-linecap:butt;stroke-linejoin:round;}
  </style>
 </defs>
 <g id="figure_1">
  <g id="patch_1">
   <path d="M 0 144 
L 173.9016 144 
L 173.9016 0 
L 0 0 
z
" style="fill:#ffffff;"/>
  </g>
  <g id="axes_1">
   <g id="patch_2">
    <path d="M 21.7377 126 
L 156.51144 126 
L 156.51144 17.28 
L 21.7377 17.28 
z
" style="fill:#ffffff;"/>
   </g>
   <g id="matplotlib.axis_1">
    <g id="xtick_1">
     <g id="line2d_1"/>
     <g id="text_1">
      <!-- $0.0$ -->
      <defs>
       <path d="M 42 31.640625 
C 42 37.75 41.90625 48.125 37.703125 56.109375 
C 34 63.109375 28.09375 65.59375 22.90625 65.59375 
C 18.09375 65.59375 12 63.40625 8.203125 56.203125 
C 4.203125 48.71875 3.796875 39.4375 3.796875 31.640625 
C 3.796875 25.953125 3.90625 17.28125 7 9.671875 
C 11.296875 -0.609375 19 -2 22.90625 -2 
C 27.5 -2 34.5 -0.109375 38.59375 9.375 
C 41.59375 16.28125 42 24.359375 42 31.640625 
z
M 22.90625 -0.40625 
C 16.5 -0.40625 12.703125 5.078125 11.296875 12.6875 
C 10.203125 18.5625 10.203125 27.15625 10.203125 32.75 
C 10.203125 40.4375 10.203125 46.828125 11.5 52.921875 
C 13.40625 61.390625 19 64 22.90625 64 
C 27 64 32.296875 61.296875 34.203125 53.125 
C 35.5 47.4375 35.59375 40.734375 35.59375 32.75 
C 35.59375 26.25 35.59375 18.265625 34.40625 12.375 
C 32.296875 1.484375 26.40625 -0.40625 22.90625 -0.40625 
z
" id="CMR17-48"/>
       <path d="M 18.40625 4.796875 
C 18.40625 7.6875 16 9.671875 13.59375 9.671875 
C 10.703125 9.671875 8.703125 7.28125 8.703125 4.890625 
C 8.703125 2 11.09375 0 13.5 0 
C 16.40625 0 18.40625 2.390625 18.40625 4.796875 
z
" id="CMMI12-58"/>
      </defs>
      <g style="fill:#262626;" transform="translate(30.994162 139.918498)scale(0.1 -0.1)">
       <use transform="scale(0.996264)" xlink:href="#CMR17-48"/>
       <use transform="translate(45.690477 0)scale(0.996264)" xlink:href="#CMMI12-58"/>
       <use transform="translate(72.787654 0)scale(0.996264)" xlink:href="#CMR17-48"/>
      </g>
     </g>
    </g>
    <g id="xtick_2">
     <g id="line2d_2"/>
     <g id="text_2">
      <!-- $0.5$ -->
      <defs>
       <path d="M 11.40625 57.6875 
C 12.40625 57.28125 16.5 56 20.703125 56 
C 30 56 35.09375 61.109375 38 64.0625 
C 38 64.953125 38 65.5 37.40625 65.5 
C 37.296875 65.5 37.09375 65.5 36.296875 65.046875 
C 32.796875 63.40625 28.703125 62.078125 23.703125 62.078125 
C 20.703125 62.078125 16.203125 62.484375 11.296875 64.671875 
C 10.203125 65.171875 10 65.171875 9.90625 65.171875 
C 9.40625 65.171875 9.296875 65.0625 9.296875 63.078125 
L 9.296875 34.421875 
C 9.296875 32.640625 9.296875 32.140625 10.296875 32.140625 
C 10.796875 32.140625 11 32.34375 11.5 33.03125 
C 14.703125 37.515625 19.09375 39.40625 24.09375 39.40625 
C 27.59375 39.40625 35.09375 37.21875 35.09375 20.140625 
C 35.09375 16.953125 35.09375 11.171875 32.09375 6.578125 
C 29.59375 2.484375 25.703125 0.390625 21.40625 0.390625 
C 14.796875 0.390625 8.09375 5 6.296875 12.71875 
C 6.703125 12.609375 7.5 12.421875 7.90625 12.421875 
C 9.203125 12.421875 11.703125 13.125 11.703125 16.21875 
C 11.703125 18.90625 9.796875 20 7.90625 20 
C 5.59375 20 4.09375 18.59375 4.09375 15.796875 
C 4.09375 7.09375 11 -2 21.59375 -2 
C 31.90625 -2 41.703125 6.875 41.703125 19.75 
C 41.703125 31.71875 33.90625 41 24.203125 41 
C 19.09375 41 14.796875 39.109375 11.40625 35.53125 
z
" id="CMR17-53"/>
      </defs>
      <g style="fill:#262626;" transform="translate(87.507242 139.918498)scale(0.1 -0.1)">
       <use transform="scale(0.996264)" xlink:href="#CMR17-48"/>
       <use transform="translate(45.690477 0)scale(0.996264)" xlink:href="#CMMI12-58"/>
       <use transform="translate(72.787654 0)scale(0.996264)" xlink:href="#CMR17-53"/>
      </g>
     </g>
    </g>
    <g id="xtick_3">
     <g id="line2d_3"/>
     <g id="text_3">
      <!-- $1.0$ -->
      <defs>
       <path d="M 26.59375 63.40625 
C 26.59375 65.5 26.5 65.5 25.09375 65.5 
C 21.203125 61.1875 15.296875 59.796875 9.703125 59.796875 
C 9.40625 59.796875 8.90625 59.796875 8.796875 59.5 
C 8.703125 59.296875 8.703125 59.09375 8.703125 57 
C 11.796875 57 17 57.59375 21 59.984375 
L 21 7.203125 
C 21 3.6875 20.796875 2.5 12.203125 2.5 
L 9.203125 2.5 
L 9.203125 0 
C 14 0 19 0 23.796875 0 
C 28.59375 0 33.59375 0 38.40625 0 
L 38.40625 2.5 
L 35.40625 2.5 
C 26.796875 2.5 26.59375 3.59375 26.59375 7.15625 
z
" id="CMR17-49"/>
      </defs>
      <g style="fill:#262626;" transform="translate(144.020321 139.918498)scale(0.1 -0.1)">
       <use transform="scale(0.996264)" xlink:href="#CMR17-49"/>
       <use transform="translate(45.690477 0)scale(0.996264)" xlink:href="#CMMI12-58"/>
       <use transform="translate(72.787654 0)scale(0.996264)" xlink:href="#CMR17-48"/>
      </g>
     </g>
    </g>
    <g id="text_4">
     <!-- CC -->
     <defs>
      <path d="M 62.09375 67.015625 
C 62.09375 68.796875 62 68.90625 61.40625 68.90625 
C 61 68.90625 60.90625 68.796875 60.203125 67.609375 
L 55.796875 59.25 
C 50.90625 65.421875 44.90625 69 37.203125 69 
C 20.09375 69 4.59375 54 4.59375 33.5625 
C 4.59375 12.90625 20.09375 -2 37.296875 -2 
C 52.59375 -2 62.09375 11.40625 62.09375 22.828125 
C 62.09375 23.8125 62.09375 24.21875 61.203125 24.21875 
C 60.40625 24.21875 60.40625 23.921875 60.296875 23.03125 
C 59.5 9.140625 49.5 0.59375 38.703125 0.59375 
C 28.5 0.59375 12.203125 7.734375 12.203125 33.546875 
C 12.203125 59.453125 28.796875 66.40625 38.5 66.40625 
C 49.796875 66.40625 58 56.6875 59.90625 42.890625 
C 60.09375 41.6875 60.09375 41.484375 61 41.484375 
C 62.09375 41.484375 62.09375 41.6875 62.09375 43.484375 
z
" id="CMR17-67"/>
     </defs>
     <g style="fill:#262626;" transform="translate(81.209792 153.466023)scale(0.11 -0.11)">
      <use transform="scale(0.996264)" xlink:href="#CMR17-67"/>
      <use transform="translate(66.509881 0)scale(0.996264)" xlink:href="#CMR17-67"/>
     </g>
    </g>
   </g>
   <g id="matplotlib.axis_2">
    <g id="ytick_1">
     <g id="line2d_4"/>
     <g id="text_5">
      <!-- $0$ -->
      <g style="fill:#262626;" transform="translate(9.756365 129.459249)scale(0.1 -0.1)">
       <use transform="scale(0.996264)" xlink:href="#CMR17-48"/>
      </g>
     </g>
    </g>
    <g id="ytick_2">
     <g id="line2d_5"/>
     <g id="text_6">
      <!-- $2000$ -->
      <defs>
       <path d="M 41.703125 15.453125 
L 39.90625 15.453125 
C 38.90625 8.375 38.09375 7.171875 37.703125 6.5625 
C 37.203125 5.765625 30 5.765625 28.59375 5.765625 
L 9.40625 5.765625 
C 13 9.671875 20 16.75 28.5 24.953125 
C 34.59375 30.734375 41.703125 37.53125 41.703125 47.421875 
C 41.703125 59.21875 32.296875 66 21.796875 66 
C 10.796875 66 4.09375 56.3125 4.09375 47.34375 
C 4.09375 43.4375 7 42.9375 8.203125 42.9375 
C 9.203125 42.9375 12.203125 43.546875 12.203125 47.03125 
C 12.203125 50.109375 9.59375 51 8.203125 51 
C 7.59375 51 7 50.90625 6.59375 50.703125 
C 8.5 59.21875 14.296875 63.40625 20.40625 63.40625 
C 29.09375 63.40625 34.796875 56.515625 34.796875 47.421875 
C 34.796875 38.734375 29.703125 31.25 24 24.75 
L 4.09375 2.28125 
L 4.09375 0 
L 39.296875 0 
z
" id="CMR17-50"/>
      </defs>
      <g style="fill:#262626;" transform="translate(-5.187641 90.996078)scale(0.1 -0.1)">
       <use transform="scale(0.996264)" xlink:href="#CMR17-50"/>
       <use transform="translate(45.690477 0)scale(0.996264)" xlink:href="#CMR17-48"/>
       <use transform="translate(91.380954 0)scale(0.996264)" xlink:href="#CMR17-48"/>
       <use transform="translate(137.071431 0)scale(0.996264)" xlink:href="#CMR17-48"/>
      </g>
     </g>
    </g>
    <g id="ytick_3">
     <g id="line2d_6"/>
     <g id="text_7">
      <!-- $4000$ -->
      <defs>
       <path d="M 33.59375 64.40625 
C 33.59375 66.5 33.5 66.5 31.703125 66.5 
L 2 19.59375 
L 2 17 
L 27.796875 17 
L 27.796875 7.140625 
C 27.796875 3.5 27.59375 2.5 20.59375 2.5 
L 18.703125 2.5 
L 18.703125 0 
C 21.90625 0 27.296875 0 30.703125 0 
C 34.09375 0 39.5 0 42.703125 0 
L 42.703125 2.5 
L 40.796875 2.5 
C 33.796875 2.5 33.59375 3.5 33.59375 7.140625 
L 33.59375 17 
L 43.796875 17 
L 43.796875 19.59375 
L 33.59375 19.59375 
z
M 28.09375 57.859375 
L 28.09375 19.59375 
L 4 19.59375 
z
" id="CMR17-52"/>
      </defs>
      <g style="fill:#262626;" transform="translate(-5.187641 52.532907)scale(0.1 -0.1)">
       <use transform="scale(0.996264)" xlink:href="#CMR17-52"/>
       <use transform="translate(45.690477 0)scale(0.996264)" xlink:href="#CMR17-48"/>
       <use transform="translate(91.380954 0)scale(0.996264)" xlink:href="#CMR17-48"/>
       <use transform="translate(137.071431 0)scale(0.996264)" xlink:href="#CMR17-48"/>
      </g>
     </g>
    </g>
    <g id="text_8">
     <!-- N pairs -->
     <defs>
      <path d="M 20.5 66.40625 
C 19.796875 67.5 19.703125 67.5 17.796875 67.5 
L 5.09375 67.5 
L 5.09375 65 
L 7 65 
C 11 65 12.796875 64.515625 13.09375 64.40625 
L 13.09375 9.53125 
C 13.09375 7.046875 13.09375 2.390625 5.09375 2.390625 
L 5.09375 -0.203125 
C 7.40625 0 11.59375 0 14.09375 0 
C 16.59375 0 20.796875 0 23.09375 -0.203125 
L 23.09375 2.390625 
C 15.09375 2.390625 15.09375 7.046875 15.09375 9.53125 
L 15.09375 63.015625 
C 15.796875 62.421875 15.796875 62.21875 16.5 61.234375 
L 53.59375 1.1875 
C 54.296875 0 54.59375 0 55.09375 0 
C 56.09375 0 56.09375 0.296875 56.09375 2.171875 
L 56.09375 57.890625 
C 56.09375 60.359375 56.09375 65 64.09375 65 
L 64.09375 67.59375 
C 61.796875 67.5 57.59375 67.5 55.09375 67.5 
C 52.59375 67.5 48.40625 67.5 46.09375 67.59375 
L 46.09375 65 
C 54.09375 65 54.09375 60.34375 54.09375 57.859375 
L 54.09375 11.921875 
z
" id="CMR17-78"/>
      <path d="M 22 -16.609375 
C 15.59375 -16.609375 15.203125 -16.203125 15.203125 -12.328125 
L 15.203125 6.28125 
C 18.09375 2.09375 22.296875 -0.59375 27.59375 -0.59375 
C 37.59375 -0.59375 47.703125 8.171875 47.703125 21.6875 
C 47.703125 34.234375 39 43.78125 28.703125 43.78125 
C 22.703125 43.78125 17.796875 40.5 15 36.53125 
L 15 43.78125 
L 3.09375 42.6875 
L 3.09375 40.109375 
C 9 40.109375 9.90625 39.5 9.90625 34.734375 
L 9.90625 -12.328125 
C 9.90625 -16.109375 9.5 -16.609375 3.09375 -16.609375 
L 3.09375 -19.1875 
C 5.5 -19 9.90625 -19 12.5 -19 
C 15.09375 -19 19.59375 -19 22 -19.1875 
z
M 15.203125 31.4375 
C 15.203125 32.84375 15.203125 34.921875 19.09375 38.609375 
C 19.59375 39.015625 23 42 28 42 
C 35.296875 42 41.296875 32.9375 41.296875 21.59375 
C 41.296875 10.25 34.90625 1 27 1 
C 23.40625 1 19.5 2.6875 16.5 7.375 
C 15.203125 9.5625 15.203125 10.15625 15.203125 11.75 
z
" id="CMR17-112"/>
      <path d="M 36 25.828125 
C 36 32.375 36 35.84375 31.796875 39.734375 
C 28.09375 43 23.796875 44 20.40625 44 
C 12.5 44 6.796875 37.609375 6.796875 30.796875 
C 6.796875 27 9.796875 27 10.40625 27 
C 11.703125 27 14 27.78125 14 30.53125 
C 14 33 12.09375 34.078125 10.40625 34.078125 
C 10 34.078125 9.5 33.96875 9.203125 33.875 
C 11.296875 40.5 16.703125 42.40625 20.203125 42.40625 
C 25.203125 42.40625 30.703125 37.953125 30.703125 29.453125 
L 30.703125 25 
C 24.796875 25 17.703125 24.203125 12.09375 21.203125 
C 5.796875 17.703125 4 12.703125 4 8.90625 
C 4 1.203125 13 -1 18.296875 -1 
C 23.796875 -1 28.90625 2.171875 31.09375 7.984375 
C 31.296875 3.640625 34.09375 -0.28125 38.5 -0.28125 
C 40.59375 -0.28125 45.90625 1.09375 45.90625 8.859375 
L 45.90625 14.375 
L 44.09375 14.375 
L 44.09375 8.78125 
C 44.09375 2.78125 41.40625 2 40.09375 2 
C 36 2 36 7.15625 36 11.53125 
z
M 30.703125 13.59375 
C 30.703125 4.953125 24.5 0.59375 19 0.59375 
C 14 0.59375 10.09375 4.296875 10.09375 8.90625 
C 10.09375 11.890625 11.40625 17.1875 17.203125 20.390625 
C 22 23.09375 27.5 23.5 30.703125 23.5 
z
" id="CMR17-97"/>
      <path d="M 15.5 61.078125 
C 15.5 63.265625 13.703125 65.15625 11.40625 65.15625 
C 9.203125 65.15625 7.296875 63.375 7.296875 61.078125 
C 7.296875 58.890625 9.09375 57 11.40625 57 
C 13.59375 57 15.5 58.796875 15.5 61.078125 
z
M 3.796875 42.28125 
L 3.796875 39.703125 
C 9.40625 39.703125 10.203125 39.09375 10.203125 34.328125 
L 10.203125 6.671875 
C 10.203125 2.875 9.796875 2.390625 3.40625 2.390625 
L 3.40625 -0.203125 
C 5.796875 0 10.09375 0 12.59375 0 
C 15 0 19.09375 0 21.40625 -0.203125 
L 21.40625 2.390625 
C 15.5 2.390625 15.296875 2.984375 15.296875 6.5625 
L 15.296875 43.375 
z
" id="CMR17-105"/>
      <path d="M 15 23.390625 
C 15 33 19.09375 42 26.59375 42 
C 27.296875 42 28 41.90625 28.703125 41.59375 
C 28.703125 41.59375 26.5 40.890625 26.5 38.3125 
C 26.5 35.90625 28.40625 34.90625 29.90625 34.90625 
C 31.09375 34.90625 33.296875 35.609375 33.296875 38.40625 
C 33.296875 41.609375 30.09375 43.59375 26.703125 43.59375 
C 19.09375 43.59375 15.796875 36.203125 14.796875 32.703125 
L 14.703125 32.703125 
L 14.703125 43.59375 
L 3.09375 42.5 
L 3.09375 39.90625 
C 9 39.90625 9.90625 39.296875 9.90625 34.5 
L 9.90625 6.6875 
C 9.90625 2.875 9.5 2.390625 3.09375 2.390625 
L 3.09375 -0.203125 
C 5.5 0 10.09375 0 12.703125 0 
C 15.59375 0 20.703125 0 23.40625 -0.203125 
L 23.40625 2.390625 
C 16.203125 2.390625 15 2.390625 15 6.875 
z
" id="CMR17-114"/>
      <path d="M 30.90625 42.140625 
C 30.90625 43.953125 30.796875 44.046875 30.203125 44.046875 
C 29.796875 44.046875 29.703125 43.953125 28.5 42.453125 
C 28.203125 42.046875 27.296875 41.03125 27 40.640625 
C 23.796875 44.046875 19.296875 44.046875 17.59375 44.046875 
C 6.5 44.046875 2.5 38.234375 2.5 32.4375 
C 2.5 23.40625 12.703125 21.328125 15.59375 20.703125 
C 21.90625 19.421875 24.09375 19.015625 26.203125 17.203125 
C 27.5 16.015625 29.703125 13.8125 29.703125 10.21875 
C 29.703125 6 27.296875 0.59375 18.09375 0.59375 
C 9.40625 0.59375 6.296875 7.1875 4.5 15.953125 
C 4.203125 17.34375 4.203125 17.453125 3.40625 17.453125 
C 2.59375 17.453125 2.5 17.34375 2.5 15.359375 
L 2.5 0.984375 
C 2.5 -0.796875 2.59375 -0.90625 3.203125 -0.90625 
C 3.703125 -0.90625 3.796875 -0.796875 4.296875 0 
C 4.90625 0.890625 6.40625 3.296875 7 4.3125 
C 9 1.609375 12.5 -1 18.09375 -1 
C 28 -1 33.296875 4.421875 33.296875 12.25 
C 33.296875 17.375 30.59375 20.078125 29.296875 21.28125 
C 26.296875 24.390625 22.796875 25.09375 18.59375 25.890625 
C 13.09375 27.109375 6.09375 28.515625 6.09375 34.640625 
C 6.09375 37.234375 7.5 42.765625 17.59375 42.765625 
C 28.296875 42.765625 28.90625 32.71875 29.09375 29.5 
C 29.203125 29 29.703125 28.890625 30 28.890625 
C 30.90625 28.890625 30.90625 29.203125 30.90625 30.90625 
z
" id="CMR17-115"/>
     </defs>
     <g style="fill:#262626;" transform="translate(-11.318536 89.189508)rotate(-90)scale(0.11 -0.11)">
      <use transform="scale(0.996264)" xlink:href="#CMR17-78"/>
      <use transform="translate(99.148396 0)scale(0.996264)" xlink:href="#CMR17-112"/>
      <use transform="translate(150.043766 0)scale(0.996264)" xlink:href="#CMR17-97"/>
      <use transform="translate(195.734243 0)scale(0.996264)" xlink:href="#CMR17-105"/>
      <use transform="translate(220.605302 0)scale(0.996264)" xlink:href="#CMR17-114"/>
      <use transform="translate(255.886069 0)scale(0.996264)" xlink:href="#CMR17-115"/>
     </g>
    </g>
   </g>
   <g id="patch_3">
    <path clip-path="url(#p0e530da5f8)" d="M 27.863779 126 
L 29.088995 126 
L 29.088995 125.826916 
L 27.863779 125.826916 
z
" style="fill:#4c72b0;"/>
   </g>
   <g id="patch_4">
    <path clip-path="url(#p0e530da5f8)" d="M 29.088995 126 
L 30.314211 126 
L 30.314211 124.538399 
L 29.088995 124.538399 
z
" style="fill:#4c72b0;"/>
   </g>
   <g id="patch_5">
    <path clip-path="url(#p0e530da5f8)" d="M 30.314211 126 
L 31.539427 126 
L 31.539427 121.769051 
L 30.314211 121.769051 
z
" style="fill:#4c72b0;"/>
   </g>
   <g id="patch_6">
    <path clip-path="url(#p0e530da5f8)" d="M 31.539427 126 
L 32.764642 126 
L 32.764642 118.288134 
L 31.539427 118.288134 
z
" style="fill:#4c72b0;"/>
   </g>
   <g id="patch_7">
    <path clip-path="url(#p0e530da5f8)" d="M 32.764642 126 
L 33.989858 126 
L 33.989858 119.192019 
L 32.764642 119.192019 
z
" style="fill:#4c72b0;"/>
   </g>
   <g id="patch_8">
    <path clip-path="url(#p0e530da5f8)" d="M 33.989858 126 
L 35.215074 126 
L 35.215074 121.595967 
L 33.989858 121.595967 
z
" style="fill:#4c72b0;"/>
   </g>
   <g id="patch_9">
    <path clip-path="url(#p0e530da5f8)" d="M 35.215074 126 
L 36.44029 126 
L 36.44029 122.172914 
L 35.215074 122.172914 
z
" style="fill:#4c72b0;"/>
   </g>
   <g id="patch_10">
    <path clip-path="url(#p0e530da5f8)" d="M 36.44029 126 
L 37.665506 126 
L 37.665506 22.457143 
L 36.44029 22.457143 
z
" style="fill:#4c72b0;"/>
   </g>
   <g id="patch_11">
    <path clip-path="url(#p0e530da5f8)" d="M 37.665506 126 
L 38.890721 126 
L 38.890721 119.57665 
L 37.665506 119.57665 
z
" style="fill:#4c72b0;"/>
   </g>
   <g id="patch_12">
    <path clip-path="url(#p0e530da5f8)" d="M 38.890721 126 
L 40.115937 126 
L 40.115937 118.922776 
L 38.890721 118.922776 
z
" style="fill:#4c72b0;"/>
   </g>
   <g id="patch_13">
    <path clip-path="url(#p0e530da5f8)" d="M 40.115937 126 
L 41.341153 126 
L 41.341153 120.672851 
L 40.115937 120.672851 
z
" style="fill:#4c72b0;"/>
   </g>
   <g id="patch_14">
    <path clip-path="url(#p0e530da5f8)" d="M 41.341153 126 
L 42.566369 126 
L 42.566369 120.17283 
L 41.341153 120.17283 
z
" style="fill:#4c72b0;"/>
   </g>
   <g id="patch_15">
    <path clip-path="url(#p0e530da5f8)" d="M 42.566369 126 
L 43.791585 126 
L 43.791585 120.384377 
L 42.566369 120.384377 
z
" style="fill:#4c72b0;"/>
   </g>
   <g id="patch_16">
    <path clip-path="url(#p0e530da5f8)" d="M 43.791585 126 
L 45.016801 126 
L 45.016801 121.057482 
L 43.791585 121.057482 
z
" style="fill:#4c72b0;"/>
   </g>
   <g id="patch_17">
    <path clip-path="url(#p0e530da5f8)" d="M 45.016801 126 
L 46.242016 126 
L 46.242016 121.769051 
L 45.016801 121.769051 
z
" style="fill:#4c72b0;"/>
   </g>
   <g id="patch_18">
    <path clip-path="url(#p0e530da5f8)" d="M 46.242016 126 
L 47.467232 126 
L 47.467232 122.192146 
L 46.242016 122.192146 
z
" style="fill:#4c72b0;"/>
   </g>
   <g id="patch_19">
    <path clip-path="url(#p0e530da5f8)" d="M 47.467232 126 
L 48.692448 126 
L 48.692448 122.692167 
L 47.467232 122.692167 
z
" style="fill:#4c72b0;"/>
   </g>
   <g id="patch_20">
    <path clip-path="url(#p0e530da5f8)" d="M 48.692448 126 
L 49.917664 126 
L 49.917664 123.499894 
L 48.692448 123.499894 
z
" style="fill:#4c72b0;"/>
   </g>
   <g id="patch_21">
    <path clip-path="url(#p0e530da5f8)" d="M 49.917664 126 
L 51.14288 126 
L 51.14288 123.69221 
L 49.917664 123.69221 
z
" style="fill:#4c72b0;"/>
   </g>
   <g id="patch_22">
    <path clip-path="url(#p0e530da5f8)" d="M 51.14288 126 
L 52.368095 126 
L 52.368095 124.249926 
L 51.14288 124.249926 
z
" style="fill:#4c72b0;"/>
   </g>
   <g id="patch_23">
    <path clip-path="url(#p0e530da5f8)" d="M 52.368095 126 
L 53.593311 126 
L 53.593311 124.326852 
L 52.368095 124.326852 
z
" style="fill:#4c72b0;"/>
   </g>
   <g id="patch_24">
    <path clip-path="url(#p0e530da5f8)" d="M 53.593311 126 
L 54.818527 126 
L 54.818527 124.673021 
L 53.593311 124.673021 
z
" style="fill:#4c72b0;"/>
   </g>
   <g id="patch_25">
    <path clip-path="url(#p0e530da5f8)" d="M 54.818527 126 
L 56.043743 126 
L 56.043743 125.076884 
L 54.818527 125.076884 
z
" style="fill:#4c72b0;"/>
   </g>
   <g id="patch_26">
    <path clip-path="url(#p0e530da5f8)" d="M 56.043743 126 
L 57.268959 126 
L 57.268959 125.307663 
L 56.043743 125.307663 
z
" style="fill:#4c72b0;"/>
   </g>
   <g id="patch_27">
    <path clip-path="url(#p0e530da5f8)" d="M 57.268959 126 
L 58.494175 126 
L 58.494175 125.326895 
L 57.268959 125.326895 
z
" style="fill:#4c72b0;"/>
   </g>
   <g id="patch_28">
    <path clip-path="url(#p0e530da5f8)" d="M 58.494175 126 
L 59.71939 126 
L 59.71939 125.557674 
L 58.494175 125.557674 
z
" style="fill:#4c72b0;"/>
   </g>
   <g id="patch_29">
    <path clip-path="url(#p0e530da5f8)" d="M 59.71939 126 
L 60.944606 126 
L 60.944606 125.653831 
L 59.71939 125.653831 
z
" style="fill:#4c72b0;"/>
   </g>
   <g id="patch_30">
    <path clip-path="url(#p0e530da5f8)" d="M 60.944606 126 
L 62.169822 126 
L 62.169822 125.6346 
L 60.944606 125.6346 
z
" style="fill:#4c72b0;"/>
   </g>
   <g id="patch_31">
    <path clip-path="url(#p0e530da5f8)" d="M 62.169822 126 
L 63.395038 126 
L 63.395038 125.769221 
L 62.169822 125.769221 
z
" style="fill:#4c72b0;"/>
   </g>
   <g id="patch_32">
    <path clip-path="url(#p0e530da5f8)" d="M 63.395038 126 
L 64.620254 126 
L 64.620254 125.865379 
L 63.395038 125.865379 
z
" style="fill:#4c72b0;"/>
   </g>
   <g id="patch_33">
    <path clip-path="url(#p0e530da5f8)" d="M 64.620254 126 
L 65.845469 126 
L 65.845469 126 
L 64.620254 126 
z
" style="fill:#4c72b0;"/>
   </g>
   <g id="patch_34">
    <path clip-path="url(#p0e530da5f8)" d="M 65.845469 126 
L 67.070685 126 
L 67.070685 125.942305 
L 65.845469 125.942305 
z
" style="fill:#4c72b0;"/>
   </g>
   <g id="patch_35">
    <path clip-path="url(#p0e530da5f8)" d="M 67.070685 126 
L 68.295901 126 
L 68.295901 125.942305 
L 67.070685 125.942305 
z
" style="fill:#4c72b0;"/>
   </g>
   <g id="patch_36">
    <path clip-path="url(#p0e530da5f8)" d="M 68.295901 126 
L 69.521117 126 
L 69.521117 125.961537 
L 68.295901 125.961537 
z
" style="fill:#4c72b0;"/>
   </g>
   <g id="patch_37">
    <path clip-path="url(#p0e530da5f8)" d="M 69.521117 126 
L 70.746333 126 
L 70.746333 126 
L 69.521117 126 
z
" style="fill:#4c72b0;"/>
   </g>
   <g id="patch_38">
    <path clip-path="url(#p0e530da5f8)" d="M 70.746333 126 
L 71.971549 126 
L 71.971549 126 
L 70.746333 126 
z
" style="fill:#4c72b0;"/>
   </g>
   <g id="patch_39">
    <path clip-path="url(#p0e530da5f8)" d="M 71.971549 126 
L 73.196764 126 
L 73.196764 126 
L 71.971549 126 
z
" style="fill:#4c72b0;"/>
   </g>
   <g id="patch_40">
    <path clip-path="url(#p0e530da5f8)" d="M 73.196764 126 
L 74.42198 126 
L 74.42198 126 
L 73.196764 126 
z
" style="fill:#4c72b0;"/>
   </g>
   <g id="patch_41">
    <path clip-path="url(#p0e530da5f8)" d="M 74.42198 126 
L 75.647196 126 
L 75.647196 126 
L 74.42198 126 
z
" style="fill:#4c72b0;"/>
   </g>
   <g id="patch_42">
    <path clip-path="url(#p0e530da5f8)" d="M 75.647196 126 
L 76.872412 126 
L 76.872412 126 
L 75.647196 126 
z
" style="fill:#4c72b0;"/>
   </g>
   <g id="patch_43">
    <path clip-path="url(#p0e530da5f8)" d="M 76.872412 126 
L 78.097628 126 
L 78.097628 126 
L 76.872412 126 
z
" style="fill:#4c72b0;"/>
   </g>
   <g id="patch_44">
    <path clip-path="url(#p0e530da5f8)" d="M 78.097628 126 
L 79.322843 126 
L 79.322843 126 
L 78.097628 126 
z
" style="fill:#4c72b0;"/>
   </g>
   <g id="patch_45">
    <path clip-path="url(#p0e530da5f8)" d="M 79.322843 126 
L 80.548059 126 
L 80.548059 126 
L 79.322843 126 
z
" style="fill:#4c72b0;"/>
   </g>
   <g id="patch_46">
    <path clip-path="url(#p0e530da5f8)" d="M 80.548059 126 
L 81.773275 126 
L 81.773275 126 
L 80.548059 126 
z
" style="fill:#4c72b0;"/>
   </g>
   <g id="patch_47">
    <path clip-path="url(#p0e530da5f8)" d="M 81.773275 126 
L 82.998491 126 
L 82.998491 126 
L 81.773275 126 
z
" style="fill:#4c72b0;"/>
   </g>
   <g id="patch_48">
    <path clip-path="url(#p0e530da5f8)" d="M 82.998491 126 
L 84.223707 126 
L 84.223707 126 
L 82.998491 126 
z
" style="fill:#4c72b0;"/>
   </g>
   <g id="patch_49">
    <path clip-path="url(#p0e530da5f8)" d="M 84.223707 126 
L 85.448923 126 
L 85.448923 126 
L 84.223707 126 
z
" style="fill:#4c72b0;"/>
   </g>
   <g id="patch_50">
    <path clip-path="url(#p0e530da5f8)" d="M 85.448923 126 
L 86.674138 126 
L 86.674138 126 
L 85.448923 126 
z
" style="fill:#4c72b0;"/>
   </g>
   <g id="patch_51">
    <path clip-path="url(#p0e530da5f8)" d="M 86.674138 126 
L 87.899354 126 
L 87.899354 126 
L 86.674138 126 
z
" style="fill:#4c72b0;"/>
   </g>
   <g id="patch_52">
    <path clip-path="url(#p0e530da5f8)" d="M 87.899354 126 
L 89.12457 126 
L 89.12457 126 
L 87.899354 126 
z
" style="fill:#4c72b0;"/>
   </g>
   <g id="patch_53">
    <path clip-path="url(#p0e530da5f8)" d="M 89.12457 126 
L 90.349786 126 
L 90.349786 126 
L 89.12457 126 
z
" style="fill:#4c72b0;"/>
   </g>
   <g id="patch_54">
    <path clip-path="url(#p0e530da5f8)" d="M 90.349786 126 
L 91.575002 126 
L 91.575002 126 
L 90.349786 126 
z
" style="fill:#4c72b0;"/>
   </g>
   <g id="patch_55">
    <path clip-path="url(#p0e530da5f8)" d="M 91.575002 126 
L 92.800217 126 
L 92.800217 126 
L 91.575002 126 
z
" style="fill:#4c72b0;"/>
   </g>
   <g id="patch_56">
    <path clip-path="url(#p0e530da5f8)" d="M 92.800217 126 
L 94.025433 126 
L 94.025433 126 
L 92.800217 126 
z
" style="fill:#4c72b0;"/>
   </g>
   <g id="patch_57">
    <path clip-path="url(#p0e530da5f8)" d="M 94.025433 126 
L 95.250649 126 
L 95.250649 126 
L 94.025433 126 
z
" style="fill:#4c72b0;"/>
   </g>
   <g id="patch_58">
    <path clip-path="url(#p0e530da5f8)" d="M 95.250649 126 
L 96.475865 126 
L 96.475865 126 
L 95.250649 126 
z
" style="fill:#4c72b0;"/>
   </g>
   <g id="patch_59">
    <path clip-path="url(#p0e530da5f8)" d="M 96.475865 126 
L 97.701081 126 
L 97.701081 126 
L 96.475865 126 
z
" style="fill:#4c72b0;"/>
   </g>
   <g id="patch_60">
    <path clip-path="url(#p0e530da5f8)" d="M 97.701081 126 
L 98.926297 126 
L 98.926297 126 
L 97.701081 126 
z
" style="fill:#4c72b0;"/>
   </g>
   <g id="patch_61">
    <path clip-path="url(#p0e530da5f8)" d="M 98.926297 126 
L 100.151512 126 
L 100.151512 126 
L 98.926297 126 
z
" style="fill:#4c72b0;"/>
   </g>
   <g id="patch_62">
    <path clip-path="url(#p0e530da5f8)" d="M 100.151512 126 
L 101.376728 126 
L 101.376728 126 
L 100.151512 126 
z
" style="fill:#4c72b0;"/>
   </g>
   <g id="patch_63">
    <path clip-path="url(#p0e530da5f8)" d="M 101.376728 126 
L 102.601944 126 
L 102.601944 126 
L 101.376728 126 
z
" style="fill:#4c72b0;"/>
   </g>
   <g id="patch_64">
    <path clip-path="url(#p0e530da5f8)" d="M 102.601944 126 
L 103.82716 126 
L 103.82716 126 
L 102.601944 126 
z
" style="fill:#4c72b0;"/>
   </g>
   <g id="patch_65">
    <path clip-path="url(#p0e530da5f8)" d="M 103.82716 126 
L 105.052376 126 
L 105.052376 126 
L 103.82716 126 
z
" style="fill:#4c72b0;"/>
   </g>
   <g id="patch_66">
    <path clip-path="url(#p0e530da5f8)" d="M 105.052376 126 
L 106.277591 126 
L 106.277591 126 
L 105.052376 126 
z
" style="fill:#4c72b0;"/>
   </g>
   <g id="patch_67">
    <path clip-path="url(#p0e530da5f8)" d="M 106.277591 126 
L 107.502807 126 
L 107.502807 126 
L 106.277591 126 
z
" style="fill:#4c72b0;"/>
   </g>
   <g id="patch_68">
    <path clip-path="url(#p0e530da5f8)" d="M 107.502807 126 
L 108.728023 126 
L 108.728023 126 
L 107.502807 126 
z
" style="fill:#4c72b0;"/>
   </g>
   <g id="patch_69">
    <path clip-path="url(#p0e530da5f8)" d="M 108.728023 126 
L 109.953239 126 
L 109.953239 126 
L 108.728023 126 
z
" style="fill:#4c72b0;"/>
   </g>
   <g id="patch_70">
    <path clip-path="url(#p0e530da5f8)" d="M 109.953239 126 
L 111.178455 126 
L 111.178455 126 
L 109.953239 126 
z
" style="fill:#4c72b0;"/>
   </g>
   <g id="patch_71">
    <path clip-path="url(#p0e530da5f8)" d="M 111.178455 126 
L 112.403671 126 
L 112.403671 126 
L 111.178455 126 
z
" style="fill:#4c72b0;"/>
   </g>
   <g id="patch_72">
    <path clip-path="url(#p0e530da5f8)" d="M 112.403671 126 
L 113.628886 126 
L 113.628886 126 
L 112.403671 126 
z
" style="fill:#4c72b0;"/>
   </g>
   <g id="patch_73">
    <path clip-path="url(#p0e530da5f8)" d="M 113.628886 126 
L 114.854102 126 
L 114.854102 126 
L 113.628886 126 
z
" style="fill:#4c72b0;"/>
   </g>
   <g id="patch_74">
    <path clip-path="url(#p0e530da5f8)" d="M 114.854102 126 
L 116.079318 126 
L 116.079318 126 
L 114.854102 126 
z
" style="fill:#4c72b0;"/>
   </g>
   <g id="patch_75">
    <path clip-path="url(#p0e530da5f8)" d="M 116.079318 126 
L 117.304534 126 
L 117.304534 126 
L 116.079318 126 
z
" style="fill:#4c72b0;"/>
   </g>
   <g id="patch_76">
    <path clip-path="url(#p0e530da5f8)" d="M 117.304534 126 
L 118.52975 126 
L 118.52975 126 
L 117.304534 126 
z
" style="fill:#4c72b0;"/>
   </g>
   <g id="patch_77">
    <path clip-path="url(#p0e530da5f8)" d="M 118.52975 126 
L 119.754965 126 
L 119.754965 126 
L 118.52975 126 
z
" style="fill:#4c72b0;"/>
   </g>
   <g id="patch_78">
    <path clip-path="url(#p0e530da5f8)" d="M 119.754965 126 
L 120.980181 126 
L 120.980181 126 
L 119.754965 126 
z
" style="fill:#4c72b0;"/>
   </g>
   <g id="patch_79">
    <path clip-path="url(#p0e530da5f8)" d="M 120.980181 126 
L 122.205397 126 
L 122.205397 126 
L 120.980181 126 
z
" style="fill:#4c72b0;"/>
   </g>
   <g id="patch_80">
    <path clip-path="url(#p0e530da5f8)" d="M 122.205397 126 
L 123.430613 126 
L 123.430613 126 
L 122.205397 126 
z
" style="fill:#4c72b0;"/>
   </g>
   <g id="patch_81">
    <path clip-path="url(#p0e530da5f8)" d="M 123.430613 126 
L 124.655829 126 
L 124.655829 126 
L 123.430613 126 
z
" style="fill:#4c72b0;"/>
   </g>
   <g id="patch_82">
    <path clip-path="url(#p0e530da5f8)" d="M 124.655829 126 
L 125.881045 126 
L 125.881045 126 
L 124.655829 126 
z
" style="fill:#4c72b0;"/>
   </g>
   <g id="patch_83">
    <path clip-path="url(#p0e530da5f8)" d="M 125.881045 126 
L 127.10626 126 
L 127.10626 126 
L 125.881045 126 
z
" style="fill:#4c72b0;"/>
   </g>
   <g id="patch_84">
    <path clip-path="url(#p0e530da5f8)" d="M 127.10626 126 
L 128.331476 126 
L 128.331476 126 
L 127.10626 126 
z
" style="fill:#4c72b0;"/>
   </g>
   <g id="patch_85">
    <path clip-path="url(#p0e530da5f8)" d="M 128.331476 126 
L 129.556692 126 
L 129.556692 126 
L 128.331476 126 
z
" style="fill:#4c72b0;"/>
   </g>
   <g id="patch_86">
    <path clip-path="url(#p0e530da5f8)" d="M 129.556692 126 
L 130.781908 126 
L 130.781908 126 
L 129.556692 126 
z
" style="fill:#4c72b0;"/>
   </g>
   <g id="patch_87">
    <path clip-path="url(#p0e530da5f8)" d="M 130.781908 126 
L 132.007124 126 
L 132.007124 126 
L 130.781908 126 
z
" style="fill:#4c72b0;"/>
   </g>
   <g id="patch_88">
    <path clip-path="url(#p0e530da5f8)" d="M 132.007124 126 
L 133.232339 126 
L 133.232339 126 
L 132.007124 126 
z
" style="fill:#4c72b0;"/>
   </g>
   <g id="patch_89">
    <path clip-path="url(#p0e530da5f8)" d="M 133.232339 126 
L 134.457555 126 
L 134.457555 126 
L 133.232339 126 
z
" style="fill:#4c72b0;"/>
   </g>
   <g id="patch_90">
    <path clip-path="url(#p0e530da5f8)" d="M 134.457555 126 
L 135.682771 126 
L 135.682771 126 
L 134.457555 126 
z
" style="fill:#4c72b0;"/>
   </g>
   <g id="patch_91">
    <path clip-path="url(#p0e530da5f8)" d="M 135.682771 126 
L 136.907987 126 
L 136.907987 126 
L 135.682771 126 
z
" style="fill:#4c72b0;"/>
   </g>
   <g id="patch_92">
    <path clip-path="url(#p0e530da5f8)" d="M 136.907987 126 
L 138.133203 126 
L 138.133203 126 
L 136.907987 126 
z
" style="fill:#4c72b0;"/>
   </g>
   <g id="patch_93">
    <path clip-path="url(#p0e530da5f8)" d="M 138.133203 126 
L 139.358419 126 
L 139.358419 126 
L 138.133203 126 
z
" style="fill:#4c72b0;"/>
   </g>
   <g id="patch_94">
    <path clip-path="url(#p0e530da5f8)" d="M 139.358419 126 
L 140.583634 126 
L 140.583634 126 
L 139.358419 126 
z
" style="fill:#4c72b0;"/>
   </g>
   <g id="patch_95">
    <path clip-path="url(#p0e530da5f8)" d="M 140.583634 126 
L 141.80885 126 
L 141.80885 126 
L 140.583634 126 
z
" style="fill:#4c72b0;"/>
   </g>
   <g id="patch_96">
    <path clip-path="url(#p0e530da5f8)" d="M 141.80885 126 
L 143.034066 126 
L 143.034066 126 
L 141.80885 126 
z
" style="fill:#4c72b0;"/>
   </g>
   <g id="patch_97">
    <path clip-path="url(#p0e530da5f8)" d="M 143.034066 126 
L 144.259282 126 
L 144.259282 126 
L 143.034066 126 
z
" style="fill:#4c72b0;"/>
   </g>
   <g id="patch_98">
    <path clip-path="url(#p0e530da5f8)" d="M 144.259282 126 
L 145.484498 126 
L 145.484498 126 
L 144.259282 126 
z
" style="fill:#4c72b0;"/>
   </g>
   <g id="patch_99">
    <path clip-path="url(#p0e530da5f8)" d="M 145.484498 126 
L 146.709713 126 
L 146.709713 126 
L 145.484498 126 
z
" style="fill:#4c72b0;"/>
   </g>
   <g id="patch_100">
    <path clip-path="url(#p0e530da5f8)" d="M 146.709713 126 
L 147.934929 126 
L 147.934929 126 
L 146.709713 126 
z
" style="fill:#4c72b0;"/>
   </g>
   <g id="patch_101">
    <path clip-path="url(#p0e530da5f8)" d="M 147.934929 126 
L 149.160145 126 
L 149.160145 126 
L 147.934929 126 
z
" style="fill:#4c72b0;"/>
   </g>
   <g id="patch_102">
    <path clip-path="url(#p0e530da5f8)" d="M 149.160145 126 
L 150.385361 126 
L 150.385361 125.923074 
L 149.160145 125.923074 
z
" style="fill:#4c72b0;"/>
   </g>
   <g id="patch_103">
    <path d="M 21.7377 126 
L 21.7377 17.28 
" style="fill:none;stroke:#262626;stroke-linecap:square;stroke-linejoin:miter;stroke-width:1.25;"/>
   </g>
   <g id="patch_104">
    <path d="M 21.7377 126 
L 156.51144 126 
" style="fill:none;stroke:#262626;stroke-linecap:square;stroke-linejoin:miter;stroke-width:1.25;"/>
   </g>
  </g>
 </g>
 <defs>
  <clipPath id="p0e530da5f8">
   <rect height="108.72" width="134.77374" x="21.7377" y="17.28"/>
  </clipPath>
 </defs>
</svg>
