<?xml version="1.0" encoding="UTF-8" standalone="no"?>
<!-- Created with matplotlib (http://matplotlib.org/) -->

<svg
   xmlns:dc="http://purl.org/dc/elements/1.1/"
   xmlns:cc="http://creativecommons.org/ns#"
   xmlns:rdf="http://www.w3.org/1999/02/22-rdf-syntax-ns#"
   xmlns:svg="http://www.w3.org/2000/svg"
   xmlns="http://www.w3.org/2000/svg"
   xmlns:xlink="http://www.w3.org/1999/xlink"
   xmlns:sodipodi="http://sodipodi.sourceforge.net/DTD/sodipodi-0.dtd"
   xmlns:inkscape="http://www.inkscape.org/namespaces/inkscape"
   height="42.965366pt"
   version="1.1"
   viewBox="0 0 89.928033 42.965367"
   width="89.928032pt"
   id="svg1379"
   sodipodi:docname="mse_legend.svg"
   inkscape:version="0.92.3 (unknown)">
  <metadata
     id="metadata1383">
    <rdf:RDF>
      <cc:Work
         rdf:about="">
        <dc:format>image/svg+xml</dc:format>
        <dc:type
           rdf:resource="http://purl.org/dc/dcmitype/StillImage" />
        <dc:title />
      </cc:Work>
    </rdf:RDF>
  </metadata>
  <sodipodi:namedview
     pagecolor="#ffffff"
     bordercolor="#666666"
     borderopacity="1"
     objecttolerance="10"
     gridtolerance="10"
     guidetolerance="10"
     inkscape:pageopacity="0"
     inkscape:pageshadow="2"
     inkscape:window-width="1867"
     inkscape:window-height="1056"
     id="namedview1381"
     showgrid="false"
     fit-margin-top="0"
     fit-margin-left="0"
     fit-margin-right="0"
     fit-margin-bottom="0"
     inkscape:zoom="1.9334321"
     inkscape:cx="108.71821"
     inkscape:cy="-44.975425"
     inkscape:window-x="53"
     inkscape:window-y="24"
     inkscape:window-maximized="1"
     inkscape:current-layer="svg1379" />
  <defs
     id="defs4"
     style="stroke-linecap:butt;stroke-linejoin:round">
    <style
       type="text/css"
       id="style2">
*{stroke-linecap:butt;stroke-linejoin:round;}
  </style>
    <defs
       id="defs1233">
      <path
         d="m 62.09375,67.015625 c 0,1.78125 -0.09375,1.890625 -0.6875,1.890625 -0.40625,0 -0.5,-0.109375 -1.203125,-1.296875 L 55.796875,59.25 C 50.90625,65.421875 44.90625,69 37.203125,69 20.09375,69 4.59375,54 4.59375,33.5625 4.59375,12.90625 20.09375,-2 37.296875,-2 52.59375,-2 62.09375,11.40625 62.09375,22.828125 c 0,0.984375 0,1.390625 -0.890625,1.390625 -0.796875,0 -0.796875,-0.296875 -0.90625,-1.1875 C 59.5,9.140625 49.5,0.59375 38.703125,0.59375 c -10.203125,0 -26.5,7.140625 -26.5,32.953125 0,25.90625 16.59375,32.859375 26.296875,32.859375 11.296875,0 19.5,-9.71875 21.40625,-23.515625 0.1875,-1.203125 0.1875,-1.40625 1.09375,-1.40625 1.09375,0 1.09375,0.203125 1.09375,2 z"
         id="CMR17-67"
         inkscape:connector-curvature="0"
         style="stroke-linecap:butt;stroke-linejoin:round" />
    </defs>
    <defs
       id="defs1203">
      <path
         d="M 19.703125,61.015625 C 19.703125,65.5 20.90625,65.5 28.09375,65.5 V 68 c -3.1875,0 -8.296875,0 -11.6875,0 -3.40625,0 -8.5,0 -11.703125,0 v -2.5 c 7.203125,0 8.390625,0 8.390625,-4.484375 V 6.984375 C 13.09375,2.5 11.90625,2.5 4.703125,2.5 V 0 C 7.90625,0 13,0 16.40625,0 c 3.390625,0 8.5,0 11.6875,0 v 2.5 c -7.1875,0 -8.390625,0 -8.390625,4.484375 z"
         id="CMR17-73"
         inkscape:connector-curvature="0"
         style="stroke-linecap:butt;stroke-linejoin:round" />
      <path
         d="M 59,58.515625 C 59.90625,60.71875 61.5,65 68.203125,65 v 2.6875 c -2.296875,-0.203125 -4.90625,-0.203125 -7.40625,-0.203125 -2.390625,0 -6.5,0 -8.796875,0.203125 V 65 c 5,0 5.203125,-3.5 5.203125,-4.09375 0,-1.109375 -0.296875,-1.796875 -0.609375,-2.59375 l -19.6875,-51.34375 -20.609375,53.75 c -0.296875,0.703125 -0.5,1.203125 -0.5,1.6875 0,2.59375 4,2.59375 6.109375,2.59375 v 2.484375 c -3.203125,0 -7.90625,0 -11.203125,0 -2.609375,0 -7.296875,0 -9.703125,0.203125 V 65 c 5.796875,0 6.90625,-0.390625 8.09375,-3.578125 L 32.90625,-0.40625 C 33.40625,-1.796875 33.5,-2 34.59375,-2 c 1.109375,0 1.203125,0.203125 1.703125,1.59375 z"
         id="CMR17-86"
         inkscape:connector-curvature="0"
         style="stroke-linecap:butt;stroke-linejoin:round" />
      <path
         d="m 33.796875,12.671875 c -0.390625,-1.59375 -0.59375,-2 -1.890625,-3.484375 C 27.796875,3.890625 23.59375,2 20.5,2 c -3.296875,0 -6.40625,2.59375 -6.40625,9.46875 0,5.296875 3,16.46875 5.203125,20.96875 2.90625,5.578125 7.40625,9.578125 11.609375,9.578125 6.59375,0 7.890625,-8.1875 7.890625,-8.78125 L 38.5,31.828125 Z M 40,37.421875 C 38.703125,40.3125 35.90625,44 30.90625,44 20,44 7.59375,30.328125 7.59375,15.46875 7.59375,5.09375 13.90625,0 20.296875,0 c 5.296875,0 10,4.1875 11.796875,6.1875 l -2.1875,-8.859375 C 28.5,-8.0625 27.90625,-10.53125 24.296875,-13.96875 20.203125,-18 16.40625,-18 14.203125,-18 c -3,0 -5.5,0.203125 -8,0.984375 3.203125,0.875 4,3.609375 4,4.6875 0,1.5625 -1.203125,3.140625 -3.40625,3.140625 -2.390625,0 -5,-1.96875 -5,-5.21875 C 1.796875,-18.4375 5.90625,-20 14.40625,-20 27.296875,-20 34,-11.765625 35.296875,-6.40625 L 46.40625,38.046875 c 0.296875,1.1875 0.296875,1.390625 0.296875,1.578125 0,1.390625 -1.109375,2.484375 -2.609375,2.484375 -2.390625,0 -3.796875,-2 -4.09375,-4.6875 z"
         id="CMMI12-103"
         inkscape:connector-curvature="0"
         style="stroke-linecap:butt;stroke-linejoin:round" />
      <path
         d="m 64.296875,31.515625 c 1.5,0 3,0 3,1.6875 C 67.296875,35 65.59375,35 63.90625,35 H 8 c -1.703125,0 -3.40625,0 -3.40625,-1.796875 0,-1.6875 1.5,-1.6875 3,-1.6875 z M 63.90625,14 c 1.6875,0 3.390625,0 3.390625,1.796875 0,1.6875 -1.5,1.6875 -3,1.6875 H 7.59375 c -1.5,0 -3,0 -3,-1.6875 C 4.59375,14 6.296875,14 8,14 Z"
         id="CMR17-61"
         inkscape:connector-curvature="0"
         style="stroke-linecap:butt;stroke-linejoin:round" />
    </defs>
  </defs>
  <defs
     id="defs1377">
    <clipPath
       id="p3f1380a054"
       style="stroke-linecap:butt;stroke-linejoin:round">
      <rect
         height="108.72"
         width="126.31091"
         x="54.101814"
         y="43.336189"
         id="rect1371"
         style="stroke-linecap:butt;stroke-linejoin:round" />
    </clipPath>
    <clipPath
       id="p1830a2ef05"
       style="stroke-linecap:butt;stroke-linejoin:round">
      <rect
         height="108.72"
         width="126.31091"
         x="205.67491"
         y="43.336189"
         id="rect1374"
         style="stroke-linecap:butt;stroke-linejoin:round" />
    </clipPath>
  </defs>
  <g
     id="g5704"
     transform="translate(-57.621879,6.9714348)"
     style="stroke-linecap:butt;stroke-linejoin:round">
    <g
       transform="translate(-42.768013,-3)"
       style="stroke-linecap:butt;stroke-linejoin:round"
       id="g5627">
      <path
         d="m 138.49106,12.020533 h 22"
         style="fill:none;stroke:#4c72b0;stroke-width:2;stroke-linecap:round;stroke-linejoin:round"
         id="path1191"
         inkscape:connector-curvature="0" />
      <path
         style="fill:#4c72b0;stroke-linecap:butt;stroke-linejoin:round"
         inkscape:connector-curvature="0"
         id="use1194"
         d="m 149.49106,13.770533 c 0.4641,0 0.90926,-0.184391 1.23744,-0.512563 0.32817,-0.328172 0.51256,-0.773332 0.51256,-1.237437 0,-0.464105 -0.18439,-0.909265 -0.51256,-1.237437 -0.32818,-0.328172 -0.77334,-0.512563 -1.23744,-0.512563 -0.46411,0 -0.90927,0.184391 -1.23744,0.512563 -0.32817,0.328172 -0.51256,0.773332 -0.51256,1.237437 0,0.464105 0.18439,0.909265 0.51256,1.237437 0.32817,0.328172 0.77333,0.512563 1.23744,0.512563 z" />
    </g>
    <g
       style="stroke-linecap:butt;stroke-linejoin:round"
       transform="translate(15.642015,-15.335119)"
       id="g5594">
      <use
         height="100%"
         width="100%"
         y="0"
         x="0"
         style="fill:#262626;stroke-linecap:butt;stroke-linejoin:round"
         id="use1205"
         xlink:href="#CMR17-73"
         transform="matrix(0.10958904,0,0,-0.10958904,85.291057,15.870533)" />
      <use
         height="100%"
         width="100%"
         y="0"
         x="0"
         style="fill:#262626;stroke-linecap:butt;stroke-linejoin:round"
         id="use1207"
         xlink:href="#CMR17-86"
         transform="matrix(0.10958904,0,0,-0.10958904,88.881282,15.870533)" />
    </g>
    <g
       style="stroke-linecap:butt;stroke-linejoin:round"
       transform="translate(-45,-4.4649575)"
       id="g5601">
      <use
         height="100%"
         width="100%"
         y="0"
         x="0"
         style="fill:#262626;stroke-linecap:butt;stroke-linejoin:round"
         id="use1211"
         xlink:href="#CMMI12-103"
         transform="matrix(0.10958904,0,0,-0.10958904,102.52342,15.870533)" />
      <use
         height="100%"
         width="100%"
         y="0"
         x="0"
         style="fill:#262626;stroke-linecap:butt;stroke-linejoin:round"
         id="use1213"
         xlink:href="#CMR17-61"
         transform="matrix(0.10958904,0,0,-0.10958904,111.36318,15.870533)" />
      <path
         style="fill:#262626;stroke-width:0.10958904;stroke-linecap:butt;stroke-linejoin:round"
         inkscape:connector-curvature="0"
         id="use1215"
         d="m 126.41804,12.678752 c 0,2.39726 -0.99829,3.138699 -1.82021,3.138699 -0.25171,0 -0.86472,0 -1.11644,-0.450343 0.28425,0.04452 0.49315,-0.107876 0.49315,-0.383561 0,-0.297945 -0.24143,-0.395548 -0.39554,-0.395548 -0.0976,0 -0.39384,0.04452 -0.39384,0.416096 0,0.744863 0.64555,1.085616 1.43493,1.085616 1.26028,0 2.54281,-1.373288 2.54281,-3.768835 0,-2.9863018 -1.22774,-3.6061648 -2.05993,-3.6061648 -1.08562,0 -2.12671,0.9434931 -2.12671,2.3989728 0,1.347602 0.88869,2.34589 2.00513,2.34589 0.92124,0 1.32706,-0.847603 1.43665,-1.205479 z m -1.41439,0.606165 c -0.29623,0 -0.71233,-0.0548 -1.05137,-0.70548 -0.23116,-0.422945 -0.23116,-0.922945 -0.23116,-1.453767 0,-0.642123 0,-1.085616 0.30822,-1.5633561 0.1524,-0.2277397 0.43835,-0.5958904 1.07363,-0.5958904 1.29281,0 1.29281,1.9640415 1.29281,2.3972605 0,0.770548 -0.35103,1.921233 -1.39213,1.921233 z" />
      <path
         style="fill:#262626;stroke-width:0.10958904;stroke-linecap:butt;stroke-linejoin:round"
         inkscape:connector-curvature="0"
         id="use1217"
         d="m 129.40461,15.423615 c 0,-0.27226 -0.21917,-0.446918 -0.44863,-0.446918 -0.21918,0 -0.44863,0.174658 -0.44863,0.446918 0,0.27226 0.21918,0.446918 0.44863,0.446918 0.21918,0 0.44863,-0.174658 0.44863,-0.446918 z" />
      <path
         style="fill:#262626;stroke-width:0.10958904;stroke-linecap:butt;stroke-linejoin:round"
         inkscape:connector-curvature="0"
         id="use1219"
         d="m 134.17981,12.678752 c 0,2.39726 -0.99829,3.138699 -1.82021,3.138699 -0.25171,0 -0.86472,0 -1.11644,-0.450343 0.28425,0.04452 0.49315,-0.107876 0.49315,-0.383561 0,-0.297945 -0.24143,-0.395548 -0.39554,-0.395548 -0.0976,0 -0.39384,0.04452 -0.39384,0.416096 0,0.744863 0.64555,1.085616 1.43493,1.085616 1.26028,0 2.54281,-1.373288 2.54281,-3.768835 0,-2.9863018 -1.22774,-3.6061648 -2.05993,-3.6061648 -1.08562,0 -2.12671,0.9434931 -2.12671,2.3989728 0,1.347602 0.88869,2.34589 2.00513,2.34589 0.92124,0 1.32706,-0.847603 1.43665,-1.205479 z m -1.41439,0.606165 c -0.29623,0 -0.71233,-0.0548 -1.05137,-0.70548 -0.23116,-0.422945 -0.23116,-0.922945 -0.23116,-1.453767 0,-0.642123 0,-1.085616 0.30822,-1.5633561 0.1524,-0.2277397 0.43835,-0.5958904 1.07363,-0.5958904 1.29281,0 1.29281,1.9640415 1.29281,2.3972605 0,0.770548 -0.35103,1.921233 -1.39213,1.921233 z" />
    </g>
    <g
       style="stroke-linecap:butt;stroke-linejoin:round"
       transform="translate(-42.768013,-3)"
       id="g5631">
      <path
         d="m 138.49106,23.162196 h 22"
         style="fill:none;stroke:#c44e52;stroke-width:2;stroke-linecap:round;stroke-linejoin:round"
         id="path1256"
         inkscape:connector-curvature="0" />
      <path
         style="fill:#c44e52;stroke-linecap:butt;stroke-linejoin:round"
         inkscape:connector-curvature="0"
         id="use1259"
         d="m 149.49106,24.912196 c 0.4641,0 0.90926,-0.184391 1.23744,-0.512563 0.32817,-0.328172 0.51256,-0.773332 0.51256,-1.237437 0,-0.464105 -0.18439,-0.909265 -0.51256,-1.237437 -0.32818,-0.328172 -0.77334,-0.512563 -1.23744,-0.512563 -0.46411,0 -0.90927,0.184391 -1.23744,0.512563 -0.32817,0.328172 -0.51256,0.773332 -0.51256,1.237437 0,0.464105 0.18439,0.909265 0.51256,1.237437 0.32817,0.328172 0.77333,0.512563 1.23744,0.512563 z" />
    </g>
    <g
       style="stroke-linecap:butt;stroke-linejoin:round"
       transform="translate(-45.098459,-4.302055)"
       id="g5616">
      <use
         height="100%"
         width="100%"
         y="0"
         x="0"
         style="fill:#262626;stroke-linecap:butt;stroke-linejoin:round"
         id="use1270"
         xlink:href="#CMMI12-103"
         transform="matrix(0.10958904,0,0,-0.10958904,102.52342,27.012196)" />
      <use
         height="100%"
         width="100%"
         y="0"
         x="0"
         style="fill:#262626;stroke-linecap:butt;stroke-linejoin:round"
         id="use1272"
         xlink:href="#CMR17-61"
         transform="matrix(0.10958904,0,0,-0.10958904,111.36318,27.012196)" />
      <path
         style="fill:#262626;stroke-width:0.10958904;stroke-linecap:butt;stroke-linejoin:round"
         inkscape:connector-curvature="0"
         id="use1274"
         d="m 126.24167,19.953977 c 0,-0.229452 -0.0103,-0.229452 -0.20719,-0.229452 l -3.25514,5.140411 v 0.284246 h 2.82705 v 1.08048 c 0,0.398972 -0.0223,0.508561 -0.78938,0.508561 h -0.20719 v 0.273973 c 0.35102,0 0.94178,0 1.31507,0 0.37157,0 0.96404,0 1.31506,0 v -0.273973 h -0.2089 c -0.76712,0 -0.78938,-0.109589 -0.78938,-0.508561 v -1.08048 h 1.11815 v -0.284246 h -1.11815 z m -0.60274,0.717466 v 4.193493 h -2.64041 z" />
      <path
         style="fill:#262626;stroke-width:0.10958904;stroke-linecap:butt;stroke-linejoin:round"
         inkscape:connector-curvature="0"
         id="use1276"
         d="m 129.40461,26.565278 c 0,-0.27226 -0.21917,-0.446918 -0.44863,-0.446918 -0.21918,0 -0.44863,0.174658 -0.44863,0.446918 0,0.27226 0.21918,0.446918 0.44863,0.446918 0.21918,0 0.44863,-0.174658 0.44863,-0.446918 z" />
      <path
         style="fill:#262626;stroke-width:0.10958904;stroke-linecap:butt;stroke-linejoin:round"
         inkscape:connector-curvature="0"
         id="use1278"
         d="m 134.00344,19.953977 c 0,-0.229452 -0.0103,-0.229452 -0.20719,-0.229452 l -3.25514,5.140411 v 0.284246 h 2.82705 v 1.08048 c 0,0.398972 -0.0223,0.508561 -0.78938,0.508561 h -0.20719 v 0.273973 c 0.35102,0 0.94178,0 1.31507,0 0.37157,0 0.96404,0 1.31506,0 v -0.273973 h -0.2089 c -0.76712,0 -0.78938,-0.109589 -0.78938,-0.508561 v -1.08048 h 1.11815 v -0.284246 h -1.11815 z m -0.60274,0.717466 v 4.193493 h -2.64041 z" />
    </g>
    <g
       style="stroke-linecap:butt;stroke-linejoin:round"
       transform="translate(-45,-3)"
       id="g5659">
      <path
         d="m 170.54991,12.130122 h 22"
         style="fill:none;stroke:#4c72b0;stroke-width:2.00024986;stroke-linecap:butt;stroke-linejoin:round;stroke-miterlimit:4;stroke-dasharray:12.00149899, 4.00049966;stroke-dashoffset:0"
         id="path1224"
         inkscape:connector-curvature="0"
         sodipodi:nodetypes="cc" />
      <path
         style="fill:#4c72b0;stroke-linecap:butt;stroke-linejoin:round"
         inkscape:connector-curvature="0"
         id="use1227"
         d="m 181.54991,13.880122 c 0.4641,0 0.90926,-0.184391 1.23743,-0.512563 0.32818,-0.328172 0.51257,-0.773332 0.51257,-1.237437 0,-0.464105 -0.18439,-0.909265 -0.51257,-1.237437 -0.32817,-0.328172 -0.77333,-0.512563 -1.23743,-0.512563 -0.46411,0 -0.90927,0.184391 -1.23744,0.512563 -0.32817,0.328172 -0.51256,0.773332 -0.51256,1.237437 0,0.464105 0.18439,0.909265 0.51256,1.237437 0.32817,0.328172 0.77333,0.512563 1.23744,0.512563 z" />
    </g>
    <g
       transform="translate(-45,-3)"
       id="g5643"
       style="stroke-linecap:butt;stroke-linejoin:round">
      <path
         style="fill:#c44e52;stroke-linecap:butt;stroke-linejoin:round"
         inkscape:connector-curvature="0"
         id="use1286"
         d="m 181.54991,25.021785 c 0.4641,0 0.90926,-0.184391 1.23743,-0.512563 0.32818,-0.328172 0.51257,-0.773332 0.51257,-1.237437 0,-0.464105 -0.18439,-0.909265 -0.51257,-1.237437 -0.32817,-0.328172 -0.77333,-0.512563 -1.23743,-0.512563 -0.46411,0 -0.90927,0.184391 -1.23744,0.512563 -0.32817,0.328172 -0.51256,0.773332 -0.51256,1.237437 0,0.464105 0.18439,0.909265 0.51256,1.237437 0.32817,0.328172 0.77333,0.512563 1.23744,0.512563 z" />
      <path
         d="m 170.54991,23.271785 h 22"
         style="fill:none;stroke:#c44e52;stroke-width:2;stroke-linecap:butt;stroke-linejoin:round;stroke-miterlimit:4;stroke-dasharray:12.00000017, 4.00000006;stroke-dashoffset:0"
         id="path1283"
         inkscape:connector-curvature="0"
         sodipodi:nodetypes="cc" />
    </g>
    <g
       style="stroke-linecap:butt;stroke-linejoin:round"
       transform="translate(-42.768013,-3)"
       id="g5635">
      <path
         style="fill:#ccb974;stroke-linecap:butt;stroke-linejoin:round"
         inkscape:connector-curvature="0"
         id="use1315"
         d="m 149.49106,36.053864 c 0.4641,0 0.90926,-0.184391 1.23744,-0.512563 0.32817,-0.328172 0.51256,-0.773332 0.51256,-1.237437 0,-0.464105 -0.18439,-0.909265 -0.51256,-1.237437 -0.32818,-0.328172 -0.77334,-0.512563 -1.23744,-0.512563 -0.46411,0 -0.90927,0.184391 -1.23744,0.512563 -0.32817,0.328172 -0.51256,0.773332 -0.51256,1.237437 0,0.464105 0.18439,0.909265 0.51256,1.237437 0.32817,0.328172 0.77333,0.512563 1.23744,0.512563 z" />
      <path
         d="m 138.49106,34.303864 h 22"
         style="fill:none;stroke:#ccb974;stroke-width:2;stroke-linecap:round;stroke-linejoin:round"
         id="path1312"
         inkscape:connector-curvature="0" />
    </g>
    <g
       style="stroke-linecap:butt;stroke-linejoin:round"
       transform="translate(-45.000005,-4.3517124)"
       id="g5623">
      <use
         height="100%"
         width="100%"
         y="0"
         x="0"
         style="fill:#262626;stroke-linecap:butt;stroke-linejoin:round"
         id="use1326"
         xlink:href="#CMMI12-103"
         transform="matrix(0.10958904,0,0,-0.10958904,102.52342,38.153864)" />
      <use
         height="100%"
         width="100%"
         y="0"
         x="0"
         style="fill:#262626;stroke-linecap:butt;stroke-linejoin:round"
         id="use1328"
         xlink:href="#CMR17-61"
         transform="matrix(0.10958904,0,0,-0.10958904,111.36319,38.153864)" />
      <path
         style="fill:#262626;stroke-width:0.10958904;stroke-linecap:butt;stroke-linejoin:round"
         inkscape:connector-curvature="0"
         id="use1330"
         d="m 124.9814,34.460371 c 0.97603,0 1.40411,0.847603 1.40411,1.827055 0,1.318493 -0.70205,1.82363 -1.33733,1.82363 -0.58048,0 -1.52397,-0.289384 -1.8202,-1.143836 0.0548,0.02226 0.10959,0.02226 0.16438,0.02226 0.2637,0 0.46062,-0.174657 0.46062,-0.458904 0,-0.31678 -0.24144,-0.458904 -0.46062,-0.458904 -0.18493,0 -0.47089,0.08733 -0.47089,0.496576 0,1.011986 0.9863,1.804794 2.14897,1.804794 1.21576,0 2.14726,-0.955479 2.14726,-2.077055 0,-1.065068 -0.87671,-1.835616 -1.9178,-1.955479 0.83219,-0.172945 1.63356,-0.905822 1.63356,-1.886986 0,-0.840754 -0.86644,-1.45548 -1.85274,-1.45548 -0.99658,0 -1.87329,0.599315 -1.87329,1.45548 0,0.375 0.28425,0.440068 0.42637,0.440068 0.23116,0 0.42808,-0.142123 0.42808,-0.42637 0,-0.282534 -0.19692,-0.424657 -0.42808,-0.424657 -0.0428,0 -0.0976,0 -0.14212,0.02055 0.31849,-0.688357 1.18322,-0.813357 1.56678,-0.813357 0.38356,0 1.10787,0.18322 1.10787,1.219179 0,0.303082 -0.0445,0.842465 -0.4178,1.318493 -0.32877,0.421233 -0.70035,0.421233 -1.06165,0.455479 -0.0548,0 -0.30822,0.02569 -0.35103,0.02569 -0.077,0.01027 -0.12157,0.02055 -0.12157,0.104452 0,0.07706 0.012,0.08733 0.23116,0.08733 z" />
      <path
         style="fill:#262626;stroke-width:0.10958904;stroke-linecap:butt;stroke-linejoin:round"
         inkscape:connector-curvature="0"
         id="use1332"
         d="m 129.40461,37.706946 c 0,-0.27226 -0.21917,-0.446918 -0.44863,-0.446918 -0.21918,0 -0.44863,0.174658 -0.44863,0.446918 0,0.27226 0.21918,0.446918 0.44863,0.446918 0.21918,0 0.44863,-0.174658 0.44863,-0.446918 z" />
      <path
         d="m 134.92468,34.686398 c 0,-0.66952 -0.0103,-1.806507 -0.47089,-2.681507 -0.40582,-0.767123 -1.05308,-1.039383 -1.62158,-1.039383 -0.52739,0 -1.1952,0.239726 -1.6113,1.029109 -0.43835,0.820206 -0.48287,1.837329 -0.48287,2.691781 0,0.623288 0.012,1.57363 0.35102,2.407535 0.47089,1.126712 1.31507,1.279109 1.74315,1.279109 0.50343,0 1.27055,-0.207192 1.71918,-1.246575 0.32877,-0.75685 0.37329,-1.642124 0.37329,-2.440069 z m -2.09247,3.511987 c -0.70205,0 -1.11815,-0.601028 -1.27226,-1.434932 -0.11986,-0.643836 -0.11986,-1.585616 -0.11986,-2.19863 0,-0.842466 0,-1.542808 0.14212,-2.210616 0.20891,-0.928083 0.82192,-1.214042 1.25,-1.214042 0.44863,0 1.02911,0.296233 1.23802,1.191781 0.14212,0.623288 0.15239,1.357877 0.15239,2.232877 0,0.712329 0,1.587329 -0.13013,2.232877 -0.23117,1.193493 -0.87671,1.400685 -1.26028,1.400685 z"
         id="use1334"
         inkscape:connector-curvature="0"
         style="fill:#262626;stroke-width:0.10958904;stroke-linecap:butt;stroke-linejoin:round" />
    </g>
    <g
       style="stroke-linecap:butt;stroke-linejoin:round"
       transform="translate(-45,-3)"
       id="g5639">
      <path
         d="m 170.54991,34.413453 h 22"
         style="fill:none;stroke:#ccb974;stroke-width:2;stroke-linecap:butt;stroke-linejoin:round;stroke-miterlimit:4;stroke-dasharray:12.00000017, 4.00000006;stroke-dashoffset:0"
         id="path1339"
         inkscape:connector-curvature="0"
         sodipodi:nodetypes="cc" />
      <path
         style="fill:#ccb974;stroke-linecap:butt;stroke-linejoin:round"
         inkscape:connector-curvature="0"
         id="use1342"
         d="m 181.54992,36.163453 c 0.4641,0 0.90926,-0.184391 1.23743,-0.512563 0.32817,-0.328172 0.51257,-0.773332 0.51257,-1.237437 0,-0.464105 -0.1844,-0.909265 -0.51257,-1.237437 -0.32817,-0.328172 -0.77333,-0.512563 -1.23743,-0.512563 -0.46411,0 -0.90927,0.184391 -1.23744,0.512563 -0.32817,0.328172 -0.51256,0.773332 -0.51256,1.237437 0,0.464105 0.18439,0.909265 0.51256,1.237437 0.32817,0.328172 0.77333,0.512563 1.23744,0.512563 z" />
    </g>
    <g
       style="stroke-linecap:butt;stroke-linejoin:round"
       transform="translate(-46.350244,-26.45667)"
       id="g5472">
      <use
         height="100%"
         width="100%"
         y="0"
         x="0"
         style="fill:#262626;stroke-linecap:butt;stroke-linejoin:round"
         id="use1235"
         xlink:href="#CMR17-67"
         transform="matrix(0.10958904,0,0,-0.10958904,171.82037,27.046879)" />
      <use
         height="100%"
         width="100%"
         y="0"
         x="0"
         style="fill:#262626;stroke-linecap:butt;stroke-linejoin:round"
         id="use1237"
         xlink:href="#CMR17-67"
         transform="matrix(0.10958904,0,0,-0.10958904,179.13646,27.046879)" />
      <path
         d="m 192.5998,20.360235 c 0,-0.491438 0.12158,-0.491438 0.87671,-0.491438 v -0.273973 c -0.31678,0 -0.89726,0 -1.23801,0 -0.33904,0 -0.91952,0 -1.23801,0 v 0.273973 c 0.75684,0 0.87671,0 0.87671,0.493151 v 2.676369 h -3.26541 v -2.676369 c 0,-0.493151 0.11986,-0.493151 0.87671,-0.493151 v -0.273973 c -0.31849,0 -0.89897,0 -1.23801,0 -0.34076,0 -0.92124,0 -1.23973,0 v 0.273973 c 0.75685,0 0.87671,0 0.87671,0.491438 v 5.921233 c 0,0.491438 -0.11986,0.491438 -0.87671,0.491438 v 0.273973 c 0.31849,0 0.89897,0 1.23973,0 0.33904,0 0.91952,0 1.23801,0 v -0.273973 c -0.75685,0 -0.87671,0 -0.87671,-0.489726 v -2.962328 h 3.26541 v 2.962328 c 0,0.489726 -0.11987,0.489726 -0.87671,0.489726 v 0.273973 c 0.31849,0 0.89897,0 1.23801,0 0.34075,0 0.92123,0 1.23801,0 v -0.273973 c -0.75513,0 -0.87671,0 -0.87671,-0.491438 z"
         id="use1239"
         inkscape:connector-curvature="0"
         style="fill:#262626;stroke-width:0.10958904;stroke-linecap:butt;stroke-linejoin:round" />
    </g>
  </g>
</svg>
