<?xml version="1.0" encoding="UTF-8" standalone="no"?>
<!-- Created with matplotlib (http://matplotlib.org/) -->

<svg
   xmlns:dc="http://purl.org/dc/elements/1.1/"
   xmlns:cc="http://creativecommons.org/ns#"
   xmlns:rdf="http://www.w3.org/1999/02/22-rdf-syntax-ns#"
   xmlns:svg="http://www.w3.org/2000/svg"
   xmlns="http://www.w3.org/2000/svg"
   xmlns:xlink="http://www.w3.org/1999/xlink"
   xmlns:sodipodi="http://sodipodi.sourceforge.net/DTD/sodipodi-0.dtd"
   xmlns:inkscape="http://www.inkscape.org/namespaces/inkscape"
   height="179.21941pt"
   version="1.1"
   viewBox="0 0 358.56 179.21941"
   width="358.56pt"
   id="svg324"
   sodipodi:docname="triple.svg"
   inkscape:version="0.92.3 (unknown)">
  <metadata
     id="metadata328">
    <rdf:RDF>
      <cc:Work
         rdf:about="">
        <dc:format>image/svg+xml</dc:format>
        <dc:type
           rdf:resource="http://purl.org/dc/dcmitype/StillImage" />
      </cc:Work>
    </rdf:RDF>
  </metadata>
  <sodipodi:namedview
     pagecolor="#ffffff"
     bordercolor="#666666"
     borderopacity="1"
     objecttolerance="10"
     gridtolerance="10"
     guidetolerance="10"
     inkscape:pageopacity="0"
     inkscape:pageshadow="2"
     inkscape:window-width="1867"
     inkscape:window-height="1056"
     id="namedview326"
     showgrid="false"
     inkscape:zoom="2.6690094"
     inkscape:cx="186.13339"
     inkscape:cy="110.06803"
     inkscape:window-x="53"
     inkscape:window-y="24"
     inkscape:window-maximized="1"
     inkscape:current-layer="svg324" />
  <defs
     id="defs4"
     style="stroke-linecap:butt;stroke-linejoin:round">
    <style
       type="text/css"
       id="style2">
*{stroke-linecap:butt;stroke-linejoin:round;}
  </style>
  </defs>
  <defs
     id="defs322">
    <clipPath
       id="p913f394c3b"
       style="stroke-linecap:butt;stroke-linejoin:round">
      <rect
         height="108.72"
         width="126.31091"
         x="44.82"
         y="17.280001"
         id="rect316"
         style="stroke-linecap:butt;stroke-linejoin:round" />
    </clipPath>
    <clipPath
       id="p5770777d49"
       style="stroke-linecap:butt;stroke-linejoin:round">
      <rect
         height="108.72"
         width="126.31091"
         x="196.3931"
         y="17.280001"
         id="rect319"
         style="stroke-linecap:butt;stroke-linejoin:round" />
    </clipPath>
  </defs>
  <path
     inkscape:connector-curvature="0"
     d="M 0,144 H 358.56 V 0 H 0 Z"
     style="fill:#ffffff;stroke-linecap:butt;stroke-linejoin:round"
     id="path6" />
  <path
     id="path9"
     style="fill:#ffffff;stroke-linecap:butt;stroke-linejoin:round"
     d="M 44.82,126 H 171.13091 V 17.28 H 44.82 Z"
     inkscape:connector-curvature="0" />
  <g
     id="xtick_1"
     style="stroke-linecap:butt;stroke-linejoin:round">
    <g
       id="line2d_1"
       style="stroke-linecap:butt;stroke-linejoin:round" />
    <g
       id="text_1"
       style="stroke-linecap:butt;stroke-linejoin:round">
      <!-- $0$ -->
      <defs
         id="defs14">
        <path
           id="CMR17-48"
           d="M 42,31.640625 C 42,37.75 41.90625,48.125 37.703125,56.109375 34,63.109375 28.09375,65.59375 22.90625,65.59375 18.09375,65.59375 12,63.40625 8.203125,56.203125 4.203125,48.71875 3.796875,39.4375 3.796875,31.640625 3.796875,25.953125 3.90625,17.28125 7,9.671875 11.296875,-0.609375 19,-2 22.90625,-2 27.5,-2 34.5,-0.109375 38.59375,9.375 41.59375,16.28125 42,24.359375 42,31.640625 Z M 22.90625,-0.40625 c -6.40625,0 -10.203125,5.484375 -11.609375,13.09375 -1.09375,5.875 -1.09375,14.46875 -1.09375,20.0625 0,7.6875 0,14.078125 1.296875,20.171875 C 13.40625,61.390625 19,64 22.90625,64 27,64 32.296875,61.296875 34.203125,53.125 35.5,47.4375 35.59375,40.734375 35.59375,32.75 c 0,-6.5 0,-14.484375 -1.1875,-20.375 -2.109375,-10.890625 -8,-12.78125 -11.5,-12.78125 z"
           inkscape:connector-curvature="0"
           style="stroke-linecap:butt;stroke-linejoin:round" />
      </defs>
      <g
         id="g18"
         transform="matrix(0.1,0,0,-0.1,42.329332,139.9185)"
         style="fill:#262626;stroke-linecap:butt;stroke-linejoin:round">
        <use
           id="use16"
           xlink:href="#CMR17-48"
           transform="scale(0.996264)"
           style="stroke-linecap:butt;stroke-linejoin:round"
           x="0"
           y="0"
           width="100%"
           height="100%" />
      </g>
    </g>
  </g>
  <g
     id="xtick_2"
     style="stroke-linecap:butt;stroke-linejoin:round">
    <g
       id="line2d_2"
       style="stroke-linecap:butt;stroke-linejoin:round" />
    <g
       id="text_2"
       style="stroke-linecap:butt;stroke-linejoin:round">
      <!-- $10000$ -->
      <defs
         id="defs24">
        <path
           id="CMR17-49"
           d="M 26.59375,63.40625 C 26.59375,65.5 26.5,65.5 25.09375,65.5 21.203125,61.1875 15.296875,59.796875 9.703125,59.796875 c -0.296875,0 -0.796875,0 -0.90625,-0.296875 C 8.703125,59.296875 8.703125,59.09375 8.703125,57 11.796875,57 17,57.59375 21,59.984375 V 7.203125 C 21,3.6875 20.796875,2.5 12.203125,2.5 h -3 V 0 C 14,0 19,0 23.796875,0 28.59375,0 33.59375,0 38.40625,0 v 2.5 h -3 c -8.609375,0 -8.8125,1.09375 -8.8125,4.65625 z"
           inkscape:connector-curvature="0"
           style="stroke-linecap:butt;stroke-linejoin:round" />
      </defs>
      <g
         id="g36"
         transform="matrix(0.1,0,0,-0.1,74.470298,139.9185)"
         style="fill:#262626;stroke-linecap:butt;stroke-linejoin:round">
        <use
           id="use26"
           xlink:href="#CMR17-49"
           transform="scale(0.996264)"
           style="stroke-linecap:butt;stroke-linejoin:round"
           x="0"
           y="0"
           width="100%"
           height="100%" />
        <use
           id="use28"
           xlink:href="#CMR17-48"
           transform="matrix(0.996264,0,0,0.996264,45.690477,0)"
           style="stroke-linecap:butt;stroke-linejoin:round"
           x="0"
           y="0"
           width="100%"
           height="100%" />
        <use
           id="use30"
           xlink:href="#CMR17-48"
           transform="matrix(0.996264,0,0,0.996264,91.380954,0)"
           style="stroke-linecap:butt;stroke-linejoin:round"
           x="0"
           y="0"
           width="100%"
           height="100%" />
        <use
           id="use32"
           xlink:href="#CMR17-48"
           transform="matrix(0.996264,0,0,0.996264,137.07143,0)"
           style="stroke-linecap:butt;stroke-linejoin:round"
           x="0"
           y="0"
           width="100%"
           height="100%" />
        <use
           id="use34"
           xlink:href="#CMR17-48"
           transform="matrix(0.996264,0,0,0.996264,182.76191,0)"
           style="stroke-linecap:butt;stroke-linejoin:round"
           x="0"
           y="0"
           width="100%"
           height="100%" />
      </g>
    </g>
  </g>
  <g
     id="xtick_3"
     style="stroke-linecap:butt;stroke-linejoin:round">
    <g
       id="line2d_3"
       style="stroke-linecap:butt;stroke-linejoin:round" />
    <g
       id="text_3"
       style="stroke-linecap:butt;stroke-linejoin:round">
      <!-- $20000$ -->
      <defs
         id="defs42">
        <path
           id="CMR17-50"
           d="M 41.703125,15.453125 H 39.90625 C 38.90625,8.375 38.09375,7.171875 37.703125,6.5625 37.203125,5.765625 30,5.765625 28.59375,5.765625 H 9.40625 C 13,9.671875 20,16.75 28.5,24.953125 34.59375,30.734375 41.703125,37.53125 41.703125,47.421875 41.703125,59.21875 32.296875,66 21.796875,66 10.796875,66 4.09375,56.3125 4.09375,47.34375 4.09375,43.4375 7,42.9375 8.203125,42.9375 c 1,0 4,0.609375 4,4.09375 0,3.078125 -2.609375,3.96875 -4,3.96875 C 7.59375,51 7,50.90625 6.59375,50.703125 8.5,59.21875 14.296875,63.40625 20.40625,63.40625 c 8.6875,0 14.390625,-6.890625 14.390625,-15.984375 C 34.796875,38.734375 29.703125,31.25 24,24.75 L 4.09375,2.28125 V 0 h 35.203125 z"
           inkscape:connector-curvature="0"
           style="stroke-linecap:butt;stroke-linejoin:round" />
      </defs>
      <g
         id="g54"
         transform="matrix(0.1,0,0,-0.1,116.57394,139.9185)"
         style="fill:#262626;stroke-linecap:butt;stroke-linejoin:round">
        <use
           id="use44"
           xlink:href="#CMR17-50"
           transform="scale(0.996264)"
           style="stroke-linecap:butt;stroke-linejoin:round"
           x="0"
           y="0"
           width="100%"
           height="100%" />
        <use
           id="use46"
           xlink:href="#CMR17-48"
           transform="matrix(0.996264,0,0,0.996264,45.690477,0)"
           style="stroke-linecap:butt;stroke-linejoin:round"
           x="0"
           y="0"
           width="100%"
           height="100%" />
        <use
           id="use48"
           xlink:href="#CMR17-48"
           transform="matrix(0.996264,0,0,0.996264,91.380954,0)"
           style="stroke-linecap:butt;stroke-linejoin:round"
           x="0"
           y="0"
           width="100%"
           height="100%" />
        <use
           id="use50"
           xlink:href="#CMR17-48"
           transform="matrix(0.996264,0,0,0.996264,137.07143,0)"
           style="stroke-linecap:butt;stroke-linejoin:round"
           x="0"
           y="0"
           width="100%"
           height="100%" />
        <use
           id="use52"
           xlink:href="#CMR17-48"
           transform="matrix(0.996264,0,0,0.996264,182.76191,0)"
           style="stroke-linecap:butt;stroke-linejoin:round"
           x="0"
           y="0"
           width="100%"
           height="100%" />
      </g>
    </g>
  </g>
  <g
     id="xtick_4"
     style="stroke-linecap:butt;stroke-linejoin:round">
    <g
       id="line2d_4"
       style="stroke-linecap:butt;stroke-linejoin:round" />
    <g
       id="text_4"
       style="stroke-linecap:butt;stroke-linejoin:round">
      <!-- $30000$ -->
      <defs
         id="defs60">
        <path
           id="CMR17-51"
           d="M 22.09375,33.703125 C 31,33.703125 34.90625,25.96875 34.90625,17.03125 34.90625,5 28.5,0.390625 22.703125,0.390625 c -5.296875,0 -13.90625,2.640625 -16.609375,10.4375 0.5,-0.203125 1,-0.203125 1.5,-0.203125 2.40625,0 4.203125,1.59375 4.203125,4.1875 C 11.796875,17.703125 9.59375,19 7.59375,19 5.90625,19 3.296875,18.203125 3.296875,14.46875 3.296875,5.234375 12.296875,-2 22.90625,-2 34,-2 42.5,6.71875 42.5,16.953125 c 0,9.71875 -8,16.75 -17.5,17.84375 C 32.59375,36.375 39.90625,43.0625 39.90625,52.015625 39.90625,59.6875 32,65.296875 23,65.296875 c -9.09375,0 -17.09375,-5.46875 -17.09375,-13.28125 C 5.90625,48.59375 8.5,48 9.796875,48 c 2.109375,0 3.90625,1.296875 3.90625,3.890625 0,2.578125 -1.796875,3.875 -3.90625,3.875 -0.390625,0 -0.890625,0 -1.296875,-0.1875 C 11.40625,61.859375 19.296875,63 22.796875,63 c 3.5,0 10.109375,-1.671875 10.109375,-11.125 0,-2.765625 -0.40625,-7.6875 -3.8125,-12.03125 C 26.09375,36 22.703125,36 19.40625,35.6875 c -0.5,0 -2.8125,-0.234375 -3.203125,-0.234375 C 15.5,35.359375 15.09375,35.265625 15.09375,34.5 c 0,-0.703125 0.109375,-0.796875 2.109375,-0.796875 z"
           inkscape:connector-curvature="0"
           style="stroke-linecap:butt;stroke-linejoin:round" />
      </defs>
      <g
         id="g72"
         transform="matrix(0.1,0,0,-0.1,158.67757,139.9185)"
         style="fill:#262626;stroke-linecap:butt;stroke-linejoin:round">
        <use
           id="use62"
           xlink:href="#CMR17-51"
           transform="scale(0.996264)"
           style="stroke-linecap:butt;stroke-linejoin:round"
           x="0"
           y="0"
           width="100%"
           height="100%" />
        <use
           id="use64"
           xlink:href="#CMR17-48"
           transform="matrix(0.996264,0,0,0.996264,45.690477,0)"
           style="stroke-linecap:butt;stroke-linejoin:round"
           x="0"
           y="0"
           width="100%"
           height="100%" />
        <use
           id="use66"
           xlink:href="#CMR17-48"
           transform="matrix(0.996264,0,0,0.996264,91.380954,0)"
           style="stroke-linecap:butt;stroke-linejoin:round"
           x="0"
           y="0"
           width="100%"
           height="100%" />
        <use
           id="use68"
           xlink:href="#CMR17-48"
           transform="matrix(0.996264,0,0,0.996264,137.07143,0)"
           style="stroke-linecap:butt;stroke-linejoin:round"
           x="0"
           y="0"
           width="100%"
           height="100%" />
        <use
           id="use70"
           xlink:href="#CMR17-48"
           transform="matrix(0.996264,0,0,0.996264,182.76191,0)"
           style="stroke-linecap:butt;stroke-linejoin:round"
           x="0"
           y="0"
           width="100%"
           height="100%" />
      </g>
    </g>
  </g>
  <g
     id="text_5"
     style="stroke-linecap:butt;stroke-linejoin:round">
    <!-- \begin{center}$N_{trials}$\\[2ex](b)\end{center} -->
    <defs
       id="defs86">
      <path
         id="CMMI12-78"
         d="m 74,57.78125 c 1.09375,4.3125 2.703125,7.3125 10.296875,7.3125 0.296875,0 1.5,0 1.5,1.765625 C 85.796875,68 84.90625,68 84.5,68 c -2,0 -7.09375,0 -9.09375,0 h -4.8125 c -1.390625,0 -3.1875,0 -4.59375,0 -0.59375,0 -1.796875,0 -1.796875,-1.90625 0,-1 0.796875,-1 1.5,-1 6,0 6.390625,-2.296875 6.390625,-4.109375 0,-0.890625 -0.09375,-1.203125 -0.390625,-2.59375 L 60.40625,13.28125 39,66.390625 C 38.296875,68 38.203125,68 36,68 H 23.796875 c -2,0 -2.890625,0 -2.890625,-1.90625 0,-1 0.6875,-1 2.59375,-1 0.5,0 6.40625,0 6.40625,-0.796875 0,-0.203125 -0.203125,-1 -0.3125,-1.296875 L 16.296875,9.921875 C 15.09375,5 12.703125,2.90625 6.09375,2.90625 c -0.5,0 -1.5,0 -1.5,-1.859375 C 4.59375,0 5.59375,0 5.90625,0 7.90625,0 13,0 15,0 h 4.796875 c 1.40625,0 3.109375,0 4.5,0 C 25,0 26.09375,0 26.09375,1.90625 c 0,0.90625 -1,1 -1.390625,1 -3.296875,0 -6.5,0.59375 -6.5,4.1875 0,0.796875 0.203125,1.6875 0.390625,2.484375 L 32.09375,63 c 0.609375,-1 0.609375,-1.1875 1,-2.09375 L 56.90625,1.796875 C 57.40625,0.59375 57.59375,0 58.5,0 c 1,0 1.09375,0.296875 1.5,2 z"
         inkscape:connector-curvature="0"
         style="stroke-linecap:butt;stroke-linejoin:round" />
      <path
         id="CMMI12-116"
         d="m 20.09375,40.09375 h 9.203125 c 1.90625,0 2.90625,0 2.90625,1.796875 C 32.203125,43 31.59375,43 29.59375,43 H 20.796875 L 24.5,57.6875 c 0.40625,1.390625 0.40625,1.59375 0.40625,2.3125 0,1.609375 -1.3125,2.5 -2.609375,2.5 C 21.5,62.5 19.203125,62.203125 18.40625,58.984375 L 14.5,43 H 5.09375 c -2,0 -2.890625,0 -2.890625,-1.90625 0,-1 0.703125,-1 2.59375,-1 h 8.90625 L 7.09375,13.765625 C 6.296875,10.28125 6,9.28125 6,7.984375 6,3.296875 9.296875,-1 14.90625,-1 c 10.09375,0 15.5,14.5625 15.5,15.25 0,0.609375 -0.40625,0.90625 -1,0.90625 -0.203125,0 -0.609375,0 -0.8125,-0.40625 C 28.5,14.65625 28.40625,14.546875 27.703125,12.953125 25.59375,7.984375 21,1 15.203125,1 12.203125,1 12,3.5 12,5.6875 c 0,0.09375 0,2 0.296875,3.1875 z"
         inkscape:connector-curvature="0"
         style="stroke-linecap:butt;stroke-linejoin:round" />
      <path
         id="CMMI12-114"
         d="m 38.90625,40.8125 c -3.109375,-0.59375 -4.703125,-2.796875 -4.703125,-4.984375 0,-2.40625 1.890625,-3.203125 3.296875,-3.203125 2.796875,0 5.09375,2.40625 5.09375,5.390625 C 42.59375,41.21875 39.5,44 34.5,44 30.5,44 25.90625,42.203125 21.703125,36.125 21,41.40625 17,44 13,44 9.09375,44 7.09375,41.015625 5.90625,38.8125 4.203125,35.21875 2.703125,29.234375 2.703125,28.734375 c 0,-0.390625 0.390625,-0.890625 1.09375,-0.890625 0.796875,0 0.90625,0.09375 1.5,2.390625 1.5,5.984375 3.40625,11.78125 7.40625,11.78125 2.390625,0 3.09375,-1.703125 3.09375,-4.59375 0,-2.203125 -1,-6.09375 -1.703125,-9.1875 L 11.296875,17.46875 c -0.390625,-1.90625 -1.5,-6.390625 -2,-8.1875 C 8.59375,6.6875 7.5,2 7.5,1.5 7.5,0.09375 8.59375,-1 10.09375,-1 c 1.109375,0 3,0.703125 3.609375,2.703125 0.296875,0.796875 4,15.859375 4.59375,18.15625 0.5,2.1875 1.109375,4.296875 1.609375,6.484375 0.390625,1.390625 0.796875,3 1.09375,4.296875 0.296875,0.890625 3,5.78125 5.5,7.984375 1.203125,1.09375 3.796875,3.390625 7.90625,3.390625 1.59375,0 3.1875,-0.296875 4.5,-1.203125 z"
         inkscape:connector-curvature="0"
         style="stroke-linecap:butt;stroke-linejoin:round" />
      <path
         id="CMMI12-105"
         d="m 28.296875,14.265625 c 0,0.5 -0.390625,0.90625 -1,0.90625 -0.890625,0 -1,-0.296875 -1.5,-2 C 23.203125,4.09375 19.09375,1 15.796875,1 c -1.203125,0 -2.59375,0.296875 -2.59375,3.296875 0,2.6875 1.203125,5.6875 2.296875,8.671875 l 7,18.5625 c 0.296875,0.796875 1,2.59375 1,4.484375 C 23.5,40.21875 20.5,44 15.59375,44 6.40625,44 2.703125,29.53125 2.703125,28.734375 c 0,-0.390625 0.390625,-0.890625 1.09375,-0.890625 0.90625,0 1,0.390625 1.40625,1.78125 2.390625,8.3125 6.203125,12.28125 10.09375,12.28125 0.90625,0 2.609375,0 2.609375,-3.1875 0,-2.59375 -1.3125,-5.890625 -2.109375,-8.078125 l -7,-18.5625 C 8.203125,10.484375 7.59375,8.875 7.59375,7.078125 7.59375,2.59375 10.703125,-1 15.5,-1 24.703125,-1 28.296875,13.578125 28.296875,14.265625 Z M 27.5,62.703125 C 27.5,64.203125 26.296875,66 24.09375,66 c -2.296875,0 -4.890625,-2.203125 -4.890625,-4.796875 0,-2.484375 2.09375,-3.28125 3.296875,-3.28125 2.703125,0 5,2.59375 5,4.78125 z"
         inkscape:connector-curvature="0"
         style="stroke-linecap:butt;stroke-linejoin:round" />
      <path
         id="CMMI12-97"
         d="m 30.09375,11.875 c -0.5,-1.703125 -0.5,-1.890625 -1.890625,-3.796875 C 26,5.28125 21.59375,1 16.90625,1 12.796875,1 10.5,4.6875 10.5,10.578125 c 0,5.484375 3.09375,16.65625 5,20.859375 3.40625,6.984375 8.09375,10.578125 12,10.578125 6.59375,0 7.90625,-8.1875 7.90625,-8.984375 C 35.40625,32.9375 35.09375,31.625 35,31.4375 Z M 36.5,37.421875 C 35.40625,40.015625 32.703125,44 27.5,44 16.203125,44 4,29.4375 4,14.671875 4,4.796875 9.796875,-1 16.59375,-1 c 5.5,0 10.203125,4.296875 13,7.59375 1,-5.890625 5.703125,-7.59375 8.703125,-7.59375 3,0 5.40625,1.796875 7.203125,5.390625 1.59375,3.390625 3,9.484375 3,9.875 0,0.5 -0.40625,0.90625 -1,0.90625 -0.90625,0 -1,-0.5 -1.40625,-2 C 44.59375,7.28125 42.703125,1 38.59375,1 35.703125,1 35.5,3.59375 35.5,5.59375 c 0,2.296875 0.296875,3.390625 1.203125,7.28125 0.703125,2.5 1.203125,4.6875 2,7.578125 3.703125,14.96875 4.59375,18.5625 4.59375,19.15625 0,1.40625 -1.09375,2.5 -2.59375,2.5 -3.203125,0 -4,-3.484375 -4.203125,-4.6875 z"
         inkscape:connector-curvature="0"
         style="stroke-linecap:butt;stroke-linejoin:round" />
      <path
         id="CMMI12-108"
         d="M 25.40625,66.515625 C 25.5,66.90625 25.703125,67.5 25.703125,68 c 0,1 -1,1 -1.203125,1 -0.09375,0 -3.703125,-0.359375 -5.5,-0.609375 -1.703125,0 -3.203125,-0.296875 -5,-0.296875 C 11.59375,67.890625 10.90625,67.796875 10.90625,66 c 0,-1 1,-1 2,-1 C 18,65 18,64.09375 18,63.109375 c 0,-0.390625 0,-0.59375 -0.5,-2.375 L 5.09375,11.421875 c -0.296875,-1.09375 -0.5,-1.890625 -0.5,-3.46875 C 4.59375,2.984375 8.296875,-1 13.40625,-1 c 3.296875,0 5.5,2.1875 7.09375,5.28125 1.703125,3.265625 3.09375,9.53125 3.09375,9.921875 0,0.5 -0.390625,0.90625 -1,0.90625 -0.890625,0 -1,-0.5 -1.390625,-1.984375 C 19.40625,6.265625 17.59375,1 13.59375,1 c -3,0 -3,3.171875 -3,4.578125 0,0.390625 0,2.46875 0.703125,5.265625 z"
         inkscape:connector-curvature="0"
         style="stroke-linecap:butt;stroke-linejoin:round" />
      <path
         id="CMMI12-115"
         d="m 22.796875,20 c 1.703125,-0.296875 4.40625,-0.890625 5,-1 1.296875,-0.375 5.796875,-1.96875 5.796875,-6.765625 0,-3.078125 -2.796875,-11.140625 -14.390625,-11.140625 -2.109375,0 -9.609375,0 -11.609375,5.71875 4,-0.5 6,2.609375 6,4.828125 0,2.109375 -1.390625,3.203125 -3.390625,3.203125 C 8,14.84375 5.09375,13.140625 5.09375,8.625 c 0,-5.921875 6,-9.625 14,-9.625 15.203125,0 19.703125,11.171875 19.703125,16.375 0,1.484375 0,4.28125 -3.203125,7.46875 -2.5,2.40625 -4.890625,2.90625 -10.296875,4 -2.703125,0.59375 -7,1.5 -7,5.984375 0,2 1.796875,9.1875 11.296875,9.1875 4.203125,0 8.3125,-1.5625 9.3125,-5.015625 -4.40625,0 -4.609375,-3.796875 -4.609375,-3.890625 0,-2.109375 1.90625,-2.703125 2.796875,-2.703125 1.40625,0 4.203125,1.078125 4.203125,5.234375 C 41.296875,39.765625 37.5,44 29.703125,44 16.59375,44 13.09375,33.75 13.09375,29.671875 13.09375,22.09375 20.5,20.5 22.796875,20 Z"
         inkscape:connector-curvature="0"
         style="stroke-linecap:butt;stroke-linejoin:round" />
      <path
         id="CMR17-40"
         d="m 30.59375,-24.390625 c 0,0.09375 0,0.296875 -0.296875,0.59375 -4.59375,4.671875 -16.890625,17.4375 -16.890625,48.5 0,31.0625 12.09375,43.71875 17,48.6875 0,0.109375 0.1875,0.3125 0.1875,0.609375 0,0.296875 -0.296875,0.5 -0.6875,0.5 -1.109375,0 -9.609375,-7.375 -14.5,-18.34375 C 10.40625,45.109375 9,34.359375 9,24.8125 9,17.625 9.703125,5.484375 15.703125,-7.359375 20.5,-17.734375 28.703125,-25 29.90625,-25 c 0.5,0 0.6875,0.203125 0.6875,0.609375 z"
         inkscape:connector-curvature="0"
         style="stroke-linecap:butt;stroke-linejoin:round" />
      <path
         id="CMR17-98"
         d="M 15,68.6875 3.09375,67.59375 V 65 C 9,65 9.90625,64.40625 9.90625,59.640625 v -59.84375 h 1.796875 l 2.890625,7.09375 C 17.5,2.203125 21.796875,-1 27.59375,-1 c 10,0 20.109375,8.8125 20.109375,22.40625 0,12.78125 -9,22.1875 -19.109375,22.1875 C 22.40625,43.59375 18,40.296875 15,36.40625 Z m 0.203125,-37.375 c 0,1.78125 0,2.09375 1.390625,4.1875 C 20.5,41.515625 26.09375,42 28,42 31,42 41.296875,40.390625 41.296875,21.5 41.296875,1.6875 29.5,0.59375 27.09375,0.59375 c -3.09375,0 -7.59375,1.1875 -10.796875,7 -1.09375,1.90625 -1.09375,2.109375 -1.09375,3.890625 z"
         inkscape:connector-curvature="0"
         style="stroke-linecap:butt;stroke-linejoin:round" />
      <path
         id="CMR17-41"
         d="m 26.296875,24.703125 c 0,7.171875 -0.703125,19.3125 -6.703125,32.15625 -4.796875,10.375 -13,17.640625 -14.1875,17.640625 -0.3125,0 -0.703125,-0.109375 -0.703125,-0.609375 0,-0.1875 0.09375,-0.296875 0.203125,-0.5 4.796875,-4.984375 17,-17.640625 17,-48.640625 0,-31.109375 -12.109375,-43.765625 -17,-48.765625 C 4.796875,-24.203125 4.703125,-24.3125 4.703125,-24.5 c 0,-0.5 0.390625,-0.5 0.703125,-0.5 1.09375,0 9.59375,7.375 14.5,18.34375 5,11.046875 6.390625,21.796875 6.390625,31.359375 z"
         inkscape:connector-curvature="0"
         style="stroke-linecap:butt;stroke-linejoin:round" />
    </defs>
    <g
       id="g108"
       transform="matrix(0.11,0,0,-0.11,92.362046,176.47968)"
       style="fill:#262626;stroke-linecap:butt;stroke-linejoin:round">
      <use
         id="use88"
         xlink:href="#CMMI12-78"
         transform="matrix(0.996264,0,0,0.996264,0,210.30961)"
         style="stroke-linecap:butt;stroke-linejoin:round"
         x="0"
         y="0"
         width="100%"
         height="100%" />
      <use
         id="use90"
         xlink:href="#CMMI12-116"
         transform="matrix(0.697382,0,0,0.697382,78.115119,195.36569)"
         style="stroke-linecap:butt;stroke-linejoin:round"
         x="0"
         y="0"
         width="100%"
         height="100%" />
      <use
         id="use92"
         xlink:href="#CMMI12-114"
         transform="matrix(0.697382,0,0,0.697382,102.77343,195.36569)"
         style="stroke-linecap:butt;stroke-linejoin:round"
         x="0"
         y="0"
         width="100%"
         height="100%" />
      <use
         id="use94"
         xlink:href="#CMMI12-105"
         transform="matrix(0.697382,0,0,0.697382,135.4427,195.36569)"
         style="stroke-linecap:butt;stroke-linejoin:round"
         x="0"
         y="0"
         width="100%"
         height="100%" />
      <use
         id="use96"
         xlink:href="#CMMI12-97"
         transform="matrix(0.697382,0,0,0.697382,158.7376,195.36569)"
         style="stroke-linecap:butt;stroke-linejoin:round"
         x="0"
         y="0"
         width="100%"
         height="100%" />
      <use
         id="use98"
         xlink:href="#CMMI12-108"
         transform="matrix(0.697382,0,0,0.697382,194.58295,195.36569)"
         style="stroke-linecap:butt;stroke-linejoin:round"
         x="0"
         y="0"
         width="100%"
         height="100%" />
      <use
         id="use100"
         xlink:href="#CMMI12-115"
         transform="matrix(0.697382,0,0,0.697382,216.45673,195.36569)"
         style="stroke-linecap:butt;stroke-linejoin:round"
         x="0"
         y="0"
         width="100%"
         height="100%" />
      <use
         id="use102"
         xlink:href="#CMR17-40"
         transform="matrix(0.996264,0,0,0.996264,63.831418,0)"
         style="stroke-linecap:butt;stroke-linejoin:round"
         x="0"
         y="0"
         width="100%"
         height="100%" />
      <use
         id="use104"
         xlink:href="#CMR17-98"
         transform="matrix(0.996264,0,0,0.996264,99.112186,0)"
         style="stroke-linecap:butt;stroke-linejoin:round"
         x="0"
         y="0"
         width="100%"
         height="100%" />
      <use
         id="use106"
         xlink:href="#CMR17-41"
         transform="matrix(0.996264,0,0,0.996264,150.00755,0)"
         style="stroke-linecap:butt;stroke-linejoin:round"
         x="0"
         y="0"
         width="100%"
         height="100%" />
    </g>
  </g>
  <g
     id="ytick_1"
     style="stroke-linecap:butt;stroke-linejoin:round">
    <g
       id="line2d_5"
       style="stroke-linecap:butt;stroke-linejoin:round" />
    <g
       id="text_6"
       style="stroke-linecap:butt;stroke-linejoin:round">
      <!-- $-0.2$ -->
      <defs
         id="defs115">
        <path
           id="CMSY10-0"
           d="m 65.90625,23 c 1.6875,0 3.5,0 3.5,2 0,2 -1.8125,2 -3.5,2 H 11.796875 c -1.703125,0 -3.5,0 -3.5,-2 0,-2 1.796875,-2 3.5,-2 z"
           inkscape:connector-curvature="0"
           style="stroke-linecap:butt;stroke-linejoin:round" />
        <path
           id="CMMI12-58"
           d="m 18.40625,4.796875 c 0,2.890625 -2.40625,4.875 -4.8125,4.875 -2.890625,0 -4.890625,-2.390625 -4.890625,-4.78125 C 8.703125,2 11.09375,0 13.5,0 c 2.90625,0 4.90625,2.390625 4.90625,4.796875 z"
           inkscape:connector-curvature="0"
           style="stroke-linecap:butt;stroke-linejoin:round" />
      </defs>
      <g
         id="g125"
         transform="matrix(0.1,0,0,-0.1,17.341177,129.45925)"
         style="fill:#262626;stroke-linecap:butt;stroke-linejoin:round">
        <use
           id="use117"
           xlink:href="#CMSY10-0"
           transform="scale(0.996264)"
           style="stroke-linecap:butt;stroke-linejoin:round"
           x="0"
           y="0"
           width="100%"
           height="100%" />
        <use
           id="use119"
           xlink:href="#CMR17-48"
           transform="matrix(0.996264,0,0,0.996264,77.487468,0)"
           style="stroke-linecap:butt;stroke-linejoin:round"
           x="0"
           y="0"
           width="100%"
           height="100%" />
        <use
           id="use121"
           xlink:href="#CMMI12-58"
           transform="matrix(0.996264,0,0,0.996264,123.17794,0)"
           style="stroke-linecap:butt;stroke-linejoin:round"
           x="0"
           y="0"
           width="100%"
           height="100%" />
        <use
           id="use123"
           xlink:href="#CMR17-50"
           transform="matrix(0.996264,0,0,0.996264,150.27512,0)"
           style="stroke-linecap:butt;stroke-linejoin:round"
           x="0"
           y="0"
           width="100%"
           height="100%" />
      </g>
    </g>
  </g>
  <g
     id="ytick_2"
     style="stroke-linecap:butt;stroke-linejoin:round">
    <g
       id="line2d_6"
       style="stroke-linecap:butt;stroke-linejoin:round" />
    <g
       id="text_7"
       style="stroke-linecap:butt;stroke-linejoin:round">
      <!-- $0.0$ -->
      <g
         id="g136"
         transform="matrix(0.1,0,0,-0.1,25.089921,89.924704)"
         style="fill:#262626;stroke-linecap:butt;stroke-linejoin:round">
        <use
           id="use130"
           xlink:href="#CMR17-48"
           transform="scale(0.996264)"
           style="stroke-linecap:butt;stroke-linejoin:round"
           x="0"
           y="0"
           width="100%"
           height="100%" />
        <use
           id="use132"
           xlink:href="#CMMI12-58"
           transform="matrix(0.996264,0,0,0.996264,45.690477,0)"
           style="stroke-linecap:butt;stroke-linejoin:round"
           x="0"
           y="0"
           width="100%"
           height="100%" />
        <use
           id="use134"
           xlink:href="#CMR17-48"
           transform="matrix(0.996264,0,0,0.996264,72.787654,0)"
           style="stroke-linecap:butt;stroke-linejoin:round"
           x="0"
           y="0"
           width="100%"
           height="100%" />
      </g>
    </g>
  </g>
  <g
     id="ytick_3"
     style="stroke-linecap:butt;stroke-linejoin:round">
    <g
       id="line2d_7"
       style="stroke-linecap:butt;stroke-linejoin:round" />
    <g
       id="text_8"
       style="stroke-linecap:butt;stroke-linejoin:round">
      <!-- $0.2$ -->
      <g
         id="g147"
         transform="matrix(0.1,0,0,-0.1,25.089921,50.390158)"
         style="fill:#262626;stroke-linecap:butt;stroke-linejoin:round">
        <use
           id="use141"
           xlink:href="#CMR17-48"
           transform="scale(0.996264)"
           style="stroke-linecap:butt;stroke-linejoin:round"
           x="0"
           y="0"
           width="100%"
           height="100%" />
        <use
           id="use143"
           xlink:href="#CMMI12-58"
           transform="matrix(0.996264,0,0,0.996264,45.690477,0)"
           style="stroke-linecap:butt;stroke-linejoin:round"
           x="0"
           y="0"
           width="100%"
           height="100%" />
        <use
           id="use145"
           xlink:href="#CMR17-50"
           transform="matrix(0.996264,0,0,0.996264,72.787654,0)"
           style="stroke-linecap:butt;stroke-linejoin:round"
           x="0"
           y="0"
           width="100%"
           height="100%" />
      </g>
    </g>
  </g>
  <g
     id="text_9"
     style="stroke-linecap:butt;stroke-linejoin:round">
    <!-- Weight estimate -->
    <defs
       id="defs160">
      <path
         id="CMR17-87"
         d="M 86.296875,58.8125 C 87.203125,61.5 88.703125,65 94.5,65 v 2.59375 c -1.703125,0 -5.203125,0 -7,0 -2.5,0 -6.90625,0 -9.296875,0.09375 V 65 c 4.5,0 6.390625,-2.5 6.390625,-4.890625 0,-0.703125 -0.09375,-1.09375 -0.5,-2.1875 l -15.5,-49.25 -16.296875,51.84375 C 52,61.515625 51.90625,61.921875 51.90625,62.3125 51.90625,65 56.296875,65 58.203125,65 v 2.59375 c -2.90625,0 -7.90625,0 -11,0 -2.5,0 -7,0 -9.296875,0.09375 V 65 c 4.59375,0 5.796875,-0.296875 6.796875,-2.078125 0.390625,-0.90625 2,-6.078125 2,-6.375 0,-0.40625 -0.203125,-1 -0.296875,-1.296875 L 31.703125,8.765625 15.40625,60.421875 c -0.5,1.40625 -0.5,1.59375 -0.5,1.796875 C 14.90625,65 19.296875,65 21.296875,65 v 2.59375 c -2.890625,0 -7.890625,0 -11,0 -2.59375,0 -7,0 -9.390625,0.09375 V 65 c 6,0 6.390625,-0.59375 7.390625,-3.78125 l 19.5,-61.53125 c 0.5,-1.484375 0.5,-1.6875 1.40625,-1.6875 0.796875,0 1.09375,0.203125 1.5,1.59375 l 17,54.046875 17,-54.046875 C 65.09375,-1.796875 65.40625,-2 66.203125,-2 c 0.890625,0 0.890625,0.203125 1.390625,1.6875 z"
         inkscape:connector-curvature="0"
         style="stroke-linecap:butt;stroke-linejoin:round" />
      <path
         id="CMR17-101"
         d="M 38.09375,23 C 38.5,23.40625 38.5,23.609375 38.5,24.625 38.5,34.96875 33.09375,44 21.703125,44 c -10.609375,0 -19,-10.109375 -19,-22.390625 0,-13 9.5,-22.609375 20.09375,-22.609375 C 34,-1 38.40625,9.484375 38.40625,11.5625 c 0,0.6875 -0.609375,0.6875 -0.8125,0.6875 -0.6875,0 -0.796875,-0.203125 -1.1875,-1.375 C 34.203125,4.140625 28.703125,0.796875 23.5,0.796875 19.203125,0.796875 14.90625,3.171875 12.203125,7.5 9.09375,12.546875 9.09375,18.375 9.09375,23 Z M 9.203125,24.5 c 0.703125,14.640625 8.390625,17.90625 12.390625,17.90625 6.8125,0 11.40625,-6.515625 11.5,-17.90625 z"
         inkscape:connector-curvature="0"
         style="stroke-linecap:butt;stroke-linejoin:round" />
      <path
         id="CMR17-105"
         d="m 15.5,61.078125 c 0,2.1875 -1.796875,4.078125 -4.09375,4.078125 -2.203125,0 -4.109375,-1.78125 -4.109375,-4.078125 C 7.296875,58.890625 9.09375,57 11.40625,57 13.59375,57 15.5,58.796875 15.5,61.078125 Z M 3.796875,42.28125 v -2.578125 c 5.609375,0 6.40625,-0.609375 6.40625,-5.375 V 6.671875 c 0,-3.796875 -0.40625,-4.28125 -6.796875,-4.28125 v -2.59375 C 5.796875,0 10.09375,0 12.59375,0 c 2.40625,0 6.5,0 8.8125,-0.203125 v 2.59375 c -5.90625,0 -6.109375,0.59375 -6.109375,4.171875 V 43.375 Z"
         inkscape:connector-curvature="0"
         style="stroke-linecap:butt;stroke-linejoin:round" />
      <path
         id="CMR17-103"
         d="M 11.09375,18.1875 C 13,16.6875 16.296875,15 20.296875,15 28.203125,15 35,21.203125 35,29.5 35,32.09375 34.203125,36.09375 31.203125,39.203125 34,42.0625 38.09375,43 40.40625,43 c 0.390625,0 1,0 1.5,-0.28125 -0.40625,-0.09375 -1.3125,-0.484375 -1.3125,-2.015625 0,-1.21875 0.90625,-2.09375 2.203125,-2.09375 1.5,0 2.296875,0.96875 2.296875,2.234375 0,1.828125 -1.5,3.75 -4.6875,3.75 -4,0 -7.5,-1.8125 -10.3125,-4.28125 C 27.09375,43.015625 23.5,44 20.296875,44 12.40625,44 5.59375,37.796875 5.59375,29.5 c 0,-5.71875 3.3125,-9.3125 4.3125,-10.3125 -3,-3.5 -3,-7.578125 -3,-8.078125 0,-2.59375 1,-6.390625 4.390625,-8.484375 C 6.09375,1.328125 2,-2.640625 2,-7.59375 2,-14.734375 11.5,-20 22.90625,-20 c 11,0 20.890625,5.0625 20.890625,12.515625 C 43.796875,6 29,6 21.296875,6 19,6 14.90625,6 14.40625,6.109375 c -3.109375,0.5 -5.203125,3.296875 -5.203125,6.796875 0,0.890625 0,3.09375 1.890625,5.28125 z m 9.203125,-1.5 C 11.5,16.6875 11.5,27.5 11.5,29.515625 11.5,31.5 11.5,42.3125 20.296875,42.3125 c 8.796875,0 8.796875,-10.8125 8.796875,-12.796875 0,-2.015625 0,-12.828125 -8.796875,-12.828125 z m 2.609375,-34.984375 c -10,0 -16.90625,5.25 -16.90625,10.703125 0,3.078125 1.703125,5.953125 3.90625,7.53125 2.5,1.6875 3.5,1.6875 10.296875,1.6875 8.203125,0 19.59375,0 19.59375,-9.21875 0,-5.453125 -6.890625,-10.703125 -16.890625,-10.703125 z"
         inkscape:connector-curvature="0"
         style="stroke-linecap:butt;stroke-linejoin:round" />
      <path
         id="CMR17-104"
         d="m 41.5,30.203125 c 0,5.09375 -1,13.390625 -12.796875,13.390625 C 20.5,43.59375 16.5,37 15.296875,33.703125 h -0.09375 V 68.6875 L 3.296875,67.59375 V 65 c 5.90625,0 6.796875,-0.59375 6.796875,-5.359375 V 6.65625 c 0,-3.78125 -0.390625,-4.265625 -6.796875,-4.265625 v -2.59375 C 5.703125,0 10.09375,0 12.703125,0 c 2.59375,0 7.09375,0 9.5,-0.203125 v 2.59375 c -6.40625,0 -6.796875,0.390625 -6.796875,4.296875 V 25.90625 C 15.40625,35.109375 21,42 28,42 c 7.40625,0 8.203125,-6.59375 8.203125,-11.40625 V 6.6875 c 0,-3.8125 -0.40625,-4.296875 -6.796875,-4.296875 v -2.59375 C 31.796875,0 36.203125,0 38.796875,0 c 2.609375,0 7.109375,0 9.5,-0.203125 v 2.59375 C 41.90625,2.390625 41.5,2.78125 41.5,6.6875 Z"
         inkscape:connector-curvature="0"
         style="stroke-linecap:butt;stroke-linejoin:round" />
      <path
         id="CMR17-116"
         d="m 15.09375,40 h 14 v 2.578125 h -14 V 61 H 13.296875 C 13.09375,50.703125 9.59375,41.6875 1.09375,41.6875 V 40 H 9.796875 V 12.046875 C 9.796875,10.15625 9.796875,-1 21.40625,-1 c 5.890625,0 9.296875,5.78125 9.296875,13.140625 V 17.8125 H 28.90625 V 12.234375 C 28.90625,5.375 26.203125,0.796875 22,0.796875 c -2.90625,0 -6.90625,1.984375 -6.90625,11.046875 z"
         inkscape:connector-curvature="0"
         style="stroke-linecap:butt;stroke-linejoin:round" />
      <path
         id="CMR17-115"
         d="m 30.90625,42.140625 c 0,1.8125 -0.109375,1.90625 -0.703125,1.90625 -0.40625,0 -0.5,-0.09375 -1.703125,-1.59375 -0.296875,-0.40625 -1.203125,-1.421875 -1.5,-1.8125 -3.203125,3.40625 -7.703125,3.40625 -9.40625,3.40625 C 6.5,44.046875 2.5,38.234375 2.5,32.4375 c 0,-9.03125 10.203125,-11.109375 13.09375,-11.734375 6.3125,-1.28125 8.5,-1.6875 10.609375,-3.5 1.296875,-1.1875 3.5,-3.390625 3.5,-6.984375 0,-4.21875 -2.40625,-9.625 -11.609375,-9.625 -8.6875,0 -11.796875,6.59375 -13.59375,15.359375 -0.296875,1.390625 -0.296875,1.5 -1.09375,1.5 -0.8125,0 -0.90625,-0.109375 -0.90625,-2.09375 v -14.375 c 0,-1.78125 0.09375,-1.890625 0.703125,-1.890625 0.5,0 0.59375,0.109375 1.09375,0.90625 C 4.90625,0.890625 6.40625,3.296875 7,4.3125 9,1.609375 12.5,-1 18.09375,-1 28,-1 33.296875,4.421875 33.296875,12.25 c 0,5.125 -2.703125,7.828125 -4,9.03125 -3,3.109375 -6.5,3.8125 -10.703125,4.609375 -5.5,1.21875 -12.5,2.625 -12.5,8.75 0,2.59375 1.40625,8.125 11.5,8.125 10.703125,0 11.3125,-10.046875 11.5,-13.265625 C 29.203125,29 29.703125,28.890625 30,28.890625 c 0.90625,0 0.90625,0.3125 0.90625,2.015625 z"
         inkscape:connector-curvature="0"
         style="stroke-linecap:butt;stroke-linejoin:round" />
      <path
         id="CMR17-109"
         d="m 67.59375,30.203125 c 0,4.984375 -0.890625,13.390625 -12.796875,13.390625 C 48,43.59375 43.296875,39 41.5,33.609375 h -0.09375 c -1.203125,8.203125 -7.109375,9.984375 -12.703125,9.984375 -7.90625,0 -12,-6.09375 -13.5,-10.09375 H 15.09375 V 43.59375 L 3.296875,42.5 v -2.59375 c 5.90625,0 6.796875,-0.609375 6.796875,-5.40625 V 6.6875 c 0,-3.8125 -0.390625,-4.296875 -6.796875,-4.296875 v -2.59375 C 5.703125,0 10.09375,0 12.703125,0 c 2.59375,0 7.09375,0 9.5,-0.203125 v 2.59375 c -6.40625,0 -6.796875,0.390625 -6.796875,4.296875 V 25.90625 C 15.40625,35.109375 21,42 28,42 c 7.40625,0 8.203125,-6.59375 8.203125,-11.40625 V 6.6875 c 0,-3.8125 -0.40625,-4.296875 -6.796875,-4.296875 v -2.59375 C 31.796875,0 36.203125,0 38.796875,0 c 2.609375,0 7.109375,0 9.5,-0.203125 v 2.59375 C 41.90625,2.390625 41.5,2.78125 41.5,6.6875 V 25.90625 C 41.5,35.109375 47.09375,42 54.09375,42 61.5,42 62.296875,35.40625 62.296875,30.59375 V 6.6875 C 62.296875,2.875 61.90625,2.390625 55.5,2.390625 v -2.59375 C 57.90625,0 62.296875,0 64.90625,0 67.5,0 72,0 74.40625,-0.203125 v 2.59375 c -6.40625,0 -6.8125,0.390625 -6.8125,4.296875 z"
         inkscape:connector-curvature="0"
         style="stroke-linecap:butt;stroke-linejoin:round" />
      <path
         id="CMR17-97"
         d="M 36,25.828125 C 36,32.375 36,35.84375 31.796875,39.734375 28.09375,43 23.796875,44 20.40625,44 12.5,44 6.796875,37.609375 6.796875,30.796875 6.796875,27 9.796875,27 10.40625,27 11.703125,27 14,27.78125 14,30.53125 14,33 12.09375,34.078125 10.40625,34.078125 10,34.078125 9.5,33.96875 9.203125,33.875 c 2.09375,6.625 7.5,8.53125 11,8.53125 5,0 10.5,-4.453125 10.5,-12.953125 V 25 c -5.90625,0 -13,-0.796875 -18.609375,-3.796875 C 5.796875,17.703125 4,12.703125 4,8.90625 4,1.203125 13,-1 18.296875,-1 c 5.5,0 10.609375,3.171875 12.796875,8.984375 0.203125,-4.34375 3,-8.265625 7.40625,-8.265625 2.09375,0 7.40625,1.375 7.40625,9.140625 V 14.375 h -1.8125 V 8.78125 c 0,-6 -2.6875,-6.78125 -4,-6.78125 C 36,2 36,7.15625 36,11.53125 Z M 30.703125,13.59375 c 0,-8.640625 -6.203125,-13 -11.703125,-13 -5,0 -8.90625,3.703125 -8.90625,8.3125 0,2.984375 1.3125,8.28125 7.109375,11.484375 C 22,23.09375 27.5,23.5 30.703125,23.5 Z"
         inkscape:connector-curvature="0"
         style="stroke-linecap:butt;stroke-linejoin:round" />
    </defs>
    <g
       id="g190"
       transform="matrix(0,-0.11,-0.11,0,11.210283,110.48329)"
       style="fill:#262626;stroke-linecap:butt;stroke-linejoin:round">
      <use
         id="use162"
         xlink:href="#CMR17-87"
         transform="scale(0.996264)"
         style="stroke-linecap:butt;stroke-linejoin:round"
         x="0"
         y="0"
         width="100%"
         height="100%" />
      <use
         id="use164"
         xlink:href="#CMR17-101"
         transform="matrix(0.996264,0,0,0.996264,87.289395,0)"
         style="stroke-linecap:butt;stroke-linejoin:round"
         x="0"
         y="0"
         width="100%"
         height="100%" />
      <use
         id="use166"
         xlink:href="#CMR17-105"
         transform="matrix(0.996264,0,0,0.996264,127.77505,0)"
         style="stroke-linecap:butt;stroke-linejoin:round"
         x="0"
         y="0"
         width="100%"
         height="100%" />
      <use
         id="use168"
         xlink:href="#CMR17-103"
         transform="matrix(0.996264,0,0,0.996264,152.64611,0)"
         style="stroke-linecap:butt;stroke-linejoin:round"
         x="0"
         y="0"
         width="100%"
         height="100%" />
      <use
         id="use170"
         xlink:href="#CMR17-104"
         transform="matrix(0.996264,0,0,0.996264,198.33659,0)"
         style="stroke-linecap:butt;stroke-linejoin:round"
         x="0"
         y="0"
         width="100%"
         height="100%" />
      <use
         id="use172"
         xlink:href="#CMR17-116"
         transform="matrix(0.996264,0,0,0.996264,246.62951,0)"
         style="stroke-linecap:butt;stroke-linejoin:round"
         x="0"
         y="0"
         width="100%"
         height="100%" />
      <use
         id="use174"
         xlink:href="#CMR17-101"
         transform="matrix(0.996264,0,0,0.996264,311.98624,0)"
         style="stroke-linecap:butt;stroke-linejoin:round"
         x="0"
         y="0"
         width="100%"
         height="100%" />
      <use
         id="use176"
         xlink:href="#CMR17-115"
         transform="matrix(0.996264,0,0,0.996264,352.4719,0)"
         style="stroke-linecap:butt;stroke-linejoin:round"
         x="0"
         y="0"
         width="100%"
         height="100%" />
      <use
         id="use178"
         xlink:href="#CMR17-116"
         transform="matrix(0.996264,0,0,0.996264,388.27324,0)"
         style="stroke-linecap:butt;stroke-linejoin:round"
         x="0"
         y="0"
         width="100%"
         height="100%" />
      <use
         id="use180"
         xlink:href="#CMR17-105"
         transform="matrix(0.996264,0,0,0.996264,423.55401,0)"
         style="stroke-linecap:butt;stroke-linejoin:round"
         x="0"
         y="0"
         width="100%"
         height="100%" />
      <use
         id="use182"
         xlink:href="#CMR17-109"
         transform="matrix(0.996264,0,0,0.996264,448.42507,0)"
         style="stroke-linecap:butt;stroke-linejoin:round"
         x="0"
         y="0"
         width="100%"
         height="100%" />
      <use
         id="use184"
         xlink:href="#CMR17-97"
         transform="matrix(0.996264,0,0,0.996264,525.34465,0)"
         style="stroke-linecap:butt;stroke-linejoin:round"
         x="0"
         y="0"
         width="100%"
         height="100%" />
      <use
         id="use186"
         xlink:href="#CMR17-116"
         transform="matrix(0.996264,0,0,0.996264,571.03513,0)"
         style="stroke-linecap:butt;stroke-linejoin:round"
         x="0"
         y="0"
         width="100%"
         height="100%" />
      <use
         id="use188"
         xlink:href="#CMR17-101"
         transform="matrix(0.996264,0,0,0.996264,606.3159,0)"
         style="stroke-linecap:butt;stroke-linejoin:round"
         x="0"
         y="0"
         width="100%"
         height="100%" />
    </g>
  </g>
  <path
     id="path194"
     style="fill:none;stroke:#55a868;stroke-width:2;stroke-linecap:round;stroke-linejoin:round"
     d="m 45.241036,21.961722 3.789328,19.533247 4.210363,6.293384 4.210364,-3.911021 4.210364,1.065561 4.210363,-0.08732 4.210364,0.246722 4.210363,1.478142 4.210364,0.181029 4.210364,0.701299 4.210363,-0.04493 4.210364,-0.07339 4.210364,-0.822369 4.210363,0.378303 4.210363,1.989685 4.21036,-0.445579 4.21037,-0.664701 4.21036,-0.635522 4.21036,1.148712 4.21037,1.214591 4.21036,-0.03168 4.21037,-0.436754 4.21036,0.671112 4.21036,-0.403262 4.21037,-0.425371 4.21036,-0.328308 4.21036,0.114407 4.21037,0.154103 4.21036,-0.0266 4.21036,-0.197759 4.21037,-0.01389"
     clip-path="url(#p913f394c3b)"
     inkscape:connector-curvature="0" />
  <path
     id="path197"
     style="fill:none;stroke:#55a868;stroke-width:2;stroke-linecap:butt;stroke-linejoin:round;stroke-dasharray:7.4, 3.2;stroke-dashoffset:0"
     d="m 45.241036,43.413073 3.789328,3.414805 4.210363,1.595992 4.210364,-1.535299 4.210364,0.183642 4.210363,0.204649 4.210364,0.243926 4.210363,0.109012 4.210364,0.441019 4.210364,-0.349703 4.210363,0.151928 4.210364,-0.0024 4.210364,-0.157777 4.210363,-0.05107 4.210363,0.0067 4.21036,-0.174672 4.21037,-0.08546 4.21036,-0.0031 4.21036,0.187551 4.21037,0.183869 4.21036,-0.09116 4.21037,0.153821 4.21036,-0.0083 4.21036,-0.0842 4.21037,-0.01144 4.21036,-0.03537 4.21036,0.0078 4.21037,-0.08804 4.21036,-0.04567 4.21036,0.01757 4.21037,0.07183"
     clip-path="url(#p913f394c3b)"
     inkscape:connector-curvature="0" />
  <path
     id="path200"
     style="fill:none;stroke:#1a1a1a;stroke-linecap:round;stroke-linejoin:round"
     d="m 44.82,46.930909 h 4.210364 4.210363 4.210364 4.210364 4.210363 4.210364 4.210363 4.210364 4.210364 4.210363 4.210364 4.210364 4.210363 4.210363 4.21036 4.21037 4.21036 4.21036 4.21037 4.21036 4.21037 4.21036 4.21036 4.21037 4.21036 4.21036 4.21037 4.21036 4.21036 4.21037"
     clip-path="url(#p913f394c3b)"
     inkscape:connector-curvature="0"
     transform="translate(0.62500485)" />
  <path
     id="path203"
     style="fill:none;stroke:#262626;stroke-width:1.25;stroke-linecap:square;stroke-linejoin:miter"
     d="M 44.82,126 V 17.28"
     inkscape:connector-curvature="0" />
  <path
     id="path206"
     style="fill:none;stroke:#262626;stroke-width:1.25;stroke-linecap:square;stroke-linejoin:miter"
     d="M 44.82,126 H 171.13091"
     inkscape:connector-curvature="0" />
  <path
     id="path210"
     style="fill:#ffffff;stroke-linecap:butt;stroke-linejoin:round"
     d="M 196.39309,126 H 322.704 V 17.28 H 196.39309 Z"
     inkscape:connector-curvature="0" />
  <g
     id="xtick_5"
     style="stroke-linecap:butt;stroke-linejoin:round">
    <g
       id="line2d_11"
       style="stroke-linecap:butt;stroke-linejoin:round" />
    <g
       id="text_10"
       style="stroke-linecap:butt;stroke-linejoin:round">
      <!-- $0$ -->
      <g
         id="g216"
         transform="matrix(0.1,0,0,-0.1,193.90242,139.9185)"
         style="fill:#262626;stroke-linecap:butt;stroke-linejoin:round">
        <use
           id="use214"
           xlink:href="#CMR17-48"
           transform="scale(0.996264)"
           style="stroke-linecap:butt;stroke-linejoin:round"
           x="0"
           y="0"
           width="100%"
           height="100%" />
      </g>
    </g>
  </g>
  <g
     id="xtick_6"
     style="stroke-linecap:butt;stroke-linejoin:round">
    <g
       id="line2d_12"
       style="stroke-linecap:butt;stroke-linejoin:round" />
    <g
       id="text_11"
       style="stroke-linecap:butt;stroke-linejoin:round">
      <!-- $10000$ -->
      <g
         id="g231"
         transform="matrix(0.1,0,0,-0.1,226.04339,139.9185)"
         style="fill:#262626;stroke-linecap:butt;stroke-linejoin:round">
        <use
           id="use221"
           xlink:href="#CMR17-49"
           transform="scale(0.996264)"
           style="stroke-linecap:butt;stroke-linejoin:round"
           x="0"
           y="0"
           width="100%"
           height="100%" />
        <use
           id="use223"
           xlink:href="#CMR17-48"
           transform="matrix(0.996264,0,0,0.996264,45.690477,0)"
           style="stroke-linecap:butt;stroke-linejoin:round"
           x="0"
           y="0"
           width="100%"
           height="100%" />
        <use
           id="use225"
           xlink:href="#CMR17-48"
           transform="matrix(0.996264,0,0,0.996264,91.380954,0)"
           style="stroke-linecap:butt;stroke-linejoin:round"
           x="0"
           y="0"
           width="100%"
           height="100%" />
        <use
           id="use227"
           xlink:href="#CMR17-48"
           transform="matrix(0.996264,0,0,0.996264,137.07143,0)"
           style="stroke-linecap:butt;stroke-linejoin:round"
           x="0"
           y="0"
           width="100%"
           height="100%" />
        <use
           id="use229"
           xlink:href="#CMR17-48"
           transform="matrix(0.996264,0,0,0.996264,182.76191,0)"
           style="stroke-linecap:butt;stroke-linejoin:round"
           x="0"
           y="0"
           width="100%"
           height="100%" />
      </g>
    </g>
  </g>
  <g
     id="xtick_7"
     style="stroke-linecap:butt;stroke-linejoin:round">
    <g
       id="line2d_13"
       style="stroke-linecap:butt;stroke-linejoin:round" />
    <g
       id="text_12"
       style="stroke-linecap:butt;stroke-linejoin:round">
      <!-- $20000$ -->
      <g
         id="g246"
         transform="matrix(0.1,0,0,-0.1,268.14703,139.9185)"
         style="fill:#262626;stroke-linecap:butt;stroke-linejoin:round">
        <use
           id="use236"
           xlink:href="#CMR17-50"
           transform="scale(0.996264)"
           style="stroke-linecap:butt;stroke-linejoin:round"
           x="0"
           y="0"
           width="100%"
           height="100%" />
        <use
           id="use238"
           xlink:href="#CMR17-48"
           transform="matrix(0.996264,0,0,0.996264,45.690477,0)"
           style="stroke-linecap:butt;stroke-linejoin:round"
           x="0"
           y="0"
           width="100%"
           height="100%" />
        <use
           id="use240"
           xlink:href="#CMR17-48"
           transform="matrix(0.996264,0,0,0.996264,91.380954,0)"
           style="stroke-linecap:butt;stroke-linejoin:round"
           x="0"
           y="0"
           width="100%"
           height="100%" />
        <use
           id="use242"
           xlink:href="#CMR17-48"
           transform="matrix(0.996264,0,0,0.996264,137.07143,0)"
           style="stroke-linecap:butt;stroke-linejoin:round"
           x="0"
           y="0"
           width="100%"
           height="100%" />
        <use
           id="use244"
           xlink:href="#CMR17-48"
           transform="matrix(0.996264,0,0,0.996264,182.76191,0)"
           style="stroke-linecap:butt;stroke-linejoin:round"
           x="0"
           y="0"
           width="100%"
           height="100%" />
      </g>
    </g>
  </g>
  <g
     id="xtick_8"
     style="stroke-linecap:butt;stroke-linejoin:round">
    <g
       id="line2d_14"
       style="stroke-linecap:butt;stroke-linejoin:round" />
    <g
       id="text_13"
       style="stroke-linecap:butt;stroke-linejoin:round">
      <!-- $30000$ -->
      <g
         id="g261"
         transform="matrix(0.1,0,0,-0.1,310.25066,139.9185)"
         style="fill:#262626;stroke-linecap:butt;stroke-linejoin:round">
        <use
           id="use251"
           xlink:href="#CMR17-51"
           transform="scale(0.996264)"
           style="stroke-linecap:butt;stroke-linejoin:round"
           x="0"
           y="0"
           width="100%"
           height="100%" />
        <use
           id="use253"
           xlink:href="#CMR17-48"
           transform="matrix(0.996264,0,0,0.996264,45.690477,0)"
           style="stroke-linecap:butt;stroke-linejoin:round"
           x="0"
           y="0"
           width="100%"
           height="100%" />
        <use
           id="use255"
           xlink:href="#CMR17-48"
           transform="matrix(0.996264,0,0,0.996264,91.380954,0)"
           style="stroke-linecap:butt;stroke-linejoin:round"
           x="0"
           y="0"
           width="100%"
           height="100%" />
        <use
           id="use257"
           xlink:href="#CMR17-48"
           transform="matrix(0.996264,0,0,0.996264,137.07143,0)"
           style="stroke-linecap:butt;stroke-linejoin:round"
           x="0"
           y="0"
           width="100%"
           height="100%" />
        <use
           id="use259"
           xlink:href="#CMR17-48"
           transform="matrix(0.996264,0,0,0.996264,182.76191,0)"
           style="stroke-linecap:butt;stroke-linejoin:round"
           x="0"
           y="0"
           width="100%"
           height="100%" />
      </g>
    </g>
  </g>
  <g
     id="text_14"
     style="stroke-linecap:butt;stroke-linejoin:round">
    <!-- \begin{center}$N_{trials}$\\[2ex](c)\end{center} -->
    <defs
       id="defs266">
      <path
         id="CMR17-99"
         d="M 34.90625,35 C 33,35 30.203125,35 30.203125,31.515625 c 0,-2.796875 2.296875,-3.59375 3.59375,-3.59375 0.703125,0 3.609375,0.3125 3.609375,3.703125 0,6.921875 -6.8125,12.171875 -14.5,12.171875 -10.609375,0 -19.609375,-9.765625 -19.609375,-22.5 C 3.296875,8.0625 12.703125,-1 22.90625,-1 c 12.390625,0 15.5,11.578125 15.5,12.6875 0,0.40625 -0.109375,0.703125 -0.8125,0.703125 -0.6875,0 -0.796875,-0.09375 -1.1875,-1.40625 -2.609375,-8.171875 -8.3125,-10.1875 -12.609375,-10.1875 -6.390625,0 -14.09375,5.875 -14.09375,20.59375 C 9.703125,36.53125 17.09375,42 23,42 c 3.90625,0 9.703125,-1.796875 11.90625,-7 z"
         inkscape:connector-curvature="0"
         style="stroke-linecap:butt;stroke-linejoin:round" />
    </defs>
    <g
       id="g288"
       transform="matrix(0.11,0,0,-0.11,243.93514,176.47968)"
       style="fill:#262626;stroke-linecap:butt;stroke-linejoin:round">
      <use
         id="use268"
         xlink:href="#CMMI12-78"
         transform="matrix(0.996264,0,0,0.996264,0,210.30961)"
         style="stroke-linecap:butt;stroke-linejoin:round"
         x="0"
         y="0"
         width="100%"
         height="100%" />
      <use
         id="use270"
         xlink:href="#CMMI12-116"
         transform="matrix(0.697382,0,0,0.697382,78.115119,195.36569)"
         style="stroke-linecap:butt;stroke-linejoin:round"
         x="0"
         y="0"
         width="100%"
         height="100%" />
      <use
         id="use272"
         xlink:href="#CMMI12-114"
         transform="matrix(0.697382,0,0,0.697382,102.77343,195.36569)"
         style="stroke-linecap:butt;stroke-linejoin:round"
         x="0"
         y="0"
         width="100%"
         height="100%" />
      <use
         id="use274"
         xlink:href="#CMMI12-105"
         transform="matrix(0.697382,0,0,0.697382,135.4427,195.36569)"
         style="stroke-linecap:butt;stroke-linejoin:round"
         x="0"
         y="0"
         width="100%"
         height="100%" />
      <use
         id="use276"
         xlink:href="#CMMI12-97"
         transform="matrix(0.697382,0,0,0.697382,158.7376,195.36569)"
         style="stroke-linecap:butt;stroke-linejoin:round"
         x="0"
         y="0"
         width="100%"
         height="100%" />
      <use
         id="use278"
         xlink:href="#CMMI12-108"
         transform="matrix(0.697382,0,0,0.697382,194.58295,195.36569)"
         style="stroke-linecap:butt;stroke-linejoin:round"
         x="0"
         y="0"
         width="100%"
         height="100%" />
      <use
         id="use280"
         xlink:href="#CMMI12-115"
         transform="matrix(0.697382,0,0,0.697382,216.45673,195.36569)"
         style="stroke-linecap:butt;stroke-linejoin:round"
         x="0"
         y="0"
         width="100%"
         height="100%" />
      <use
         id="use282"
         xlink:href="#CMR17-40"
         transform="matrix(0.996264,0,0,0.996264,69.03628,0)"
         style="stroke-linecap:butt;stroke-linejoin:round"
         x="0"
         y="0"
         width="100%"
         height="100%" />
      <use
         id="use284"
         xlink:href="#CMR17-99"
         transform="matrix(0.996264,0,0,0.996264,104.31705,0)"
         style="stroke-linecap:butt;stroke-linejoin:round"
         x="0"
         y="0"
         width="100%"
         height="100%" />
      <use
         id="use286"
         xlink:href="#CMR17-41"
         transform="matrix(0.996264,0,0,0.996264,144.80271,0)"
         style="stroke-linecap:butt;stroke-linejoin:round"
         x="0"
         y="0"
         width="100%"
         height="100%" />
    </g>
  </g>
  <g
     id="ytick_4"
     style="stroke-linecap:butt;stroke-linejoin:round">
    <g
       id="line2d_15"
       style="stroke-linecap:butt;stroke-linejoin:round" />
  </g>
  <g
     id="ytick_5"
     style="stroke-linecap:butt;stroke-linejoin:round">
    <g
       id="line2d_16"
       style="stroke-linecap:butt;stroke-linejoin:round" />
  </g>
  <g
     id="ytick_6"
     style="stroke-linecap:butt;stroke-linejoin:round">
    <g
       id="line2d_17"
       style="stroke-linecap:butt;stroke-linejoin:round" />
  </g>
  <path
     id="path299"
     style="fill:none;stroke:#4c72b0;stroke-width:2;stroke-linecap:round;stroke-linejoin:round"
     d="m 196.81413,22.633636 3.78932,73.825854 4.21037,-4.95867 4.21036,0.398936 4.21036,3.920948 4.21037,2.440739 4.21036,-5.877032 4.21037,-0.58049 4.21036,1.018907 4.21036,-3.382641 4.21037,-2.108204 4.21036,-0.287448 4.21036,1.017112 4.21037,-0.129729 4.21036,-0.06972 4.21036,-1.712186 4.21037,1.026344 4.21036,-0.388776 4.21037,-0.364432 4.21036,0.670209 4.21036,-0.744949 4.21037,0.345771 4.21036,-1.5626 4.21036,0.173956 4.21037,-1.093066 4.21036,-0.390863 4.21036,0.05994 4.21037,-0.905951 4.21036,0.664403 4.21037,-0.139764 4.21036,-0.836337"
     clip-path="url(#p5770777d49)"
     inkscape:connector-curvature="0" />
  <path
     id="path302"
     style="fill:none;stroke:#4c72b0;stroke-width:2;stroke-linecap:butt;stroke-linejoin:round;stroke-dasharray:7.4, 3.2;stroke-dashoffset:0"
     d="m 196.81413,65.233578 3.78932,-5.674506 4.21037,0.722477 4.21036,0.326502 4.21036,-0.108914 4.21037,-0.10532 4.21036,0.537497 4.21037,-0.249359 4.21036,-0.07693 4.21036,-0.518614 4.21037,0.124239 4.21036,-0.103432 4.21036,0.13952 4.21037,0.02662 4.21036,-0.01459 4.21036,-0.06765 4.21037,0.06215 4.21036,0.08376 4.21037,0.131383 4.21036,0.194299 4.21036,0.04655 4.21037,0.191941 4.21036,-0.03451 4.21036,0.04059 4.21037,-0.09865 4.21036,-0.05328 4.21036,-0.0013 4.21037,-0.209361 4.21036,-0.114089 4.21037,0.05535 4.21036,0.05003"
     clip-path="url(#p5770777d49)"
     inkscape:connector-curvature="0" />
  <path
     id="path305"
     style="fill:none;stroke:#1a1a1a;stroke-linecap:round;stroke-linejoin:round"
     d="m 196.81413,86.465455 h 3.78932 4.21037 4.21036 4.21036 4.21037 4.21036 4.21037 4.21036 4.21036 4.21037 4.21036 4.21036 4.21037 4.21036 4.21036 4.21037 4.21036 4.21037 4.21036 4.21036 4.21037 4.21036 4.21036 4.21037 4.21036 4.21036 4.21037 4.21036 4.21037 4.21036"
     clip-path="url(#p5770777d49)"
     inkscape:connector-curvature="0" />
  <path
     id="path308"
     style="fill:none;stroke:#262626;stroke-width:1.25;stroke-linecap:square;stroke-linejoin:miter"
     d="M 196.39309,126 V 17.28"
     inkscape:connector-curvature="0" />
  <path
     id="path311"
     style="fill:none;stroke:#262626;stroke-width:1.25;stroke-linecap:square;stroke-linejoin:miter"
     d="M 196.39309,126 H 322.704"
     inkscape:connector-curvature="0" />
  <g
     id="g1659"
     transform="translate(-4.298132,-10.641535)"
     style="stroke-linecap:butt;stroke-linejoin:round">
    <g
       style="stroke-linecap:butt;stroke-linejoin:round"
       id="line2d_11-3"
       transform="matrix(0.74957909,0,0,0.99999999,90.387736,9.5057272)">
      <path
         inkscape:connector-curvature="0"
         id="path206-6"
         style="fill:none;stroke:#55a868;stroke-width:2.0002141;stroke-linecap:square;stroke-linejoin:round;stroke-miterlimit:4;stroke-dasharray:none"
         d="m 58.320064,84.708211 h 22" />
    </g>
    <g
       style="stroke-linecap:butt;stroke-linejoin:round"
       id="line2d_13-7"
       transform="translate(75.025496,4.9471432)">
      <path
         inkscape:connector-curvature="0"
         id="path227"
         style="fill:none;stroke:#55a868;stroke-width:2;stroke-linecap:butt;stroke-linejoin:round;stroke-dasharray:7.4, 3.2;stroke-dashoffset:0"
         d="m 58.320064,100.03911 17.310021,-0.04512 0.695516,-0.0022"
         sodipodi:nodetypes="ccc" />
    </g>
    <text
       id="text5151"
       y="83.098404"
       x="134.44798"
       style="font-style:normal;font-weight:normal;font-size:9.60000038px;line-height:0%;font-family:sans-serif;letter-spacing:0px;word-spacing:0px;fill:#000000;fill-opacity:1;stroke:none;stroke-width:0.80000007px;stroke-linecap:butt;stroke-linejoin:miter;stroke-opacity:1"
       xml:space="preserve"><tspan
         style="font-style:italic;font-variant:normal;font-weight:500;font-stretch:normal;font-size:10.00000095px;line-height:1.25;font-family:'CMU Serif';-inkscape-font-specification:'CMU Serif Medium Italic';stroke-width:0.80000007px;stroke-linecap:butt;stroke-linejoin:round"
         y="83.098404"
         x="134.44798"
         id="tspan5153"
         sodipodi:role="line">BC</tspan></text>
    <text
       id="text5151-7"
       y="83.098404"
       x="158.74031"
       style="font-style:normal;font-weight:normal;font-size:9.60000038px;line-height:0%;font-family:sans-serif;letter-spacing:0px;word-spacing:0px;fill:#000000;fill-opacity:1;stroke:none;stroke-width:0.80000007px;stroke-linecap:butt;stroke-linejoin:miter;stroke-opacity:1"
       xml:space="preserve"><tspan
         style="font-style:italic;font-variant:normal;font-weight:500;font-stretch:normal;font-size:10.00000095px;line-height:1.25;font-family:'CMU serif';-inkscape-font-specification:'CMU serif Medium Italic';stroke-width:0.80000007px;stroke-linecap:butt;stroke-linejoin:round"
         y="83.098404"
         x="158.74031"
         id="tspan5153-2"
         sodipodi:role="line">AC</tspan></text>
    <g
       style="stroke-linecap:butt;stroke-linejoin:round"
       id="line2d_11-6"
       transform="matrix(0.74957909,0,0,0.99999999,110.05178,73.263937)">
      <path
         inkscape:connector-curvature="0"
         id="path131"
         style="fill:none;stroke:#4c72b0;stroke-width:2.0002141;stroke-linecap:square;stroke-linejoin:round;stroke-miterlimit:4;stroke-dasharray:none"
         d="m 64.54574,20.95 h 22" />
    </g>
    <g
       style="stroke-linecap:butt;stroke-linejoin:round"
       id="line2d_13-1"
       transform="translate(93.098616,68.663944)">
      <path
         inkscape:connector-curvature="0"
         id="path152"
         style="fill:none;stroke:#4c72b0;stroke-width:2;stroke-linecap:butt;stroke-linejoin:round;stroke-dasharray:7.4, 3.2;stroke-dashoffset:0"
         d="m 64.54574,36.280895 18.069875,0.03551"
         sodipodi:nodetypes="cc" />
    </g>
    <g
       style="stroke-linecap:butt;stroke-linejoin:round"
       id="line2d_15-5"
       transform="matrix(0.78261324,0,0,0.99999999,107.5562,64.415176)">
      <path
         inkscape:connector-curvature="0"
         id="path172"
         style="fill:none;stroke:#1a1a1a;stroke-width:1.95754433;stroke-linecap:square;stroke-linejoin:round;stroke-miterlimit:4;stroke-dasharray:none"
         d="m 64.54574,51.611789 h 22" />
    </g>
    <g
       style="stroke-linecap:butt;stroke-linejoin:round"
       id="line2d_15-4"
       transform="matrix(0.78261324,0,0,0.99999999,83.225512,64.415176)">
      <path
         inkscape:connector-curvature="0"
         id="path172-0"
         style="fill:none;stroke:#1a1a1a;stroke-width:1.95754433;stroke-linecap:square;stroke-linejoin:round;stroke-miterlimit:4;stroke-dasharray:none"
         d="m 64.54574,51.611789 h 22" />
    </g>
    <text
       xml:space="preserve"
       style="font-style:normal;font-variant:normal;font-weight:normal;font-stretch:normal;font-size:10.3125px;line-height:125%;font-family:'CMU Serif';-inkscape-font-specification:'CMU Serif';letter-spacing:0px;word-spacing:0px;fill:#000000;fill-opacity:1;stroke:none;stroke-width:0.75px;stroke-linecap:butt;stroke-linejoin:miter;stroke-opacity:1"
       x="65.275467"
       y="96.235657"
       id="text841"><tspan
         sodipodi:role="line"
         id="tspan839"
         x="65.275467"
         y="96.235657"
         style="stroke-width:0.75px;stroke-linecap:butt;stroke-linejoin:round">IV</tspan></text>
    <text
       xml:space="preserve"
       style="font-style:normal;font-variant:normal;font-weight:normal;font-stretch:normal;font-size:10.3125px;line-height:125%;font-family:'CMU Serif';-inkscape-font-specification:'CMU Serif';letter-spacing:0px;word-spacing:0px;fill:#000000;fill-opacity:1;stroke:none;stroke-width:0.75px;stroke-linecap:butt;stroke-linejoin:miter;stroke-opacity:1"
       x="64.98671"
       y="106.98431"
       id="text845"><tspan
         sodipodi:role="line"
         id="tspan843"
         x="64.98671"
         y="106.98431"
         style="stroke-width:0.75px;stroke-linecap:butt;stroke-linejoin:round">CCH</tspan></text>
    <text
       xml:space="preserve"
       style="font-style:normal;font-variant:normal;font-weight:normal;font-stretch:normal;font-size:10.3125px;line-height:125%;font-family:'CMU Serif';-inkscape-font-specification:'CMU Serif';letter-spacing:0px;word-spacing:0px;fill:#000000;fill-opacity:1;stroke:none;stroke-width:0.75px;stroke-linecap:butt;stroke-linejoin:miter;stroke-opacity:1"
       x="64.98671"
       y="82.728386"
       id="text854"><tspan
         sodipodi:role="line"
         id="tspan852"
         x="64.98671"
         y="92.267448"
         style="stroke-width:0.75px;stroke-linecap:butt;stroke-linejoin:round" /><tspan
         sodipodi:role="line"
         x="64.98671"
         y="105.15807"
         style="stroke-width:0.75px;stroke-linecap:butt;stroke-linejoin:round"
         id="tspan856" /><tspan
         sodipodi:role="line"
         x="64.98671"
         y="118.0487"
         style="stroke-width:0.75px;stroke-linecap:butt;stroke-linejoin:round"
         id="tspan858">Ground truth</tspan></text>
  </g>
</svg>
