<?xml version="1.0" encoding="utf-8" standalone="no"?>
<!DOCTYPE svg PUBLIC "-//W3C//DTD SVG 1.1//EN"
  "http://www.w3.org/Graphics/SVG/1.1/DTD/svg11.dtd">
<!-- Created with matplotlib (http://matplotlib.org/) -->
<svg height="144pt" version="1.1" viewBox="0 0 173 144" width="173pt" xmlns="http://www.w3.org/2000/svg" xmlns:xlink="http://www.w3.org/1999/xlink">
 <defs>
  <style type="text/css">
*{stroke-linecap:butt;stroke-linejoin:round;}
  </style>
 </defs>
 <g id="figure_1">
  <g id="patch_1">
   <path d="M 0 144 
L 173.9016 144 
L 173.9016 0 
L 0 0 
z
" style="fill:#ffffff;"/>
  </g>
  <g id="axes_1">
   <g id="patch_2">
    <path d="M 21.7377 126 
L 156.51144 126 
L 156.51144 17.28 
L 21.7377 17.28 
z
" style="fill:#ffffff;"/>
   </g>
   <g id="matplotlib.axis_1">
    <g id="xtick_1">
     <g id="line2d_1"/>
     <g id="text_1">
      <!-- CCH -->
      <defs>
       <path d="M 62.09375 67.015625 
C 62.09375 68.796875 62 68.90625 61.40625 68.90625 
C 61 68.90625 60.90625 68.796875 60.203125 67.609375 
L 55.796875 59.25 
C 50.90625 65.421875 44.90625 69 37.203125 69 
C 20.09375 69 4.59375 54 4.59375 33.5625 
C 4.59375 12.90625 20.09375 -2 37.296875 -2 
C 52.59375 -2 62.09375 11.40625 62.09375 22.828125 
C 62.09375 23.8125 62.09375 24.21875 61.203125 24.21875 
C 60.40625 24.21875 60.40625 23.921875 60.296875 23.03125 
C 59.5 9.140625 49.5 0.59375 38.703125 0.59375 
C 28.5 0.59375 12.203125 7.734375 12.203125 33.546875 
C 12.203125 59.453125 28.796875 66.40625 38.5 66.40625 
C 49.796875 66.40625 58 56.6875 59.90625 42.890625 
C 60.09375 41.6875 60.09375 41.484375 61 41.484375 
C 62.09375 41.484375 62.09375 41.6875 62.09375 43.484375 
z
" id="CMR17-67"/>
       <path d="M 56.09375 61.015625 
C 56.09375 65.5 57.203125 65.5 64.09375 65.5 
L 64.09375 68 
C 61.203125 68 55.90625 68 52.796875 68 
C 49.703125 68 44.40625 68 41.5 68 
L 41.5 65.5 
C 48.40625 65.5 49.5 65.5 49.5 61 
L 49.5 36.578125 
L 19.703125 36.578125 
L 19.703125 61 
C 19.703125 65.5 20.796875 65.5 27.703125 65.5 
L 27.703125 68 
C 24.796875 68 19.5 68 16.40625 68 
C 13.296875 68 8 68 5.09375 68 
L 5.09375 65.5 
C 12 65.5 13.09375 65.5 13.09375 61.015625 
L 13.09375 6.984375 
C 13.09375 2.5 12 2.5 5.09375 2.5 
L 5.09375 0 
C 8 0 13.296875 0 16.40625 0 
C 19.5 0 24.796875 0 27.703125 0 
L 27.703125 2.5 
C 20.796875 2.5 19.703125 2.5 19.703125 6.96875 
L 19.703125 34 
L 49.5 34 
L 49.5 6.96875 
C 49.5 2.5 48.40625 2.5 41.5 2.5 
L 41.5 0 
C 44.40625 0 49.703125 0 52.796875 0 
C 55.90625 0 61.203125 0 64.09375 0 
L 64.09375 2.5 
C 57.203125 2.5 56.09375 2.5 56.09375 6.984375 
z
" id="CMR17-72"/>
      </defs>
      <g style="fill:#262626;" transform="translate(33.268746 139.918498)scale(0.1 -0.1)">
       <use transform="scale(0.996264)" xlink:href="#CMR17-67"/>
       <use transform="translate(66.509881 0)scale(0.996264)" xlink:href="#CMR17-67"/>
       <use transform="translate(133.019761 0)scale(0.996264)" xlink:href="#CMR17-72"/>
      </g>
     </g>
    </g>
    <g id="xtick_2">
     <g id="line2d_2"/>
     <g id="text_2">
      <!-- LOGIT -->
      <defs>
       <path d="M 54.203125 25.234375 
L 52.40625 25.234375 
C 51.59375 15.359375 50.296875 2.59375 33.203125 2.59375 
L 23.90625 2.59375 
C 19.90625 2.59375 19.703125 3.078125 19.703125 6.46875 
L 19.703125 60.90625 
C 19.703125 64.515625 19.90625 65.5 27.5 65.5 
L 29.703125 65.5 
L 29.703125 68 
C 25.59375 68 20.796875 68 16.703125 68 
C 13.59375 68 8 68 5.09375 68 
L 5.09375 65.5 
C 12 65.5 13.09375 65.5 13.09375 61.015625 
L 13.09375 7.0625 
C 13.09375 2.59375 12 2.59375 5.09375 2.59375 
L 5.09375 0 
L 51.796875 0 
z
" id="CMR17-76"/>
       <path d="M 67.296875 33.359375 
C 67.296875 53.703125 52.59375 69 36 69 
C 19 69 4.59375 53.5 4.59375 33.359375 
C 4.59375 13.203125 19.203125 -2 35.90625 -2 
C 53 -2 67.296875 13.5 67.296875 33.359375 
z
M 36 -0.203125 
C 24.59375 -0.203125 12.203125 11.109375 12.203125 34.640625 
C 12.203125 58.0625 25.796875 67.203125 35.90625 67.203125 
C 46.5 67.203125 59.703125 57.78125 59.703125 34.640625 
C 59.703125 10.71875 47 -0.203125 36 -0.203125 
z
" id="CMR17-79"/>
       <path d="M 62.09375 19.265625 
C 62.09375 23.015625 62.40625 23.515625 68.59375 23.515625 
L 68.59375 26.09375 
C 66.203125 26 60.796875 26 58.09375 26 
C 55.296875 26 47.5 26 43.703125 26 
L 43.703125 23.515625 
L 46.703125 23.515625 
C 55.296875 23.515625 55.5 22.40625 55.5 18.765625 
L 55.5 12.09375 
C 55.5 0.984375 42.5 0.984375 39.40625 0.984375 
C 29.09375 0.984375 12.203125 7.984375 12.203125 33.75 
C 12.203125 59.5 28.796875 66.40625 38.5 66.40625 
C 49.796875 66.40625 58 56.65625 59.90625 42.828125 
C 60.09375 41.625 60.09375 41.421875 61 41.421875 
C 62.09375 41.421875 62.09375 41.625 62.09375 43.421875 
L 62.09375 67 
C 62.09375 68.78125 62 68.890625 61.40625 68.890625 
C 61 68.890625 60.90625 68.78125 60.203125 67.59375 
L 55.796875 59.234375 
C 50.90625 65.421875 44.90625 69 37.203125 69 
C 20.09375 69 4.59375 54 4.59375 33.5625 
C 4.59375 13.203125 19.796875 -2 37.40625 -2 
C 45.5 -2 53.40625 0.875 56.5 6.515625 
C 58.203125 2.46875 61 -0.3125 61.5 -0.3125 
C 62 -0.3125 62.09375 -0.203125 62.09375 1.5625 
z
" id="CMR17-71"/>
       <path d="M 19.703125 61.015625 
C 19.703125 65.5 20.90625 65.5 28.09375 65.5 
L 28.09375 68 
C 24.90625 68 19.796875 68 16.40625 68 
C 13 68 7.90625 68 4.703125 68 
L 4.703125 65.5 
C 11.90625 65.5 13.09375 65.5 13.09375 61.015625 
L 13.09375 6.984375 
C 13.09375 2.5 11.90625 2.5 4.703125 2.5 
L 4.703125 0 
C 7.90625 0 13 0 16.40625 0 
C 19.796875 0 24.90625 0 28.09375 0 
L 28.09375 2.5 
C 20.90625 2.5 19.703125 2.5 19.703125 6.984375 
z
" id="CMR17-73"/>
       <path d="M 62.203125 67.59375 
L 4.5 67.59375 
L 2.796875 45.59375 
L 4.59375 45.59375 
C 5.90625 62.125 7.296875 65 22.703125 65 
C 24.5 65 27.40625 65 28.203125 64.90625 
C 30.09375 64.609375 30.09375 63.40625 30.09375 61.125 
L 30.09375 7.171875 
C 30.09375 3.59375 29.796875 2.5 21.5 2.5 
L 18.703125 2.5 
L 18.703125 0 
C 23.5 0 28.5 0 33.40625 0 
C 38.296875 0 43.296875 0 48.09375 0 
L 48.09375 2.5 
L 45.296875 2.5 
C 37 2.5 36.703125 3.59375 36.703125 7.171875 
L 36.703125 61.125 
C 36.703125 63.3125 36.703125 64.515625 38.5 64.90625 
C 39.296875 65 42.203125 65 44 65 
C 59.296875 65 60.796875 62.125 62.09375 45.59375 
L 63.90625 45.59375 
z
" id="CMR17-84"/>
      </defs>
      <g style="fill:#262626;" transform="translate(72.831474 139.918498)scale(0.1 -0.1)">
       <use transform="scale(0.996264)" xlink:href="#CMR17-76"/>
       <use transform="translate(57.381408 0)scale(0.996264)" xlink:href="#CMR17-79"/>
       <use transform="translate(129.096196 0)scale(0.996264)" xlink:href="#CMR17-71"/>
       <use transform="translate(201.451542 0)scale(0.996264)" xlink:href="#CMR17-73"/>
       <use transform="translate(234.089951 0)scale(0.996264)" xlink:href="#CMR17-84"/>
      </g>
     </g>
    </g>
    <g id="xtick_3">
     <g id="line2d_3"/>
     <g id="text_3">
      <!-- IV -->
      <defs>
       <path d="M 59 58.515625 
C 59.90625 60.71875 61.5 65 68.203125 65 
L 68.203125 67.6875 
C 65.90625 67.484375 63.296875 67.484375 60.796875 67.484375 
C 58.40625 67.484375 54.296875 67.484375 52 67.6875 
L 52 65 
C 57 65 57.203125 61.5 57.203125 60.90625 
C 57.203125 59.796875 56.90625 59.109375 56.59375 58.3125 
L 36.90625 6.96875 
L 16.296875 60.71875 
C 16 61.421875 15.796875 61.921875 15.796875 62.40625 
C 15.796875 65 19.796875 65 21.90625 65 
L 21.90625 67.484375 
C 18.703125 67.484375 14 67.484375 10.703125 67.484375 
C 8.09375 67.484375 3.40625 67.484375 1 67.6875 
L 1 65 
C 6.796875 65 7.90625 64.609375 9.09375 61.421875 
L 32.90625 -0.40625 
C 33.40625 -1.796875 33.5 -2 34.59375 -2 
C 35.703125 -2 35.796875 -1.796875 36.296875 -0.40625 
z
" id="CMR17-86"/>
      </defs>
      <g style="fill:#262626;" transform="translate(128.514341 139.918498)scale(0.1 -0.1)">
       <use transform="scale(0.996264)" xlink:href="#CMR17-73"/>
       <use transform="translate(32.638409 0)scale(0.996264)" xlink:href="#CMR17-86"/>
      </g>
     </g>
    </g>
   </g>
   <g id="matplotlib.axis_2">
    <g id="ytick_1">
     <g id="line2d_4"/>
     <g id="text_4">
      <!-- $0.0$ -->
      <defs>
       <path d="M 42 31.640625 
C 42 37.75 41.90625 48.125 37.703125 56.109375 
C 34 63.109375 28.09375 65.59375 22.90625 65.59375 
C 18.09375 65.59375 12 63.40625 8.203125 56.203125 
C 4.203125 48.71875 3.796875 39.4375 3.796875 31.640625 
C 3.796875 25.953125 3.90625 17.28125 7 9.671875 
C 11.296875 -0.609375 19 -2 22.90625 -2 
C 27.5 -2 34.5 -0.109375 38.59375 9.375 
C 41.59375 16.28125 42 24.359375 42 31.640625 
z
M 22.90625 -0.40625 
C 16.5 -0.40625 12.703125 5.078125 11.296875 12.6875 
C 10.203125 18.5625 10.203125 27.15625 10.203125 32.75 
C 10.203125 40.4375 10.203125 46.828125 11.5 52.921875 
C 13.40625 61.390625 19 64 22.90625 64 
C 27 64 32.296875 61.296875 34.203125 53.125 
C 35.5 47.4375 35.59375 40.734375 35.59375 32.75 
C 35.59375 26.25 35.59375 18.265625 34.40625 12.375 
C 32.296875 1.484375 26.40625 -0.40625 22.90625 -0.40625 
z
" id="CMR17-48"/>
       <path d="M 18.40625 4.796875 
C 18.40625 7.6875 16 9.671875 13.59375 9.671875 
C 10.703125 9.671875 8.703125 7.28125 8.703125 4.890625 
C 8.703125 2 11.09375 0 13.5 0 
C 16.40625 0 18.40625 2.390625 18.40625 4.796875 
z
" id="CMMI12-58"/>
      </defs>
      <g style="fill:#262626;" transform="translate(2.007621 122.76115)scale(0.1 -0.1)">
       <use transform="scale(0.996264)" xlink:href="#CMR17-48"/>
       <use transform="translate(45.690477 0)scale(0.996264)" xlink:href="#CMMI12-58"/>
       <use transform="translate(72.787654 0)scale(0.996264)" xlink:href="#CMR17-48"/>
      </g>
     </g>
    </g>
    <g id="ytick_2">
     <g id="line2d_5"/>
     <g id="text_5">
      <!-- $0.5$ -->
      <defs>
       <path d="M 11.40625 57.6875 
C 12.40625 57.28125 16.5 56 20.703125 56 
C 30 56 35.09375 61.109375 38 64.0625 
C 38 64.953125 38 65.5 37.40625 65.5 
C 37.296875 65.5 37.09375 65.5 36.296875 65.046875 
C 32.796875 63.40625 28.703125 62.078125 23.703125 62.078125 
C 20.703125 62.078125 16.203125 62.484375 11.296875 64.671875 
C 10.203125 65.171875 10 65.171875 9.90625 65.171875 
C 9.40625 65.171875 9.296875 65.0625 9.296875 63.078125 
L 9.296875 34.421875 
C 9.296875 32.640625 9.296875 32.140625 10.296875 32.140625 
C 10.796875 32.140625 11 32.34375 11.5 33.03125 
C 14.703125 37.515625 19.09375 39.40625 24.09375 39.40625 
C 27.59375 39.40625 35.09375 37.21875 35.09375 20.140625 
C 35.09375 16.953125 35.09375 11.171875 32.09375 6.578125 
C 29.59375 2.484375 25.703125 0.390625 21.40625 0.390625 
C 14.796875 0.390625 8.09375 5 6.296875 12.71875 
C 6.703125 12.609375 7.5 12.421875 7.90625 12.421875 
C 9.203125 12.421875 11.703125 13.125 11.703125 16.21875 
C 11.703125 18.90625 9.796875 20 7.90625 20 
C 5.59375 20 4.09375 18.59375 4.09375 15.796875 
C 4.09375 7.09375 11 -2 21.59375 -2 
C 31.90625 -2 41.703125 6.875 41.703125 19.75 
C 41.703125 31.71875 33.90625 41 24.203125 41 
C 19.09375 41 14.796875 39.109375 11.40625 35.53125 
z
" id="CMR17-53"/>
      </defs>
      <g style="fill:#262626;" transform="translate(2.007621 80.970327)scale(0.1 -0.1)">
       <use transform="scale(0.996264)" xlink:href="#CMR17-48"/>
       <use transform="translate(45.690477 0)scale(0.996264)" xlink:href="#CMMI12-58"/>
       <use transform="translate(72.787654 0)scale(0.996264)" xlink:href="#CMR17-53"/>
      </g>
     </g>
    </g>
    <g id="ytick_3">
     <g id="line2d_6"/>
     <g id="text_6">
      <!-- $1.0$ -->
      <defs>
       <path d="M 26.59375 63.40625 
C 26.59375 65.5 26.5 65.5 25.09375 65.5 
C 21.203125 61.1875 15.296875 59.796875 9.703125 59.796875 
C 9.40625 59.796875 8.90625 59.796875 8.796875 59.5 
C 8.703125 59.296875 8.703125 59.09375 8.703125 57 
C 11.796875 57 17 57.59375 21 59.984375 
L 21 7.203125 
C 21 3.6875 20.796875 2.5 12.203125 2.5 
L 9.203125 2.5 
L 9.203125 0 
C 14 0 19 0 23.796875 0 
C 28.59375 0 33.59375 0 38.40625 0 
L 38.40625 2.5 
L 35.40625 2.5 
C 26.796875 2.5 26.59375 3.59375 26.59375 7.15625 
z
" id="CMR17-49"/>
      </defs>
      <g style="fill:#262626;" transform="translate(2.007621 39.179503)scale(0.1 -0.1)">
       <use transform="scale(0.996264)" xlink:href="#CMR17-49"/>
       <use transform="translate(45.690477 0)scale(0.996264)" xlink:href="#CMMI12-58"/>
       <use transform="translate(72.787654 0)scale(0.996264)" xlink:href="#CMR17-48"/>
      </g>
     </g>
    </g>
    <g id="text_7">
     <!-- False positive -->
     <defs>
      <path d="M 54.40625 67.578125 
L 5.09375 67.578125 
L 5.09375 65 
C 12 65 13.09375 65 13.09375 60.53125 
L 13.09375 6.96875 
C 13.09375 2.5 12 2.5 5.09375 2.5 
L 5.09375 0 
C 8 0 13.59375 0 16.703125 0 
C 20.796875 0 25.59375 0 29.703125 0 
L 29.703125 2.5 
L 27.5 2.5 
C 19.90625 2.5 19.703125 3.484375 19.703125 7.0625 
L 19.703125 32.421875 
L 28.703125 32.421875 
C 38 32.421875 38.90625 29.140625 38.90625 20.8125 
L 40.703125 20.8125 
L 40.703125 46.671875 
L 38.90625 46.671875 
C 38.90625 38.28125 38 35 28.703125 35 
L 19.703125 35 
L 19.703125 61.109375 
C 19.703125 64.5 19.90625 65 23.90625 65 
L 36.796875 65 
C 51.90625 65 53.59375 58.828125 55 45.5625 
L 56.796875 45.5625 
z
" id="CMR17-70"/>
      <path d="M 36 25.828125 
C 36 32.375 36 35.84375 31.796875 39.734375 
C 28.09375 43 23.796875 44 20.40625 44 
C 12.5 44 6.796875 37.609375 6.796875 30.796875 
C 6.796875 27 9.796875 27 10.40625 27 
C 11.703125 27 14 27.78125 14 30.53125 
C 14 33 12.09375 34.078125 10.40625 34.078125 
C 10 34.078125 9.5 33.96875 9.203125 33.875 
C 11.296875 40.5 16.703125 42.40625 20.203125 42.40625 
C 25.203125 42.40625 30.703125 37.953125 30.703125 29.453125 
L 30.703125 25 
C 24.796875 25 17.703125 24.203125 12.09375 21.203125 
C 5.796875 17.703125 4 12.703125 4 8.90625 
C 4 1.203125 13 -1 18.296875 -1 
C 23.796875 -1 28.90625 2.171875 31.09375 7.984375 
C 31.296875 3.640625 34.09375 -0.28125 38.5 -0.28125 
C 40.59375 -0.28125 45.90625 1.09375 45.90625 8.859375 
L 45.90625 14.375 
L 44.09375 14.375 
L 44.09375 8.78125 
C 44.09375 2.78125 41.40625 2 40.09375 2 
C 36 2 36 7.15625 36 11.53125 
z
M 30.703125 13.59375 
C 30.703125 4.953125 24.5 0.59375 19 0.59375 
C 14 0.59375 10.09375 4.296875 10.09375 8.90625 
C 10.09375 11.890625 11.40625 17.1875 17.203125 20.390625 
C 22 23.09375 27.5 23.5 30.703125 23.5 
z
" id="CMR17-97"/>
      <path d="M 15.296875 68.6875 
L 3.40625 67.59375 
L 3.40625 65 
C 9.296875 65 10.203125 64.40625 10.203125 59.640625 
L 10.203125 6.65625 
C 10.203125 2.875 9.796875 2.390625 3.40625 2.390625 
L 3.40625 -0.203125 
C 5.796875 0 10.203125 0 12.703125 0 
C 15.296875 0 19.703125 0 22.09375 -0.203125 
L 22.09375 2.390625 
C 15.703125 2.390625 15.296875 2.78125 15.296875 6.65625 
z
" id="CMR17-108"/>
      <path d="M 30.90625 42.140625 
C 30.90625 43.953125 30.796875 44.046875 30.203125 44.046875 
C 29.796875 44.046875 29.703125 43.953125 28.5 42.453125 
C 28.203125 42.046875 27.296875 41.03125 27 40.640625 
C 23.796875 44.046875 19.296875 44.046875 17.59375 44.046875 
C 6.5 44.046875 2.5 38.234375 2.5 32.4375 
C 2.5 23.40625 12.703125 21.328125 15.59375 20.703125 
C 21.90625 19.421875 24.09375 19.015625 26.203125 17.203125 
C 27.5 16.015625 29.703125 13.8125 29.703125 10.21875 
C 29.703125 6 27.296875 0.59375 18.09375 0.59375 
C 9.40625 0.59375 6.296875 7.1875 4.5 15.953125 
C 4.203125 17.34375 4.203125 17.453125 3.40625 17.453125 
C 2.59375 17.453125 2.5 17.34375 2.5 15.359375 
L 2.5 0.984375 
C 2.5 -0.796875 2.59375 -0.90625 3.203125 -0.90625 
C 3.703125 -0.90625 3.796875 -0.796875 4.296875 0 
C 4.90625 0.890625 6.40625 3.296875 7 4.3125 
C 9 1.609375 12.5 -1 18.09375 -1 
C 28 -1 33.296875 4.421875 33.296875 12.25 
C 33.296875 17.375 30.59375 20.078125 29.296875 21.28125 
C 26.296875 24.390625 22.796875 25.09375 18.59375 25.890625 
C 13.09375 27.109375 6.09375 28.515625 6.09375 34.640625 
C 6.09375 37.234375 7.5 42.765625 17.59375 42.765625 
C 28.296875 42.765625 28.90625 32.71875 29.09375 29.5 
C 29.203125 29 29.703125 28.890625 30 28.890625 
C 30.90625 28.890625 30.90625 29.203125 30.90625 30.90625 
z
" id="CMR17-115"/>
      <path d="M 38.09375 23 
C 38.5 23.40625 38.5 23.609375 38.5 24.625 
C 38.5 34.96875 33.09375 44 21.703125 44 
C 11.09375 44 2.703125 33.890625 2.703125 21.609375 
C 2.703125 8.609375 12.203125 -1 22.796875 -1 
C 34 -1 38.40625 9.484375 38.40625 11.5625 
C 38.40625 12.25 37.796875 12.25 37.59375 12.25 
C 36.90625 12.25 36.796875 12.046875 36.40625 10.875 
C 34.203125 4.140625 28.703125 0.796875 23.5 0.796875 
C 19.203125 0.796875 14.90625 3.171875 12.203125 7.5 
C 9.09375 12.546875 9.09375 18.375 9.09375 23 
z
M 9.203125 24.5 
C 9.90625 39.140625 17.59375 42.40625 21.59375 42.40625 
C 28.40625 42.40625 33 35.890625 33.09375 24.5 
z
" id="CMR17-101"/>
      <path d="M 22 -16.609375 
C 15.59375 -16.609375 15.203125 -16.203125 15.203125 -12.328125 
L 15.203125 6.28125 
C 18.09375 2.09375 22.296875 -0.59375 27.59375 -0.59375 
C 37.59375 -0.59375 47.703125 8.171875 47.703125 21.6875 
C 47.703125 34.234375 39 43.78125 28.703125 43.78125 
C 22.703125 43.78125 17.796875 40.5 15 36.53125 
L 15 43.78125 
L 3.09375 42.6875 
L 3.09375 40.109375 
C 9 40.109375 9.90625 39.5 9.90625 34.734375 
L 9.90625 -12.328125 
C 9.90625 -16.109375 9.5 -16.609375 3.09375 -16.609375 
L 3.09375 -19.1875 
C 5.5 -19 9.90625 -19 12.5 -19 
C 15.09375 -19 19.59375 -19 22 -19.1875 
z
M 15.203125 31.4375 
C 15.203125 32.84375 15.203125 34.921875 19.09375 38.609375 
C 19.59375 39.015625 23 42 28 42 
C 35.296875 42 41.296875 32.9375 41.296875 21.59375 
C 41.296875 10.25 34.90625 1 27 1 
C 23.40625 1 19.5 2.6875 16.5 7.375 
C 15.203125 9.5625 15.203125 10.15625 15.203125 11.75 
z
" id="CMR17-112"/>
      <path d="M 43.09375 21.1875 
C 43.09375 34 33.796875 44 22.90625 44 
C 12 44 2.703125 34 2.703125 21.1875 
C 2.703125 8.609375 12 -1 22.90625 -1 
C 33.796875 -1 43.09375 8.609375 43.09375 21.1875 
z
M 22.90625 0.796875 
C 18.203125 0.796875 14.203125 3.59375 11.90625 7.5 
C 9.40625 11.984375 9.09375 17.59375 9.09375 22 
C 9.09375 26.203125 9.296875 31.40625 11.90625 35.90625 
C 13.90625 39.203125 17.796875 42.40625 22.90625 42.40625 
C 27.40625 42.40625 31.203125 39.90625 33.59375 36.40625 
C 36.703125 31.703125 36.703125 25.109375 36.703125 22 
C 36.703125 18.09375 36.5 12.109375 33.796875 7.296875 
C 31 2.703125 26.703125 0.796875 22.90625 0.796875 
z
" id="CMR17-111"/>
      <path d="M 15.5 61.078125 
C 15.5 63.265625 13.703125 65.15625 11.40625 65.15625 
C 9.203125 65.15625 7.296875 63.375 7.296875 61.078125 
C 7.296875 58.890625 9.09375 57 11.40625 57 
C 13.59375 57 15.5 58.796875 15.5 61.078125 
z
M 3.796875 42.28125 
L 3.796875 39.703125 
C 9.40625 39.703125 10.203125 39.09375 10.203125 34.328125 
L 10.203125 6.671875 
C 10.203125 2.875 9.796875 2.390625 3.40625 2.390625 
L 3.40625 -0.203125 
C 5.796875 0 10.09375 0 12.59375 0 
C 15 0 19.09375 0 21.40625 -0.203125 
L 21.40625 2.390625 
C 15.5 2.390625 15.296875 2.984375 15.296875 6.5625 
L 15.296875 43.375 
z
" id="CMR17-105"/>
      <path d="M 15.09375 40 
L 29.09375 40 
L 29.09375 42.578125 
L 15.09375 42.578125 
L 15.09375 61 
L 13.296875 61 
C 13.09375 50.703125 9.59375 41.6875 1.09375 41.6875 
L 1.09375 40 
L 9.796875 40 
L 9.796875 12.046875 
C 9.796875 10.15625 9.796875 -1 21.40625 -1 
C 27.296875 -1 30.703125 4.78125 30.703125 12.140625 
L 30.703125 17.8125 
L 28.90625 17.8125 
L 28.90625 12.234375 
C 28.90625 5.375 26.203125 0.796875 22 0.796875 
C 19.09375 0.796875 15.09375 2.78125 15.09375 11.84375 
z
" id="CMR17-116"/>
      <path d="M 39.09375 33.796875 
C 40 36 41.59375 40 47.40625 40 
L 47.40625 42.59375 
C 45.5 42.59375 43 42.59375 41.09375 42.59375 
C 39 42.59375 35.703125 42.59375 33.703125 42.6875 
L 33.703125 40.09375 
C 36.203125 39.890625 37.59375 38.703125 37.59375 36.109375 
C 37.59375 35.203125 37.59375 35 37 33.609375 
L 26 5.890625 
L 14.09375 35.71875 
C 13.5 37.015625 13.5 37.203125 13.5 37.609375 
C 13.5 40 16.796875 40 18.296875 40 
L 18.296875 42.6875 
C 15.90625 42.59375 11.5 42.59375 9 42.59375 
C 6.296875 42.59375 3.203125 42.59375 1 42.6875 
L 1 40 
C 4.796875 40 6.90625 40 8.09375 36.90625 
L 22.59375 0.6875 
C 23.203125 -0.796875 23.296875 -1 24.203125 -1 
C 25.09375 -1 25.203125 -0.796875 25.796875 0.6875 
z
" id="CMR17-118"/>
     </defs>
     <g style="fill:#262626;" transform="translate(-4.123274 103.892717)rotate(-90)scale(0.11 -0.11)">
      <use transform="scale(0.996264)" xlink:href="#CMR17-70"/>
      <use transform="translate(52.176591 0)scale(0.996264)" xlink:href="#CMR17-97"/>
      <use transform="translate(97.867068 0)scale(0.996264)" xlink:href="#CMR17-108"/>
      <use transform="translate(122.738127 0)scale(0.996264)" xlink:href="#CMR17-115"/>
      <use transform="translate(158.539464 0)scale(0.996264)" xlink:href="#CMR17-101"/>
      <use transform="translate(229.101091 0)scale(0.996264)" xlink:href="#CMR17-112"/>
      <use transform="translate(282.5989 0)scale(0.996264)" xlink:href="#CMR17-111"/>
      <use transform="translate(328.289377 0)scale(0.996264)" xlink:href="#CMR17-115"/>
      <use transform="translate(364.090715 0)scale(0.996264)" xlink:href="#CMR17-105"/>
      <use transform="translate(388.961773 0)scale(0.996264)" xlink:href="#CMR17-116"/>
      <use transform="translate(424.242541 0)scale(0.996264)" xlink:href="#CMR17-105"/>
      <use transform="translate(449.113599 0)scale(0.996264)" xlink:href="#CMR17-118"/>
      <use transform="translate(494.804061 0)scale(0.996264)" xlink:href="#CMR17-101"/>
     </g>
    </g>
   </g>
   <g id="patch_3">
    <path clip-path="url(#p624ece03b5)" d="M 26.230158 107.356839 
L 62.169822 107.356839 
L 62.169822 97.642715 
L 26.230158 97.642715 
L 26.230158 107.356839 
z
" style="fill:#5875a4;stroke:#4c4c4c;stroke-linejoin:miter;stroke-width:2;"/>
   </g>
   <g id="patch_4">
    <path clip-path="url(#p624ece03b5)" d="M 71.154738 65.013736 
L 107.094402 65.013736 
L 107.094402 53.247474 
L 71.154738 53.247474 
L 71.154738 65.013736 
z
" style="fill:#5f9e6e;stroke:#4c4c4c;stroke-linejoin:miter;stroke-width:2;"/>
   </g>
   <g id="patch_5">
    <path clip-path="url(#p624ece03b5)" d="M 116.079318 118.98257 
L 152.018982 118.98257 
L 152.018982 118.136566 
L 116.079318 118.136566 
L 116.079318 118.98257 
z
" style="fill:#b55d60;stroke:#4c4c4c;stroke-linejoin:miter;stroke-width:2;"/>
   </g>
   <g id="line2d_7">
    <path clip-path="url(#p624ece03b5)" d="M 44.19999 107.356839 
L 44.19999 117.250949 
" style="fill:none;stroke:#4c4c4c;stroke-linecap:round;stroke-width:2;"/>
   </g>
   <g id="line2d_8">
    <path clip-path="url(#p624ece03b5)" d="M 44.19999 97.642715 
L 44.19999 86.649468 
" style="fill:none;stroke:#4c4c4c;stroke-linecap:round;stroke-width:2;"/>
   </g>
   <g id="line2d_9">
    <path clip-path="url(#p624ece03b5)" d="M 35.215074 117.250949 
L 53.184906 117.250949 
" style="fill:none;stroke:#4c4c4c;stroke-linecap:round;stroke-width:2;"/>
   </g>
   <g id="line2d_10">
    <path clip-path="url(#p624ece03b5)" d="M 35.215074 86.649468 
L 53.184906 86.649468 
" style="fill:none;stroke:#4c4c4c;stroke-linecap:round;stroke-width:2;"/>
   </g>
   <g id="line2d_11"/>
   <g id="line2d_12">
    <path clip-path="url(#p624ece03b5)" d="M 89.12457 65.013736 
L 89.12457 81.872729 
" style="fill:none;stroke:#4c4c4c;stroke-linecap:round;stroke-width:2;"/>
   </g>
   <g id="line2d_13">
    <path clip-path="url(#p624ece03b5)" d="M 89.12457 53.247474 
L 89.12457 44.541871 
" style="fill:none;stroke:#4c4c4c;stroke-linecap:round;stroke-width:2;"/>
   </g>
   <g id="line2d_14">
    <path clip-path="url(#p624ece03b5)" d="M 80.139654 81.872729 
L 98.109486 81.872729 
" style="fill:none;stroke:#4c4c4c;stroke-linecap:round;stroke-width:2;"/>
   </g>
   <g id="line2d_15">
    <path clip-path="url(#p624ece03b5)" d="M 80.139654 44.541871 
L 98.109486 44.541871 
" style="fill:none;stroke:#4c4c4c;stroke-linecap:round;stroke-width:2;"/>
   </g>
   <g id="line2d_16">
    <defs>
     <path d="M -0 3.535534 
L 2.12132 0 
L -0 -3.535534 
L -2.12132 -0 
z
" id="m2286aaf1b7"/>
    </defs>
    <g clip-path="url(#p624ece03b5)">
     <use style="fill:#4c4c4c;" x="89.12457" xlink:href="#m2286aaf1b7" y="93.937685"/>
     <use style="fill:#4c4c4c;" x="89.12457" xlink:href="#m2286aaf1b7" y="106.042431"/>
     <use style="fill:#4c4c4c;" x="89.12457" xlink:href="#m2286aaf1b7" y="87.411964"/>
     <use style="fill:#4c4c4c;" x="89.12457" xlink:href="#m2286aaf1b7" y="85.857585"/>
     <use style="fill:#4c4c4c;" x="89.12457" xlink:href="#m2286aaf1b7" y="90.74707"/>
     <use style="fill:#4c4c4c;" x="89.12457" xlink:href="#m2286aaf1b7" y="93.716294"/>
     <use style="fill:#4c4c4c;" x="89.12457" xlink:href="#m2286aaf1b7" y="105.896925"/>
     <use style="fill:#4c4c4c;" x="89.12457" xlink:href="#m2286aaf1b7" y="86.644557"/>
     <use style="fill:#4c4c4c;" x="89.12457" xlink:href="#m2286aaf1b7" y="86.794968"/>
     <use style="fill:#4c4c4c;" x="89.12457" xlink:href="#m2286aaf1b7" y="85.752673"/>
     <use style="fill:#4c4c4c;" x="89.12457" xlink:href="#m2286aaf1b7" y="90.727746"/>
     <use style="fill:#4c4c4c;" x="89.12457" xlink:href="#m2286aaf1b7" y="93.926703"/>
     <use style="fill:#4c4c4c;" x="89.12457" xlink:href="#m2286aaf1b7" y="105.928355"/>
     <use style="fill:#4c4c4c;" x="89.12457" xlink:href="#m2286aaf1b7" y="86.292902"/>
     <use style="fill:#4c4c4c;" x="89.12457" xlink:href="#m2286aaf1b7" y="87.195557"/>
     <use style="fill:#4c4c4c;" x="89.12457" xlink:href="#m2286aaf1b7" y="85.859667"/>
     <use style="fill:#4c4c4c;" x="89.12457" xlink:href="#m2286aaf1b7" y="90.733034"/>
     <use style="fill:#4c4c4c;" x="89.12457" xlink:href="#m2286aaf1b7" y="93.90636"/>
     <use style="fill:#4c4c4c;" x="89.12457" xlink:href="#m2286aaf1b7" y="106.006687"/>
     <use style="fill:#4c4c4c;" x="89.12457" xlink:href="#m2286aaf1b7" y="86.645511"/>
     <use style="fill:#4c4c4c;" x="89.12457" xlink:href="#m2286aaf1b7" y="87.405129"/>
     <use style="fill:#4c4c4c;" x="89.12457" xlink:href="#m2286aaf1b7" y="85.98263"/>
     <use style="fill:#4c4c4c;" x="89.12457" xlink:href="#m2286aaf1b7" y="90.6728"/>
     <use style="fill:#4c4c4c;" x="89.12457" xlink:href="#m2286aaf1b7" y="94.233246"/>
     <use style="fill:#4c4c4c;" x="89.12457" xlink:href="#m2286aaf1b7" y="106.168637"/>
     <use style="fill:#4c4c4c;" x="89.12457" xlink:href="#m2286aaf1b7" y="86.492755"/>
     <use style="fill:#4c4c4c;" x="89.12457" xlink:href="#m2286aaf1b7" y="85.956039"/>
     <use style="fill:#4c4c4c;" x="89.12457" xlink:href="#m2286aaf1b7" y="90.399766"/>
     <use style="fill:#4c4c4c;" x="89.12457" xlink:href="#m2286aaf1b7" y="93.76512"/>
     <use style="fill:#4c4c4c;" x="89.12457" xlink:href="#m2286aaf1b7" y="106.079547"/>
     <use style="fill:#4c4c4c;" x="89.12457" xlink:href="#m2286aaf1b7" y="86.87109"/>
     <use style="fill:#4c4c4c;" x="89.12457" xlink:href="#m2286aaf1b7" y="87.299576"/>
     <use style="fill:#4c4c4c;" x="89.12457" xlink:href="#m2286aaf1b7" y="90.84043"/>
     <use style="fill:#4c4c4c;" x="89.12457" xlink:href="#m2286aaf1b7" y="94.045519"/>
     <use style="fill:#4c4c4c;" x="89.12457" xlink:href="#m2286aaf1b7" y="105.991434"/>
     <use style="fill:#4c4c4c;" x="89.12457" xlink:href="#m2286aaf1b7" y="87.500492"/>
     <use style="fill:#4c4c4c;" x="89.12457" xlink:href="#m2286aaf1b7" y="86.194924"/>
     <use style="fill:#4c4c4c;" x="89.12457" xlink:href="#m2286aaf1b7" y="90.827967"/>
     <use style="fill:#4c4c4c;" x="89.12457" xlink:href="#m2286aaf1b7" y="93.968044"/>
     <use style="fill:#4c4c4c;" x="89.12457" xlink:href="#m2286aaf1b7" y="106.002748"/>
     <use style="fill:#4c4c4c;" x="89.12457" xlink:href="#m2286aaf1b7" y="86.392016"/>
     <use style="fill:#4c4c4c;" x="89.12457" xlink:href="#m2286aaf1b7" y="87.155223"/>
     <use style="fill:#4c4c4c;" x="89.12457" xlink:href="#m2286aaf1b7" y="85.966538"/>
     <use style="fill:#4c4c4c;" x="89.12457" xlink:href="#m2286aaf1b7" y="90.569331"/>
     <use style="fill:#4c4c4c;" x="89.12457" xlink:href="#m2286aaf1b7" y="93.79842"/>
     <use style="fill:#4c4c4c;" x="89.12457" xlink:href="#m2286aaf1b7" y="106.019427"/>
     <use style="fill:#4c4c4c;" x="89.12457" xlink:href="#m2286aaf1b7" y="86.698576"/>
     <use style="fill:#4c4c4c;" x="89.12457" xlink:href="#m2286aaf1b7" y="86.463809"/>
     <use style="fill:#4c4c4c;" x="89.12457" xlink:href="#m2286aaf1b7" y="90.296257"/>
     <use style="fill:#4c4c4c;" x="89.12457" xlink:href="#m2286aaf1b7" y="93.835446"/>
     <use style="fill:#4c4c4c;" x="89.12457" xlink:href="#m2286aaf1b7" y="106.120732"/>
     <use style="fill:#4c4c4c;" x="89.12457" xlink:href="#m2286aaf1b7" y="86.480705"/>
     <use style="fill:#4c4c4c;" x="89.12457" xlink:href="#m2286aaf1b7" y="87.721828"/>
     <use style="fill:#4c4c4c;" x="89.12457" xlink:href="#m2286aaf1b7" y="85.989649"/>
     <use style="fill:#4c4c4c;" x="89.12457" xlink:href="#m2286aaf1b7" y="90.699162"/>
     <use style="fill:#4c4c4c;" x="89.12457" xlink:href="#m2286aaf1b7" y="93.773182"/>
     <use style="fill:#4c4c4c;" x="89.12457" xlink:href="#m2286aaf1b7" y="105.946729"/>
     <use style="fill:#4c4c4c;" x="89.12457" xlink:href="#m2286aaf1b7" y="86.80796"/>
     <use style="fill:#4c4c4c;" x="89.12457" xlink:href="#m2286aaf1b7" y="87.478805"/>
     <use style="fill:#4c4c4c;" x="89.12457" xlink:href="#m2286aaf1b7" y="85.928442"/>
     <use style="fill:#4c4c4c;" x="89.12457" xlink:href="#m2286aaf1b7" y="90.805042"/>
     <use style="fill:#4c4c4c;" x="89.12457" xlink:href="#m2286aaf1b7" y="93.614143"/>
     <use style="fill:#4c4c4c;" x="89.12457" xlink:href="#m2286aaf1b7" y="105.990405"/>
     <use style="fill:#4c4c4c;" x="89.12457" xlink:href="#m2286aaf1b7" y="86.624727"/>
     <use style="fill:#4c4c4c;" x="89.12457" xlink:href="#m2286aaf1b7" y="87.734575"/>
     <use style="fill:#4c4c4c;" x="89.12457" xlink:href="#m2286aaf1b7" y="85.95389"/>
     <use style="fill:#4c4c4c;" x="89.12457" xlink:href="#m2286aaf1b7" y="90.74341"/>
     <use style="fill:#4c4c4c;" x="89.12457" xlink:href="#m2286aaf1b7" y="93.927572"/>
     <use style="fill:#4c4c4c;" x="89.12457" xlink:href="#m2286aaf1b7" y="106.025151"/>
     <use style="fill:#4c4c4c;" x="89.12457" xlink:href="#m2286aaf1b7" y="86.520002"/>
     <use style="fill:#4c4c4c;" x="89.12457" xlink:href="#m2286aaf1b7" y="90.664339"/>
     <use style="fill:#4c4c4c;" x="89.12457" xlink:href="#m2286aaf1b7" y="93.717692"/>
     <use style="fill:#4c4c4c;" x="89.12457" xlink:href="#m2286aaf1b7" y="106.073748"/>
     <use style="fill:#4c4c4c;" x="89.12457" xlink:href="#m2286aaf1b7" y="86.759692"/>
     <use style="fill:#4c4c4c;" x="89.12457" xlink:href="#m2286aaf1b7" y="87.463099"/>
     <use style="fill:#4c4c4c;" x="89.12457" xlink:href="#m2286aaf1b7" y="86.011254"/>
     <use style="fill:#4c4c4c;" x="89.12457" xlink:href="#m2286aaf1b7" y="90.587106"/>
     <use style="fill:#4c4c4c;" x="89.12457" xlink:href="#m2286aaf1b7" y="105.893779"/>
     <use style="fill:#4c4c4c;" x="89.12457" xlink:href="#m2286aaf1b7" y="86.317105"/>
     <use style="fill:#4c4c4c;" x="89.12457" xlink:href="#m2286aaf1b7" y="87.33324"/>
     <use style="fill:#4c4c4c;" x="89.12457" xlink:href="#m2286aaf1b7" y="85.723966"/>
     <use style="fill:#4c4c4c;" x="89.12457" xlink:href="#m2286aaf1b7" y="93.713124"/>
     <use style="fill:#4c4c4c;" x="89.12457" xlink:href="#m2286aaf1b7" y="105.881413"/>
     <use style="fill:#4c4c4c;" x="89.12457" xlink:href="#m2286aaf1b7" y="86.415423"/>
     <use style="fill:#4c4c4c;" x="89.12457" xlink:href="#m2286aaf1b7" y="87.532661"/>
     <use style="fill:#4c4c4c;" x="89.12457" xlink:href="#m2286aaf1b7" y="85.691037"/>
     <use style="fill:#4c4c4c;" x="89.12457" xlink:href="#m2286aaf1b7" y="89.927459"/>
     <use style="fill:#4c4c4c;" x="89.12457" xlink:href="#m2286aaf1b7" y="94.152296"/>
     <use style="fill:#4c4c4c;" x="89.12457" xlink:href="#m2286aaf1b7" y="105.802297"/>
     <use style="fill:#4c4c4c;" x="89.12457" xlink:href="#m2286aaf1b7" y="86.486431"/>
     <use style="fill:#4c4c4c;" x="89.12457" xlink:href="#m2286aaf1b7" y="87.48338"/>
     <use style="fill:#4c4c4c;" x="89.12457" xlink:href="#m2286aaf1b7" y="85.929507"/>
     <use style="fill:#4c4c4c;" x="89.12457" xlink:href="#m2286aaf1b7" y="90.609133"/>
     <use style="fill:#4c4c4c;" x="89.12457" xlink:href="#m2286aaf1b7" y="93.909185"/>
     <use style="fill:#4c4c4c;" x="89.12457" xlink:href="#m2286aaf1b7" y="105.721656"/>
     <use style="fill:#4c4c4c;" x="89.12457" xlink:href="#m2286aaf1b7" y="86.535481"/>
     <use style="fill:#4c4c4c;" x="89.12457" xlink:href="#m2286aaf1b7" y="87.274096"/>
     <use style="fill:#4c4c4c;" x="89.12457" xlink:href="#m2286aaf1b7" y="85.509421"/>
     <use style="fill:#4c4c4c;" x="89.12457" xlink:href="#m2286aaf1b7" y="93.889197"/>
     <use style="fill:#4c4c4c;" x="89.12457" xlink:href="#m2286aaf1b7" y="105.982751"/>
     <use style="fill:#4c4c4c;" x="89.12457" xlink:href="#m2286aaf1b7" y="86.59806"/>
     <use style="fill:#4c4c4c;" x="89.12457" xlink:href="#m2286aaf1b7" y="87.317261"/>
     <use style="fill:#4c4c4c;" x="89.12457" xlink:href="#m2286aaf1b7" y="85.93864"/>
     <use style="fill:#4c4c4c;" x="89.12457" xlink:href="#m2286aaf1b7" y="90.595774"/>
     <use style="fill:#4c4c4c;" x="89.12457" xlink:href="#m2286aaf1b7" y="93.711032"/>
     <use style="fill:#4c4c4c;" x="89.12457" xlink:href="#m2286aaf1b7" y="106.013762"/>
     <use style="fill:#4c4c4c;" x="89.12457" xlink:href="#m2286aaf1b7" y="86.642269"/>
     <use style="fill:#4c4c4c;" x="89.12457" xlink:href="#m2286aaf1b7" y="90.710457"/>
     <use style="fill:#4c4c4c;" x="89.12457" xlink:href="#m2286aaf1b7" y="93.765593"/>
     <use style="fill:#4c4c4c;" x="89.12457" xlink:href="#m2286aaf1b7" y="105.975935"/>
     <use style="fill:#4c4c4c;" x="89.12457" xlink:href="#m2286aaf1b7" y="86.610423"/>
     <use style="fill:#4c4c4c;" x="89.12457" xlink:href="#m2286aaf1b7" y="87.217892"/>
     <use style="fill:#4c4c4c;" x="89.12457" xlink:href="#m2286aaf1b7" y="85.90449"/>
     <use style="fill:#4c4c4c;" x="89.12457" xlink:href="#m2286aaf1b7" y="90.893783"/>
     <use style="fill:#4c4c4c;" x="89.12457" xlink:href="#m2286aaf1b7" y="93.803865"/>
     <use style="fill:#4c4c4c;" x="89.12457" xlink:href="#m2286aaf1b7" y="86.568844"/>
     <use style="fill:#4c4c4c;" x="89.12457" xlink:href="#m2286aaf1b7" y="87.430834"/>
     <use style="fill:#4c4c4c;" x="89.12457" xlink:href="#m2286aaf1b7" y="86.065342"/>
     <use style="fill:#4c4c4c;" x="89.12457" xlink:href="#m2286aaf1b7" y="90.668313"/>
     <use style="fill:#4c4c4c;" x="89.12457" xlink:href="#m2286aaf1b7" y="94.004177"/>
     <use style="fill:#4c4c4c;" x="89.12457" xlink:href="#m2286aaf1b7" y="86.65911"/>
     <use style="fill:#4c4c4c;" x="89.12457" xlink:href="#m2286aaf1b7" y="87.502418"/>
     <use style="fill:#4c4c4c;" x="89.12457" xlink:href="#m2286aaf1b7" y="85.758812"/>
     <use style="fill:#4c4c4c;" x="89.12457" xlink:href="#m2286aaf1b7" y="90.516897"/>
     <use style="fill:#4c4c4c;" x="89.12457" xlink:href="#m2286aaf1b7" y="93.974709"/>
     <use style="fill:#4c4c4c;" x="89.12457" xlink:href="#m2286aaf1b7" y="106.067734"/>
     <use style="fill:#4c4c4c;" x="89.12457" xlink:href="#m2286aaf1b7" y="86.634568"/>
     <use style="fill:#4c4c4c;" x="89.12457" xlink:href="#m2286aaf1b7" y="87.466942"/>
     <use style="fill:#4c4c4c;" x="89.12457" xlink:href="#m2286aaf1b7" y="86.080894"/>
     <use style="fill:#4c4c4c;" x="89.12457" xlink:href="#m2286aaf1b7" y="90.566524"/>
     <use style="fill:#4c4c4c;" x="89.12457" xlink:href="#m2286aaf1b7" y="93.705727"/>
     <use style="fill:#4c4c4c;" x="89.12457" xlink:href="#m2286aaf1b7" y="106.010879"/>
     <use style="fill:#4c4c4c;" x="89.12457" xlink:href="#m2286aaf1b7" y="86.588776"/>
     <use style="fill:#4c4c4c;" x="89.12457" xlink:href="#m2286aaf1b7" y="87.816517"/>
     <use style="fill:#4c4c4c;" x="89.12457" xlink:href="#m2286aaf1b7" y="85.927269"/>
     <use style="fill:#4c4c4c;" x="89.12457" xlink:href="#m2286aaf1b7" y="90.812954"/>
     <use style="fill:#4c4c4c;" x="89.12457" xlink:href="#m2286aaf1b7" y="93.401263"/>
     <use style="fill:#4c4c4c;" x="89.12457" xlink:href="#m2286aaf1b7" y="86.65838"/>
     <use style="fill:#4c4c4c;" x="89.12457" xlink:href="#m2286aaf1b7" y="87.347748"/>
     <use style="fill:#4c4c4c;" x="89.12457" xlink:href="#m2286aaf1b7" y="86.122273"/>
     <use style="fill:#4c4c4c;" x="89.12457" xlink:href="#m2286aaf1b7" y="93.776717"/>
     <use style="fill:#4c4c4c;" x="89.12457" xlink:href="#m2286aaf1b7" y="106.13838"/>
     <use style="fill:#4c4c4c;" x="89.12457" xlink:href="#m2286aaf1b7" y="86.543709"/>
     <use style="fill:#4c4c4c;" x="89.12457" xlink:href="#m2286aaf1b7" y="87.688026"/>
     <use style="fill:#4c4c4c;" x="89.12457" xlink:href="#m2286aaf1b7" y="85.584406"/>
     <use style="fill:#4c4c4c;" x="89.12457" xlink:href="#m2286aaf1b7" y="90.655341"/>
     <use style="fill:#4c4c4c;" x="89.12457" xlink:href="#m2286aaf1b7" y="93.912249"/>
     <use style="fill:#4c4c4c;" x="89.12457" xlink:href="#m2286aaf1b7" y="106.06342"/>
     <use style="fill:#4c4c4c;" x="89.12457" xlink:href="#m2286aaf1b7" y="86.609206"/>
     <use style="fill:#4c4c4c;" x="89.12457" xlink:href="#m2286aaf1b7" y="87.552832"/>
     <use style="fill:#4c4c4c;" x="89.12457" xlink:href="#m2286aaf1b7" y="85.904938"/>
     <use style="fill:#4c4c4c;" x="89.12457" xlink:href="#m2286aaf1b7" y="90.664211"/>
     <use style="fill:#4c4c4c;" x="89.12457" xlink:href="#m2286aaf1b7" y="105.861297"/>
     <use style="fill:#4c4c4c;" x="89.12457" xlink:href="#m2286aaf1b7" y="86.720961"/>
     <use style="fill:#4c4c4c;" x="89.12457" xlink:href="#m2286aaf1b7" y="87.506036"/>
     <use style="fill:#4c4c4c;" x="89.12457" xlink:href="#m2286aaf1b7" y="86.04313"/>
     <use style="fill:#4c4c4c;" x="89.12457" xlink:href="#m2286aaf1b7" y="90.736492"/>
     <use style="fill:#4c4c4c;" x="89.12457" xlink:href="#m2286aaf1b7" y="93.990119"/>
     <use style="fill:#4c4c4c;" x="89.12457" xlink:href="#m2286aaf1b7" y="87.02575"/>
     <use style="fill:#4c4c4c;" x="89.12457" xlink:href="#m2286aaf1b7" y="85.7956"/>
     <use style="fill:#4c4c4c;" x="89.12457" xlink:href="#m2286aaf1b7" y="90.474641"/>
     <use style="fill:#4c4c4c;" x="89.12457" xlink:href="#m2286aaf1b7" y="93.7659"/>
     <use style="fill:#4c4c4c;" x="89.12457" xlink:href="#m2286aaf1b7" y="106.00325"/>
     <use style="fill:#4c4c4c;" x="89.12457" xlink:href="#m2286aaf1b7" y="86.44796"/>
     <use style="fill:#4c4c4c;" x="89.12457" xlink:href="#m2286aaf1b7" y="87.394291"/>
     <use style="fill:#4c4c4c;" x="89.12457" xlink:href="#m2286aaf1b7" y="85.777498"/>
     <use style="fill:#4c4c4c;" x="89.12457" xlink:href="#m2286aaf1b7" y="90.516912"/>
     <use style="fill:#4c4c4c;" x="89.12457" xlink:href="#m2286aaf1b7" y="93.888804"/>
     <use style="fill:#4c4c4c;" x="89.12457" xlink:href="#m2286aaf1b7" y="106.017761"/>
     <use style="fill:#4c4c4c;" x="89.12457" xlink:href="#m2286aaf1b7" y="86.734566"/>
     <use style="fill:#4c4c4c;" x="89.12457" xlink:href="#m2286aaf1b7" y="87.545608"/>
     <use style="fill:#4c4c4c;" x="89.12457" xlink:href="#m2286aaf1b7" y="85.873912"/>
     <use style="fill:#4c4c4c;" x="89.12457" xlink:href="#m2286aaf1b7" y="90.779703"/>
     <use style="fill:#4c4c4c;" x="89.12457" xlink:href="#m2286aaf1b7" y="93.858901"/>
     <use style="fill:#4c4c4c;" x="89.12457" xlink:href="#m2286aaf1b7" y="106.095572"/>
     <use style="fill:#4c4c4c;" x="89.12457" xlink:href="#m2286aaf1b7" y="86.502616"/>
     <use style="fill:#4c4c4c;" x="89.12457" xlink:href="#m2286aaf1b7" y="87.492226"/>
     <use style="fill:#4c4c4c;" x="89.12457" xlink:href="#m2286aaf1b7" y="85.895468"/>
     <use style="fill:#4c4c4c;" x="89.12457" xlink:href="#m2286aaf1b7" y="90.501303"/>
     <use style="fill:#4c4c4c;" x="89.12457" xlink:href="#m2286aaf1b7" y="93.974461"/>
     <use style="fill:#4c4c4c;" x="89.12457" xlink:href="#m2286aaf1b7" y="106.017361"/>
     <use style="fill:#4c4c4c;" x="89.12457" xlink:href="#m2286aaf1b7" y="86.732451"/>
     <use style="fill:#4c4c4c;" x="89.12457" xlink:href="#m2286aaf1b7" y="87.624007"/>
     <use style="fill:#4c4c4c;" x="89.12457" xlink:href="#m2286aaf1b7" y="85.964855"/>
     <use style="fill:#4c4c4c;" x="89.12457" xlink:href="#m2286aaf1b7" y="90.670203"/>
     <use style="fill:#4c4c4c;" x="89.12457" xlink:href="#m2286aaf1b7" y="93.956353"/>
     <use style="fill:#4c4c4c;" x="89.12457" xlink:href="#m2286aaf1b7" y="106.011255"/>
     <use style="fill:#4c4c4c;" x="89.12457" xlink:href="#m2286aaf1b7" y="86.571935"/>
     <use style="fill:#4c4c4c;" x="89.12457" xlink:href="#m2286aaf1b7" y="87.568867"/>
     <use style="fill:#4c4c4c;" x="89.12457" xlink:href="#m2286aaf1b7" y="86.018392"/>
     <use style="fill:#4c4c4c;" x="89.12457" xlink:href="#m2286aaf1b7" y="90.673081"/>
     <use style="fill:#4c4c4c;" x="89.12457" xlink:href="#m2286aaf1b7" y="93.829856"/>
     <use style="fill:#4c4c4c;" x="89.12457" xlink:href="#m2286aaf1b7" y="105.949162"/>
     <use style="fill:#4c4c4c;" x="89.12457" xlink:href="#m2286aaf1b7" y="86.321952"/>
     <use style="fill:#4c4c4c;" x="89.12457" xlink:href="#m2286aaf1b7" y="85.947364"/>
     <use style="fill:#4c4c4c;" x="89.12457" xlink:href="#m2286aaf1b7" y="90.468096"/>
     <use style="fill:#4c4c4c;" x="89.12457" xlink:href="#m2286aaf1b7" y="93.723002"/>
     <use style="fill:#4c4c4c;" x="89.12457" xlink:href="#m2286aaf1b7" y="105.916541"/>
     <use style="fill:#4c4c4c;" x="89.12457" xlink:href="#m2286aaf1b7" y="86.537358"/>
     <use style="fill:#4c4c4c;" x="89.12457" xlink:href="#m2286aaf1b7" y="87.21142"/>
     <use style="fill:#4c4c4c;" x="89.12457" xlink:href="#m2286aaf1b7" y="85.766663"/>
     <use style="fill:#4c4c4c;" x="89.12457" xlink:href="#m2286aaf1b7" y="90.715541"/>
     <use style="fill:#4c4c4c;" x="89.12457" xlink:href="#m2286aaf1b7" y="93.820156"/>
     <use style="fill:#4c4c4c;" x="89.12457" xlink:href="#m2286aaf1b7" y="105.750979"/>
     <use style="fill:#4c4c4c;" x="89.12457" xlink:href="#m2286aaf1b7" y="86.55666"/>
     <use style="fill:#4c4c4c;" x="89.12457" xlink:href="#m2286aaf1b7" y="87.321338"/>
     <use style="fill:#4c4c4c;" x="89.12457" xlink:href="#m2286aaf1b7" y="85.951356"/>
     <use style="fill:#4c4c4c;" x="89.12457" xlink:href="#m2286aaf1b7" y="90.335956"/>
     <use style="fill:#4c4c4c;" x="89.12457" xlink:href="#m2286aaf1b7" y="93.849405"/>
     <use style="fill:#4c4c4c;" x="89.12457" xlink:href="#m2286aaf1b7" y="105.923676"/>
     <use style="fill:#4c4c4c;" x="89.12457" xlink:href="#m2286aaf1b7" y="86.611763"/>
     <use style="fill:#4c4c4c;" x="89.12457" xlink:href="#m2286aaf1b7" y="87.317721"/>
     <use style="fill:#4c4c4c;" x="89.12457" xlink:href="#m2286aaf1b7" y="86.148025"/>
     <use style="fill:#4c4c4c;" x="89.12457" xlink:href="#m2286aaf1b7" y="90.794389"/>
     <use style="fill:#4c4c4c;" x="89.12457" xlink:href="#m2286aaf1b7" y="93.777986"/>
     <use style="fill:#4c4c4c;" x="89.12457" xlink:href="#m2286aaf1b7" y="106.041966"/>
     <use style="fill:#4c4c4c;" x="89.12457" xlink:href="#m2286aaf1b7" y="86.774995"/>
     <use style="fill:#4c4c4c;" x="89.12457" xlink:href="#m2286aaf1b7" y="87.372856"/>
     <use style="fill:#4c4c4c;" x="89.12457" xlink:href="#m2286aaf1b7" y="85.895158"/>
     <use style="fill:#4c4c4c;" x="89.12457" xlink:href="#m2286aaf1b7" y="93.715883"/>
     <use style="fill:#4c4c4c;" x="89.12457" xlink:href="#m2286aaf1b7" y="105.912968"/>
     <use style="fill:#4c4c4c;" x="89.12457" xlink:href="#m2286aaf1b7" y="86.419281"/>
     <use style="fill:#4c4c4c;" x="89.12457" xlink:href="#m2286aaf1b7" y="86.772729"/>
     <use style="fill:#4c4c4c;" x="89.12457" xlink:href="#m2286aaf1b7" y="86.230357"/>
     <use style="fill:#4c4c4c;" x="89.12457" xlink:href="#m2286aaf1b7" y="106.010005"/>
     <use style="fill:#4c4c4c;" x="89.12457" xlink:href="#m2286aaf1b7" y="86.507232"/>
     <use style="fill:#4c4c4c;" x="89.12457" xlink:href="#m2286aaf1b7" y="85.663637"/>
     <use style="fill:#4c4c4c;" x="89.12457" xlink:href="#m2286aaf1b7" y="90.416749"/>
     <use style="fill:#4c4c4c;" x="89.12457" xlink:href="#m2286aaf1b7" y="94.044604"/>
     <use style="fill:#4c4c4c;" x="89.12457" xlink:href="#m2286aaf1b7" y="105.938709"/>
     <use style="fill:#4c4c4c;" x="89.12457" xlink:href="#m2286aaf1b7" y="86.626418"/>
     <use style="fill:#4c4c4c;" x="89.12457" xlink:href="#m2286aaf1b7" y="86.063193"/>
     <use style="fill:#4c4c4c;" x="89.12457" xlink:href="#m2286aaf1b7" y="90.374993"/>
     <use style="fill:#4c4c4c;" x="89.12457" xlink:href="#m2286aaf1b7" y="93.847714"/>
     <use style="fill:#4c4c4c;" x="89.12457" xlink:href="#m2286aaf1b7" y="106.101159"/>
     <use style="fill:#4c4c4c;" x="89.12457" xlink:href="#m2286aaf1b7" y="86.622182"/>
     <use style="fill:#4c4c4c;" x="89.12457" xlink:href="#m2286aaf1b7" y="87.378484"/>
     <use style="fill:#4c4c4c;" x="89.12457" xlink:href="#m2286aaf1b7" y="85.723263"/>
     <use style="fill:#4c4c4c;" x="89.12457" xlink:href="#m2286aaf1b7" y="90.587621"/>
     <use style="fill:#4c4c4c;" x="89.12457" xlink:href="#m2286aaf1b7" y="93.866558"/>
     <use style="fill:#4c4c4c;" x="89.12457" xlink:href="#m2286aaf1b7" y="105.895392"/>
     <use style="fill:#4c4c4c;" x="89.12457" xlink:href="#m2286aaf1b7" y="86.549332"/>
     <use style="fill:#4c4c4c;" x="89.12457" xlink:href="#m2286aaf1b7" y="87.270035"/>
     <use style="fill:#4c4c4c;" x="89.12457" xlink:href="#m2286aaf1b7" y="85.769505"/>
     <use style="fill:#4c4c4c;" x="89.12457" xlink:href="#m2286aaf1b7" y="90.638176"/>
     <use style="fill:#4c4c4c;" x="89.12457" xlink:href="#m2286aaf1b7" y="93.89337"/>
     <use style="fill:#4c4c4c;" x="89.12457" xlink:href="#m2286aaf1b7" y="105.943396"/>
     <use style="fill:#4c4c4c;" x="89.12457" xlink:href="#m2286aaf1b7" y="86.676201"/>
     <use style="fill:#4c4c4c;" x="89.12457" xlink:href="#m2286aaf1b7" y="86.111355"/>
     <use style="fill:#4c4c4c;" x="89.12457" xlink:href="#m2286aaf1b7" y="90.764981"/>
     <use style="fill:#4c4c4c;" x="89.12457" xlink:href="#m2286aaf1b7" y="93.779392"/>
     <use style="fill:#4c4c4c;" x="89.12457" xlink:href="#m2286aaf1b7" y="105.848437"/>
     <use style="fill:#4c4c4c;" x="89.12457" xlink:href="#m2286aaf1b7" y="86.74861"/>
     <use style="fill:#4c4c4c;" x="89.12457" xlink:href="#m2286aaf1b7" y="87.499232"/>
     <use style="fill:#4c4c4c;" x="89.12457" xlink:href="#m2286aaf1b7" y="86.04597"/>
     <use style="fill:#4c4c4c;" x="89.12457" xlink:href="#m2286aaf1b7" y="90.722784"/>
     <use style="fill:#4c4c4c;" x="89.12457" xlink:href="#m2286aaf1b7" y="105.90482"/>
     <use style="fill:#4c4c4c;" x="89.12457" xlink:href="#m2286aaf1b7" y="86.342608"/>
     <use style="fill:#4c4c4c;" x="89.12457" xlink:href="#m2286aaf1b7" y="87.537184"/>
     <use style="fill:#4c4c4c;" x="89.12457" xlink:href="#m2286aaf1b7" y="86.051658"/>
     <use style="fill:#4c4c4c;" x="89.12457" xlink:href="#m2286aaf1b7" y="90.782906"/>
     <use style="fill:#4c4c4c;" x="89.12457" xlink:href="#m2286aaf1b7" y="94.004232"/>
     <use style="fill:#4c4c4c;" x="89.12457" xlink:href="#m2286aaf1b7" y="106.012215"/>
     <use style="fill:#4c4c4c;" x="89.12457" xlink:href="#m2286aaf1b7" y="86.612964"/>
     <use style="fill:#4c4c4c;" x="89.12457" xlink:href="#m2286aaf1b7" y="87.338923"/>
     <use style="fill:#4c4c4c;" x="89.12457" xlink:href="#m2286aaf1b7" y="85.861835"/>
     <use style="fill:#4c4c4c;" x="89.12457" xlink:href="#m2286aaf1b7" y="90.759365"/>
     <use style="fill:#4c4c4c;" x="89.12457" xlink:href="#m2286aaf1b7" y="93.642115"/>
     <use style="fill:#4c4c4c;" x="89.12457" xlink:href="#m2286aaf1b7" y="106.044888"/>
     <use style="fill:#4c4c4c;" x="89.12457" xlink:href="#m2286aaf1b7" y="86.766258"/>
     <use style="fill:#4c4c4c;" x="89.12457" xlink:href="#m2286aaf1b7" y="87.158677"/>
     <use style="fill:#4c4c4c;" x="89.12457" xlink:href="#m2286aaf1b7" y="85.842513"/>
     <use style="fill:#4c4c4c;" x="89.12457" xlink:href="#m2286aaf1b7" y="90.44065"/>
     <use style="fill:#4c4c4c;" x="89.12457" xlink:href="#m2286aaf1b7" y="93.805849"/>
     <use style="fill:#4c4c4c;" x="89.12457" xlink:href="#m2286aaf1b7" y="105.902625"/>
     <use style="fill:#4c4c4c;" x="89.12457" xlink:href="#m2286aaf1b7" y="86.545906"/>
     <use style="fill:#4c4c4c;" x="89.12457" xlink:href="#m2286aaf1b7" y="87.369514"/>
     <use style="fill:#4c4c4c;" x="89.12457" xlink:href="#m2286aaf1b7" y="85.895987"/>
     <use style="fill:#4c4c4c;" x="89.12457" xlink:href="#m2286aaf1b7" y="90.647498"/>
     <use style="fill:#4c4c4c;" x="89.12457" xlink:href="#m2286aaf1b7" y="93.709041"/>
     <use style="fill:#4c4c4c;" x="89.12457" xlink:href="#m2286aaf1b7" y="105.876957"/>
     <use style="fill:#4c4c4c;" x="89.12457" xlink:href="#m2286aaf1b7" y="86.295189"/>
     <use style="fill:#4c4c4c;" x="89.12457" xlink:href="#m2286aaf1b7" y="87.009858"/>
     <use style="fill:#4c4c4c;" x="89.12457" xlink:href="#m2286aaf1b7" y="85.790718"/>
     <use style="fill:#4c4c4c;" x="89.12457" xlink:href="#m2286aaf1b7" y="90.686029"/>
     <use style="fill:#4c4c4c;" x="89.12457" xlink:href="#m2286aaf1b7" y="93.634532"/>
     <use style="fill:#4c4c4c;" x="89.12457" xlink:href="#m2286aaf1b7" y="105.81131"/>
     <use style="fill:#4c4c4c;" x="89.12457" xlink:href="#m2286aaf1b7" y="86.745592"/>
     <use style="fill:#4c4c4c;" x="89.12457" xlink:href="#m2286aaf1b7" y="87.389135"/>
     <use style="fill:#4c4c4c;" x="89.12457" xlink:href="#m2286aaf1b7" y="85.941514"/>
     <use style="fill:#4c4c4c;" x="89.12457" xlink:href="#m2286aaf1b7" y="90.782304"/>
     <use style="fill:#4c4c4c;" x="89.12457" xlink:href="#m2286aaf1b7" y="106.124901"/>
     <use style="fill:#4c4c4c;" x="89.12457" xlink:href="#m2286aaf1b7" y="86.721837"/>
     <use style="fill:#4c4c4c;" x="89.12457" xlink:href="#m2286aaf1b7" y="86.159481"/>
     <use style="fill:#4c4c4c;" x="89.12457" xlink:href="#m2286aaf1b7" y="90.673806"/>
     <use style="fill:#4c4c4c;" x="89.12457" xlink:href="#m2286aaf1b7" y="93.871238"/>
     <use style="fill:#4c4c4c;" x="89.12457" xlink:href="#m2286aaf1b7" y="105.959006"/>
     <use style="fill:#4c4c4c;" x="89.12457" xlink:href="#m2286aaf1b7" y="86.120343"/>
     <use style="fill:#4c4c4c;" x="89.12457" xlink:href="#m2286aaf1b7" y="87.536002"/>
     <use style="fill:#4c4c4c;" x="89.12457" xlink:href="#m2286aaf1b7" y="90.449602"/>
     <use style="fill:#4c4c4c;" x="89.12457" xlink:href="#m2286aaf1b7" y="93.564678"/>
     <use style="fill:#4c4c4c;" x="89.12457" xlink:href="#m2286aaf1b7" y="86.130008"/>
     <use style="fill:#4c4c4c;" x="89.12457" xlink:href="#m2286aaf1b7" y="86.934475"/>
     <use style="fill:#4c4c4c;" x="89.12457" xlink:href="#m2286aaf1b7" y="85.682067"/>
     <use style="fill:#4c4c4c;" x="89.12457" xlink:href="#m2286aaf1b7" y="90.467131"/>
     <use style="fill:#4c4c4c;" x="89.12457" xlink:href="#m2286aaf1b7" y="93.844462"/>
     <use style="fill:#4c4c4c;" x="89.12457" xlink:href="#m2286aaf1b7" y="106.113893"/>
     <use style="fill:#4c4c4c;" x="89.12457" xlink:href="#m2286aaf1b7" y="86.575286"/>
     <use style="fill:#4c4c4c;" x="89.12457" xlink:href="#m2286aaf1b7" y="87.493475"/>
     <use style="fill:#4c4c4c;" x="89.12457" xlink:href="#m2286aaf1b7" y="85.930287"/>
     <use style="fill:#4c4c4c;" x="89.12457" xlink:href="#m2286aaf1b7" y="90.553161"/>
     <use style="fill:#4c4c4c;" x="89.12457" xlink:href="#m2286aaf1b7" y="93.581399"/>
     <use style="fill:#4c4c4c;" x="89.12457" xlink:href="#m2286aaf1b7" y="105.771839"/>
     <use style="fill:#4c4c4c;" x="89.12457" xlink:href="#m2286aaf1b7" y="86.53645"/>
     <use style="fill:#4c4c4c;" x="89.12457" xlink:href="#m2286aaf1b7" y="87.295461"/>
     <use style="fill:#4c4c4c;" x="89.12457" xlink:href="#m2286aaf1b7" y="90.493897"/>
     <use style="fill:#4c4c4c;" x="89.12457" xlink:href="#m2286aaf1b7" y="93.758952"/>
     <use style="fill:#4c4c4c;" x="89.12457" xlink:href="#m2286aaf1b7" y="105.874771"/>
     <use style="fill:#4c4c4c;" x="89.12457" xlink:href="#m2286aaf1b7" y="86.362405"/>
     <use style="fill:#4c4c4c;" x="89.12457" xlink:href="#m2286aaf1b7" y="87.691782"/>
     <use style="fill:#4c4c4c;" x="89.12457" xlink:href="#m2286aaf1b7" y="85.860017"/>
     <use style="fill:#4c4c4c;" x="89.12457" xlink:href="#m2286aaf1b7" y="90.561075"/>
     <use style="fill:#4c4c4c;" x="89.12457" xlink:href="#m2286aaf1b7" y="93.878523"/>
     <use style="fill:#4c4c4c;" x="89.12457" xlink:href="#m2286aaf1b7" y="106.08164"/>
     <use style="fill:#4c4c4c;" x="89.12457" xlink:href="#m2286aaf1b7" y="87.257479"/>
     <use style="fill:#4c4c4c;" x="89.12457" xlink:href="#m2286aaf1b7" y="85.957882"/>
     <use style="fill:#4c4c4c;" x="89.12457" xlink:href="#m2286aaf1b7" y="90.62884"/>
    </g>
   </g>
   <g id="line2d_17">
    <path clip-path="url(#p624ece03b5)" d="M 134.04915 118.98257 
L 134.04915 120.229149 
" style="fill:none;stroke:#4c4c4c;stroke-linecap:round;stroke-width:2;"/>
   </g>
   <g id="line2d_18">
    <path clip-path="url(#p624ece03b5)" d="M 134.04915 118.136566 
L 134.04915 116.869465 
" style="fill:none;stroke:#4c4c4c;stroke-linecap:round;stroke-width:2;"/>
   </g>
   <g id="line2d_19">
    <path clip-path="url(#p624ece03b5)" d="M 125.064234 120.229149 
L 143.034066 120.229149 
" style="fill:none;stroke:#4c4c4c;stroke-linecap:round;stroke-width:2;"/>
   </g>
   <g id="line2d_20">
    <path clip-path="url(#p624ece03b5)" d="M 125.064234 116.869465 
L 143.034066 116.869465 
" style="fill:none;stroke:#4c4c4c;stroke-linecap:round;stroke-width:2;"/>
   </g>
   <g id="line2d_21">
    <g clip-path="url(#p624ece03b5)">
     <use style="fill:#4c4c4c;" x="134.04915" xlink:href="#m2286aaf1b7" y="120.430614"/>
     <use style="fill:#4c4c4c;" x="134.04915" xlink:href="#m2286aaf1b7" y="120.920111"/>
     <use style="fill:#4c4c4c;" x="134.04915" xlink:href="#m2286aaf1b7" y="121.029482"/>
     <use style="fill:#4c4c4c;" x="134.04915" xlink:href="#m2286aaf1b7" y="120.699876"/>
     <use style="fill:#4c4c4c;" x="134.04915" xlink:href="#m2286aaf1b7" y="120.828478"/>
     <use style="fill:#4c4c4c;" x="134.04915" xlink:href="#m2286aaf1b7" y="120.349878"/>
     <use style="fill:#4c4c4c;" x="134.04915" xlink:href="#m2286aaf1b7" y="120.370314"/>
     <use style="fill:#4c4c4c;" x="134.04915" xlink:href="#m2286aaf1b7" y="120.262587"/>
     <use style="fill:#4c4c4c;" x="134.04915" xlink:href="#m2286aaf1b7" y="120.267559"/>
     <use style="fill:#4c4c4c;" x="134.04915" xlink:href="#m2286aaf1b7" y="120.332268"/>
     <use style="fill:#4c4c4c;" x="134.04915" xlink:href="#m2286aaf1b7" y="120.270114"/>
     <use style="fill:#4c4c4c;" x="134.04915" xlink:href="#m2286aaf1b7" y="120.826052"/>
     <use style="fill:#4c4c4c;" x="134.04915" xlink:href="#m2286aaf1b7" y="120.300691"/>
     <use style="fill:#4c4c4c;" x="134.04915" xlink:href="#m2286aaf1b7" y="120.318952"/>
     <use style="fill:#4c4c4c;" x="134.04915" xlink:href="#m2286aaf1b7" y="120.362826"/>
     <use style="fill:#4c4c4c;" x="134.04915" xlink:href="#m2286aaf1b7" y="120.688048"/>
     <use style="fill:#4c4c4c;" x="134.04915" xlink:href="#m2286aaf1b7" y="120.270073"/>
     <use style="fill:#4c4c4c;" x="134.04915" xlink:href="#m2286aaf1b7" y="120.324167"/>
     <use style="fill:#4c4c4c;" x="134.04915" xlink:href="#m2286aaf1b7" y="120.545031"/>
     <use style="fill:#4c4c4c;" x="134.04915" xlink:href="#m2286aaf1b7" y="120.325437"/>
     <use style="fill:#4c4c4c;" x="134.04915" xlink:href="#m2286aaf1b7" y="120.281019"/>
     <use style="fill:#4c4c4c;" x="134.04915" xlink:href="#m2286aaf1b7" y="120.383224"/>
     <use style="fill:#4c4c4c;" x="134.04915" xlink:href="#m2286aaf1b7" y="120.355256"/>
     <use style="fill:#4c4c4c;" x="134.04915" xlink:href="#m2286aaf1b7" y="121.058182"/>
     <use style="fill:#4c4c4c;" x="134.04915" xlink:href="#m2286aaf1b7" y="120.308879"/>
     <use style="fill:#4c4c4c;" x="134.04915" xlink:href="#m2286aaf1b7" y="116.8373"/>
     <use style="fill:#4c4c4c;" x="134.04915" xlink:href="#m2286aaf1b7" y="116.683181"/>
     <use style="fill:#4c4c4c;" x="134.04915" xlink:href="#m2286aaf1b7" y="116.211224"/>
     <use style="fill:#4c4c4c;" x="134.04915" xlink:href="#m2286aaf1b7" y="116.862659"/>
     <use style="fill:#4c4c4c;" x="134.04915" xlink:href="#m2286aaf1b7" y="116.676301"/>
     <use style="fill:#4c4c4c;" x="134.04915" xlink:href="#m2286aaf1b7" y="113.951727"/>
     <use style="fill:#4c4c4c;" x="134.04915" xlink:href="#m2286aaf1b7" y="115.098601"/>
     <use style="fill:#4c4c4c;" x="134.04915" xlink:href="#m2286aaf1b7" y="116.160512"/>
     <use style="fill:#4c4c4c;" x="134.04915" xlink:href="#m2286aaf1b7" y="116.401509"/>
     <use style="fill:#4c4c4c;" x="134.04915" xlink:href="#m2286aaf1b7" y="115.641066"/>
     <use style="fill:#4c4c4c;" x="134.04915" xlink:href="#m2286aaf1b7" y="115.75911"/>
     <use style="fill:#4c4c4c;" x="134.04915" xlink:href="#m2286aaf1b7" y="116.459604"/>
     <use style="fill:#4c4c4c;" x="134.04915" xlink:href="#m2286aaf1b7" y="116.799401"/>
     <use style="fill:#4c4c4c;" x="134.04915" xlink:href="#m2286aaf1b7" y="116.194888"/>
     <use style="fill:#4c4c4c;" x="134.04915" xlink:href="#m2286aaf1b7" y="116.613336"/>
     <use style="fill:#4c4c4c;" x="134.04915" xlink:href="#m2286aaf1b7" y="116.506788"/>
     <use style="fill:#4c4c4c;" x="134.04915" xlink:href="#m2286aaf1b7" y="115.340343"/>
     <use style="fill:#4c4c4c;" x="134.04915" xlink:href="#m2286aaf1b7" y="116.188913"/>
     <use style="fill:#4c4c4c;" x="134.04915" xlink:href="#m2286aaf1b7" y="115.54375"/>
     <use style="fill:#4c4c4c;" x="134.04915" xlink:href="#m2286aaf1b7" y="116.682187"/>
     <use style="fill:#4c4c4c;" x="134.04915" xlink:href="#m2286aaf1b7" y="116.843096"/>
     <use style="fill:#4c4c4c;" x="134.04915" xlink:href="#m2286aaf1b7" y="116.769388"/>
     <use style="fill:#4c4c4c;" x="134.04915" xlink:href="#m2286aaf1b7" y="116.609575"/>
     <use style="fill:#4c4c4c;" x="134.04915" xlink:href="#m2286aaf1b7" y="116.624044"/>
     <use style="fill:#4c4c4c;" x="134.04915" xlink:href="#m2286aaf1b7" y="116.569532"/>
     <use style="fill:#4c4c4c;" x="134.04915" xlink:href="#m2286aaf1b7" y="116.813995"/>
     <use style="fill:#4c4c4c;" x="134.04915" xlink:href="#m2286aaf1b7" y="116.68173"/>
     <use style="fill:#4c4c4c;" x="134.04915" xlink:href="#m2286aaf1b7" y="116.777635"/>
     <use style="fill:#4c4c4c;" x="134.04915" xlink:href="#m2286aaf1b7" y="115.576588"/>
     <use style="fill:#4c4c4c;" x="134.04915" xlink:href="#m2286aaf1b7" y="116.808803"/>
     <use style="fill:#4c4c4c;" x="134.04915" xlink:href="#m2286aaf1b7" y="116.719648"/>
     <use style="fill:#4c4c4c;" x="134.04915" xlink:href="#m2286aaf1b7" y="115.95659"/>
     <use style="fill:#4c4c4c;" x="134.04915" xlink:href="#m2286aaf1b7" y="116.371094"/>
     <use style="fill:#4c4c4c;" x="134.04915" xlink:href="#m2286aaf1b7" y="114.874892"/>
     <use style="fill:#4c4c4c;" x="134.04915" xlink:href="#m2286aaf1b7" y="116.209785"/>
     <use style="fill:#4c4c4c;" x="134.04915" xlink:href="#m2286aaf1b7" y="116.704309"/>
     <use style="fill:#4c4c4c;" x="134.04915" xlink:href="#m2286aaf1b7" y="115.439248"/>
     <use style="fill:#4c4c4c;" x="134.04915" xlink:href="#m2286aaf1b7" y="114.980053"/>
     <use style="fill:#4c4c4c;" x="134.04915" xlink:href="#m2286aaf1b7" y="116.763056"/>
     <use style="fill:#4c4c4c;" x="134.04915" xlink:href="#m2286aaf1b7" y="116.413733"/>
     <use style="fill:#4c4c4c;" x="134.04915" xlink:href="#m2286aaf1b7" y="116.101965"/>
     <use style="fill:#4c4c4c;" x="134.04915" xlink:href="#m2286aaf1b7" y="116.659011"/>
     <use style="fill:#4c4c4c;" x="134.04915" xlink:href="#m2286aaf1b7" y="115.90511"/>
     <use style="fill:#4c4c4c;" x="134.04915" xlink:href="#m2286aaf1b7" y="115.352744"/>
     <use style="fill:#4c4c4c;" x="134.04915" xlink:href="#m2286aaf1b7" y="116.521244"/>
     <use style="fill:#4c4c4c;" x="134.04915" xlink:href="#m2286aaf1b7" y="116.275305"/>
     <use style="fill:#4c4c4c;" x="134.04915" xlink:href="#m2286aaf1b7" y="114.973865"/>
     <use style="fill:#4c4c4c;" x="134.04915" xlink:href="#m2286aaf1b7" y="113.019901"/>
     <use style="fill:#4c4c4c;" x="134.04915" xlink:href="#m2286aaf1b7" y="115.886514"/>
     <use style="fill:#4c4c4c;" x="134.04915" xlink:href="#m2286aaf1b7" y="116.043868"/>
     <use style="fill:#4c4c4c;" x="134.04915" xlink:href="#m2286aaf1b7" y="116.82066"/>
     <use style="fill:#4c4c4c;" x="134.04915" xlink:href="#m2286aaf1b7" y="116.548313"/>
     <use style="fill:#4c4c4c;" x="134.04915" xlink:href="#m2286aaf1b7" y="116.542838"/>
     <use style="fill:#4c4c4c;" x="134.04915" xlink:href="#m2286aaf1b7" y="116.781466"/>
     <use style="fill:#4c4c4c;" x="134.04915" xlink:href="#m2286aaf1b7" y="116.78846"/>
     <use style="fill:#4c4c4c;" x="134.04915" xlink:href="#m2286aaf1b7" y="115.922892"/>
     <use style="fill:#4c4c4c;" x="134.04915" xlink:href="#m2286aaf1b7" y="113.78426"/>
     <use style="fill:#4c4c4c;" x="134.04915" xlink:href="#m2286aaf1b7" y="115.999512"/>
     <use style="fill:#4c4c4c;" x="134.04915" xlink:href="#m2286aaf1b7" y="112.011049"/>
     <use style="fill:#4c4c4c;" x="134.04915" xlink:href="#m2286aaf1b7" y="116.490985"/>
     <use style="fill:#4c4c4c;" x="134.04915" xlink:href="#m2286aaf1b7" y="116.623529"/>
     <use style="fill:#4c4c4c;" x="134.04915" xlink:href="#m2286aaf1b7" y="116.863144"/>
     <use style="fill:#4c4c4c;" x="134.04915" xlink:href="#m2286aaf1b7" y="116.788617"/>
     <use style="fill:#4c4c4c;" x="134.04915" xlink:href="#m2286aaf1b7" y="114.394336"/>
     <use style="fill:#4c4c4c;" x="134.04915" xlink:href="#m2286aaf1b7" y="116.250477"/>
     <use style="fill:#4c4c4c;" x="134.04915" xlink:href="#m2286aaf1b7" y="116.242907"/>
     <use style="fill:#4c4c4c;" x="134.04915" xlink:href="#m2286aaf1b7" y="116.523463"/>
     <use style="fill:#4c4c4c;" x="134.04915" xlink:href="#m2286aaf1b7" y="116.411364"/>
     <use style="fill:#4c4c4c;" x="134.04915" xlink:href="#m2286aaf1b7" y="116.565177"/>
     <use style="fill:#4c4c4c;" x="134.04915" xlink:href="#m2286aaf1b7" y="116.733959"/>
     <use style="fill:#4c4c4c;" x="134.04915" xlink:href="#m2286aaf1b7" y="116.851568"/>
     <use style="fill:#4c4c4c;" x="134.04915" xlink:href="#m2286aaf1b7" y="116.70731"/>
     <use style="fill:#4c4c4c;" x="134.04915" xlink:href="#m2286aaf1b7" y="116.684662"/>
     <use style="fill:#4c4c4c;" x="134.04915" xlink:href="#m2286aaf1b7" y="116.640335"/>
     <use style="fill:#4c4c4c;" x="134.04915" xlink:href="#m2286aaf1b7" y="116.712007"/>
     <use style="fill:#4c4c4c;" x="134.04915" xlink:href="#m2286aaf1b7" y="116.692127"/>
     <use style="fill:#4c4c4c;" x="134.04915" xlink:href="#m2286aaf1b7" y="115.825378"/>
     <use style="fill:#4c4c4c;" x="134.04915" xlink:href="#m2286aaf1b7" y="116.572033"/>
    </g>
   </g>
   <g id="line2d_22">
    <path clip-path="url(#p624ece03b5)" d="M 44.19999 23.183007 
L 44.19999 22.221818 
L 134.04915 22.221818 
L 134.04915 23.183007 
" style="fill:none;stroke:#1a1a1a;stroke-linecap:round;stroke-width:1.5;"/>
   </g>
   <g id="line2d_23">
    <path clip-path="url(#p624ece03b5)" d="M 89.12457 35.720254 
L 89.12457 34.884438 
L 134.04915 34.884438 
L 134.04915 35.720254 
" style="fill:none;stroke:#1a1a1a;stroke-linecap:round;stroke-width:1.5;"/>
   </g>
   <g id="line2d_24">
    <path clip-path="url(#p624ece03b5)" d="M 26.230158 103.778174 
L 62.169822 103.778174 
" style="fill:none;stroke:#4c4c4c;stroke-linecap:round;stroke-width:2;"/>
   </g>
   <g id="line2d_25">
    <path clip-path="url(#p624ece03b5)" d="M 71.154738 59.134173 
L 107.094402 59.134173 
" style="fill:none;stroke:#4c4c4c;stroke-linecap:round;stroke-width:2;"/>
   </g>
   <g id="line2d_26">
    <path clip-path="url(#p624ece03b5)" d="M 116.079318 118.576099 
L 152.018982 118.576099 
" style="fill:none;stroke:#4c4c4c;stroke-linecap:round;stroke-width:2;"/>
   </g>
   <g id="patch_6">
    <path d="M 21.7377 126 
L 21.7377 17.28 
" style="fill:none;stroke:#262626;stroke-linecap:square;stroke-linejoin:miter;stroke-width:1.25;"/>
   </g>
   <g id="patch_7">
    <path d="M 21.7377 126 
L 156.51144 126 
" style="fill:none;stroke:#262626;stroke-linecap:square;stroke-linejoin:miter;stroke-width:1.25;"/>
   </g>
   <g id="text_8">
    <!-- p = 0.00, $\Delta$ = 0.177 -->
    <defs>
     <path d="M 64.296875 31.515625 
C 65.796875 31.515625 67.296875 31.515625 67.296875 33.203125 
C 67.296875 35 65.59375 35 63.90625 35 
L 8 35 
C 6.296875 35 4.59375 35 4.59375 33.203125 
C 4.59375 31.515625 6.09375 31.515625 7.59375 31.515625 
z
M 63.90625 14 
C 65.59375 14 67.296875 14 67.296875 15.796875 
C 67.296875 17.484375 65.796875 17.484375 64.296875 17.484375 
L 7.59375 17.484375 
C 6.09375 17.484375 4.59375 17.484375 4.59375 15.796875 
C 4.59375 14 6.296875 14 8 14 
z
" id="CMR17-61"/>
     <path d="M 16.59375 4.078125 
C 16.59375 6.5625 14.59375 8.15625 12.5 8.15625 
C 10.5 8.15625 8.40625 6.5625 8.40625 4.078125 
C 8.40625 1.59375 10.40625 0 12.5 0 
C 14.5 0 16.59375 1.59375 16.59375 4.078125 
z
" id="CMR17-46"/>
     <path d="M 15.796875 1.59375 
C 16 0.703125 16 0.390625 16 -1.203125 
C 16 -7.234375 14 -12.765625 9.796875 -17.796875 
C 9.296875 -18.28125 9.296875 -18.484375 9.296875 -18.703125 
C 9.296875 -19.09375 9.703125 -19.5 10.09375 -19.5 
C 10.703125 -19.5 17.59375 -12.484375 17.59375 -1.359375 
C 17.59375 1.9375 17.203125 8.15625 12.5 8.15625 
C 10.296875 8.15625 8.40625 6.671875 8.40625 4.078125 
C 8.40625 1.5 10.296875 0 12.5 0 
C 13.703125 0 15 0.5 15.796875 1.59375 
z
" id="CMR17-44"/>
     <path d="M 40.59375 68.796875 
C 39.796875 70.5 39.40625 70.5 38.59375 70.5 
C 37.40625 70.5 37.296875 70.296875 36.59375 68.890625 
L 4.203125 1.703125 
C 4.09375 1.5 3.703125 0.59375 3.703125 0.5 
C 3.703125 0.09375 3.796875 0 5.59375 0 
L 71.5 0 
C 73.296875 0 73.40625 0.09375 73.40625 0.5 
C 73.40625 0.59375 73 1.5 72.90625 1.703125 
z
M 36.09375 63.09375 
L 63.796875 5.59375 
L 8.296875 5.59375 
z
" id="CMR17-1"/>
     <path d="M 45.09375 61.578125 
L 45.09375 63.765625 
L 21.59375 63.765625 
C 9.90625 63.765625 9.703125 65.078125 9.296875 67 
L 7.5 67 
L 4.59375 48.34375 
L 6.40625 48.34375 
C 6.703125 50.234375 7.40625 55.3125 8.59375 57.203125 
C 9.203125 58 16.59375 58 18.296875 58 
L 40.296875 58 
L 29.203125 41.578125 
C 21.796875 30.53125 16.703125 15.609375 16.703125 2.578125 
C 16.703125 1.390625 16.703125 -2 20.296875 -2 
C 23.90625 -2 23.90625 1.390625 23.90625 2.671875 
L 23.90625 7.265625 
C 23.90625 23.5625 26.703125 34.3125 31.296875 41.1875 
z
" id="CMR17-55"/>
    </defs>
    <g style="fill:#1a1a1a;" transform="translate(40.113811 20.090924)scale(0.11 -0.11)">
     <use transform="scale(0.996264)" xlink:href="#CMR17-112"/>
     <use transform="translate(80.971336 0)scale(0.996264)" xlink:href="#CMR17-61"/>
     <use transform="translate(182.762091 0)scale(0.996264)" xlink:href="#CMR17-48"/>
     <use transform="translate(228.452568 0)scale(0.996264)" xlink:href="#CMR17-46"/>
     <use transform="translate(253.323626 0)scale(0.996264)" xlink:href="#CMR17-48"/>
     <use transform="translate(299.014104 0)scale(0.996264)" xlink:href="#CMR17-48"/>
     <use transform="translate(344.704581 0)scale(0.996264)" xlink:href="#CMR17-44"/>
     <use transform="translate(399.651606 0)scale(0.996264)" xlink:href="#CMR17-1"/>
     <use transform="translate(506.647162 0)scale(0.996264)" xlink:href="#CMR17-61"/>
     <use transform="translate(608.437917 0)scale(0.996264)" xlink:href="#CMR17-48"/>
     <use transform="translate(654.128394 0)scale(0.996264)" xlink:href="#CMR17-46"/>
     <use transform="translate(678.999452 0)scale(0.996264)" xlink:href="#CMR17-49"/>
     <use transform="translate(724.689929 0)scale(0.996264)" xlink:href="#CMR17-55"/>
     <use transform="translate(770.380406 0)scale(0.996264)" xlink:href="#CMR17-55"/>
    </g>
   </g>
   <g id="text_9">
    <!-- p = 0.00, $\Delta$ = 0.711 -->
    <g style="fill:#1a1a1a;" transform="translate(62.576101 32.753543)scale(0.11 -0.11)">
     <use transform="scale(0.996264)" xlink:href="#CMR17-112"/>
     <use transform="translate(80.971336 0)scale(0.996264)" xlink:href="#CMR17-61"/>
     <use transform="translate(182.762091 0)scale(0.996264)" xlink:href="#CMR17-48"/>
     <use transform="translate(228.452568 0)scale(0.996264)" xlink:href="#CMR17-46"/>
     <use transform="translate(253.323626 0)scale(0.996264)" xlink:href="#CMR17-48"/>
     <use transform="translate(299.014104 0)scale(0.996264)" xlink:href="#CMR17-48"/>
     <use transform="translate(344.704581 0)scale(0.996264)" xlink:href="#CMR17-44"/>
     <use transform="translate(399.651606 0)scale(0.996264)" xlink:href="#CMR17-1"/>
     <use transform="translate(506.647162 0)scale(0.996264)" xlink:href="#CMR17-61"/>
     <use transform="translate(608.437917 0)scale(0.996264)" xlink:href="#CMR17-48"/>
     <use transform="translate(654.128394 0)scale(0.996264)" xlink:href="#CMR17-46"/>
     <use transform="translate(678.999452 0)scale(0.996264)" xlink:href="#CMR17-55"/>
     <use transform="translate(724.689929 0)scale(0.996264)" xlink:href="#CMR17-49"/>
     <use transform="translate(770.380406 0)scale(0.996264)" xlink:href="#CMR17-49"/>
    </g>
   </g>
   <g id="text_10">
    <!-- 99.4\% -->
    <defs>
     <path d="M 35.203125 29.125 
C 35.203125 7.25 26.09375 0.484375 18.59375 0.484375 
C 16.296875 0.484375 10.703125 0.484375 8.40625 4.59375 
C 11 4.1875 12.90625 5.578125 12.90625 8.09375 
C 12.90625 10.8125 10.703125 11.703125 9.296875 11.703125 
C 8.40625 11.703125 5.703125 11.296875 5.703125 7.90625 
C 5.703125 1.109375 11.59375 -2 18.796875 -2 
C 30.296875 -2 42 10.53125 42 32.390625 
C 42 59.640625 30.796875 65.296875 23.203125 65.296875 
C 13.296875 65.296875 3.796875 56.6875 3.796875 43.40625 
C 3.796875 31.109375 11.90625 22 22.09375 22 
C 30.5 22 34.203125 29.734375 35.203125 33 
z
M 22.296875 23.59375 
C 19.59375 23.59375 15.796875 24.09375 12.703125 30.03125 
C 10.59375 33.890625 10.59375 38.453125 10.59375 43.296875 
C 10.59375 49.15625 10.59375 53.203125 13.40625 57.5625 
C 14.796875 59.640625 17.40625 63 23.203125 63 
C 35 63 35 45.078125 35 41.125 
C 35 34.09375 31.796875 23.59375 22.296875 23.59375 
z
" id="CMR17-57"/>
     <path d="M 33.59375 64.40625 
C 33.59375 66.5 33.5 66.5 31.703125 66.5 
L 2 19.59375 
L 2 17 
L 27.796875 17 
L 27.796875 7.140625 
C 27.796875 3.5 27.59375 2.5 20.59375 2.5 
L 18.703125 2.5 
L 18.703125 0 
C 21.90625 0 27.296875 0 30.703125 0 
C 34.09375 0 39.5 0 42.703125 0 
L 42.703125 2.5 
L 40.796875 2.5 
C 33.796875 2.5 33.59375 3.5 33.59375 7.140625 
L 33.59375 17 
L 43.796875 17 
L 43.796875 19.59375 
L 33.59375 19.59375 
z
M 28.09375 57.859375 
L 28.09375 19.59375 
L 4 19.59375 
z
" id="CMR17-52"/>
     <path d="M 72.5 14.984375 
C 72.5 26.53125 66.796875 35 60.09375 35 
C 53.296875 35 46.40625 27.125 46.40625 14.984375 
C 46.40625 2.859375 53.203125 -5 60.09375 -5 
C 66.796875 -5 72.5 3.359375 72.5 14.984375 
z
M 60.203125 -3.40625 
C 57.59375 -3.40625 51.09375 -1.03125 51.09375 14.984375 
C 51.09375 31.109375 57.59375 33.40625 60.203125 33.40625 
C 65.703125 33.40625 70.703125 25.53125 70.703125 14.984375 
C 70.703125 4.453125 65.703125 -3.40625 60.203125 -3.40625 
z
M 63.796875 71.515625 
C 64.5 72.609375 64.59375 72.703125 64.59375 73.203125 
C 64.59375 74.390625 63.703125 75 62.90625 75 
C 61.90625 75 61.5 74.3125 60.796875 73.53125 
C 55 65.46875 47 64.59375 42.90625 64.59375 
C 32.90625 64.59375 26.796875 70.21875 24.90625 71.984375 
C 23.59375 73.15625 21.703125 75 18.296875 75 
C 11.5 75 4.59375 67.125 4.59375 54.984375 
C 4.59375 42.859375 11.40625 35 18.296875 35 
C 25 35 30.703125 43.40625 30.703125 55.109375 
C 30.703125 62.015625 28.59375 66.71875 28.296875 67.3125 
C 34.40625 63.5 40.40625 63 43 63 
C 49.40625 63 54 65.359375 56.5 67.015625 
L 56.59375 66.921875 
L 13.40625 -1.3125 
C 12.5 -2.71875 12.5 -2.921875 12.5 -3.21875 
C 12.5 -4.3125 13.40625 -5 14.296875 -5 
C 15.203125 -5 15.5 -4.515625 16.203125 -3.40625 
z
M 18.40625 36.59375 
C 15.796875 36.59375 9.296875 38.96875 9.296875 54.984375 
C 9.296875 71.109375 15.796875 73.40625 18.40625 73.40625 
C 23.90625 73.40625 28.90625 65.53125 28.90625 54.984375 
C 28.90625 44.453125 23.90625 36.59375 18.40625 36.59375 
z
" id="CMR17-37"/>
    </defs>
    <g style="fill:#1a1a1a;" transform="translate(29.892498 8.514865)scale(0.11 -0.11)">
     <use transform="scale(0.996264)" xlink:href="#CMR17-57"/>
     <use transform="translate(45.690477 0)scale(0.996264)" xlink:href="#CMR17-57"/>
     <use transform="translate(91.380954 0)scale(0.996264)" xlink:href="#CMR17-46"/>
     <use transform="translate(116.252013 0)scale(0.996264)" xlink:href="#CMR17-52"/>
     <use transform="translate(161.94249 0)scale(0.996264)" xlink:href="#CMR17-37"/>
    </g>
   </g>
   <g id="text_11">
    <!-- 100.0\% -->
    <g style="fill:#1a1a1a;" transform="translate(72.077344 8.514865)scale(0.11 -0.11)">
     <use transform="scale(0.996264)" xlink:href="#CMR17-49"/>
     <use transform="translate(45.690477 0)scale(0.996264)" xlink:href="#CMR17-48"/>
     <use transform="translate(91.380954 0)scale(0.996264)" xlink:href="#CMR17-48"/>
     <use transform="translate(137.071431 0)scale(0.996264)" xlink:href="#CMR17-46"/>
     <use transform="translate(161.94249 0)scale(0.996264)" xlink:href="#CMR17-48"/>
     <use transform="translate(207.632967 0)scale(0.996264)" xlink:href="#CMR17-37"/>
    </g>
   </g>
   <g id="text_12">
    <!-- 0.2\% -->
    <defs>
     <path d="M 41.703125 15.453125 
L 39.90625 15.453125 
C 38.90625 8.375 38.09375 7.171875 37.703125 6.5625 
C 37.203125 5.765625 30 5.765625 28.59375 5.765625 
L 9.40625 5.765625 
C 13 9.671875 20 16.75 28.5 24.953125 
C 34.59375 30.734375 41.703125 37.53125 41.703125 47.421875 
C 41.703125 59.21875 32.296875 66 21.796875 66 
C 10.796875 66 4.09375 56.3125 4.09375 47.34375 
C 4.09375 43.4375 7 42.9375 8.203125 42.9375 
C 9.203125 42.9375 12.203125 43.546875 12.203125 47.03125 
C 12.203125 50.109375 9.59375 51 8.203125 51 
C 7.59375 51 7 50.90625 6.59375 50.703125 
C 8.5 59.21875 14.296875 63.40625 20.40625 63.40625 
C 29.09375 63.40625 34.796875 56.515625 34.796875 47.421875 
C 34.796875 38.734375 29.703125 31.25 24 24.75 
L 4.09375 2.28125 
L 4.09375 0 
L 39.296875 0 
z
" id="CMR17-50"/>
    </defs>
    <g style="fill:#1a1a1a;" transform="translate(122.481392 8.514865)scale(0.11 -0.11)">
     <use transform="scale(0.996264)" xlink:href="#CMR17-48"/>
     <use transform="translate(45.690477 0)scale(0.996264)" xlink:href="#CMR17-46"/>
     <use transform="translate(70.561536 0)scale(0.996264)" xlink:href="#CMR17-50"/>
     <use transform="translate(116.252013 0)scale(0.996264)" xlink:href="#CMR17-37"/>
    </g>
   </g>
  </g>
 </g>
 <defs>
  <clipPath id="p624ece03b5">
   <rect height="108.72" width="134.77374" x="21.7377" y="17.28"/>
  </clipPath>
 </defs>
</svg>
