<?xml version="1.0" encoding="utf-8" standalone="no"?>
<!DOCTYPE svg PUBLIC "-//W3C//DTD SVG 1.1//EN"
  "http://www.w3.org/Graphics/SVG/1.1/DTD/svg11.dtd">
<!-- Created with matplotlib (http://matplotlib.org/) -->
<svg height="144pt" version="1.1" viewBox="0 0 173 144" width="173pt" xmlns="http://www.w3.org/2000/svg" xmlns:xlink="http://www.w3.org/1999/xlink">
 <defs>
  <style type="text/css">
*{stroke-linecap:butt;stroke-linejoin:round;}
  </style>
 </defs>
 <g id="figure_1">
  <g id="patch_1">
   <path d="M 0 144 
L 173.9016 144 
L 173.9016 0 
L 0 0 
z
" style="fill:#ffffff;"/>
  </g>
  <g id="axes_1">
   <g id="patch_2">
    <path d="M 21.7377 126 
L 156.51144 126 
L 156.51144 17.28 
L 21.7377 17.28 
z
" style="fill:#ffffff;"/>
   </g>
   <g id="matplotlib.axis_1">
    <g id="xtick_1">
     <g id="line2d_1"/>
     <g id="text_1">
      <!-- cch -->
      <defs>
       <path d="M 34.90625 35 
C 33 35 30.203125 35 30.203125 31.515625 
C 30.203125 28.71875 32.5 27.921875 33.796875 27.921875 
C 34.5 27.921875 37.40625 28.234375 37.40625 31.625 
C 37.40625 38.546875 30.59375 43.796875 22.90625 43.796875 
C 12.296875 43.796875 3.296875 34.03125 3.296875 21.296875 
C 3.296875 8.0625 12.703125 -1 22.90625 -1 
C 35.296875 -1 38.40625 10.578125 38.40625 11.6875 
C 38.40625 12.09375 38.296875 12.390625 37.59375 12.390625 
C 36.90625 12.390625 36.796875 12.296875 36.40625 10.984375 
C 33.796875 2.8125 28.09375 0.796875 23.796875 0.796875 
C 17.40625 0.796875 9.703125 6.671875 9.703125 21.390625 
C 9.703125 36.53125 17.09375 42 23 42 
C 26.90625 42 32.703125 40.203125 34.90625 35 
z
" id="CMR17-99"/>
       <path d="M 41.5 30.203125 
C 41.5 35.296875 40.5 43.59375 28.703125 43.59375 
C 20.5 43.59375 16.5 37 15.296875 33.703125 
L 15.203125 33.703125 
L 15.203125 68.6875 
L 3.296875 67.59375 
L 3.296875 65 
C 9.203125 65 10.09375 64.40625 10.09375 59.640625 
L 10.09375 6.65625 
C 10.09375 2.875 9.703125 2.390625 3.296875 2.390625 
L 3.296875 -0.203125 
C 5.703125 0 10.09375 0 12.703125 0 
C 15.296875 0 19.796875 0 22.203125 -0.203125 
L 22.203125 2.390625 
C 15.796875 2.390625 15.40625 2.78125 15.40625 6.6875 
L 15.40625 25.90625 
C 15.40625 35.109375 21 42 28 42 
C 35.40625 42 36.203125 35.40625 36.203125 30.59375 
L 36.203125 6.6875 
C 36.203125 2.875 35.796875 2.390625 29.40625 2.390625 
L 29.40625 -0.203125 
C 31.796875 0 36.203125 0 38.796875 0 
C 41.40625 0 45.90625 0 48.296875 -0.203125 
L 48.296875 2.390625 
C 41.90625 2.390625 41.5 2.78125 41.5 6.6875 
z
" id="CMR17-104"/>
      </defs>
      <g style="fill:#262626;" transform="translate(37.143117 139.918498)scale(0.1 -0.1)">
       <use transform="scale(0.996264)" xlink:href="#CMR17-99"/>
       <use transform="translate(40.48566 0)scale(0.996264)" xlink:href="#CMR17-99"/>
       <use transform="translate(78.368867 0)scale(0.996264)" xlink:href="#CMR17-104"/>
      </g>
     </g>
    </g>
    <g id="xtick_2">
     <g id="line2d_2"/>
     <g id="text_2">
      <!-- logit -->
      <defs>
       <path d="M 15.296875 68.6875 
L 3.40625 67.59375 
L 3.40625 65 
C 9.296875 65 10.203125 64.40625 10.203125 59.640625 
L 10.203125 6.65625 
C 10.203125 2.875 9.796875 2.390625 3.40625 2.390625 
L 3.40625 -0.203125 
C 5.796875 0 10.203125 0 12.703125 0 
C 15.296875 0 19.703125 0 22.09375 -0.203125 
L 22.09375 2.390625 
C 15.703125 2.390625 15.296875 2.78125 15.296875 6.65625 
z
" id="CMR17-108"/>
       <path d="M 43.09375 21.1875 
C 43.09375 34 33.796875 44 22.90625 44 
C 12 44 2.703125 34 2.703125 21.1875 
C 2.703125 8.609375 12 -1 22.90625 -1 
C 33.796875 -1 43.09375 8.609375 43.09375 21.1875 
z
M 22.90625 0.796875 
C 18.203125 0.796875 14.203125 3.59375 11.90625 7.5 
C 9.40625 11.984375 9.09375 17.59375 9.09375 22 
C 9.09375 26.203125 9.296875 31.40625 11.90625 35.90625 
C 13.90625 39.203125 17.796875 42.40625 22.90625 42.40625 
C 27.40625 42.40625 31.203125 39.90625 33.59375 36.40625 
C 36.703125 31.703125 36.703125 25.109375 36.703125 22 
C 36.703125 18.09375 36.5 12.109375 33.796875 7.296875 
C 31 2.703125 26.703125 0.796875 22.90625 0.796875 
z
" id="CMR17-111"/>
       <path d="M 11.09375 18.1875 
C 13 16.6875 16.296875 15 20.296875 15 
C 28.203125 15 35 21.203125 35 29.5 
C 35 32.09375 34.203125 36.09375 31.203125 39.203125 
C 34 42.0625 38.09375 43 40.40625 43 
C 40.796875 43 41.40625 43 41.90625 42.71875 
C 41.5 42.625 40.59375 42.234375 40.59375 40.703125 
C 40.59375 39.484375 41.5 38.609375 42.796875 38.609375 
C 44.296875 38.609375 45.09375 39.578125 45.09375 40.84375 
C 45.09375 42.671875 43.59375 44.59375 40.40625 44.59375 
C 36.40625 44.59375 32.90625 42.78125 30.09375 40.3125 
C 27.09375 43.015625 23.5 44 20.296875 44 
C 12.40625 44 5.59375 37.796875 5.59375 29.5 
C 5.59375 23.78125 8.90625 20.1875 9.90625 19.1875 
C 6.90625 15.6875 6.90625 11.609375 6.90625 11.109375 
C 6.90625 8.515625 7.90625 4.71875 11.296875 2.625 
C 6.09375 1.328125 2 -2.640625 2 -7.59375 
C 2 -14.734375 11.5 -20 22.90625 -20 
C 33.90625 -20 43.796875 -14.9375 43.796875 -7.484375 
C 43.796875 6 29 6 21.296875 6 
C 19 6 14.90625 6 14.40625 6.109375 
C 11.296875 6.609375 9.203125 9.40625 9.203125 12.90625 
C 9.203125 13.796875 9.203125 16 11.09375 18.1875 
z
M 20.296875 16.6875 
C 11.5 16.6875 11.5 27.5 11.5 29.515625 
C 11.5 31.5 11.5 42.3125 20.296875 42.3125 
C 29.09375 42.3125 29.09375 31.5 29.09375 29.515625 
C 29.09375 27.5 29.09375 16.6875 20.296875 16.6875 
z
M 22.90625 -18.296875 
C 12.90625 -18.296875 6 -13.046875 6 -7.59375 
C 6 -4.515625 7.703125 -1.640625 9.90625 -0.0625 
C 12.40625 1.625 13.40625 1.625 20.203125 1.625 
C 28.40625 1.625 39.796875 1.625 39.796875 -7.59375 
C 39.796875 -13.046875 32.90625 -18.296875 22.90625 -18.296875 
z
" id="CMR17-103"/>
       <path d="M 15.5 61.078125 
C 15.5 63.265625 13.703125 65.15625 11.40625 65.15625 
C 9.203125 65.15625 7.296875 63.375 7.296875 61.078125 
C 7.296875 58.890625 9.09375 57 11.40625 57 
C 13.59375 57 15.5 58.796875 15.5 61.078125 
z
M 3.796875 42.28125 
L 3.796875 39.703125 
C 9.40625 39.703125 10.203125 39.09375 10.203125 34.328125 
L 10.203125 6.671875 
C 10.203125 2.875 9.796875 2.390625 3.40625 2.390625 
L 3.40625 -0.203125 
C 5.796875 0 10.09375 0 12.59375 0 
C 15 0 19.09375 0 21.40625 -0.203125 
L 21.40625 2.390625 
C 15.5 2.390625 15.296875 2.984375 15.296875 6.5625 
L 15.296875 43.375 
z
" id="CMR17-105"/>
       <path d="M 15.09375 40 
L 29.09375 40 
L 29.09375 42.578125 
L 15.09375 42.578125 
L 15.09375 61 
L 13.296875 61 
C 13.09375 50.703125 9.59375 41.6875 1.09375 41.6875 
L 1.09375 40 
L 9.796875 40 
L 9.796875 12.046875 
C 9.796875 10.15625 9.796875 -1 21.40625 -1 
C 27.296875 -1 30.703125 4.78125 30.703125 12.140625 
L 30.703125 17.8125 
L 28.90625 17.8125 
L 28.90625 12.234375 
C 28.90625 5.375 26.203125 0.796875 22 0.796875 
C 19.09375 0.796875 15.09375 2.78125 15.09375 11.84375 
z
" id="CMR17-116"/>
      </defs>
      <g style="fill:#262626;" transform="translate(79.43864 139.918498)scale(0.1 -0.1)">
       <use transform="scale(0.996264)" xlink:href="#CMR17-108"/>
       <use transform="translate(24.871058 0)scale(0.996264)" xlink:href="#CMR17-111"/>
       <use transform="translate(70.561536 0)scale(0.996264)" xlink:href="#CMR17-103"/>
       <use transform="translate(116.252013 0)scale(0.996264)" xlink:href="#CMR17-105"/>
       <use transform="translate(141.123071 0)scale(0.996264)" xlink:href="#CMR17-116"/>
      </g>
     </g>
    </g>
    <g id="xtick_3">
     <g id="line2d_3"/>
     <g id="text_3">
      <!-- wald -->
      <defs>
       <path d="M 58.203125 34.109375 
C 60.203125 40 64.203125 40 65.703125 40 
L 65.703125 42.6875 
C 63.703125 42.6875 61.703125 42.6875 59.703125 42.6875 
C 57.796875 42.6875 53.5 42.6875 51.796875 42.78125 
L 51.796875 40 
C 54.90625 40 56.59375 38.203125 56.59375 35.71875 
C 56.59375 35.015625 56.40625 34.125 56.203125 33.4375 
L 46.796875 6.359375 
L 36.59375 35.546875 
C 36.40625 36.234375 36.09375 37.03125 36.09375 37.421875 
C 36.09375 40 39.5 40 41.09375 40 
L 41.09375 42.78125 
C 38.796875 42.6875 34.59375 42.6875 32.203125 42.6875 
C 29.703125 42.6875 27.09375 42.6875 24.796875 42.78125 
L 24.796875 40 
C 30.296875 40 30.296875 39.796875 32.40625 33.578125 
L 23.203125 7.046875 
L 13.296875 35.640625 
C 12.796875 36.921875 12.796875 37.125 12.796875 37.421875 
C 12.796875 40 16.203125 40 17.796875 40 
L 17.796875 42.78125 
C 15.40625 42.6875 11.203125 42.6875 8.703125 42.6875 
C 6.5 42.6875 3.09375 42.6875 1 42.78125 
L 1 40 
C 5.40625 40 6.5 39.703125 7.59375 36.421875 
L 19.90625 0.765625 
C 20.296875 -0.515625 20.59375 -0.8125 21.40625 -0.8125 
C 22.09375 -0.8125 22.5 -0.609375 23 0.875 
L 33.296875 30.9375 
L 43.703125 0.875 
C 44.203125 -0.609375 44.59375 -0.8125 45.296875 -0.8125 
C 46.09375 -0.8125 46.40625 -0.515625 46.796875 0.78125 
z
" id="CMR17-119"/>
       <path d="M 36 25.828125 
C 36 32.375 36 35.84375 31.796875 39.734375 
C 28.09375 43 23.796875 44 20.40625 44 
C 12.5 44 6.796875 37.609375 6.796875 30.796875 
C 6.796875 27 9.796875 27 10.40625 27 
C 11.703125 27 14 27.78125 14 30.53125 
C 14 33 12.09375 34.078125 10.40625 34.078125 
C 10 34.078125 9.5 33.96875 9.203125 33.875 
C 11.296875 40.5 16.703125 42.40625 20.203125 42.40625 
C 25.203125 42.40625 30.703125 37.953125 30.703125 29.453125 
L 30.703125 25 
C 24.796875 25 17.703125 24.203125 12.09375 21.203125 
C 5.796875 17.703125 4 12.703125 4 8.90625 
C 4 1.203125 13 -1 18.296875 -1 
C 23.796875 -1 28.90625 2.171875 31.09375 7.984375 
C 31.296875 3.640625 34.09375 -0.28125 38.5 -0.28125 
C 40.59375 -0.28125 45.90625 1.09375 45.90625 8.859375 
L 45.90625 14.375 
L 44.09375 14.375 
L 44.09375 8.78125 
C 44.09375 2.78125 41.40625 2 40.09375 2 
C 36 2 36 7.15625 36 11.53125 
z
M 30.703125 13.59375 
C 30.703125 4.953125 24.5 0.59375 19 0.59375 
C 14 0.59375 10.09375 4.296875 10.09375 8.90625 
C 10.09375 11.890625 11.40625 17.1875 17.203125 20.390625 
C 22 23.09375 27.5 23.5 30.703125 23.5 
z
" id="CMR17-97"/>
       <path d="M 29.203125 67.59375 
L 29.203125 65 
C 35.09375 65 36 64.40625 36 59.6875 
L 36 36.640625 
C 35.59375 37.140625 31.5 43.59375 23.40625 43.59375 
C 13.203125 43.59375 3.296875 34.5 3.296875 21.3125 
C 3.296875 8.203125 12.59375 -1 22.40625 -1 
C 30.90625 -1 35.296875 5.265625 35.796875 5.9375 
L 35.796875 -0.984375 
L 47.90625 -0.984375 
L 47.90625 2 
C 42 2 41.09375 2.59375 41.09375 7.390625 
L 41.09375 68.6875 
z
M 35.796875 11.796875 
C 35.796875 8.796875 34 6.09375 31.703125 4.09375 
C 28.296875 1.09375 24.90625 0.59375 23 0.59375 
C 20.09375 0.59375 9.703125 2.09375 9.703125 21.1875 
C 9.703125 40.8125 21.296875 42 23.90625 42 
C 28.5 42 32.203125 39.40625 34.5 35.796875 
C 35.796875 33.703125 35.796875 33.40625 35.796875 31.609375 
z
" id="CMR17-100"/>
      </defs>
      <g style="fill:#262626;" transform="translate(123.94812 139.918498)scale(0.1 -0.1)">
       <use transform="scale(0.996264)" xlink:href="#CMR17-119"/>
       <use transform="translate(63.907427 0)scale(0.996264)" xlink:href="#CMR17-97"/>
       <use transform="translate(109.597904 0)scale(0.996264)" xlink:href="#CMR17-108"/>
       <use transform="translate(134.468962 0)scale(0.996264)" xlink:href="#CMR17-100"/>
      </g>
     </g>
    </g>
   </g>
   <g id="matplotlib.axis_2">
    <g id="ytick_1">
     <g id="line2d_4"/>
     <g id="text_4">
      <!-- $0.00$ -->
      <defs>
       <path d="M 42 31.640625 
C 42 37.75 41.90625 48.125 37.703125 56.109375 
C 34 63.109375 28.09375 65.59375 22.90625 65.59375 
C 18.09375 65.59375 12 63.40625 8.203125 56.203125 
C 4.203125 48.71875 3.796875 39.4375 3.796875 31.640625 
C 3.796875 25.953125 3.90625 17.28125 7 9.671875 
C 11.296875 -0.609375 19 -2 22.90625 -2 
C 27.5 -2 34.5 -0.109375 38.59375 9.375 
C 41.59375 16.28125 42 24.359375 42 31.640625 
z
M 22.90625 -0.40625 
C 16.5 -0.40625 12.703125 5.078125 11.296875 12.6875 
C 10.203125 18.5625 10.203125 27.15625 10.203125 32.75 
C 10.203125 40.4375 10.203125 46.828125 11.5 52.921875 
C 13.40625 61.390625 19 64 22.90625 64 
C 27 64 32.296875 61.296875 34.203125 53.125 
C 35.5 47.4375 35.59375 40.734375 35.59375 32.75 
C 35.59375 26.25 35.59375 18.265625 34.40625 12.375 
C 32.296875 1.484375 26.40625 -0.40625 22.90625 -0.40625 
z
" id="CMR17-48"/>
       <path d="M 18.40625 4.796875 
C 18.40625 7.6875 16 9.671875 13.59375 9.671875 
C 10.703125 9.671875 8.703125 7.28125 8.703125 4.890625 
C 8.703125 2 11.09375 0 13.5 0 
C 16.40625 0 18.40625 2.390625 18.40625 4.796875 
z
" id="CMMI12-58"/>
      </defs>
      <g style="fill:#262626;" transform="translate(-2.973714 129.010204)scale(0.1 -0.1)">
       <use transform="scale(0.996264)" xlink:href="#CMR17-48"/>
       <use transform="translate(45.690477 0)scale(0.996264)" xlink:href="#CMMI12-58"/>
       <use transform="translate(72.787654 0)scale(0.996264)" xlink:href="#CMR17-48"/>
       <use transform="translate(118.478131 0)scale(0.996264)" xlink:href="#CMR17-48"/>
      </g>
     </g>
    </g>
    <g id="ytick_2">
     <g id="line2d_5"/>
     <g id="text_5">
      <!-- $0.25$ -->
      <defs>
       <path d="M 41.703125 15.453125 
L 39.90625 15.453125 
C 38.90625 8.375 38.09375 7.171875 37.703125 6.5625 
C 37.203125 5.765625 30 5.765625 28.59375 5.765625 
L 9.40625 5.765625 
C 13 9.671875 20 16.75 28.5 24.953125 
C 34.59375 30.734375 41.703125 37.53125 41.703125 47.421875 
C 41.703125 59.21875 32.296875 66 21.796875 66 
C 10.796875 66 4.09375 56.3125 4.09375 47.34375 
C 4.09375 43.4375 7 42.9375 8.203125 42.9375 
C 9.203125 42.9375 12.203125 43.546875 12.203125 47.03125 
C 12.203125 50.109375 9.59375 51 8.203125 51 
C 7.59375 51 7 50.90625 6.59375 50.703125 
C 8.5 59.21875 14.296875 63.40625 20.40625 63.40625 
C 29.09375 63.40625 34.796875 56.515625 34.796875 47.421875 
C 34.796875 38.734375 29.703125 31.25 24 24.75 
L 4.09375 2.28125 
L 4.09375 0 
L 39.296875 0 
z
" id="CMR17-50"/>
       <path d="M 11.40625 57.6875 
C 12.40625 57.28125 16.5 56 20.703125 56 
C 30 56 35.09375 61.109375 38 64.0625 
C 38 64.953125 38 65.5 37.40625 65.5 
C 37.296875 65.5 37.09375 65.5 36.296875 65.046875 
C 32.796875 63.40625 28.703125 62.078125 23.703125 62.078125 
C 20.703125 62.078125 16.203125 62.484375 11.296875 64.671875 
C 10.203125 65.171875 10 65.171875 9.90625 65.171875 
C 9.40625 65.171875 9.296875 65.0625 9.296875 63.078125 
L 9.296875 34.421875 
C 9.296875 32.640625 9.296875 32.140625 10.296875 32.140625 
C 10.796875 32.140625 11 32.34375 11.5 33.03125 
C 14.703125 37.515625 19.09375 39.40625 24.09375 39.40625 
C 27.59375 39.40625 35.09375 37.21875 35.09375 20.140625 
C 35.09375 16.953125 35.09375 11.171875 32.09375 6.578125 
C 29.59375 2.484375 25.703125 0.390625 21.40625 0.390625 
C 14.796875 0.390625 8.09375 5 6.296875 12.71875 
C 6.703125 12.609375 7.5 12.421875 7.90625 12.421875 
C 9.203125 12.421875 11.703125 13.125 11.703125 16.21875 
C 11.703125 18.90625 9.796875 20 7.90625 20 
C 5.59375 20 4.09375 18.59375 4.09375 15.796875 
C 4.09375 7.09375 11 -2 21.59375 -2 
C 31.90625 -2 41.703125 6.875 41.703125 19.75 
C 41.703125 31.71875 33.90625 41 24.203125 41 
C 19.09375 41 14.796875 39.109375 11.40625 35.53125 
z
" id="CMR17-53"/>
      </defs>
      <g style="fill:#262626;" transform="translate(-2.973714 106.769753)scale(0.1 -0.1)">
       <use transform="scale(0.996264)" xlink:href="#CMR17-48"/>
       <use transform="translate(45.690477 0)scale(0.996264)" xlink:href="#CMMI12-58"/>
       <use transform="translate(72.787654 0)scale(0.996264)" xlink:href="#CMR17-50"/>
       <use transform="translate(118.478131 0)scale(0.996264)" xlink:href="#CMR17-53"/>
      </g>
     </g>
    </g>
    <g id="ytick_3">
     <g id="line2d_6"/>
     <g id="text_6">
      <!-- $0.50$ -->
      <g style="fill:#262626;" transform="translate(-2.973714 84.529302)scale(0.1 -0.1)">
       <use transform="scale(0.996264)" xlink:href="#CMR17-48"/>
       <use transform="translate(45.690477 0)scale(0.996264)" xlink:href="#CMMI12-58"/>
       <use transform="translate(72.787654 0)scale(0.996264)" xlink:href="#CMR17-53"/>
       <use transform="translate(118.478131 0)scale(0.996264)" xlink:href="#CMR17-48"/>
      </g>
     </g>
    </g>
    <g id="ytick_4">
     <g id="line2d_7"/>
     <g id="text_7">
      <!-- $0.75$ -->
      <defs>
       <path d="M 45.09375 61.578125 
L 45.09375 63.765625 
L 21.59375 63.765625 
C 9.90625 63.765625 9.703125 65.078125 9.296875 67 
L 7.5 67 
L 4.59375 48.34375 
L 6.40625 48.34375 
C 6.703125 50.234375 7.40625 55.3125 8.59375 57.203125 
C 9.203125 58 16.59375 58 18.296875 58 
L 40.296875 58 
L 29.203125 41.578125 
C 21.796875 30.53125 16.703125 15.609375 16.703125 2.578125 
C 16.703125 1.390625 16.703125 -2 20.296875 -2 
C 23.90625 -2 23.90625 1.390625 23.90625 2.671875 
L 23.90625 7.265625 
C 23.90625 23.5625 26.703125 34.3125 31.296875 41.1875 
z
" id="CMR17-55"/>
      </defs>
      <g style="fill:#262626;" transform="translate(-2.973714 62.28885)scale(0.1 -0.1)">
       <use transform="scale(0.996264)" xlink:href="#CMR17-48"/>
       <use transform="translate(45.690477 0)scale(0.996264)" xlink:href="#CMMI12-58"/>
       <use transform="translate(72.787654 0)scale(0.996264)" xlink:href="#CMR17-55"/>
       <use transform="translate(118.478131 0)scale(0.996264)" xlink:href="#CMR17-53"/>
      </g>
     </g>
    </g>
    <g id="ytick_5">
     <g id="line2d_8"/>
     <g id="text_8">
      <!-- $1.00$ -->
      <defs>
       <path d="M 26.59375 63.40625 
C 26.59375 65.5 26.5 65.5 25.09375 65.5 
C 21.203125 61.1875 15.296875 59.796875 9.703125 59.796875 
C 9.40625 59.796875 8.90625 59.796875 8.796875 59.5 
C 8.703125 59.296875 8.703125 59.09375 8.703125 57 
C 11.796875 57 17 57.59375 21 59.984375 
L 21 7.203125 
C 21 3.6875 20.796875 2.5 12.203125 2.5 
L 9.203125 2.5 
L 9.203125 0 
C 14 0 19 0 23.796875 0 
C 28.59375 0 33.59375 0 38.40625 0 
L 38.40625 2.5 
L 35.40625 2.5 
C 26.796875 2.5 26.59375 3.59375 26.59375 7.15625 
z
" id="CMR17-49"/>
      </defs>
      <g style="fill:#262626;" transform="translate(-2.973714 40.048399)scale(0.1 -0.1)">
       <use transform="scale(0.996264)" xlink:href="#CMR17-49"/>
       <use transform="translate(45.690477 0)scale(0.996264)" xlink:href="#CMMI12-58"/>
       <use transform="translate(72.787654 0)scale(0.996264)" xlink:href="#CMR17-48"/>
       <use transform="translate(118.478131 0)scale(0.996264)" xlink:href="#CMR17-48"/>
      </g>
     </g>
    </g>
   </g>
   <g id="patch_3">
    <path clip-path="url(#p7e4f14cc55)" d="M 26.230158 118.801234 
L 62.169822 118.801234 
L 62.169822 112.440849 
L 26.230158 112.440849 
L 26.230158 118.801234 
z
" style="fill:#5875a4;stroke:#4c4c4c;stroke-linejoin:miter;stroke-width:2;"/>
   </g>
   <g id="patch_4">
    <path clip-path="url(#p7e4f14cc55)" d="M 71.154738 110.728684 
L 107.094402 110.728684 
L 107.094402 72.764318 
L 71.154738 72.764318 
L 71.154738 110.728684 
z
" style="fill:#5f9e6e;stroke:#4c4c4c;stroke-linejoin:miter;stroke-width:2;"/>
   </g>
   <g id="patch_5">
    <path clip-path="url(#p7e4f14cc55)" d="M 116.079318 120.630035 
L 152.018982 120.630035 
L 152.018982 119.925289 
L 116.079318 119.925289 
L 116.079318 120.630035 
z
" style="fill:#b55d60;stroke:#4c4c4c;stroke-linejoin:miter;stroke-width:2;"/>
   </g>
   <g id="line2d_9">
    <path clip-path="url(#p7e4f14cc55)" d="M 44.19999 118.801234 
L 44.19999 121.058182 
" style="fill:none;stroke:#4c4c4c;stroke-linecap:round;stroke-width:2;"/>
   </g>
   <g id="line2d_10">
    <path clip-path="url(#p7e4f14cc55)" d="M 44.19999 112.440849 
L 44.19999 103.110092 
" style="fill:none;stroke:#4c4c4c;stroke-linecap:round;stroke-width:2;"/>
   </g>
   <g id="line2d_11">
    <path clip-path="url(#p7e4f14cc55)" d="M 35.215074 121.058182 
L 53.184906 121.058182 
" style="fill:none;stroke:#4c4c4c;stroke-linecap:round;stroke-width:2;"/>
   </g>
   <g id="line2d_12">
    <path clip-path="url(#p7e4f14cc55)" d="M 35.215074 103.110092 
L 53.184906 103.110092 
" style="fill:none;stroke:#4c4c4c;stroke-linecap:round;stroke-width:2;"/>
   </g>
   <g id="line2d_13">
    <defs>
     <path d="M -0 3.535534 
L 2.12132 0 
L -0 -3.535534 
L -2.12132 -0 
z
" id="m0679f454cd"/>
    </defs>
    <g clip-path="url(#p7e4f14cc55)">
     <use style="fill:#4c4c4c;" x="44.19999" xlink:href="#m0679f454cd" y="102.614909"/>
     <use style="fill:#4c4c4c;" x="44.19999" xlink:href="#m0679f454cd" y="102.560601"/>
     <use style="fill:#4c4c4c;" x="44.19999" xlink:href="#m0679f454cd" y="101.53246"/>
    </g>
   </g>
   <g id="line2d_14">
    <path clip-path="url(#p7e4f14cc55)" d="M 89.12457 110.728684 
L 89.12457 120.908678 
" style="fill:none;stroke:#4c4c4c;stroke-linecap:round;stroke-width:2;"/>
   </g>
   <g id="line2d_15">
    <path clip-path="url(#p7e4f14cc55)" d="M 89.12457 72.764318 
L 89.12457 60.850625 
" style="fill:none;stroke:#4c4c4c;stroke-linecap:round;stroke-width:2;"/>
   </g>
   <g id="line2d_16">
    <path clip-path="url(#p7e4f14cc55)" d="M 80.139654 120.908678 
L 98.109486 120.908678 
" style="fill:none;stroke:#4c4c4c;stroke-linecap:round;stroke-width:2;"/>
   </g>
   <g id="line2d_17">
    <path clip-path="url(#p7e4f14cc55)" d="M 80.139654 60.850625 
L 98.109486 60.850625 
" style="fill:none;stroke:#4c4c4c;stroke-linecap:round;stroke-width:2;"/>
   </g>
   <g id="line2d_18"/>
   <g id="line2d_19">
    <path clip-path="url(#p7e4f14cc55)" d="M 134.04915 120.630035 
L 134.04915 120.975135 
" style="fill:none;stroke:#4c4c4c;stroke-linecap:round;stroke-width:2;"/>
   </g>
   <g id="line2d_20">
    <path clip-path="url(#p7e4f14cc55)" d="M 134.04915 119.925289 
L 134.04915 119.925289 
" style="fill:none;stroke:#4c4c4c;stroke-linecap:round;stroke-width:2;"/>
   </g>
   <g id="line2d_21">
    <path clip-path="url(#p7e4f14cc55)" d="M 125.064234 120.975135 
L 143.034066 120.975135 
" style="fill:none;stroke:#4c4c4c;stroke-linecap:round;stroke-width:2;"/>
   </g>
   <g id="line2d_22">
    <path clip-path="url(#p7e4f14cc55)" d="M 125.064234 119.925289 
L 143.034066 119.925289 
" style="fill:none;stroke:#4c4c4c;stroke-linecap:round;stroke-width:2;"/>
   </g>
   <g id="line2d_23">
    <g clip-path="url(#p7e4f14cc55)">
     <use style="fill:#4c4c4c;" x="134.04915" xlink:href="#m0679f454cd" y="118.519866"/>
    </g>
   </g>
   <g id="line2d_24">
    <path clip-path="url(#p7e4f14cc55)" d="M 44.19999 23.244879 
L 44.19999 22.221818 
L 134.04915 22.221818 
L 134.04915 23.244879 
" style="fill:none;stroke:#1a1a1a;stroke-linecap:round;stroke-width:1.5;"/>
   </g>
   <g id="line2d_25">
    <path clip-path="url(#p7e4f14cc55)" d="M 89.12457 36.58915 
L 89.12457 35.699532 
L 134.04915 35.699532 
L 134.04915 36.58915 
" style="fill:none;stroke:#1a1a1a;stroke-linecap:round;stroke-width:1.5;"/>
   </g>
   <g id="line2d_26">
    <path clip-path="url(#p7e4f14cc55)" d="M 26.230158 115.861194 
L 62.169822 115.861194 
" style="fill:none;stroke:#4c4c4c;stroke-linecap:round;stroke-width:2;"/>
   </g>
   <g id="line2d_27">
    <path clip-path="url(#p7e4f14cc55)" d="M 71.154738 89.423427 
L 107.094402 89.423427 
" style="fill:none;stroke:#4c4c4c;stroke-linecap:round;stroke-width:2;"/>
   </g>
   <g id="line2d_28">
    <path clip-path="url(#p7e4f14cc55)" d="M 116.079318 120.197512 
L 152.018982 120.197512 
" style="fill:none;stroke:#4c4c4c;stroke-linecap:round;stroke-width:2;"/>
   </g>
   <g id="patch_6">
    <path d="M 21.7377 126 
L 21.7377 17.28 
" style="fill:none;stroke:#262626;stroke-linecap:square;stroke-linejoin:miter;stroke-width:1.25;"/>
   </g>
   <g id="patch_7">
    <path d="M 21.7377 126 
L 156.51144 126 
" style="fill:none;stroke:#262626;stroke-linecap:square;stroke-linejoin:miter;stroke-width:1.25;"/>
   </g>
   <g id="text_9">
    <!-- p = 0.03, $\Delta$ = 0.049 -->
    <defs>
     <path d="M 22 -16.609375 
C 15.59375 -16.609375 15.203125 -16.203125 15.203125 -12.328125 
L 15.203125 6.28125 
C 18.09375 2.09375 22.296875 -0.59375 27.59375 -0.59375 
C 37.59375 -0.59375 47.703125 8.171875 47.703125 21.6875 
C 47.703125 34.234375 39 43.78125 28.703125 43.78125 
C 22.703125 43.78125 17.796875 40.5 15 36.53125 
L 15 43.78125 
L 3.09375 42.6875 
L 3.09375 40.109375 
C 9 40.109375 9.90625 39.5 9.90625 34.734375 
L 9.90625 -12.328125 
C 9.90625 -16.109375 9.5 -16.609375 3.09375 -16.609375 
L 3.09375 -19.1875 
C 5.5 -19 9.90625 -19 12.5 -19 
C 15.09375 -19 19.59375 -19 22 -19.1875 
z
M 15.203125 31.4375 
C 15.203125 32.84375 15.203125 34.921875 19.09375 38.609375 
C 19.59375 39.015625 23 42 28 42 
C 35.296875 42 41.296875 32.9375 41.296875 21.59375 
C 41.296875 10.25 34.90625 1 27 1 
C 23.40625 1 19.5 2.6875 16.5 7.375 
C 15.203125 9.5625 15.203125 10.15625 15.203125 11.75 
z
" id="CMR17-112"/>
     <path d="M 64.296875 31.515625 
C 65.796875 31.515625 67.296875 31.515625 67.296875 33.203125 
C 67.296875 35 65.59375 35 63.90625 35 
L 8 35 
C 6.296875 35 4.59375 35 4.59375 33.203125 
C 4.59375 31.515625 6.09375 31.515625 7.59375 31.515625 
z
M 63.90625 14 
C 65.59375 14 67.296875 14 67.296875 15.796875 
C 67.296875 17.484375 65.796875 17.484375 64.296875 17.484375 
L 7.59375 17.484375 
C 6.09375 17.484375 4.59375 17.484375 4.59375 15.796875 
C 4.59375 14 6.296875 14 8 14 
z
" id="CMR17-61"/>
     <path d="M 16.59375 4.078125 
C 16.59375 6.5625 14.59375 8.15625 12.5 8.15625 
C 10.5 8.15625 8.40625 6.5625 8.40625 4.078125 
C 8.40625 1.59375 10.40625 0 12.5 0 
C 14.5 0 16.59375 1.59375 16.59375 4.078125 
z
" id="CMR17-46"/>
     <path d="M 22.09375 33.703125 
C 31 33.703125 34.90625 25.96875 34.90625 17.03125 
C 34.90625 5 28.5 0.390625 22.703125 0.390625 
C 17.40625 0.390625 8.796875 3.03125 6.09375 10.828125 
C 6.59375 10.625 7.09375 10.625 7.59375 10.625 
C 10 10.625 11.796875 12.21875 11.796875 14.8125 
C 11.796875 17.703125 9.59375 19 7.59375 19 
C 5.90625 19 3.296875 18.203125 3.296875 14.46875 
C 3.296875 5.234375 12.296875 -2 22.90625 -2 
C 34 -2 42.5 6.71875 42.5 16.953125 
C 42.5 26.671875 34.5 33.703125 25 34.796875 
C 32.59375 36.375 39.90625 43.0625 39.90625 52.015625 
C 39.90625 59.6875 32 65.296875 23 65.296875 
C 13.90625 65.296875 5.90625 59.828125 5.90625 52.015625 
C 5.90625 48.59375 8.5 48 9.796875 48 
C 11.90625 48 13.703125 49.296875 13.703125 51.890625 
C 13.703125 54.46875 11.90625 55.765625 9.796875 55.765625 
C 9.40625 55.765625 8.90625 55.765625 8.5 55.578125 
C 11.40625 61.859375 19.296875 63 22.796875 63 
C 26.296875 63 32.90625 61.328125 32.90625 51.875 
C 32.90625 49.109375 32.5 44.1875 29.09375 39.84375 
C 26.09375 36 22.703125 36 19.40625 35.6875 
C 18.90625 35.6875 16.59375 35.453125 16.203125 35.453125 
C 15.5 35.359375 15.09375 35.265625 15.09375 34.5 
C 15.09375 33.796875 15.203125 33.703125 17.203125 33.703125 
z
" id="CMR17-51"/>
     <path d="M 15.796875 1.59375 
C 16 0.703125 16 0.390625 16 -1.203125 
C 16 -7.234375 14 -12.765625 9.796875 -17.796875 
C 9.296875 -18.28125 9.296875 -18.484375 9.296875 -18.703125 
C 9.296875 -19.09375 9.703125 -19.5 10.09375 -19.5 
C 10.703125 -19.5 17.59375 -12.484375 17.59375 -1.359375 
C 17.59375 1.9375 17.203125 8.15625 12.5 8.15625 
C 10.296875 8.15625 8.40625 6.671875 8.40625 4.078125 
C 8.40625 1.5 10.296875 0 12.5 0 
C 13.703125 0 15 0.5 15.796875 1.59375 
z
" id="CMR17-44"/>
     <path d="M 40.59375 68.796875 
C 39.796875 70.5 39.40625 70.5 38.59375 70.5 
C 37.40625 70.5 37.296875 70.296875 36.59375 68.890625 
L 4.203125 1.703125 
C 4.09375 1.5 3.703125 0.59375 3.703125 0.5 
C 3.703125 0.09375 3.796875 0 5.59375 0 
L 71.5 0 
C 73.296875 0 73.40625 0.09375 73.40625 0.5 
C 73.40625 0.59375 73 1.5 72.90625 1.703125 
z
M 36.09375 63.09375 
L 63.796875 5.59375 
L 8.296875 5.59375 
z
" id="CMR17-1"/>
     <path d="M 33.59375 64.40625 
C 33.59375 66.5 33.5 66.5 31.703125 66.5 
L 2 19.59375 
L 2 17 
L 27.796875 17 
L 27.796875 7.140625 
C 27.796875 3.5 27.59375 2.5 20.59375 2.5 
L 18.703125 2.5 
L 18.703125 0 
C 21.90625 0 27.296875 0 30.703125 0 
C 34.09375 0 39.5 0 42.703125 0 
L 42.703125 2.5 
L 40.796875 2.5 
C 33.796875 2.5 33.59375 3.5 33.59375 7.140625 
L 33.59375 17 
L 43.796875 17 
L 43.796875 19.59375 
L 33.59375 19.59375 
z
M 28.09375 57.859375 
L 28.09375 19.59375 
L 4 19.59375 
z
" id="CMR17-52"/>
     <path d="M 35.203125 29.125 
C 35.203125 7.25 26.09375 0.484375 18.59375 0.484375 
C 16.296875 0.484375 10.703125 0.484375 8.40625 4.59375 
C 11 4.1875 12.90625 5.578125 12.90625 8.09375 
C 12.90625 10.8125 10.703125 11.703125 9.296875 11.703125 
C 8.40625 11.703125 5.703125 11.296875 5.703125 7.90625 
C 5.703125 1.109375 11.59375 -2 18.796875 -2 
C 30.296875 -2 42 10.53125 42 32.390625 
C 42 59.640625 30.796875 65.296875 23.203125 65.296875 
C 13.296875 65.296875 3.796875 56.6875 3.796875 43.40625 
C 3.796875 31.109375 11.90625 22 22.09375 22 
C 30.5 22 34.203125 29.734375 35.203125 33 
z
M 22.296875 23.59375 
C 19.59375 23.59375 15.796875 24.09375 12.703125 30.03125 
C 10.59375 33.890625 10.59375 38.453125 10.59375 43.296875 
C 10.59375 49.15625 10.59375 53.203125 13.40625 57.5625 
C 14.796875 59.640625 17.40625 63 23.203125 63 
C 35 63 35 45.078125 35 41.125 
C 35 34.09375 31.796875 23.59375 22.296875 23.59375 
z
" id="CMR17-57"/>
    </defs>
    <g style="fill:#1a1a1a;" transform="translate(40.113811 20.090924)scale(0.11 -0.11)">
     <use transform="scale(0.996264)" xlink:href="#CMR17-112"/>
     <use transform="translate(80.971336 0)scale(0.996264)" xlink:href="#CMR17-61"/>
     <use transform="translate(182.762091 0)scale(0.996264)" xlink:href="#CMR17-48"/>
     <use transform="translate(228.452568 0)scale(0.996264)" xlink:href="#CMR17-46"/>
     <use transform="translate(253.323626 0)scale(0.996264)" xlink:href="#CMR17-48"/>
     <use transform="translate(299.014104 0)scale(0.996264)" xlink:href="#CMR17-51"/>
     <use transform="translate(344.704581 0)scale(0.996264)" xlink:href="#CMR17-44"/>
     <use transform="translate(399.651606 0)scale(0.996264)" xlink:href="#CMR17-1"/>
     <use transform="translate(506.647162 0)scale(0.996264)" xlink:href="#CMR17-61"/>
     <use transform="translate(608.437917 0)scale(0.996264)" xlink:href="#CMR17-48"/>
     <use transform="translate(654.128394 0)scale(0.996264)" xlink:href="#CMR17-46"/>
     <use transform="translate(678.999452 0)scale(0.996264)" xlink:href="#CMR17-48"/>
     <use transform="translate(724.689929 0)scale(0.996264)" xlink:href="#CMR17-52"/>
     <use transform="translate(770.380406 0)scale(0.996264)" xlink:href="#CMR17-57"/>
    </g>
   </g>
   <g id="text_10">
    <!-- p = 0.00, $\Delta$ = 0.346 -->
    <defs>
     <path d="M 10.59375 34 
C 10.59375 57.65625 21.796875 63 28.296875 63 
C 30.40625 63 35.5 62.640625 37.5 59 
C 35.90625 59 32.90625 59 32.90625 55.515625 
C 32.90625 52.828125 35.09375 51.921875 36.5 51.921875 
C 37.40625 51.921875 40.09375 52.3125 40.09375 55.625 
C 40.09375 61.78125 35.09375 65.296875 28.203125 65.296875 
C 16.296875 65.296875 3.796875 52.96875 3.796875 31 
C 3.796875 3.953125 15.09375 -2 23.09375 -2 
C 32.796875 -2 42 6.671875 42 20.046875 
C 42 32.515625 33.90625 41.59375 23.703125 41.59375 
C 17.59375 41.59375 13.09375 37.609375 10.59375 30.625 
z
M 23.09375 0.390625 
C 10.796875 0.390625 10.796875 18.75 10.796875 22.4375 
C 10.796875 29.625 14.203125 40 23.5 40 
C 25.203125 40 30.09375 40 33.40625 33.125 
C 35.203125 29.21875 35.203125 25.140625 35.203125 20.140625 
C 35.203125 14.75 35.203125 10.78125 33.09375 6.78125 
C 30.90625 2.671875 27.703125 0.390625 23.09375 0.390625 
z
" id="CMR17-54"/>
    </defs>
    <g style="fill:#1a1a1a;" transform="translate(62.576101 33.568637)scale(0.11 -0.11)">
     <use transform="scale(0.996264)" xlink:href="#CMR17-112"/>
     <use transform="translate(80.971336 0)scale(0.996264)" xlink:href="#CMR17-61"/>
     <use transform="translate(182.762091 0)scale(0.996264)" xlink:href="#CMR17-48"/>
     <use transform="translate(228.452568 0)scale(0.996264)" xlink:href="#CMR17-46"/>
     <use transform="translate(253.323626 0)scale(0.996264)" xlink:href="#CMR17-48"/>
     <use transform="translate(299.014104 0)scale(0.996264)" xlink:href="#CMR17-48"/>
     <use transform="translate(344.704581 0)scale(0.996264)" xlink:href="#CMR17-44"/>
     <use transform="translate(399.651606 0)scale(0.996264)" xlink:href="#CMR17-1"/>
     <use transform="translate(506.647162 0)scale(0.996264)" xlink:href="#CMR17-61"/>
     <use transform="translate(608.437917 0)scale(0.996264)" xlink:href="#CMR17-48"/>
     <use transform="translate(654.128394 0)scale(0.996264)" xlink:href="#CMR17-46"/>
     <use transform="translate(678.999452 0)scale(0.996264)" xlink:href="#CMR17-51"/>
     <use transform="translate(724.689929 0)scale(0.996264)" xlink:href="#CMR17-52"/>
     <use transform="translate(770.380406 0)scale(0.996264)" xlink:href="#CMR17-54"/>
    </g>
   </g>
   <g id="text_11">
    <!-- 13.3\% -->
    <defs>
     <path d="M 72.5 14.984375 
C 72.5 26.53125 66.796875 35 60.09375 35 
C 53.296875 35 46.40625 27.125 46.40625 14.984375 
C 46.40625 2.859375 53.203125 -5 60.09375 -5 
C 66.796875 -5 72.5 3.359375 72.5 14.984375 
z
M 60.203125 -3.40625 
C 57.59375 -3.40625 51.09375 -1.03125 51.09375 14.984375 
C 51.09375 31.109375 57.59375 33.40625 60.203125 33.40625 
C 65.703125 33.40625 70.703125 25.53125 70.703125 14.984375 
C 70.703125 4.453125 65.703125 -3.40625 60.203125 -3.40625 
z
M 63.796875 71.515625 
C 64.5 72.609375 64.59375 72.703125 64.59375 73.203125 
C 64.59375 74.390625 63.703125 75 62.90625 75 
C 61.90625 75 61.5 74.3125 60.796875 73.53125 
C 55 65.46875 47 64.59375 42.90625 64.59375 
C 32.90625 64.59375 26.796875 70.21875 24.90625 71.984375 
C 23.59375 73.15625 21.703125 75 18.296875 75 
C 11.5 75 4.59375 67.125 4.59375 54.984375 
C 4.59375 42.859375 11.40625 35 18.296875 35 
C 25 35 30.703125 43.40625 30.703125 55.109375 
C 30.703125 62.015625 28.59375 66.71875 28.296875 67.3125 
C 34.40625 63.5 40.40625 63 43 63 
C 49.40625 63 54 65.359375 56.5 67.015625 
L 56.59375 66.921875 
L 13.40625 -1.3125 
C 12.5 -2.71875 12.5 -2.921875 12.5 -3.21875 
C 12.5 -4.3125 13.40625 -5 14.296875 -5 
C 15.203125 -5 15.5 -4.515625 16.203125 -3.40625 
z
M 18.40625 36.59375 
C 15.796875 36.59375 9.296875 38.96875 9.296875 54.984375 
C 9.296875 71.109375 15.796875 73.40625 18.40625 73.40625 
C 23.90625 73.40625 28.90625 65.53125 28.90625 54.984375 
C 28.90625 44.453125 23.90625 36.59375 18.40625 36.59375 
z
" id="CMR17-37"/>
    </defs>
    <g style="fill:#1a1a1a;" transform="translate(29.892498 52.250616)scale(0.11 -0.11)">
     <use transform="scale(0.996264)" xlink:href="#CMR17-49"/>
     <use transform="translate(45.690477 0)scale(0.996264)" xlink:href="#CMR17-51"/>
     <use transform="translate(91.380954 0)scale(0.996264)" xlink:href="#CMR17-46"/>
     <use transform="translate(116.252013 0)scale(0.996264)" xlink:href="#CMR17-51"/>
     <use transform="translate(161.94249 0)scale(0.996264)" xlink:href="#CMR17-37"/>
    </g>
   </g>
   <g id="text_12">
    <!-- 89.2\% -->
    <defs>
     <path d="M 27.203125 35.375 
C 33.5 38.546875 39.90625 43.328125 39.90625 50.984375 
C 39.90625 60.015625 31.09375 65.296875 23 65.296875 
C 13.90625 65.296875 5.90625 58.734375 5.90625 49.6875 
C 5.90625 47.203125 6.5 42.921875 10.40625 39.140625 
C 11.40625 38.15625 15.59375 35.171875 18.296875 33.28125 
C 13.796875 30.984375 3.296875 25.53125 3.296875 14.59375 
C 3.296875 4.359375 13.09375 -2 22.796875 -2 
C 33.5 -2 42.5 5.65625 42.5 15.78125 
C 42.5 24.84375 36.40625 29.015625 32.40625 31.703125 
z
M 14.09375 44.09375 
C 13.296875 44.59375 9.296875 47.671875 9.296875 52.359375 
C 9.296875 58.421875 15.59375 63 22.796875 63 
C 30.703125 63 36.5 57.4375 36.5 50.96875 
C 36.5 41.703125 26.09375 36.421875 25.59375 36.421875 
C 25.5 36.421875 25.40625 36.421875 24.59375 37.03125 
z
M 32.5 23.734375 
C 34 22.640625 38.796875 19.375 38.796875 13.296875 
C 38.796875 5.953125 31.40625 0.390625 23 0.390625 
C 13.90625 0.390625 7 6.84375 7 14.6875 
C 7 22.546875 13.09375 29.09375 20 32.1875 
z
" id="CMR17-56"/>
    </defs>
    <g style="fill:#1a1a1a;" transform="translate(74.817078 52.250616)scale(0.11 -0.11)">
     <use transform="scale(0.996264)" xlink:href="#CMR17-56"/>
     <use transform="translate(45.690477 0)scale(0.996264)" xlink:href="#CMR17-57"/>
     <use transform="translate(91.380954 0)scale(0.996264)" xlink:href="#CMR17-46"/>
     <use transform="translate(116.252013 0)scale(0.996264)" xlink:href="#CMR17-50"/>
     <use transform="translate(161.94249 0)scale(0.996264)" xlink:href="#CMR17-37"/>
    </g>
   </g>
   <g id="text_13">
    <!-- 0.2\% -->
    <g style="fill:#1a1a1a;" transform="translate(122.481392 52.250616)scale(0.11 -0.11)">
     <use transform="scale(0.996264)" xlink:href="#CMR17-48"/>
     <use transform="translate(45.690477 0)scale(0.996264)" xlink:href="#CMR17-46"/>
     <use transform="translate(70.561536 0)scale(0.996264)" xlink:href="#CMR17-50"/>
     <use transform="translate(116.252013 0)scale(0.996264)" xlink:href="#CMR17-37"/>
    </g>
   </g>
  </g>
 </g>
 <defs>
  <clipPath id="p7e4f14cc55">
   <rect height="108.72" width="134.77374" x="21.7377" y="17.28"/>
  </clipPath>
 </defs>
</svg>
