<?xml version="1.0" encoding="utf-8" standalone="no"?>
<!DOCTYPE svg PUBLIC "-//W3C//DTD SVG 1.1//EN"
  "http://www.w3.org/Graphics/SVG/1.1/DTD/svg11.dtd">
<!-- Created with matplotlib (http://matplotlib.org/) -->
<svg height="208.936323pt" version="1.1" viewBox="0 0 350.077647 208.936323" width="350.077647pt" xmlns="http://www.w3.org/2000/svg" xmlns:xlink="http://www.w3.org/1999/xlink">
 <defs>
  <style type="text/css">
*{stroke-linecap:butt;stroke-linejoin:round;}
  </style>
 </defs>
 <g id="figure_1">
  <g id="patch_1">
   <path d="M 0 208.936323 
L 350.077647 208.936323 
L 350.077647 0 
L 0 0 
z
" style="fill:#ffffff;"/>
  </g>
  <g id="axes_1">
   <g id="patch_2">
    <path d="M 54.101815 121.92 
L 180.412724 121.92 
L 180.412724 13.2 
L 54.101815 13.2 
z
" style="fill:#ffffff;"/>
   </g>
   <g id="matplotlib.axis_1">
    <g id="xtick_1">
     <g id="line2d_1">
      <defs>
       <path d="M 0 0 
L 0 6 
" id="m7a6e156762" style="stroke:#262626;"/>
      </defs>
      <g>
       <use style="fill:#262626;stroke:#262626;" x="54.799961" xlink:href="#m7a6e156762" y="121.92"/>
      </g>
     </g>
     <g id="text_1">
      <!-- 5000 -->
      <defs>
       <path d="M 11.40625 57.6875 
C 12.40625 57.28125 16.5 56 20.703125 56 
C 30 56 35.09375 61.109375 38 64.0625 
C 38 64.953125 38 65.5 37.40625 65.5 
C 37.296875 65.5 37.09375 65.5 36.296875 65.046875 
C 32.796875 63.40625 28.703125 62.078125 23.703125 62.078125 
C 20.703125 62.078125 16.203125 62.484375 11.296875 64.671875 
C 10.203125 65.171875 10 65.171875 9.90625 65.171875 
C 9.40625 65.171875 9.296875 65.0625 9.296875 63.078125 
L 9.296875 34.421875 
C 9.296875 32.640625 9.296875 32.140625 10.296875 32.140625 
C 10.796875 32.140625 11 32.34375 11.5 33.03125 
C 14.703125 37.515625 19.09375 39.40625 24.09375 39.40625 
C 27.59375 39.40625 35.09375 37.21875 35.09375 20.140625 
C 35.09375 16.953125 35.09375 11.171875 32.09375 6.578125 
C 29.59375 2.484375 25.703125 0.390625 21.40625 0.390625 
C 14.796875 0.390625 8.09375 5 6.296875 12.71875 
C 6.703125 12.609375 7.5 12.421875 7.90625 12.421875 
C 9.203125 12.421875 11.703125 13.125 11.703125 16.21875 
C 11.703125 18.90625 9.796875 20 7.90625 20 
C 5.59375 20 4.09375 18.59375 4.09375 15.796875 
C 4.09375 7.09375 11 -2 21.59375 -2 
C 31.90625 -2 41.703125 6.875 41.703125 19.75 
C 41.703125 31.71875 33.90625 41 24.203125 41 
C 19.09375 41 14.796875 39.109375 11.40625 35.53125 
z
" id="CMR17-53"/>
       <path d="M 42 31.640625 
C 42 37.75 41.90625 48.125 37.703125 56.109375 
C 34 63.109375 28.09375 65.59375 22.90625 65.59375 
C 18.09375 65.59375 12 63.40625 8.203125 56.203125 
C 4.203125 48.71875 3.796875 39.4375 3.796875 31.640625 
C 3.796875 25.953125 3.90625 17.28125 7 9.671875 
C 11.296875 -0.609375 19 -2 22.90625 -2 
C 27.5 -2 34.5 -0.109375 38.59375 9.375 
C 41.59375 16.28125 42 24.359375 42 31.640625 
z
M 22.90625 -0.40625 
C 16.5 -0.40625 12.703125 5.078125 11.296875 12.6875 
C 10.203125 18.5625 10.203125 27.15625 10.203125 32.75 
C 10.203125 40.4375 10.203125 46.828125 11.5 52.921875 
C 13.40625 61.390625 19 64 22.90625 64 
C 27 64 32.296875 61.296875 34.203125 53.125 
C 35.5 47.4375 35.59375 40.734375 35.59375 32.75 
C 35.59375 26.25 35.59375 18.265625 34.40625 12.375 
C 32.296875 1.484375 26.40625 -0.40625 22.90625 -0.40625 
z
" id="CMR17-48"/>
      </defs>
      <g style="fill:#262626;" transform="translate(49.516452 153.901461)rotate(-45)scale(0.1 -0.1)">
       <use transform="scale(0.996264)" xlink:href="#CMR17-53"/>
       <use transform="translate(45.690477 0)scale(0.996264)" xlink:href="#CMR17-48"/>
       <use transform="translate(91.380954 0)scale(0.996264)" xlink:href="#CMR17-48"/>
       <use transform="translate(137.071431 0)scale(0.996264)" xlink:href="#CMR17-48"/>
      </g>
     </g>
    </g>
    <g id="xtick_2">
     <g id="line2d_2">
      <g>
       <use style="fill:#262626;stroke:#262626;" x="102.949424" xlink:href="#m7a6e156762" y="121.92"/>
      </g>
     </g>
     <g id="text_2">
      <!-- 10000 -->
      <defs>
       <path d="M 26.59375 63.40625 
C 26.59375 65.5 26.5 65.5 25.09375 65.5 
C 21.203125 61.1875 15.296875 59.796875 9.703125 59.796875 
C 9.40625 59.796875 8.90625 59.796875 8.796875 59.5 
C 8.703125 59.296875 8.703125 59.09375 8.703125 57 
C 11.796875 57 17 57.59375 21 59.984375 
L 21 7.203125 
C 21 3.6875 20.796875 2.5 12.203125 2.5 
L 9.203125 2.5 
L 9.203125 0 
C 14 0 19 0 23.796875 0 
C 28.59375 0 33.59375 0 38.40625 0 
L 38.40625 2.5 
L 35.40625 2.5 
C 26.796875 2.5 26.59375 3.59375 26.59375 7.15625 
z
" id="CMR17-49"/>
      </defs>
      <g style="fill:#262626;" transform="translate(95.904746 157.423797)rotate(-45)scale(0.1 -0.1)">
       <use transform="scale(0.996264)" xlink:href="#CMR17-49"/>
       <use transform="translate(45.690477 0)scale(0.996264)" xlink:href="#CMR17-48"/>
       <use transform="translate(91.380954 0)scale(0.996264)" xlink:href="#CMR17-48"/>
       <use transform="translate(137.071431 0)scale(0.996264)" xlink:href="#CMR17-48"/>
       <use transform="translate(182.761908 0)scale(0.996264)" xlink:href="#CMR17-48"/>
      </g>
     </g>
    </g>
    <g id="xtick_3">
     <g id="line2d_3">
      <g>
       <use style="fill:#262626;stroke:#262626;" x="131.115054" xlink:href="#m7a6e156762" y="121.92"/>
      </g>
     </g>
     <g id="text_3">
      <!-- 15000 -->
      <g style="fill:#262626;" transform="translate(124.070376 157.423797)rotate(-45)scale(0.1 -0.1)">
       <use transform="scale(0.996264)" xlink:href="#CMR17-49"/>
       <use transform="translate(45.690477 0)scale(0.996264)" xlink:href="#CMR17-53"/>
       <use transform="translate(91.380954 0)scale(0.996264)" xlink:href="#CMR17-48"/>
       <use transform="translate(137.071431 0)scale(0.996264)" xlink:href="#CMR17-48"/>
       <use transform="translate(182.761908 0)scale(0.996264)" xlink:href="#CMR17-48"/>
      </g>
     </g>
    </g>
    <g id="xtick_4">
     <g id="line2d_4">
      <g>
       <use style="fill:#262626;stroke:#262626;" x="151.098886" xlink:href="#m7a6e156762" y="121.92"/>
      </g>
     </g>
     <g id="text_4">
      <!-- 20000 -->
      <defs>
       <path d="M 41.703125 15.453125 
L 39.90625 15.453125 
C 38.90625 8.375 38.09375 7.171875 37.703125 6.5625 
C 37.203125 5.765625 30 5.765625 28.59375 5.765625 
L 9.40625 5.765625 
C 13 9.671875 20 16.75 28.5 24.953125 
C 34.59375 30.734375 41.703125 37.53125 41.703125 47.421875 
C 41.703125 59.21875 32.296875 66 21.796875 66 
C 10.796875 66 4.09375 56.3125 4.09375 47.34375 
C 4.09375 43.4375 7 42.9375 8.203125 42.9375 
C 9.203125 42.9375 12.203125 43.546875 12.203125 47.03125 
C 12.203125 50.109375 9.59375 51 8.203125 51 
C 7.59375 51 7 50.90625 6.59375 50.703125 
C 8.5 59.21875 14.296875 63.40625 20.40625 63.40625 
C 29.09375 63.40625 34.796875 56.515625 34.796875 47.421875 
C 34.796875 38.734375 29.703125 31.25 24 24.75 
L 4.09375 2.28125 
L 4.09375 0 
L 39.296875 0 
z
" id="CMR17-50"/>
      </defs>
      <g style="fill:#262626;" transform="translate(144.054209 157.423797)rotate(-45)scale(0.1 -0.1)">
       <use transform="scale(0.996264)" xlink:href="#CMR17-50"/>
       <use transform="translate(45.690477 0)scale(0.996264)" xlink:href="#CMR17-48"/>
       <use transform="translate(91.380954 0)scale(0.996264)" xlink:href="#CMR17-48"/>
       <use transform="translate(137.071431 0)scale(0.996264)" xlink:href="#CMR17-48"/>
       <use transform="translate(182.761908 0)scale(0.996264)" xlink:href="#CMR17-48"/>
      </g>
     </g>
    </g>
    <g id="xtick_5">
     <g id="line2d_5">
      <g>
       <use style="fill:#262626;stroke:#262626;" x="166.599551" xlink:href="#m7a6e156762" y="121.92"/>
      </g>
     </g>
     <g id="text_5">
      <!-- 25000 -->
      <g style="fill:#262626;" transform="translate(159.554874 157.423797)rotate(-45)scale(0.1 -0.1)">
       <use transform="scale(0.996264)" xlink:href="#CMR17-50"/>
       <use transform="translate(45.690477 0)scale(0.996264)" xlink:href="#CMR17-53"/>
       <use transform="translate(91.380954 0)scale(0.996264)" xlink:href="#CMR17-48"/>
       <use transform="translate(137.071431 0)scale(0.996264)" xlink:href="#CMR17-48"/>
       <use transform="translate(182.761908 0)scale(0.996264)" xlink:href="#CMR17-48"/>
      </g>
     </g>
    </g>
    <g id="xtick_6">
     <g id="line2d_6">
      <g>
       <use style="fill:#262626;stroke:#262626;" x="179.264516" xlink:href="#m7a6e156762" y="121.92"/>
      </g>
     </g>
     <g id="text_6">
      <!-- 30000 -->
      <defs>
       <path d="M 22.09375 33.703125 
C 31 33.703125 34.90625 25.96875 34.90625 17.03125 
C 34.90625 5 28.5 0.390625 22.703125 0.390625 
C 17.40625 0.390625 8.796875 3.03125 6.09375 10.828125 
C 6.59375 10.625 7.09375 10.625 7.59375 10.625 
C 10 10.625 11.796875 12.21875 11.796875 14.8125 
C 11.796875 17.703125 9.59375 19 7.59375 19 
C 5.90625 19 3.296875 18.203125 3.296875 14.46875 
C 3.296875 5.234375 12.296875 -2 22.90625 -2 
C 34 -2 42.5 6.71875 42.5 16.953125 
C 42.5 26.671875 34.5 33.703125 25 34.796875 
C 32.59375 36.375 39.90625 43.0625 39.90625 52.015625 
C 39.90625 59.6875 32 65.296875 23 65.296875 
C 13.90625 65.296875 5.90625 59.828125 5.90625 52.015625 
C 5.90625 48.59375 8.5 48 9.796875 48 
C 11.90625 48 13.703125 49.296875 13.703125 51.890625 
C 13.703125 54.46875 11.90625 55.765625 9.796875 55.765625 
C 9.40625 55.765625 8.90625 55.765625 8.5 55.578125 
C 11.40625 61.859375 19.296875 63 22.796875 63 
C 26.296875 63 32.90625 61.328125 32.90625 51.875 
C 32.90625 49.109375 32.5 44.1875 29.09375 39.84375 
C 26.09375 36 22.703125 36 19.40625 35.6875 
C 18.90625 35.6875 16.59375 35.453125 16.203125 35.453125 
C 15.5 35.359375 15.09375 35.265625 15.09375 34.5 
C 15.09375 33.796875 15.203125 33.703125 17.203125 33.703125 
z
" id="CMR17-51"/>
      </defs>
      <g style="fill:#262626;" transform="translate(172.219839 157.423797)rotate(-45)scale(0.1 -0.1)">
       <use transform="scale(0.996264)" xlink:href="#CMR17-51"/>
       <use transform="translate(45.690477 0)scale(0.996264)" xlink:href="#CMR17-48"/>
       <use transform="translate(91.380954 0)scale(0.996264)" xlink:href="#CMR17-48"/>
       <use transform="translate(137.071431 0)scale(0.996264)" xlink:href="#CMR17-48"/>
       <use transform="translate(182.761908 0)scale(0.996264)" xlink:href="#CMR17-48"/>
      </g>
     </g>
    </g>
    <g id="xtick_7">
     <g id="line2d_7">
      <defs>
       <path d="M 0 0 
L 0 3 
" id="me42bc25914" style="stroke:#262626;stroke-width:0.5;"/>
      </defs>
      <g>
       <use style="fill:#262626;stroke:#262626;stroke-width:0.5;" x="54.799961" xlink:href="#me42bc25914" y="121.92"/>
      </g>
     </g>
    </g>
    <g id="xtick_8">
     <g id="line2d_8">
      <g>
       <use style="fill:#262626;stroke:#262626;stroke-width:0.5;" x="67.464926" xlink:href="#me42bc25914" y="121.92"/>
      </g>
     </g>
    </g>
    <g id="xtick_9">
     <g id="line2d_9">
      <g>
       <use style="fill:#262626;stroke:#262626;stroke-width:0.5;" x="78.173002" xlink:href="#me42bc25914" y="121.92"/>
      </g>
     </g>
    </g>
    <g id="xtick_10">
     <g id="line2d_10">
      <g>
       <use style="fill:#262626;stroke:#262626;stroke-width:0.5;" x="87.448759" xlink:href="#me42bc25914" y="121.92"/>
      </g>
     </g>
    </g>
    <g id="xtick_11">
     <g id="line2d_11">
      <g>
       <use style="fill:#262626;stroke:#262626;stroke-width:0.5;" x="95.630556" xlink:href="#me42bc25914" y="121.92"/>
      </g>
     </g>
    </g>
    <g id="xtick_12">
     <g id="line2d_12">
      <g>
       <use style="fill:#262626;stroke:#262626;stroke-width:0.5;" x="102.949424" xlink:href="#me42bc25914" y="121.92"/>
      </g>
     </g>
    </g>
    <g id="xtick_13">
     <g id="line2d_13">
      <g>
       <use style="fill:#262626;stroke:#262626;stroke-width:0.5;" x="109.570144" xlink:href="#me42bc25914" y="121.92"/>
      </g>
     </g>
    </g>
    <g id="xtick_14">
     <g id="line2d_14">
      <g>
       <use style="fill:#262626;stroke:#262626;stroke-width:0.5;" x="115.614389" xlink:href="#me42bc25914" y="121.92"/>
      </g>
     </g>
    </g>
    <g id="xtick_15">
     <g id="line2d_15">
      <g>
       <use style="fill:#262626;stroke:#262626;stroke-width:0.5;" x="121.174555" xlink:href="#me42bc25914" y="121.92"/>
      </g>
     </g>
    </g>
    <g id="xtick_16">
     <g id="line2d_16">
      <g>
       <use style="fill:#262626;stroke:#262626;stroke-width:0.5;" x="126.322464" xlink:href="#me42bc25914" y="121.92"/>
      </g>
     </g>
    </g>
    <g id="xtick_17">
     <g id="line2d_17">
      <g>
       <use style="fill:#262626;stroke:#262626;stroke-width:0.5;" x="131.115054" xlink:href="#me42bc25914" y="121.92"/>
      </g>
     </g>
    </g>
    <g id="xtick_18">
     <g id="line2d_18">
      <g>
       <use style="fill:#262626;stroke:#262626;stroke-width:0.5;" x="135.598221" xlink:href="#me42bc25914" y="121.92"/>
      </g>
     </g>
    </g>
    <g id="xtick_19">
     <g id="line2d_19">
      <g>
       <use style="fill:#262626;stroke:#262626;stroke-width:0.5;" x="139.80951" xlink:href="#me42bc25914" y="121.92"/>
      </g>
     </g>
    </g>
    <g id="xtick_20">
     <g id="line2d_20">
      <g>
       <use style="fill:#262626;stroke:#262626;stroke-width:0.5;" x="143.780019" xlink:href="#me42bc25914" y="121.92"/>
      </g>
     </g>
    </g>
    <g id="xtick_21">
     <g id="line2d_21">
      <g>
       <use style="fill:#262626;stroke:#262626;stroke-width:0.5;" x="147.535798" xlink:href="#me42bc25914" y="121.92"/>
      </g>
     </g>
    </g>
    <g id="xtick_22">
     <g id="line2d_22">
      <g>
       <use style="fill:#262626;stroke:#262626;stroke-width:0.5;" x="151.098886" xlink:href="#me42bc25914" y="121.92"/>
      </g>
     </g>
    </g>
    <g id="xtick_23">
     <g id="line2d_23">
      <g>
       <use style="fill:#262626;stroke:#262626;stroke-width:0.5;" x="154.488094" xlink:href="#me42bc25914" y="121.92"/>
      </g>
     </g>
    </g>
    <g id="xtick_24">
     <g id="line2d_24">
      <g>
       <use style="fill:#262626;stroke:#262626;stroke-width:0.5;" x="157.719607" xlink:href="#me42bc25914" y="121.92"/>
      </g>
     </g>
    </g>
    <g id="xtick_25">
     <g id="line2d_25">
      <g>
       <use style="fill:#262626;stroke:#262626;stroke-width:0.5;" x="160.807448" xlink:href="#me42bc25914" y="121.92"/>
      </g>
     </g>
    </g>
    <g id="xtick_26">
     <g id="line2d_26">
      <g>
       <use style="fill:#262626;stroke:#262626;stroke-width:0.5;" x="163.763851" xlink:href="#me42bc25914" y="121.92"/>
      </g>
     </g>
    </g>
    <g id="xtick_27">
     <g id="line2d_27">
      <g>
       <use style="fill:#262626;stroke:#262626;stroke-width:0.5;" x="166.599551" xlink:href="#me42bc25914" y="121.92"/>
      </g>
     </g>
    </g>
    <g id="xtick_28">
     <g id="line2d_28">
      <g>
       <use style="fill:#262626;stroke:#262626;stroke-width:0.5;" x="169.324017" xlink:href="#me42bc25914" y="121.92"/>
      </g>
     </g>
    </g>
    <g id="xtick_29">
     <g id="line2d_29">
      <g>
       <use style="fill:#262626;stroke:#262626;stroke-width:0.5;" x="171.945649" xlink:href="#me42bc25914" y="121.92"/>
      </g>
     </g>
    </g>
    <g id="xtick_30">
     <g id="line2d_30">
      <g>
       <use style="fill:#262626;stroke:#262626;stroke-width:0.5;" x="174.471927" xlink:href="#me42bc25914" y="121.92"/>
      </g>
     </g>
    </g>
    <g id="xtick_31">
     <g id="line2d_31">
      <g>
       <use style="fill:#262626;stroke:#262626;stroke-width:0.5;" x="176.909545" xlink:href="#me42bc25914" y="121.92"/>
      </g>
     </g>
    </g>
    <g id="text_7">
     <!-- \begin{center}N trials\\[1ex](c)\end{center} -->
     <defs>
      <path d="M 20.5 66.40625 
C 19.796875 67.5 19.703125 67.5 17.796875 67.5 
L 5.09375 67.5 
L 5.09375 65 
L 7 65 
C 11 65 12.796875 64.515625 13.09375 64.40625 
L 13.09375 9.53125 
C 13.09375 7.046875 13.09375 2.390625 5.09375 2.390625 
L 5.09375 -0.203125 
C 7.40625 0 11.59375 0 14.09375 0 
C 16.59375 0 20.796875 0 23.09375 -0.203125 
L 23.09375 2.390625 
C 15.09375 2.390625 15.09375 7.046875 15.09375 9.53125 
L 15.09375 63.015625 
C 15.796875 62.421875 15.796875 62.21875 16.5 61.234375 
L 53.59375 1.1875 
C 54.296875 0 54.59375 0 55.09375 0 
C 56.09375 0 56.09375 0.296875 56.09375 2.171875 
L 56.09375 57.890625 
C 56.09375 60.359375 56.09375 65 64.09375 65 
L 64.09375 67.59375 
C 61.796875 67.5 57.59375 67.5 55.09375 67.5 
C 52.59375 67.5 48.40625 67.5 46.09375 67.59375 
L 46.09375 65 
C 54.09375 65 54.09375 60.34375 54.09375 57.859375 
L 54.09375 11.921875 
z
" id="CMR17-78"/>
      <path d="M 15.09375 40 
L 29.09375 40 
L 29.09375 42.578125 
L 15.09375 42.578125 
L 15.09375 61 
L 13.296875 61 
C 13.09375 50.703125 9.59375 41.6875 1.09375 41.6875 
L 1.09375 40 
L 9.796875 40 
L 9.796875 12.046875 
C 9.796875 10.15625 9.796875 -1 21.40625 -1 
C 27.296875 -1 30.703125 4.78125 30.703125 12.140625 
L 30.703125 17.8125 
L 28.90625 17.8125 
L 28.90625 12.234375 
C 28.90625 5.375 26.203125 0.796875 22 0.796875 
C 19.09375 0.796875 15.09375 2.78125 15.09375 11.84375 
z
" id="CMR17-116"/>
      <path d="M 15 23.390625 
C 15 33 19.09375 42 26.59375 42 
C 27.296875 42 28 41.90625 28.703125 41.59375 
C 28.703125 41.59375 26.5 40.890625 26.5 38.3125 
C 26.5 35.90625 28.40625 34.90625 29.90625 34.90625 
C 31.09375 34.90625 33.296875 35.609375 33.296875 38.40625 
C 33.296875 41.609375 30.09375 43.59375 26.703125 43.59375 
C 19.09375 43.59375 15.796875 36.203125 14.796875 32.703125 
L 14.703125 32.703125 
L 14.703125 43.59375 
L 3.09375 42.5 
L 3.09375 39.90625 
C 9 39.90625 9.90625 39.296875 9.90625 34.5 
L 9.90625 6.6875 
C 9.90625 2.875 9.5 2.390625 3.09375 2.390625 
L 3.09375 -0.203125 
C 5.5 0 10.09375 0 12.703125 0 
C 15.59375 0 20.703125 0 23.40625 -0.203125 
L 23.40625 2.390625 
C 16.203125 2.390625 15 2.390625 15 6.875 
z
" id="CMR17-114"/>
      <path d="M 15.5 61.078125 
C 15.5 63.265625 13.703125 65.15625 11.40625 65.15625 
C 9.203125 65.15625 7.296875 63.375 7.296875 61.078125 
C 7.296875 58.890625 9.09375 57 11.40625 57 
C 13.59375 57 15.5 58.796875 15.5 61.078125 
z
M 3.796875 42.28125 
L 3.796875 39.703125 
C 9.40625 39.703125 10.203125 39.09375 10.203125 34.328125 
L 10.203125 6.671875 
C 10.203125 2.875 9.796875 2.390625 3.40625 2.390625 
L 3.40625 -0.203125 
C 5.796875 0 10.09375 0 12.59375 0 
C 15 0 19.09375 0 21.40625 -0.203125 
L 21.40625 2.390625 
C 15.5 2.390625 15.296875 2.984375 15.296875 6.5625 
L 15.296875 43.375 
z
" id="CMR17-105"/>
      <path d="M 36 25.828125 
C 36 32.375 36 35.84375 31.796875 39.734375 
C 28.09375 43 23.796875 44 20.40625 44 
C 12.5 44 6.796875 37.609375 6.796875 30.796875 
C 6.796875 27 9.796875 27 10.40625 27 
C 11.703125 27 14 27.78125 14 30.53125 
C 14 33 12.09375 34.078125 10.40625 34.078125 
C 10 34.078125 9.5 33.96875 9.203125 33.875 
C 11.296875 40.5 16.703125 42.40625 20.203125 42.40625 
C 25.203125 42.40625 30.703125 37.953125 30.703125 29.453125 
L 30.703125 25 
C 24.796875 25 17.703125 24.203125 12.09375 21.203125 
C 5.796875 17.703125 4 12.703125 4 8.90625 
C 4 1.203125 13 -1 18.296875 -1 
C 23.796875 -1 28.90625 2.171875 31.09375 7.984375 
C 31.296875 3.640625 34.09375 -0.28125 38.5 -0.28125 
C 40.59375 -0.28125 45.90625 1.09375 45.90625 8.859375 
L 45.90625 14.375 
L 44.09375 14.375 
L 44.09375 8.78125 
C 44.09375 2.78125 41.40625 2 40.09375 2 
C 36 2 36 7.15625 36 11.53125 
z
M 30.703125 13.59375 
C 30.703125 4.953125 24.5 0.59375 19 0.59375 
C 14 0.59375 10.09375 4.296875 10.09375 8.90625 
C 10.09375 11.890625 11.40625 17.1875 17.203125 20.390625 
C 22 23.09375 27.5 23.5 30.703125 23.5 
z
" id="CMR17-97"/>
      <path d="M 15.296875 68.6875 
L 3.40625 67.59375 
L 3.40625 65 
C 9.296875 65 10.203125 64.40625 10.203125 59.640625 
L 10.203125 6.65625 
C 10.203125 2.875 9.796875 2.390625 3.40625 2.390625 
L 3.40625 -0.203125 
C 5.796875 0 10.203125 0 12.703125 0 
C 15.296875 0 19.703125 0 22.09375 -0.203125 
L 22.09375 2.390625 
C 15.703125 2.390625 15.296875 2.78125 15.296875 6.65625 
z
" id="CMR17-108"/>
      <path d="M 30.90625 42.140625 
C 30.90625 43.953125 30.796875 44.046875 30.203125 44.046875 
C 29.796875 44.046875 29.703125 43.953125 28.5 42.453125 
C 28.203125 42.046875 27.296875 41.03125 27 40.640625 
C 23.796875 44.046875 19.296875 44.046875 17.59375 44.046875 
C 6.5 44.046875 2.5 38.234375 2.5 32.4375 
C 2.5 23.40625 12.703125 21.328125 15.59375 20.703125 
C 21.90625 19.421875 24.09375 19.015625 26.203125 17.203125 
C 27.5 16.015625 29.703125 13.8125 29.703125 10.21875 
C 29.703125 6 27.296875 0.59375 18.09375 0.59375 
C 9.40625 0.59375 6.296875 7.1875 4.5 15.953125 
C 4.203125 17.34375 4.203125 17.453125 3.40625 17.453125 
C 2.59375 17.453125 2.5 17.34375 2.5 15.359375 
L 2.5 0.984375 
C 2.5 -0.796875 2.59375 -0.90625 3.203125 -0.90625 
C 3.703125 -0.90625 3.796875 -0.796875 4.296875 0 
C 4.90625 0.890625 6.40625 3.296875 7 4.3125 
C 9 1.609375 12.5 -1 18.09375 -1 
C 28 -1 33.296875 4.421875 33.296875 12.25 
C 33.296875 17.375 30.59375 20.078125 29.296875 21.28125 
C 26.296875 24.390625 22.796875 25.09375 18.59375 25.890625 
C 13.09375 27.109375 6.09375 28.515625 6.09375 34.640625 
C 6.09375 37.234375 7.5 42.765625 17.59375 42.765625 
C 28.296875 42.765625 28.90625 32.71875 29.09375 29.5 
C 29.203125 29 29.703125 28.890625 30 28.890625 
C 30.90625 28.890625 30.90625 29.203125 30.90625 30.90625 
z
" id="CMR17-115"/>
      <path d="M 30.59375 -24.390625 
C 30.59375 -24.296875 30.59375 -24.09375 30.296875 -23.796875 
C 25.703125 -19.125 13.40625 -6.359375 13.40625 24.703125 
C 13.40625 55.765625 25.5 68.421875 30.40625 73.390625 
C 30.40625 73.5 30.59375 73.703125 30.59375 74 
C 30.59375 74.296875 30.296875 74.5 29.90625 74.5 
C 28.796875 74.5 20.296875 67.125 15.40625 56.15625 
C 10.40625 45.109375 9 34.359375 9 24.8125 
C 9 17.625 9.703125 5.484375 15.703125 -7.359375 
C 20.5 -17.734375 28.703125 -25 29.90625 -25 
C 30.40625 -25 30.59375 -24.796875 30.59375 -24.390625 
z
" id="CMR17-40"/>
      <path d="M 34.90625 35 
C 33 35 30.203125 35 30.203125 31.515625 
C 30.203125 28.71875 32.5 27.921875 33.796875 27.921875 
C 34.5 27.921875 37.40625 28.234375 37.40625 31.625 
C 37.40625 38.546875 30.59375 43.796875 22.90625 43.796875 
C 12.296875 43.796875 3.296875 34.03125 3.296875 21.296875 
C 3.296875 8.0625 12.703125 -1 22.90625 -1 
C 35.296875 -1 38.40625 10.578125 38.40625 11.6875 
C 38.40625 12.09375 38.296875 12.390625 37.59375 12.390625 
C 36.90625 12.390625 36.796875 12.296875 36.40625 10.984375 
C 33.796875 2.8125 28.09375 0.796875 23.796875 0.796875 
C 17.40625 0.796875 9.703125 6.671875 9.703125 21.390625 
C 9.703125 36.53125 17.09375 42 23 42 
C 26.90625 42 32.703125 40.203125 34.90625 35 
z
" id="CMR17-99"/>
      <path d="M 26.296875 24.703125 
C 26.296875 31.875 25.59375 44.015625 19.59375 56.859375 
C 14.796875 67.234375 6.59375 74.5 5.40625 74.5 
C 5.09375 74.5 4.703125 74.390625 4.703125 73.890625 
C 4.703125 73.703125 4.796875 73.59375 4.90625 73.390625 
C 9.703125 68.40625 21.90625 55.75 21.90625 24.75 
C 21.90625 -6.359375 9.796875 -19.015625 4.90625 -24.015625 
C 4.796875 -24.203125 4.703125 -24.3125 4.703125 -24.5 
C 4.703125 -25 5.09375 -25 5.40625 -25 
C 6.5 -25 15 -17.625 19.90625 -6.65625 
C 24.90625 4.390625 26.296875 15.140625 26.296875 24.703125 
z
" id="CMR17-41"/>
     </defs>
     <g style="fill:#262626;" transform="translate(99.098938 198.996597)scale(0.11 -0.11)">
      <use transform="translate(0 167.421303)scale(0.996264)" xlink:href="#CMR17-78"/>
      <use transform="translate(99.148396 167.421303)scale(0.996264)" xlink:href="#CMR17-116"/>
      <use transform="translate(134.429164 167.421303)scale(0.996264)" xlink:href="#CMR17-114"/>
      <use transform="translate(169.709932 167.421303)scale(0.996264)" xlink:href="#CMR17-105"/>
      <use transform="translate(194.58099 167.421303)scale(0.996264)" xlink:href="#CMR17-97"/>
      <use transform="translate(240.271467 167.421303)scale(0.996264)" xlink:href="#CMR17-108"/>
      <use transform="translate(265.142526 167.421303)scale(0.996264)" xlink:href="#CMR17-115"/>
      <use transform="translate(94.948341 0)scale(0.996264)" xlink:href="#CMR17-40"/>
      <use transform="translate(130.229109 0)scale(0.996264)" xlink:href="#CMR17-99"/>
      <use transform="translate(170.71477 0)scale(0.996264)" xlink:href="#CMR17-41"/>
     </g>
    </g>
   </g>
   <g id="matplotlib.axis_2">
    <g id="ytick_1">
     <g id="line2d_32">
      <defs>
       <path d="M 0 0 
L -6 0 
" id="m416a5ff0a6" style="stroke:#262626;"/>
      </defs>
      <g>
       <use style="fill:#262626;stroke:#262626;" x="54.101815" xlink:href="#m416a5ff0a6" y="20.778706"/>
      </g>
     </g>
     <g id="text_8">
      <!-- $10^{-1}$ -->
      <defs>
       <path d="M 65.90625 23 
C 67.59375 23 69.40625 23 69.40625 25 
C 69.40625 27 67.59375 27 65.90625 27 
L 11.796875 27 
C 10.09375 27 8.296875 27 8.296875 25 
C 8.296875 23 10.09375 23 11.796875 23 
z
" id="CMSY10-0"/>
      </defs>
      <g style="fill:#262626;" transform="translate(20.941241 24.237955)scale(0.1 -0.1)">
       <use transform="scale(0.996264)" xlink:href="#CMR17-49"/>
       <use transform="translate(45.690477 0)scale(0.996264)" xlink:href="#CMR17-48"/>
       <use transform="translate(91.380954 36.153639)scale(0.697382)" xlink:href="#CMSY10-0"/>
       <use transform="translate(145.621947 36.153639)scale(0.697382)" xlink:href="#CMR17-49"/>
      </g>
     </g>
    </g>
    <g id="ytick_2">
     <g id="line2d_33">
      <g>
       <use style="fill:#262626;stroke:#262626;" x="54.101815" xlink:href="#m416a5ff0a6" y="53.694747"/>
      </g>
     </g>
     <g id="text_9">
      <!-- $10^{-2}$ -->
      <g style="fill:#262626;" transform="translate(20.941241 57.153996)scale(0.1 -0.1)">
       <use transform="scale(0.996264)" xlink:href="#CMR17-49"/>
       <use transform="translate(45.690477 0)scale(0.996264)" xlink:href="#CMR17-48"/>
       <use transform="translate(91.380954 36.153639)scale(0.697382)" xlink:href="#CMSY10-0"/>
       <use transform="translate(145.621947 36.153639)scale(0.697382)" xlink:href="#CMR17-50"/>
      </g>
     </g>
    </g>
    <g id="ytick_3">
     <g id="line2d_34">
      <g>
       <use style="fill:#262626;stroke:#262626;" x="54.101815" xlink:href="#m416a5ff0a6" y="86.610788"/>
      </g>
     </g>
     <g id="text_10">
      <!-- $10^{-3}$ -->
      <g style="fill:#262626;" transform="translate(20.941241 90.070037)scale(0.1 -0.1)">
       <use transform="scale(0.996264)" xlink:href="#CMR17-49"/>
       <use transform="translate(45.690477 0)scale(0.996264)" xlink:href="#CMR17-48"/>
       <use transform="translate(91.380954 36.153639)scale(0.697382)" xlink:href="#CMSY10-0"/>
       <use transform="translate(145.621947 36.153639)scale(0.697382)" xlink:href="#CMR17-51"/>
      </g>
     </g>
    </g>
    <g id="ytick_4">
     <g id="line2d_35">
      <g>
       <use style="fill:#262626;stroke:#262626;" x="54.101815" xlink:href="#m416a5ff0a6" y="119.526829"/>
      </g>
     </g>
     <g id="text_11">
      <!-- $10^{-4}$ -->
      <defs>
       <path d="M 33.59375 64.40625 
C 33.59375 66.5 33.5 66.5 31.703125 66.5 
L 2 19.59375 
L 2 17 
L 27.796875 17 
L 27.796875 7.140625 
C 27.796875 3.5 27.59375 2.5 20.59375 2.5 
L 18.703125 2.5 
L 18.703125 0 
C 21.90625 0 27.296875 0 30.703125 0 
C 34.09375 0 39.5 0 42.703125 0 
L 42.703125 2.5 
L 40.796875 2.5 
C 33.796875 2.5 33.59375 3.5 33.59375 7.140625 
L 33.59375 17 
L 43.796875 17 
L 43.796875 19.59375 
L 33.59375 19.59375 
z
M 28.09375 57.859375 
L 28.09375 19.59375 
L 4 19.59375 
z
" id="CMR17-52"/>
      </defs>
      <g style="fill:#262626;" transform="translate(20.941241 122.986078)scale(0.1 -0.1)">
       <use transform="scale(0.996264)" xlink:href="#CMR17-49"/>
       <use transform="translate(45.690477 0)scale(0.996264)" xlink:href="#CMR17-48"/>
       <use transform="translate(91.380954 36.153639)scale(0.697382)" xlink:href="#CMSY10-0"/>
       <use transform="translate(145.621947 36.153639)scale(0.697382)" xlink:href="#CMR17-52"/>
      </g>
     </g>
    </g>
    <g id="ytick_5">
     <g id="line2d_36">
      <defs>
       <path d="M 0 0 
L -3 0 
" id="mff0db68402" style="stroke:#262626;stroke-width:0.5;"/>
      </defs>
      <g>
       <use style="fill:#262626;stroke:#262626;stroke-width:0.5;" x="54.101815" xlink:href="#mff0db68402" y="121.032984"/>
      </g>
     </g>
    </g>
    <g id="ytick_6">
     <g id="line2d_37">
      <g>
       <use style="fill:#262626;stroke:#262626;stroke-width:0.5;" x="54.101815" xlink:href="#mff0db68402" y="109.618113"/>
      </g>
     </g>
    </g>
    <g id="ytick_7">
     <g id="line2d_38">
      <g>
       <use style="fill:#262626;stroke:#262626;stroke-width:0.5;" x="54.101815" xlink:href="#mff0db68402" y="103.821886"/>
      </g>
     </g>
    </g>
    <g id="ytick_8">
     <g id="line2d_39">
      <g>
       <use style="fill:#262626;stroke:#262626;stroke-width:0.5;" x="54.101815" xlink:href="#mff0db68402" y="99.709398"/>
      </g>
     </g>
    </g>
    <g id="ytick_9">
     <g id="line2d_40">
      <g>
       <use style="fill:#262626;stroke:#262626;stroke-width:0.5;" x="54.101815" xlink:href="#mff0db68402" y="96.519504"/>
      </g>
     </g>
    </g>
    <g id="ytick_10">
     <g id="line2d_41">
      <g>
       <use style="fill:#262626;stroke:#262626;stroke-width:0.5;" x="54.101815" xlink:href="#mff0db68402" y="93.913171"/>
      </g>
     </g>
    </g>
    <g id="ytick_11">
     <g id="line2d_42">
      <g>
       <use style="fill:#262626;stroke:#262626;stroke-width:0.5;" x="54.101815" xlink:href="#mff0db68402" y="91.709547"/>
      </g>
     </g>
    </g>
    <g id="ytick_12">
     <g id="line2d_43">
      <g>
       <use style="fill:#262626;stroke:#262626;stroke-width:0.5;" x="54.101815" xlink:href="#mff0db68402" y="89.800682"/>
      </g>
     </g>
    </g>
    <g id="ytick_13">
     <g id="line2d_44">
      <g>
       <use style="fill:#262626;stroke:#262626;stroke-width:0.5;" x="54.101815" xlink:href="#mff0db68402" y="88.116943"/>
      </g>
     </g>
    </g>
    <g id="ytick_14">
     <g id="line2d_45">
      <g>
       <use style="fill:#262626;stroke:#262626;stroke-width:0.5;" x="54.101815" xlink:href="#mff0db68402" y="76.702072"/>
      </g>
     </g>
    </g>
    <g id="ytick_15">
     <g id="line2d_46">
      <g>
       <use style="fill:#262626;stroke:#262626;stroke-width:0.5;" x="54.101815" xlink:href="#mff0db68402" y="70.905845"/>
      </g>
     </g>
    </g>
    <g id="ytick_16">
     <g id="line2d_47">
      <g>
       <use style="fill:#262626;stroke:#262626;stroke-width:0.5;" x="54.101815" xlink:href="#mff0db68402" y="66.793357"/>
      </g>
     </g>
    </g>
    <g id="ytick_17">
     <g id="line2d_48">
      <g>
       <use style="fill:#262626;stroke:#262626;stroke-width:0.5;" x="54.101815" xlink:href="#mff0db68402" y="63.603463"/>
      </g>
     </g>
    </g>
    <g id="ytick_18">
     <g id="line2d_49">
      <g>
       <use style="fill:#262626;stroke:#262626;stroke-width:0.5;" x="54.101815" xlink:href="#mff0db68402" y="60.99713"/>
      </g>
     </g>
    </g>
    <g id="ytick_19">
     <g id="line2d_50">
      <g>
       <use style="fill:#262626;stroke:#262626;stroke-width:0.5;" x="54.101815" xlink:href="#mff0db68402" y="58.793506"/>
      </g>
     </g>
    </g>
    <g id="ytick_20">
     <g id="line2d_51">
      <g>
       <use style="fill:#262626;stroke:#262626;stroke-width:0.5;" x="54.101815" xlink:href="#mff0db68402" y="56.884641"/>
      </g>
     </g>
    </g>
    <g id="ytick_21">
     <g id="line2d_52">
      <g>
       <use style="fill:#262626;stroke:#262626;stroke-width:0.5;" x="54.101815" xlink:href="#mff0db68402" y="55.200903"/>
      </g>
     </g>
    </g>
    <g id="ytick_22">
     <g id="line2d_53">
      <g>
       <use style="fill:#262626;stroke:#262626;stroke-width:0.5;" x="54.101815" xlink:href="#mff0db68402" y="43.786031"/>
      </g>
     </g>
    </g>
    <g id="ytick_23">
     <g id="line2d_54">
      <g>
       <use style="fill:#262626;stroke:#262626;stroke-width:0.5;" x="54.101815" xlink:href="#mff0db68402" y="37.989804"/>
      </g>
     </g>
    </g>
    <g id="ytick_24">
     <g id="line2d_55">
      <g>
       <use style="fill:#262626;stroke:#262626;stroke-width:0.5;" x="54.101815" xlink:href="#mff0db68402" y="33.877316"/>
      </g>
     </g>
    </g>
    <g id="ytick_25">
     <g id="line2d_56">
      <g>
       <use style="fill:#262626;stroke:#262626;stroke-width:0.5;" x="54.101815" xlink:href="#mff0db68402" y="30.687422"/>
      </g>
     </g>
    </g>
    <g id="ytick_26">
     <g id="line2d_57">
      <g>
       <use style="fill:#262626;stroke:#262626;stroke-width:0.5;" x="54.101815" xlink:href="#mff0db68402" y="28.081089"/>
      </g>
     </g>
    </g>
    <g id="ytick_27">
     <g id="line2d_58">
      <g>
       <use style="fill:#262626;stroke:#262626;stroke-width:0.5;" x="54.101815" xlink:href="#mff0db68402" y="25.877466"/>
      </g>
     </g>
    </g>
    <g id="ytick_28">
     <g id="line2d_59">
      <g>
       <use style="fill:#262626;stroke:#262626;stroke-width:0.5;" x="54.101815" xlink:href="#mff0db68402" y="23.9686"/>
      </g>
     </g>
    </g>
    <g id="ytick_29">
     <g id="line2d_60">
      <g>
       <use style="fill:#262626;stroke:#262626;stroke-width:0.5;" x="54.101815" xlink:href="#mff0db68402" y="22.284862"/>
      </g>
     </g>
    </g>
    <g id="text_12">
     <!-- Mean square error -->
     <defs>
      <path d="M 20.90625 66 
C 20.296875 67.5 20.203125 67.5 18.09375 67.5 
L 5.296875 67.5 
L 5.296875 65 
C 12.203125 65 13.296875 65 13.296875 60.546875 
L 13.296875 9.53125 
C 13.296875 7.046875 13.296875 2.390625 5.296875 2.390625 
L 5.296875 -0.203125 
C 7.59375 0 11.796875 0 14.296875 0 
C 16.796875 0 21 0 23.296875 -0.203125 
L 23.296875 2.390625 
C 15.296875 2.390625 15.296875 7.046875 15.296875 9.53125 
L 15.296875 64.609375 
L 15.40625 64.609375 
L 38.90625 1.390625 
C 39.296875 0.390625 39.5 -0.203125 40.296875 -0.203125 
C 41.09375 -0.203125 41.296875 0.390625 41.703125 1.390625 
L 65.40625 65.09375 
L 65.5 65.09375 
L 65.5 6.84375 
C 65.5 2.390625 64.40625 2.390625 57.5 2.390625 
L 57.5 -0.203125 
C 60.203125 0 65.59375 0 68.5 0 
C 71.40625 0 76.90625 0 79.59375 -0.203125 
L 79.59375 2.390625 
C 72.703125 2.390625 71.59375 2.390625 71.59375 6.84375 
L 71.59375 60.546875 
C 71.59375 65 72.703125 65 79.59375 65 
L 79.59375 67.5 
L 66.90625 67.5 
C 64.796875 67.5 64.703125 67.40625 64.09375 65.90625 
L 42.5 7.84375 
z
" id="CMR17-77"/>
      <path d="M 38.09375 23 
C 38.5 23.40625 38.5 23.609375 38.5 24.625 
C 38.5 34.96875 33.09375 44 21.703125 44 
C 11.09375 44 2.703125 33.890625 2.703125 21.609375 
C 2.703125 8.609375 12.203125 -1 22.796875 -1 
C 34 -1 38.40625 9.484375 38.40625 11.5625 
C 38.40625 12.25 37.796875 12.25 37.59375 12.25 
C 36.90625 12.25 36.796875 12.046875 36.40625 10.875 
C 34.203125 4.140625 28.703125 0.796875 23.5 0.796875 
C 19.203125 0.796875 14.90625 3.171875 12.203125 7.5 
C 9.09375 12.546875 9.09375 18.375 9.09375 23 
z
M 9.203125 24.5 
C 9.90625 39.140625 17.59375 42.40625 21.59375 42.40625 
C 28.40625 42.40625 33 35.890625 33.09375 24.5 
z
" id="CMR17-101"/>
      <path d="M 41.5 30.203125 
C 41.5 35.296875 40.5 43.59375 28.703125 43.59375 
C 20.796875 43.59375 16.703125 37.5 15.203125 33.5 
L 15.09375 33.5 
L 15.09375 43.59375 
L 3.296875 42.5 
L 3.296875 39.90625 
C 9.203125 39.90625 10.09375 39.296875 10.09375 34.5 
L 10.09375 6.6875 
C 10.09375 2.875 9.703125 2.390625 3.296875 2.390625 
L 3.296875 -0.203125 
C 5.703125 0 10.09375 0 12.703125 0 
C 15.296875 0 19.796875 0 22.203125 -0.203125 
L 22.203125 2.390625 
C 15.796875 2.390625 15.40625 2.78125 15.40625 6.6875 
L 15.40625 25.90625 
C 15.40625 35.109375 21 42 28 42 
C 35.40625 42 36.203125 35.40625 36.203125 30.59375 
L 36.203125 6.6875 
C 36.203125 2.875 35.796875 2.390625 29.40625 2.390625 
L 29.40625 -0.203125 
C 31.796875 0 36.203125 0 38.796875 0 
C 41.40625 0 45.90625 0 48.296875 -0.203125 
L 48.296875 2.390625 
C 41.90625 2.390625 41.5 2.78125 41.5 6.6875 
z
" id="CMR17-110"/>
      <path d="M 41.09375 43.78125 
L 39.5 43.78125 
L 36.5 33.9375 
C 34.203125 39.203125 30 43.78125 23.296875 43.78125 
C 13.09375 43.78125 3.296875 34.734375 3.296875 21.609375 
C 3.296875 8.5625 12.5 -0.59375 22.5 -0.59375 
C 30.203125 -0.59375 34.5 5.28125 35.796875 7.46875 
L 35.796875 -12.328125 
C 35.796875 -16.109375 35.40625 -16.609375 29 -16.609375 
L 29 -19.1875 
C 31.40625 -19 35.796875 -19 38.40625 -19 
C 41 -19 45.5 -19 47.90625 -19.1875 
L 47.90625 -16.609375 
C 41.5 -16.609375 41.09375 -16.203125 41.09375 -12.328125 
z
M 36 13.84375 
C 36 9.5625 32.40625 5.578125 32.09375 5.28125 
C 29 1.796875 25.40625 1 23 1 
C 15.5 1 9.703125 10.453125 9.703125 21.484375 
C 9.703125 33.140625 16.296875 42 24 42 
C 32 42 36 32.9375 36 27.765625 
z
" id="CMR17-113"/>
      <path d="M 29.40625 42.078125 
L 29.40625 39.5 
C 35.296875 39.5 36.203125 38.890625 36.203125 34.15625 
L 36.203125 16.125 
C 36.203125 7.8125 31.703125 0.59375 24.296875 0.59375 
C 16.09375 0.59375 15.40625 5.4375 15.40625 10.59375 
L 15.40625 43.171875 
L 3.296875 42.078125 
L 3.296875 39.5 
C 7.296875 39.5 10 39.5 10.09375 35.53125 
L 10.09375 16.53125 
C 10.09375 9.890625 10.09375 5.640625 12.703125 2.859375 
C 14 1.578125 16.5 -1 23.703125 -1 
C 32.203125 -1 35.5 5.890625 36.296875 7.90625 
L 36.40625 7.90625 
L 36.40625 -0.984375 
L 48.296875 -0.984375 
L 48.296875 2 
C 42.40625 2 41.5 2.59375 41.5 7.390625 
L 41.5 43.171875 
z
" id="CMR17-117"/>
      <path d="M 43.09375 21.1875 
C 43.09375 34 33.796875 44 22.90625 44 
C 12 44 2.703125 34 2.703125 21.1875 
C 2.703125 8.609375 12 -1 22.90625 -1 
C 33.796875 -1 43.09375 8.609375 43.09375 21.1875 
z
M 22.90625 0.796875 
C 18.203125 0.796875 14.203125 3.59375 11.90625 7.5 
C 9.40625 11.984375 9.09375 17.59375 9.09375 22 
C 9.09375 26.203125 9.296875 31.40625 11.90625 35.90625 
C 13.90625 39.203125 17.796875 42.40625 22.90625 42.40625 
C 27.40625 42.40625 31.203125 39.90625 33.59375 36.40625 
C 36.703125 31.703125 36.703125 25.109375 36.703125 22 
C 36.703125 18.09375 36.5 12.109375 33.796875 7.296875 
C 31 2.703125 26.703125 0.796875 22.90625 0.796875 
z
" id="CMR17-111"/>
     </defs>
     <g style="fill:#262626;" transform="translate(14.810347 111.487048)rotate(-90)scale(0.11 -0.11)">
      <use transform="scale(0.996264)" xlink:href="#CMR17-77"/>
      <use transform="translate(84.686941 0)scale(0.996264)" xlink:href="#CMR17-101"/>
      <use transform="translate(125.172601 0)scale(0.996264)" xlink:href="#CMR17-97"/>
      <use transform="translate(170.863078 0)scale(0.996264)" xlink:href="#CMR17-110"/>
      <use transform="translate(251.834414 0)scale(0.996264)" xlink:href="#CMR17-115"/>
      <use transform="translate(287.635752 0)scale(0.996264)" xlink:href="#CMR17-113"/>
      <use transform="translate(335.928668 0)scale(0.996264)" xlink:href="#CMR17-117"/>
      <use transform="translate(386.824038 0)scale(0.996264)" xlink:href="#CMR17-97"/>
      <use transform="translate(432.514515 0)scale(0.996264)" xlink:href="#CMR17-114"/>
      <use transform="translate(467.795282 0)scale(0.996264)" xlink:href="#CMR17-101"/>
      <use transform="translate(538.356909 0)scale(0.996264)" xlink:href="#CMR17-101"/>
      <use transform="translate(578.84257 0)scale(0.996264)" xlink:href="#CMR17-114"/>
      <use transform="translate(614.123338 0)scale(0.996264)" xlink:href="#CMR17-114"/>
      <use transform="translate(649.404105 0)scale(0.996264)" xlink:href="#CMR17-111"/>
      <use transform="translate(695.094582 0)scale(0.996264)" xlink:href="#CMR17-114"/>
     </g>
    </g>
   </g>
   <g id="line2d_61">
    <path clip-path="url(#p53a766893a)" d="M 54.799961 91.310856 
L 102.949424 98.322596 
L 131.115054 101.443067 
L 151.098886 103.077375 
L 166.599551 104.141689 
L 179.264516 104.974323 
" style="fill:none;stroke:#4c72b0;stroke-linecap:round;stroke-width:2;"/>
    <defs>
     <path d="M 0 1.75 
C 0.464105 1.75 0.909265 1.565609 1.237437 1.237437 
C 1.565609 0.909265 1.75 0.464105 1.75 0 
C 1.75 -0.464105 1.565609 -0.909265 1.237437 -1.237437 
C 0.909265 -1.565609 0.464105 -1.75 0 -1.75 
C -0.464105 -1.75 -0.909265 -1.565609 -1.237437 -1.237437 
C -1.565609 -0.909265 -1.75 -0.464105 -1.75 0 
C -1.75 0.464105 -1.565609 0.909265 -1.237437 1.237437 
C -0.909265 1.565609 -0.464105 1.75 0 1.75 
z
" id="m97d37a9cf7"/>
    </defs>
    <g clip-path="url(#p53a766893a)">
     <use style="fill:#4c72b0;" x="54.799961" xlink:href="#m97d37a9cf7" y="91.310856"/>
     <use style="fill:#4c72b0;" x="102.949424" xlink:href="#m97d37a9cf7" y="98.322596"/>
     <use style="fill:#4c72b0;" x="131.115054" xlink:href="#m97d37a9cf7" y="101.443067"/>
     <use style="fill:#4c72b0;" x="151.098886" xlink:href="#m97d37a9cf7" y="103.077375"/>
     <use style="fill:#4c72b0;" x="166.599551" xlink:href="#m97d37a9cf7" y="104.141689"/>
     <use style="fill:#4c72b0;" x="179.264516" xlink:href="#m97d37a9cf7" y="104.974323"/>
    </g>
   </g>
   <g id="line2d_62">
    <path clip-path="url(#p53a766893a)" d="M 54.799961 25.729555 
L 102.949424 25.729617 
L 131.115054 25.729589 
L 151.098886 25.72959 
L 166.599551 25.729599 
L 179.264516 25.729604 
" style="fill:none;stroke:#4c72b0;stroke-dasharray:7.4,3.2;stroke-dashoffset:0;stroke-width:2;"/>
    <g clip-path="url(#p53a766893a)">
     <use style="fill:#4c72b0;" x="54.799961" xlink:href="#m97d37a9cf7" y="25.729555"/>
     <use style="fill:#4c72b0;" x="102.949424" xlink:href="#m97d37a9cf7" y="25.729617"/>
     <use style="fill:#4c72b0;" x="131.115054" xlink:href="#m97d37a9cf7" y="25.729589"/>
     <use style="fill:#4c72b0;" x="151.098886" xlink:href="#m97d37a9cf7" y="25.72959"/>
     <use style="fill:#4c72b0;" x="166.599551" xlink:href="#m97d37a9cf7" y="25.729599"/>
     <use style="fill:#4c72b0;" x="179.264516" xlink:href="#m97d37a9cf7" y="25.729604"/>
    </g>
   </g>
   <g id="line2d_63">
    <path clip-path="url(#p53a766893a)" d="M 54.799961 98.497812 
L 102.949424 104.213991 
L 131.115054 107.149327 
L 151.098886 108.822631 
L 166.599551 109.935433 
L 179.264516 110.689671 
" style="fill:none;stroke:#c44e52;stroke-linecap:round;stroke-width:2;"/>
    <defs>
     <path d="M 0 1.75 
C 0.464105 1.75 0.909265 1.565609 1.237437 1.237437 
C 1.565609 0.909265 1.75 0.464105 1.75 0 
C 1.75 -0.464105 1.565609 -0.909265 1.237437 -1.237437 
C 0.909265 -1.565609 0.464105 -1.75 0 -1.75 
C -0.464105 -1.75 -0.909265 -1.565609 -1.237437 -1.237437 
C -1.565609 -0.909265 -1.75 -0.464105 -1.75 0 
C -1.75 0.464105 -1.565609 0.909265 -1.237437 1.237437 
C -0.909265 1.565609 -0.464105 1.75 0 1.75 
z
" id="m1093fe8a12"/>
    </defs>
    <g clip-path="url(#p53a766893a)">
     <use style="fill:#c44e52;" x="54.799961" xlink:href="#m1093fe8a12" y="98.497812"/>
     <use style="fill:#c44e52;" x="102.949424" xlink:href="#m1093fe8a12" y="104.213991"/>
     <use style="fill:#c44e52;" x="131.115054" xlink:href="#m1093fe8a12" y="107.149327"/>
     <use style="fill:#c44e52;" x="151.098886" xlink:href="#m1093fe8a12" y="108.822631"/>
     <use style="fill:#c44e52;" x="166.599551" xlink:href="#m1093fe8a12" y="109.935433"/>
     <use style="fill:#c44e52;" x="179.264516" xlink:href="#m1093fe8a12" y="110.689671"/>
    </g>
   </g>
   <g id="line2d_64">
    <path clip-path="url(#p53a766893a)" d="M 54.799961 30.464746 
L 102.949424 30.464815 
L 131.115054 30.464797 
L 151.098886 30.464795 
L 166.599551 30.464776 
L 179.264516 30.464761 
" style="fill:none;stroke:#c44e52;stroke-dasharray:7.4,3.2;stroke-dashoffset:0;stroke-width:2;"/>
    <g clip-path="url(#p53a766893a)">
     <use style="fill:#c44e52;" x="54.799961" xlink:href="#m1093fe8a12" y="30.464746"/>
     <use style="fill:#c44e52;" x="102.949424" xlink:href="#m1093fe8a12" y="30.464815"/>
     <use style="fill:#c44e52;" x="131.115054" xlink:href="#m1093fe8a12" y="30.464797"/>
     <use style="fill:#c44e52;" x="151.098886" xlink:href="#m1093fe8a12" y="30.464795"/>
     <use style="fill:#c44e52;" x="166.599551" xlink:href="#m1093fe8a12" y="30.464776"/>
     <use style="fill:#c44e52;" x="179.264516" xlink:href="#m1093fe8a12" y="30.464761"/>
    </g>
   </g>
   <g id="line2d_65">
    <path clip-path="url(#p53a766893a)" d="M 54.799961 92.388203 
L 102.949424 96.625969 
L 131.115054 98.327186 
L 151.098886 99.381194 
L 166.599551 99.820996 
L 179.264516 100.206484 
" style="fill:none;stroke:#ccb974;stroke-linecap:round;stroke-width:2;"/>
    <defs>
     <path d="M 0 1.75 
C 0.464105 1.75 0.909265 1.565609 1.237437 1.237437 
C 1.565609 0.909265 1.75 0.464105 1.75 0 
C 1.75 -0.464105 1.565609 -0.909265 1.237437 -1.237437 
C 0.909265 -1.565609 0.464105 -1.75 0 -1.75 
C -0.464105 -1.75 -0.909265 -1.565609 -1.237437 -1.237437 
C -1.565609 -0.909265 -1.75 -0.464105 -1.75 0 
C -1.75 0.464105 -1.565609 0.909265 -1.237437 1.237437 
C -0.909265 1.565609 -0.464105 1.75 0 1.75 
z
" id="m4b873be51e"/>
    </defs>
    <g clip-path="url(#p53a766893a)">
     <use style="fill:#ccb974;" x="54.799961" xlink:href="#m4b873be51e" y="92.388203"/>
     <use style="fill:#ccb974;" x="102.949424" xlink:href="#m4b873be51e" y="96.625969"/>
     <use style="fill:#ccb974;" x="131.115054" xlink:href="#m4b873be51e" y="98.327186"/>
     <use style="fill:#ccb974;" x="151.098886" xlink:href="#m4b873be51e" y="99.381194"/>
     <use style="fill:#ccb974;" x="166.599551" xlink:href="#m4b873be51e" y="99.820996"/>
     <use style="fill:#ccb974;" x="179.264516" xlink:href="#m4b873be51e" y="100.206484"/>
    </g>
   </g>
   <g id="line2d_66">
    <path clip-path="url(#p53a766893a)" d="M 54.799961 35.41796 
L 102.949424 35.417933 
L 131.115054 35.41794 
L 151.098886 35.417938 
L 166.599551 35.417931 
L 179.264516 35.417944 
" style="fill:none;stroke:#ccb974;stroke-dasharray:7.4,3.2;stroke-dashoffset:0;stroke-width:2;"/>
    <g clip-path="url(#p53a766893a)">
     <use style="fill:#ccb974;" x="54.799961" xlink:href="#m4b873be51e" y="35.41796"/>
     <use style="fill:#ccb974;" x="102.949424" xlink:href="#m4b873be51e" y="35.417933"/>
     <use style="fill:#ccb974;" x="131.115054" xlink:href="#m4b873be51e" y="35.41794"/>
     <use style="fill:#ccb974;" x="151.098886" xlink:href="#m4b873be51e" y="35.417938"/>
     <use style="fill:#ccb974;" x="166.599551" xlink:href="#m4b873be51e" y="35.417931"/>
     <use style="fill:#ccb974;" x="179.264516" xlink:href="#m4b873be51e" y="35.417944"/>
    </g>
   </g>
   <g id="patch_3">
    <path d="M 54.101815 121.92 
L 54.101815 13.2 
" style="fill:none;stroke:#262626;stroke-linecap:square;stroke-linejoin:miter;stroke-width:1.25;"/>
   </g>
   <g id="patch_4">
    <path d="M 54.101815 121.92 
L 180.412724 121.92 
" style="fill:none;stroke:#262626;stroke-linecap:square;stroke-linejoin:miter;stroke-width:1.25;"/>
   </g>
  </g>
  <g id="axes_2">
   <g id="patch_5">
    <path d="M 205.674906 121.92 
L 331.985815 121.92 
L 331.985815 13.2 
L 205.674906 13.2 
z
" style="fill:#ffffff;"/>
   </g>
   <g id="matplotlib.axis_3">
    <g id="xtick_32">
     <g id="line2d_67">
      <g>
       <use style="fill:#262626;stroke:#262626;" x="211.416311" xlink:href="#m7a6e156762" y="121.92"/>
      </g>
     </g>
     <g id="text_13">
      <!-- [0.4, 0.5) -->
      <defs>
       <path d="M 23.5 -25 
L 23.5 -21.515625 
L 14.09375 -21.515625 
L 14.09375 71 
L 23.5 71 
L 23.5 74.484375 
L 10.59375 74.484375 
L 10.59375 -25 
z
" id="CMR17-91"/>
       <path d="M 16.59375 4.078125 
C 16.59375 6.5625 14.59375 8.15625 12.5 8.15625 
C 10.5 8.15625 8.40625 6.5625 8.40625 4.078125 
C 8.40625 1.59375 10.40625 0 12.5 0 
C 14.5 0 16.59375 1.59375 16.59375 4.078125 
z
" id="CMR17-46"/>
       <path d="M 15.796875 1.59375 
C 16 0.703125 16 0.390625 16 -1.203125 
C 16 -7.234375 14 -12.765625 9.796875 -17.796875 
C 9.296875 -18.28125 9.296875 -18.484375 9.296875 -18.703125 
C 9.296875 -19.09375 9.703125 -19.5 10.09375 -19.5 
C 10.703125 -19.5 17.59375 -12.484375 17.59375 -1.359375 
C 17.59375 1.9375 17.203125 8.15625 12.5 8.15625 
C 10.296875 8.15625 8.40625 6.671875 8.40625 4.078125 
C 8.40625 1.5 10.296875 0 12.5 0 
C 13.703125 0 15 0.5 15.796875 1.59375 
z
" id="CMR17-44"/>
      </defs>
      <g style="fill:#262626;" transform="translate(199.675191 167.208053)rotate(-45)scale(0.1 -0.1)">
       <use transform="scale(0.996264)" xlink:href="#CMR17-91"/>
       <use transform="translate(24.871058 0)scale(0.996264)" xlink:href="#CMR17-48"/>
       <use transform="translate(70.561536 0)scale(0.996264)" xlink:href="#CMR17-46"/>
       <use transform="translate(95.432594 0)scale(0.996264)" xlink:href="#CMR17-52"/>
       <use transform="translate(141.123071 0)scale(0.996264)" xlink:href="#CMR17-44"/>
       <use transform="translate(196.070096 0)scale(0.996264)" xlink:href="#CMR17-48"/>
       <use transform="translate(241.760573 0)scale(0.996264)" xlink:href="#CMR17-46"/>
       <use transform="translate(266.631632 0)scale(0.996264)" xlink:href="#CMR17-53"/>
       <use transform="translate(312.322109 0)scale(0.996264)" xlink:href="#CMR17-41"/>
      </g>
     </g>
    </g>
    <g id="xtick_33">
     <g id="line2d_68">
      <g>
       <use style="fill:#262626;stroke:#262626;" x="234.38193" xlink:href="#m7a6e156762" y="121.92"/>
      </g>
     </g>
     <g id="text_14">
      <!-- [0.5, 0.6) -->
      <defs>
       <path d="M 10.59375 34 
C 10.59375 57.65625 21.796875 63 28.296875 63 
C 30.40625 63 35.5 62.640625 37.5 59 
C 35.90625 59 32.90625 59 32.90625 55.515625 
C 32.90625 52.828125 35.09375 51.921875 36.5 51.921875 
C 37.40625 51.921875 40.09375 52.3125 40.09375 55.625 
C 40.09375 61.78125 35.09375 65.296875 28.203125 65.296875 
C 16.296875 65.296875 3.796875 52.96875 3.796875 31 
C 3.796875 3.953125 15.09375 -2 23.09375 -2 
C 32.796875 -2 42 6.671875 42 20.046875 
C 42 32.515625 33.90625 41.59375 23.703125 41.59375 
C 17.59375 41.59375 13.09375 37.609375 10.59375 30.625 
z
M 23.09375 0.390625 
C 10.796875 0.390625 10.796875 18.75 10.796875 22.4375 
C 10.796875 29.625 14.203125 40 23.5 40 
C 25.203125 40 30.09375 40 33.40625 33.125 
C 35.203125 29.21875 35.203125 25.140625 35.203125 20.140625 
C 35.203125 14.75 35.203125 10.78125 33.09375 6.78125 
C 30.90625 2.671875 27.703125 0.390625 23.09375 0.390625 
z
" id="CMR17-54"/>
      </defs>
      <g style="fill:#262626;" transform="translate(222.640811 167.208053)rotate(-45)scale(0.1 -0.1)">
       <use transform="scale(0.996264)" xlink:href="#CMR17-91"/>
       <use transform="translate(24.871058 0)scale(0.996264)" xlink:href="#CMR17-48"/>
       <use transform="translate(70.561536 0)scale(0.996264)" xlink:href="#CMR17-46"/>
       <use transform="translate(95.432594 0)scale(0.996264)" xlink:href="#CMR17-53"/>
       <use transform="translate(141.123071 0)scale(0.996264)" xlink:href="#CMR17-44"/>
       <use transform="translate(196.070096 0)scale(0.996264)" xlink:href="#CMR17-48"/>
       <use transform="translate(241.760573 0)scale(0.996264)" xlink:href="#CMR17-46"/>
       <use transform="translate(266.631632 0)scale(0.996264)" xlink:href="#CMR17-54"/>
       <use transform="translate(312.322109 0)scale(0.996264)" xlink:href="#CMR17-41"/>
      </g>
     </g>
    </g>
    <g id="xtick_34">
     <g id="line2d_69">
      <g>
       <use style="fill:#262626;stroke:#262626;" x="257.34755" xlink:href="#m7a6e156762" y="121.92"/>
      </g>
     </g>
     <g id="text_15">
      <!-- [0.6, 0.7) -->
      <defs>
       <path d="M 45.09375 61.578125 
L 45.09375 63.765625 
L 21.59375 63.765625 
C 9.90625 63.765625 9.703125 65.078125 9.296875 67 
L 7.5 67 
L 4.59375 48.34375 
L 6.40625 48.34375 
C 6.703125 50.234375 7.40625 55.3125 8.59375 57.203125 
C 9.203125 58 16.59375 58 18.296875 58 
L 40.296875 58 
L 29.203125 41.578125 
C 21.796875 30.53125 16.703125 15.609375 16.703125 2.578125 
C 16.703125 1.390625 16.703125 -2 20.296875 -2 
C 23.90625 -2 23.90625 1.390625 23.90625 2.671875 
L 23.90625 7.265625 
C 23.90625 23.5625 26.703125 34.3125 31.296875 41.1875 
z
" id="CMR17-55"/>
      </defs>
      <g style="fill:#262626;" transform="translate(245.60643 167.208053)rotate(-45)scale(0.1 -0.1)">
       <use transform="scale(0.996264)" xlink:href="#CMR17-91"/>
       <use transform="translate(24.871058 0)scale(0.996264)" xlink:href="#CMR17-48"/>
       <use transform="translate(70.561536 0)scale(0.996264)" xlink:href="#CMR17-46"/>
       <use transform="translate(95.432594 0)scale(0.996264)" xlink:href="#CMR17-54"/>
       <use transform="translate(141.123071 0)scale(0.996264)" xlink:href="#CMR17-44"/>
       <use transform="translate(196.070096 0)scale(0.996264)" xlink:href="#CMR17-48"/>
       <use transform="translate(241.760573 0)scale(0.996264)" xlink:href="#CMR17-46"/>
       <use transform="translate(266.631632 0)scale(0.996264)" xlink:href="#CMR17-55"/>
       <use transform="translate(312.322109 0)scale(0.996264)" xlink:href="#CMR17-41"/>
      </g>
     </g>
    </g>
    <g id="xtick_35">
     <g id="line2d_70">
      <g>
       <use style="fill:#262626;stroke:#262626;" x="280.31317" xlink:href="#m7a6e156762" y="121.92"/>
      </g>
     </g>
     <g id="text_16">
      <!-- [0.7, 0.8) -->
      <defs>
       <path d="M 27.203125 35.375 
C 33.5 38.546875 39.90625 43.328125 39.90625 50.984375 
C 39.90625 60.015625 31.09375 65.296875 23 65.296875 
C 13.90625 65.296875 5.90625 58.734375 5.90625 49.6875 
C 5.90625 47.203125 6.5 42.921875 10.40625 39.140625 
C 11.40625 38.15625 15.59375 35.171875 18.296875 33.28125 
C 13.796875 30.984375 3.296875 25.53125 3.296875 14.59375 
C 3.296875 4.359375 13.09375 -2 22.796875 -2 
C 33.5 -2 42.5 5.65625 42.5 15.78125 
C 42.5 24.84375 36.40625 29.015625 32.40625 31.703125 
z
M 14.09375 44.09375 
C 13.296875 44.59375 9.296875 47.671875 9.296875 52.359375 
C 9.296875 58.421875 15.59375 63 22.796875 63 
C 30.703125 63 36.5 57.4375 36.5 50.96875 
C 36.5 41.703125 26.09375 36.421875 25.59375 36.421875 
C 25.5 36.421875 25.40625 36.421875 24.59375 37.03125 
z
M 32.5 23.734375 
C 34 22.640625 38.796875 19.375 38.796875 13.296875 
C 38.796875 5.953125 31.40625 0.390625 23 0.390625 
C 13.90625 0.390625 7 6.84375 7 14.6875 
C 7 22.546875 13.09375 29.09375 20 32.1875 
z
" id="CMR17-56"/>
      </defs>
      <g style="fill:#262626;" transform="translate(268.57205 167.208053)rotate(-45)scale(0.1 -0.1)">
       <use transform="scale(0.996264)" xlink:href="#CMR17-91"/>
       <use transform="translate(24.871058 0)scale(0.996264)" xlink:href="#CMR17-48"/>
       <use transform="translate(70.561536 0)scale(0.996264)" xlink:href="#CMR17-46"/>
       <use transform="translate(95.432594 0)scale(0.996264)" xlink:href="#CMR17-55"/>
       <use transform="translate(141.123071 0)scale(0.996264)" xlink:href="#CMR17-44"/>
       <use transform="translate(196.070096 0)scale(0.996264)" xlink:href="#CMR17-48"/>
       <use transform="translate(241.760573 0)scale(0.996264)" xlink:href="#CMR17-46"/>
       <use transform="translate(266.631632 0)scale(0.996264)" xlink:href="#CMR17-56"/>
       <use transform="translate(312.322109 0)scale(0.996264)" xlink:href="#CMR17-41"/>
      </g>
     </g>
    </g>
    <g id="xtick_36">
     <g id="line2d_71">
      <g>
       <use style="fill:#262626;stroke:#262626;" x="303.27879" xlink:href="#m7a6e156762" y="121.92"/>
      </g>
     </g>
     <g id="text_17">
      <!-- [0.8, 0.9) -->
      <defs>
       <path d="M 35.203125 29.125 
C 35.203125 7.25 26.09375 0.484375 18.59375 0.484375 
C 16.296875 0.484375 10.703125 0.484375 8.40625 4.59375 
C 11 4.1875 12.90625 5.578125 12.90625 8.09375 
C 12.90625 10.8125 10.703125 11.703125 9.296875 11.703125 
C 8.40625 11.703125 5.703125 11.296875 5.703125 7.90625 
C 5.703125 1.109375 11.59375 -2 18.796875 -2 
C 30.296875 -2 42 10.53125 42 32.390625 
C 42 59.640625 30.796875 65.296875 23.203125 65.296875 
C 13.296875 65.296875 3.796875 56.6875 3.796875 43.40625 
C 3.796875 31.109375 11.90625 22 22.09375 22 
C 30.5 22 34.203125 29.734375 35.203125 33 
z
M 22.296875 23.59375 
C 19.59375 23.59375 15.796875 24.09375 12.703125 30.03125 
C 10.59375 33.890625 10.59375 38.453125 10.59375 43.296875 
C 10.59375 49.15625 10.59375 53.203125 13.40625 57.5625 
C 14.796875 59.640625 17.40625 63 23.203125 63 
C 35 63 35 45.078125 35 41.125 
C 35 34.09375 31.796875 23.59375 22.296875 23.59375 
z
" id="CMR17-57"/>
      </defs>
      <g style="fill:#262626;" transform="translate(291.53767 167.208053)rotate(-45)scale(0.1 -0.1)">
       <use transform="scale(0.996264)" xlink:href="#CMR17-91"/>
       <use transform="translate(24.871058 0)scale(0.996264)" xlink:href="#CMR17-48"/>
       <use transform="translate(70.561536 0)scale(0.996264)" xlink:href="#CMR17-46"/>
       <use transform="translate(95.432594 0)scale(0.996264)" xlink:href="#CMR17-56"/>
       <use transform="translate(141.123071 0)scale(0.996264)" xlink:href="#CMR17-44"/>
       <use transform="translate(196.070096 0)scale(0.996264)" xlink:href="#CMR17-48"/>
       <use transform="translate(241.760573 0)scale(0.996264)" xlink:href="#CMR17-46"/>
       <use transform="translate(266.631632 0)scale(0.996264)" xlink:href="#CMR17-57"/>
       <use transform="translate(312.322109 0)scale(0.996264)" xlink:href="#CMR17-41"/>
      </g>
     </g>
    </g>
    <g id="xtick_37">
     <g id="line2d_72">
      <g>
       <use style="fill:#262626;stroke:#262626;" x="326.24441" xlink:href="#m7a6e156762" y="121.92"/>
      </g>
     </g>
     <g id="text_18">
      <!-- [0.9, 1.0] -->
      <defs>
       <path d="M 14.296875 74.484375 
L 1.40625 74.484375 
L 1.40625 71 
L 10.796875 71 
L 10.796875 -21.515625 
L 1.40625 -21.515625 
L 1.40625 -25 
L 14.296875 -25 
z
" id="CMR17-93"/>
      </defs>
      <g style="fill:#262626;" transform="translate(314.894661 166.425311)rotate(-45)scale(0.1 -0.1)">
       <use transform="scale(0.996264)" xlink:href="#CMR17-91"/>
       <use transform="translate(24.871058 0)scale(0.996264)" xlink:href="#CMR17-48"/>
       <use transform="translate(70.561536 0)scale(0.996264)" xlink:href="#CMR17-46"/>
       <use transform="translate(95.432594 0)scale(0.996264)" xlink:href="#CMR17-57"/>
       <use transform="translate(141.123071 0)scale(0.996264)" xlink:href="#CMR17-44"/>
       <use transform="translate(196.070096 0)scale(0.996264)" xlink:href="#CMR17-49"/>
       <use transform="translate(241.760573 0)scale(0.996264)" xlink:href="#CMR17-46"/>
       <use transform="translate(266.631632 0)scale(0.996264)" xlink:href="#CMR17-48"/>
       <use transform="translate(312.322109 0)scale(0.996264)" xlink:href="#CMR17-93"/>
      </g>
     </g>
    </g>
    <g id="text_19">
     <!-- \begin{center}Hit rate\\[1ex](d)\end{center} -->
     <defs>
      <path d="M 56.09375 61.015625 
C 56.09375 65.5 57.203125 65.5 64.09375 65.5 
L 64.09375 68 
C 61.203125 68 55.90625 68 52.796875 68 
C 49.703125 68 44.40625 68 41.5 68 
L 41.5 65.5 
C 48.40625 65.5 49.5 65.5 49.5 61 
L 49.5 36.578125 
L 19.703125 36.578125 
L 19.703125 61 
C 19.703125 65.5 20.796875 65.5 27.703125 65.5 
L 27.703125 68 
C 24.796875 68 19.5 68 16.40625 68 
C 13.296875 68 8 68 5.09375 68 
L 5.09375 65.5 
C 12 65.5 13.09375 65.5 13.09375 61.015625 
L 13.09375 6.984375 
C 13.09375 2.5 12 2.5 5.09375 2.5 
L 5.09375 0 
C 8 0 13.296875 0 16.40625 0 
C 19.5 0 24.796875 0 27.703125 0 
L 27.703125 2.5 
C 20.796875 2.5 19.703125 2.5 19.703125 6.96875 
L 19.703125 34 
L 49.5 34 
L 49.5 6.96875 
C 49.5 2.5 48.40625 2.5 41.5 2.5 
L 41.5 0 
C 44.40625 0 49.703125 0 52.796875 0 
C 55.90625 0 61.203125 0 64.09375 0 
L 64.09375 2.5 
C 57.203125 2.5 56.09375 2.5 56.09375 6.984375 
z
" id="CMR17-72"/>
      <path d="M 29.203125 67.59375 
L 29.203125 65 
C 35.09375 65 36 64.40625 36 59.6875 
L 36 36.640625 
C 35.59375 37.140625 31.5 43.59375 23.40625 43.59375 
C 13.203125 43.59375 3.296875 34.5 3.296875 21.3125 
C 3.296875 8.203125 12.59375 -1 22.40625 -1 
C 30.90625 -1 35.296875 5.265625 35.796875 5.9375 
L 35.796875 -0.984375 
L 47.90625 -0.984375 
L 47.90625 2 
C 42 2 41.09375 2.59375 41.09375 7.390625 
L 41.09375 68.6875 
z
M 35.796875 11.796875 
C 35.796875 8.796875 34 6.09375 31.703125 4.09375 
C 28.296875 1.09375 24.90625 0.59375 23 0.59375 
C 20.09375 0.59375 9.703125 2.09375 9.703125 21.1875 
C 9.703125 40.8125 21.296875 42 23.90625 42 
C 28.5 42 32.203125 39.40625 34.5 35.796875 
C 35.796875 33.703125 35.796875 33.40625 35.796875 31.609375 
z
" id="CMR17-100"/>
     </defs>
     <g style="fill:#262626;" transform="translate(249.789223 198.874816)scale(0.11 -0.11)">
      <use transform="translate(0 167.421303)scale(0.996264)" xlink:href="#CMR17-72"/>
      <use transform="translate(69.07243 167.421303)scale(0.996264)" xlink:href="#CMR17-105"/>
      <use transform="translate(93.943488 167.421303)scale(0.996264)" xlink:href="#CMR17-116"/>
      <use transform="translate(159.300222 167.421303)scale(0.996264)" xlink:href="#CMR17-114"/>
      <use transform="translate(194.58099 167.421303)scale(0.996264)" xlink:href="#CMR17-97"/>
      <use transform="translate(240.271467 167.421303)scale(0.996264)" xlink:href="#CMR17-116"/>
      <use transform="translate(275.552235 167.421303)scale(0.996264)" xlink:href="#CMR17-101"/>
      <use transform="translate(97.290495 0)scale(0.996264)" xlink:href="#CMR17-40"/>
      <use transform="translate(132.571263 0)scale(0.996264)" xlink:href="#CMR17-100"/>
      <use transform="translate(183.466633 0)scale(0.996264)" xlink:href="#CMR17-41"/>
     </g>
    </g>
   </g>
   <g id="matplotlib.axis_4">
    <g id="ytick_30">
     <g id="line2d_73">
      <g>
       <use style="fill:#262626;stroke:#262626;" x="205.674906" xlink:href="#m416a5ff0a6" y="20.778706"/>
      </g>
     </g>
    </g>
    <g id="ytick_31">
     <g id="line2d_74">
      <g>
       <use style="fill:#262626;stroke:#262626;" x="205.674906" xlink:href="#m416a5ff0a6" y="53.694747"/>
      </g>
     </g>
    </g>
    <g id="ytick_32">
     <g id="line2d_75">
      <g>
       <use style="fill:#262626;stroke:#262626;" x="205.674906" xlink:href="#m416a5ff0a6" y="86.610788"/>
      </g>
     </g>
    </g>
    <g id="ytick_33">
     <g id="line2d_76">
      <g>
       <use style="fill:#262626;stroke:#262626;" x="205.674906" xlink:href="#m416a5ff0a6" y="119.526829"/>
      </g>
     </g>
    </g>
    <g id="ytick_34">
     <g id="line2d_77">
      <g>
       <use style="fill:#262626;stroke:#262626;stroke-width:0.5;" x="205.674906" xlink:href="#mff0db68402" y="121.032984"/>
      </g>
     </g>
    </g>
    <g id="ytick_35">
     <g id="line2d_78">
      <g>
       <use style="fill:#262626;stroke:#262626;stroke-width:0.5;" x="205.674906" xlink:href="#mff0db68402" y="109.618113"/>
      </g>
     </g>
    </g>
    <g id="ytick_36">
     <g id="line2d_79">
      <g>
       <use style="fill:#262626;stroke:#262626;stroke-width:0.5;" x="205.674906" xlink:href="#mff0db68402" y="103.821886"/>
      </g>
     </g>
    </g>
    <g id="ytick_37">
     <g id="line2d_80">
      <g>
       <use style="fill:#262626;stroke:#262626;stroke-width:0.5;" x="205.674906" xlink:href="#mff0db68402" y="99.709398"/>
      </g>
     </g>
    </g>
    <g id="ytick_38">
     <g id="line2d_81">
      <g>
       <use style="fill:#262626;stroke:#262626;stroke-width:0.5;" x="205.674906" xlink:href="#mff0db68402" y="96.519504"/>
      </g>
     </g>
    </g>
    <g id="ytick_39">
     <g id="line2d_82">
      <g>
       <use style="fill:#262626;stroke:#262626;stroke-width:0.5;" x="205.674906" xlink:href="#mff0db68402" y="93.913171"/>
      </g>
     </g>
    </g>
    <g id="ytick_40">
     <g id="line2d_83">
      <g>
       <use style="fill:#262626;stroke:#262626;stroke-width:0.5;" x="205.674906" xlink:href="#mff0db68402" y="91.709547"/>
      </g>
     </g>
    </g>
    <g id="ytick_41">
     <g id="line2d_84">
      <g>
       <use style="fill:#262626;stroke:#262626;stroke-width:0.5;" x="205.674906" xlink:href="#mff0db68402" y="89.800682"/>
      </g>
     </g>
    </g>
    <g id="ytick_42">
     <g id="line2d_85">
      <g>
       <use style="fill:#262626;stroke:#262626;stroke-width:0.5;" x="205.674906" xlink:href="#mff0db68402" y="88.116943"/>
      </g>
     </g>
    </g>
    <g id="ytick_43">
     <g id="line2d_86">
      <g>
       <use style="fill:#262626;stroke:#262626;stroke-width:0.5;" x="205.674906" xlink:href="#mff0db68402" y="76.702072"/>
      </g>
     </g>
    </g>
    <g id="ytick_44">
     <g id="line2d_87">
      <g>
       <use style="fill:#262626;stroke:#262626;stroke-width:0.5;" x="205.674906" xlink:href="#mff0db68402" y="70.905845"/>
      </g>
     </g>
    </g>
    <g id="ytick_45">
     <g id="line2d_88">
      <g>
       <use style="fill:#262626;stroke:#262626;stroke-width:0.5;" x="205.674906" xlink:href="#mff0db68402" y="66.793357"/>
      </g>
     </g>
    </g>
    <g id="ytick_46">
     <g id="line2d_89">
      <g>
       <use style="fill:#262626;stroke:#262626;stroke-width:0.5;" x="205.674906" xlink:href="#mff0db68402" y="63.603463"/>
      </g>
     </g>
    </g>
    <g id="ytick_47">
     <g id="line2d_90">
      <g>
       <use style="fill:#262626;stroke:#262626;stroke-width:0.5;" x="205.674906" xlink:href="#mff0db68402" y="60.99713"/>
      </g>
     </g>
    </g>
    <g id="ytick_48">
     <g id="line2d_91">
      <g>
       <use style="fill:#262626;stroke:#262626;stroke-width:0.5;" x="205.674906" xlink:href="#mff0db68402" y="58.793506"/>
      </g>
     </g>
    </g>
    <g id="ytick_49">
     <g id="line2d_92">
      <g>
       <use style="fill:#262626;stroke:#262626;stroke-width:0.5;" x="205.674906" xlink:href="#mff0db68402" y="56.884641"/>
      </g>
     </g>
    </g>
    <g id="ytick_50">
     <g id="line2d_93">
      <g>
       <use style="fill:#262626;stroke:#262626;stroke-width:0.5;" x="205.674906" xlink:href="#mff0db68402" y="55.200903"/>
      </g>
     </g>
    </g>
    <g id="ytick_51">
     <g id="line2d_94">
      <g>
       <use style="fill:#262626;stroke:#262626;stroke-width:0.5;" x="205.674906" xlink:href="#mff0db68402" y="43.786031"/>
      </g>
     </g>
    </g>
    <g id="ytick_52">
     <g id="line2d_95">
      <g>
       <use style="fill:#262626;stroke:#262626;stroke-width:0.5;" x="205.674906" xlink:href="#mff0db68402" y="37.989804"/>
      </g>
     </g>
    </g>
    <g id="ytick_53">
     <g id="line2d_96">
      <g>
       <use style="fill:#262626;stroke:#262626;stroke-width:0.5;" x="205.674906" xlink:href="#mff0db68402" y="33.877316"/>
      </g>
     </g>
    </g>
    <g id="ytick_54">
     <g id="line2d_97">
      <g>
       <use style="fill:#262626;stroke:#262626;stroke-width:0.5;" x="205.674906" xlink:href="#mff0db68402" y="30.687422"/>
      </g>
     </g>
    </g>
    <g id="ytick_55">
     <g id="line2d_98">
      <g>
       <use style="fill:#262626;stroke:#262626;stroke-width:0.5;" x="205.674906" xlink:href="#mff0db68402" y="28.081089"/>
      </g>
     </g>
    </g>
    <g id="ytick_56">
     <g id="line2d_99">
      <g>
       <use style="fill:#262626;stroke:#262626;stroke-width:0.5;" x="205.674906" xlink:href="#mff0db68402" y="25.877466"/>
      </g>
     </g>
    </g>
    <g id="ytick_57">
     <g id="line2d_100">
      <g>
       <use style="fill:#262626;stroke:#262626;stroke-width:0.5;" x="205.674906" xlink:href="#mff0db68402" y="23.9686"/>
      </g>
     </g>
    </g>
    <g id="ytick_58">
     <g id="line2d_101">
      <g>
       <use style="fill:#262626;stroke:#262626;stroke-width:0.5;" x="205.674906" xlink:href="#mff0db68402" y="22.284862"/>
      </g>
     </g>
    </g>
   </g>
   <g id="line2d_102">
    <path clip-path="url(#p30f4de5a4e)" d="M 211.416311 107.157206 
L 234.38193 110.049641 
L 257.34755 103.675278 
L 280.31317 106.427239 
L 303.27879 105.002173 
" style="fill:none;stroke:#4c72b0;stroke-linecap:round;stroke-width:2;"/>
    <g clip-path="url(#p30f4de5a4e)">
     <use style="fill:#4c72b0;" x="211.416311" xlink:href="#m97d37a9cf7" y="107.157206"/>
     <use style="fill:#4c72b0;" x="234.38193" xlink:href="#m97d37a9cf7" y="110.049641"/>
     <use style="fill:#4c72b0;" x="257.34755" xlink:href="#m97d37a9cf7" y="103.675278"/>
     <use style="fill:#4c72b0;" x="280.31317" xlink:href="#m97d37a9cf7" y="106.427239"/>
     <use style="fill:#4c72b0;" x="303.27879" xlink:href="#m97d37a9cf7" y="105.002173"/>
    </g>
   </g>
   <g id="line2d_103">
    <path clip-path="url(#p30f4de5a4e)" d="M 211.416311 52.639558 
L 234.38193 39.61953 
L 257.34755 34.477602 
L 280.31317 27.279928 
L 303.27879 21.376917 
" style="fill:none;stroke:#4c72b0;stroke-dasharray:7.4,3.2;stroke-dashoffset:0;stroke-width:2;"/>
    <g clip-path="url(#p30f4de5a4e)">
     <use style="fill:#4c72b0;" x="211.416311" xlink:href="#m97d37a9cf7" y="52.639558"/>
     <use style="fill:#4c72b0;" x="234.38193" xlink:href="#m97d37a9cf7" y="39.61953"/>
     <use style="fill:#4c72b0;" x="257.34755" xlink:href="#m97d37a9cf7" y="34.477602"/>
     <use style="fill:#4c72b0;" x="280.31317" xlink:href="#m97d37a9cf7" y="27.279928"/>
     <use style="fill:#4c72b0;" x="303.27879" xlink:href="#m97d37a9cf7" y="21.376917"/>
    </g>
   </g>
   <g id="line2d_104">
    <path clip-path="url(#p30f4de5a4e)" d="M 234.38193 116.978182 
L 257.34755 116.199708 
L 280.31317 112.59756 
L 303.27879 106.925796 
L 326.24441 103.288496 
" style="fill:none;stroke:#c44e52;stroke-linecap:round;stroke-width:2;"/>
    <g clip-path="url(#p30f4de5a4e)">
     <use style="fill:#c44e52;" x="234.38193" xlink:href="#m1093fe8a12" y="116.978182"/>
     <use style="fill:#c44e52;" x="257.34755" xlink:href="#m1093fe8a12" y="116.199708"/>
     <use style="fill:#c44e52;" x="280.31317" xlink:href="#m1093fe8a12" y="112.59756"/>
     <use style="fill:#c44e52;" x="303.27879" xlink:href="#m1093fe8a12" y="106.925796"/>
     <use style="fill:#c44e52;" x="326.24441" xlink:href="#m1093fe8a12" y="103.288496"/>
    </g>
   </g>
   <g id="line2d_105">
    <path clip-path="url(#p30f4de5a4e)" d="M 234.38193 47.986593 
L 257.34755 37.921885 
L 280.31317 32.488244 
L 303.27879 25.854197 
L 326.24441 18.141818 
" style="fill:none;stroke:#c44e52;stroke-dasharray:7.4,3.2;stroke-dashoffset:0;stroke-width:2;"/>
    <g clip-path="url(#p30f4de5a4e)">
     <use style="fill:#c44e52;" x="234.38193" xlink:href="#m1093fe8a12" y="47.986593"/>
     <use style="fill:#c44e52;" x="257.34755" xlink:href="#m1093fe8a12" y="37.921885"/>
     <use style="fill:#c44e52;" x="280.31317" xlink:href="#m1093fe8a12" y="32.488244"/>
     <use style="fill:#c44e52;" x="303.27879" xlink:href="#m1093fe8a12" y="25.854197"/>
     <use style="fill:#c44e52;" x="326.24441" xlink:href="#m1093fe8a12" y="18.141818"/>
    </g>
   </g>
   <g id="line2d_106">
    <path clip-path="url(#p30f4de5a4e)" d="M 234.38193 102.146847 
L 257.34755 101.688468 
L 280.31317 99.041977 
L 303.27879 97.78621 
L 326.24441 101.77808 
" style="fill:none;stroke:#ccb974;stroke-linecap:round;stroke-width:2;"/>
    <g clip-path="url(#p30f4de5a4e)">
     <use style="fill:#ccb974;" x="234.38193" xlink:href="#m4b873be51e" y="102.146847"/>
     <use style="fill:#ccb974;" x="257.34755" xlink:href="#m4b873be51e" y="101.688468"/>
     <use style="fill:#ccb974;" x="280.31317" xlink:href="#m4b873be51e" y="99.041977"/>
     <use style="fill:#ccb974;" x="303.27879" xlink:href="#m4b873be51e" y="97.78621"/>
     <use style="fill:#ccb974;" x="326.24441" xlink:href="#m4b873be51e" y="101.77808"/>
    </g>
   </g>
   <g id="line2d_107">
    <path clip-path="url(#p30f4de5a4e)" d="M 234.38193 50.759281 
L 257.34755 42.809485 
L 280.31317 33.405981 
L 303.27879 30.268516 
L 326.24441 25.248129 
" style="fill:none;stroke:#ccb974;stroke-dasharray:7.4,3.2;stroke-dashoffset:0;stroke-width:2;"/>
    <g clip-path="url(#p30f4de5a4e)">
     <use style="fill:#ccb974;" x="234.38193" xlink:href="#m4b873be51e" y="50.759281"/>
     <use style="fill:#ccb974;" x="257.34755" xlink:href="#m4b873be51e" y="42.809485"/>
     <use style="fill:#ccb974;" x="280.31317" xlink:href="#m4b873be51e" y="33.405981"/>
     <use style="fill:#ccb974;" x="303.27879" xlink:href="#m4b873be51e" y="30.268516"/>
     <use style="fill:#ccb974;" x="326.24441" xlink:href="#m4b873be51e" y="25.248129"/>
    </g>
   </g>
   <g id="patch_6">
    <path d="M 205.674906 121.92 
L 205.674906 13.2 
" style="fill:none;stroke:#262626;stroke-linecap:square;stroke-linejoin:miter;stroke-width:1.25;"/>
   </g>
   <g id="patch_7">
    <path d="M 205.674906 121.92 
L 331.985815 121.92 
" style="fill:none;stroke:#262626;stroke-linecap:square;stroke-linejoin:miter;stroke-width:1.25;"/>
   </g>
  </g>
 </g>
 <defs>
  <clipPath id="p53a766893a">
   <rect height="108.72" width="126.310909" x="54.101815" y="13.2"/>
  </clipPath>
  <clipPath id="p30f4de5a4e">
   <rect height="108.72" width="126.310909" x="205.674906" y="13.2"/>
  </clipPath>
 </defs>
</svg>
