<?xml version="1.0" encoding="UTF-8" standalone="no"?>
<!-- Created with matplotlib (http://matplotlib.org/) -->

<svg
   xmlns:dc="http://purl.org/dc/elements/1.1/"
   xmlns:cc="http://creativecommons.org/ns#"
   xmlns:rdf="http://www.w3.org/1999/02/22-rdf-syntax-ns#"
   xmlns:svg="http://www.w3.org/2000/svg"
   xmlns="http://www.w3.org/2000/svg"
   xmlns:xlink="http://www.w3.org/1999/xlink"
   xmlns:sodipodi="http://sodipodi.sourceforge.net/DTD/sodipodi-0.dtd"
   xmlns:inkscape="http://www.inkscape.org/namespaces/inkscape"
   height="174pt"
   version="1.1"
   viewBox="0 0 426 174"
   width="426pt"
   id="svg415"
   sodipodi:docname="opto-powerlaw.svg"
   inkscape:version="0.92.3 (unknown)">
  <metadata
     id="metadata419">
    <rdf:RDF>
      <cc:Work
         rdf:about="">
        <dc:format>image/svg+xml</dc:format>
        <dc:type
           rdf:resource="http://purl.org/dc/dcmitype/StillImage" />
      </cc:Work>
    </rdf:RDF>
  </metadata>
  <sodipodi:namedview
     pagecolor="#ffffff"
     bordercolor="#666666"
     borderopacity="1"
     objecttolerance="10"
     gridtolerance="10"
     guidetolerance="10"
     inkscape:pageopacity="0"
     inkscape:pageshadow="2"
     inkscape:window-width="1867"
     inkscape:window-height="1056"
     id="namedview417"
     showgrid="false"
     inkscape:zoom="1.5885004"
     inkscape:cx="202.36538"
     inkscape:cy="175.30236"
     inkscape:window-x="53"
     inkscape:window-y="24"
     inkscape:window-maximized="1"
     inkscape:current-layer="svg415" />
  <defs
     id="defs4">
    <style
       type="text/css"
       id="style2">
*{stroke-linecap:butt;stroke-linejoin:round;}
  </style>
    <marker
       inkscape:isstock="true"
       style="overflow:visible"
       id="Arrow1Lstart-7-5-9"
       refX="0"
       refY="0"
       orient="auto"
       inkscape:stockid="Arrow1Lstart">
      <path
         transform="matrix(0.8,0,0,0.8,10,0)"
         style="fill:#000000;fill-opacity:1;fill-rule:evenodd;stroke:#000000;stroke-width:1pt;stroke-opacity:1"
         d="M 0,0 5,-5 -12.5,0 5,5 0,0 Z"
         id="path6068-5-6-1"
         inkscape:connector-curvature="0" />
    </marker>
    <marker
       inkscape:isstock="true"
       style="overflow:visible"
       id="marker9604"
       refX="0"
       refY="0"
       orient="auto"
       inkscape:stockid="Arrow1Lstart">
      <path
         transform="matrix(0.8,0,0,0.8,10,0)"
         style="fill:#000000;fill-opacity:1;fill-rule:evenodd;stroke:#000000;stroke-width:1pt;stroke-opacity:1"
         d="M 0,0 5,-5 -12.5,0 5,5 0,0 Z"
         id="path9606"
         inkscape:connector-curvature="0" />
    </marker>
    <marker
       inkscape:isstock="true"
       style="overflow:visible"
       id="Arrow1Lstart-7-2"
       refX="0"
       refY="0"
       orient="auto"
       inkscape:stockid="Arrow1Lstart">
      <path
         transform="matrix(0.8,0,0,0.8,10,0)"
         style="fill:#000000;fill-opacity:1;fill-rule:evenodd;stroke:#000000;stroke-width:1pt;stroke-opacity:1"
         d="M 0,0 5,-5 -12.5,0 5,5 0,0 Z"
         id="path6068-5-7"
         inkscape:connector-curvature="0" />
    </marker>
    <marker
       inkscape:isstock="true"
       style="overflow:visible"
       id="marker9610"
       refX="0"
       refY="0"
       orient="auto"
       inkscape:stockid="Arrow1Lstart">
      <path
         transform="matrix(0.8,0,0,0.8,10,0)"
         style="fill:#000000;fill-opacity:1;fill-rule:evenodd;stroke:#000000;stroke-width:1pt;stroke-opacity:1"
         d="M 0,0 5,-5 -12.5,0 5,5 0,0 Z"
         id="path9612"
         inkscape:connector-curvature="0" />
    </marker>
    <marker
       inkscape:isstock="true"
       style="overflow:visible"
       id="Arrow1Lstart-7-5"
       refX="0"
       refY="0"
       orient="auto"
       inkscape:stockid="Arrow1Lstart">
      <path
         transform="matrix(0.8,0,0,0.8,10,0)"
         style="fill:#000000;fill-opacity:1;fill-rule:evenodd;stroke:#000000;stroke-width:1pt;stroke-opacity:1"
         d="M 0,0 5,-5 -12.5,0 5,5 0,0 Z"
         id="path6068-5-6"
         inkscape:connector-curvature="0" />
    </marker>
    <marker
       inkscape:isstock="true"
       style="overflow:visible"
       id="marker9616"
       refX="0"
       refY="0"
       orient="auto"
       inkscape:stockid="Arrow1Lstart">
      <path
         transform="matrix(0.8,0,0,0.8,10,0)"
         style="fill:#000000;fill-opacity:1;fill-rule:evenodd;stroke:#000000;stroke-width:1pt;stroke-opacity:1"
         d="M 0,0 5,-5 -12.5,0 5,5 0,0 Z"
         id="path9618"
         inkscape:connector-curvature="0" />
    </marker>
    <marker
       inkscape:isstock="true"
       style="overflow:visible"
       id="Arrow1Lstart-7"
       refX="0"
       refY="0"
       orient="auto"
       inkscape:stockid="Arrow1Lstart">
      <path
         transform="matrix(0.8,0,0,0.8,10,0)"
         style="fill:#000000;fill-opacity:1;fill-rule:evenodd;stroke:#000000;stroke-width:1pt;stroke-opacity:1"
         d="M 0,0 5,-5 -12.5,0 5,5 0,0 Z"
         id="path6068-5"
         inkscape:connector-curvature="0" />
    </marker>
    <marker
       inkscape:isstock="true"
       style="overflow:visible"
       id="marker9622"
       refX="0"
       refY="0"
       orient="auto"
       inkscape:stockid="Arrow1Lstart">
      <path
         transform="matrix(0.8,0,0,0.8,10,0)"
         style="fill:#000000;fill-opacity:1;fill-rule:evenodd;stroke:#000000;stroke-width:1pt;stroke-opacity:1"
         d="M 0,0 5,-5 -12.5,0 5,5 0,0 Z"
         id="path9624"
         inkscape:connector-curvature="0" />
    </marker>
    <radialGradient
       gradientUnits="userSpaceOnUse"
       gradientTransform="matrix(0.00137657,0.06619621,-1.5556435,0.03241131,1255.2886,483.65394)"
       r="121.07143"
       fy="666.711"
       fx="586.04224"
       cy="666.711"
       cx="586.04224"
       id="radialGradient5065"
       xlink:href="#linearGradient5009"
       inkscape:collect="always" />
    <linearGradient
       id="linearGradient5009">
      <stop
         style="stop-color:#1a1b1f;stop-opacity:1;"
         offset="0"
         id="stop5011" />
      <stop
         id="stop5013"
         offset="0"
         style="stop-color:#7e7e81;stop-opacity:1;" />
      <stop
         style="stop-color:#c7c9cb;stop-opacity:1;"
         offset="0.00000007"
         id="stop5015" />
      <stop
         id="stop5017"
         offset="0.00000001"
         style="stop-color:#f2f2f2;stop-opacity:1;" />
      <stop
         style="stop-color:#555758;stop-opacity:1;"
         offset="0.67030871"
         id="stop5019" />
      <stop
         id="stop5021"
         offset="0.99999988"
         style="stop-color:#bbb9b5;stop-opacity:1;" />
      <stop
         style="stop-color:#949696;stop-opacity:1;"
         offset="1"
         id="stop5023" />
    </linearGradient>
    <linearGradient
       gradientTransform="matrix(-0.31764408,0.07563651,-0.30847583,-0.07788451,653.51186,555.07138)"
       gradientUnits="userSpaceOnUse"
       y2="548.78442"
       x2="413.05945"
       y1="733.79077"
       x1="605.71429"
       id="linearGradient4180"
       xlink:href="#linearGradient4174"
       inkscape:collect="always" />
    <linearGradient
       id="linearGradient4174"
       inkscape:collect="always">
      <stop
         id="stop4176"
         offset="0"
         style="stop-color:#00ffff;stop-opacity:1;" />
      <stop
         id="stop4178"
         offset="1"
         style="stop-color:#00ffff;stop-opacity:0;" />
    </linearGradient>
  </defs>
  <g
     id="figure_1">
    <g
       id="patch_1">
      <path
         d="M 0 174.739875  L 426.185199 174.739875  L 426.185199 0  L 0 0  z "
         style="fill:#ffffff;"
         id="path6" />
    </g>
    <g
       id="axes_1">
      <g
         id="patch_2">
        <path
           d="M 52.553018 136.725295  L 330.437018 136.725295  L 330.437018 28.005295  L 52.553018 28.005295  z "
           style="fill:#ffffff;"
           id="path9" />
      </g>
      <g
         id="matplotlib.axis_1">
        <g
           id="xtick_1">
          <g
             id="line2d_1" />
          <g
             id="text_1">
            <!-- $0.0$ -->
            <defs
               id="defs15">
              <path
                 d="M 42 31.640625  C 42 37.75 41.90625 48.125 37.703125 56.109375  C 34 63.109375 28.09375 65.59375 22.90625 65.59375  C 18.09375 65.59375 12 63.40625 8.203125 56.203125  C 4.203125 48.71875 3.796875 39.4375 3.796875 31.640625  C 3.796875 25.953125 3.90625 17.28125 7 9.671875  C 11.296875 -0.609375 19 -2 22.90625 -2  C 27.5 -2 34.5 -0.109375 38.59375 9.375  C 41.59375 16.28125 42 24.359375 42 31.640625  z M 22.90625 -0.40625  C 16.5 -0.40625 12.703125 5.078125 11.296875 12.6875  C 10.203125 18.5625 10.203125 27.15625 10.203125 32.75  C 10.203125 40.4375 10.203125 46.828125 11.5 52.921875  C 13.40625 61.390625 19 64 22.90625 64  C 27 64 32.296875 61.296875 34.203125 53.125  C 35.5 47.4375 35.59375 40.734375 35.59375 32.75  C 35.59375 26.25 35.59375 18.265625 34.40625 12.375  C 32.296875 1.484375 26.40625 -0.40625 22.90625 -0.40625  z "
                 id="CMR17-48" />
              <path
                 d="M 18.40625 4.796875  C 18.40625 7.6875 16 9.671875 13.59375 9.671875  C 10.703125 9.671875 8.703125 7.28125 8.703125 4.890625  C 8.703125 2 11.09375 0 13.5 0  C 16.40625 0 18.40625 2.390625 18.40625 4.796875  z "
                 id="CMMI12-58" />
            </defs>
            <g
               style="fill:#262626;"
               transform="translate(58.81907 150.643793)scale(0.1 -0.1)"
               id="g23">
              <use
                 transform="scale(0.996264)"
                 xlink:href="#CMR17-48"
                 id="use17" />
              <use
                 transform="translate(45.690477 0)scale(0.996264)"
                 xlink:href="#CMMI12-58"
                 id="use19" />
              <use
                 transform="translate(72.787654 0)scale(0.996264)"
                 xlink:href="#CMR17-48"
                 id="use21" />
            </g>
          </g>
        </g>
        <g
           id="xtick_2">
          <g
             id="line2d_2" />
          <g
             id="text_2">
            <!-- $0.2$ -->
            <defs
               id="defs29">
              <path
                 d="M 41.703125 15.453125  L 39.90625 15.453125  C 38.90625 8.375 38.09375 7.171875 37.703125 6.5625  C 37.203125 5.765625 30 5.765625 28.59375 5.765625  L 9.40625 5.765625  C 13 9.671875 20 16.75 28.5 24.953125  C 34.59375 30.734375 41.703125 37.53125 41.703125 47.421875  C 41.703125 59.21875 32.296875 66 21.796875 66  C 10.796875 66 4.09375 56.3125 4.09375 47.34375  C 4.09375 43.4375 7 42.9375 8.203125 42.9375  C 9.203125 42.9375 12.203125 43.546875 12.203125 47.03125  C 12.203125 50.109375 9.59375 51 8.203125 51  C 7.59375 51 7 50.90625 6.59375 50.703125  C 8.5 59.21875 14.296875 63.40625 20.40625 63.40625  C 29.09375 63.40625 34.796875 56.515625 34.796875 47.421875  C 34.796875 38.734375 29.703125 31.25 24 24.75  L 4.09375 2.28125  L 4.09375 0  L 39.296875 0  z "
                 id="CMR17-50" />
            </defs>
            <g
               style="fill:#262626;"
               transform="translate(109.343433 150.643793)scale(0.1 -0.1)"
               id="g37">
              <use
                 transform="scale(0.996264)"
                 xlink:href="#CMR17-48"
                 id="use31" />
              <use
                 transform="translate(45.690477 0)scale(0.996264)"
                 xlink:href="#CMMI12-58"
                 id="use33" />
              <use
                 transform="translate(72.787654 0)scale(0.996264)"
                 xlink:href="#CMR17-50"
                 id="use35" />
            </g>
          </g>
        </g>
        <g
           id="xtick_3">
          <g
             id="line2d_3" />
          <g
             id="text_3">
            <!-- $0.4$ -->
            <defs
               id="defs43">
              <path
                 d="M 33.59375 64.40625  C 33.59375 66.5 33.5 66.5 31.703125 66.5  L 2 19.59375  L 2 17  L 27.796875 17  L 27.796875 7.140625  C 27.796875 3.5 27.59375 2.5 20.59375 2.5  L 18.703125 2.5  L 18.703125 0  C 21.90625 0 27.296875 0 30.703125 0  C 34.09375 0 39.5 0 42.703125 0  L 42.703125 2.5  L 40.796875 2.5  C 33.796875 2.5 33.59375 3.5 33.59375 7.140625  L 33.59375 17  L 43.796875 17  L 43.796875 19.59375  L 33.59375 19.59375  z M 28.09375 57.859375  L 28.09375 19.59375  L 4 19.59375  z "
                 id="CMR17-52" />
            </defs>
            <g
               style="fill:#262626;"
               transform="translate(159.867797 150.643793)scale(0.1 -0.1)"
               id="g51">
              <use
                 transform="scale(0.996264)"
                 xlink:href="#CMR17-48"
                 id="use45" />
              <use
                 transform="translate(45.690477 0)scale(0.996264)"
                 xlink:href="#CMMI12-58"
                 id="use47" />
              <use
                 transform="translate(72.787654 0)scale(0.996264)"
                 xlink:href="#CMR17-52"
                 id="use49" />
            </g>
          </g>
        </g>
        <g
           id="xtick_4">
          <g
             id="line2d_4" />
          <g
             id="text_4">
            <!-- $0.6$ -->
            <defs
               id="defs57">
              <path
                 d="M 10.59375 34  C 10.59375 57.65625 21.796875 63 28.296875 63  C 30.40625 63 35.5 62.640625 37.5 59  C 35.90625 59 32.90625 59 32.90625 55.515625  C 32.90625 52.828125 35.09375 51.921875 36.5 51.921875  C 37.40625 51.921875 40.09375 52.3125 40.09375 55.625  C 40.09375 61.78125 35.09375 65.296875 28.203125 65.296875  C 16.296875 65.296875 3.796875 52.96875 3.796875 31  C 3.796875 3.953125 15.09375 -2 23.09375 -2  C 32.796875 -2 42 6.671875 42 20.046875  C 42 32.515625 33.90625 41.59375 23.703125 41.59375  C 17.59375 41.59375 13.09375 37.609375 10.59375 30.625  z M 23.09375 0.390625  C 10.796875 0.390625 10.796875 18.75 10.796875 22.4375  C 10.796875 29.625 14.203125 40 23.5 40  C 25.203125 40 30.09375 40 33.40625 33.125  C 35.203125 29.21875 35.203125 25.140625 35.203125 20.140625  C 35.203125 14.75 35.203125 10.78125 33.09375 6.78125  C 30.90625 2.671875 27.703125 0.390625 23.09375 0.390625  z "
                 id="CMR17-54" />
            </defs>
            <g
               style="fill:#262626;"
               transform="translate(210.392161 150.643793)scale(0.1 -0.1)"
               id="g65">
              <use
                 transform="scale(0.996264)"
                 xlink:href="#CMR17-48"
                 id="use59" />
              <use
                 transform="translate(45.690477 0)scale(0.996264)"
                 xlink:href="#CMMI12-58"
                 id="use61" />
              <use
                 transform="translate(72.787654 0)scale(0.996264)"
                 xlink:href="#CMR17-54"
                 id="use63" />
            </g>
          </g>
        </g>
        <g
           id="xtick_5">
          <g
             id="line2d_5" />
          <g
             id="text_5">
            <!-- $0.8$ -->
            <defs
               id="defs71">
              <path
                 d="M 27.203125 35.375  C 33.5 38.546875 39.90625 43.328125 39.90625 50.984375  C 39.90625 60.015625 31.09375 65.296875 23 65.296875  C 13.90625 65.296875 5.90625 58.734375 5.90625 49.6875  C 5.90625 47.203125 6.5 42.921875 10.40625 39.140625  C 11.40625 38.15625 15.59375 35.171875 18.296875 33.28125  C 13.796875 30.984375 3.296875 25.53125 3.296875 14.59375  C 3.296875 4.359375 13.09375 -2 22.796875 -2  C 33.5 -2 42.5 5.65625 42.5 15.78125  C 42.5 24.84375 36.40625 29.015625 32.40625 31.703125  z M 14.09375 44.09375  C 13.296875 44.59375 9.296875 47.671875 9.296875 52.359375  C 9.296875 58.421875 15.59375 63 22.796875 63  C 30.703125 63 36.5 57.4375 36.5 50.96875  C 36.5 41.703125 26.09375 36.421875 25.59375 36.421875  C 25.5 36.421875 25.40625 36.421875 24.59375 37.03125  z M 32.5 23.734375  C 34 22.640625 38.796875 19.375 38.796875 13.296875  C 38.796875 5.953125 31.40625 0.390625 23 0.390625  C 13.90625 0.390625 7 6.84375 7 14.6875  C 7 22.546875 13.09375 29.09375 20 32.1875  z "
                 id="CMR17-56" />
            </defs>
            <g
               style="fill:#262626;"
               transform="translate(260.916524 150.643793)scale(0.1 -0.1)"
               id="g79">
              <use
                 transform="scale(0.996264)"
                 xlink:href="#CMR17-48"
                 id="use73" />
              <use
                 transform="translate(45.690477 0)scale(0.996264)"
                 xlink:href="#CMMI12-58"
                 id="use75" />
              <use
                 transform="translate(72.787654 0)scale(0.996264)"
                 xlink:href="#CMR17-56"
                 id="use77" />
            </g>
          </g>
        </g>
        <g
           id="xtick_6">
          <g
             id="line2d_6" />
          <g
             id="text_6">
            <!-- $1.0$ -->
            <defs
               id="defs85">
              <path
                 d="M 26.59375 63.40625  C 26.59375 65.5 26.5 65.5 25.09375 65.5  C 21.203125 61.1875 15.296875 59.796875 9.703125 59.796875  C 9.40625 59.796875 8.90625 59.796875 8.796875 59.5  C 8.703125 59.296875 8.703125 59.09375 8.703125 57  C 11.796875 57 17 57.59375 21 59.984375  L 21 7.203125  C 21 3.6875 20.796875 2.5 12.203125 2.5  L 9.203125 2.5  L 9.203125 0  C 14 0 19 0 23.796875 0  C 28.59375 0 33.59375 0 38.40625 0  L 38.40625 2.5  L 35.40625 2.5  C 26.796875 2.5 26.59375 3.59375 26.59375 7.15625  z "
                 id="CMR17-49" />
            </defs>
            <g
               style="fill:#262626;"
               transform="translate(311.440888 150.643793)scale(0.1 -0.1)"
               id="g93">
              <use
                 transform="scale(0.996264)"
                 xlink:href="#CMR17-49"
                 id="use87" />
              <use
                 transform="translate(45.690477 0)scale(0.996264)"
                 xlink:href="#CMMI12-58"
                 id="use89" />
              <use
                 transform="translate(72.787654 0)scale(0.996264)"
                 xlink:href="#CMR17-48"
                 id="use91" />
            </g>
          </g>
        </g>
        <g
           id="text_7">
          <!-- Depth [mm] -->
          <defs
             id="defs105">
            <path
               d="M 5.203125 68  L 5.203125 65.40625  C 12.09375 65.40625 13.203125 65.40625 13.203125 60.9375  L 13.203125 7.0625  C 13.203125 2.59375 12.09375 2.59375 5.203125 2.59375  L 5.203125 0  L 37 0  C 53.09375 0 66 14.734375 66 33.453125  C 66 52.28125 53.296875 68 37 68  z M 23.796875 2.59375  C 19.796875 2.59375 19.59375 3.078125 19.59375 6.46875  L 19.59375 61.53125  C 19.59375 64.921875 19.796875 65.40625 23.796875 65.40625  L 35 65.40625  C 43.296875 65.40625 58.59375 60.53125 58.59375 33.453125  C 58.59375 19.40625 54.5 13.734375 52.59375 11.046875  C 50.203125 7.96875 44.5 2.59375 35 2.59375  z "
               id="CMR17-68" />
            <path
               d="M 38.09375 23  C 38.5 23.40625 38.5 23.609375 38.5 24.625  C 38.5 34.96875 33.09375 44 21.703125 44  C 11.09375 44 2.703125 33.890625 2.703125 21.609375  C 2.703125 8.609375 12.203125 -1 22.796875 -1  C 34 -1 38.40625 9.484375 38.40625 11.5625  C 38.40625 12.25 37.796875 12.25 37.59375 12.25  C 36.90625 12.25 36.796875 12.046875 36.40625 10.875  C 34.203125 4.140625 28.703125 0.796875 23.5 0.796875  C 19.203125 0.796875 14.90625 3.171875 12.203125 7.5  C 9.09375 12.546875 9.09375 18.375 9.09375 23  z M 9.203125 24.5  C 9.90625 39.140625 17.59375 42.40625 21.59375 42.40625  C 28.40625 42.40625 33 35.890625 33.09375 24.5  z "
               id="CMR17-101" />
            <path
               d="M 22 -16.609375  C 15.59375 -16.609375 15.203125 -16.203125 15.203125 -12.328125  L 15.203125 6.28125  C 18.09375 2.09375 22.296875 -0.59375 27.59375 -0.59375  C 37.59375 -0.59375 47.703125 8.171875 47.703125 21.6875  C 47.703125 34.234375 39 43.78125 28.703125 43.78125  C 22.703125 43.78125 17.796875 40.5 15 36.53125  L 15 43.78125  L 3.09375 42.6875  L 3.09375 40.109375  C 9 40.109375 9.90625 39.5 9.90625 34.734375  L 9.90625 -12.328125  C 9.90625 -16.109375 9.5 -16.609375 3.09375 -16.609375  L 3.09375 -19.1875  C 5.5 -19 9.90625 -19 12.5 -19  C 15.09375 -19 19.59375 -19 22 -19.1875  z M 15.203125 31.4375  C 15.203125 32.84375 15.203125 34.921875 19.09375 38.609375  C 19.59375 39.015625 23 42 28 42  C 35.296875 42 41.296875 32.9375 41.296875 21.59375  C 41.296875 10.25 34.90625 1 27 1  C 23.40625 1 19.5 2.6875 16.5 7.375  C 15.203125 9.5625 15.203125 10.15625 15.203125 11.75  z "
               id="CMR17-112" />
            <path
               d="M 15.09375 40  L 29.09375 40  L 29.09375 42.578125  L 15.09375 42.578125  L 15.09375 61  L 13.296875 61  C 13.09375 50.703125 9.59375 41.6875 1.09375 41.6875  L 1.09375 40  L 9.796875 40  L 9.796875 12.046875  C 9.796875 10.15625 9.796875 -1 21.40625 -1  C 27.296875 -1 30.703125 4.78125 30.703125 12.140625  L 30.703125 17.8125  L 28.90625 17.8125  L 28.90625 12.234375  C 28.90625 5.375 26.203125 0.796875 22 0.796875  C 19.09375 0.796875 15.09375 2.78125 15.09375 11.84375  z "
               id="CMR17-116" />
            <path
               d="M 41.5 30.203125  C 41.5 35.296875 40.5 43.59375 28.703125 43.59375  C 20.5 43.59375 16.5 37 15.296875 33.703125  L 15.203125 33.703125  L 15.203125 68.6875  L 3.296875 67.59375  L 3.296875 65  C 9.203125 65 10.09375 64.40625 10.09375 59.640625  L 10.09375 6.65625  C 10.09375 2.875 9.703125 2.390625 3.296875 2.390625  L 3.296875 -0.203125  C 5.703125 0 10.09375 0 12.703125 0  C 15.296875 0 19.796875 0 22.203125 -0.203125  L 22.203125 2.390625  C 15.796875 2.390625 15.40625 2.78125 15.40625 6.6875  L 15.40625 25.90625  C 15.40625 35.109375 21 42 28 42  C 35.40625 42 36.203125 35.40625 36.203125 30.59375  L 36.203125 6.6875  C 36.203125 2.875 35.796875 2.390625 29.40625 2.390625  L 29.40625 -0.203125  C 31.796875 0 36.203125 0 38.796875 0  C 41.40625 0 45.90625 0 48.296875 -0.203125  L 48.296875 2.390625  C 41.90625 2.390625 41.5 2.78125 41.5 6.6875  z "
               id="CMR17-104" />
            <path
               d="M 23.5 -25  L 23.5 -21.515625  L 14.09375 -21.515625  L 14.09375 71  L 23.5 71  L 23.5 74.484375  L 10.59375 74.484375  L 10.59375 -25  z "
               id="CMR17-91" />
            <path
               d="M 67.59375 30.203125  C 67.59375 35.1875 66.703125 43.59375 54.796875 43.59375  C 48 43.59375 43.296875 39 41.5 33.609375  L 41.40625 33.609375  C 40.203125 41.8125 34.296875 43.59375 28.703125 43.59375  C 20.796875 43.59375 16.703125 37.5 15.203125 33.5  L 15.09375 33.5  L 15.09375 43.59375  L 3.296875 42.5  L 3.296875 39.90625  C 9.203125 39.90625 10.09375 39.296875 10.09375 34.5  L 10.09375 6.6875  C 10.09375 2.875 9.703125 2.390625 3.296875 2.390625  L 3.296875 -0.203125  C 5.703125 0 10.09375 0 12.703125 0  C 15.296875 0 19.796875 0 22.203125 -0.203125  L 22.203125 2.390625  C 15.796875 2.390625 15.40625 2.78125 15.40625 6.6875  L 15.40625 25.90625  C 15.40625 35.109375 21 42 28 42  C 35.40625 42 36.203125 35.40625 36.203125 30.59375  L 36.203125 6.6875  C 36.203125 2.875 35.796875 2.390625 29.40625 2.390625  L 29.40625 -0.203125  C 31.796875 0 36.203125 0 38.796875 0  C 41.40625 0 45.90625 0 48.296875 -0.203125  L 48.296875 2.390625  C 41.90625 2.390625 41.5 2.78125 41.5 6.6875  L 41.5 25.90625  C 41.5 35.109375 47.09375 42 54.09375 42  C 61.5 42 62.296875 35.40625 62.296875 30.59375  L 62.296875 6.6875  C 62.296875 2.875 61.90625 2.390625 55.5 2.390625  L 55.5 -0.203125  C 57.90625 0 62.296875 0 64.90625 0  C 67.5 0 72 0 74.40625 -0.203125  L 74.40625 2.390625  C 68 2.390625 67.59375 2.78125 67.59375 6.6875  z "
               id="CMR17-109" />
            <path
               d="M 14.296875 74.484375  L 1.40625 74.484375  L 1.40625 71  L 10.796875 71  L 10.796875 -21.515625  L 1.40625 -21.515625  L 1.40625 -25  L 14.296875 -25  z "
               id="CMR17-93" />
          </defs>
          <g
             style="fill:#262626;"
             transform="translate(162.651726 164.800149)scale(0.11 -0.11)"
             id="g125">
            <use
               transform="scale(0.996264)"
               xlink:href="#CMR17-68"
               id="use107" />
            <use
               transform="translate(70.393556 0)scale(0.996264)"
               xlink:href="#CMR17-101"
               id="use109" />
            <use
               transform="translate(110.879216 0)scale(0.996264)"
               xlink:href="#CMR17-112"
               id="use111" />
            <use
               transform="translate(161.774586 0)scale(0.996264)"
               xlink:href="#CMR17-116"
               id="use113" />
            <use
               transform="translate(197.055354 0)scale(0.996264)"
               xlink:href="#CMR17-104"
               id="use115" />
            <use
               transform="translate(278.02669 0)scale(0.996264)"
               xlink:href="#CMR17-91"
               id="use117" />
            <use
               transform="translate(302.897749 0)scale(0.996264)"
               xlink:href="#CMR17-109"
               id="use119" />
            <use
               transform="translate(379.817338 0)scale(0.996264)"
               xlink:href="#CMR17-109"
               id="use121" />
            <use
               transform="translate(456.736928 0)scale(0.996264)"
               xlink:href="#CMR17-93"
               id="use123" />
          </g>
        </g>
      </g>
      <g
         id="matplotlib.axis_2">
        <g
           id="ytick_1">
          <g
             id="line2d_7" />
          <g
             id="text_8">
            <!-- $0.06$ -->
            <g
               style="fill:#262626;"
               transform="translate(27.841604 135.246863)scale(0.1 -0.1)"
               id="g138">
              <use
                 transform="scale(0.996264)"
                 xlink:href="#CMR17-48"
                 id="use130" />
              <use
                 transform="translate(45.690477 0)scale(0.996264)"
                 xlink:href="#CMMI12-58"
                 id="use132" />
              <use
                 transform="translate(72.787654 0)scale(0.996264)"
                 xlink:href="#CMR17-48"
                 id="use134" />
              <use
                 transform="translate(118.478131 0)scale(0.996264)"
                 xlink:href="#CMR17-54"
                 id="use136" />
            </g>
          </g>
        </g>
        <g
           id="ytick_2">
          <g
             id="line2d_8" />
          <g
             id="text_9">
            <!-- $10.00$ -->
            <g
               style="fill:#262626;"
               transform="translate(22.860269 36.406362)scale(0.1 -0.1)"
               id="g153">
              <use
                 transform="scale(0.996264)"
                 xlink:href="#CMR17-49"
                 id="use143" />
              <use
                 transform="translate(45.690477 0)scale(0.996264)"
                 xlink:href="#CMR17-48"
                 id="use145" />
              <use
                 transform="translate(91.380954 0)scale(0.996264)"
                 xlink:href="#CMMI12-58"
                 id="use147" />
              <use
                 transform="translate(118.478131 0)scale(0.996264)"
                 xlink:href="#CMR17-48"
                 id="use149" />
              <use
                 transform="translate(164.168608 0)scale(0.996264)"
                 xlink:href="#CMR17-48"
                 id="use151" />
            </g>
          </g>
        </g>
        <g
           id="text_10">
          <!-- Intensity [mW/mm$^2$] -->
          <defs
             id="defs164">
            <path
               d="M 19.703125 61.015625  C 19.703125 65.5 20.90625 65.5 28.09375 65.5  L 28.09375 68  C 24.90625 68 19.796875 68 16.40625 68  C 13 68 7.90625 68 4.703125 68  L 4.703125 65.5  C 11.90625 65.5 13.09375 65.5 13.09375 61.015625  L 13.09375 6.984375  C 13.09375 2.5 11.90625 2.5 4.703125 2.5  L 4.703125 0  C 7.90625 0 13 0 16.40625 0  C 19.796875 0 24.90625 0 28.09375 0  L 28.09375 2.5  C 20.90625 2.5 19.703125 2.5 19.703125 6.984375  z "
               id="CMR17-73" />
            <path
               d="M 41.5 30.203125  C 41.5 35.296875 40.5 43.59375 28.703125 43.59375  C 20.796875 43.59375 16.703125 37.5 15.203125 33.5  L 15.09375 33.5  L 15.09375 43.59375  L 3.296875 42.5  L 3.296875 39.90625  C 9.203125 39.90625 10.09375 39.296875 10.09375 34.5  L 10.09375 6.6875  C 10.09375 2.875 9.703125 2.390625 3.296875 2.390625  L 3.296875 -0.203125  C 5.703125 0 10.09375 0 12.703125 0  C 15.296875 0 19.796875 0 22.203125 -0.203125  L 22.203125 2.390625  C 15.796875 2.390625 15.40625 2.78125 15.40625 6.6875  L 15.40625 25.90625  C 15.40625 35.109375 21 42 28 42  C 35.40625 42 36.203125 35.40625 36.203125 30.59375  L 36.203125 6.6875  C 36.203125 2.875 35.796875 2.390625 29.40625 2.390625  L 29.40625 -0.203125  C 31.796875 0 36.203125 0 38.796875 0  C 41.40625 0 45.90625 0 48.296875 -0.203125  L 48.296875 2.390625  C 41.90625 2.390625 41.5 2.78125 41.5 6.6875  z "
               id="CMR17-110" />
            <path
               d="M 30.90625 42.140625  C 30.90625 43.953125 30.796875 44.046875 30.203125 44.046875  C 29.796875 44.046875 29.703125 43.953125 28.5 42.453125  C 28.203125 42.046875 27.296875 41.03125 27 40.640625  C 23.796875 44.046875 19.296875 44.046875 17.59375 44.046875  C 6.5 44.046875 2.5 38.234375 2.5 32.4375  C 2.5 23.40625 12.703125 21.328125 15.59375 20.703125  C 21.90625 19.421875 24.09375 19.015625 26.203125 17.203125  C 27.5 16.015625 29.703125 13.8125 29.703125 10.21875  C 29.703125 6 27.296875 0.59375 18.09375 0.59375  C 9.40625 0.59375 6.296875 7.1875 4.5 15.953125  C 4.203125 17.34375 4.203125 17.453125 3.40625 17.453125  C 2.59375 17.453125 2.5 17.34375 2.5 15.359375  L 2.5 0.984375  C 2.5 -0.796875 2.59375 -0.90625 3.203125 -0.90625  C 3.703125 -0.90625 3.796875 -0.796875 4.296875 0  C 4.90625 0.890625 6.40625 3.296875 7 4.3125  C 9 1.609375 12.5 -1 18.09375 -1  C 28 -1 33.296875 4.421875 33.296875 12.25  C 33.296875 17.375 30.59375 20.078125 29.296875 21.28125  C 26.296875 24.390625 22.796875 25.09375 18.59375 25.890625  C 13.09375 27.109375 6.09375 28.515625 6.09375 34.640625  C 6.09375 37.234375 7.5 42.765625 17.59375 42.765625  C 28.296875 42.765625 28.90625 32.71875 29.09375 29.5  C 29.203125 29 29.703125 28.890625 30 28.890625  C 30.90625 28.890625 30.90625 29.203125 30.90625 30.90625  z "
               id="CMR17-115" />
            <path
               d="M 15.5 61.078125  C 15.5 63.265625 13.703125 65.15625 11.40625 65.15625  C 9.203125 65.15625 7.296875 63.375 7.296875 61.078125  C 7.296875 58.890625 9.09375 57 11.40625 57  C 13.59375 57 15.5 58.796875 15.5 61.078125  z M 3.796875 42.28125  L 3.796875 39.703125  C 9.40625 39.703125 10.203125 39.09375 10.203125 34.328125  L 10.203125 6.671875  C 10.203125 2.875 9.796875 2.390625 3.40625 2.390625  L 3.40625 -0.203125  C 5.796875 0 10.09375 0 12.59375 0  C 15 0 19.09375 0 21.40625 -0.203125  L 21.40625 2.390625  C 15.5 2.390625 15.296875 2.984375 15.296875 6.5625  L 15.296875 43.375  z "
               id="CMR17-105" />
            <path
               d="M 39 34.328125  C 41.5 40.40625 46 40.40625 47.40625 40.40625  L 47.40625 43  C 45.5 43 43 43 41.09375 43  C 39 43 35.703125 43 33.703125 43.09375  L 33.703125 40.5  C 37.5 40.203125 37.59375 37.40625 37.59375 36.609375  C 37.59375 35.625 37.40625 35.125 36.90625 33.921875  L 26 7.015625  L 14.09375 36.03125  C 13.59375 37.21875 13.59375 37.90625 13.59375 38.015625  C 13.59375 40.203125 15.90625 40.40625 18.296875 40.40625  L 18.296875 43.09375  C 15.90625 43 11.59375 43 9.09375 43  C 6.40625 43 3.203125 43 1 43.09375  L 1 40.40625  C 6.40625 40.40625 7 39.90625 8.296875 36.71875  L 23.203125 0.234375  C 18.703125 -11.53125 16.09375 -18.40625 9.796875 -18.40625  C 8.703125 -18.40625 6.203125 -18.109375 4.40625 -16.3125  C 6.703125 -16.109375 7.703125 -14.71875 7.703125 -13.015625  C 7.703125 -11.328125 6.5 -9.828125 4.5 -9.828125  C 2.296875 -9.828125 1.203125 -11.328125 1.203125 -13.125  C 1.203125 -17.109375 5.296875 -20 9.796875 -20  C 15.59375 -20 19.203125 -14.40625 21.203125 -9.4375  z "
               id="CMR17-121" />
            <path
               d="M 86.296875 58.8125  C 87.203125 61.5 88.703125 65 94.5 65  L 94.5 67.59375  C 92.796875 67.59375 89.296875 67.59375 87.5 67.59375  C 85 67.59375 80.59375 67.59375 78.203125 67.6875  L 78.203125 65  C 82.703125 65 84.59375 62.5 84.59375 60.109375  C 84.59375 59.40625 84.5 59.015625 84.09375 57.921875  L 68.59375 8.671875  L 52.296875 60.515625  C 52 61.515625 51.90625 61.921875 51.90625 62.3125  C 51.90625 65 56.296875 65 58.203125 65  L 58.203125 67.59375  C 55.296875 67.59375 50.296875 67.59375 47.203125 67.59375  C 44.703125 67.59375 40.203125 67.59375 37.90625 67.6875  L 37.90625 65  C 42.5 65 43.703125 64.703125 44.703125 62.921875  C 45.09375 62.015625 46.703125 56.84375 46.703125 56.546875  C 46.703125 56.140625 46.5 55.546875 46.40625 55.25  L 31.703125 8.765625  L 15.40625 60.421875  C 14.90625 61.828125 14.90625 62.015625 14.90625 62.21875  C 14.90625 65 19.296875 65 21.296875 65  L 21.296875 67.59375  C 18.40625 67.59375 13.40625 67.59375 10.296875 67.59375  C 7.703125 67.59375 3.296875 67.59375 0.90625 67.6875  L 0.90625 65  C 6.90625 65 7.296875 64.40625 8.296875 61.21875  L 27.796875 -0.3125  C 28.296875 -1.796875 28.296875 -2 29.203125 -2  C 30 -2 30.296875 -1.796875 30.703125 -0.40625  L 47.703125 53.640625  L 64.703125 -0.40625  C 65.09375 -1.796875 65.40625 -2 66.203125 -2  C 67.09375 -2 67.09375 -1.796875 67.59375 -0.3125  z "
               id="CMR17-87" />
            <path
               d="M 40.703125 71.015625  C 41.203125 72.296875 41.203125 72.5 41.203125 72.703125  C 41.203125 73.890625 40.296875 74.5 39.5 74.5  C 38.296875 74.5 37.90625 73.703125 37.5 72.5  L 5.09375 -21.515625  C 4.59375 -22.8125 4.59375 -23.015625 4.59375 -23.21875  C 4.59375 -24.40625 5.5 -25 6.296875 -25  C 7.5 -25 7.90625 -24.203125 8.296875 -23.015625  z "
               id="CMR17-47" />
          </defs>
          <g
             style="fill:#262626;"
             transform="translate(16.120543 132.774253)rotate(-90)scale(0.11 -0.11)"
             id="g200">
            <use
               transform="scale(0.996264)"
               xlink:href="#CMR17-73"
               id="use166" />
            <use
               transform="translate(32.638409 0)scale(0.996264)"
               xlink:href="#CMR17-110"
               id="use168" />
            <use
               transform="translate(80.931325 0)scale(0.996264)"
               xlink:href="#CMR17-116"
               id="use170" />
            <use
               transform="translate(116.212093 0)scale(0.996264)"
               xlink:href="#CMR17-101"
               id="use172" />
            <use
               transform="translate(156.697753 0)scale(0.996264)"
               xlink:href="#CMR17-110"
               id="use174" />
            <use
               transform="translate(207.593123 0)scale(0.996264)"
               xlink:href="#CMR17-115"
               id="use176" />
            <use
               transform="translate(243.394461 0)scale(0.996264)"
               xlink:href="#CMR17-105"
               id="use178" />
            <use
               transform="translate(268.265519 0)scale(0.996264)"
               xlink:href="#CMR17-116"
               id="use180" />
            <use
               transform="translate(300.943833 0)scale(0.996264)"
               xlink:href="#CMR17-121"
               id="use182" />
            <use
               transform="translate(379.312715 0)scale(0.996264)"
               xlink:href="#CMR17-91"
               id="use184" />
            <use
               transform="translate(404.183774 0)scale(0.996264)"
               xlink:href="#CMR17-109"
               id="use186" />
            <use
               transform="translate(481.103364 0)scale(0.996264)"
               xlink:href="#CMR17-87"
               id="use188" />
            <use
               transform="translate(576.200013 0)scale(0.996264)"
               xlink:href="#CMR17-47"
               id="use190" />
            <use
               transform="translate(621.890491 0)scale(0.996264)"
               xlink:href="#CMR17-109"
               id="use192" />
            <use
               transform="translate(698.81008 0)scale(0.996264)"
               xlink:href="#CMR17-109"
               id="use194" />
            <use
               transform="translate(775.72967 36.153639)scale(0.697382)"
               xlink:href="#CMR17-50"
               id="use196" />
            <use
               transform="translate(808.210984 0)scale(0.996264)"
               xlink:href="#CMR17-93"
               id="use198" />
          </g>
        </g>
      </g>
      <g
         id="line2d_9">
        <path
           clip-path="url(#p625a53104b)"
           d="M 65.184109 32.947113  L 67.710327 47.12199  L 70.236545 58.521468  L 72.762764 67.834268  L 75.288982 75.544254  L 77.8152 82.000601  L 80.341418 87.461083  L 82.867636 92.119751  L 85.393855 96.125187  L 87.920073 99.592858  L 90.446291 102.613692  L 92.972509 105.260129  L 95.498727 107.590495  L 98.024945 109.6522  L 100.551164 111.484108  L 103.077382 113.118337  L 105.6036 114.581615  L 108.129818 115.896333  L 110.656036 117.081366  L 113.182255 118.152713  L 115.708473 119.124009  L 118.234691 120.006926  L 120.760909 120.811508  L 123.287127 121.546432  L 125.813345 122.219223  L 128.339564 122.836433  L 130.865782 123.403789  L 133.392 123.926311  L 135.918218 124.408415  L 138.444436 124.853995  L 140.970655 125.266499  L 143.496873 125.648986  L 146.023091 126.004173  L 148.549309 126.334489  L 151.075527 126.642099  L 153.601745 126.928947  L 156.127964 127.196777  L 158.654182 127.447157  L 161.1804 127.681502  L 163.706618 127.901089  L 166.232836 128.107074  L 168.759055 128.300505  L 171.285273 128.482333  L 173.811491 128.653424  L 176.337709 128.814567  L 178.863927 128.96648  L 181.390145 129.10982  L 183.916364 129.24519  L 186.442582 129.37314  L 188.9688 129.494175  L 191.495018 129.60876  L 194.021236 129.717323  L 196.547455 129.820256  L 199.073673 129.917923  L 201.599891 130.010658  L 204.126109 130.098771  L 206.652327 130.182548  L 209.178545 130.262255  L 211.704764 130.338137  L 214.230982 130.410422  L 216.7572 130.479322  L 219.283418 130.545034  L 221.809636 130.607742  L 224.335855 130.667615  L 226.862073 130.724814  L 229.388291 130.779487  L 231.914509 130.831772  L 234.440727 130.8818  L 236.966945 130.92969  L 239.493164 130.975557  L 242.019382 131.019507  L 244.5456 131.061639  L 247.071818 131.102047  L 249.598036 131.140819  L 252.124255 131.178036  L 254.650473 131.213777  L 257.176691 131.248114  L 259.702909 131.281116  L 262.229127 131.312847  L 264.755345 131.343367  L 267.281564 131.372736  L 269.807782 131.401005  L 272.334 131.428228  L 274.860218 131.454451  L 277.386436 131.47972  L 279.912655 131.504079  L 282.438873 131.527568  L 284.965091 131.550226  L 287.491309 131.57209  L 290.017527 131.593194  L 292.543745 131.61357  L 295.069964 131.63325  L 297.596182 131.652265  L 300.1224 131.67064  L 302.648618 131.688404  L 305.174836 131.705582  L 307.701055 131.722197  L 310.227273 131.738273  L 312.753491 131.753831  L 315.279709 131.768892  L 317.805927 131.783476  "
           style="fill:none;stroke:#00ffff;stroke-linecap:round;stroke-width:2;"
           id="path204" />
      </g>
      <g
         id="patch_3">
        <path
           d="M 52.553018 136.725295  L 52.553018 28.005295  "
           style="fill:none;stroke:#262626;stroke-linecap:square;stroke-linejoin:miter;stroke-width:1.25;"
           id="path207" />
      </g>
      <g
         id="patch_4">
        <path
           d="M 330.437018 136.725295  L 330.437018 28.005295  "
           style="fill:none;stroke:#262626;stroke-linecap:square;stroke-linejoin:miter;stroke-width:1.25;"
           id="path210" />
      </g>
      <g
         id="patch_5">
        <path
           d="M 52.553018 136.725295  L 330.437018 136.725295  "
           style="fill:none;stroke:#262626;stroke-linecap:square;stroke-linejoin:miter;stroke-width:1.25;"
           id="path213" />
      </g>
    </g>
    <g
       id="axes_2">
      <g
         id="matplotlib.axis_3">
        <g
           id="ytick_3">
          <g
             id="line2d_10" />
          <g
             id="text_11">
            <!-- $31$ -->
            <defs
               id="defs219">
              <path
                 d="M 22.09375 33.703125  C 31 33.703125 34.90625 25.96875 34.90625 17.03125  C 34.90625 5 28.5 0.390625 22.703125 0.390625  C 17.40625 0.390625 8.796875 3.03125 6.09375 10.828125  C 6.59375 10.625 7.09375 10.625 7.59375 10.625  C 10 10.625 11.796875 12.21875 11.796875 14.8125  C 11.796875 17.703125 9.59375 19 7.59375 19  C 5.90625 19 3.296875 18.203125 3.296875 14.46875  C 3.296875 5.234375 12.296875 -2 22.90625 -2  C 34 -2 42.5 6.71875 42.5 16.953125  C 42.5 26.671875 34.5 33.703125 25 34.796875  C 32.59375 36.375 39.90625 43.0625 39.90625 52.015625  C 39.90625 59.6875 32 65.296875 23 65.296875  C 13.90625 65.296875 5.90625 59.828125 5.90625 52.015625  C 5.90625 48.59375 8.5 48 9.796875 48  C 11.90625 48 13.703125 49.296875 13.703125 51.890625  C 13.703125 54.46875 11.90625 55.765625 9.796875 55.765625  C 9.40625 55.765625 8.90625 55.765625 8.5 55.578125  C 11.40625 61.859375 19.296875 63 22.796875 63  C 26.296875 63 32.90625 61.328125 32.90625 51.875  C 32.90625 49.109375 32.5 44.1875 29.09375 39.84375  C 26.09375 36 22.703125 36 19.40625 35.6875  C 18.90625 35.6875 16.59375 35.453125 16.203125 35.453125  C 15.5 35.359375 15.09375 35.265625 15.09375 34.5  C 15.09375 33.796875 15.203125 33.703125 17.203125 33.703125  z "
                 id="CMR17-51" />
            </defs>
            <g
               style="fill:#262626;"
               transform="translate(337.437018 135.338605)scale(0.1 -0.1)"
               id="g225">
              <use
                 transform="scale(0.996264)"
                 xlink:href="#CMR17-51"
                 id="use221" />
              <use
                 transform="translate(45.690477 0)scale(0.996264)"
                 xlink:href="#CMR17-49"
                 id="use223" />
            </g>
          </g>
        </g>
        <g
           id="ytick_4">
          <g
             id="line2d_11" />
          <g
             id="text_12">
            <!-- $460$ -->
            <g
               style="fill:#262626;"
               transform="translate(337.437018 36.445697)scale(0.1 -0.1)"
               id="g236">
              <use
                 transform="scale(0.996264)"
                 xlink:href="#CMR17-52"
                 id="use230" />
              <use
                 transform="translate(45.690477 0)scale(0.996264)"
                 xlink:href="#CMR17-54"
                 id="use232" />
              <use
                 transform="translate(91.380954 0)scale(0.996264)"
                 xlink:href="#CMR17-48"
                 id="use234" />
            </g>
          </g>
        </g>
        <g
           id="text_13">
          <!-- N neurons [N mm$^2$] -->
          <defs
             id="defs244">
            <path
               d="M 20.5 66.40625  C 19.796875 67.5 19.703125 67.5 17.796875 67.5  L 5.09375 67.5  L 5.09375 65  L 7 65  C 11 65 12.796875 64.515625 13.09375 64.40625  L 13.09375 9.53125  C 13.09375 7.046875 13.09375 2.390625 5.09375 2.390625  L 5.09375 -0.203125  C 7.40625 0 11.59375 0 14.09375 0  C 16.59375 0 20.796875 0 23.09375 -0.203125  L 23.09375 2.390625  C 15.09375 2.390625 15.09375 7.046875 15.09375 9.53125  L 15.09375 63.015625  C 15.796875 62.421875 15.796875 62.21875 16.5 61.234375  L 53.59375 1.1875  C 54.296875 0 54.59375 0 55.09375 0  C 56.09375 0 56.09375 0.296875 56.09375 2.171875  L 56.09375 57.890625  C 56.09375 60.359375 56.09375 65 64.09375 65  L 64.09375 67.59375  C 61.796875 67.5 57.59375 67.5 55.09375 67.5  C 52.59375 67.5 48.40625 67.5 46.09375 67.59375  L 46.09375 65  C 54.09375 65 54.09375 60.34375 54.09375 57.859375  L 54.09375 11.921875  z "
               id="CMR17-78" />
            <path
               d="M 29.40625 42.078125  L 29.40625 39.5  C 35.296875 39.5 36.203125 38.890625 36.203125 34.15625  L 36.203125 16.125  C 36.203125 7.8125 31.703125 0.59375 24.296875 0.59375  C 16.09375 0.59375 15.40625 5.4375 15.40625 10.59375  L 15.40625 43.171875  L 3.296875 42.078125  L 3.296875 39.5  C 7.296875 39.5 10 39.5 10.09375 35.53125  L 10.09375 16.53125  C 10.09375 9.890625 10.09375 5.640625 12.703125 2.859375  C 14 1.578125 16.5 -1 23.703125 -1  C 32.203125 -1 35.5 5.890625 36.296875 7.90625  L 36.40625 7.90625  L 36.40625 -0.984375  L 48.296875 -0.984375  L 48.296875 2  C 42.40625 2 41.5 2.59375 41.5 7.390625  L 41.5 43.171875  z "
               id="CMR17-117" />
            <path
               d="M 15 23.390625  C 15 33 19.09375 42 26.59375 42  C 27.296875 42 28 41.90625 28.703125 41.59375  C 28.703125 41.59375 26.5 40.890625 26.5 38.3125  C 26.5 35.90625 28.40625 34.90625 29.90625 34.90625  C 31.09375 34.90625 33.296875 35.609375 33.296875 38.40625  C 33.296875 41.609375 30.09375 43.59375 26.703125 43.59375  C 19.09375 43.59375 15.796875 36.203125 14.796875 32.703125  L 14.703125 32.703125  L 14.703125 43.59375  L 3.09375 42.5  L 3.09375 39.90625  C 9 39.90625 9.90625 39.296875 9.90625 34.5  L 9.90625 6.6875  C 9.90625 2.875 9.5 2.390625 3.09375 2.390625  L 3.09375 -0.203125  C 5.5 0 10.09375 0 12.703125 0  C 15.59375 0 20.703125 0 23.40625 -0.203125  L 23.40625 2.390625  C 16.203125 2.390625 15 2.390625 15 6.875  z "
               id="CMR17-114" />
            <path
               d="M 43.09375 21.1875  C 43.09375 34 33.796875 44 22.90625 44  C 12 44 2.703125 34 2.703125 21.1875  C 2.703125 8.609375 12 -1 22.90625 -1  C 33.796875 -1 43.09375 8.609375 43.09375 21.1875  z M 22.90625 0.796875  C 18.203125 0.796875 14.203125 3.59375 11.90625 7.5  C 9.40625 11.984375 9.09375 17.59375 9.09375 22  C 9.09375 26.203125 9.296875 31.40625 11.90625 35.90625  C 13.90625 39.203125 17.796875 42.40625 22.90625 42.40625  C 27.40625 42.40625 31.203125 39.90625 33.59375 36.40625  C 36.703125 31.703125 36.703125 25.109375 36.703125 22  C 36.703125 18.09375 36.5 12.109375 33.796875 7.296875  C 31 2.703125 26.703125 0.796875 22.90625 0.796875  z "
               id="CMR17-111" />
          </defs>
          <g
             style="fill:#262626;"
             transform="translate(365.301567 129.288735)rotate(-90)scale(0.11 -0.11)"
             id="g274">
            <use
               transform="scale(0.996264)"
               xlink:href="#CMR17-78"
               id="use246" />
            <use
               transform="translate(99.148396 0)scale(0.996264)"
               xlink:href="#CMR17-110"
               id="use248" />
            <use
               transform="translate(150.043766 0)scale(0.996264)"
               xlink:href="#CMR17-101"
               id="use250" />
            <use
               transform="translate(190.529426 0)scale(0.996264)"
               xlink:href="#CMR17-117"
               id="use252" />
            <use
               transform="translate(241.424796 0)scale(0.996264)"
               xlink:href="#CMR17-114"
               id="use254" />
            <use
               transform="translate(276.705564 0)scale(0.996264)"
               xlink:href="#CMR17-111"
               id="use256" />
            <use
               transform="translate(322.396041 0)scale(0.996264)"
               xlink:href="#CMR17-110"
               id="use258" />
            <use
               transform="translate(373.291411 0)scale(0.996264)"
               xlink:href="#CMR17-115"
               id="use260" />
            <use
               transform="translate(439.168715 0)scale(0.996264)"
               xlink:href="#CMR17-91"
               id="use262" />
            <use
               transform="translate(464.039773 0)scale(0.996264)"
               xlink:href="#CMR17-78"
               id="use264" />
            <use
               transform="translate(563.188169 0)scale(0.996264)"
               xlink:href="#CMR17-109"
               id="use266" />
            <use
               transform="translate(640.107759 0)scale(0.996264)"
               xlink:href="#CMR17-109"
               id="use268" />
            <use
               transform="translate(717.027349 36.153639)scale(0.697382)"
               xlink:href="#CMR17-50"
               id="use270" />
            <use
               transform="translate(749.508663 0)scale(0.996264)"
               xlink:href="#CMR17-93"
               id="use272" />
          </g>
        </g>
      </g>
      <g
         id="line2d_12">
        <path
           clip-path="url(#p625a53104b)"
           d="M 65.184109 131.783476  L 67.710327 131.368193  L 70.236545 130.941331  L 72.762764 130.502893  L 75.288982 130.052877  L 77.8152 129.591283  L 80.341418 129.118113  L 82.867636 128.633365  L 85.393855 128.137039  L 87.920073 127.629136  L 90.446291 127.109656  L 92.972509 126.578599  L 95.498727 126.035964  L 98.024945 125.481751  L 100.551164 124.915962  L 103.077382 124.338595  L 105.6036 123.74965  L 108.129818 123.149128  L 110.656036 122.537029  L 113.182255 121.913353  L 115.708473 121.278099  L 118.234691 120.631268  L 120.760909 119.972859  L 123.287127 119.302873  L 125.813345 118.62131  L 128.339564 117.928169  L 130.865782 117.223451  L 133.392 116.507155  L 135.918218 115.779283  L 138.444436 115.039832  L 140.970655 114.288805  L 143.496873 113.5262  L 146.023091 112.752018  L 148.549309 111.966258  L 151.075527 111.168921  L 153.601745 110.360006  L 156.127964 109.539515  L 158.654182 108.707445  L 161.1804 107.863799  L 163.706618 107.008575  L 166.232836 106.141774  L 168.759055 105.263395  L 171.285273 104.373439  L 173.811491 103.471906  L 176.337709 102.558795  L 178.863927 101.634107  L 181.390145 100.697841  L 183.916364 99.749999  L 186.442582 98.790578  L 188.9688 97.819581  L 191.495018 96.837006  L 194.021236 95.842854  L 196.547455 94.837124  L 199.073673 93.819817  L 201.599891 92.790932  L 204.126109 91.750471  L 206.652327 90.698431  L 209.178545 89.634815  L 211.704764 88.559621  L 214.230982 87.47285  L 216.7572 86.374501  L 219.283418 85.264575  L 221.809636 84.143072  L 224.335855 83.009991  L 226.862073 81.865333  L 229.388291 80.709097  L 231.914509 79.541284  L 234.440727 78.361894  L 236.966945 77.170927  L 239.493164 75.968382  L 242.019382 74.754259  L 244.5456 73.52856  L 247.071818 72.291283  L 249.598036 71.042428  L 252.124255 69.781996  L 254.650473 68.509987  L 257.176691 67.226401  L 259.702909 65.931237  L 262.229127 64.624495  L 264.755345 63.306177  L 267.281564 61.976281  L 269.807782 60.634807  L 272.334 59.281757  L 274.860218 57.917128  L 277.386436 56.540923  L 279.912655 55.15314  L 282.438873 53.75378  L 284.965091 52.342842  L 287.491309 50.920327  L 290.017527 49.486235  L 292.543745 48.040565  L 295.069964 46.583318  L 297.596182 45.114494  L 300.1224 43.634092  L 302.648618 42.142113  L 305.174836 40.638556  L 307.701055 39.123422  L 310.227273 37.596711  L 312.753491 36.058422  L 315.279709 34.508556  L 317.805927 32.947113  "
           style="fill:none;stroke:#1a1a1a;stroke-linecap:round;stroke-width:2;"
           id="path278" />
      </g>
      <g
         id="patch_6">
        <path
           d="M 52.553018 136.725295  L 52.553018 28.005295  "
           style="fill:none;stroke:#262626;stroke-linecap:square;stroke-linejoin:miter;stroke-width:1.25;"
           id="path281" />
      </g>
      <g
         id="patch_7">
        <path
           d="M 330.437018 136.725295  L 330.437018 28.005295  "
           style="fill:none;stroke:#262626;stroke-linecap:square;stroke-linejoin:miter;stroke-width:1.25;"
           id="path284" />
      </g>
      <g
         id="patch_8">
        <path
           d="M 52.553018 136.725295  L 330.437018 136.725295  "
           style="fill:none;stroke:#262626;stroke-linecap:square;stroke-linejoin:miter;stroke-width:1.25;"
           id="path287" />
      </g>
    </g>
    <g
       id="axes_3">
      <g
         id="matplotlib.axis_4">
        <g
           id="ytick_5">
          <g
             id="line2d_13" />
          <g
             id="text_14">
            <!-- $17505$ -->
            <defs
               id="defs294">
              <path
                 d="M 45.09375 61.578125  L 45.09375 63.765625  L 21.59375 63.765625  C 9.90625 63.765625 9.703125 65.078125 9.296875 67  L 7.5 67  L 4.59375 48.34375  L 6.40625 48.34375  C 6.703125 50.234375 7.40625 55.3125 8.59375 57.203125  C 9.203125 58 16.59375 58 18.296875 58  L 40.296875 58  L 29.203125 41.578125  C 21.796875 30.53125 16.703125 15.609375 16.703125 2.578125  C 16.703125 1.390625 16.703125 -2 20.296875 -2  C 23.90625 -2 23.90625 1.390625 23.90625 2.671875  L 23.90625 7.265625  C 23.90625 23.5625 26.703125 34.3125 31.296875 41.1875  z "
                 id="CMR17-55" />
              <path
                 d="M 11.40625 57.6875  C 12.40625 57.28125 16.5 56 20.703125 56  C 30 56 35.09375 61.109375 38 64.0625  C 38 64.953125 38 65.5 37.40625 65.5  C 37.296875 65.5 37.09375 65.5 36.296875 65.046875  C 32.796875 63.40625 28.703125 62.078125 23.703125 62.078125  C 20.703125 62.078125 16.203125 62.484375 11.296875 64.671875  C 10.203125 65.171875 10 65.171875 9.90625 65.171875  C 9.40625 65.171875 9.296875 65.0625 9.296875 63.078125  L 9.296875 34.421875  C 9.296875 32.640625 9.296875 32.140625 10.296875 32.140625  C 10.796875 32.140625 11 32.34375 11.5 33.03125  C 14.703125 37.515625 19.09375 39.40625 24.09375 39.40625  C 27.59375 39.40625 35.09375 37.21875 35.09375 20.140625  C 35.09375 16.953125 35.09375 11.171875 32.09375 6.578125  C 29.59375 2.484375 25.703125 0.390625 21.40625 0.390625  C 14.796875 0.390625 8.09375 5 6.296875 12.71875  C 6.703125 12.609375 7.5 12.421875 7.90625 12.421875  C 9.203125 12.421875 11.703125 13.125 11.703125 16.21875  C 11.703125 18.90625 9.796875 20 7.90625 20  C 5.59375 20 4.09375 18.59375 4.09375 15.796875  C 4.09375 7.09375 11 -2 21.59375 -2  C 31.90625 -2 41.703125 6.875 41.703125 19.75  C 41.703125 31.71875 33.90625 41 24.203125 41  C 19.09375 41 14.796875 39.109375 11.40625 35.53125  z "
                 id="CMR17-53" />
            </defs>
            <g
               style="fill:#262626;"
               transform="translate(379.119618 135.242726)scale(0.1 -0.1)"
               id="g306">
              <use
                 transform="scale(0.996264)"
                 xlink:href="#CMR17-49"
                 id="use296" />
              <use
                 transform="translate(45.690477 0)scale(0.996264)"
                 xlink:href="#CMR17-55"
                 id="use298" />
              <use
                 transform="translate(91.380954 0)scale(0.996264)"
                 xlink:href="#CMR17-53"
                 id="use300" />
              <use
                 transform="translate(137.071431 0)scale(0.996264)"
                 xlink:href="#CMR17-48"
                 id="use302" />
              <use
                 transform="translate(182.761908 0)scale(0.996264)"
                 xlink:href="#CMR17-53"
                 id="use304" />
            </g>
          </g>
        </g>
        <g
           id="ytick_6">
          <g
             id="line2d_14" />
          <g
             id="text_15">
            <!-- $36077$ -->
            <g
               style="fill:#262626;"
               transform="translate(379.119618 36.406362)scale(0.1 -0.1)"
               id="g321">
              <use
                 transform="scale(0.996264)"
                 xlink:href="#CMR17-51"
                 id="use311" />
              <use
                 transform="translate(45.690477 0)scale(0.996264)"
                 xlink:href="#CMR17-54"
                 id="use313" />
              <use
                 transform="translate(91.380954 0)scale(0.996264)"
                 xlink:href="#CMR17-48"
                 id="use315" />
              <use
                 transform="translate(137.071431 0)scale(0.996264)"
                 xlink:href="#CMR17-55"
                 id="use317" />
              <use
                 transform="translate(182.761908 0)scale(0.996264)"
                 xlink:href="#CMR17-55"
                 id="use319" />
            </g>
          </g>
        </g>
        <g
           id="text_16">
          <!-- Photocurrent [pA N] -->
          <defs
             id="defs328">
            <path
               d="M 19.796875 31.90625  L 35.796875 31.90625  C 48.703125 31.90625 58.09375 40.28125 58.09375 49.75  C 58.09375 59.234375 48.90625 68 35.796875 68  L 5.203125 68  L 5.203125 65.40625  C 12.09375 65.40625 13.203125 65.40625 13.203125 60.921875  L 13.203125 6.96875  C 13.203125 2.5 12.09375 2.5 5.203125 2.5  L 5.203125 0  C 8.09375 0 13.40625 0 16.5 0  C 19.59375 0 24.90625 0 27.796875 0  L 27.796875 2.5  C 20.90625 2.5 19.796875 2.5 19.796875 6.96875  z M 19.59375 34  L 19.59375 61.53125  C 19.59375 64.921875 19.796875 65.40625 23.796875 65.40625  L 33.90625 65.40625  C 46.796875 65.40625 50.5 58.03125 50.5 49.75  C 50.5 40.6875 46.09375 34 33.90625 34  z "
               id="CMR17-80" />
            <path
               d="M 34.90625 35  C 33 35 30.203125 35 30.203125 31.515625  C 30.203125 28.71875 32.5 27.921875 33.796875 27.921875  C 34.5 27.921875 37.40625 28.234375 37.40625 31.625  C 37.40625 38.546875 30.59375 43.796875 22.90625 43.796875  C 12.296875 43.796875 3.296875 34.03125 3.296875 21.296875  C 3.296875 8.0625 12.703125 -1 22.90625 -1  C 35.296875 -1 38.40625 10.578125 38.40625 11.6875  C 38.40625 12.09375 38.296875 12.390625 37.59375 12.390625  C 36.90625 12.390625 36.796875 12.296875 36.40625 10.984375  C 33.796875 2.8125 28.09375 0.796875 23.796875 0.796875  C 17.40625 0.796875 9.703125 6.671875 9.703125 21.390625  C 9.703125 36.53125 17.09375 42 23 42  C 26.90625 42 32.703125 40.203125 34.90625 35  z "
               id="CMR17-99" />
            <path
               d="M 36.296875 68.40625  C 35.796875 69.703125 35.59375 70 34.59375 70  C 33.59375 70 33.40625 69.703125 32.90625 68.40625  L 11.703125 8.84375  C 9.796875 3.484375 5.796875 2.390625 2.296875 2.390625  L 2.296875 -0.203125  C 4.09375 0 8.09375 0 10 0  C 12.5 0 16.5 0 18.90625 -0.203125  L 18.90625 2.390625  C 14.203125 2.390625 13.5 5.640625 13.5 6.859375  C 13.5 7.765625 13.703125 8.28125 13.90625 8.890625  L 19.203125 24  L 45.40625 24  L 51.40625 6.90625  C 51.90625 5.703125 51.90625 5.5 51.90625 5.109375  C 51.90625 2.390625 47.59375 2.390625 45.703125 2.390625  L 45.703125 0  C 48.59375 0 53.796875 0 56.90625 0  C 59.5 0 64.5 0 66.90625 -0.203125  L 66.90625 2.390625  C 61.59375 2.390625 59.796875 2.390625 58.5 6.046875  z M 32.296875 60.828125  L 44.5 26.59375  L 20.09375 26.59375  z "
               id="CMR17-65" />
          </defs>
          <g
             style="fill:#262626;"
             transform="translate(416.245473 132.091435)rotate(-90)scale(0.11 -0.11)"
             id="g364">
            <use
               transform="scale(0.996264)"
               xlink:href="#CMR17-80"
               id="use330" />
            <use
               transform="translate(62.586301 0)scale(0.996264)"
               xlink:href="#CMR17-104"
               id="use332" />
            <use
               transform="translate(113.48167 0)scale(0.996264)"
               xlink:href="#CMR17-111"
               id="use334" />
            <use
               transform="translate(159.172147 0)scale(0.996264)"
               xlink:href="#CMR17-116"
               id="use336" />
            <use
               transform="translate(194.452915 0)scale(0.996264)"
               xlink:href="#CMR17-111"
               id="use338" />
            <use
               transform="translate(242.745831 0)scale(0.996264)"
               xlink:href="#CMR17-99"
               id="use340" />
            <use
               transform="translate(283.231492 0)scale(0.996264)"
               xlink:href="#CMR17-117"
               id="use342" />
            <use
               transform="translate(334.126861 0)scale(0.996264)"
               xlink:href="#CMR17-114"
               id="use344" />
            <use
               transform="translate(369.407629 0)scale(0.996264)"
               xlink:href="#CMR17-114"
               id="use346" />
            <use
               transform="translate(404.688397 0)scale(0.996264)"
               xlink:href="#CMR17-101"
               id="use348" />
            <use
               transform="translate(445.174057 0)scale(0.996264)"
               xlink:href="#CMR17-110"
               id="use350" />
            <use
               transform="translate(493.466973 0)scale(0.996264)"
               xlink:href="#CMR17-116"
               id="use352" />
            <use
               transform="translate(558.823707 0)scale(0.996264)"
               xlink:href="#CMR17-91"
               id="use354" />
            <use
               transform="translate(583.694766 0)scale(0.996264)"
               xlink:href="#CMR17-112"
               id="use356" />
            <use
               transform="translate(634.590136 0)scale(0.996264)"
               xlink:href="#CMR17-65"
               id="use358" />
            <use
               transform="translate(733.738532 0)scale(0.996264)"
               xlink:href="#CMR17-78"
               id="use360" />
            <use
               transform="translate(802.810962 0)scale(0.996264)"
               xlink:href="#CMR17-93"
               id="use362" />
          </g>
        </g>
      </g>
      <g
         id="line2d_15">
        <path
           clip-path="url(#p625a53104b)"
           d="M 65.184109 131.783476  L 67.710327 128.028904  L 70.236545 124.320658  L 72.762764 120.665669  L 75.288982 117.070219  L 77.8152 113.539957  L 80.341418 110.079917  L 82.867636 106.694532  L 85.393855 103.387661  L 87.920073 100.162606  L 90.446291 97.022138  L 92.972509 93.968523  L 95.498727 91.003553  L 98.024945 88.128571  L 100.551164 85.344502  L 103.077382 82.651888  L 105.6036 80.050911  L 108.129818 77.541428  L 110.656036 75.123002  L 113.182255 72.794926  L 115.708473 70.556255  L 118.234691 68.40583  L 120.760909 66.342305  L 123.287127 64.364171  L 125.813345 62.469779  L 128.339564 60.657357  L 130.865782 58.925036  L 133.392 57.270863  L 135.918218 55.69282  L 138.444436 54.188838  L 140.970655 52.756812  L 143.496873 51.394612  L 146.023091 50.100095  L 148.549309 48.871116  L 151.075527 47.705533  L 153.601745 46.601221  L 156.127964 45.556074  L 158.654182 44.568012  L 161.1804 43.634986  L 163.706618 42.754985  L 166.232836 41.926037  L 168.759055 41.146212  L 171.285273 40.413627  L 173.811491 39.726443  L 176.337709 39.082874  L 178.863927 38.481182  L 181.390145 37.91968  L 183.916364 37.396731  L 186.442582 36.910753  L 188.9688 36.460211  L 191.495018 36.043625  L 194.021236 35.659562  L 196.547455 35.306643  L 199.073673 34.983536  L 201.599891 34.688956  L 204.126109 34.421667  L 206.652327 34.18048  L 209.178545 33.964251  L 211.704764 33.771878  L 214.230982 33.602304  L 216.7572 33.454512  L 219.283418 33.327526  L 221.809636 33.22041  L 224.335855 33.132265  L 226.862073 33.062227  L 229.388291 33.00947  L 231.914509 32.9732  L 234.440727 32.952658  L 236.966945 32.947113  L 239.493164 32.955868  L 242.019382 32.978254  L 244.5456 33.013629  L 247.071818 33.061381  L 249.598036 33.120921  L 252.124255 33.191687  L 254.650473 33.273139  L 257.176691 33.364763  L 259.702909 33.466065  L 262.229127 33.576571  L 264.755345 33.695832  L 267.281564 33.823412  L 269.807782 33.9589  L 272.334 34.101898  L 274.860218 34.252028  L 277.386436 34.408928  L 279.912655 34.572251  L 282.438873 34.741664  L 284.965091 34.916851  L 287.491309 35.097509  L 290.017527 35.283347  L 292.543745 35.474087  L 295.069964 35.669464  L 297.596182 35.869225  L 300.1224 36.073125  L 302.648618 36.280934  L 305.174836 36.492428  L 307.701055 36.707396  L 310.227273 36.925634  L 312.753491 37.146949  L 315.279709 37.371154  L 317.805927 37.598072  "
           style="fill:none;stroke:#4c72b0;stroke-linecap:round;stroke-width:2;"
           id="path368" />
      </g>
      <g
         id="patch_9">
        <path
           d="M 52.553018 136.725295  L 52.553018 28.005295  "
           style="fill:none;stroke:#262626;stroke-linecap:square;stroke-linejoin:miter;stroke-width:1.25;"
           id="path371" />
      </g>
      <g
         id="patch_10">
        <path
           d="M 372.119618 136.725295  L 372.119618 28.005295  "
           style="fill:none;stroke:#262626;stroke-linecap:square;stroke-linejoin:miter;stroke-width:1.25;"
           id="path374" />
      </g>
      <g
         id="patch_11">
        <path
           d="M 52.553018 136.725295  L 330.437018 136.725295  "
           style="fill:none;stroke:#262626;stroke-linecap:square;stroke-linejoin:miter;stroke-width:1.25;"
           id="path377" />
      </g>
      <g
         id="legend_1">
        <g
           id="line2d_16">
          <path
             d="M 56.953018 15.45  L 78.953018 15.45  "
             style="fill:none;stroke:#00ffff;stroke-linecap:round;stroke-width:2;"
             id="path380" />
        </g>
        <g
           id="line2d_17" />
        <g
           id="text_17">
          <!-- I -->
          <g
             style="fill:#262626;"
             transform="translate(87.753018 19.3)scale(0.11 -0.11)"
             id="g386">
            <use
               transform="scale(0.996264)"
               xlink:href="#CMR17-73"
               id="use384" />
          </g>
        </g>
        <g
           id="line2d_18">
          <path
             d="M 170.235028 15.45  L 192.235028 15.45  "
             style="fill:none;stroke:#1a1a1a;stroke-linecap:round;stroke-width:2;"
             id="path389" />
        </g>
        <g
           id="line2d_19" />
        <g
           id="text_18">
          <!-- N -->
          <g
             style="fill:#262626;"
             transform="translate(201.035028 19.3)scale(0.11 -0.11)"
             id="g395">
            <use
               transform="scale(0.996264)"
               xlink:href="#CMR17-78"
               id="use393" />
          </g>
        </g>
        <g
           id="line2d_20">
          <path
             d="M 287.778857 15.45  L 309.778857 15.45  "
             style="fill:none;stroke:#4c72b0;stroke-linecap:round;stroke-width:2;"
             id="path398" />
        </g>
        <g
           id="line2d_21" />
        <g
           id="text_19">
          <!-- P -->
          <g
             style="fill:#262626;"
             transform="translate(318.578857 19.3)scale(0.11 -0.11)"
             id="g404">
            <use
               transform="scale(0.996264)"
               xlink:href="#CMR17-80"
               id="use402" />
          </g>
        </g>
      </g>
    </g>
  </g>
  <defs
     id="defs413">
    <clipPath
       id="p625a53104b">
      <rect
         height="108.72"
         width="277.884"
         x="52.553018"
         y="28.005295"
         id="rect410" />
    </clipPath>
  </defs>
  <g
     id="layer1"
     inkscape:label="Layer 1"
     transform="matrix(0.8,0,0,0.8,45.99102,-337.04771)"
     style="stroke-linecap:butt;stroke-linejoin:round">
    <path
       sodipodi:nodetypes="ccccc"
       inkscape:connector-curvature="0"
       id="rect4163"
       d="M 350.54052,501.81105 V 585.7705 L 230.74183,549.20316 v -10.67745 z"
       style="display:inline;opacity:1;fill:url(#linearGradient4180);fill-opacity:1;stroke:none;stroke-width:11.34200001;stroke-linecap:butt;stroke-linejoin:round;stroke-miterlimit:4;stroke-dasharray:none;stroke-dashoffset:0;stroke-opacity:1" />
    <path
       sodipodi:nodetypes="ccccc"
       inkscape:connector-curvature="0"
       id="rect4182"
       d="m 230.85341,538.482 v 10.68156 H 203.7452 V 538.482 Z"
       style="display:inline;opacity:1;fill:url(#radialGradient5065);fill-opacity:1;stroke:none;stroke-width:11.34200001;stroke-linecap:butt;stroke-linejoin:round;stroke-miterlimit:4;stroke-dasharray:none;stroke-dashoffset:0;stroke-opacity:1" />
    <path
       d="m 269.97846,526.65675 a 8.056633,17.528595 0 0 1 9.44233,13.86702 8.056633,17.528595 0 0 1 -6.37095,20.54741 8.056633,17.528595 0 0 1 -9.446,-13.85518 8.056633,17.528595 0 0 1 6.36551,-20.55539"
       sodipodi:open="true"
       sodipodi:end="4.5197395"
       sodipodi:start="4.5208915"
       sodipodi:ry="17.528595"
       sodipodi:rx="8.056633"
       sodipodi:cy="543.86493"
       sodipodi:cx="271.51187"
       sodipodi:type="arc"
       id="path4138-4"
       style="opacity:0.33000004;fill:#000000;fill-opacity:1;stroke:none;stroke-width:10.16899967;stroke-linecap:butt;stroke-linejoin:round;stroke-miterlimit:4;stroke-dasharray:none;stroke-dashoffset:0;stroke-opacity:1" />
    <path
       d="m 325.29645,509.42355 a 16.351383,35.057186 0 0 1 19.16374,27.73404 16.351383,35.057186 0 0 1 -12.9302,41.09482 16.351383,35.057186 0 0 1 -19.17118,-27.71037 16.351383,35.057186 0 0 1 12.91915,-41.11078"
       sodipodi:open="true"
       sodipodi:end="4.5197395"
       sodipodi:start="4.5208915"
       sodipodi:ry="35.057186"
       sodipodi:rx="16.351383"
       sodipodi:cy="543.8399"
       sodipodi:cx="328.4086"
       sodipodi:type="arc"
       id="path4138-3"
       style="opacity:0.33000004;fill:#000000;fill-opacity:1;stroke:none;stroke-width:10.16899967;stroke-linecap:butt;stroke-linejoin:round;stroke-miterlimit:4;stroke-dasharray:none;stroke-dashoffset:0;stroke-opacity:1" />
    <text
       id="text11892"
       y="548.47858"
       x="319.66226"
       style="font-style:normal;font-weight:normal;line-height:0%;font-family:sans-serif;letter-spacing:0px;word-spacing:0px;fill:#000000;fill-opacity:1;stroke:none;stroke-width:1px;stroke-linecap:butt;stroke-linejoin:miter;stroke-opacity:1"
       xml:space="preserve"><tspan
         style="font-style:normal;font-variant:normal;font-weight:normal;font-stretch:normal;font-size:12.5px;line-height:1.25;font-family:serif;-inkscape-font-specification:serif;stroke-linecap:butt;stroke-linejoin:round"
         y="548.47858"
         x="319.66226"
         id="tspan11894"
         sodipodi:role="line">4A</tspan></text>
    <text
       id="text11953"
       y="548.48279"
       x="243.01773"
       style="font-style:normal;font-weight:normal;line-height:0%;font-family:sans-serif;letter-spacing:0px;word-spacing:0px;fill:#000000;fill-opacity:1;stroke:none;stroke-width:1px;stroke-linecap:butt;stroke-linejoin:miter;stroke-opacity:1"
       xml:space="preserve"><tspan
         style="font-style:normal;font-variant:normal;font-weight:normal;font-stretch:normal;font-size:12.5px;line-height:1.25;font-family:serif;-inkscape-font-specification:serif;stroke-linecap:butt;stroke-linejoin:round"
         y="548.48279"
         x="243.01773"
         id="tspan11955"
         sodipodi:role="line">d</tspan></text>
    <text
       id="text11892-3"
       y="548.4212"
       x="266.97391"
       style="font-style:normal;font-weight:normal;line-height:0%;font-family:sans-serif;letter-spacing:0px;word-spacing:0px;fill:#000000;fill-opacity:1;stroke:none;stroke-width:1px;stroke-linecap:butt;stroke-linejoin:miter;stroke-opacity:1"
       xml:space="preserve"><tspan
         style="font-style:normal;font-variant:normal;font-weight:normal;font-stretch:normal;font-size:12.5px;line-height:1.25;font-family:serif;-inkscape-font-specification:serif;stroke-linecap:butt;stroke-linejoin:round"
         y="548.4212"
         x="266.97391"
         id="tspan11894-6"
         sodipodi:role="line">A</tspan></text>
    <text
       id="text11953-3"
       y="548.28381"
       x="291.74872"
       style="font-style:normal;font-weight:normal;line-height:0%;font-family:sans-serif;letter-spacing:0px;word-spacing:0px;fill:#000000;fill-opacity:1;stroke:none;stroke-width:1px;stroke-linecap:butt;stroke-linejoin:miter;stroke-opacity:1"
       xml:space="preserve"><tspan
         style="font-style:normal;font-variant:normal;font-weight:normal;font-stretch:normal;font-size:12.5px;line-height:1.25;font-family:serif;-inkscape-font-specification:serif;stroke-linecap:butt;stroke-linejoin:round"
         y="548.28381"
         x="291.74872"
         id="tspan11955-6"
         sodipodi:role="line">d</tspan></text>
    <path
       sodipodi:nodetypes="cc"
       inkscape:connector-curvature="0"
       id="path6332-3"
       d="m 262.66924,543.73025 -9.10309,0.12909"
       style="fill:none;fill-rule:evenodd;stroke:#000000;stroke-width:0.46612638;stroke-linecap:butt;stroke-linejoin:miter;stroke-miterlimit:4;stroke-dasharray:none;stroke-opacity:1;marker-mid:url(#Arrow1Lstart-7)" />
    <path
       sodipodi:nodetypes="cc"
       inkscape:connector-curvature="0"
       id="path6332-3-2"
       d="m 231.63932,543.73025 9.10308,0.12909"
       style="fill:none;fill-rule:evenodd;stroke:#000000;stroke-width:0.46612638;stroke-linecap:butt;stroke-linejoin:miter;stroke-miterlimit:4;stroke-dasharray:none;stroke-opacity:1;marker-mid:url(#Arrow1Lstart-7-5)" />
    <path
       sodipodi:nodetypes="cc"
       inkscape:connector-curvature="0"
       id="path6332-3-0"
       d="m 311.25663,543.73025 -9.10309,0.12909"
       style="fill:none;fill-rule:evenodd;stroke:#000000;stroke-width:0.46612638;stroke-linecap:butt;stroke-linejoin:miter;stroke-miterlimit:4;stroke-dasharray:none;stroke-opacity:1;marker-mid:url(#Arrow1Lstart-7-2)" />
    <path
       sodipodi:nodetypes="cc"
       inkscape:connector-curvature="0"
       id="path6332-3-2-9"
       d="m 280.22672,543.73025 9.10307,0.12909"
       style="fill:none;fill-rule:evenodd;stroke:#000000;stroke-width:0.46612638;stroke-linecap:butt;stroke-linejoin:miter;stroke-miterlimit:4;stroke-dasharray:none;stroke-opacity:1;marker-mid:url(#Arrow1Lstart-7-5-9)" />
  </g>
</svg>
