<?xml version="1.0" encoding="UTF-8" standalone="no"?>
<!-- Created with matplotlib (http://matplotlib.org/) -->

<svg
   xmlns:dc="http://purl.org/dc/elements/1.1/"
   xmlns:cc="http://creativecommons.org/ns#"
   xmlns:rdf="http://www.w3.org/1999/02/22-rdf-syntax-ns#"
   xmlns:svg="http://www.w3.org/2000/svg"
   xmlns="http://www.w3.org/2000/svg"
   xmlns:xlink="http://www.w3.org/1999/xlink"
   xmlns:sodipodi="http://sodipodi.sourceforge.net/DTD/sodipodi-0.dtd"
   xmlns:inkscape="http://www.inkscape.org/namespaces/inkscape"
   height="174pt"
   version="1.1"
   viewBox="0 0 370 174"
   width="370pt"
   id="svg2"
   inkscape:version="0.91 r13725"
   sodipodi:docname="opto-powerlaw.svg">
  <metadata
     id="metadata365">
    <rdf:RDF>
      <cc:Work
         rdf:about="">
        <dc:format>image/svg+xml</dc:format>
        <dc:type
           rdf:resource="http://purl.org/dc/dcmitype/StillImage" />
      </cc:Work>
    </rdf:RDF>
  </metadata>
  <sodipodi:namedview
     pagecolor="#ffffff"
     bordercolor="#666666"
     borderopacity="1"
     objecttolerance="10"
     gridtolerance="10"
     guidetolerance="10"
     inkscape:pageopacity="0"
     inkscape:pageshadow="2"
     inkscape:window-width="1867"
     inkscape:window-height="1056"
     id="namedview363"
     showgrid="false"
     inkscape:zoom="1.8224244"
     inkscape:cx="204.49426"
     inkscape:cy="77.542313"
     inkscape:window-x="53"
     inkscape:window-y="24"
     inkscape:window-maximized="1"
     inkscape:current-layer="figure_1" />
  <defs
     id="defs4">
    <style
       type="text/css"
       id="style6">
*{stroke-linecap:butt;stroke-linejoin:round;}
  </style>
    <marker
       inkscape:isstock="true"
       style="overflow:visible"
       id="Arrow1Lstart-7-5-9"
       refX="0"
       refY="0"
       orient="auto"
       inkscape:stockid="Arrow1Lstart">
      <path
         transform="matrix(0.8,0,0,0.8,10,0)"
         style="fill:#000000;fill-opacity:1;fill-rule:evenodd;stroke:#000000;stroke-width:1pt;stroke-opacity:1"
         d="M 0,0 5,-5 -12.5,0 5,5 0,0 Z"
         id="path6068-5-6-1"
         inkscape:connector-curvature="0" />
    </marker>
    <marker
       inkscape:isstock="true"
       style="overflow:visible"
       id="marker9604"
       refX="0"
       refY="0"
       orient="auto"
       inkscape:stockid="Arrow1Lstart">
      <path
         transform="matrix(0.8,0,0,0.8,10,0)"
         style="fill:#000000;fill-opacity:1;fill-rule:evenodd;stroke:#000000;stroke-width:1pt;stroke-opacity:1"
         d="M 0,0 5,-5 -12.5,0 5,5 0,0 Z"
         id="path9606"
         inkscape:connector-curvature="0" />
    </marker>
    <marker
       inkscape:isstock="true"
       style="overflow:visible"
       id="Arrow1Lstart-7-2"
       refX="0"
       refY="0"
       orient="auto"
       inkscape:stockid="Arrow1Lstart">
      <path
         transform="matrix(0.8,0,0,0.8,10,0)"
         style="fill:#000000;fill-opacity:1;fill-rule:evenodd;stroke:#000000;stroke-width:1pt;stroke-opacity:1"
         d="M 0,0 5,-5 -12.5,0 5,5 0,0 Z"
         id="path6068-5-7"
         inkscape:connector-curvature="0" />
    </marker>
    <marker
       inkscape:isstock="true"
       style="overflow:visible"
       id="marker9610"
       refX="0"
       refY="0"
       orient="auto"
       inkscape:stockid="Arrow1Lstart">
      <path
         transform="matrix(0.8,0,0,0.8,10,0)"
         style="fill:#000000;fill-opacity:1;fill-rule:evenodd;stroke:#000000;stroke-width:1pt;stroke-opacity:1"
         d="M 0,0 5,-5 -12.5,0 5,5 0,0 Z"
         id="path9612"
         inkscape:connector-curvature="0" />
    </marker>
    <marker
       inkscape:isstock="true"
       style="overflow:visible"
       id="Arrow1Lstart-7-5"
       refX="0"
       refY="0"
       orient="auto"
       inkscape:stockid="Arrow1Lstart">
      <path
         transform="matrix(0.8,0,0,0.8,10,0)"
         style="fill:#000000;fill-opacity:1;fill-rule:evenodd;stroke:#000000;stroke-width:1pt;stroke-opacity:1"
         d="M 0,0 5,-5 -12.5,0 5,5 0,0 Z"
         id="path6068-5-6"
         inkscape:connector-curvature="0" />
    </marker>
    <marker
       inkscape:isstock="true"
       style="overflow:visible"
       id="marker9616"
       refX="0"
       refY="0"
       orient="auto"
       inkscape:stockid="Arrow1Lstart">
      <path
         transform="matrix(0.8,0,0,0.8,10,0)"
         style="fill:#000000;fill-opacity:1;fill-rule:evenodd;stroke:#000000;stroke-width:1pt;stroke-opacity:1"
         d="M 0,0 5,-5 -12.5,0 5,5 0,0 Z"
         id="path9618"
         inkscape:connector-curvature="0" />
    </marker>
    <marker
       inkscape:isstock="true"
       style="overflow:visible"
       id="Arrow1Lstart-7"
       refX="0"
       refY="0"
       orient="auto"
       inkscape:stockid="Arrow1Lstart">
      <path
         transform="matrix(0.8,0,0,0.8,10,0)"
         style="fill:#000000;fill-opacity:1;fill-rule:evenodd;stroke:#000000;stroke-width:1pt;stroke-opacity:1"
         d="M 0,0 5,-5 -12.5,0 5,5 0,0 Z"
         id="path6068-5"
         inkscape:connector-curvature="0" />
    </marker>
    <marker
       inkscape:isstock="true"
       style="overflow:visible"
       id="marker9622"
       refX="0"
       refY="0"
       orient="auto"
       inkscape:stockid="Arrow1Lstart">
      <path
         transform="matrix(0.8,0,0,0.8,10,0)"
         style="fill:#000000;fill-opacity:1;fill-rule:evenodd;stroke:#000000;stroke-width:1pt;stroke-opacity:1"
         d="M 0,0 5,-5 -12.5,0 5,5 0,0 Z"
         id="path9624"
         inkscape:connector-curvature="0" />
    </marker>
    <radialGradient
       gradientUnits="userSpaceOnUse"
       gradientTransform="matrix(0.00137657,0.06619621,-1.5556435,0.03241131,1255.2886,483.65394)"
       r="121.07143"
       fy="666.711"
       fx="586.04224"
       cy="666.711"
       cx="586.04224"
       id="radialGradient5065"
       xlink:href="#linearGradient5009"
       inkscape:collect="always" />
    <linearGradient
       id="linearGradient5009">
      <stop
         style="stop-color:#1a1b1f;stop-opacity:1;"
         offset="0"
         id="stop5011" />
      <stop
         id="stop5013"
         offset="0"
         style="stop-color:#7e7e81;stop-opacity:1;" />
      <stop
         style="stop-color:#c7c9cb;stop-opacity:1;"
         offset="0.00000007"
         id="stop5015" />
      <stop
         id="stop5017"
         offset="0.00000001"
         style="stop-color:#f2f2f2;stop-opacity:1;" />
      <stop
         style="stop-color:#555758;stop-opacity:1;"
         offset="0.67030871"
         id="stop5019" />
      <stop
         id="stop5021"
         offset="0.99999988"
         style="stop-color:#bbb9b5;stop-opacity:1;" />
      <stop
         style="stop-color:#949696;stop-opacity:1;"
         offset="1"
         id="stop5023" />
    </linearGradient>
    <linearGradient
       gradientTransform="matrix(-0.31764408,0.07563651,-0.30847583,-0.07788451,653.51186,555.07138)"
       gradientUnits="userSpaceOnUse"
       y2="548.78442"
       x2="413.05945"
       y1="733.79077"
       x1="605.71429"
       id="linearGradient4180"
       xlink:href="#linearGradient4174"
       inkscape:collect="always" />
    <linearGradient
       id="linearGradient4174"
       inkscape:collect="always">
      <stop
         id="stop4176"
         offset="0"
         style="stop-color:#00ffff;stop-opacity:1;" />
      <stop
         id="stop4178"
         offset="1"
         style="stop-color:#00ffff;stop-opacity:0;" />
    </linearGradient>
  </defs>
  <g
     id="figure_1">
    <g
       id="patch_1">
      <path
         d="M 0 174.739875  L 370.259957 174.739875  L 370.259957 0  L 0 0  z "
         style="fill:#ffffff;"
         id="path10" />
    </g>
    <path
       d="m 47.571683,136.72529 277.883997,0 0,-108.719995 -277.883997,0 z"
       style="fill:#ffffff;stroke-linecap:butt;stroke-linejoin:round"
       id="path14"
       inkscape:connector-curvature="0" />
    <g
       id="xtick_1"
       style="stroke-linecap:butt;stroke-linejoin:round">
      <g
         id="line2d_1"
         style="stroke-linecap:butt;stroke-linejoin:round" />
      <g
         id="text_1"
         style="stroke-linecap:butt;stroke-linejoin:round">
        <!-- $0.0$ -->
        <defs
           id="defs20">
          <path
             d="M 42,31.640625 C 42,37.75 41.90625,48.125 37.703125,56.109375 34,63.109375 28.09375,65.59375 22.90625,65.59375 18.09375,65.59375 12,63.40625 8.203125,56.203125 4.203125,48.71875 3.796875,39.4375 3.796875,31.640625 3.796875,25.953125 3.90625,17.28125 7,9.671875 11.296875,-0.609375 19,-2 22.90625,-2 27.5,-2 34.5,-0.109375 38.59375,9.375 41.59375,16.28125 42,24.359375 42,31.640625 Z M 22.90625,-0.40625 c -6.40625,0 -10.203125,5.484375 -11.609375,13.09375 -1.09375,5.875 -1.09375,14.46875 -1.09375,20.0625 0,7.6875 0,14.078125 1.296875,20.171875 C 13.40625,61.390625 19,64 22.90625,64 27,64 32.296875,61.296875 34.203125,53.125 35.5,47.4375 35.59375,40.734375 35.59375,32.75 c 0,-6.5 0,-14.484375 -1.1875,-20.375 -2.109375,-10.890625 -8,-12.78125 -11.5,-12.78125 z"
             id="CMR17-48"
             inkscape:connector-curvature="0"
             style="stroke-linecap:butt;stroke-linejoin:round" />
          <path
             d="m 18.40625,4.796875 c 0,2.890625 -2.40625,4.875 -4.8125,4.875 -2.890625,0 -4.890625,-2.390625 -4.890625,-4.78125 C 8.703125,2 11.09375,0 13.5,0 c 2.90625,0 4.90625,2.390625 4.90625,4.796875 z"
             id="CMMI12-58"
             inkscape:connector-curvature="0"
             style="stroke-linecap:butt;stroke-linejoin:round" />
        </defs>
        <g
           style="fill:#262626;stroke-linecap:butt;stroke-linejoin:round"
           transform="matrix(0.1,0,0,-0.1,53.837734,150.64379)"
           id="g24">
          <use
             transform="scale(0.996264,0.996264)"
             xlink:href="#CMR17-48"
             id="use26"
             style="stroke-linecap:butt;stroke-linejoin:round"
             x="0"
             y="0"
             width="100%"
             height="100%" />
          <use
             transform="matrix(0.996264,0,0,0.996264,45.690477,0)"
             xlink:href="#CMMI12-58"
             id="use28"
             style="stroke-linecap:butt;stroke-linejoin:round"
             x="0"
             y="0"
             width="100%"
             height="100%" />
          <use
             transform="matrix(0.996264,0,0,0.996264,72.787654,0)"
             xlink:href="#CMR17-48"
             id="use30"
             style="stroke-linecap:butt;stroke-linejoin:round"
             x="0"
             y="0"
             width="100%"
             height="100%" />
        </g>
      </g>
    </g>
    <g
       id="xtick_2"
       style="stroke-linecap:butt;stroke-linejoin:round">
      <g
         id="line2d_2"
         style="stroke-linecap:butt;stroke-linejoin:round" />
      <g
         id="text_2"
         style="stroke-linecap:butt;stroke-linejoin:round">
        <!-- $0.2$ -->
        <defs
           id="defs35">
          <path
             d="m 41.703125,15.453125 -1.796875,0 C 38.90625,8.375 38.09375,7.171875 37.703125,6.5625 37.203125,5.765625 30,5.765625 28.59375,5.765625 l -19.1875,0 C 13,9.671875 20,16.75 28.5,24.953125 34.59375,30.734375 41.703125,37.53125 41.703125,47.421875 41.703125,59.21875 32.296875,66 21.796875,66 10.796875,66 4.09375,56.3125 4.09375,47.34375 4.09375,43.4375 7,42.9375 8.203125,42.9375 c 1,0 4,0.609375 4,4.09375 0,3.078125 -2.609375,3.96875 -4,3.96875 C 7.59375,51 7,50.90625 6.59375,50.703125 8.5,59.21875 14.296875,63.40625 20.40625,63.40625 c 8.6875,0 14.390625,-6.890625 14.390625,-15.984375 C 34.796875,38.734375 29.703125,31.25 24,24.75 L 4.09375,2.28125 4.09375,0 39.296875,0 Z"
             id="CMR17-50"
             inkscape:connector-curvature="0"
             style="stroke-linecap:butt;stroke-linejoin:round" />
        </defs>
        <g
           style="fill:#262626;stroke-linecap:butt;stroke-linejoin:round"
           transform="matrix(0.1,0,0,-0.1,104.3621,150.64379)"
           id="g38">
          <use
             transform="scale(0.996264,0.996264)"
             xlink:href="#CMR17-48"
             id="use40"
             style="stroke-linecap:butt;stroke-linejoin:round"
             x="0"
             y="0"
             width="100%"
             height="100%" />
          <use
             transform="matrix(0.996264,0,0,0.996264,45.690477,0)"
             xlink:href="#CMMI12-58"
             id="use42"
             style="stroke-linecap:butt;stroke-linejoin:round"
             x="0"
             y="0"
             width="100%"
             height="100%" />
          <use
             transform="matrix(0.996264,0,0,0.996264,72.787654,0)"
             xlink:href="#CMR17-50"
             id="use44"
             style="stroke-linecap:butt;stroke-linejoin:round"
             x="0"
             y="0"
             width="100%"
             height="100%" />
        </g>
      </g>
    </g>
    <g
       id="xtick_3"
       style="stroke-linecap:butt;stroke-linejoin:round">
      <g
         id="line2d_3"
         style="stroke-linecap:butt;stroke-linejoin:round" />
      <g
         id="text_3"
         style="stroke-linecap:butt;stroke-linejoin:round">
        <!-- $0.4$ -->
        <defs
           id="defs49">
          <path
             d="M 33.59375,64.40625 C 33.59375,66.5 33.5,66.5 31.703125,66.5 L 2,19.59375 2,17 l 25.796875,0 0,-9.859375 C 27.796875,3.5 27.59375,2.5 20.59375,2.5 l -1.890625,0 0,-2.5 c 3.203125,0 8.59375,0 12,0 3.390625,0 8.796875,0 12,0 l 0,2.5 -1.90625,0 c -7,0 -7.203125,1 -7.203125,4.640625 l 0,9.859375 10.203125,0 0,2.59375 -10.203125,0 z m -5.5,-6.546875 0,-38.265625 -24.09375,0 z"
             id="CMR17-52"
             inkscape:connector-curvature="0"
             style="stroke-linecap:butt;stroke-linejoin:round" />
        </defs>
        <g
           style="fill:#262626;stroke-linecap:butt;stroke-linejoin:round"
           transform="matrix(0.1,0,0,-0.1,154.88646,150.64379)"
           id="g52">
          <use
             transform="scale(0.996264,0.996264)"
             xlink:href="#CMR17-48"
             id="use54"
             style="stroke-linecap:butt;stroke-linejoin:round"
             x="0"
             y="0"
             width="100%"
             height="100%" />
          <use
             transform="matrix(0.996264,0,0,0.996264,45.690477,0)"
             xlink:href="#CMMI12-58"
             id="use56"
             style="stroke-linecap:butt;stroke-linejoin:round"
             x="0"
             y="0"
             width="100%"
             height="100%" />
          <use
             transform="matrix(0.996264,0,0,0.996264,72.787654,0)"
             xlink:href="#CMR17-52"
             id="use58"
             style="stroke-linecap:butt;stroke-linejoin:round"
             x="0"
             y="0"
             width="100%"
             height="100%" />
        </g>
      </g>
    </g>
    <g
       id="xtick_4"
       style="stroke-linecap:butt;stroke-linejoin:round">
      <g
         id="line2d_4"
         style="stroke-linecap:butt;stroke-linejoin:round" />
      <g
         id="text_4"
         style="stroke-linecap:butt;stroke-linejoin:round">
        <!-- $0.6$ -->
        <defs
           id="defs63">
          <path
             d="m 10.59375,34 c 0,23.65625 11.203125,29 17.703125,29 C 30.40625,63 35.5,62.640625 37.5,59 c -1.59375,0 -4.59375,0 -4.59375,-3.484375 0,-2.6875 2.1875,-3.59375 3.59375,-3.59375 0.90625,0 3.59375,0.390625 3.59375,3.703125 0,6.15625 -5,9.671875 -11.890625,9.671875 C 16.296875,65.296875 3.796875,52.96875 3.796875,31 3.796875,3.953125 15.09375,-2 23.09375,-2 32.796875,-2 42,6.671875 42,20.046875 42,32.515625 33.90625,41.59375 23.703125,41.59375 17.59375,41.59375 13.09375,37.609375 10.59375,30.625 Z m 12.5,-33.609375 C 10.796875,0.390625 10.796875,18.75 10.796875,22.4375 10.796875,29.625 14.203125,40 23.5,40 c 1.703125,0 6.59375,0 9.90625,-6.875 1.796875,-3.90625 1.796875,-7.984375 1.796875,-12.984375 0,-5.390625 0,-9.359375 -2.109375,-13.359375 -2.1875,-4.109375 -5.390625,-6.390625 -10,-6.390625 z"
             id="CMR17-54"
             inkscape:connector-curvature="0"
             style="stroke-linecap:butt;stroke-linejoin:round" />
        </defs>
        <g
           style="fill:#262626;stroke-linecap:butt;stroke-linejoin:round"
           transform="matrix(0.1,0,0,-0.1,205.41082,150.64379)"
           id="g66">
          <use
             transform="scale(0.996264,0.996264)"
             xlink:href="#CMR17-48"
             id="use68"
             style="stroke-linecap:butt;stroke-linejoin:round"
             x="0"
             y="0"
             width="100%"
             height="100%" />
          <use
             transform="matrix(0.996264,0,0,0.996264,45.690477,0)"
             xlink:href="#CMMI12-58"
             id="use70"
             style="stroke-linecap:butt;stroke-linejoin:round"
             x="0"
             y="0"
             width="100%"
             height="100%" />
          <use
             transform="matrix(0.996264,0,0,0.996264,72.787654,0)"
             xlink:href="#CMR17-54"
             id="use72"
             style="stroke-linecap:butt;stroke-linejoin:round"
             x="0"
             y="0"
             width="100%"
             height="100%" />
        </g>
      </g>
    </g>
    <g
       id="xtick_5"
       style="stroke-linecap:butt;stroke-linejoin:round">
      <g
         id="line2d_5"
         style="stroke-linecap:butt;stroke-linejoin:round" />
      <g
         id="text_5"
         style="stroke-linecap:butt;stroke-linejoin:round">
        <!-- $0.8$ -->
        <defs
           id="defs77">
          <path
             d="M 27.203125,35.375 C 33.5,38.546875 39.90625,43.328125 39.90625,50.984375 c 0,9.03125 -8.8125,14.3125 -16.90625,14.3125 -9.09375,0 -17.09375,-6.5625 -17.09375,-15.609375 0,-2.484375 0.59375,-6.765625 4.5,-10.546875 1,-0.984375 5.1875,-3.96875 7.890625,-5.859375 -4.5,-2.296875 -15,-7.75 -15,-18.6875 C 3.296875,4.359375 13.09375,-2 22.796875,-2 33.5,-2 42.5,5.65625 42.5,15.78125 c 0,9.0625 -6.09375,13.234375 -10.09375,15.921875 z M 14.09375,44.09375 c -0.796875,0.5 -4.796875,3.578125 -4.796875,8.265625 0,6.0625 6.296875,10.640625 13.5,10.640625 C 30.703125,63 36.5,57.4375 36.5,50.96875 36.5,41.703125 26.09375,36.421875 25.59375,36.421875 c -0.09375,0 -0.1875,0 -1,0.609375 z M 32.5,23.734375 C 34,22.640625 38.796875,19.375 38.796875,13.296875 38.796875,5.953125 31.40625,0.390625 23,0.390625 c -9.09375,0 -16,6.453125 -16,14.296875 0,7.859375 6.09375,14.40625 13,17.5 z"
             id="CMR17-56"
             inkscape:connector-curvature="0"
             style="stroke-linecap:butt;stroke-linejoin:round" />
        </defs>
        <g
           style="fill:#262626;stroke-linecap:butt;stroke-linejoin:round"
           transform="matrix(0.1,0,0,-0.1,255.93519,150.64379)"
           id="g80">
          <use
             transform="scale(0.996264,0.996264)"
             xlink:href="#CMR17-48"
             id="use82"
             style="stroke-linecap:butt;stroke-linejoin:round"
             x="0"
             y="0"
             width="100%"
             height="100%" />
          <use
             transform="matrix(0.996264,0,0,0.996264,45.690477,0)"
             xlink:href="#CMMI12-58"
             id="use84"
             style="stroke-linecap:butt;stroke-linejoin:round"
             x="0"
             y="0"
             width="100%"
             height="100%" />
          <use
             transform="matrix(0.996264,0,0,0.996264,72.787654,0)"
             xlink:href="#CMR17-56"
             id="use86"
             style="stroke-linecap:butt;stroke-linejoin:round"
             x="0"
             y="0"
             width="100%"
             height="100%" />
        </g>
      </g>
    </g>
    <g
       id="xtick_6"
       style="stroke-linecap:butt;stroke-linejoin:round">
      <g
         id="line2d_6"
         style="stroke-linecap:butt;stroke-linejoin:round" />
      <g
         id="text_6"
         style="stroke-linecap:butt;stroke-linejoin:round">
        <!-- $1.0$ -->
        <defs
           id="defs91">
          <path
             d="M 26.59375,63.40625 C 26.59375,65.5 26.5,65.5 25.09375,65.5 21.203125,61.1875 15.296875,59.796875 9.703125,59.796875 c -0.296875,0 -0.796875,0 -0.90625,-0.296875 C 8.703125,59.296875 8.703125,59.09375 8.703125,57 11.796875,57 17,57.59375 21,59.984375 L 21,7.203125 C 21,3.6875 20.796875,2.5 12.203125,2.5 l -3,0 0,-2.5 C 14,0 19,0 23.796875,0 28.59375,0 33.59375,0 38.40625,0 l 0,2.5 -3,0 c -8.609375,0 -8.8125,1.09375 -8.8125,4.65625 z"
             id="CMR17-49"
             inkscape:connector-curvature="0"
             style="stroke-linecap:butt;stroke-linejoin:round" />
        </defs>
        <g
           style="fill:#262626;stroke-linecap:butt;stroke-linejoin:round"
           transform="matrix(0.1,0,0,-0.1,306.45955,150.64379)"
           id="g94">
          <use
             transform="scale(0.996264,0.996264)"
             xlink:href="#CMR17-49"
             id="use96"
             style="stroke-linecap:butt;stroke-linejoin:round"
             x="0"
             y="0"
             width="100%"
             height="100%" />
          <use
             transform="matrix(0.996264,0,0,0.996264,45.690477,0)"
             xlink:href="#CMMI12-58"
             id="use98"
             style="stroke-linecap:butt;stroke-linejoin:round"
             x="0"
             y="0"
             width="100%"
             height="100%" />
          <use
             transform="matrix(0.996264,0,0,0.996264,72.787654,0)"
             xlink:href="#CMR17-48"
             id="use100"
             style="stroke-linecap:butt;stroke-linejoin:round"
             x="0"
             y="0"
             width="100%"
             height="100%" />
        </g>
      </g>
    </g>
    <g
       id="text_7"
       style="stroke-linecap:butt;stroke-linejoin:round">
      <!-- Depth [mm] -->
      <defs
         id="defs103">
        <path
           d="m 5.203125,68 0,-2.59375 c 6.890625,0 8,0 8,-4.46875 l 0,-53.875 c 0,-4.46875 -1.109375,-4.46875 -8,-4.46875 L 5.203125,0 37,0 C 53.09375,0 66,14.734375 66,33.453125 66,52.28125 53.296875,68 37,68 Z M 23.796875,2.59375 c -4,0 -4.203125,0.484375 -4.203125,3.875 l 0,55.0625 c 0,3.390625 0.203125,3.875 4.203125,3.875 l 11.203125,0 c 8.296875,0 23.59375,-4.875 23.59375,-31.953125 0,-14.046875 -4.09375,-19.71875 -6,-22.40625 C 50.203125,7.96875 44.5,2.59375 35,2.59375 Z"
           id="CMR17-68"
           inkscape:connector-curvature="0"
           style="stroke-linecap:butt;stroke-linejoin:round" />
        <path
           d="M 38.09375,23 C 38.5,23.40625 38.5,23.609375 38.5,24.625 38.5,34.96875 33.09375,44 21.703125,44 c -10.609375,0 -19,-10.109375 -19,-22.390625 0,-13 9.5,-22.609375 20.09375,-22.609375 C 34,-1 38.40625,9.484375 38.40625,11.5625 c 0,0.6875 -0.609375,0.6875 -0.8125,0.6875 -0.6875,0 -0.796875,-0.203125 -1.1875,-1.375 C 34.203125,4.140625 28.703125,0.796875 23.5,0.796875 19.203125,0.796875 14.90625,3.171875 12.203125,7.5 9.09375,12.546875 9.09375,18.375 9.09375,23 Z M 9.203125,24.5 c 0.703125,14.640625 8.390625,17.90625 12.390625,17.90625 6.8125,0 11.40625,-6.515625 11.5,-17.90625 z"
           id="CMR17-101"
           inkscape:connector-curvature="0"
           style="stroke-linecap:butt;stroke-linejoin:round" />
        <path
           d="m 22,-16.609375 c -6.40625,0 -6.796875,0.40625 -6.796875,4.28125 l 0,18.609375 c 2.890625,-4.1875 7.09375,-6.875 12.390625,-6.875 10,0 20.109375,8.765625 20.109375,22.28125 0,12.546875 -8.703125,22.09375 -19,22.09375 -6,0 -10.90625,-3.28125 -13.703125,-7.25 l 0,7.25 -11.90625,-1.09375 0,-2.578125 c 5.90625,0 6.8125,-0.609375 6.8125,-5.375 l 0,-47.0625 c 0,-3.78125 -0.40625,-4.28125 -6.8125,-4.28125 l 0,-2.578125 C 5.5,-19 9.90625,-19 12.5,-19 c 2.59375,0 7.09375,0 9.5,-0.1875 z M 15.203125,31.4375 c 0,1.40625 0,3.484375 3.890625,7.171875 C 19.59375,39.015625 23,42 28,42 35.296875,42 41.296875,32.9375 41.296875,21.59375 41.296875,10.25 34.90625,1 27,1 23.40625,1 19.5,2.6875 16.5,7.375 15.203125,9.5625 15.203125,10.15625 15.203125,11.75 Z"
           id="CMR17-112"
           inkscape:connector-curvature="0"
           style="stroke-linecap:butt;stroke-linejoin:round" />
        <path
           d="m 15.09375,40 14,0 0,2.578125 -14,0 0,18.421875 -1.796875,0 C 13.09375,50.703125 9.59375,41.6875 1.09375,41.6875 l 0,-1.6875 8.703125,0 0,-27.953125 C 9.796875,10.15625 9.796875,-1 21.40625,-1 c 5.890625,0 9.296875,5.78125 9.296875,13.140625 l 0,5.671875 -1.796875,0 0,-5.578125 C 28.90625,5.375 26.203125,0.796875 22,0.796875 c -2.90625,0 -6.90625,1.984375 -6.90625,11.046875 z"
           id="CMR17-116"
           inkscape:connector-curvature="0"
           style="stroke-linecap:butt;stroke-linejoin:round" />
        <path
           d="m 41.5,30.203125 c 0,5.09375 -1,13.390625 -12.796875,13.390625 C 20.5,43.59375 16.5,37 15.296875,33.703125 l -0.09375,0 0,34.984375 -11.90625,-1.09375 0,-2.59375 c 5.90625,0 6.796875,-0.59375 6.796875,-5.359375 l 0,-52.984375 c 0,-3.78125 -0.390625,-4.265625 -6.796875,-4.265625 l 0,-2.59375 C 5.703125,0 10.09375,0 12.703125,0 c 2.59375,0 7.09375,0 9.5,-0.203125 l 0,2.59375 c -6.40625,0 -6.796875,0.390625 -6.796875,4.296875 l 0,19.21875 C 15.40625,35.109375 21,42 28,42 c 7.40625,0 8.203125,-6.59375 8.203125,-11.40625 l 0,-23.90625 c 0,-3.8125 -0.40625,-4.296875 -6.796875,-4.296875 l 0,-2.59375 C 31.796875,0 36.203125,0 38.796875,0 c 2.609375,0 7.109375,0 9.5,-0.203125 l 0,2.59375 C 41.90625,2.390625 41.5,2.78125 41.5,6.6875 Z"
           id="CMR17-104"
           inkscape:connector-curvature="0"
           style="stroke-linecap:butt;stroke-linejoin:round" />
        <path
           d="m 23.5,-25 0,3.484375 -9.40625,0 0,92.515625 9.40625,0 0,3.484375 -12.90625,0 0,-99.484375 z"
           id="CMR17-91"
           inkscape:connector-curvature="0"
           style="stroke-linecap:butt;stroke-linejoin:round" />
        <path
           d="m 67.59375,30.203125 c 0,4.984375 -0.890625,13.390625 -12.796875,13.390625 C 48,43.59375 43.296875,39 41.5,33.609375 l -0.09375,0 c -1.203125,8.203125 -7.109375,9.984375 -12.703125,9.984375 -7.90625,0 -12,-6.09375 -13.5,-10.09375 l -0.109375,0 0,10.09375 L 3.296875,42.5 l 0,-2.59375 c 5.90625,0 6.796875,-0.609375 6.796875,-5.40625 l 0,-27.8125 c 0,-3.8125 -0.390625,-4.296875 -6.796875,-4.296875 l 0,-2.59375 C 5.703125,0 10.09375,0 12.703125,0 c 2.59375,0 7.09375,0 9.5,-0.203125 l 0,2.59375 c -6.40625,0 -6.796875,0.390625 -6.796875,4.296875 l 0,19.21875 C 15.40625,35.109375 21,42 28,42 c 7.40625,0 8.203125,-6.59375 8.203125,-11.40625 l 0,-23.90625 c 0,-3.8125 -0.40625,-4.296875 -6.796875,-4.296875 l 0,-2.59375 C 31.796875,0 36.203125,0 38.796875,0 c 2.609375,0 7.109375,0 9.5,-0.203125 l 0,2.59375 C 41.90625,2.390625 41.5,2.78125 41.5,6.6875 l 0,19.21875 C 41.5,35.109375 47.09375,42 54.09375,42 61.5,42 62.296875,35.40625 62.296875,30.59375 l 0,-23.90625 C 62.296875,2.875 61.90625,2.390625 55.5,2.390625 l 0,-2.59375 C 57.90625,0 62.296875,0 64.90625,0 67.5,0 72,0 74.40625,-0.203125 l 0,2.59375 c -6.40625,0 -6.8125,0.390625 -6.8125,4.296875 z"
           id="CMR17-109"
           inkscape:connector-curvature="0"
           style="stroke-linecap:butt;stroke-linejoin:round" />
        <path
           d="m 14.296875,74.484375 -12.890625,0 0,-3.484375 9.390625,0 0,-92.515625 -9.390625,0 0,-3.484375 12.890625,0 z"
           id="CMR17-93"
           inkscape:connector-curvature="0"
           style="stroke-linecap:butt;stroke-linejoin:round" />
      </defs>
      <g
         style="fill:#262626;stroke-linecap:butt;stroke-linejoin:round"
         transform="matrix(0.11,0,0,-0.11,157.67039,164.80015)"
         id="g113">
        <use
           transform="scale(0.996264,0.996264)"
           xlink:href="#CMR17-68"
           id="use115"
           style="stroke-linecap:butt;stroke-linejoin:round"
           x="0"
           y="0"
           width="100%"
           height="100%" />
        <use
           transform="matrix(0.996264,0,0,0.996264,70.393556,0)"
           xlink:href="#CMR17-101"
           id="use117"
           style="stroke-linecap:butt;stroke-linejoin:round"
           x="0"
           y="0"
           width="100%"
           height="100%" />
        <use
           transform="matrix(0.996264,0,0,0.996264,110.87922,0)"
           xlink:href="#CMR17-112"
           id="use119"
           style="stroke-linecap:butt;stroke-linejoin:round"
           x="0"
           y="0"
           width="100%"
           height="100%" />
        <use
           transform="matrix(0.996264,0,0,0.996264,161.77459,0)"
           xlink:href="#CMR17-116"
           id="use121"
           style="stroke-linecap:butt;stroke-linejoin:round"
           x="0"
           y="0"
           width="100%"
           height="100%" />
        <use
           transform="matrix(0.996264,0,0,0.996264,197.05535,0)"
           xlink:href="#CMR17-104"
           id="use123"
           style="stroke-linecap:butt;stroke-linejoin:round"
           x="0"
           y="0"
           width="100%"
           height="100%" />
        <use
           transform="matrix(0.996264,0,0,0.996264,278.02669,0)"
           xlink:href="#CMR17-91"
           id="use125"
           style="stroke-linecap:butt;stroke-linejoin:round"
           x="0"
           y="0"
           width="100%"
           height="100%" />
        <use
           transform="matrix(0.996264,0,0,0.996264,302.89775,0)"
           xlink:href="#CMR17-109"
           id="use127"
           style="stroke-linecap:butt;stroke-linejoin:round"
           x="0"
           y="0"
           width="100%"
           height="100%" />
        <use
           transform="matrix(0.996264,0,0,0.996264,379.81734,0)"
           xlink:href="#CMR17-109"
           id="use129"
           style="stroke-linecap:butt;stroke-linejoin:round"
           x="0"
           y="0"
           width="100%"
           height="100%" />
        <use
           transform="matrix(0.996264,0,0,0.996264,456.73693,0)"
           xlink:href="#CMR17-93"
           id="use131"
           style="stroke-linecap:butt;stroke-linejoin:round"
           x="0"
           y="0"
           width="100%"
           height="100%" />
      </g>
    </g>
    <g
       id="ytick_1"
       style="stroke-linecap:butt;stroke-linejoin:round">
      <g
         id="line2d_7"
         style="stroke-linecap:butt;stroke-linejoin:round" />
      <g
         id="text_8"
         style="stroke-linecap:butt;stroke-linejoin:round">
        <!-- $0.01$ -->
        <g
           style="fill:#262626;stroke-linecap:butt;stroke-linejoin:round"
           transform="matrix(0.1,0,0,-0.1,22.860269,134.84911)"
           id="g137">
          <use
             transform="scale(0.996264,0.996264)"
             xlink:href="#CMR17-48"
             id="use139"
             style="stroke-linecap:butt;stroke-linejoin:round"
             x="0"
             y="0"
             width="100%"
             height="100%" />
          <use
             transform="matrix(0.996264,0,0,0.996264,45.690477,0)"
             xlink:href="#CMMI12-58"
             id="use141"
             style="stroke-linecap:butt;stroke-linejoin:round"
             x="0"
             y="0"
             width="100%"
             height="100%" />
          <use
             transform="matrix(0.996264,0,0,0.996264,72.787654,0)"
             xlink:href="#CMR17-48"
             id="use143"
             style="stroke-linecap:butt;stroke-linejoin:round"
             x="0"
             y="0"
             width="100%"
             height="100%" />
          <use
             transform="matrix(0.996264,0,0,0.996264,118.47813,0)"
             xlink:href="#CMR17-49"
             id="use145"
             style="stroke-linecap:butt;stroke-linejoin:round"
             x="0"
             y="0"
             width="100%"
             height="100%" />
        </g>
      </g>
    </g>
    <g
       id="ytick_2"
       style="stroke-linecap:butt;stroke-linejoin:round">
      <g
         id="line2d_8"
         style="stroke-linecap:butt;stroke-linejoin:round" />
      <g
         id="text_9"
         style="stroke-linecap:butt;stroke-linejoin:round">
        <!-- $1.00$ -->
        <g
           style="fill:#262626;stroke-linecap:butt;stroke-linejoin:round"
           transform="matrix(0.1,0,0,-0.1,22.860269,36.406362)"
           id="g150">
          <use
             transform="scale(0.996264,0.996264)"
             xlink:href="#CMR17-49"
             id="use152"
             style="stroke-linecap:butt;stroke-linejoin:round"
             x="0"
             y="0"
             width="100%"
             height="100%" />
          <use
             transform="matrix(0.996264,0,0,0.996264,45.690477,0)"
             xlink:href="#CMMI12-58"
             id="use154"
             style="stroke-linecap:butt;stroke-linejoin:round"
             x="0"
             y="0"
             width="100%"
             height="100%" />
          <use
             transform="matrix(0.996264,0,0,0.996264,72.787654,0)"
             xlink:href="#CMR17-48"
             id="use156"
             style="stroke-linecap:butt;stroke-linejoin:round"
             x="0"
             y="0"
             width="100%"
             height="100%" />
          <use
             transform="matrix(0.996264,0,0,0.996264,118.47813,0)"
             xlink:href="#CMR17-48"
             id="use158"
             style="stroke-linecap:butt;stroke-linejoin:round"
             x="0"
             y="0"
             width="100%"
             height="100%" />
        </g>
      </g>
    </g>
    <g
       id="text_10"
       style="stroke-linecap:butt;stroke-linejoin:round">
      <!-- Intensity [\% mWmm$^{-2}$] -->
      <defs
         id="defs161">
        <path
           d="M 19.703125,61.015625 C 19.703125,65.5 20.90625,65.5 28.09375,65.5 l 0,2.5 c -3.1875,0 -8.296875,0 -11.6875,0 -3.40625,0 -8.5,0 -11.703125,0 l 0,-2.5 c 7.203125,0 8.390625,0 8.390625,-4.484375 l 0,-54.03125 C 13.09375,2.5 11.90625,2.5 4.703125,2.5 l 0,-2.5 C 7.90625,0 13,0 16.40625,0 c 3.390625,0 8.5,0 11.6875,0 l 0,2.5 c -7.1875,0 -8.390625,0 -8.390625,4.484375 z"
           id="CMR17-73"
           inkscape:connector-curvature="0"
           style="stroke-linecap:butt;stroke-linejoin:round" />
        <path
           d="m 41.5,30.203125 c 0,5.09375 -1,13.390625 -12.796875,13.390625 -7.90625,0 -12,-6.09375 -13.5,-10.09375 l -0.109375,0 0,10.09375 L 3.296875,42.5 l 0,-2.59375 c 5.90625,0 6.796875,-0.609375 6.796875,-5.40625 l 0,-27.8125 c 0,-3.8125 -0.390625,-4.296875 -6.796875,-4.296875 l 0,-2.59375 C 5.703125,0 10.09375,0 12.703125,0 c 2.59375,0 7.09375,0 9.5,-0.203125 l 0,2.59375 c -6.40625,0 -6.796875,0.390625 -6.796875,4.296875 l 0,19.21875 C 15.40625,35.109375 21,42 28,42 c 7.40625,0 8.203125,-6.59375 8.203125,-11.40625 l 0,-23.90625 c 0,-3.8125 -0.40625,-4.296875 -6.796875,-4.296875 l 0,-2.59375 C 31.796875,0 36.203125,0 38.796875,0 c 2.609375,0 7.109375,0 9.5,-0.203125 l 0,2.59375 C 41.90625,2.390625 41.5,2.78125 41.5,6.6875 Z"
           id="CMR17-110"
           inkscape:connector-curvature="0"
           style="stroke-linecap:butt;stroke-linejoin:round" />
        <path
           d="m 30.90625,42.140625 c 0,1.8125 -0.109375,1.90625 -0.703125,1.90625 -0.40625,0 -0.5,-0.09375 -1.703125,-1.59375 -0.296875,-0.40625 -1.203125,-1.421875 -1.5,-1.8125 -3.203125,3.40625 -7.703125,3.40625 -9.40625,3.40625 C 6.5,44.046875 2.5,38.234375 2.5,32.4375 c 0,-9.03125 10.203125,-11.109375 13.09375,-11.734375 6.3125,-1.28125 8.5,-1.6875 10.609375,-3.5 1.296875,-1.1875 3.5,-3.390625 3.5,-6.984375 0,-4.21875 -2.40625,-9.625 -11.609375,-9.625 -8.6875,0 -11.796875,6.59375 -13.59375,15.359375 -0.296875,1.390625 -0.296875,1.5 -1.09375,1.5 -0.8125,0 -0.90625,-0.109375 -0.90625,-2.09375 l 0,-14.375 c 0,-1.78125 0.09375,-1.890625 0.703125,-1.890625 0.5,0 0.59375,0.109375 1.09375,0.90625 C 4.90625,0.890625 6.40625,3.296875 7,4.3125 9,1.609375 12.5,-1 18.09375,-1 28,-1 33.296875,4.421875 33.296875,12.25 c 0,5.125 -2.703125,7.828125 -4,9.03125 -3,3.109375 -6.5,3.8125 -10.703125,4.609375 -5.5,1.21875 -12.5,2.625 -12.5,8.75 0,2.59375 1.40625,8.125 11.5,8.125 10.703125,0 11.3125,-10.046875 11.5,-13.265625 C 29.203125,29 29.703125,28.890625 30,28.890625 c 0.90625,0 0.90625,0.3125 0.90625,2.015625 z"
           id="CMR17-115"
           inkscape:connector-curvature="0"
           style="stroke-linecap:butt;stroke-linejoin:round" />
        <path
           d="m 15.5,61.078125 c 0,2.1875 -1.796875,4.078125 -4.09375,4.078125 -2.203125,0 -4.109375,-1.78125 -4.109375,-4.078125 C 7.296875,58.890625 9.09375,57 11.40625,57 13.59375,57 15.5,58.796875 15.5,61.078125 Z M 3.796875,42.28125 l 0,-2.578125 c 5.609375,0 6.40625,-0.609375 6.40625,-5.375 l 0,-27.65625 c 0,-3.796875 -0.40625,-4.28125 -6.796875,-4.28125 l 0,-2.59375 C 5.796875,0 10.09375,0 12.59375,0 c 2.40625,0 6.5,0 8.8125,-0.203125 l 0,2.59375 c -5.90625,0 -6.109375,0.59375 -6.109375,4.171875 l 0,36.8125 z"
           id="CMR17-105"
           inkscape:connector-curvature="0"
           style="stroke-linecap:butt;stroke-linejoin:round" />
        <path
           d="m 39,34.328125 c 2.5,6.078125 7,6.078125 8.40625,6.078125 l 0,2.59375 C 45.5,43 43,43 41.09375,43 39,43 35.703125,43 33.703125,43.09375 l 0,-2.59375 C 37.5,40.203125 37.59375,37.40625 37.59375,36.609375 c 0,-0.984375 -0.1875,-1.484375 -0.6875,-2.6875 L 26,7.015625 14.09375,36.03125 c -0.5,1.1875 -0.5,1.875 -0.5,1.984375 0,2.1875 2.3125,2.390625 4.703125,2.390625 l 0,2.6875 C 15.90625,43 11.59375,43 9.09375,43 6.40625,43 3.203125,43 1,43.09375 l 0,-2.6875 c 5.40625,0 6,-0.5 7.296875,-3.6875 L 23.203125,0.234375 c -4.5,-11.765625 -7.109375,-18.640625 -13.40625,-18.640625 -1.09375,0 -3.59375,0.296875 -5.390625,2.09375 2.296875,0.203125 3.296875,1.59375 3.296875,3.296875 0,1.6875 -1.203125,3.1875 -3.203125,3.1875 -2.203125,0 -3.296875,-1.5 -3.296875,-3.296875 0,-3.984375 4.09375,-6.875 8.59375,-6.875 5.796875,0 9.40625,5.59375 11.40625,10.5625 z"
           id="CMR17-121"
           inkscape:connector-curvature="0"
           style="stroke-linecap:butt;stroke-linejoin:round" />
        <path
           d="M 72.5,14.984375 C 72.5,26.53125 66.796875,35 60.09375,35 53.296875,35 46.40625,27.125 46.40625,14.984375 46.40625,2.859375 53.203125,-5 60.09375,-5 66.796875,-5 72.5,3.359375 72.5,14.984375 Z M 60.203125,-3.40625 c -2.609375,0 -9.109375,2.375 -9.109375,18.390625 0,16.125 6.5,18.421875 9.109375,18.421875 5.5,0 10.5,-7.875 10.5,-18.421875 0,-10.53125 -5,-18.390625 -10.5,-18.390625 z m 3.59375,74.921875 c 0.703125,1.09375 0.796875,1.1875 0.796875,1.6875 0,1.1875 -0.890625,1.796875 -1.6875,1.796875 -1,0 -1.40625,-0.6875 -2.109375,-1.46875 C 55,65.46875 47,64.59375 42.90625,64.59375 c -10,0 -16.109375,5.625 -18,7.390625 C 23.59375,73.15625 21.703125,75 18.296875,75 11.5,75 4.59375,67.125 4.59375,54.984375 4.59375,42.859375 11.40625,35 18.296875,35 25,35 30.703125,43.40625 30.703125,55.109375 c 0,6.90625 -2.109375,11.609375 -2.40625,12.203125 C 34.40625,63.5 40.40625,63 43,63 c 6.40625,0 11,2.359375 13.5,4.015625 L 56.59375,66.921875 13.40625,-1.3125 C 12.5,-2.71875 12.5,-2.921875 12.5,-3.21875 12.5,-4.3125 13.40625,-5 14.296875,-5 c 0.90625,0 1.203125,0.484375 1.90625,1.59375 z M 18.40625,36.59375 c -2.609375,0 -9.109375,2.375 -9.109375,18.390625 0,16.125 6.5,18.421875 9.109375,18.421875 5.5,0 10.5,-7.875 10.5,-18.421875 0,-10.53125 -5,-18.390625 -10.5,-18.390625 z"
           id="CMR17-37"
           inkscape:connector-curvature="0"
           style="stroke-linecap:butt;stroke-linejoin:round" />
        <path
           d="M 86.296875,58.8125 C 87.203125,61.5 88.703125,65 94.5,65 l 0,2.59375 c -1.703125,0 -5.203125,0 -7,0 -2.5,0 -6.90625,0 -9.296875,0.09375 l 0,-2.6875 c 4.5,0 6.390625,-2.5 6.390625,-4.890625 0,-0.703125 -0.09375,-1.09375 -0.5,-2.1875 l -15.5,-49.25 -16.296875,51.84375 C 52,61.515625 51.90625,61.921875 51.90625,62.3125 51.90625,65 56.296875,65 58.203125,65 l 0,2.59375 c -2.90625,0 -7.90625,0 -11,0 -2.5,0 -7,0 -9.296875,0.09375 l 0,-2.6875 c 4.59375,0 5.796875,-0.296875 6.796875,-2.078125 0.390625,-0.90625 2,-6.078125 2,-6.375 0,-0.40625 -0.203125,-1 -0.296875,-1.296875 L 31.703125,8.765625 15.40625,60.421875 c -0.5,1.40625 -0.5,1.59375 -0.5,1.796875 C 14.90625,65 19.296875,65 21.296875,65 l 0,2.59375 c -2.890625,0 -7.890625,0 -11,0 -2.59375,0 -7,0 -9.390625,0.09375 l 0,-2.6875 c 6,0 6.390625,-0.59375 7.390625,-3.78125 l 19.5,-61.53125 c 0.5,-1.484375 0.5,-1.6875 1.40625,-1.6875 0.796875,0 1.09375,0.203125 1.5,1.59375 l 17,54.046875 17,-54.046875 C 65.09375,-1.796875 65.40625,-2 66.203125,-2 c 0.890625,0 0.890625,0.203125 1.390625,1.6875 z"
           id="CMR17-87"
           inkscape:connector-curvature="0"
           style="stroke-linecap:butt;stroke-linejoin:round" />
        <path
           d="m 65.90625,23 c 1.6875,0 3.5,0 3.5,2 0,2 -1.8125,2 -3.5,2 l -54.109375,0 c -1.703125,0 -3.5,0 -3.5,-2 0,-2 1.796875,-2 3.5,-2 z"
           id="CMSY10-0"
           inkscape:connector-curvature="0"
           style="stroke-linecap:butt;stroke-linejoin:round" />
      </defs>
      <g
         style="fill:#262626;stroke-linecap:butt;stroke-linejoin:round"
         transform="matrix(0,-0.11,-0.11,0,16.120543,139.85188)"
         id="g171">
        <use
           transform="scale(0.996264,0.996264)"
           xlink:href="#CMR17-73"
           id="use173"
           style="stroke-linecap:butt;stroke-linejoin:round"
           x="0"
           y="0"
           width="100%"
           height="100%" />
        <use
           transform="matrix(0.996264,0,0,0.996264,32.638409,0)"
           xlink:href="#CMR17-110"
           id="use175"
           style="stroke-linecap:butt;stroke-linejoin:round"
           x="0"
           y="0"
           width="100%"
           height="100%" />
        <use
           transform="matrix(0.996264,0,0,0.996264,80.931325,0)"
           xlink:href="#CMR17-116"
           id="use177"
           style="stroke-linecap:butt;stroke-linejoin:round"
           x="0"
           y="0"
           width="100%"
           height="100%" />
        <use
           transform="matrix(0.996264,0,0,0.996264,116.21209,0)"
           xlink:href="#CMR17-101"
           id="use179"
           style="stroke-linecap:butt;stroke-linejoin:round"
           x="0"
           y="0"
           width="100%"
           height="100%" />
        <use
           transform="matrix(0.996264,0,0,0.996264,156.69775,0)"
           xlink:href="#CMR17-110"
           id="use181"
           style="stroke-linecap:butt;stroke-linejoin:round"
           x="0"
           y="0"
           width="100%"
           height="100%" />
        <use
           transform="matrix(0.996264,0,0,0.996264,207.59312,0)"
           xlink:href="#CMR17-115"
           id="use183"
           style="stroke-linecap:butt;stroke-linejoin:round"
           x="0"
           y="0"
           width="100%"
           height="100%" />
        <use
           transform="matrix(0.996264,0,0,0.996264,243.39446,0)"
           xlink:href="#CMR17-105"
           id="use185"
           style="stroke-linecap:butt;stroke-linejoin:round"
           x="0"
           y="0"
           width="100%"
           height="100%" />
        <use
           transform="matrix(0.996264,0,0,0.996264,268.26552,0)"
           xlink:href="#CMR17-116"
           id="use187"
           style="stroke-linecap:butt;stroke-linejoin:round"
           x="0"
           y="0"
           width="100%"
           height="100%" />
        <use
           transform="matrix(0.996264,0,0,0.996264,300.94383,0)"
           xlink:href="#CMR17-121"
           id="use189"
           style="stroke-linecap:butt;stroke-linejoin:round"
           x="0"
           y="0"
           width="100%"
           height="100%" />
        <use
           transform="matrix(0.996264,0,0,0.996264,379.31272,0)"
           xlink:href="#CMR17-91"
           id="use191"
           style="stroke-linecap:butt;stroke-linejoin:round"
           x="0"
           y="0"
           width="100%"
           height="100%" />
        <use
           transform="matrix(0.996264,0,0,0.996264,404.18377,0)"
           xlink:href="#CMR17-37"
           id="use193"
           style="stroke-linecap:butt;stroke-linejoin:round"
           x="0"
           y="0"
           width="100%"
           height="100%" />
        <use
           transform="matrix(0.996264,0,0,0.996264,511.17933,0)"
           xlink:href="#CMR17-109"
           id="use195"
           style="stroke-linecap:butt;stroke-linejoin:round"
           x="0"
           y="0"
           width="100%"
           height="100%" />
        <use
           transform="matrix(0.996264,0,0,0.996264,588.09892,0)"
           xlink:href="#CMR17-87"
           id="use197"
           style="stroke-linecap:butt;stroke-linejoin:round"
           x="0"
           y="0"
           width="100%"
           height="100%" />
        <use
           transform="matrix(0.996264,0,0,0.996264,683.19557,0)"
           xlink:href="#CMR17-109"
           id="use199"
           style="stroke-linecap:butt;stroke-linejoin:round"
           x="0"
           y="0"
           width="100%"
           height="100%" />
        <use
           transform="matrix(0.996264,0,0,0.996264,760.11516,0)"
           xlink:href="#CMR17-109"
           id="use201"
           style="stroke-linecap:butt;stroke-linejoin:round"
           x="0"
           y="0"
           width="100%"
           height="100%" />
        <use
           transform="matrix(0.697382,0,0,0.697382,837.03475,36.153639)"
           xlink:href="#CMSY10-0"
           id="use203"
           style="stroke-linecap:butt;stroke-linejoin:round"
           x="0"
           y="0"
           width="100%"
           height="100%" />
        <use
           transform="matrix(0.697382,0,0,0.697382,891.27574,36.153639)"
           xlink:href="#CMR17-50"
           id="use205"
           style="stroke-linecap:butt;stroke-linejoin:round"
           x="0"
           y="0"
           width="100%"
           height="100%" />
        <use
           transform="matrix(0.996264,0,0,0.996264,923.75706,0)"
           xlink:href="#CMR17-93"
           id="use207"
           style="stroke-linecap:butt;stroke-linejoin:round"
           x="0"
           y="0"
           width="100%"
           height="100%" />
      </g>
    </g>
    <path
       clip-path="url(#p95eff2b223)"
       d="m 60.202774,32.947113 2.526218,14.174877 2.526218,11.399478 2.526218,9.3128 2.526219,7.709986 2.526218,6.456347 2.526218,5.460482 2.526218,4.658668 2.526218,4.005436 2.526219,3.467671 2.526218,3.020832 2.526218,2.64644 2.526218,2.33037 2.526218,2.0617 2.526218,1.83191 2.526219,1.63423 2.526223,1.46328 2.52621,1.31471 2.52622,1.18504 2.52622,1.07134 2.52622,0.9713 2.52622,0.88292 2.52621,0.80458 2.52622,0.73492 2.52622,0.67279 2.52622,0.61721 2.52622,0.56736 2.52621,0.52252 2.52622,0.48211 2.52622,0.44557 2.52622,0.41251 2.52622,0.38249 2.52622,0.35518 2.52621,0.33032 2.52622,0.30761 2.52622,0.28685 2.52622,0.26783 2.52622,0.25038 2.52621,0.23434 2.52622,0.21959 2.52622,0.20598 2.52622,0.19343 2.52622,0.18183 2.52622,0.17109 2.52621,0.16115 2.52622,0.15191 2.52622,0.14334 2.52622,0.13537 2.52622,0.12795 2.52621,0.12104 2.52622,0.11458 2.52622,0.10856 2.52622,0.10294 2.52622,0.0977 2.52622,0.0927 2.52621,0.0881 2.52622,0.0838 2.52622,0.0797 2.52622,0.0759 2.52622,0.0723 2.52621,0.0689 2.52622,0.0657 2.52622,0.0627 2.52622,0.0599 2.52622,0.0572 2.52622,0.0547 2.52621,0.0523 2.52622,0.05 2.52622,0.0479 2.52622,0.0459 2.52622,0.0439 2.52621,0.0421 2.52622,0.0404 2.52622,0.0388 2.52622,0.0372 2.52622,0.0357 2.52622,0.0343 2.52621,0.033 2.52622,0.0317 2.52622,0.0305 2.52622,0.0294 2.52622,0.0283 2.52621,0.0272 2.52622,0.0262 2.52622,0.0253 2.52622,0.0244 2.52622,0.0235 2.52622,0.0227 2.52621,0.0219 2.52622,0.0211 2.52622,0.0204 2.52622,0.0197 2.52622,0.019 2.52622,0.0184 2.52621,0.0178 2.52622,0.0172 2.52622,0.0166 2.52622,0.0161 2.52622,0.0156 2.52621,0.0151 2.52622,0.0146"
       style="fill:none;stroke:#00ffff;stroke-width:2;stroke-linecap:round;stroke-linejoin:round"
       id="path210"
       inkscape:connector-curvature="0" />
    <path
       d="m 47.571683,136.72529 0,-108.719995"
       style="fill:none;stroke:#262626;stroke-width:1.25;stroke-linecap:square;stroke-linejoin:miter"
       id="path213"
       inkscape:connector-curvature="0" />
    <path
       d="m 325.45568,136.72529 0,-108.719995"
       style="fill:none;stroke:#262626;stroke-width:1.25;stroke-linecap:square;stroke-linejoin:miter"
       id="path216"
       inkscape:connector-curvature="0" />
    <path
       d="m 47.571683,136.72529 277.883997,0"
       style="fill:none;stroke:#262626;stroke-width:1.25;stroke-linecap:square;stroke-linejoin:miter"
       id="path219"
       inkscape:connector-curvature="0" />
    <g
       id="ytick_3"
       style="stroke-linecap:butt;stroke-linejoin:round">
      <g
         id="line2d_10"
         style="stroke-linecap:butt;stroke-linejoin:round" />
      <g
         id="text_11"
         style="stroke-linecap:butt;stroke-linejoin:round">
        <!-- $31$ -->
        <defs
           id="defs226">
          <path
             d="M 22.09375,33.703125 C 31,33.703125 34.90625,25.96875 34.90625,17.03125 34.90625,5 28.5,0.390625 22.703125,0.390625 c -5.296875,0 -13.90625,2.640625 -16.609375,10.4375 0.5,-0.203125 1,-0.203125 1.5,-0.203125 2.40625,0 4.203125,1.59375 4.203125,4.1875 C 11.796875,17.703125 9.59375,19 7.59375,19 5.90625,19 3.296875,18.203125 3.296875,14.46875 3.296875,5.234375 12.296875,-2 22.90625,-2 34,-2 42.5,6.71875 42.5,16.953125 c 0,9.71875 -8,16.75 -17.5,17.84375 C 32.59375,36.375 39.90625,43.0625 39.90625,52.015625 39.90625,59.6875 32,65.296875 23,65.296875 c -9.09375,0 -17.09375,-5.46875 -17.09375,-13.28125 C 5.90625,48.59375 8.5,48 9.796875,48 c 2.109375,0 3.90625,1.296875 3.90625,3.890625 0,2.578125 -1.796875,3.875 -3.90625,3.875 -0.390625,0 -0.890625,0 -1.296875,-0.1875 C 11.40625,61.859375 19.296875,63 22.796875,63 c 3.5,0 10.109375,-1.671875 10.109375,-11.125 0,-2.765625 -0.40625,-7.6875 -3.8125,-12.03125 C 26.09375,36 22.703125,36 19.40625,35.6875 c -0.5,0 -2.8125,-0.234375 -3.203125,-0.234375 C 15.5,35.359375 15.09375,35.265625 15.09375,34.5 c 0,-0.703125 0.109375,-0.796875 2.109375,-0.796875 z"
             id="CMR17-51"
             inkscape:connector-curvature="0"
             style="stroke-linecap:butt;stroke-linejoin:round" />
        </defs>
        <g
           style="fill:#262626;stroke-linecap:butt;stroke-linejoin:round"
           transform="matrix(0.1,0,0,-0.1,332.45568,129.14477)"
           id="g229">
          <use
             transform="scale(0.996264,0.996264)"
             xlink:href="#CMR17-51"
             id="use231"
             style="stroke-linecap:butt;stroke-linejoin:round"
             x="0"
             y="0"
             width="100%"
             height="100%" />
          <use
             transform="matrix(0.996264,0,0,0.996264,45.690477,0)"
             xlink:href="#CMR17-49"
             id="use233"
             style="stroke-linecap:butt;stroke-linejoin:round"
             x="0"
             y="0"
             width="100%"
             height="100%" />
        </g>
      </g>
    </g>
    <g
       id="ytick_4"
       style="stroke-linecap:butt;stroke-linejoin:round">
      <g
         id="line2d_11"
         style="stroke-linecap:butt;stroke-linejoin:round" />
      <g
         id="text_12"
         style="stroke-linecap:butt;stroke-linejoin:round">
        <!-- $460$ -->
        <g
           style="fill:#262626;stroke-linecap:butt;stroke-linejoin:round"
           transform="matrix(0.1,0,0,-0.1,332.45568,36.443234)"
           id="g238">
          <use
             transform="scale(0.996264,0.996264)"
             xlink:href="#CMR17-52"
             id="use240"
             style="stroke-linecap:butt;stroke-linejoin:round"
             x="0"
             y="0"
             width="100%"
             height="100%" />
          <use
             transform="matrix(0.996264,0,0,0.996264,45.690477,0)"
             xlink:href="#CMR17-54"
             id="use242"
             style="stroke-linecap:butt;stroke-linejoin:round"
             x="0"
             y="0"
             width="100%"
             height="100%" />
          <use
             transform="matrix(0.996264,0,0,0.996264,91.380954,0)"
             xlink:href="#CMR17-48"
             id="use244"
             style="stroke-linecap:butt;stroke-linejoin:round"
             x="0"
             y="0"
             width="100%"
             height="100%" />
        </g>
      </g>
    </g>
    <g
       id="text_13"
       style="stroke-linecap:butt;stroke-linejoin:round"
       transform="translate(0,-7.5219518)">
      <!-- N neurons of area [N mm$^{2}$] -->
      <defs
         id="defs247">
        <path
           d="M 20.5,66.40625 C 19.796875,67.5 19.703125,67.5 17.796875,67.5 l -12.703125,0 0,-2.5 L 7,65 c 4,0 5.796875,-0.484375 6.09375,-0.59375 l 0,-54.875 c 0,-2.484375 0,-7.140625 -8,-7.140625 l 0,-2.59375 C 7.40625,0 11.59375,0 14.09375,0 c 2.5,0 6.703125,0 9,-0.203125 l 0,2.59375 c -8,0 -8,4.65625 -8,7.140625 l 0,53.484375 C 15.796875,62.421875 15.796875,62.21875 16.5,61.234375 L 53.59375,1.1875 C 54.296875,0 54.59375,0 55.09375,0 c 1,0 1,0.296875 1,2.171875 l 0,55.71875 c 0,2.46875 0,7.109375 8,7.109375 l 0,2.59375 c -2.296875,-0.09375 -6.5,-0.09375 -9,-0.09375 -2.5,0 -6.6875,0 -9,0.09375 l 0,-2.59375 c 8,0 8,-4.65625 8,-7.140625 l 0,-45.9375 z"
           id="CMR17-78"
           inkscape:connector-curvature="0"
           style="stroke-linecap:butt;stroke-linejoin:round" />
        <path
           d="m 29.40625,42.078125 0,-2.578125 c 5.890625,0 6.796875,-0.609375 6.796875,-5.34375 l 0,-18.03125 c 0,-8.3125 -4.5,-15.53125 -11.90625,-15.53125 -8.203125,0 -8.890625,4.84375 -8.890625,10 l 0,32.578125 -12.109375,-1.09375 0,-2.578125 c 4,0 6.703125,0 6.796875,-3.96875 l 0,-19 c 0,-6.640625 0,-10.890625 2.609375,-13.671875 C 14,1.578125 16.5,-1 23.703125,-1 c 8.5,0 11.796875,6.890625 12.59375,8.90625 l 0.109375,0 0,-8.890625 11.890625,0 0,2.984375 C 42.40625,2 41.5,2.59375 41.5,7.390625 l 0,35.78125 z"
           id="CMR17-117"
           inkscape:connector-curvature="0"
           style="stroke-linecap:butt;stroke-linejoin:round" />
        <path
           d="M 15,23.390625 C 15,33 19.09375,42 26.59375,42 27.296875,42 28,41.90625 28.703125,41.59375 c 0,0 -2.203125,-0.703125 -2.203125,-3.28125 0,-2.40625 1.90625,-3.40625 3.40625,-3.40625 1.1875,0 3.390625,0.703125 3.390625,3.5 0,3.203125 -3.203125,5.1875 -6.59375,5.1875 -7.609375,0 -10.90625,-7.390625 -11.90625,-10.890625 l -0.09375,0 0,10.890625 L 3.09375,42.5 l 0,-2.59375 C 9,39.90625 9.90625,39.296875 9.90625,34.5 l 0,-27.8125 C 9.90625,2.875 9.5,2.390625 3.09375,2.390625 l 0,-2.59375 C 5.5,0 10.09375,0 12.703125,0 c 2.890625,0 8,0 10.703125,-0.203125 l 0,2.59375 C 16.203125,2.390625 15,2.390625 15,6.875 Z"
           id="CMR17-114"
           inkscape:connector-curvature="0"
           style="stroke-linecap:butt;stroke-linejoin:round" />
        <path
           d="M 43.09375,21.1875 C 43.09375,34 33.796875,44 22.90625,44 12,44 2.703125,34 2.703125,21.1875 2.703125,8.609375 12,-1 22.90625,-1 c 10.890625,0 20.1875,9.609375 20.1875,22.1875 z M 22.90625,0.796875 c -4.703125,0 -8.703125,2.796875 -11,6.703125 -2.5,4.484375 -2.8125,10.09375 -2.8125,14.5 0,4.203125 0.203125,9.40625 2.8125,13.90625 2,3.296875 5.890625,6.5 11,6.5 4.5,0 8.296875,-2.5 10.6875,-6 C 36.703125,31.703125 36.703125,25.109375 36.703125,22 c 0,-3.90625 -0.203125,-9.890625 -2.90625,-14.703125 -2.796875,-4.59375 -7.09375,-6.5 -10.890625,-6.5 z"
           id="CMR17-111"
           inkscape:connector-curvature="0"
           style="stroke-linecap:butt;stroke-linejoin:round" />
        <path
           d="m 15.296875,40 11.40625,0 0,2.578125 -11.609375,0 0,12.015625 c 0,8.25 4.203125,13.40625 8.5,13.40625 1.3125,0 2.8125,-0.390625 3.8125,-1.09375 C 26.59375,66.703125 24.5,66.015625 24.5,63.546875 c 0,-2.59375 2,-3.390625 3.40625,-3.390625 1.390625,0 3.390625,0.796875 3.390625,3.390625 0,3.765625 -3.59375,6.046875 -7.59375,6.046875 -5.703125,0 -13.5,-4.65625 -13.5,-15.203125 l 0,-11.8125 -8,0 0,-2.578125 8,0 0,-33.328125 c 0,-3.796875 -0.40625,-4.28125 -6.796875,-4.28125 l 0,-2.59375 C 5.796875,0 10.40625,0 13,0 c 2.90625,0 8,0 10.703125,-0.203125 l 0,2.59375 c -7.203125,0 -8.40625,0 -8.40625,4.46875 z"
           id="CMR17-102"
           inkscape:connector-curvature="0"
           style="stroke-linecap:butt;stroke-linejoin:round" />
        <path
           d="M 36,25.828125 C 36,32.375 36,35.84375 31.796875,39.734375 28.09375,43 23.796875,44 20.40625,44 12.5,44 6.796875,37.609375 6.796875,30.796875 6.796875,27 9.796875,27 10.40625,27 11.703125,27 14,27.78125 14,30.53125 14,33 12.09375,34.078125 10.40625,34.078125 10,34.078125 9.5,33.96875 9.203125,33.875 c 2.09375,6.625 7.5,8.53125 11,8.53125 5,0 10.5,-4.453125 10.5,-12.953125 l 0,-4.453125 c -5.90625,0 -13,-0.796875 -18.609375,-3.796875 C 5.796875,17.703125 4,12.703125 4,8.90625 4,1.203125 13,-1 18.296875,-1 c 5.5,0 10.609375,3.171875 12.796875,8.984375 0.203125,-4.34375 3,-8.265625 7.40625,-8.265625 2.09375,0 7.40625,1.375 7.40625,9.140625 l 0,5.515625 -1.8125,0 0,-5.59375 c 0,-6 -2.6875,-6.78125 -4,-6.78125 C 36,2 36,7.15625 36,11.53125 Z M 30.703125,13.59375 c 0,-8.640625 -6.203125,-13 -11.703125,-13 -5,0 -8.90625,3.703125 -8.90625,8.3125 0,2.984375 1.3125,8.28125 7.109375,11.484375 C 22,23.09375 27.5,23.5 30.703125,23.5 Z"
           id="CMR17-97"
           inkscape:connector-curvature="0"
           style="stroke-linecap:butt;stroke-linejoin:round" />
      </defs>
      <g
         style="fill:#262626;stroke-linecap:butt;stroke-linejoin:round"
         transform="matrix(0,-0.11,-0.11,0,360.32023,147.41664)"
         id="g255">
        <use
           transform="scale(0.996264,0.996264)"
           xlink:href="#CMR17-78"
           id="use257"
           style="stroke-linecap:butt;stroke-linejoin:round"
           x="0"
           y="0"
           width="100%"
           height="100%" />
        <use
           transform="matrix(0.996264,0,0,0.996264,99.148396,0)"
           xlink:href="#CMR17-110"
           id="use259"
           style="stroke-linecap:butt;stroke-linejoin:round"
           x="0"
           y="0"
           width="100%"
           height="100%" />
        <use
           transform="matrix(0.996264,0,0,0.996264,150.04377,0)"
           xlink:href="#CMR17-101"
           id="use261"
           style="stroke-linecap:butt;stroke-linejoin:round"
           x="0"
           y="0"
           width="100%"
           height="100%" />
        <use
           transform="matrix(0.996264,0,0,0.996264,190.52943,0)"
           xlink:href="#CMR17-117"
           id="use263"
           style="stroke-linecap:butt;stroke-linejoin:round"
           x="0"
           y="0"
           width="100%"
           height="100%" />
        <use
           transform="matrix(0.996264,0,0,0.996264,241.4248,0)"
           xlink:href="#CMR17-114"
           id="use265"
           style="stroke-linecap:butt;stroke-linejoin:round"
           x="0"
           y="0"
           width="100%"
           height="100%" />
        <use
           transform="matrix(0.996264,0,0,0.996264,276.70556,0)"
           xlink:href="#CMR17-111"
           id="use267"
           style="stroke-linecap:butt;stroke-linejoin:round"
           x="0"
           y="0"
           width="100%"
           height="100%" />
        <use
           transform="matrix(0.996264,0,0,0.996264,322.39604,0)"
           xlink:href="#CMR17-110"
           id="use269"
           style="stroke-linecap:butt;stroke-linejoin:round"
           x="0"
           y="0"
           width="100%"
           height="100%" />
        <use
           transform="matrix(0.996264,0,0,0.996264,373.29141,0)"
           xlink:href="#CMR17-115"
           id="use271"
           style="stroke-linecap:butt;stroke-linejoin:round"
           x="0"
           y="0"
           width="100%"
           height="100%" />
        <use
           transform="matrix(0.996264,0,0,0.996264,439.16872,0)"
           xlink:href="#CMR17-111"
           id="use273"
           style="stroke-linecap:butt;stroke-linejoin:round"
           x="0"
           y="0"
           width="100%"
           height="100%" />
        <use
           transform="matrix(0.996264,0,0,0.996264,484.85919,0)"
           xlink:href="#CMR17-102"
           id="use275"
           style="stroke-linecap:butt;stroke-linejoin:round"
           x="0"
           y="0"
           width="100%"
           height="100%" />
        <use
           transform="matrix(0.996264,0,0,0.996264,542.40867,0)"
           xlink:href="#CMR17-97"
           id="use277"
           style="stroke-linecap:butt;stroke-linejoin:round"
           x="0"
           y="0"
           width="100%"
           height="100%" />
        <use
           transform="matrix(0.996264,0,0,0.996264,588.09915,0)"
           xlink:href="#CMR17-114"
           id="use279"
           style="stroke-linecap:butt;stroke-linejoin:round"
           x="0"
           y="0"
           width="100%"
           height="100%" />
        <use
           transform="matrix(0.996264,0,0,0.996264,623.37992,0)"
           xlink:href="#CMR17-101"
           id="use281"
           style="stroke-linecap:butt;stroke-linejoin:round"
           x="0"
           y="0"
           width="100%"
           height="100%" />
        <use
           transform="matrix(0.996264,0,0,0.996264,663.86558,0)"
           xlink:href="#CMR17-97"
           id="use283"
           style="stroke-linecap:butt;stroke-linejoin:round"
           x="0"
           y="0"
           width="100%"
           height="100%" />
        <use
           transform="matrix(0.996264,0,0,0.996264,739.63202,0)"
           xlink:href="#CMR17-91"
           id="use285"
           style="stroke-linecap:butt;stroke-linejoin:round"
           x="0"
           y="0"
           width="100%"
           height="100%" />
        <use
           transform="matrix(0.996264,0,0,0.996264,764.50308,0)"
           xlink:href="#CMR17-78"
           id="use287"
           style="stroke-linecap:butt;stroke-linejoin:round"
           x="0"
           y="0"
           width="100%"
           height="100%" />
        <use
           transform="matrix(0.996264,0,0,0.996264,863.65147,0)"
           xlink:href="#CMR17-109"
           id="use289"
           style="stroke-linecap:butt;stroke-linejoin:round"
           x="0"
           y="0"
           width="100%"
           height="100%" />
        <use
           transform="matrix(0.996264,0,0,0.996264,940.57106,0)"
           xlink:href="#CMR17-109"
           id="use291"
           style="stroke-linecap:butt;stroke-linejoin:round"
           x="0"
           y="0"
           width="100%"
           height="100%" />
        <use
           transform="matrix(0.697382,0,0,0.697382,1017.4907,36.153639)"
           xlink:href="#CMR17-50"
           id="use293"
           style="stroke-linecap:butt;stroke-linejoin:round"
           x="0"
           y="0"
           width="100%"
           height="100%" />
        <use
           transform="matrix(0.996264,0,0,0.996264,1049.972,0)"
           xlink:href="#CMR17-93"
           id="use295"
           style="stroke-linecap:butt;stroke-linejoin:round"
           x="0"
           y="0"
           width="100%"
           height="100%" />
      </g>
    </g>
    <path
       clip-path="url(#p95eff2b223)"
       d="m 60.202774,125.59565 2.526218,-0.38929 2.526218,-0.40013 2.526218,-0.41099 2.526219,-0.42185 2.526218,-0.43269 2.526218,-0.44355 2.526218,-0.4544 2.526218,-0.46525 2.526219,-0.4761 2.526218,-0.48696 2.526218,-0.49781 2.526218,-0.50866 2.526218,-0.51952 2.526218,-0.53036 2.526219,-0.54122 2.526223,-0.55208 2.52621,-0.56292 2.52622,-0.57378 2.52622,-0.58463 2.52622,-0.59548 2.52622,-0.60634 2.52621,-0.61718 2.52622,-0.62804 2.52622,-0.6389 2.52622,-0.64974 2.52622,-0.6606 2.52621,-0.67145 2.52622,-0.68231 2.52622,-0.69315 2.52622,-0.70401 2.52622,-0.71486 2.52622,-0.72571 2.52621,-0.73657 2.52622,-0.74742 2.52622,-0.75827 2.52622,-0.76912 2.52622,-0.77998 2.52621,-0.79082 2.52622,-0.80169 2.52622,-0.81253 2.52622,-0.82339 2.52622,-0.834235 2.52622,-0.845091 2.52621,-0.855944 2.52622,-0.866796 2.52622,-0.877649 2.52622,-0.888502 2.52622,-0.899354 2.52621,-0.910206 2.52622,-0.921059 2.52622,-0.931912 2.52622,-0.942764 2.52622,-0.953617 2.52622,-0.964469 2.52621,-0.975322 2.52622,-0.986174 2.52622,-0.997027 2.52622,-1.00788 2.52622,-1.018732 2.52621,-1.029584 2.52622,-1.040437 2.52622,-1.05129 2.52622,-1.062142 2.52622,-1.072995 2.52622,-1.083847 2.52621,-1.0947 2.52622,-1.105552 2.52622,-1.116405 2.52622,-1.127258 2.52622,-1.13811 2.52621,-1.148962 2.52622,-1.159815 2.52622,-1.170668 2.52622,-1.18152 2.52622,-1.192373 2.52622,-1.203225 2.52621,-1.214078 2.52622,-1.22493 2.52622,-1.235783 2.52622,-1.246636 2.52622,-1.257488 2.52621,-1.26834 2.52622,-1.279193 2.52622,-1.290046 2.52622,-1.300898 2.52622,-1.311751 2.52622,-1.322603 2.52621,-1.333456 2.52622,-1.344309 2.52622,-1.355161 2.52622,-1.366013 2.52622,-1.376866 2.52622,-1.387719 2.52621,-1.398571 2.52622,-1.409424 2.52622,-1.420276 2.52622,-1.431129 2.52622,-1.441981 2.52621,-1.452834 2.52622,-1.463686"
       style="fill:none;stroke:#1a1a1a;stroke-width:2;stroke-linecap:round;stroke-linejoin:round"
       id="path298"
       inkscape:connector-curvature="0" />
    <path
       clip-path="url(#p95eff2b223)"
       d="m 60.202774,125.59565 2.526218,0.63393 2.526218,0.52564 2.526218,0.44293 2.526219,0.3783 2.526218,0.32687 2.526218,0.28525 2.526218,0.25111 2.526218,0.22274 2.526219,0.19894 2.526218,0.17874 2.526218,0.16149 2.526218,0.1466 2.526218,0.1337 2.526218,0.12242 2.526219,0.1125 2.526223,0.10376 2.52621,0.096 2.52622,0.089 2.52622,0.0829 2.52622,0.0773 2.52622,0.0722 2.52621,0.0677 2.52622,0.0636 2.52622,0.0598 2.52622,0.0563 2.52622,0.0532 2.52621,0.0503 2.52622,0.0476 2.52622,0.0452 2.52622,0.0429 2.52622,0.0408 2.52622,0.0388 2.52621,0.037 2.52622,0.0353 2.52622,0.0337 2.52622,0.0323 2.52622,0.0309 2.52621,0.0296 2.52622,0.0284 2.52622,0.0272 2.52622,0.0262 2.52622,0.0251 2.52622,0.0242 2.52621,0.0233 2.52622,0.0224 2.52622,0.0216 2.52622,0.0209 2.52622,0.0201 2.52621,0.0194 2.52622,0.0188 2.52622,0.0182 2.52622,0.0176 2.52622,0.017 2.52622,0.0165 2.52621,0.016 2.52622,0.0155 2.52622,0.015 2.52622,0.0146 2.52622,0.0142 2.52621,0.0138 2.52622,0.0134 2.52622,0.013 2.52622,0.0126 2.52622,0.0123 2.52622,0.012 2.52621,0.0117 2.52622,0.0113 2.52622,0.0111 2.52622,0.0108 2.52622,0.0105 2.52621,0.0102 2.52622,0.01 2.52622,0.01 2.52622,0.01 2.52622,0.009 2.52622,0.009 2.52621,0.009 2.52622,0.009 2.52622,0.008 2.52622,0.008 2.52622,0.008 2.52621,0.008 2.52622,0.008 2.52622,0.008 2.52622,0.007 2.52622,0.007 2.52622,0.007 2.52621,0.007 2.52622,0.007 2.52622,0.007 2.52622,0.007 2.52622,0.006 2.52622,0.006 2.52621,0.006 2.52622,0.006 2.52622,0.006 2.52622,0.006 2.52622,0.006 2.52621,0.006 2.52622,0.006"
       style="fill:none;stroke:#4c72b0;stroke-width:2;stroke-linecap:round;stroke-linejoin:round"
       id="path301"
       inkscape:connector-curvature="0" />
    <path
       d="m 47.571683,136.72529 0,-108.719995"
       style="fill:none;stroke:#262626;stroke-width:1.25;stroke-linecap:square;stroke-linejoin:miter"
       id="path304"
       inkscape:connector-curvature="0" />
    <path
       d="m 325.45568,136.72529 0,-108.719995"
       style="fill:none;stroke:#262626;stroke-width:1.25;stroke-linecap:square;stroke-linejoin:miter"
       id="path307"
       inkscape:connector-curvature="0" />
    <path
       d="m 47.571683,136.72529 277.883997,0"
       style="fill:none;stroke:#262626;stroke-width:1.25;stroke-linecap:square;stroke-linejoin:miter"
       id="path310"
       inkscape:connector-curvature="0" />
    <g
       id="line2d_14"
       style="stroke-linecap:butt;stroke-linejoin:round">
      <path
         d="m 51.971683,15.45 22,0"
         style="fill:none;stroke:#00ffff;stroke-width:2;stroke-linecap:round;stroke-linejoin:round"
         id="path314"
         inkscape:connector-curvature="0" />
    </g>
    <g
       id="line2d_15"
       style="stroke-linecap:butt;stroke-linejoin:round" />
    <g
       id="text_14"
       style="stroke-linecap:butt;stroke-linejoin:round">
      <!-- I -->
      <g
         style="fill:#262626;stroke-linecap:butt;stroke-linejoin:round"
         transform="matrix(0.11,0,0,-0.11,82.771683,19.3)"
         id="g318">
        <use
           transform="scale(0.996264,0.996264)"
           xlink:href="#CMR17-73"
           id="use320"
           style="stroke-linecap:butt;stroke-linejoin:round"
           x="0"
           y="0"
           width="100%"
           height="100%" />
      </g>
    </g>
    <g
       id="line2d_16"
       style="stroke-linecap:butt;stroke-linejoin:round">
      <path
         d="m 142.46826,15.45 22,0"
         style="fill:none;stroke:#1a1a1a;stroke-width:2;stroke-linecap:round;stroke-linejoin:round"
         id="path323"
         inkscape:connector-curvature="0" />
    </g>
    <g
       id="line2d_17"
       style="stroke-linecap:butt;stroke-linejoin:round" />
    <g
       id="text_15"
       style="stroke-linecap:butt;stroke-linejoin:round">
      <!-- N -->
      <g
         style="fill:#262626;stroke-linecap:butt;stroke-linejoin:round"
         transform="matrix(0.11,0,0,-0.11,173.26827,19.3)"
         id="g327">
        <use
           transform="scale(0.996264,0.996264)"
           xlink:href="#CMR17-78"
           id="use329"
           style="stroke-linecap:butt;stroke-linejoin:round"
           x="0"
           y="0"
           width="100%"
           height="100%" />
      </g>
    </g>
    <g
       id="line2d_18"
       style="stroke-linecap:butt;stroke-linejoin:round">
      <path
         d="m 237.22667,15.45 22,0"
         style="fill:none;stroke:#4c72b0;stroke-width:2;stroke-linecap:round;stroke-linejoin:round"
         id="path332"
         inkscape:connector-curvature="0" />
    </g>
    <g
       id="line2d_19"
       style="stroke-linecap:butt;stroke-linejoin:round" />
    <g
       id="text_16"
       style="stroke-linecap:butt;stroke-linejoin:round">
      <!-- IN $\approx$ const -->
      <defs
         id="defs336">
        <path
           d="m 72.21875,45.15625 c 0,2.078125 -0.703125,2.984375 -1.390625,2.984375 -0.40625,0 -1.3125,-0.40625 -1.40625,-2.6875 C 69.015625,38.578125 62.015625,34.5 55.515625,34.5 c -5.796875,0 -10.796875,3.078125 -16,6.5625 -5.40625,3.59375 -10.8125,7.171875 -17.3125,7.171875 C 12.90625,48.234375 5.5,41.15625 5.5,31.984375 5.5,29.796875 6.296875,29 6.90625,29 c 1,0 1.390625,1.890625 1.390625,2.28125 0.5,8.375 8.703125,11.359375 13.90625,11.359375 5.796875,0 10.8125,-3.09375 16,-6.578125 5.40625,-3.578125 10.8125,-7.15625 17.3125,-7.15625 9.3125,0 16.703125,7.078125 16.703125,16.25 z m 0,-23.421875 c 0,2.90625 -1.203125,3.109375 -1.390625,3.109375 -0.40625,0 -1.3125,-0.5 -1.40625,-2.703125 -0.40625,-6.90625 -7.40625,-11 -13.90625,-11 -5.796875,0 -10.796875,3.109375 -16,6.625 C 34.109375,21.390625 28.703125,25 22.203125,25 12.90625,25 5.5,17.890625 5.5,8.65625 5.5,6.4375 6.296875,5.640625 6.90625,5.640625 c 1,0 1.390625,1.90625 1.390625,2.3125 0.5,8.4375 8.703125,11.453125 13.90625,11.453125 5.796875,0 10.8125,-3.125 16,-6.640625 5.40625,-3.609375 10.8125,-7.234375 17.3125,-7.234375 9.5,0 16.703125,7.40625 16.703125,16.203125 z"
           id="CMSY10-25"
           inkscape:connector-curvature="0"
           style="stroke-linecap:butt;stroke-linejoin:round" />
        <path
           d="M 34.90625,35 C 33,35 30.203125,35 30.203125,31.515625 c 0,-2.796875 2.296875,-3.59375 3.59375,-3.59375 0.703125,0 3.609375,0.3125 3.609375,3.703125 0,6.921875 -6.8125,12.171875 -14.5,12.171875 -10.609375,0 -19.609375,-9.765625 -19.609375,-22.5 C 3.296875,8.0625 12.703125,-1 22.90625,-1 c 12.390625,0 15.5,11.578125 15.5,12.6875 0,0.40625 -0.109375,0.703125 -0.8125,0.703125 -0.6875,0 -0.796875,-0.09375 -1.1875,-1.40625 -2.609375,-8.171875 -8.3125,-10.1875 -12.609375,-10.1875 -6.390625,0 -14.09375,5.875 -14.09375,20.59375 C 9.703125,36.53125 17.09375,42 23,42 c 3.90625,0 9.703125,-1.796875 11.90625,-7 z"
           id="CMR17-99"
           inkscape:connector-curvature="0"
           style="stroke-linecap:butt;stroke-linejoin:round" />
      </defs>
      <g
         style="fill:#262626;stroke-linecap:butt;stroke-linejoin:round"
         transform="matrix(0.11,0,0,-0.11,268.02667,19.3)"
         id="g340">
        <use
           transform="scale(0.996264,0.996264)"
           xlink:href="#CMR17-73"
           id="use342"
           style="stroke-linecap:butt;stroke-linejoin:round"
           x="0"
           y="0"
           width="100%"
           height="100%" />
        <use
           transform="matrix(0.996264,0,0,0.996264,32.638409,0)"
           xlink:href="#CMR17-78"
           id="use344"
           style="stroke-linecap:butt;stroke-linejoin:round"
           x="0"
           y="0"
           width="100%"
           height="100%" />
        <use
           transform="matrix(0.996264,0,0,0.996264,131.7868,0)"
           xlink:href="#CMSY10-25"
           id="use346"
           style="stroke-linecap:butt;stroke-linejoin:round"
           x="0"
           y="0"
           width="100%"
           height="100%" />
        <use
           transform="matrix(0.996264,0,0,0.996264,239.35024,0)"
           xlink:href="#CMR17-99"
           id="use348"
           style="stroke-linecap:butt;stroke-linejoin:round"
           x="0"
           y="0"
           width="100%"
           height="100%" />
        <use
           transform="matrix(0.996264,0,0,0.996264,279.8359,0)"
           xlink:href="#CMR17-111"
           id="use350"
           style="stroke-linecap:butt;stroke-linejoin:round"
           x="0"
           y="0"
           width="100%"
           height="100%" />
        <use
           transform="matrix(0.996264,0,0,0.996264,325.52638,0)"
           xlink:href="#CMR17-110"
           id="use352"
           style="stroke-linecap:butt;stroke-linejoin:round"
           x="0"
           y="0"
           width="100%"
           height="100%" />
        <use
           transform="matrix(0.996264,0,0,0.996264,376.42175,0)"
           xlink:href="#CMR17-115"
           id="use354"
           style="stroke-linecap:butt;stroke-linejoin:round"
           x="0"
           y="0"
           width="100%"
           height="100%" />
        <use
           transform="matrix(0.996264,0,0,0.996264,412.22308,0)"
           xlink:href="#CMR17-116"
           id="use356"
           style="stroke-linecap:butt;stroke-linejoin:round"
           x="0"
           y="0"
           width="100%"
           height="100%" />
      </g>
    </g>
  </g>
  <defs
     id="defs358">
    <clipPath
       id="p95eff2b223">
      <rect
         height="108.72"
         width="277.884"
         x="47.571683"
         y="28.005295"
         id="rect361" />
    </clipPath>
  </defs>
  <g
     id="layer1"
     inkscape:label="Layer 1"
     transform="matrix(0.8,0,0,0.8,-94.62471,-378.11196)"
     style="stroke-linecap:butt;stroke-linejoin:round">
    <path
       sodipodi:nodetypes="ccccc"
       inkscape:connector-curvature="0"
       id="rect4163"
       d="m 350.54052,501.81105 0,83.95945 -119.79869,-36.56734 0,-10.67745 z"
       style="display:inline;opacity:1;fill:url(#linearGradient4180);fill-opacity:1;stroke:none;stroke-width:11.34200001;stroke-linecap:butt;stroke-linejoin:round;stroke-miterlimit:4;stroke-dasharray:none;stroke-dashoffset:0;stroke-opacity:1" />
    <path
       sodipodi:nodetypes="ccccc"
       inkscape:connector-curvature="0"
       id="rect4182"
       d="m 230.85341,538.482 0,10.68156 -27.10821,0 0,-10.68156 z"
       style="display:inline;opacity:1;fill:url(#radialGradient5065);fill-opacity:1;stroke:none;stroke-width:11.34200001;stroke-linecap:butt;stroke-linejoin:round;stroke-miterlimit:4;stroke-dasharray:none;stroke-dashoffset:0;stroke-opacity:1" />
    <path
       d="m 269.97846,526.65675 a 8.056633,17.528595 0 0 1 9.44233,13.86702 8.056633,17.528595 0 0 1 -6.37095,20.54741 8.056633,17.528595 0 0 1 -9.446,-13.85518 8.056633,17.528595 0 0 1 6.36551,-20.55539"
       sodipodi:open="true"
       sodipodi:end="4.5197395"
       sodipodi:start="4.5208915"
       sodipodi:ry="17.528595"
       sodipodi:rx="8.056633"
       sodipodi:cy="543.86493"
       sodipodi:cx="271.51187"
       sodipodi:type="arc"
       id="path4138-4"
       style="opacity:0.33000004;fill:#000000;fill-opacity:1;stroke:none;stroke-width:10.16899967;stroke-linecap:butt;stroke-linejoin:round;stroke-miterlimit:4;stroke-dasharray:none;stroke-dashoffset:0;stroke-opacity:1" />
    <path
       d="m 325.29645,509.42355 a 16.351383,35.057186 0 0 1 19.16374,27.73404 16.351383,35.057186 0 0 1 -12.9302,41.09482 16.351383,35.057186 0 0 1 -19.17118,-27.71037 16.351383,35.057186 0 0 1 12.91915,-41.11078"
       sodipodi:open="true"
       sodipodi:end="4.5197395"
       sodipodi:start="4.5208915"
       sodipodi:ry="35.057186"
       sodipodi:rx="16.351383"
       sodipodi:cy="543.8399"
       sodipodi:cx="328.4086"
       sodipodi:type="arc"
       id="path4138-3"
       style="opacity:0.33000004;fill:#000000;fill-opacity:1;stroke:none;stroke-width:10.16899967;stroke-linecap:butt;stroke-linejoin:round;stroke-miterlimit:4;stroke-dasharray:none;stroke-dashoffset:0;stroke-opacity:1" />
    <text
       sodipodi:linespacing="125%"
       id="text11892"
       y="548.47858"
       x="319.66226"
       style="font-style:normal;font-weight:normal;font-size:15px;line-height:125%;font-family:sans-serif;letter-spacing:0px;word-spacing:0px;fill:#000000;fill-opacity:1;stroke:none;stroke-width:1px;stroke-linecap:butt;stroke-linejoin:miter;stroke-opacity:1"
       xml:space="preserve"><tspan
         style="font-style:normal;font-variant:normal;font-weight:normal;font-stretch:normal;font-size:12.5px;font-family:serif;-inkscape-font-specification:serif;stroke-linecap:butt;stroke-linejoin:round"
         y="548.47858"
         x="319.66226"
         id="tspan11894"
         sodipodi:role="line">4A</tspan></text>
    <text
       sodipodi:linespacing="125%"
       id="text11953"
       y="548.48279"
       x="243.01773"
       style="font-style:normal;font-weight:normal;font-size:15px;line-height:125%;font-family:sans-serif;letter-spacing:0px;word-spacing:0px;fill:#000000;fill-opacity:1;stroke:none;stroke-width:1px;stroke-linecap:butt;stroke-linejoin:miter;stroke-opacity:1"
       xml:space="preserve"><tspan
         style="font-style:normal;font-variant:normal;font-weight:normal;font-stretch:normal;font-size:12.5px;font-family:serif;-inkscape-font-specification:serif;stroke-linecap:butt;stroke-linejoin:round"
         y="548.48279"
         x="243.01773"
         id="tspan11955"
         sodipodi:role="line">d</tspan></text>
    <text
       sodipodi:linespacing="125%"
       id="text11892-3"
       y="548.4212"
       x="266.97391"
       style="font-style:normal;font-weight:normal;font-size:15px;line-height:125%;font-family:sans-serif;letter-spacing:0px;word-spacing:0px;fill:#000000;fill-opacity:1;stroke:none;stroke-width:1px;stroke-linecap:butt;stroke-linejoin:miter;stroke-opacity:1"
       xml:space="preserve"><tspan
         style="font-style:normal;font-variant:normal;font-weight:normal;font-stretch:normal;font-size:12.5px;font-family:serif;-inkscape-font-specification:serif;stroke-linecap:butt;stroke-linejoin:round"
         y="548.4212"
         x="266.97391"
         id="tspan11894-6"
         sodipodi:role="line">A</tspan></text>
    <text
       sodipodi:linespacing="125%"
       id="text11953-3"
       y="548.28381"
       x="291.74872"
       style="font-style:normal;font-weight:normal;font-size:15px;line-height:125%;font-family:sans-serif;letter-spacing:0px;word-spacing:0px;fill:#000000;fill-opacity:1;stroke:none;stroke-width:1px;stroke-linecap:butt;stroke-linejoin:miter;stroke-opacity:1"
       xml:space="preserve"><tspan
         style="font-style:normal;font-variant:normal;font-weight:normal;font-stretch:normal;font-size:12.5px;font-family:serif;-inkscape-font-specification:serif;stroke-linecap:butt;stroke-linejoin:round"
         y="548.28381"
         x="291.74872"
         id="tspan11955-6"
         sodipodi:role="line">d</tspan></text>
    <path
       sodipodi:nodetypes="cc"
       inkscape:connector-curvature="0"
       id="path6332-3"
       d="m 262.66924,543.73025 -9.10309,0.12909"
       style="fill:none;fill-rule:evenodd;stroke:#000000;stroke-width:0.46612638;stroke-linecap:butt;stroke-linejoin:miter;stroke-miterlimit:4;stroke-dasharray:none;stroke-opacity:1;marker-mid:url(#Arrow1Lstart-7)" />
    <path
       sodipodi:nodetypes="cc"
       inkscape:connector-curvature="0"
       id="path6332-3-2"
       d="m 231.63932,543.73025 9.10308,0.12909"
       style="fill:none;fill-rule:evenodd;stroke:#000000;stroke-width:0.46612638;stroke-linecap:butt;stroke-linejoin:miter;stroke-miterlimit:4;stroke-dasharray:none;stroke-opacity:1;marker-mid:url(#Arrow1Lstart-7-5)" />
    <path
       sodipodi:nodetypes="cc"
       inkscape:connector-curvature="0"
       id="path6332-3-0"
       d="m 311.25663,543.73025 -9.10309,0.12909"
       style="fill:none;fill-rule:evenodd;stroke:#000000;stroke-width:0.46612638;stroke-linecap:butt;stroke-linejoin:miter;stroke-miterlimit:4;stroke-dasharray:none;stroke-opacity:1;marker-mid:url(#Arrow1Lstart-7-2)" />
    <path
       sodipodi:nodetypes="cc"
       inkscape:connector-curvature="0"
       id="path6332-3-2-9"
       d="m 280.22672,543.73025 9.10307,0.12909"
       style="fill:none;fill-rule:evenodd;stroke:#000000;stroke-width:0.46612638;stroke-linecap:butt;stroke-linejoin:miter;stroke-miterlimit:4;stroke-dasharray:none;stroke-opacity:1;marker-mid:url(#Arrow1Lstart-7-5-9)" />
  </g>
</svg>
