<?xml version="1.0" encoding="utf-8" standalone="no"?>
<!DOCTYPE svg PUBLIC "-//W3C//DTD SVG 1.1//EN"
  "http://www.w3.org/Graphics/SVG/1.1/DTD/svg11.dtd">
<!-- Created with matplotlib (http://matplotlib.org/) -->
<svg height="144pt" version="1.1" viewBox="0 0 173 144" width="173pt" xmlns="http://www.w3.org/2000/svg" xmlns:xlink="http://www.w3.org/1999/xlink">
 <defs>
  <style type="text/css">
*{stroke-linecap:butt;stroke-linejoin:round;}
  </style>
 </defs>
 <g id="figure_1">
  <g id="patch_1">
   <path d="M 0 144 
L 173.9016 144 
L 173.9016 0 
L 0 0 
z
" style="fill:#ffffff;"/>
  </g>
  <g id="axes_1">
   <g id="patch_2">
    <path d="M 21.7377 126 
L 156.51144 126 
L 156.51144 17.28 
L 21.7377 17.28 
z
" style="fill:#ffffff;"/>
   </g>
   <g id="matplotlib.axis_1">
    <g id="xtick_1">
     <g id="line2d_1"/>
     <g id="text_1">
      <!-- $-0.5$ -->
      <defs>
       <path d="M 65.90625 23 
C 67.59375 23 69.40625 23 69.40625 25 
C 69.40625 27 67.59375 27 65.90625 27 
L 11.796875 27 
C 10.09375 27 8.296875 27 8.296875 25 
C 8.296875 23 10.09375 23 11.796875 23 
z
" id="CMSY10-0"/>
       <path d="M 42 31.640625 
C 42 37.75 41.90625 48.125 37.703125 56.109375 
C 34 63.109375 28.09375 65.59375 22.90625 65.59375 
C 18.09375 65.59375 12 63.40625 8.203125 56.203125 
C 4.203125 48.71875 3.796875 39.4375 3.796875 31.640625 
C 3.796875 25.953125 3.90625 17.28125 7 9.671875 
C 11.296875 -0.609375 19 -2 22.90625 -2 
C 27.5 -2 34.5 -0.109375 38.59375 9.375 
C 41.59375 16.28125 42 24.359375 42 31.640625 
z
M 22.90625 -0.40625 
C 16.5 -0.40625 12.703125 5.078125 11.296875 12.6875 
C 10.203125 18.5625 10.203125 27.15625 10.203125 32.75 
C 10.203125 40.4375 10.203125 46.828125 11.5 52.921875 
C 13.40625 61.390625 19 64 22.90625 64 
C 27 64 32.296875 61.296875 34.203125 53.125 
C 35.5 47.4375 35.59375 40.734375 35.59375 32.75 
C 35.59375 26.25 35.59375 18.265625 34.40625 12.375 
C 32.296875 1.484375 26.40625 -0.40625 22.90625 -0.40625 
z
" id="CMR17-48"/>
       <path d="M 18.40625 4.796875 
C 18.40625 7.6875 16 9.671875 13.59375 9.671875 
C 10.703125 9.671875 8.703125 7.28125 8.703125 4.890625 
C 8.703125 2 11.09375 0 13.5 0 
C 16.40625 0 18.40625 2.390625 18.40625 4.796875 
z
" id="CMMI12-58"/>
       <path d="M 11.40625 57.6875 
C 12.40625 57.28125 16.5 56 20.703125 56 
C 30 56 35.09375 61.109375 38 64.0625 
C 38 64.953125 38 65.5 37.40625 65.5 
C 37.296875 65.5 37.09375 65.5 36.296875 65.046875 
C 32.796875 63.40625 28.703125 62.078125 23.703125 62.078125 
C 20.703125 62.078125 16.203125 62.484375 11.296875 64.671875 
C 10.203125 65.171875 10 65.171875 9.90625 65.171875 
C 9.40625 65.171875 9.296875 65.0625 9.296875 63.078125 
L 9.296875 34.421875 
C 9.296875 32.640625 9.296875 32.140625 10.296875 32.140625 
C 10.796875 32.140625 11 32.34375 11.5 33.03125 
C 14.703125 37.515625 19.09375 39.40625 24.09375 39.40625 
C 27.59375 39.40625 35.09375 37.21875 35.09375 20.140625 
C 35.09375 16.953125 35.09375 11.171875 32.09375 6.578125 
C 29.59375 2.484375 25.703125 0.390625 21.40625 0.390625 
C 14.796875 0.390625 8.09375 5 6.296875 12.71875 
C 6.703125 12.609375 7.5 12.421875 7.90625 12.421875 
C 9.203125 12.421875 11.703125 13.125 11.703125 16.21875 
C 11.703125 18.90625 9.796875 20 7.90625 20 
C 5.59375 20 4.09375 18.59375 4.09375 15.796875 
C 4.09375 7.09375 11 -2 21.59375 -2 
C 31.90625 -2 41.703125 6.875 41.703125 19.75 
C 41.703125 31.71875 33.90625 41 24.203125 41 
C 19.09375 41 14.796875 39.109375 11.40625 35.53125 
z
" id="CMR17-53"/>
      </defs>
      <g style="fill:#262626;" transform="translate(42.212998 139.918498)scale(0.1 -0.1)">
       <use transform="scale(0.996264)" xlink:href="#CMSY10-0"/>
       <use transform="translate(77.487468 0)scale(0.996264)" xlink:href="#CMR17-48"/>
       <use transform="translate(123.177945 0)scale(0.996264)" xlink:href="#CMMI12-58"/>
       <use transform="translate(150.275122 0)scale(0.996264)" xlink:href="#CMR17-53"/>
      </g>
     </g>
    </g>
    <g id="xtick_2">
     <g id="line2d_2"/>
     <g id="text_2">
      <!-- $0.0$ -->
      <g style="fill:#262626;" transform="translate(82.771666 139.918498)scale(0.1 -0.1)">
       <use transform="scale(0.996264)" xlink:href="#CMR17-48"/>
       <use transform="translate(45.690477 0)scale(0.996264)" xlink:href="#CMMI12-58"/>
       <use transform="translate(72.787654 0)scale(0.996264)" xlink:href="#CMR17-48"/>
      </g>
     </g>
    </g>
    <g id="xtick_3">
     <g id="line2d_3"/>
     <g id="text_3">
      <!-- $0.5$ -->
      <g style="fill:#262626;" transform="translate(119.455963 139.918498)scale(0.1 -0.1)">
       <use transform="scale(0.996264)" xlink:href="#CMR17-48"/>
       <use transform="translate(45.690477 0)scale(0.996264)" xlink:href="#CMMI12-58"/>
       <use transform="translate(72.787654 0)scale(0.996264)" xlink:href="#CMR17-53"/>
      </g>
     </g>
    </g>
    <g id="text_4">
     <!-- Synaptic efficacy [mV] -->
     <defs>
      <path d="M 43.796875 67.03125 
C 43.796875 68.8125 43.703125 68.921875 43.09375 68.921875 
C 42.5 68.921875 42.296875 68.515625 41.90625 67.625 
L 38.90625 61.046875 
C 35.09375 66.515625 29.296875 69 23 69 
C 12.796875 69 4.59375 60.953125 4.59375 50.828125 
C 4.59375 47.75 5.296875 43.375 8.703125 39.21875 
C 12.40625 34.65625 15.90625 33.859375 23.90625 31.765625 
C 26.90625 30.96875 31.90625 29.671875 32.90625 29.28125 
C 38.59375 26.90625 41.59375 20.953125 41.59375 15.390625 
C 41.59375 8.234375 36.5 0.59375 27.796875 0.59375 
C 17.09375 0.59375 7.09375 6.546875 6.40625 20.484375 
C 6.296875 22.078125 6.203125 22.171875 5.5 22.171875 
C 4.703125 22.171875 4.59375 22.078125 4.59375 20.078125 
L 4.59375 -0.015625 
C 4.59375 -1.796875 4.703125 -1.90625 5.296875 -1.90625 
C 6 -1.90625 6.203125 -1.40625 7.59375 1.6875 
C 7.703125 1.984375 7.703125 2.1875 9.59375 5.953125 
C 14.59375 -0.609375 23 -2 27.796875 -2 
C 38.703125 -2 46.40625 7.046875 46.40625 17.5625 
C 46.40625 22.71875 44.5 26.6875 43.40625 28.484375 
C 39.203125 34.84375 34.703125 36.03125 29.90625 37.21875 
C 29.203125 37.53125 29 37.53125 23.40625 38.90625 
C 18 40.296875 15.703125 41 13.203125 43.6875 
C 10.40625 46.75 9.40625 49.9375 9.40625 53.109375 
C 9.40625 59.5625 14.59375 66.609375 23.09375 66.609375 
C 33.703125 66.609375 40.296875 59.15625 41.796875 46.765625 
C 42.09375 44.96875 42.203125 44.875 42.90625 44.875 
C 43.796875 44.875 43.796875 45.171875 43.796875 46.859375 
z
" id="CMR17-83"/>
      <path d="M 39 34.328125 
C 41.5 40.40625 46 40.40625 47.40625 40.40625 
L 47.40625 43 
C 45.5 43 43 43 41.09375 43 
C 39 43 35.703125 43 33.703125 43.09375 
L 33.703125 40.5 
C 37.5 40.203125 37.59375 37.40625 37.59375 36.609375 
C 37.59375 35.625 37.40625 35.125 36.90625 33.921875 
L 26 7.015625 
L 14.09375 36.03125 
C 13.59375 37.21875 13.59375 37.90625 13.59375 38.015625 
C 13.59375 40.203125 15.90625 40.40625 18.296875 40.40625 
L 18.296875 43.09375 
C 15.90625 43 11.59375 43 9.09375 43 
C 6.40625 43 3.203125 43 1 43.09375 
L 1 40.40625 
C 6.40625 40.40625 7 39.90625 8.296875 36.71875 
L 23.203125 0.234375 
C 18.703125 -11.53125 16.09375 -18.40625 9.796875 -18.40625 
C 8.703125 -18.40625 6.203125 -18.109375 4.40625 -16.3125 
C 6.703125 -16.109375 7.703125 -14.71875 7.703125 -13.015625 
C 7.703125 -11.328125 6.5 -9.828125 4.5 -9.828125 
C 2.296875 -9.828125 1.203125 -11.328125 1.203125 -13.125 
C 1.203125 -17.109375 5.296875 -20 9.796875 -20 
C 15.59375 -20 19.203125 -14.40625 21.203125 -9.4375 
z
" id="CMR17-121"/>
      <path d="M 41.5 30.203125 
C 41.5 35.296875 40.5 43.59375 28.703125 43.59375 
C 20.796875 43.59375 16.703125 37.5 15.203125 33.5 
L 15.09375 33.5 
L 15.09375 43.59375 
L 3.296875 42.5 
L 3.296875 39.90625 
C 9.203125 39.90625 10.09375 39.296875 10.09375 34.5 
L 10.09375 6.6875 
C 10.09375 2.875 9.703125 2.390625 3.296875 2.390625 
L 3.296875 -0.203125 
C 5.703125 0 10.09375 0 12.703125 0 
C 15.296875 0 19.796875 0 22.203125 -0.203125 
L 22.203125 2.390625 
C 15.796875 2.390625 15.40625 2.78125 15.40625 6.6875 
L 15.40625 25.90625 
C 15.40625 35.109375 21 42 28 42 
C 35.40625 42 36.203125 35.40625 36.203125 30.59375 
L 36.203125 6.6875 
C 36.203125 2.875 35.796875 2.390625 29.40625 2.390625 
L 29.40625 -0.203125 
C 31.796875 0 36.203125 0 38.796875 0 
C 41.40625 0 45.90625 0 48.296875 -0.203125 
L 48.296875 2.390625 
C 41.90625 2.390625 41.5 2.78125 41.5 6.6875 
z
" id="CMR17-110"/>
      <path d="M 36 25.828125 
C 36 32.375 36 35.84375 31.796875 39.734375 
C 28.09375 43 23.796875 44 20.40625 44 
C 12.5 44 6.796875 37.609375 6.796875 30.796875 
C 6.796875 27 9.796875 27 10.40625 27 
C 11.703125 27 14 27.78125 14 30.53125 
C 14 33 12.09375 34.078125 10.40625 34.078125 
C 10 34.078125 9.5 33.96875 9.203125 33.875 
C 11.296875 40.5 16.703125 42.40625 20.203125 42.40625 
C 25.203125 42.40625 30.703125 37.953125 30.703125 29.453125 
L 30.703125 25 
C 24.796875 25 17.703125 24.203125 12.09375 21.203125 
C 5.796875 17.703125 4 12.703125 4 8.90625 
C 4 1.203125 13 -1 18.296875 -1 
C 23.796875 -1 28.90625 2.171875 31.09375 7.984375 
C 31.296875 3.640625 34.09375 -0.28125 38.5 -0.28125 
C 40.59375 -0.28125 45.90625 1.09375 45.90625 8.859375 
L 45.90625 14.375 
L 44.09375 14.375 
L 44.09375 8.78125 
C 44.09375 2.78125 41.40625 2 40.09375 2 
C 36 2 36 7.15625 36 11.53125 
z
M 30.703125 13.59375 
C 30.703125 4.953125 24.5 0.59375 19 0.59375 
C 14 0.59375 10.09375 4.296875 10.09375 8.90625 
C 10.09375 11.890625 11.40625 17.1875 17.203125 20.390625 
C 22 23.09375 27.5 23.5 30.703125 23.5 
z
" id="CMR17-97"/>
      <path d="M 22 -16.609375 
C 15.59375 -16.609375 15.203125 -16.203125 15.203125 -12.328125 
L 15.203125 6.28125 
C 18.09375 2.09375 22.296875 -0.59375 27.59375 -0.59375 
C 37.59375 -0.59375 47.703125 8.171875 47.703125 21.6875 
C 47.703125 34.234375 39 43.78125 28.703125 43.78125 
C 22.703125 43.78125 17.796875 40.5 15 36.53125 
L 15 43.78125 
L 3.09375 42.6875 
L 3.09375 40.109375 
C 9 40.109375 9.90625 39.5 9.90625 34.734375 
L 9.90625 -12.328125 
C 9.90625 -16.109375 9.5 -16.609375 3.09375 -16.609375 
L 3.09375 -19.1875 
C 5.5 -19 9.90625 -19 12.5 -19 
C 15.09375 -19 19.59375 -19 22 -19.1875 
z
M 15.203125 31.4375 
C 15.203125 32.84375 15.203125 34.921875 19.09375 38.609375 
C 19.59375 39.015625 23 42 28 42 
C 35.296875 42 41.296875 32.9375 41.296875 21.59375 
C 41.296875 10.25 34.90625 1 27 1 
C 23.40625 1 19.5 2.6875 16.5 7.375 
C 15.203125 9.5625 15.203125 10.15625 15.203125 11.75 
z
" id="CMR17-112"/>
      <path d="M 15.09375 40 
L 29.09375 40 
L 29.09375 42.578125 
L 15.09375 42.578125 
L 15.09375 61 
L 13.296875 61 
C 13.09375 50.703125 9.59375 41.6875 1.09375 41.6875 
L 1.09375 40 
L 9.796875 40 
L 9.796875 12.046875 
C 9.796875 10.15625 9.796875 -1 21.40625 -1 
C 27.296875 -1 30.703125 4.78125 30.703125 12.140625 
L 30.703125 17.8125 
L 28.90625 17.8125 
L 28.90625 12.234375 
C 28.90625 5.375 26.203125 0.796875 22 0.796875 
C 19.09375 0.796875 15.09375 2.78125 15.09375 11.84375 
z
" id="CMR17-116"/>
      <path d="M 15.5 61.078125 
C 15.5 63.265625 13.703125 65.15625 11.40625 65.15625 
C 9.203125 65.15625 7.296875 63.375 7.296875 61.078125 
C 7.296875 58.890625 9.09375 57 11.40625 57 
C 13.59375 57 15.5 58.796875 15.5 61.078125 
z
M 3.796875 42.28125 
L 3.796875 39.703125 
C 9.40625 39.703125 10.203125 39.09375 10.203125 34.328125 
L 10.203125 6.671875 
C 10.203125 2.875 9.796875 2.390625 3.40625 2.390625 
L 3.40625 -0.203125 
C 5.796875 0 10.09375 0 12.59375 0 
C 15 0 19.09375 0 21.40625 -0.203125 
L 21.40625 2.390625 
C 15.5 2.390625 15.296875 2.984375 15.296875 6.5625 
L 15.296875 43.375 
z
" id="CMR17-105"/>
      <path d="M 34.90625 35 
C 33 35 30.203125 35 30.203125 31.515625 
C 30.203125 28.71875 32.5 27.921875 33.796875 27.921875 
C 34.5 27.921875 37.40625 28.234375 37.40625 31.625 
C 37.40625 38.546875 30.59375 43.796875 22.90625 43.796875 
C 12.296875 43.796875 3.296875 34.03125 3.296875 21.296875 
C 3.296875 8.0625 12.703125 -1 22.90625 -1 
C 35.296875 -1 38.40625 10.578125 38.40625 11.6875 
C 38.40625 12.09375 38.296875 12.390625 37.59375 12.390625 
C 36.90625 12.390625 36.796875 12.296875 36.40625 10.984375 
C 33.796875 2.8125 28.09375 0.796875 23.796875 0.796875 
C 17.40625 0.796875 9.703125 6.671875 9.703125 21.390625 
C 9.703125 36.53125 17.09375 42 23 42 
C 26.90625 42 32.703125 40.203125 34.90625 35 
z
" id="CMR17-99"/>
      <path d="M 38.09375 23 
C 38.5 23.40625 38.5 23.609375 38.5 24.625 
C 38.5 34.96875 33.09375 44 21.703125 44 
C 11.09375 44 2.703125 33.890625 2.703125 21.609375 
C 2.703125 8.609375 12.203125 -1 22.796875 -1 
C 34 -1 38.40625 9.484375 38.40625 11.5625 
C 38.40625 12.25 37.796875 12.25 37.59375 12.25 
C 36.90625 12.25 36.796875 12.046875 36.40625 10.875 
C 34.203125 4.140625 28.703125 0.796875 23.5 0.796875 
C 19.203125 0.796875 14.90625 3.171875 12.203125 7.5 
C 9.09375 12.546875 9.09375 18.375 9.09375 23 
z
M 9.203125 24.5 
C 9.90625 39.140625 17.59375 42.40625 21.59375 42.40625 
C 28.40625 42.40625 33 35.890625 33.09375 24.5 
z
" id="CMR17-101"/>
      <path d="M 64.90625 43.1875 
C 62.5 43.1875 55.09375 43.1875 53.203125 42.796875 
C 52.59375 42.578125 52.40625 42.578125 51.203125 42.578125 
L 39.796875 42.578125 
L 39.796875 54.203125 
C 39.796875 63.640625 47.40625 68 53.40625 68 
C 55.296875 68 59.59375 67.5 61.796875 64.078125 
C 60.796875 64.078125 57.59375 64.078125 57.59375 60.59375 
C 57.59375 58.203125 59.203125 57 61.203125 57 
C 63 57 64.796875 58 64.796875 60.703125 
C 64.796875 65.703125 60 69.59375 53.796875 69.59375 
C 50.703125 69.59375 44.203125 68.90625 39 63.984375 
C 37.703125 66.59375 34.40625 69.59375 28.703125 69.59375 
C 21 69.59375 9.90625 65.125 9.90625 54.203125 
L 9.90625 42.578125 
L 1.90625 42.578125 
L 1.90625 40 
L 9.90625 40 
L 9.90625 6.671875 
C 9.90625 2.875 9.5 2.390625 3.09375 2.390625 
L 3.09375 -0.203125 
C 5.5 0 9.90625 0 12.40625 0 
C 15 0 19.40625 0 21.796875 -0.203125 
L 21.796875 2.390625 
C 15.40625 2.390625 15 2.78125 15 6.671875 
L 15 40 
L 34.90625 40 
L 34.90625 6.671875 
C 34.90625 2.875 34.5 2.390625 28.09375 2.390625 
L 28.09375 -0.203125 
C 30.5 0 34.90625 0 37.40625 0 
C 40 0 44.40625 0 46.796875 -0.203125 
L 46.796875 2.390625 
C 40.40625 2.390625 40 2.78125 40 6.671875 
L 40 40 
L 54.703125 40 
C 59 40 59.796875 39.09375 59.796875 34.71875 
L 59.796875 6.671875 
C 59.796875 2.875 59.40625 2.390625 53 2.390625 
L 53 -0.203125 
C 55.40625 0 59.796875 0 62.296875 0 
C 64.90625 0 69.296875 0 71.703125 -0.203125 
L 71.703125 2.390625 
C 65.296875 2.390625 64.90625 2.78125 64.90625 6.671875 
z
M 14.796875 42.578125 
L 14.796875 54.203125 
C 14.796875 63.546875 22.203125 68 28.40625 68 
C 31.90625 68 35.296875 66.5 36.796875 64.078125 
C 35.796875 64.078125 32.5 64.078125 32.5 60.59375 
C 32.5 58.78125 33.5 57.59375 35.09375 57.09375 
C 34.90625 56.1875 34.90625 54.234375 34.90625 54.140625 
L 34.90625 42.578125 
z
" id="CMR17-14"/>
      <path d="M 23.5 -25 
L 23.5 -21.515625 
L 14.09375 -21.515625 
L 14.09375 71 
L 23.5 71 
L 23.5 74.484375 
L 10.59375 74.484375 
L 10.59375 -25 
z
" id="CMR17-91"/>
      <path d="M 67.59375 30.203125 
C 67.59375 35.1875 66.703125 43.59375 54.796875 43.59375 
C 48 43.59375 43.296875 39 41.5 33.609375 
L 41.40625 33.609375 
C 40.203125 41.8125 34.296875 43.59375 28.703125 43.59375 
C 20.796875 43.59375 16.703125 37.5 15.203125 33.5 
L 15.09375 33.5 
L 15.09375 43.59375 
L 3.296875 42.5 
L 3.296875 39.90625 
C 9.203125 39.90625 10.09375 39.296875 10.09375 34.5 
L 10.09375 6.6875 
C 10.09375 2.875 9.703125 2.390625 3.296875 2.390625 
L 3.296875 -0.203125 
C 5.703125 0 10.09375 0 12.703125 0 
C 15.296875 0 19.796875 0 22.203125 -0.203125 
L 22.203125 2.390625 
C 15.796875 2.390625 15.40625 2.78125 15.40625 6.6875 
L 15.40625 25.90625 
C 15.40625 35.109375 21 42 28 42 
C 35.40625 42 36.203125 35.40625 36.203125 30.59375 
L 36.203125 6.6875 
C 36.203125 2.875 35.796875 2.390625 29.40625 2.390625 
L 29.40625 -0.203125 
C 31.796875 0 36.203125 0 38.796875 0 
C 41.40625 0 45.90625 0 48.296875 -0.203125 
L 48.296875 2.390625 
C 41.90625 2.390625 41.5 2.78125 41.5 6.6875 
L 41.5 25.90625 
C 41.5 35.109375 47.09375 42 54.09375 42 
C 61.5 42 62.296875 35.40625 62.296875 30.59375 
L 62.296875 6.6875 
C 62.296875 2.875 61.90625 2.390625 55.5 2.390625 
L 55.5 -0.203125 
C 57.90625 0 62.296875 0 64.90625 0 
C 67.5 0 72 0 74.40625 -0.203125 
L 74.40625 2.390625 
C 68 2.390625 67.59375 2.78125 67.59375 6.6875 
z
" id="CMR17-109"/>
      <path d="M 59 58.515625 
C 59.90625 60.71875 61.5 65 68.203125 65 
L 68.203125 67.6875 
C 65.90625 67.484375 63.296875 67.484375 60.796875 67.484375 
C 58.40625 67.484375 54.296875 67.484375 52 67.6875 
L 52 65 
C 57 65 57.203125 61.5 57.203125 60.90625 
C 57.203125 59.796875 56.90625 59.109375 56.59375 58.3125 
L 36.90625 6.96875 
L 16.296875 60.71875 
C 16 61.421875 15.796875 61.921875 15.796875 62.40625 
C 15.796875 65 19.796875 65 21.90625 65 
L 21.90625 67.484375 
C 18.703125 67.484375 14 67.484375 10.703125 67.484375 
C 8.09375 67.484375 3.40625 67.484375 1 67.6875 
L 1 65 
C 6.796875 65 7.90625 64.609375 9.09375 61.421875 
L 32.90625 -0.40625 
C 33.40625 -1.796875 33.5 -2 34.59375 -2 
C 35.703125 -2 35.796875 -1.796875 36.296875 -0.40625 
z
" id="CMR17-86"/>
      <path d="M 14.296875 74.484375 
L 1.40625 74.484375 
L 1.40625 71 
L 10.796875 71 
L 10.796875 -21.515625 
L 1.40625 -21.515625 
L 1.40625 -25 
L 14.296875 -25 
z
" id="CMR17-93"/>
     </defs>
     <g style="fill:#262626;" transform="translate(35.395375 154.074855)scale(0.11 -0.11)">
      <use transform="scale(0.996264)" xlink:href="#CMR17-83"/>
      <use transform="translate(50.89537 0)scale(0.996264)" xlink:href="#CMR17-121"/>
      <use transform="translate(99.188286 0)scale(0.996264)" xlink:href="#CMR17-110"/>
      <use transform="translate(150.083655 0)scale(0.996264)" xlink:href="#CMR17-97"/>
      <use transform="translate(195.774133 0)scale(0.996264)" xlink:href="#CMR17-112"/>
      <use transform="translate(246.669502 0)scale(0.996264)" xlink:href="#CMR17-116"/>
      <use transform="translate(281.95027 0)scale(0.996264)" xlink:href="#CMR17-105"/>
      <use transform="translate(306.821329 0)scale(0.996264)" xlink:href="#CMR17-99"/>
      <use transform="translate(377.382955 0)scale(0.996264)" xlink:href="#CMR17-101"/>
      <use transform="translate(417.868616 0)scale(0.996264)" xlink:href="#CMR17-14"/>
      <use transform="translate(492.481898 0)scale(0.996264)" xlink:href="#CMR17-99"/>
      <use transform="translate(532.967558 0)scale(0.996264)" xlink:href="#CMR17-97"/>
      <use transform="translate(578.658035 0)scale(0.996264)" xlink:href="#CMR17-99"/>
      <use transform="translate(619.143696 0)scale(0.996264)" xlink:href="#CMR17-121"/>
      <use transform="translate(697.512578 0)scale(0.996264)" xlink:href="#CMR17-91"/>
      <use transform="translate(722.383636 0)scale(0.996264)" xlink:href="#CMR17-109"/>
      <use transform="translate(799.303226 0)scale(0.996264)" xlink:href="#CMR17-86"/>
      <use transform="translate(868.375656 0)scale(0.996264)" xlink:href="#CMR17-93"/>
     </g>
    </g>
   </g>
   <g id="matplotlib.axis_2">
    <g id="ytick_1">
     <g id="line2d_4"/>
     <g id="text_5">
      <!-- $0$ -->
      <g style="fill:#262626;" transform="translate(9.756365 129.459249)scale(0.1 -0.1)">
       <use transform="scale(0.996264)" xlink:href="#CMR17-48"/>
      </g>
     </g>
    </g>
    <g id="ytick_2">
     <g id="line2d_5"/>
     <g id="text_6">
      <!-- $10000$ -->
      <defs>
       <path d="M 26.59375 63.40625 
C 26.59375 65.5 26.5 65.5 25.09375 65.5 
C 21.203125 61.1875 15.296875 59.796875 9.703125 59.796875 
C 9.40625 59.796875 8.90625 59.796875 8.796875 59.5 
C 8.703125 59.296875 8.703125 59.09375 8.703125 57 
C 11.796875 57 17 57.59375 21 59.984375 
L 21 7.203125 
C 21 3.6875 20.796875 2.5 12.203125 2.5 
L 9.203125 2.5 
L 9.203125 0 
C 14 0 19 0 23.796875 0 
C 28.59375 0 33.59375 0 38.40625 0 
L 38.40625 2.5 
L 35.40625 2.5 
C 26.796875 2.5 26.59375 3.59375 26.59375 7.15625 
z
" id="CMR17-49"/>
      </defs>
      <g style="fill:#262626;" transform="translate(-10.168976 95.6703)scale(0.1 -0.1)">
       <use transform="scale(0.996264)" xlink:href="#CMR17-49"/>
       <use transform="translate(45.690477 0)scale(0.996264)" xlink:href="#CMR17-48"/>
       <use transform="translate(91.380954 0)scale(0.996264)" xlink:href="#CMR17-48"/>
       <use transform="translate(137.071431 0)scale(0.996264)" xlink:href="#CMR17-48"/>
       <use transform="translate(182.761908 0)scale(0.996264)" xlink:href="#CMR17-48"/>
      </g>
     </g>
    </g>
    <g id="ytick_3">
     <g id="line2d_6"/>
     <g id="text_7">
      <!-- $20000$ -->
      <defs>
       <path d="M 41.703125 15.453125 
L 39.90625 15.453125 
C 38.90625 8.375 38.09375 7.171875 37.703125 6.5625 
C 37.203125 5.765625 30 5.765625 28.59375 5.765625 
L 9.40625 5.765625 
C 13 9.671875 20 16.75 28.5 24.953125 
C 34.59375 30.734375 41.703125 37.53125 41.703125 47.421875 
C 41.703125 59.21875 32.296875 66 21.796875 66 
C 10.796875 66 4.09375 56.3125 4.09375 47.34375 
C 4.09375 43.4375 7 42.9375 8.203125 42.9375 
C 9.203125 42.9375 12.203125 43.546875 12.203125 47.03125 
C 12.203125 50.109375 9.59375 51 8.203125 51 
C 7.59375 51 7 50.90625 6.59375 50.703125 
C 8.5 59.21875 14.296875 63.40625 20.40625 63.40625 
C 29.09375 63.40625 34.796875 56.515625 34.796875 47.421875 
C 34.796875 38.734375 29.703125 31.25 24 24.75 
L 4.09375 2.28125 
L 4.09375 0 
L 39.296875 0 
z
" id="CMR17-50"/>
      </defs>
      <g style="fill:#262626;" transform="translate(-10.168976 61.88135)scale(0.1 -0.1)">
       <use transform="scale(0.996264)" xlink:href="#CMR17-50"/>
       <use transform="translate(45.690477 0)scale(0.996264)" xlink:href="#CMR17-48"/>
       <use transform="translate(91.380954 0)scale(0.996264)" xlink:href="#CMR17-48"/>
       <use transform="translate(137.071431 0)scale(0.996264)" xlink:href="#CMR17-48"/>
       <use transform="translate(182.761908 0)scale(0.996264)" xlink:href="#CMR17-48"/>
      </g>
     </g>
    </g>
    <g id="ytick_4">
     <g id="line2d_7"/>
     <g id="text_8">
      <!-- $30000$ -->
      <defs>
       <path d="M 22.09375 33.703125 
C 31 33.703125 34.90625 25.96875 34.90625 17.03125 
C 34.90625 5 28.5 0.390625 22.703125 0.390625 
C 17.40625 0.390625 8.796875 3.03125 6.09375 10.828125 
C 6.59375 10.625 7.09375 10.625 7.59375 10.625 
C 10 10.625 11.796875 12.21875 11.796875 14.8125 
C 11.796875 17.703125 9.59375 19 7.59375 19 
C 5.90625 19 3.296875 18.203125 3.296875 14.46875 
C 3.296875 5.234375 12.296875 -2 22.90625 -2 
C 34 -2 42.5 6.71875 42.5 16.953125 
C 42.5 26.671875 34.5 33.703125 25 34.796875 
C 32.59375 36.375 39.90625 43.0625 39.90625 52.015625 
C 39.90625 59.6875 32 65.296875 23 65.296875 
C 13.90625 65.296875 5.90625 59.828125 5.90625 52.015625 
C 5.90625 48.59375 8.5 48 9.796875 48 
C 11.90625 48 13.703125 49.296875 13.703125 51.890625 
C 13.703125 54.46875 11.90625 55.765625 9.796875 55.765625 
C 9.40625 55.765625 8.90625 55.765625 8.5 55.578125 
C 11.40625 61.859375 19.296875 63 22.796875 63 
C 26.296875 63 32.90625 61.328125 32.90625 51.875 
C 32.90625 49.109375 32.5 44.1875 29.09375 39.84375 
C 26.09375 36 22.703125 36 19.40625 35.6875 
C 18.90625 35.6875 16.59375 35.453125 16.203125 35.453125 
C 15.5 35.359375 15.09375 35.265625 15.09375 34.5 
C 15.09375 33.796875 15.203125 33.703125 17.203125 33.703125 
z
" id="CMR17-51"/>
      </defs>
      <g style="fill:#262626;" transform="translate(-10.168976 28.0924)scale(0.1 -0.1)">
       <use transform="scale(0.996264)" xlink:href="#CMR17-51"/>
       <use transform="translate(45.690477 0)scale(0.996264)" xlink:href="#CMR17-48"/>
       <use transform="translate(91.380954 0)scale(0.996264)" xlink:href="#CMR17-48"/>
       <use transform="translate(137.071431 0)scale(0.996264)" xlink:href="#CMR17-48"/>
       <use transform="translate(182.761908 0)scale(0.996264)" xlink:href="#CMR17-48"/>
      </g>
     </g>
    </g>
    <g id="text_9">
     <!-- N synapses -->
     <defs>
      <path d="M 20.5 66.40625 
C 19.796875 67.5 19.703125 67.5 17.796875 67.5 
L 5.09375 67.5 
L 5.09375 65 
L 7 65 
C 11 65 12.796875 64.515625 13.09375 64.40625 
L 13.09375 9.53125 
C 13.09375 7.046875 13.09375 2.390625 5.09375 2.390625 
L 5.09375 -0.203125 
C 7.40625 0 11.59375 0 14.09375 0 
C 16.59375 0 20.796875 0 23.09375 -0.203125 
L 23.09375 2.390625 
C 15.09375 2.390625 15.09375 7.046875 15.09375 9.53125 
L 15.09375 63.015625 
C 15.796875 62.421875 15.796875 62.21875 16.5 61.234375 
L 53.59375 1.1875 
C 54.296875 0 54.59375 0 55.09375 0 
C 56.09375 0 56.09375 0.296875 56.09375 2.171875 
L 56.09375 57.890625 
C 56.09375 60.359375 56.09375 65 64.09375 65 
L 64.09375 67.59375 
C 61.796875 67.5 57.59375 67.5 55.09375 67.5 
C 52.59375 67.5 48.40625 67.5 46.09375 67.59375 
L 46.09375 65 
C 54.09375 65 54.09375 60.34375 54.09375 57.859375 
L 54.09375 11.921875 
z
" id="CMR17-78"/>
      <path d="M 30.90625 42.140625 
C 30.90625 43.953125 30.796875 44.046875 30.203125 44.046875 
C 29.796875 44.046875 29.703125 43.953125 28.5 42.453125 
C 28.203125 42.046875 27.296875 41.03125 27 40.640625 
C 23.796875 44.046875 19.296875 44.046875 17.59375 44.046875 
C 6.5 44.046875 2.5 38.234375 2.5 32.4375 
C 2.5 23.40625 12.703125 21.328125 15.59375 20.703125 
C 21.90625 19.421875 24.09375 19.015625 26.203125 17.203125 
C 27.5 16.015625 29.703125 13.8125 29.703125 10.21875 
C 29.703125 6 27.296875 0.59375 18.09375 0.59375 
C 9.40625 0.59375 6.296875 7.1875 4.5 15.953125 
C 4.203125 17.34375 4.203125 17.453125 3.40625 17.453125 
C 2.59375 17.453125 2.5 17.34375 2.5 15.359375 
L 2.5 0.984375 
C 2.5 -0.796875 2.59375 -0.90625 3.203125 -0.90625 
C 3.703125 -0.90625 3.796875 -0.796875 4.296875 0 
C 4.90625 0.890625 6.40625 3.296875 7 4.3125 
C 9 1.609375 12.5 -1 18.09375 -1 
C 28 -1 33.296875 4.421875 33.296875 12.25 
C 33.296875 17.375 30.59375 20.078125 29.296875 21.28125 
C 26.296875 24.390625 22.796875 25.09375 18.59375 25.890625 
C 13.09375 27.109375 6.09375 28.515625 6.09375 34.640625 
C 6.09375 37.234375 7.5 42.765625 17.59375 42.765625 
C 28.296875 42.765625 28.90625 32.71875 29.09375 29.5 
C 29.203125 29 29.703125 28.890625 30 28.890625 
C 30.90625 28.890625 30.90625 29.203125 30.90625 30.90625 
z
" id="CMR17-115"/>
     </defs>
     <g style="fill:#262626;" transform="translate(-16.299871 98.215406)rotate(-90)scale(0.11 -0.11)">
      <use transform="scale(0.996264)" xlink:href="#CMR17-78"/>
      <use transform="translate(99.148396 0)scale(0.996264)" xlink:href="#CMR17-115"/>
      <use transform="translate(134.949734 0)scale(0.996264)" xlink:href="#CMR17-121"/>
      <use transform="translate(183.24265 0)scale(0.996264)" xlink:href="#CMR17-110"/>
      <use transform="translate(234.138019 0)scale(0.996264)" xlink:href="#CMR17-97"/>
      <use transform="translate(279.828497 0)scale(0.996264)" xlink:href="#CMR17-112"/>
      <use transform="translate(330.723866 0)scale(0.996264)" xlink:href="#CMR17-115"/>
      <use transform="translate(366.525204 0)scale(0.996264)" xlink:href="#CMR17-101"/>
      <use transform="translate(407.010864 0)scale(0.996264)" xlink:href="#CMR17-115"/>
     </g>
    </g>
   </g>
   <g id="patch_3">
    <path clip-path="url(#p757f6038ff)" d="M 21.7377 126 
L 23.085437 126 
L 23.085437 124.219322 
L 21.7377 124.219322 
z
" style="fill:#4c72b0;"/>
   </g>
   <g id="patch_4">
    <path clip-path="url(#p757f6038ff)" d="M 23.085437 126 
L 24.433175 126 
L 24.433175 124.202428 
L 23.085437 124.202428 
z
" style="fill:#4c72b0;"/>
   </g>
   <g id="patch_5">
    <path clip-path="url(#p757f6038ff)" d="M 24.433175 126 
L 25.780912 126 
L 25.780912 124.168639 
L 24.433175 124.168639 
z
" style="fill:#4c72b0;"/>
   </g>
   <g id="patch_6">
    <path clip-path="url(#p757f6038ff)" d="M 25.780912 126 
L 27.12865 126 
L 27.12865 124.242975 
L 25.780912 124.242975 
z
" style="fill:#4c72b0;"/>
   </g>
   <g id="patch_7">
    <path clip-path="url(#p757f6038ff)" d="M 27.12865 126 
L 28.476387 126 
L 28.476387 124.111198 
L 27.12865 124.111198 
z
" style="fill:#4c72b0;"/>
   </g>
   <g id="patch_8">
    <path clip-path="url(#p757f6038ff)" d="M 28.476387 126 
L 29.824124 126 
L 29.824124 123.901706 
L 28.476387 123.901706 
z
" style="fill:#4c72b0;"/>
   </g>
   <g id="patch_9">
    <path clip-path="url(#p757f6038ff)" d="M 29.824124 126 
L 31.171862 126 
L 31.171862 124.01321 
L 29.824124 124.01321 
z
" style="fill:#4c72b0;"/>
   </g>
   <g id="patch_10">
    <path clip-path="url(#p757f6038ff)" d="M 31.171862 126 
L 32.519599 126 
L 32.519599 123.857781 
L 31.171862 123.857781 
z
" style="fill:#4c72b0;"/>
   </g>
   <g id="patch_11">
    <path clip-path="url(#p757f6038ff)" d="M 32.519599 126 
L 33.867337 126 
L 33.867337 123.878054 
L 32.519599 123.878054 
z
" style="fill:#4c72b0;"/>
   </g>
   <g id="patch_12">
    <path clip-path="url(#p757f6038ff)" d="M 33.867337 126 
L 35.215074 126 
L 35.215074 123.790203 
L 33.867337 123.790203 
z
" style="fill:#4c72b0;"/>
   </g>
   <g id="patch_13">
    <path clip-path="url(#p757f6038ff)" d="M 35.215074 126 
L 36.562811 126 
L 36.562811 123.665184 
L 35.215074 123.665184 
z
" style="fill:#4c72b0;"/>
   </g>
   <g id="patch_14">
    <path clip-path="url(#p757f6038ff)" d="M 36.562811 126 
L 37.910549 126 
L 37.910549 123.719246 
L 36.562811 123.719246 
z
" style="fill:#4c72b0;"/>
   </g>
   <g id="patch_15">
    <path clip-path="url(#p757f6038ff)" d="M 37.910549 126 
L 39.258286 126 
L 39.258286 123.442177 
L 37.910549 123.442177 
z
" style="fill:#4c72b0;"/>
   </g>
   <g id="patch_16">
    <path clip-path="url(#p757f6038ff)" d="M 39.258286 126 
L 40.606024 126 
L 40.606024 123.58409 
L 39.258286 123.58409 
z
" style="fill:#4c72b0;"/>
   </g>
   <g id="patch_17">
    <path clip-path="url(#p757f6038ff)" d="M 40.606024 126 
L 41.953761 126 
L 41.953761 123.313779 
L 40.606024 123.313779 
z
" style="fill:#4c72b0;"/>
   </g>
   <g id="patch_18">
    <path clip-path="url(#p757f6038ff)" d="M 41.953761 126 
L 43.301498 126 
L 43.301498 123.361083 
L 41.953761 123.361083 
z
" style="fill:#4c72b0;"/>
   </g>
   <g id="patch_19">
    <path clip-path="url(#p757f6038ff)" d="M 43.301498 126 
L 44.649236 126 
L 44.649236 123.212412 
L 43.301498 123.212412 
z
" style="fill:#4c72b0;"/>
   </g>
   <g id="patch_20">
    <path clip-path="url(#p757f6038ff)" d="M 44.649236 126 
L 45.996973 126 
L 45.996973 123.236064 
L 44.649236 123.236064 
z
" style="fill:#4c72b0;"/>
   </g>
   <g id="patch_21">
    <path clip-path="url(#p757f6038ff)" d="M 45.996973 126 
L 47.344711 126 
L 47.344711 123.242822 
L 45.996973 123.242822 
z
" style="fill:#4c72b0;"/>
   </g>
   <g id="patch_22">
    <path clip-path="url(#p757f6038ff)" d="M 47.344711 126 
L 48.692448 126 
L 48.692448 123.144834 
L 47.344711 123.144834 
z
" style="fill:#4c72b0;"/>
   </g>
   <g id="patch_23">
    <path clip-path="url(#p757f6038ff)" d="M 48.692448 126 
L 50.040185 126 
L 50.040185 123.090771 
L 48.692448 123.090771 
z
" style="fill:#4c72b0;"/>
   </g>
   <g id="patch_24">
    <path clip-path="url(#p757f6038ff)" d="M 50.040185 126 
L 51.387923 126 
L 51.387923 122.88128 
L 50.040185 122.88128 
z
" style="fill:#4c72b0;"/>
   </g>
   <g id="patch_25">
    <path clip-path="url(#p757f6038ff)" d="M 51.387923 126 
L 52.73566 126 
L 52.73566 122.91169 
L 51.387923 122.91169 
z
" style="fill:#4c72b0;"/>
   </g>
   <g id="patch_26">
    <path clip-path="url(#p757f6038ff)" d="M 52.73566 126 
L 54.083398 126 
L 54.083398 122.91169 
L 52.73566 122.91169 
z
" style="fill:#4c72b0;"/>
   </g>
   <g id="patch_27">
    <path clip-path="url(#p757f6038ff)" d="M 54.083398 126 
L 55.431135 126 
L 55.431135 122.847491 
L 54.083398 122.847491 
z
" style="fill:#4c72b0;"/>
   </g>
   <g id="patch_28">
    <path clip-path="url(#p757f6038ff)" d="M 55.431135 126 
L 56.778872 126 
L 56.778872 123.043467 
L 55.431135 123.043467 
z
" style="fill:#4c72b0;"/>
   </g>
   <g id="patch_29">
    <path clip-path="url(#p757f6038ff)" d="M 56.778872 126 
L 58.12661 126 
L 58.12661 122.756261 
L 56.778872 122.756261 
z
" style="fill:#4c72b0;"/>
   </g>
   <g id="patch_30">
    <path clip-path="url(#p757f6038ff)" d="M 58.12661 126 
L 59.474347 126 
L 59.474347 122.9421 
L 58.12661 122.9421 
z
" style="fill:#4c72b0;"/>
   </g>
   <g id="patch_31">
    <path clip-path="url(#p757f6038ff)" d="M 59.474347 126 
L 60.822085 126 
L 60.822085 123.029951 
L 59.474347 123.029951 
z
" style="fill:#4c72b0;"/>
   </g>
   <g id="patch_32">
    <path clip-path="url(#p757f6038ff)" d="M 60.822085 126 
L 62.169822 126 
L 62.169822 122.864385 
L 60.822085 122.864385 
z
" style="fill:#4c72b0;"/>
   </g>
   <g id="patch_33">
    <path clip-path="url(#p757f6038ff)" d="M 62.169822 126 
L 63.517559 126 
L 63.517559 123.046846 
L 62.169822 123.046846 
z
" style="fill:#4c72b0;"/>
   </g>
   <g id="patch_34">
    <path clip-path="url(#p757f6038ff)" d="M 63.517559 126 
L 64.865297 126 
L 64.865297 123.040088 
L 63.517559 123.040088 
z
" style="fill:#4c72b0;"/>
   </g>
   <g id="patch_35">
    <path clip-path="url(#p757f6038ff)" d="M 64.865297 126 
L 66.213034 126 
L 66.213034 123.27999 
L 64.865297 123.27999 
z
" style="fill:#4c72b0;"/>
   </g>
   <g id="patch_36">
    <path clip-path="url(#p757f6038ff)" d="M 66.213034 126 
L 67.560772 126 
L 67.560772 123.246201 
L 66.213034 123.246201 
z
" style="fill:#4c72b0;"/>
   </g>
   <g id="patch_37">
    <path clip-path="url(#p757f6038ff)" d="M 67.560772 126 
L 68.908509 126 
L 68.908509 123.37122 
L 67.560772 123.37122 
z
" style="fill:#4c72b0;"/>
   </g>
   <g id="patch_38">
    <path clip-path="url(#p757f6038ff)" d="M 68.908509 126 
L 70.256246 126 
L 70.256246 123.482723 
L 68.908509 123.482723 
z
" style="fill:#4c72b0;"/>
   </g>
   <g id="patch_39">
    <path clip-path="url(#p757f6038ff)" d="M 70.256246 126 
L 71.603984 126 
L 71.603984 123.759793 
L 70.256246 123.759793 
z
" style="fill:#4c72b0;"/>
   </g>
   <g id="patch_40">
    <path clip-path="url(#p757f6038ff)" d="M 71.603984 126 
L 72.951721 126 
L 72.951721 123.800339 
L 71.603984 123.800339 
z
" style="fill:#4c72b0;"/>
   </g>
   <g id="patch_41">
    <path clip-path="url(#p757f6038ff)" d="M 72.951721 126 
L 74.299459 126 
L 74.299459 124.01321 
L 72.951721 124.01321 
z
" style="fill:#4c72b0;"/>
   </g>
   <g id="patch_42">
    <path clip-path="url(#p757f6038ff)" d="M 74.299459 126 
L 75.647196 126 
L 75.647196 124.334205 
L 74.299459 124.334205 
z
" style="fill:#4c72b0;"/>
   </g>
   <g id="patch_43">
    <path clip-path="url(#p757f6038ff)" d="M 75.647196 126 
L 76.994933 126 
L 76.994933 124.6552 
L 75.647196 124.6552 
z
" style="fill:#4c72b0;"/>
   </g>
   <g id="patch_44">
    <path clip-path="url(#p757f6038ff)" d="M 76.994933 126 
L 78.342671 126 
L 78.342671 124.935648 
L 76.994933 124.935648 
z
" style="fill:#4c72b0;"/>
   </g>
   <g id="patch_45">
    <path clip-path="url(#p757f6038ff)" d="M 78.342671 126 
L 79.690408 126 
L 79.690408 125.212717 
L 78.342671 125.212717 
z
" style="fill:#4c72b0;"/>
   </g>
   <g id="patch_46">
    <path clip-path="url(#p757f6038ff)" d="M 79.690408 126 
L 81.038146 126 
L 81.038146 125.334358 
L 79.690408 125.334358 
z
" style="fill:#4c72b0;"/>
   </g>
   <g id="patch_47">
    <path clip-path="url(#p757f6038ff)" d="M 81.038146 126 
L 82.385883 126 
L 82.385883 125.638458 
L 81.038146 125.638458 
z
" style="fill:#4c72b0;"/>
   </g>
   <g id="patch_48">
    <path clip-path="url(#p757f6038ff)" d="M 82.385883 126 
L 83.73362 126 
L 83.73362 125.753341 
L 82.385883 125.753341 
z
" style="fill:#4c72b0;"/>
   </g>
   <g id="patch_49">
    <path clip-path="url(#p757f6038ff)" d="M 83.73362 126 
L 85.081358 126 
L 85.081358 125.93918 
L 83.73362 125.93918 
z
" style="fill:#4c72b0;"/>
   </g>
   <g id="patch_50">
    <path clip-path="url(#p757f6038ff)" d="M 85.081358 126 
L 86.429095 126 
L 86.429095 125.989863 
L 85.081358 125.989863 
z
" style="fill:#4c72b0;"/>
   </g>
   <g id="patch_51">
    <path clip-path="url(#p757f6038ff)" d="M 86.429095 126 
L 87.776833 126 
L 87.776833 125.989863 
L 86.429095 125.989863 
z
" style="fill:#4c72b0;"/>
   </g>
   <g id="patch_52">
    <path clip-path="url(#p757f6038ff)" d="M 87.776833 126 
L 89.12457 126 
L 89.12457 126 
L 87.776833 126 
z
" style="fill:#4c72b0;"/>
   </g>
   <g id="patch_53">
    <path clip-path="url(#p757f6038ff)" d="M 89.12457 126 
L 90.472307 126 
L 90.472307 126 
L 89.12457 126 
z
" style="fill:#4c72b0;"/>
   </g>
   <g id="patch_54">
    <path clip-path="url(#p757f6038ff)" d="M 90.472307 126 
L 91.820045 126 
L 91.820045 22.457143 
L 90.472307 22.457143 
z
" style="fill:#4c72b0;"/>
   </g>
   <g id="patch_55">
    <path clip-path="url(#p757f6038ff)" d="M 91.820045 126 
L 93.167782 126 
L 93.167782 49.944453 
L 91.820045 49.944453 
z
" style="fill:#4c72b0;"/>
   </g>
   <g id="patch_56">
    <path clip-path="url(#p757f6038ff)" d="M 93.167782 126 
L 94.51552 126 
L 94.51552 79.334082 
L 93.167782 79.334082 
z
" style="fill:#4c72b0;"/>
   </g>
   <g id="patch_57">
    <path clip-path="url(#p757f6038ff)" d="M 94.51552 126 
L 95.863257 126 
L 95.863257 93.785615 
L 94.51552 93.785615 
z
" style="fill:#4c72b0;"/>
   </g>
   <g id="patch_58">
    <path clip-path="url(#p757f6038ff)" d="M 95.863257 126 
L 97.210994 126 
L 97.210994 101.69223 
L 95.863257 101.69223 
z
" style="fill:#4c72b0;"/>
   </g>
   <g id="patch_59">
    <path clip-path="url(#p757f6038ff)" d="M 97.210994 126 
L 98.558732 126 
L 98.558732 107.432972 
L 97.210994 107.432972 
z
" style="fill:#4c72b0;"/>
   </g>
   <g id="patch_60">
    <path clip-path="url(#p757f6038ff)" d="M 98.558732 126 
L 99.906469 126 
L 99.906469 111.254502 
L 98.558732 111.254502 
z
" style="fill:#4c72b0;"/>
   </g>
   <g id="patch_61">
    <path clip-path="url(#p757f6038ff)" d="M 99.906469 126 
L 101.254207 126 
L 101.254207 113.788674 
L 99.906469 113.788674 
z
" style="fill:#4c72b0;"/>
   </g>
   <g id="patch_62">
    <path clip-path="url(#p757f6038ff)" d="M 101.254207 126 
L 102.601944 126 
L 102.601944 115.843042 
L 101.254207 115.843042 
z
" style="fill:#4c72b0;"/>
   </g>
   <g id="patch_63">
    <path clip-path="url(#p757f6038ff)" d="M 102.601944 126 
L 103.949681 126 
L 103.949681 117.779149 
L 102.601944 117.779149 
z
" style="fill:#4c72b0;"/>
   </g>
   <g id="patch_64">
    <path clip-path="url(#p757f6038ff)" d="M 103.949681 126 
L 105.297419 126 
L 105.297419 119.046234 
L 103.949681 119.046234 
z
" style="fill:#4c72b0;"/>
   </g>
   <g id="patch_65">
    <path clip-path="url(#p757f6038ff)" d="M 105.297419 126 
L 106.645156 126 
L 106.645156 119.772697 
L 105.297419 119.772697 
z
" style="fill:#4c72b0;"/>
   </g>
   <g id="patch_66">
    <path clip-path="url(#p757f6038ff)" d="M 106.645156 126 
L 107.992894 126 
L 107.992894 120.641073 
L 106.645156 120.641073 
z
" style="fill:#4c72b0;"/>
   </g>
   <g id="patch_67">
    <path clip-path="url(#p757f6038ff)" d="M 107.992894 126 
L 109.340631 126 
L 109.340631 121.205348 
L 107.992894 121.205348 
z
" style="fill:#4c72b0;"/>
   </g>
   <g id="patch_68">
    <path clip-path="url(#p757f6038ff)" d="M 109.340631 126 
L 110.688368 126 
L 110.688368 121.860854 
L 109.340631 121.860854 
z
" style="fill:#4c72b0;"/>
   </g>
   <g id="patch_69">
    <path clip-path="url(#p757f6038ff)" d="M 110.688368 126 
L 112.036106 126 
L 112.036106 121.874369 
L 110.688368 121.874369 
z
" style="fill:#4c72b0;"/>
   </g>
   <g id="patch_70">
    <path clip-path="url(#p757f6038ff)" d="M 112.036106 126 
L 113.383843 126 
L 113.383843 122.458918 
L 112.036106 122.458918 
z
" style="fill:#4c72b0;"/>
   </g>
   <g id="patch_71">
    <path clip-path="url(#p757f6038ff)" d="M 113.383843 126 
L 114.731581 126 
L 114.731581 122.958995 
L 113.383843 122.958995 
z
" style="fill:#4c72b0;"/>
   </g>
   <g id="patch_72">
    <path clip-path="url(#p757f6038ff)" d="M 114.731581 126 
L 116.079318 126 
L 116.079318 123.104287 
L 114.731581 123.104287 
z
" style="fill:#4c72b0;"/>
   </g>
   <g id="patch_73">
    <path clip-path="url(#p757f6038ff)" d="M 116.079318 126 
L 117.427055 126 
L 117.427055 123.317157 
L 116.079318 123.317157 
z
" style="fill:#4c72b0;"/>
   </g>
   <g id="patch_74">
    <path clip-path="url(#p757f6038ff)" d="M 117.427055 126 
L 118.774793 126 
L 118.774793 123.671941 
L 117.427055 123.671941 
z
" style="fill:#4c72b0;"/>
   </g>
   <g id="patch_75">
    <path clip-path="url(#p757f6038ff)" d="M 118.774793 126 
L 120.12253 126 
L 120.12253 123.732761 
L 118.774793 123.732761 
z
" style="fill:#4c72b0;"/>
   </g>
   <g id="patch_76">
    <path clip-path="url(#p757f6038ff)" d="M 120.12253 126 
L 121.470268 126 
L 121.470268 123.95239 
L 120.12253 123.95239 
z
" style="fill:#4c72b0;"/>
   </g>
   <g id="patch_77">
    <path clip-path="url(#p757f6038ff)" d="M 121.470268 126 
L 122.818005 126 
L 122.818005 124.182155 
L 121.470268 124.182155 
z
" style="fill:#4c72b0;"/>
   </g>
   <g id="patch_78">
    <path clip-path="url(#p757f6038ff)" d="M 122.818005 126 
L 124.165742 126 
L 124.165742 124.178776 
L 122.818005 124.178776 
z
" style="fill:#4c72b0;"/>
   </g>
   <g id="patch_79">
    <path clip-path="url(#p757f6038ff)" d="M 124.165742 126 
L 125.51348 126 
L 125.51348 124.259869 
L 124.165742 124.259869 
z
" style="fill:#4c72b0;"/>
   </g>
   <g id="patch_80">
    <path clip-path="url(#p757f6038ff)" d="M 125.51348 126 
L 126.861217 126 
L 126.861217 124.523423 
L 125.51348 124.523423 
z
" style="fill:#4c72b0;"/>
   </g>
   <g id="patch_81">
    <path clip-path="url(#p757f6038ff)" d="M 126.861217 126 
L 128.208955 126 
L 128.208955 124.614653 
L 126.861217 124.614653 
z
" style="fill:#4c72b0;"/>
   </g>
   <g id="patch_82">
    <path clip-path="url(#p757f6038ff)" d="M 128.208955 126 
L 129.556692 126 
L 129.556692 124.668715 
L 128.208955 124.668715 
z
" style="fill:#4c72b0;"/>
   </g>
   <g id="patch_83">
    <path clip-path="url(#p757f6038ff)" d="M 129.556692 126 
L 130.904429 126 
L 130.904429 124.621411 
L 129.556692 124.621411 
z
" style="fill:#4c72b0;"/>
   </g>
   <g id="patch_84">
    <path clip-path="url(#p757f6038ff)" d="M 130.904429 126 
L 132.252167 126 
L 132.252167 124.861312 
L 130.904429 124.861312 
z
" style="fill:#4c72b0;"/>
   </g>
   <g id="patch_85">
    <path clip-path="url(#p757f6038ff)" d="M 132.252167 126 
L 133.599904 126 
L 133.599904 124.925511 
L 132.252167 124.925511 
z
" style="fill:#4c72b0;"/>
   </g>
   <g id="patch_86">
    <path clip-path="url(#p757f6038ff)" d="M 133.599904 126 
L 134.947642 126 
L 134.947642 124.925511 
L 133.599904 124.925511 
z
" style="fill:#4c72b0;"/>
   </g>
   <g id="patch_87">
    <path clip-path="url(#p757f6038ff)" d="M 134.947642 126 
L 136.295379 126 
L 136.295379 125.02012 
L 134.947642 125.02012 
z
" style="fill:#4c72b0;"/>
   </g>
   <g id="patch_88">
    <path clip-path="url(#p757f6038ff)" d="M 136.295379 126 
L 137.643116 126 
L 137.643116 125.202581 
L 136.295379 125.202581 
z
" style="fill:#4c72b0;"/>
   </g>
   <g id="patch_89">
    <path clip-path="url(#p757f6038ff)" d="M 137.643116 126 
L 138.990854 126 
L 138.990854 125.101214 
L 137.643116 125.101214 
z
" style="fill:#4c72b0;"/>
   </g>
   <g id="patch_90">
    <path clip-path="url(#p757f6038ff)" d="M 138.990854 126 
L 140.338591 126 
L 140.338591 125.060667 
L 138.990854 125.060667 
z
" style="fill:#4c72b0;"/>
   </g>
   <g id="patch_91">
    <path clip-path="url(#p757f6038ff)" d="M 140.338591 126 
L 141.686329 126 
L 141.686329 125.165413 
L 140.338591 125.165413 
z
" style="fill:#4c72b0;"/>
   </g>
   <g id="patch_92">
    <path clip-path="url(#p757f6038ff)" d="M 141.686329 126 
L 143.034066 126 
L 143.034066 125.219475 
L 141.686329 125.219475 
z
" style="fill:#4c72b0;"/>
   </g>
   <g id="patch_93">
    <path clip-path="url(#p757f6038ff)" d="M 143.034066 126 
L 144.381803 126 
L 144.381803 125.314084 
L 143.034066 125.314084 
z
" style="fill:#4c72b0;"/>
   </g>
   <g id="patch_94">
    <path clip-path="url(#p757f6038ff)" d="M 144.381803 126 
L 145.729541 126 
L 145.729541 125.347873 
L 144.381803 125.347873 
z
" style="fill:#4c72b0;"/>
   </g>
   <g id="patch_95">
    <path clip-path="url(#p757f6038ff)" d="M 145.729541 126 
L 147.077278 126 
L 147.077278 125.276916 
L 145.729541 125.276916 
z
" style="fill:#4c72b0;"/>
   </g>
   <g id="patch_96">
    <path clip-path="url(#p757f6038ff)" d="M 147.077278 126 
L 148.425016 126 
L 148.425016 125.398557 
L 147.077278 125.398557 
z
" style="fill:#4c72b0;"/>
   </g>
   <g id="patch_97">
    <path clip-path="url(#p757f6038ff)" d="M 148.425016 126 
L 149.772753 126 
L 149.772753 125.41883 
L 148.425016 125.41883 
z
" style="fill:#4c72b0;"/>
   </g>
   <g id="patch_98">
    <path clip-path="url(#p757f6038ff)" d="M 149.772753 126 
L 151.12049 126 
L 151.12049 125.462756 
L 149.772753 125.462756 
z
" style="fill:#4c72b0;"/>
   </g>
   <g id="patch_99">
    <path clip-path="url(#p757f6038ff)" d="M 151.12049 126 
L 152.468228 126 
L 152.468228 125.452619 
L 151.12049 125.452619 
z
" style="fill:#4c72b0;"/>
   </g>
   <g id="patch_100">
    <path clip-path="url(#p757f6038ff)" d="M 152.468228 126 
L 153.815965 126 
L 153.815965 125.550607 
L 152.468228 125.550607 
z
" style="fill:#4c72b0;"/>
   </g>
   <g id="patch_101">
    <path clip-path="url(#p757f6038ff)" d="M 153.815965 126 
L 155.163703 126 
L 155.163703 125.493166 
L 153.815965 125.493166 
z
" style="fill:#4c72b0;"/>
   </g>
   <g id="patch_102">
    <path clip-path="url(#p757f6038ff)" d="M 155.163703 126 
L 156.51144 126 
L 156.51144 125.483029 
L 155.163703 125.483029 
z
" style="fill:#4c72b0;"/>
   </g>
   <g id="patch_103">
    <path d="M 21.7377 126 
L 21.7377 17.28 
" style="fill:none;stroke:#262626;stroke-linecap:square;stroke-linejoin:miter;stroke-width:1.25;"/>
   </g>
   <g id="patch_104">
    <path d="M 21.7377 126 
L 156.51144 126 
" style="fill:none;stroke:#262626;stroke-linecap:square;stroke-linejoin:miter;stroke-width:1.25;"/>
   </g>
  </g>
 </g>
 <defs>
  <clipPath id="p757f6038ff">
   <rect height="108.72" width="134.77374" x="21.7377" y="17.28"/>
  </clipPath>
 </defs>
</svg>
