<?xml version="1.0" encoding="utf-8" standalone="no"?>
<!DOCTYPE svg PUBLIC "-//W3C//DTD SVG 1.1//EN"
  "http://www.w3.org/Graphics/SVG/1.1/DTD/svg11.dtd">
<!-- Created with matplotlib (http://matplotlib.org/) -->
<svg height="182pt" version="1.1" viewBox="0 0 289 182" width="289pt" xmlns="http://www.w3.org/2000/svg" xmlns:xlink="http://www.w3.org/1999/xlink">
 <defs>
  <style type="text/css">
*{stroke-linecap:butt;stroke-linejoin:round;}
  </style>
 </defs>
 <g id="figure_1">
  <g id="patch_1">
   <path d="M 0 182.868192 
L 289.262457 182.868192 
L 289.262457 0 
L 0 0 
z
" style="fill:#ffffff;"/>
  </g>
  <g id="axes_1">
   <g id="patch_2">
    <path d="M 21.7377 164.868192 
L 195.6393 164.868192 
L 195.6393 20.868192 
L 21.7377 20.868192 
z
" style="fill:#ffffff;"/>
   </g>
   <g id="matplotlib.axis_1">
    <g id="xtick_1">
     <g id="line2d_1"/>
     <g id="text_1">
      <!-- $0$ -->
      <defs>
       <path d="M 42 31.640625 
C 42 37.75 41.90625 48.125 37.703125 56.109375 
C 34 63.109375 28.09375 65.59375 22.90625 65.59375 
C 18.09375 65.59375 12 63.40625 8.203125 56.203125 
C 4.203125 48.71875 3.796875 39.4375 3.796875 31.640625 
C 3.796875 25.953125 3.90625 17.28125 7 9.671875 
C 11.296875 -0.609375 19 -2 22.90625 -2 
C 27.5 -2 34.5 -0.109375 38.59375 9.375 
C 41.59375 16.28125 42 24.359375 42 31.640625 
z
M 22.90625 -0.40625 
C 16.5 -0.40625 12.703125 5.078125 11.296875 12.6875 
C 10.203125 18.5625 10.203125 27.15625 10.203125 32.75 
C 10.203125 40.4375 10.203125 46.828125 11.5 52.921875 
C 13.40625 61.390625 19 64 22.90625 64 
C 27 64 32.296875 61.296875 34.203125 53.125 
C 35.5 47.4375 35.59375 40.734375 35.59375 32.75 
C 35.59375 26.25 35.59375 18.265625 34.40625 12.375 
C 32.296875 1.484375 26.40625 -0.40625 22.90625 -0.40625 
z
" id="CMR17-48"/>
      </defs>
      <g style="fill:#262626;" transform="translate(26.622914 178.78669)scale(0.1 -0.1)">
       <use transform="scale(0.996264)" xlink:href="#CMR17-48"/>
      </g>
     </g>
    </g>
    <g id="xtick_2">
     <g id="line2d_2"/>
     <g id="text_2">
      <!-- $10000$ -->
      <defs>
       <path d="M 26.59375 63.40625 
C 26.59375 65.5 26.5 65.5 25.09375 65.5 
C 21.203125 61.1875 15.296875 59.796875 9.703125 59.796875 
C 9.40625 59.796875 8.90625 59.796875 8.796875 59.5 
C 8.703125 59.296875 8.703125 59.09375 8.703125 57 
C 11.796875 57 17 57.59375 21 59.984375 
L 21 7.203125 
C 21 3.6875 20.796875 2.5 12.203125 2.5 
L 9.203125 2.5 
L 9.203125 0 
C 14 0 19 0 23.796875 0 
C 28.59375 0 33.59375 0 38.40625 0 
L 38.40625 2.5 
L 35.40625 2.5 
C 26.796875 2.5 26.59375 3.59375 26.59375 7.15625 
z
" id="CMR17-49"/>
      </defs>
      <g style="fill:#262626;" transform="translate(69.533943 178.78669)scale(0.1 -0.1)">
       <use transform="scale(0.996264)" xlink:href="#CMR17-49"/>
       <use transform="translate(45.690477 0)scale(0.996264)" xlink:href="#CMR17-48"/>
       <use transform="translate(91.380954 0)scale(0.996264)" xlink:href="#CMR17-48"/>
       <use transform="translate(137.071431 0)scale(0.996264)" xlink:href="#CMR17-48"/>
       <use transform="translate(182.761908 0)scale(0.996264)" xlink:href="#CMR17-48"/>
      </g>
     </g>
    </g>
    <g id="xtick_3">
     <g id="line2d_3"/>
     <g id="text_3">
      <!-- $20000$ -->
      <defs>
       <path d="M 41.703125 15.453125 
L 39.90625 15.453125 
C 38.90625 8.375 38.09375 7.171875 37.703125 6.5625 
C 37.203125 5.765625 30 5.765625 28.59375 5.765625 
L 9.40625 5.765625 
C 13 9.671875 20 16.75 28.5 24.953125 
C 34.59375 30.734375 41.703125 37.53125 41.703125 47.421875 
C 41.703125 59.21875 32.296875 66 21.796875 66 
C 10.796875 66 4.09375 56.3125 4.09375 47.34375 
C 4.09375 43.4375 7 42.9375 8.203125 42.9375 
C 9.203125 42.9375 12.203125 43.546875 12.203125 47.03125 
C 12.203125 50.109375 9.59375 51 8.203125 51 
C 7.59375 51 7 50.90625 6.59375 50.703125 
C 8.5 59.21875 14.296875 63.40625 20.40625 63.40625 
C 29.09375 63.40625 34.796875 56.515625 34.796875 47.421875 
C 34.796875 38.734375 29.703125 31.25 24 24.75 
L 4.09375 2.28125 
L 4.09375 0 
L 39.296875 0 
z
" id="CMR17-50"/>
      </defs>
      <g style="fill:#262626;" transform="translate(122.407643 178.78669)scale(0.1 -0.1)">
       <use transform="scale(0.996264)" xlink:href="#CMR17-50"/>
       <use transform="translate(45.690477 0)scale(0.996264)" xlink:href="#CMR17-48"/>
       <use transform="translate(91.380954 0)scale(0.996264)" xlink:href="#CMR17-48"/>
       <use transform="translate(137.071431 0)scale(0.996264)" xlink:href="#CMR17-48"/>
       <use transform="translate(182.761908 0)scale(0.996264)" xlink:href="#CMR17-48"/>
      </g>
     </g>
    </g>
    <g id="xtick_4">
     <g id="line2d_4"/>
     <g id="text_4">
      <!-- $30000$ -->
      <defs>
       <path d="M 22.09375 33.703125 
C 31 33.703125 34.90625 25.96875 34.90625 17.03125 
C 34.90625 5 28.5 0.390625 22.703125 0.390625 
C 17.40625 0.390625 8.796875 3.03125 6.09375 10.828125 
C 6.59375 10.625 7.09375 10.625 7.59375 10.625 
C 10 10.625 11.796875 12.21875 11.796875 14.8125 
C 11.796875 17.703125 9.59375 19 7.59375 19 
C 5.90625 19 3.296875 18.203125 3.296875 14.46875 
C 3.296875 5.234375 12.296875 -2 22.90625 -2 
C 34 -2 42.5 6.71875 42.5 16.953125 
C 42.5 26.671875 34.5 33.703125 25 34.796875 
C 32.59375 36.375 39.90625 43.0625 39.90625 52.015625 
C 39.90625 59.6875 32 65.296875 23 65.296875 
C 13.90625 65.296875 5.90625 59.828125 5.90625 52.015625 
C 5.90625 48.59375 8.5 48 9.796875 48 
C 11.90625 48 13.703125 49.296875 13.703125 51.890625 
C 13.703125 54.46875 11.90625 55.765625 9.796875 55.765625 
C 9.40625 55.765625 8.90625 55.765625 8.5 55.578125 
C 11.40625 61.859375 19.296875 63 22.796875 63 
C 26.296875 63 32.90625 61.328125 32.90625 51.875 
C 32.90625 49.109375 32.5 44.1875 29.09375 39.84375 
C 26.09375 36 22.703125 36 19.40625 35.6875 
C 18.90625 35.6875 16.59375 35.453125 16.203125 35.453125 
C 15.5 35.359375 15.09375 35.265625 15.09375 34.5 
C 15.09375 33.796875 15.203125 33.703125 17.203125 33.703125 
z
" id="CMR17-51"/>
      </defs>
      <g style="fill:#262626;" transform="translate(175.281344 178.78669)scale(0.1 -0.1)">
       <use transform="scale(0.996264)" xlink:href="#CMR17-51"/>
       <use transform="translate(45.690477 0)scale(0.996264)" xlink:href="#CMR17-48"/>
       <use transform="translate(91.380954 0)scale(0.996264)" xlink:href="#CMR17-48"/>
       <use transform="translate(137.071431 0)scale(0.996264)" xlink:href="#CMR17-48"/>
       <use transform="translate(182.761908 0)scale(0.996264)" xlink:href="#CMR17-48"/>
      </g>
     </g>
    </g>
    <g id="text_5">
     <!-- $N_{trials}$ -->
     <defs>
      <path d="M 74 57.78125 
C 75.09375 62.09375 76.703125 65.09375 84.296875 65.09375 
C 84.59375 65.09375 85.796875 65.09375 85.796875 66.859375 
C 85.796875 68 84.90625 68 84.5 68 
C 82.5 68 77.40625 68 75.40625 68 
L 70.59375 68 
C 69.203125 68 67.40625 68 66 68 
C 65.40625 68 64.203125 68 64.203125 66.09375 
C 64.203125 65.09375 65 65.09375 65.703125 65.09375 
C 71.703125 65.09375 72.09375 62.796875 72.09375 60.984375 
C 72.09375 60.09375 72 59.78125 71.703125 58.390625 
L 60.40625 13.28125 
L 39 66.390625 
C 38.296875 68 38.203125 68 36 68 
L 23.796875 68 
C 21.796875 68 20.90625 68 20.90625 66.09375 
C 20.90625 65.09375 21.59375 65.09375 23.5 65.09375 
C 24 65.09375 29.90625 65.09375 29.90625 64.296875 
C 29.90625 64.09375 29.703125 63.296875 29.59375 63 
L 16.296875 9.921875 
C 15.09375 5 12.703125 2.90625 6.09375 2.90625 
C 5.59375 2.90625 4.59375 2.90625 4.59375 1.046875 
C 4.59375 0 5.59375 0 5.90625 0 
C 7.90625 0 13 0 15 0 
L 19.796875 0 
C 21.203125 0 22.90625 0 24.296875 0 
C 25 0 26.09375 0 26.09375 1.90625 
C 26.09375 2.8125 25.09375 2.90625 24.703125 2.90625 
C 21.40625 2.90625 18.203125 3.5 18.203125 7.09375 
C 18.203125 7.890625 18.40625 8.78125 18.59375 9.578125 
L 32.09375 63 
C 32.703125 62 32.703125 61.8125 33.09375 60.90625 
L 56.90625 1.796875 
C 57.40625 0.59375 57.59375 0 58.5 0 
C 59.5 0 59.59375 0.296875 60 2 
z
" id="CMMI12-78"/>
      <path d="M 20.09375 40.09375 
L 29.296875 40.09375 
C 31.203125 40.09375 32.203125 40.09375 32.203125 41.890625 
C 32.203125 43 31.59375 43 29.59375 43 
L 20.796875 43 
L 24.5 57.6875 
C 24.90625 59.078125 24.90625 59.28125 24.90625 60 
C 24.90625 61.609375 23.59375 62.5 22.296875 62.5 
C 21.5 62.5 19.203125 62.203125 18.40625 58.984375 
L 14.5 43 
L 5.09375 43 
C 3.09375 43 2.203125 43 2.203125 41.09375 
C 2.203125 40.09375 2.90625 40.09375 4.796875 40.09375 
L 13.703125 40.09375 
L 7.09375 13.765625 
C 6.296875 10.28125 6 9.28125 6 7.984375 
C 6 3.296875 9.296875 -1 14.90625 -1 
C 25 -1 30.40625 13.5625 30.40625 14.25 
C 30.40625 14.859375 30 15.15625 29.40625 15.15625 
C 29.203125 15.15625 28.796875 15.15625 28.59375 14.75 
C 28.5 14.65625 28.40625 14.546875 27.703125 12.953125 
C 25.59375 7.984375 21 1 15.203125 1 
C 12.203125 1 12 3.5 12 5.6875 
C 12 5.78125 12 7.6875 12.296875 8.875 
z
" id="CMMI12-116"/>
      <path d="M 38.90625 40.8125 
C 35.796875 40.21875 34.203125 38.015625 34.203125 35.828125 
C 34.203125 33.421875 36.09375 32.625 37.5 32.625 
C 40.296875 32.625 42.59375 35.03125 42.59375 38.015625 
C 42.59375 41.21875 39.5 44 34.5 44 
C 30.5 44 25.90625 42.203125 21.703125 36.125 
C 21 41.40625 17 44 13 44 
C 9.09375 44 7.09375 41.015625 5.90625 38.8125 
C 4.203125 35.21875 2.703125 29.234375 2.703125 28.734375 
C 2.703125 28.34375 3.09375 27.84375 3.796875 27.84375 
C 4.59375 27.84375 4.703125 27.9375 5.296875 30.234375 
C 6.796875 36.21875 8.703125 42.015625 12.703125 42.015625 
C 15.09375 42.015625 15.796875 40.3125 15.796875 37.421875 
C 15.796875 35.21875 14.796875 31.328125 14.09375 28.234375 
L 11.296875 17.46875 
C 10.90625 15.5625 9.796875 11.078125 9.296875 9.28125 
C 8.59375 6.6875 7.5 2 7.5 1.5 
C 7.5 0.09375 8.59375 -1 10.09375 -1 
C 11.203125 -1 13.09375 -0.296875 13.703125 1.703125 
C 14 2.5 17.703125 17.5625 18.296875 19.859375 
C 18.796875 22.046875 19.40625 24.15625 19.90625 26.34375 
C 20.296875 27.734375 20.703125 29.34375 21 30.640625 
C 21.296875 31.53125 24 36.421875 26.5 38.625 
C 27.703125 39.71875 30.296875 42.015625 34.40625 42.015625 
C 36 42.015625 37.59375 41.71875 38.90625 40.8125 
z
" id="CMMI12-114"/>
      <path d="M 28.296875 14.265625 
C 28.296875 14.765625 27.90625 15.171875 27.296875 15.171875 
C 26.40625 15.171875 26.296875 14.875 25.796875 13.171875 
C 23.203125 4.09375 19.09375 1 15.796875 1 
C 14.59375 1 13.203125 1.296875 13.203125 4.296875 
C 13.203125 6.984375 14.40625 9.984375 15.5 12.96875 
L 22.5 31.53125 
C 22.796875 32.328125 23.5 34.125 23.5 36.015625 
C 23.5 40.21875 20.5 44 15.59375 44 
C 6.40625 44 2.703125 29.53125 2.703125 28.734375 
C 2.703125 28.34375 3.09375 27.84375 3.796875 27.84375 
C 4.703125 27.84375 4.796875 28.234375 5.203125 29.625 
C 7.59375 37.9375 11.40625 41.90625 15.296875 41.90625 
C 16.203125 41.90625 17.90625 41.90625 17.90625 38.71875 
C 17.90625 36.125 16.59375 32.828125 15.796875 30.640625 
L 8.796875 12.078125 
C 8.203125 10.484375 7.59375 8.875 7.59375 7.078125 
C 7.59375 2.59375 10.703125 -1 15.5 -1 
C 24.703125 -1 28.296875 13.578125 28.296875 14.265625 
z
M 27.5 62.703125 
C 27.5 64.203125 26.296875 66 24.09375 66 
C 21.796875 66 19.203125 63.796875 19.203125 61.203125 
C 19.203125 58.71875 21.296875 57.921875 22.5 57.921875 
C 25.203125 57.921875 27.5 60.515625 27.5 62.703125 
z
" id="CMMI12-105"/>
      <path d="M 30.09375 11.875 
C 29.59375 10.171875 29.59375 9.984375 28.203125 8.078125 
C 26 5.28125 21.59375 1 16.90625 1 
C 12.796875 1 10.5 4.6875 10.5 10.578125 
C 10.5 16.0625 13.59375 27.234375 15.5 31.4375 
C 18.90625 38.421875 23.59375 42.015625 27.5 42.015625 
C 34.09375 42.015625 35.40625 33.828125 35.40625 33.03125 
C 35.40625 32.9375 35.09375 31.625 35 31.4375 
z
M 36.5 37.421875 
C 35.40625 40.015625 32.703125 44 27.5 44 
C 16.203125 44 4 29.4375 4 14.671875 
C 4 4.796875 9.796875 -1 16.59375 -1 
C 22.09375 -1 26.796875 3.296875 29.59375 6.59375 
C 30.59375 0.703125 35.296875 -1 38.296875 -1 
C 41.296875 -1 43.703125 0.796875 45.5 4.390625 
C 47.09375 7.78125 48.5 13.875 48.5 14.265625 
C 48.5 14.765625 48.09375 15.171875 47.5 15.171875 
C 46.59375 15.171875 46.5 14.671875 46.09375 13.171875 
C 44.59375 7.28125 42.703125 1 38.59375 1 
C 35.703125 1 35.5 3.59375 35.5 5.59375 
C 35.5 7.890625 35.796875 8.984375 36.703125 12.875 
C 37.40625 15.375 37.90625 17.5625 38.703125 20.453125 
C 42.40625 35.421875 43.296875 39.015625 43.296875 39.609375 
C 43.296875 41.015625 42.203125 42.109375 40.703125 42.109375 
C 37.5 42.109375 36.703125 38.625 36.5 37.421875 
z
" id="CMMI12-97"/>
      <path d="M 25.40625 66.515625 
C 25.5 66.90625 25.703125 67.5 25.703125 68 
C 25.703125 69 24.703125 69 24.5 69 
C 24.40625 69 20.796875 68.640625 19 68.390625 
C 17.296875 68.390625 15.796875 68.09375 14 68.09375 
C 11.59375 67.890625 10.90625 67.796875 10.90625 66 
C 10.90625 65 11.90625 65 12.90625 65 
C 18 65 18 64.09375 18 63.109375 
C 18 62.71875 18 62.515625 17.5 60.734375 
L 5.09375 11.421875 
C 4.796875 10.328125 4.59375 9.53125 4.59375 7.953125 
C 4.59375 2.984375 8.296875 -1 13.40625 -1 
C 16.703125 -1 18.90625 1.1875 20.5 4.28125 
C 22.203125 7.546875 23.59375 13.8125 23.59375 14.203125 
C 23.59375 14.703125 23.203125 15.109375 22.59375 15.109375 
C 21.703125 15.109375 21.59375 14.609375 21.203125 13.125 
C 19.40625 6.265625 17.59375 1 13.59375 1 
C 10.59375 1 10.59375 4.171875 10.59375 5.578125 
C 10.59375 5.96875 10.59375 8.046875 11.296875 10.84375 
z
" id="CMMI12-108"/>
      <path d="M 22.796875 20 
C 24.5 19.703125 27.203125 19.109375 27.796875 19 
C 29.09375 18.625 33.59375 17.03125 33.59375 12.234375 
C 33.59375 9.15625 30.796875 1.09375 19.203125 1.09375 
C 17.09375 1.09375 9.59375 1.09375 7.59375 6.8125 
C 11.59375 6.3125 13.59375 9.421875 13.59375 11.640625 
C 13.59375 13.75 12.203125 14.84375 10.203125 14.84375 
C 8 14.84375 5.09375 13.140625 5.09375 8.625 
C 5.09375 2.703125 11.09375 -1 19.09375 -1 
C 34.296875 -1 38.796875 10.171875 38.796875 15.375 
C 38.796875 16.859375 38.796875 19.65625 35.59375 22.84375 
C 33.09375 25.25 30.703125 25.75 25.296875 26.84375 
C 22.59375 27.4375 18.296875 28.34375 18.296875 32.828125 
C 18.296875 34.828125 20.09375 42.015625 29.59375 42.015625 
C 33.796875 42.015625 37.90625 40.453125 38.90625 37 
C 34.5 37 34.296875 33.203125 34.296875 33.109375 
C 34.296875 31 36.203125 30.40625 37.09375 30.40625 
C 38.5 30.40625 41.296875 31.484375 41.296875 35.640625 
C 41.296875 39.765625 37.5 44 29.703125 44 
C 16.59375 44 13.09375 33.75 13.09375 29.671875 
C 13.09375 22.09375 20.5 20.5 22.796875 20 
z
" id="CMMI12-115"/>
     </defs>
     <g style="fill:#262626;" transform="translate(93.075091 192.334215)scale(0.11 -0.11)">
      <use transform="translate(0 14.943915)scale(0.996264)" xlink:href="#CMMI12-78"/>
      <use transform="translate(78.115119 0)scale(0.697382)" xlink:href="#CMMI12-116"/>
      <use transform="translate(102.773428 0)scale(0.697382)" xlink:href="#CMMI12-114"/>
      <use transform="translate(135.442697 0)scale(0.697382)" xlink:href="#CMMI12-105"/>
      <use transform="translate(158.737604 0)scale(0.697382)" xlink:href="#CMMI12-97"/>
      <use transform="translate(194.582951 0)scale(0.697382)" xlink:href="#CMMI12-108"/>
      <use transform="translate(216.456735 0)scale(0.697382)" xlink:href="#CMMI12-115"/>
     </g>
    </g>
   </g>
   <g id="matplotlib.axis_2">
    <g id="ytick_1">
     <g id="line2d_5"/>
     <g id="text_6">
      <!-- $0.0$ -->
      <defs>
       <path d="M 18.40625 4.796875 
C 18.40625 7.6875 16 9.671875 13.59375 9.671875 
C 10.703125 9.671875 8.703125 7.28125 8.703125 4.890625 
C 8.703125 2 11.09375 0 13.5 0 
C 16.40625 0 18.40625 2.390625 18.40625 4.796875 
z
" id="CMMI12-58"/>
      </defs>
      <g style="fill:#262626;" transform="translate(2.007621 138.489172)scale(0.1 -0.1)">
       <use transform="scale(0.996264)" xlink:href="#CMR17-48"/>
       <use transform="translate(45.690477 0)scale(0.996264)" xlink:href="#CMMI12-58"/>
       <use transform="translate(72.787654 0)scale(0.996264)" xlink:href="#CMR17-48"/>
      </g>
     </g>
    </g>
    <g id="ytick_2">
     <g id="line2d_6"/>
     <g id="text_7">
      <!-- $0.1$ -->
      <g style="fill:#262626;" transform="translate(2.007621 103.235564)scale(0.1 -0.1)">
       <use transform="scale(0.996264)" xlink:href="#CMR17-48"/>
       <use transform="translate(45.690477 0)scale(0.996264)" xlink:href="#CMMI12-58"/>
       <use transform="translate(72.787654 0)scale(0.996264)" xlink:href="#CMR17-49"/>
      </g>
     </g>
    </g>
    <g id="ytick_3">
     <g id="line2d_7"/>
     <g id="text_8">
      <!-- $0.2$ -->
      <g style="fill:#262626;" transform="translate(2.007621 67.981956)scale(0.1 -0.1)">
       <use transform="scale(0.996264)" xlink:href="#CMR17-48"/>
       <use transform="translate(45.690477 0)scale(0.996264)" xlink:href="#CMMI12-58"/>
       <use transform="translate(72.787654 0)scale(0.996264)" xlink:href="#CMR17-50"/>
      </g>
     </g>
    </g>
    <g id="ytick_4">
     <g id="line2d_8"/>
     <g id="text_9">
      <!-- $0.3$ -->
      <g style="fill:#262626;" transform="translate(2.007621 32.728349)scale(0.1 -0.1)">
       <use transform="scale(0.996264)" xlink:href="#CMR17-48"/>
       <use transform="translate(45.690477 0)scale(0.996264)" xlink:href="#CMMI12-58"/>
       <use transform="translate(72.787654 0)scale(0.996264)" xlink:href="#CMR17-51"/>
      </g>
     </g>
    </g>
    <g id="text_10">
     <!-- $\hat\beta_{IV}$ -->
     <defs>
      <path d="M 22.90625 69.078125 
L 10.59375 55.546875 
L 11.796875 54.34375 
L 22.90625 65.09375 
L 34 54.34375 
L 35.203125 55.546875 
z
" id="CMR17-94"/>
      <path d="M 56.59375 57.828125 
C 56.59375 63.765625 51.5 70 42.40625 70 
C 29.5 70 21.296875 54.328125 18.703125 44 
L 2.90625 -18.3125 
C 2.703125 -19.109375 3.296875 -19.3125 3.796875 -19.3125 
C 4.5 -19.3125 5 -19.21875 5.09375 -18.71875 
L 12.09375 9.15625 
C 13.09375 3.578125 18.59375 -1 24.5 -1 
C 38.796875 -1 52.296875 10.15625 52.296875 24.984375 
C 52.296875 28.765625 51.40625 32.546875 49.296875 35.734375 
C 48.09375 37.625 46.59375 39.015625 45 40.21875 
C 52.203125 43.984375 56.59375 50 56.59375 57.828125 
z
M 39.203125 40.3125 
C 37.59375 39.71875 36 39.515625 34.09375 39.515625 
C 32.703125 39.515625 31.40625 39.421875 29.59375 40.015625 
C 30.59375 40.71875 32.09375 40.90625 34.203125 40.90625 
C 36 40.90625 37.796875 40.71875 39.203125 40.3125 
z
M 51.40625 58.71875 
C 51.40625 53.28125 48.703125 45.359375 42.203125 41.703125 
C 40.296875 42.46875 37.703125 43 35.5 43 
C 33.40625 43 27.40625 43 27.40625 39.921875 
C 27.40625 37.328125 32.90625 37.328125 34.59375 37.328125 
C 37.203125 37.328125 39.5 38 41.90625 38.8125 
C 45.09375 36.21875 46.5 32.828125 46.5 27.859375 
C 46.5 22.078125 44.90625 17.421875 43 13.140625 
C 39.703125 5.765625 31.90625 1 25 1 
C 17.703125 1 13.90625 6.75 13.90625 13.5 
C 13.90625 14.40625 13.90625 15.703125 14.296875 17.171875 
L 20.796875 43.296875 
C 24.09375 56.296875 32.5 68.015625 42.203125 68.015625 
C 49.40625 68.015625 51.40625 63.0625 51.40625 58.71875 
z
" id="CMMI12-12"/>
      <path d="M 36.796875 60.625 
C 37.703125 64.109375 37.90625 65.109375 45.203125 65.109375 
C 47.40625 65.109375 48.203125 65.109375 48.203125 67 
C 48.203125 68 47.09375 68 46.796875 68 
C 45 68 42.796875 68 41 68 
L 28.703125 68 
C 26.703125 68 24.40625 68 22.40625 68 
C 21.59375 68 20.5 68 20.5 66.109375 
C 20.5 65.109375 21.296875 65.109375 23.296875 65.109375 
C 29.5 65.109375 29.5 64.3125 29.5 63.21875 
C 29.5 62.53125 29.296875 61.921875 29.09375 61.03125 
L 15.59375 7.375 
C 14.703125 3.890625 14.5 2.890625 7.203125 2.890625 
C 5 2.890625 4.09375 2.890625 4.09375 1 
C 4.09375 0 5.09375 0 5.59375 0 
C 7.40625 0 9.59375 0 11.40625 0 
L 23.703125 0 
C 25.703125 0 27.90625 0 29.90625 0 
C 30.703125 0 31.90625 0 31.90625 1.796875 
C 31.90625 2.890625 31.296875 2.890625 29.09375 2.890625 
C 22.90625 2.890625 22.90625 3.6875 22.90625 4.875 
C 22.90625 5.078125 22.90625 5.578125 23.296875 7.171875 
z
" id="CMMI12-73"/>
      <path d="M 61.90625 56.875 
C 65.296875 62.25 68.40625 64.625 73.5 65.03125 
C 74.5 65.125 75.296875 65.125 75.296875 66.90625 
C 75.296875 67.3125 75.09375 67.90625 74.203125 67.90625 
C 72.40625 67.90625 68.09375 67.90625 66.296875 67.90625 
C 63.40625 67.90625 60.40625 67.90625 57.59375 67.90625 
C 56.796875 67.90625 55.796875 67.90625 55.796875 66.03125 
C 55.796875 65.125 56.703125 65.03125 57.09375 65.03125 
C 60.796875 64.734375 61.203125 62.953125 61.203125 61.75 
C 61.203125 60.265625 59.796875 57.96875 59.703125 57.875 
L 28.296875 8.4375 
L 21.296875 62.015625 
C 21.296875 65 26.5 65 27.59375 65 
C 29.09375 65 30 65 30 66.90625 
C 30 67.90625 28.90625 67.90625 28.59375 67.90625 
C 26.90625 67.90625 24.90625 67.90625 23.203125 67.90625 
L 17.59375 67.90625 
C 10.296875 67.90625 7.296875 67.90625 7.203125 67.90625 
C 6.59375 67.90625 5.40625 67.90625 5.40625 66.09375 
C 5.40625 65 6.09375 65 7.703125 65 
C 12.796875 65 13.09375 64.09375 13.40625 61.625 
L 21.40625 0.375 
C 21.703125 -1.703125 21.703125 -2 23.09375 -2 
C 24.296875 -2 24.796875 -1.703125 25.796875 -0.125 
z
" id="CMMI12-86"/>
     </defs>
     <g style="fill:#262626;" transform="translate(-4.123274 100.795139)rotate(-90)scale(0.11 -0.11)">
      <use transform="translate(15.58093 41.240535)scale(0.996264)" xlink:href="#CMR17-94"/>
      <use transform="translate(0 14.943915)scale(0.996264)" xlink:href="#CMMI12-12"/>
      <use transform="translate(55.070737 0)scale(0.697382)" xlink:href="#CMMI12-73"/>
      <use transform="translate(90.670119 0)scale(0.697382)" xlink:href="#CMMI12-86"/>
     </g>
    </g>
   </g>
   <g id="line2d_9">
    <path clip-path="url(#p89c4835983)" d="M 29.642318 101.631768 
L 34.400951 135.820708 
L 39.688321 133.593925 
L 44.975691 158.322737 
L 50.263061 148.132162 
L 55.550431 150.077505 
L 60.837801 145.301181 
L 66.125171 151.721241 
L 71.412541 147.656809 
L 76.699911 149.598633 
L 81.987281 147.586489 
L 87.274651 144.015613 
L 92.562021 140.745525 
L 97.849391 140.903375 
L 103.136761 141.621577 
L 108.424131 141.011355 
L 113.711502 141.509766 
L 118.998872 140.58869 
L 124.286242 139.768881 
L 129.573612 137.877047 
L 134.860982 135.288144 
L 140.148352 134.198598 
L 145.435722 132.807179 
L 150.723092 132.059004 
L 156.010462 132.223446 
L 161.297832 131.511477 
L 166.585202 132.027268 
L 171.872572 131.908109 
L 177.159942 132.714103 
L 182.447312 133.714846 
L 187.734682 132.961494 
" style="fill:none;stroke:#4c72b0;stroke-linecap:round;stroke-width:2;"/>
   </g>
   <g id="line2d_10">
    <path clip-path="url(#p89c4835983)" d="M 29.642318 27.413647 
L 34.400951 62.738175 
L 39.688321 87.895857 
L 44.975691 78.758679 
L 50.263061 78.773684 
L 55.550431 73.453283 
L 60.837801 72.340824 
L 66.125171 71.744188 
L 71.412541 76.854698 
L 76.699911 76.08941 
L 81.987281 75.764739 
L 87.274651 77.421598 
L 92.562021 77.260736 
L 97.849391 79.585167 
L 103.136761 79.710518 
L 108.424131 79.7201 
L 113.711502 80.274512 
L 118.998872 80.698977 
L 124.286242 81.213461 
L 129.573612 80.428914 
L 134.860982 81.182197 
L 140.148352 81.780438 
L 145.435722 83.953097 
L 150.723092 83.566441 
L 156.010462 84.966287 
L 161.297832 83.576162 
L 166.585202 83.555307 
L 171.872572 82.627305 
L 177.159942 82.668059 
L 182.447312 83.289879 
L 187.734682 84.972438 
" style="fill:none;stroke:#55a868;stroke-linecap:round;stroke-width:2;"/>
   </g>
   <g id="line2d_11">
    <path clip-path="url(#p89c4835983)" d="M 29.642318 76.895363 
L 34.400951 87.672628 
L 39.688321 89.309161 
L 44.975691 88.391418 
L 50.263061 89.528557 
L 55.550431 88.567366 
L 60.837801 88.975081 
L 66.125171 87.535538 
L 71.412541 87.182653 
L 76.699911 87.161309 
L 81.987281 87.133475 
L 87.274651 86.538934 
L 92.562021 86.752788 
L 97.849391 86.276754 
L 103.136761 86.627438 
L 108.424131 86.926343 
L 113.711502 87.287153 
L 118.998872 87.6133 
L 124.286242 87.767487 
L 129.573612 87.499724 
L 134.860982 87.776291 
L 140.148352 87.850293 
L 145.435722 87.822945 
L 150.723092 88.030775 
L 156.010462 87.648256 
L 161.297832 87.456853 
L 166.585202 87.542389 
L 171.872572 87.420043 
L 177.159942 87.382236 
L 182.447312 87.447723 
L 187.734682 87.467002 
" style="fill:none;stroke:#4c72b0;stroke-dasharray:7.4,3.2;stroke-dashoffset:0;stroke-width:2;"/>
   </g>
   <g id="line2d_12">
    <path clip-path="url(#p89c4835983)" d="M 29.642318 70.750668 
L 34.400951 64.679366 
L 39.688321 70.517428 
L 44.975691 69.181753 
L 50.263061 69.673643 
L 55.550431 67.499979 
L 60.837801 67.409969 
L 66.125171 65.693286 
L 71.412541 65.759915 
L 76.699911 65.061146 
L 81.987281 65.35557 
L 87.274651 65.030813 
L 92.562021 65.24596 
L 97.849391 65.054806 
L 103.136761 65.365703 
L 108.424131 65.664703 
L 113.711502 65.962488 
L 118.998872 65.88655 
L 124.286242 66.102279 
L 129.573612 65.777325 
L 134.860982 66.0048 
L 140.148352 66.082042 
L 145.435722 65.9324 
L 150.723092 66.049064 
L 156.010462 65.954176 
L 161.297832 65.737362 
L 166.585202 65.760042 
L 171.872572 65.386286 
L 177.159942 65.391673 
L 182.447312 65.491239 
L 187.734682 65.457233 
" style="fill:none;stroke:#55a868;stroke-dasharray:7.4,3.2;stroke-dashoffset:0;stroke-width:2;"/>
   </g>
   <g id="line2d_13">
    <path clip-path="url(#p89c4835983)" d="M 29.642318 135.029923 
L 34.400951 135.029923 
L 39.688321 135.029923 
L 44.975691 135.029923 
L 50.263061 135.029923 
L 55.550431 135.029923 
L 60.837801 135.029923 
L 66.125171 135.029923 
L 71.412541 135.029923 
L 76.699911 135.029923 
L 81.987281 135.029923 
L 87.274651 135.029923 
L 92.562021 135.029923 
L 97.849391 135.029923 
L 103.136761 135.029923 
L 108.424131 135.029923 
L 113.711502 135.029923 
L 118.998872 135.029923 
L 124.286242 135.029923 
L 129.573612 135.029923 
L 134.860982 135.029923 
L 140.148352 135.029923 
L 145.435722 135.029923 
L 150.723092 135.029923 
L 156.010462 135.029923 
L 161.297832 135.029923 
L 166.585202 135.029923 
L 171.872572 135.029923 
L 177.159942 135.029923 
L 182.447312 135.029923 
L 187.734682 135.029923 
" style="fill:none;stroke:#1a1a1a;stroke-linecap:round;stroke-width:2;"/>
   </g>
   <g id="patch_3">
    <path d="M 21.7377 164.868192 
L 21.7377 20.868192 
" style="fill:none;stroke:#262626;stroke-linecap:square;stroke-linejoin:miter;stroke-width:1.25;"/>
   </g>
   <g id="patch_4">
    <path d="M 21.7377 164.868192 
L 195.6393 164.868192 
" style="fill:none;stroke:#262626;stroke-linecap:square;stroke-linejoin:miter;stroke-width:1.25;"/>
   </g>
   <g id="legend_1">
    <g id="line2d_14">
     <path d="M 205.5393 34.618192 
L 227.5393 34.618192 
" style="fill:none;stroke:#4c72b0;stroke-linecap:round;stroke-width:2;"/>
    </g>
    <g id="line2d_15"/>
    <g id="text_11">
     <!-- $IV_{AC}$ -->
     <defs>
      <path d="M 17 10.796875 
C 13.5 4.90625 10.09375 2.90625 5.296875 2.90625 
C 4.203125 2.8125 3.40625 2.8125 3.40625 0.90625 
C 3.40625 0.375 3.90625 0 4.59375 0 
C 6.40625 0 10.90625 0 12.703125 0 
C 15.59375 0 18.796875 0 21.59375 0 
C 22.203125 0 23.40625 0 23.40625 1.90625 
C 23.40625 2.8125 22.59375 2.90625 22 2.90625 
C 19.703125 2.90625 17.796875 3.6875 17.796875 6.0625 
C 17.796875 7.4375 18.40625 8.53125 19.703125 10.703125 
L 27.296875 23.109375 
L 52.796875 23.109375 
C 52.90625 22.234375 52.90625 21.453125 53 20.5625 
C 53.296875 18 54.5 7.734375 54.5 5.875 
C 54.5 2.90625 49.40625 2.90625 47.796875 2.90625 
C 46.703125 2.90625 45.59375 2.90625 45.59375 1.09375 
C 45.59375 0 46.5 0 47.09375 0 
C 48.796875 0 50.796875 0 52.5 0 
L 58.203125 0 
C 64.296875 0 68.703125 0 68.796875 0 
C 69.5 0 70.59375 0 70.59375 1.90625 
C 70.59375 2.90625 69.703125 2.90625 68.203125 2.90625 
C 62.703125 2.90625 62.59375 3.8125 62.296875 6.78125 
L 56.203125 68.8125 
C 56 70.796875 55.59375 71 54.5 71 
C 53.5 71 52.90625 70.796875 52 69.296875 
z
M 29 26 
L 49.09375 59.671875 
L 52.5 26 
z
" id="CMMI12-65"/>
      <path d="M 74.703125 69.109375 
C 74.703125 70 74 70 73.796875 70 
C 73.59375 70 73.203125 70 72.40625 69 
L 65.5 60.65625 
C 62 66.625 56.5 70 49 70 
C 27.40625 70 5 48.25 5 24.921875 
C 5 8.328125 16.703125 -2 31.296875 -2 
C 39.296875 -2 46.296875 1.375 52.09375 6.25 
C 60.796875 13.484375 63.40625 23.140625 63.40625 23.921875 
C 63.40625 24.8125 62.59375 24.8125 62.296875 24.8125 
C 61.40625 24.8125 61.296875 24.21875 61.09375 23.8125 
C 56.5 8.34375 43 0.890625 33 0.890625 
C 22.40625 0.890625 13.203125 7.640625 13.203125 21.734375 
C 13.203125 24.921875 14.203125 42.1875 25.5 55.1875 
C 31 61.546875 40.40625 67.109375 49.90625 67.109375 
C 60.90625 67.109375 65.796875 58.078125 65.796875 47.9375 
C 65.796875 45.359375 65.5 43.1875 65.5 42.78125 
C 65.5 41.890625 66.5 41.890625 66.796875 41.890625 
C 67.90625 41.890625 68 41.984375 68.40625 43.765625 
z
" id="CMMI12-67"/>
     </defs>
     <g style="fill:#262626;" transform="translate(236.3393 38.468192)scale(0.11 -0.11)">
      <use transform="translate(0 14.943915)scale(0.996264)" xlink:href="#CMMI12-73"/>
      <use transform="translate(50.856514 14.943915)scale(0.996264)" xlink:href="#CMMI12-86"/>
      <use transform="translate(107.726093 0)scale(0.697382)" xlink:href="#CMMI12-65"/>
      <use transform="translate(158.915389 0)scale(0.697382)" xlink:href="#CMMI12-67"/>
     </g>
    </g>
    <g id="line2d_16">
     <path d="M 205.5393 49.949087 
L 227.5393 49.949087 
" style="fill:none;stroke:#55a868;stroke-linecap:round;stroke-width:2;"/>
    </g>
    <g id="line2d_17"/>
    <g id="text_12">
     <!-- $IV_{BC}$ -->
     <defs>
      <path d="M 36.59375 61.265625 
C 37.5 65 37.90625 65 41.796875 65 
L 54.796875 65 
C 66.09375 65 66.09375 55.375 66.09375 54.453125 
C 66.09375 46.34375 58 36 44.796875 36 
L 30.40625 36 
z
M 53.5 35.546875 
C 64.40625 37.53125 74.296875 45.09375 74.296875 54.265625 
C 74.296875 62.03125 67.40625 68 56.09375 68 
L 24 68 
C 22.09375 68 21.203125 68 21.203125 66.03125 
C 21.203125 65 22.09375 65 23.59375 65 
C 29.703125 65 29.703125 64.25 29.703125 63.1875 
C 29.703125 63 29.703125 62.390625 29.296875 60.890625 
L 15.796875 7.375 
C 14.90625 3.890625 14.703125 2.890625 7.703125 2.890625 
C 5.796875 2.890625 4.796875 2.890625 4.796875 1.09375 
C 4.796875 0 5.40625 0 7.40625 0 
L 41.703125 0 
C 57 0 68.796875 11.546875 68.796875 21.609375 
C 68.796875 29.78125 61.59375 34.75 53.5 35.546875 
z
M 39.296875 2.890625 
L 25.796875 2.890625 
C 24.40625 2.890625 24.203125 2.890625 23.59375 3 
C 22.5 3.09375 22.40625 3.296875 22.40625 4.078125 
C 22.40625 4.765625 22.59375 5.359375 22.796875 6.234375 
L 29.796875 34 
L 48.59375 34 
C 60.40625 34 60.40625 23.171875 60.40625 22.390625 
C 60.40625 12.9375 51.703125 2.890625 39.296875 2.890625 
z
" id="CMMI12-66"/>
     </defs>
     <g style="fill:#262626;" transform="translate(236.3393 53.799087)scale(0.11 -0.11)">
      <use transform="translate(0 14.943915)scale(0.996264)" xlink:href="#CMMI12-73"/>
      <use transform="translate(50.856514 14.943915)scale(0.996264)" xlink:href="#CMMI12-86"/>
      <use transform="translate(107.726093 0)scale(0.697382)" xlink:href="#CMMI12-66"/>
      <use transform="translate(163.120719 0)scale(0.697382)" xlink:href="#CMMI12-67"/>
     </g>
    </g>
    <g id="line2d_18">
     <path d="M 205.5393 65.279981 
L 227.5393 65.279981 
" style="fill:none;stroke:#4c72b0;stroke-dasharray:7.4,3.2;stroke-dashoffset:0;stroke-width:2;"/>
    </g>
    <g id="line2d_19"/>
    <g id="text_13">
     <!-- $CCH_{AC}$ -->
     <defs>
      <path d="M 74.796875 60.734375 
C 75.703125 64.109375 75.90625 65.109375 83 65.109375 
C 84.796875 65.109375 85.796875 65.109375 85.796875 66.90625 
C 85.796875 68 84.90625 68 84.296875 68 
C 82.5 68 80.40625 68 78.5 68 
L 66.703125 68 
C 64.796875 68 62.703125 68 60.796875 68 
C 60.09375 68 58.90625 68 58.90625 66.109375 
C 58.90625 65.109375 59.59375 65.109375 61.5 65.109375 
C 67.5 65.109375 67.5 64.3125 67.5 63.21875 
C 67.5 63.03125 67.5 62.421875 67.09375 60.9375 
L 61 36.890625 
L 30.796875 36.890625 
L 36.796875 60.734375 
C 37.703125 64.109375 37.90625 65.109375 45 65.109375 
C 46.796875 65.109375 47.796875 65.109375 47.796875 66.90625 
C 47.796875 68 46.90625 68 46.296875 68 
C 44.5 68 42.40625 68 40.5 68 
L 28.703125 68 
C 26.796875 68 24.703125 68 22.796875 68 
C 22.09375 68 20.90625 68 20.90625 66.109375 
C 20.90625 65.109375 21.59375 65.109375 23.5 65.109375 
C 29.5 65.109375 29.5 64.3125 29.5 63.21875 
C 29.5 63.03125 29.5 62.421875 29.09375 60.921875 
L 15.59375 7.375 
C 14.703125 3.890625 14.5 2.890625 7.59375 2.890625 
C 5.296875 2.890625 4.59375 2.890625 4.59375 1 
C 4.59375 0 5.703125 0 6 0 
C 7.796875 0 9.90625 0 11.796875 0 
L 23.59375 0 
C 25.5 0 27.59375 0 29.5 0 
C 30.296875 0 31.40625 0 31.40625 1.890625 
C 31.40625 2.890625 30.5 2.890625 29 2.890625 
C 22.90625 2.890625 22.90625 3.6875 22.90625 4.6875 
C 22.90625 4.796875 22.90625 5.484375 23.09375 6.28125 
L 30 34 
L 60.296875 34 
C 58.59375 27.390625 53.5 6.5 53.296875 5.875 
C 52.203125 2.890625 50.59375 2.890625 44.703125 2.890625 
C 43.5 2.890625 42.59375 2.890625 42.59375 1 
C 42.59375 0 43.703125 0 44 0 
C 45.796875 0 47.90625 0 49.796875 0 
L 61.59375 0 
C 63.5 0 65.59375 0 67.5 0 
C 68.296875 0 69.40625 0 69.40625 1.890625 
C 69.40625 2.890625 68.5 2.890625 67 2.890625 
C 60.90625 2.890625 60.90625 3.6875 60.90625 4.6875 
C 60.90625 4.796875 60.90625 5.484375 61.09375 6.28125 
z
" id="CMMI12-72"/>
     </defs>
     <g style="fill:#262626;" transform="translate(236.3393 69.129981)scale(0.11 -0.11)">
      <use transform="translate(0 14.943915)scale(0.996264)" xlink:href="#CMMI12-67"/>
      <use transform="translate(76.946847 14.943915)scale(0.996264)" xlink:href="#CMMI12-67"/>
      <use transform="translate(153.893693 14.943915)scale(0.996264)" xlink:href="#CMMI12-72"/>
      <use transform="translate(234.71853 0)scale(0.697382)" xlink:href="#CMMI12-65"/>
      <use transform="translate(285.907826 0)scale(0.697382)" xlink:href="#CMMI12-67"/>
     </g>
    </g>
    <g id="line2d_20">
     <path d="M 205.5393 80.610876 
L 227.5393 80.610876 
" style="fill:none;stroke:#55a868;stroke-dasharray:7.4,3.2;stroke-dashoffset:0;stroke-width:2;"/>
    </g>
    <g id="line2d_21"/>
    <g id="text_14">
     <!-- $CCH_{BC}$ -->
     <g style="fill:#262626;" transform="translate(236.3393 84.460876)scale(0.11 -0.11)">
      <use transform="translate(0 14.943915)scale(0.996264)" xlink:href="#CMMI12-67"/>
      <use transform="translate(76.946847 14.943915)scale(0.996264)" xlink:href="#CMMI12-67"/>
      <use transform="translate(153.893693 14.943915)scale(0.996264)" xlink:href="#CMMI12-72"/>
      <use transform="translate(234.71853 0)scale(0.697382)" xlink:href="#CMMI12-66"/>
      <use transform="translate(290.113156 0)scale(0.697382)" xlink:href="#CMMI12-67"/>
     </g>
    </g>
   </g>
  </g>
 </g>
 <defs>
  <clipPath id="p89c4835983">
   <rect height="144" width="173.9016" x="21.7377" y="20.868192"/>
  </clipPath>
 </defs>
</svg>
