<?xml version="1.0" encoding="UTF-8" standalone="no"?>
<!-- Created with matplotlib (http://matplotlib.org/) -->

<svg
   xmlns:dc="http://purl.org/dc/elements/1.1/"
   xmlns:cc="http://creativecommons.org/ns#"
   xmlns:rdf="http://www.w3.org/1999/02/22-rdf-syntax-ns#"
   xmlns:svg="http://www.w3.org/2000/svg"
   xmlns="http://www.w3.org/2000/svg"
   xmlns:xlink="http://www.w3.org/1999/xlink"
   xmlns:sodipodi="http://sodipodi.sourceforge.net/DTD/sodipodi-0.dtd"
   xmlns:inkscape="http://www.inkscape.org/namespaces/inkscape"
   height="152pt"
   version="1.1"
   viewBox="0 0 155 152"
   width="155pt"
   id="svg2"
   inkscape:version="0.91 r13725"
   sodipodi:docname="wald_AC.svg">
  <metadata
     id="metadata167">
    <rdf:RDF>
      <cc:Work
         rdf:about="">
        <dc:format>image/svg+xml</dc:format>
        <dc:type
           rdf:resource="http://purl.org/dc/dcmitype/StillImage" />
      </cc:Work>
    </rdf:RDF>
  </metadata>
  <sodipodi:namedview
     pagecolor="#ffffff"
     bordercolor="#666666"
     borderopacity="1"
     objecttolerance="10"
     gridtolerance="10"
     guidetolerance="10"
     inkscape:pageopacity="0"
     inkscape:pageshadow="2"
     inkscape:window-width="1867"
     inkscape:window-height="1056"
     id="namedview165"
     showgrid="false"
     inkscape:zoom="4.968421"
     inkscape:cx="85.334126"
     inkscape:cy="101.45346"
     inkscape:window-x="53"
     inkscape:window-y="24"
     inkscape:window-maximized="1"
     inkscape:current-layer="svg2" />
  <defs
     id="defs4">
    <style
       type="text/css"
       id="style6">
*{stroke-linecap:butt;stroke-linejoin:round;}
  </style>
    <style
       id="style4473"
       type="text/css">
*{stroke-linecap:butt;stroke-linejoin:round;}
  </style>
  </defs>
  <path
     d="m 0,152.71692 155.09259,0 L 155.09259,0 0,0 Z"
     style="fill:#ffffff;stroke-linecap:butt;stroke-linejoin:round"
     id="path10"
     inkscape:connector-curvature="0" />
  <path
     inkscape:connector-curvature="0"
     id="path14"
     style="fill:#ffffff;stroke-linecap:butt;stroke-linejoin:round"
     d="m 7.2,115.92 134.77374,0 0,-108.72 L 7.2,7.2 Z" />
  <g
     style="stroke-linecap:butt;stroke-linejoin:round"
     id="xtick_1">
    <g
       style="stroke-linecap:butt;stroke-linejoin:round"
       id="line2d_1" />
    <g
       style="stroke-linecap:butt;stroke-linejoin:round"
       id="text_1">
      <!-- $0$ -->
      <defs
         id="defs20">
        <path
           style="stroke-linecap:butt;stroke-linejoin:round"
           inkscape:connector-curvature="0"
           id="CMR17-48"
           d="M 42,31.640625 C 42,37.75 41.90625,48.125 37.703125,56.109375 34,63.109375 28.09375,65.59375 22.90625,65.59375 18.09375,65.59375 12,63.40625 8.203125,56.203125 4.203125,48.71875 3.796875,39.4375 3.796875,31.640625 3.796875,25.953125 3.90625,17.28125 7,9.671875 11.296875,-0.609375 19,-2 22.90625,-2 27.5,-2 34.5,-0.109375 38.59375,9.375 41.59375,16.28125 42,24.359375 42,31.640625 Z M 22.90625,-0.40625 c -6.40625,0 -10.203125,5.484375 -11.609375,13.09375 -1.09375,5.875 -1.09375,14.46875 -1.09375,20.0625 0,7.6875 0,14.078125 1.296875,20.171875 C 13.40625,61.390625 19,64 22.90625,64 27,64 32.296875,61.296875 34.203125,53.125 35.5,47.4375 35.59375,40.734375 35.59375,32.75 c 0,-6.5 0,-14.484375 -1.1875,-20.375 -2.109375,-10.890625 -8,-12.78125 -11.5,-12.78125 z" />
      </defs>
      <g
         id="g23"
         transform="matrix(0.1,0,0,-0.1,10.427006,129.8385)"
         style="fill:#262626;stroke-linecap:butt;stroke-linejoin:round">
        <use
           height="100%"
           width="100%"
           y="0"
           x="0"
           style="stroke-linecap:butt;stroke-linejoin:round"
           id="use25"
           xlink:href="#CMR17-48"
           transform="scale(0.996264,0.996264)" />
      </g>
    </g>
  </g>
  <g
     style="stroke-linecap:butt;stroke-linejoin:round"
     id="xtick_2">
    <g
       style="stroke-linecap:butt;stroke-linejoin:round"
       id="line2d_2" />
    <g
       style="stroke-linecap:butt;stroke-linejoin:round"
       id="text_2">
      <!-- $10000$ -->
      <defs
         id="defs30">
        <path
           style="stroke-linecap:butt;stroke-linejoin:round"
           inkscape:connector-curvature="0"
           id="CMR17-49"
           d="M 26.59375,63.40625 C 26.59375,65.5 26.5,65.5 25.09375,65.5 21.203125,61.1875 15.296875,59.796875 9.703125,59.796875 c -0.296875,0 -0.796875,0 -0.90625,-0.296875 C 8.703125,59.296875 8.703125,59.09375 8.703125,57 11.796875,57 17,57.59375 21,59.984375 L 21,7.203125 C 21,3.6875 20.796875,2.5 12.203125,2.5 l -3,0 0,-2.5 C 14,0 19,0 23.796875,0 28.59375,0 33.59375,0 38.40625,0 l 0,2.5 -3,0 c -8.609375,0 -8.8125,1.09375 -8.8125,4.65625 z" />
      </defs>
      <g
         id="g33"
         transform="matrix(0.1,0,0,-0.1,41.304863,129.8385)"
         style="fill:#262626;stroke-linecap:butt;stroke-linejoin:round">
        <use
           height="100%"
           width="100%"
           y="0"
           x="0"
           style="stroke-linecap:butt;stroke-linejoin:round"
           id="use35"
           xlink:href="#CMR17-49"
           transform="scale(0.996264,0.996264)" />
        <use
           height="100%"
           width="100%"
           y="0"
           x="0"
           style="stroke-linecap:butt;stroke-linejoin:round"
           id="use37"
           xlink:href="#CMR17-48"
           transform="matrix(0.996264,0,0,0.996264,45.690477,0)" />
        <use
           height="100%"
           width="100%"
           y="0"
           x="0"
           style="stroke-linecap:butt;stroke-linejoin:round"
           id="use39"
           xlink:href="#CMR17-48"
           transform="matrix(0.996264,0,0,0.996264,91.380954,0)" />
        <use
           height="100%"
           width="100%"
           y="0"
           x="0"
           style="stroke-linecap:butt;stroke-linejoin:round"
           id="use41"
           xlink:href="#CMR17-48"
           transform="matrix(0.996264,0,0,0.996264,137.07143,0)" />
        <use
           height="100%"
           width="100%"
           y="0"
           x="0"
           style="stroke-linecap:butt;stroke-linejoin:round"
           id="use43"
           xlink:href="#CMR17-48"
           transform="matrix(0.996264,0,0,0.996264,182.76191,0)" />
      </g>
    </g>
  </g>
  <g
     style="stroke-linecap:butt;stroke-linejoin:round"
     id="xtick_3">
    <g
       style="stroke-linecap:butt;stroke-linejoin:round"
       id="line2d_3" />
    <g
       style="stroke-linecap:butt;stroke-linejoin:round"
       id="text_3">
      <!-- $20000$ -->
      <defs
         id="defs48">
        <path
           style="stroke-linecap:butt;stroke-linejoin:round"
           inkscape:connector-curvature="0"
           id="CMR17-50"
           d="m 41.703125,15.453125 -1.796875,0 C 38.90625,8.375 38.09375,7.171875 37.703125,6.5625 37.203125,5.765625 30,5.765625 28.59375,5.765625 l -19.1875,0 C 13,9.671875 20,16.75 28.5,24.953125 34.59375,30.734375 41.703125,37.53125 41.703125,47.421875 41.703125,59.21875 32.296875,66 21.796875,66 10.796875,66 4.09375,56.3125 4.09375,47.34375 4.09375,43.4375 7,42.9375 8.203125,42.9375 c 1,0 4,0.609375 4,4.09375 0,3.078125 -2.609375,3.96875 -4,3.96875 C 7.59375,51 7,50.90625 6.59375,50.703125 8.5,59.21875 14.296875,63.40625 20.40625,63.40625 c 8.6875,0 14.390625,-6.890625 14.390625,-15.984375 C 34.796875,38.734375 29.703125,31.25 24,24.75 L 4.09375,2.28125 4.09375,0 39.296875,0 Z" />
      </defs>
      <g
         id="g51"
         transform="matrix(0.1,0,0,-0.1,82.14539,129.8385)"
         style="fill:#262626;stroke-linecap:butt;stroke-linejoin:round">
        <use
           height="100%"
           width="100%"
           y="0"
           x="0"
           style="stroke-linecap:butt;stroke-linejoin:round"
           id="use53"
           xlink:href="#CMR17-50"
           transform="scale(0.996264,0.996264)" />
        <use
           height="100%"
           width="100%"
           y="0"
           x="0"
           style="stroke-linecap:butt;stroke-linejoin:round"
           id="use55"
           xlink:href="#CMR17-48"
           transform="matrix(0.996264,0,0,0.996264,45.690477,0)" />
        <use
           height="100%"
           width="100%"
           y="0"
           x="0"
           style="stroke-linecap:butt;stroke-linejoin:round"
           id="use57"
           xlink:href="#CMR17-48"
           transform="matrix(0.996264,0,0,0.996264,91.380954,0)" />
        <use
           height="100%"
           width="100%"
           y="0"
           x="0"
           style="stroke-linecap:butt;stroke-linejoin:round"
           id="use59"
           xlink:href="#CMR17-48"
           transform="matrix(0.996264,0,0,0.996264,137.07143,0)" />
        <use
           height="100%"
           width="100%"
           y="0"
           x="0"
           style="stroke-linecap:butt;stroke-linejoin:round"
           id="use61"
           xlink:href="#CMR17-48"
           transform="matrix(0.996264,0,0,0.996264,182.76191,0)" />
      </g>
    </g>
  </g>
  <g
     style="stroke-linecap:butt;stroke-linejoin:round"
     id="xtick_4">
    <g
       style="stroke-linecap:butt;stroke-linejoin:round"
       id="line2d_4" />
    <g
       style="stroke-linecap:butt;stroke-linejoin:round"
       id="text_4">
      <!-- $30000$ -->
      <defs
         id="defs66">
        <path
           style="stroke-linecap:butt;stroke-linejoin:round"
           inkscape:connector-curvature="0"
           id="CMR17-51"
           d="M 22.09375,33.703125 C 31,33.703125 34.90625,25.96875 34.90625,17.03125 34.90625,5 28.5,0.390625 22.703125,0.390625 c -5.296875,0 -13.90625,2.640625 -16.609375,10.4375 0.5,-0.203125 1,-0.203125 1.5,-0.203125 2.40625,0 4.203125,1.59375 4.203125,4.1875 C 11.796875,17.703125 9.59375,19 7.59375,19 5.90625,19 3.296875,18.203125 3.296875,14.46875 3.296875,5.234375 12.296875,-2 22.90625,-2 34,-2 42.5,6.71875 42.5,16.953125 c 0,9.71875 -8,16.75 -17.5,17.84375 C 32.59375,36.375 39.90625,43.0625 39.90625,52.015625 39.90625,59.6875 32,65.296875 23,65.296875 c -9.09375,0 -17.09375,-5.46875 -17.09375,-13.28125 C 5.90625,48.59375 8.5,48 9.796875,48 c 2.109375,0 3.90625,1.296875 3.90625,3.890625 0,2.578125 -1.796875,3.875 -3.90625,3.875 -0.390625,0 -0.890625,0 -1.296875,-0.1875 C 11.40625,61.859375 19.296875,63 22.796875,63 c 3.5,0 10.109375,-1.671875 10.109375,-11.125 0,-2.765625 -0.40625,-7.6875 -3.8125,-12.03125 C 26.09375,36 22.703125,36 19.40625,35.6875 c -0.5,0 -2.8125,-0.234375 -3.203125,-0.234375 C 15.5,35.359375 15.09375,35.265625 15.09375,34.5 c 0,-0.703125 0.109375,-0.796875 2.109375,-0.796875 z" />
      </defs>
      <g
         id="g69"
         transform="matrix(0.1,0,0,-0.1,122.98592,129.8385)"
         style="fill:#262626;stroke-linecap:butt;stroke-linejoin:round">
        <use
           height="100%"
           width="100%"
           y="0"
           x="0"
           style="stroke-linecap:butt;stroke-linejoin:round"
           id="use71"
           xlink:href="#CMR17-51"
           transform="scale(0.996264,0.996264)" />
        <use
           height="100%"
           width="100%"
           y="0"
           x="0"
           style="stroke-linecap:butt;stroke-linejoin:round"
           id="use73"
           xlink:href="#CMR17-48"
           transform="matrix(0.996264,0,0,0.996264,45.690477,0)" />
        <use
           height="100%"
           width="100%"
           y="0"
           x="0"
           style="stroke-linecap:butt;stroke-linejoin:round"
           id="use75"
           xlink:href="#CMR17-48"
           transform="matrix(0.996264,0,0,0.996264,91.380954,0)" />
        <use
           height="100%"
           width="100%"
           y="0"
           x="0"
           style="stroke-linecap:butt;stroke-linejoin:round"
           id="use77"
           xlink:href="#CMR17-48"
           transform="matrix(0.996264,0,0,0.996264,137.07143,0)" />
        <use
           height="100%"
           width="100%"
           y="0"
           x="0"
           style="stroke-linecap:butt;stroke-linejoin:round"
           id="use79"
           xlink:href="#CMR17-48"
           transform="matrix(0.996264,0,0,0.996264,182.76191,0)" />
      </g>
    </g>
  </g>
  <g
     style="stroke-linecap:butt;stroke-linejoin:round"
     id="text_5">
    <!-- $N_{trials}$ -->
    <defs
       id="defs82">
      <path
         style="stroke-linecap:butt;stroke-linejoin:round"
         inkscape:connector-curvature="0"
         id="CMMI12-78"
         d="m 74,57.78125 c 1.09375,4.3125 2.703125,7.3125 10.296875,7.3125 0.296875,0 1.5,0 1.5,1.765625 C 85.796875,68 84.90625,68 84.5,68 c -2,0 -7.09375,0 -9.09375,0 l -4.8125,0 c -1.390625,0 -3.1875,0 -4.59375,0 -0.59375,0 -1.796875,0 -1.796875,-1.90625 0,-1 0.796875,-1 1.5,-1 6,0 6.390625,-2.296875 6.390625,-4.109375 0,-0.890625 -0.09375,-1.203125 -0.390625,-2.59375 L 60.40625,13.28125 39,66.390625 C 38.296875,68 38.203125,68 36,68 l -12.203125,0 c -2,0 -2.890625,0 -2.890625,-1.90625 0,-1 0.6875,-1 2.59375,-1 0.5,0 6.40625,0 6.40625,-0.796875 0,-0.203125 -0.203125,-1 -0.3125,-1.296875 L 16.296875,9.921875 C 15.09375,5 12.703125,2.90625 6.09375,2.90625 c -0.5,0 -1.5,0 -1.5,-1.859375 C 4.59375,0 5.59375,0 5.90625,0 7.90625,0 13,0 15,0 l 4.796875,0 c 1.40625,0 3.109375,0 4.5,0 C 25,0 26.09375,0 26.09375,1.90625 c 0,0.90625 -1,1 -1.390625,1 -3.296875,0 -6.5,0.59375 -6.5,4.1875 0,0.796875 0.203125,1.6875 0.390625,2.484375 L 32.09375,63 c 0.609375,-1 0.609375,-1.1875 1,-2.09375 L 56.90625,1.796875 C 57.40625,0.59375 57.59375,0 58.5,0 c 1,0 1.09375,0.296875 1.5,2 z" />
      <path
         style="stroke-linecap:butt;stroke-linejoin:round"
         inkscape:connector-curvature="0"
         id="CMMI12-116"
         d="m 20.09375,40.09375 9.203125,0 c 1.90625,0 2.90625,0 2.90625,1.796875 C 32.203125,43 31.59375,43 29.59375,43 L 20.796875,43 24.5,57.6875 c 0.40625,1.390625 0.40625,1.59375 0.40625,2.3125 0,1.609375 -1.3125,2.5 -2.609375,2.5 C 21.5,62.5 19.203125,62.203125 18.40625,58.984375 L 14.5,43 5.09375,43 c -2,0 -2.890625,0 -2.890625,-1.90625 0,-1 0.703125,-1 2.59375,-1 l 8.90625,0 L 7.09375,13.765625 C 6.296875,10.28125 6,9.28125 6,7.984375 6,3.296875 9.296875,-1 14.90625,-1 c 10.09375,0 15.5,14.5625 15.5,15.25 0,0.609375 -0.40625,0.90625 -1,0.90625 -0.203125,0 -0.609375,0 -0.8125,-0.40625 C 28.5,14.65625 28.40625,14.546875 27.703125,12.953125 25.59375,7.984375 21,1 15.203125,1 12.203125,1 12,3.5 12,5.6875 c 0,0.09375 0,2 0.296875,3.1875 z" />
      <path
         style="stroke-linecap:butt;stroke-linejoin:round"
         inkscape:connector-curvature="0"
         id="CMMI12-114"
         d="m 38.90625,40.8125 c -3.109375,-0.59375 -4.703125,-2.796875 -4.703125,-4.984375 0,-2.40625 1.890625,-3.203125 3.296875,-3.203125 2.796875,0 5.09375,2.40625 5.09375,5.390625 C 42.59375,41.21875 39.5,44 34.5,44 30.5,44 25.90625,42.203125 21.703125,36.125 21,41.40625 17,44 13,44 9.09375,44 7.09375,41.015625 5.90625,38.8125 4.203125,35.21875 2.703125,29.234375 2.703125,28.734375 c 0,-0.390625 0.390625,-0.890625 1.09375,-0.890625 0.796875,0 0.90625,0.09375 1.5,2.390625 1.5,5.984375 3.40625,11.78125 7.40625,11.78125 2.390625,0 3.09375,-1.703125 3.09375,-4.59375 0,-2.203125 -1,-6.09375 -1.703125,-9.1875 L 11.296875,17.46875 c -0.390625,-1.90625 -1.5,-6.390625 -2,-8.1875 C 8.59375,6.6875 7.5,2 7.5,1.5 7.5,0.09375 8.59375,-1 10.09375,-1 c 1.109375,0 3,0.703125 3.609375,2.703125 0.296875,0.796875 4,15.859375 4.59375,18.15625 0.5,2.1875 1.109375,4.296875 1.609375,6.484375 0.390625,1.390625 0.796875,3 1.09375,4.296875 0.296875,0.890625 3,5.78125 5.5,7.984375 1.203125,1.09375 3.796875,3.390625 7.90625,3.390625 1.59375,0 3.1875,-0.296875 4.5,-1.203125 z" />
      <path
         style="stroke-linecap:butt;stroke-linejoin:round"
         inkscape:connector-curvature="0"
         id="CMMI12-105"
         d="m 28.296875,14.265625 c 0,0.5 -0.390625,0.90625 -1,0.90625 -0.890625,0 -1,-0.296875 -1.5,-2 C 23.203125,4.09375 19.09375,1 15.796875,1 c -1.203125,0 -2.59375,0.296875 -2.59375,3.296875 0,2.6875 1.203125,5.6875 2.296875,8.671875 l 7,18.5625 c 0.296875,0.796875 1,2.59375 1,4.484375 C 23.5,40.21875 20.5,44 15.59375,44 6.40625,44 2.703125,29.53125 2.703125,28.734375 c 0,-0.390625 0.390625,-0.890625 1.09375,-0.890625 0.90625,0 1,0.390625 1.40625,1.78125 2.390625,8.3125 6.203125,12.28125 10.09375,12.28125 0.90625,0 2.609375,0 2.609375,-3.1875 0,-2.59375 -1.3125,-5.890625 -2.109375,-8.078125 l -7,-18.5625 C 8.203125,10.484375 7.59375,8.875 7.59375,7.078125 7.59375,2.59375 10.703125,-1 15.5,-1 24.703125,-1 28.296875,13.578125 28.296875,14.265625 Z M 27.5,62.703125 C 27.5,64.203125 26.296875,66 24.09375,66 c -2.296875,0 -4.890625,-2.203125 -4.890625,-4.796875 0,-2.484375 2.09375,-3.28125 3.296875,-3.28125 2.703125,0 5,2.59375 5,4.78125 z" />
      <path
         style="stroke-linecap:butt;stroke-linejoin:round"
         inkscape:connector-curvature="0"
         id="CMMI12-97"
         d="m 30.09375,11.875 c -0.5,-1.703125 -0.5,-1.890625 -1.890625,-3.796875 C 26,5.28125 21.59375,1 16.90625,1 12.796875,1 10.5,4.6875 10.5,10.578125 c 0,5.484375 3.09375,16.65625 5,20.859375 3.40625,6.984375 8.09375,10.578125 12,10.578125 6.59375,0 7.90625,-8.1875 7.90625,-8.984375 C 35.40625,32.9375 35.09375,31.625 35,31.4375 Z M 36.5,37.421875 C 35.40625,40.015625 32.703125,44 27.5,44 16.203125,44 4,29.4375 4,14.671875 4,4.796875 9.796875,-1 16.59375,-1 c 5.5,0 10.203125,4.296875 13,7.59375 1,-5.890625 5.703125,-7.59375 8.703125,-7.59375 3,0 5.40625,1.796875 7.203125,5.390625 1.59375,3.390625 3,9.484375 3,9.875 0,0.5 -0.40625,0.90625 -1,0.90625 -0.90625,0 -1,-0.5 -1.40625,-2 C 44.59375,7.28125 42.703125,1 38.59375,1 35.703125,1 35.5,3.59375 35.5,5.59375 c 0,2.296875 0.296875,3.390625 1.203125,7.28125 0.703125,2.5 1.203125,4.6875 2,7.578125 3.703125,14.96875 4.59375,18.5625 4.59375,19.15625 0,1.40625 -1.09375,2.5 -2.59375,2.5 -3.203125,0 -4,-3.484375 -4.203125,-4.6875 z" />
      <path
         style="stroke-linecap:butt;stroke-linejoin:round"
         inkscape:connector-curvature="0"
         id="CMMI12-108"
         d="M 25.40625,66.515625 C 25.5,66.90625 25.703125,67.5 25.703125,68 c 0,1 -1,1 -1.203125,1 -0.09375,0 -3.703125,-0.359375 -5.5,-0.609375 -1.703125,0 -3.203125,-0.296875 -5,-0.296875 C 11.59375,67.890625 10.90625,67.796875 10.90625,66 c 0,-1 1,-1 2,-1 C 18,65 18,64.09375 18,63.109375 c 0,-0.390625 0,-0.59375 -0.5,-2.375 L 5.09375,11.421875 c -0.296875,-1.09375 -0.5,-1.890625 -0.5,-3.46875 C 4.59375,2.984375 8.296875,-1 13.40625,-1 c 3.296875,0 5.5,2.1875 7.09375,5.28125 1.703125,3.265625 3.09375,9.53125 3.09375,9.921875 0,0.5 -0.390625,0.90625 -1,0.90625 -0.890625,0 -1,-0.5 -1.390625,-1.984375 C 19.40625,6.265625 17.59375,1 13.59375,1 c -3,0 -3,3.171875 -3,4.578125 0,0.390625 0,2.46875 0.703125,5.265625 z" />
      <path
         style="stroke-linecap:butt;stroke-linejoin:round"
         inkscape:connector-curvature="0"
         id="CMMI12-115"
         d="m 22.796875,20 c 1.703125,-0.296875 4.40625,-0.890625 5,-1 1.296875,-0.375 5.796875,-1.96875 5.796875,-6.765625 0,-3.078125 -2.796875,-11.140625 -14.390625,-11.140625 -2.109375,0 -9.609375,0 -11.609375,5.71875 4,-0.5 6,2.609375 6,4.828125 0,2.109375 -1.390625,3.203125 -3.390625,3.203125 C 8,14.84375 5.09375,13.140625 5.09375,8.625 c 0,-5.921875 6,-9.625 14,-9.625 15.203125,0 19.703125,11.171875 19.703125,16.375 0,1.484375 0,4.28125 -3.203125,7.46875 -2.5,2.40625 -4.890625,2.90625 -10.296875,4 -2.703125,0.59375 -7,1.5 -7,5.984375 0,2 1.796875,9.1875 11.296875,9.1875 4.203125,0 8.3125,-1.5625 9.3125,-5.015625 -4.40625,0 -4.609375,-3.796875 -4.609375,-3.890625 0,-2.109375 1.90625,-2.703125 2.796875,-2.703125 1.40625,0 4.203125,1.078125 4.203125,5.234375 C 41.296875,39.765625 37.5,44 29.703125,44 16.59375,44 13.09375,33.75 13.09375,29.671875 13.09375,22.09375 20.5,20.5 22.796875,20 Z" />
    </defs>
    <g
       id="g91"
       transform="matrix(0.11,0,0,-0.11,58.973461,143.38602)"
       style="fill:#262626;stroke-linecap:butt;stroke-linejoin:round">
      <use
         height="100%"
         width="100%"
         y="0"
         x="0"
         style="stroke-linecap:butt;stroke-linejoin:round"
         id="use93"
         xlink:href="#CMMI12-78"
         transform="matrix(0.996264,0,0,0.996264,0,14.943915)" />
      <use
         height="100%"
         width="100%"
         y="0"
         x="0"
         style="stroke-linecap:butt;stroke-linejoin:round"
         id="use95"
         xlink:href="#CMMI12-116"
         transform="matrix(0.697382,0,0,0.697382,78.115119,0)" />
      <use
         height="100%"
         width="100%"
         y="0"
         x="0"
         style="stroke-linecap:butt;stroke-linejoin:round"
         id="use97"
         xlink:href="#CMMI12-114"
         transform="matrix(0.697382,0,0,0.697382,102.77343,0)" />
      <use
         height="100%"
         width="100%"
         y="0"
         x="0"
         style="stroke-linecap:butt;stroke-linejoin:round"
         id="use99"
         xlink:href="#CMMI12-105"
         transform="matrix(0.697382,0,0,0.697382,135.4427,0)" />
      <use
         height="100%"
         width="100%"
         y="0"
         x="0"
         style="stroke-linecap:butt;stroke-linejoin:round"
         id="use101"
         xlink:href="#CMMI12-97"
         transform="matrix(0.697382,0,0,0.697382,158.7376,0)" />
      <use
         height="100%"
         width="100%"
         y="0"
         x="0"
         style="stroke-linecap:butt;stroke-linejoin:round"
         id="use103"
         xlink:href="#CMMI12-108"
         transform="matrix(0.697382,0,0,0.697382,194.58295,0)" />
      <use
         height="100%"
         width="100%"
         y="0"
         x="0"
         style="stroke-linecap:butt;stroke-linejoin:round"
         id="use105"
         xlink:href="#CMMI12-115"
         transform="matrix(0.697382,0,0,0.697382,216.45673,0)" />
    </g>
  </g>
  <g
     style="stroke-linecap:butt;stroke-linejoin:round"
     id="ytick_1">
    <g
       style="stroke-linecap:butt;stroke-linejoin:round"
       id="line2d_5" />
  </g>
  <g
     style="stroke-linecap:butt;stroke-linejoin:round"
     id="ytick_2">
    <g
       style="stroke-linecap:butt;stroke-linejoin:round"
       id="line2d_6" />
  </g>
  <g
     style="stroke-linecap:butt;stroke-linejoin:round"
     id="ytick_3">
    <g
       style="stroke-linecap:butt;stroke-linejoin:round"
       id="line2d_7" />
  </g>
  <path
     inkscape:connector-curvature="0"
     id="path115"
     style="fill:none;stroke:#4c72b0;stroke-width:4;stroke-linecap:round;stroke-linejoin:round"
     d="m 13.326079,83.178332 4.084053,12.324767 4.084053,-14.822533 4.084052,-7.346432 4.084053,3.689798 4.084053,4.045684 4.084052,-5.29634 4.084053,-1.793606 4.084053,-0.01983 4.084053,-0.583422 4.084052,-1.585789 4.084053,-0.391594 4.084053,2.436134 4.084053,-1.714002 4.084052,1.243143 4.084053,-0.05769 4.084053,-1.558333 4.084052,-0.157393 4.084053,0.234281 4.084053,0.168176 4.084053,-0.05287 4.084052,-0.66751 4.084054,-0.09488 4.08405,0.747864 4.08406,0.170028 4.08405,0.166571 4.08405,0.541633 4.08405,0.911731 4.08405,0.228614 4.08406,0.09495 4.08405,-0.346117"
     clip-path="url(#p4fb539c883)" />
  <path
     inkscape:connector-curvature="0"
     id="path118"
     style="fill:none;stroke:#262626;stroke-width:1.25;stroke-linecap:square;stroke-linejoin:miter"
     d="m 7.2,115.92 134.77374,0" />
  <g
     style="stroke-linecap:butt;stroke-linejoin:round"
     id="line2d_10" />
  <g
     style="stroke-linecap:butt;stroke-linejoin:round"
     id="line2d_11"
     transform="translate(14.4,-17.408079)">
    <path
       inkscape:connector-curvature="0"
       id="path143"
       style="fill:none;stroke:#4c72b0;stroke-width:4;stroke-linecap:round;stroke-linejoin:round"
       d="m 81.794374,41.885471 21.999996,0" />
  </g>
  <g
     style="stroke-linecap:butt;stroke-linejoin:round"
     id="line2d_12" />
  <g
     style="stroke-linecap:butt;stroke-linejoin:round"
     id="text_7"
     transform="translate(12.725719,-17.408079)">
    <!-- $\hat\beta_{AC}$ -->
    <defs
       id="defs147">
      <path
         style="stroke-linecap:butt;stroke-linejoin:round"
         inkscape:connector-curvature="0"
         id="CMMI12-65"
         d="M 17,10.796875 C 13.5,4.90625 10.09375,2.90625 5.296875,2.90625 4.203125,2.8125 3.40625,2.8125 3.40625,0.90625 3.40625,0.375 3.90625,0 4.59375,0 c 1.8125,0 6.3125,0 8.109375,0 2.890625,0 6.09375,0 8.890625,0 0.609375,0 1.8125,0 1.8125,1.90625 0,0.90625 -0.8125,1 -1.40625,1 -2.296875,0 -4.203125,0.78125 -4.203125,3.15625 0,1.375 0.609375,2.46875 1.90625,4.640625 l 7.59375,12.40625 25.5,0 C 52.90625,22.234375 52.90625,21.453125 53,20.5625 53.296875,18 54.5,7.734375 54.5,5.875 c 0,-2.96875 -5.09375,-2.96875 -6.703125,-2.96875 -1.09375,0 -2.203125,0 -2.203125,-1.8125 C 45.59375,0 46.5,0 47.09375,0 48.796875,0 50.796875,0 52.5,0 l 5.703125,0 c 6.09375,0 10.5,0 10.59375,0 0.703125,0 1.796875,0 1.796875,1.90625 0,1 -0.890625,1 -2.390625,1 -5.5,0 -5.609375,0.90625 -5.90625,3.875 L 56.203125,68.8125 C 56,70.796875 55.59375,71 54.5,71 53.5,71 52.90625,70.796875 52,69.296875 Z M 29,26 49.09375,59.671875 52.5,26 Z" />
    </defs>
    <g
       id="g150"
       transform="matrix(0.11,0,0,-0.11,112.59437,45.735471)"
       style="fill:#262626;stroke-linecap:butt;stroke-linejoin:round">
      <path
         d="m 38.401602,110.06058 -12.2665,-13.480693 1.19863,-1.19863 11.06787,10.709833 11.052304,-10.709833 1.19863,1.19863 z"
         id="use152"
         inkscape:connector-curvature="0"
         style="stroke-linecap:butt;stroke-linejoin:round" />
      <path
         d="m 56.382316,72.555994 c 0,5.915318 -5.07472,12.126401 -14.134496,12.126401 -12.858032,0 -21.03051,-15.613325 -23.61457,-25.902864 L 2.8953923,-3.3001695 c -0.2023662,-0.7938979 0.3891656,-0.996264 0.8872976,-0.996264 0.7004981,0 1.1986301,0.0934 1.2920298,0.5915317 L 12.048568,24.065957 c 0.996264,-5.557285 6.475716,-10.118306 12.3599,-10.118306 14.243462,0 27.693026,11.11457 27.693026,25.887297 0,3.767124 -0.887298,7.534247 -2.988792,10.709838 -1.19863,1.883562 -2.693026,3.268992 -4.280822,4.467622 7.176214,3.751556 11.550436,9.744707 11.550436,17.543586 z M 39.056662,55.105807 C 37.4533,54.514276 35.865504,54.31191 33.966376,54.31191 c -1.38543,0 -2.67746,-0.0934 -4.483188,0.498132 0.996264,0.700498 2.49066,0.887297 4.592154,0.887297 1.790162,0 3.580324,-0.186799 4.98132,-0.591532 z m 12.157534,18.337485 c 0,-5.417186 -2.693026,-13.309465 -9.168742,-16.952055 -1.899128,0.762765 -4.483188,1.29203 -6.678082,1.29203 -2.085928,0 -8.063512,0 -8.063512,-3.066625 0,-2.58406 5.479452,-2.58406 7.160648,-2.58406 2.599626,0 4.88792,0.669365 7.28518,1.47883 3.175592,-2.58406 4.576588,-5.962018 4.576588,-10.912205 0,-5.759651 -1.587796,-10.398505 -3.486924,-14.66376 C 39.554794,20.688 31.787048,15.940179 24.9066,15.940179 c -7.269614,0 -11.052304,5.728518 -11.052304,12.4533 0,0.902864 0,2.194894 0.389166,3.658157 l 6.475716,26.027397 c 3.284558,12.951432 11.659402,24.626401 21.326276,24.626401 7.176214,0 9.168742,-4.93462 9.168742,-9.262142 z"
         id="use154"
         inkscape:connector-curvature="0"
         style="stroke-linecap:butt;stroke-linejoin:round" />
      <use
         height="100%"
         width="100%"
         y="0"
         x="0"
         style="stroke-linecap:butt;stroke-linejoin:round"
         id="use156"
         xlink:href="#CMMI12-65"
         transform="matrix(0.697382,0,0,0.697382,55.070737,0)" />
      <path
         d="m 158.35664,48.195634 c 0,0.621106 -0.49034,0.621106 -0.632,0.621106 -0.14165,0 -0.41407,0 -0.96979,-0.697382 l -4.8163,-5.818781 c -2.44084,4.162499 -6.27644,6.516163 -11.5068,6.516163 -15.05909,0 -30.68481,-15.168059 -30.68481,-31.436673 0,-11.5721825 8.16155,-18.774831 18.33897,-18.774831 5.57905,0 10.46073,2.35366425 14.50336,5.7534015 6.06941,5.0451229 7.88914,11.7792175 7.88914,12.3240475 0,0.621106 -0.56663,0.621106 -0.77366,0.621106 -0.62111,0 -0.69738,-0.414071 -0.83904,-0.697382 -3.2036,-10.7876279 -12.61825,-15.98530316 -19.59207,-15.98530316 -7.38789,0 -13.80599,4.70732846 -13.80599,14.53605616 0,2.222905 0.69738,14.263641 8.57562,23.329607 3.8356,4.434914 10.39535,8.314101 17.02048,8.314101 7.6712,0 11.08184,-6.298231 11.08184,-13.37012 0,-1.797938 -0.20704,-3.312565 -0.20704,-3.595876 0,-0.621106 0.69738,-0.621106 0.90442,-0.621106 0.77366,0 0.83904,0.06538 1.12235,1.307591 z"
         id="use158"
         inkscape:connector-curvature="0"
         style="stroke-linecap:butt;stroke-linejoin:round" />
    </g>
  </g>
  <defs
     id="defs160">
    <clipPath
       id="p4fb539c883">
      <rect
         height="108.72"
         width="134.77374"
         x="7.2"
         y="7.2"
         id="rect163" />
    </clipPath>
  </defs>
  <g
     id="figure_1-3"
     style="stroke-linecap:butt;stroke-linejoin:round"
     transform="translate(-7.4881356,114.77684)">
    <g
       id="axes_1-7"
       style="stroke-linecap:butt;stroke-linejoin:round"
       transform="translate(0.45542471,0)">
      <g
         id="patch_2-5"
         style="stroke-linecap:butt;stroke-linejoin:round" />
      <g
         id="matplotlib.axis_1-3"
         style="stroke-linecap:butt;stroke-linejoin:round"
         transform="translate(106.42203,-60.472034)">
        <g
           id="xtick_1-5"
           style="stroke-linecap:butt;stroke-linejoin:round">
          <g
             id="line2d_1-6"
             style="stroke-linecap:butt;stroke-linejoin:round" />
        </g>
        <g
           id="xtick_2-2"
           style="stroke-linecap:butt;stroke-linejoin:round">
          <g
             id="line2d_2-9"
             style="stroke-linecap:butt;stroke-linejoin:round" />
        </g>
        <g
           id="xtick_3-1"
           style="stroke-linecap:butt;stroke-linejoin:round">
          <g
             id="line2d_3-2"
             style="stroke-linecap:butt;stroke-linejoin:round" />
        </g>
        <g
           id="text_1-7"
           style="stroke-linecap:butt;stroke-linejoin:round">
          <!-- A C -->
          <defs
             id="defs4491">
            <path
               id="CMR17-65"
               d="M 36.296875,68.40625 C 35.796875,69.703125 35.59375,70 34.59375,70 c -1,0 -1.1875,-0.296875 -1.6875,-1.59375 L 11.703125,8.84375 C 9.796875,3.484375 5.796875,2.390625 2.296875,2.390625 l 0,-2.59375 C 4.09375,0 8.09375,0 10,0 c 2.5,0 6.5,0 8.90625,-0.203125 l 0,2.59375 c -4.703125,0 -5.40625,3.25 -5.40625,4.46875 0,0.90625 0.203125,1.421875 0.40625,2.03125 L 19.203125,24 l 26.203125,0 6,-17.09375 c 0.5,-1.203125 0.5,-1.40625 0.5,-1.796875 0,-2.71875 -4.3125,-2.71875 -6.203125,-2.71875 l 0,-2.390625 c 2.890625,0 8.09375,0 11.203125,0 2.59375,0 7.59375,0 10,-0.203125 l 0,2.59375 c -5.3125,0 -7.109375,0 -8.40625,3.65625 z m -4,-7.578125 L 44.5,26.59375 l -24.40625,0 z"
               inkscape:connector-curvature="0"
               style="stroke-linecap:butt;stroke-linejoin:round" />
            <path
               id="CMR17-67"
               d="m 62.09375,67.015625 c 0,1.78125 -0.09375,1.890625 -0.6875,1.890625 -0.40625,0 -0.5,-0.109375 -1.203125,-1.296875 L 55.796875,59.25 C 50.90625,65.421875 44.90625,69 37.203125,69 20.09375,69 4.59375,54 4.59375,33.5625 4.59375,12.90625 20.09375,-2 37.296875,-2 52.59375,-2 62.09375,11.40625 62.09375,22.828125 c 0,0.984375 0,1.390625 -0.890625,1.390625 -0.796875,0 -0.796875,-0.296875 -0.90625,-1.1875 C 59.5,9.140625 49.5,0.59375 38.703125,0.59375 c -10.203125,0 -26.5,7.140625 -26.5,32.953125 0,25.90625 16.59375,32.859375 26.296875,32.859375 11.296875,0 19.5,-9.71875 21.40625,-23.515625 0.1875,-1.203125 0.1875,-1.40625 1.09375,-1.40625 1.09375,0 1.09375,0.203125 1.09375,2 z"
               inkscape:connector-curvature="0"
               style="stroke-linecap:butt;stroke-linejoin:round" />
          </defs>
          <g
             id="g4495"
             transform="matrix(0.11,0,0,-0.11,15.306528,54.810347)"
             style="fill:#262626;stroke-linecap:butt;stroke-linejoin:round">
            <use
               id="use4497"
               xlink:href="#CMR17-65"
               transform="scale(0.996264,0.996264)"
               style="stroke-linecap:butt;stroke-linejoin:round"
               x="0"
               y="0"
               width="100%"
               height="100%" />
            <use
               id="use4499"
               xlink:href="#CMR17-67"
               transform="matrix(0.996264,0,0,0.996264,99.148396,0)"
               style="stroke-linecap:butt;stroke-linejoin:round"
               x="0"
               y="0"
               width="100%"
               height="100%" />
          </g>
        </g>
      </g>
      <g
         id="matplotlib.axis_2-0"
         style="stroke-linecap:butt;stroke-linejoin:round">
        <g
           id="ytick_1-9"
           style="stroke-linecap:butt;stroke-linejoin:round">
          <g
             id="line2d_4-3"
             style="stroke-linecap:butt;stroke-linejoin:round" />
        </g>
        <g
           id="ytick_2-6"
           style="stroke-linecap:butt;stroke-linejoin:round">
          <g
             id="line2d_5-0"
             style="stroke-linecap:butt;stroke-linejoin:round" />
        </g>
      </g>
      <g
         id="patch_3-6"
         style="stroke-linecap:butt;stroke-linejoin:round"
         transform="translate(106.42203,-60.472034)">
        <path
           id="path4507"
           style="fill:#4c72b0;stroke:#4c72b0;stroke-width:0.30000001;stroke-linecap:butt;stroke-linejoin:miter"
           d="m 8.4,43.2 -1.2,0 0,-5.721882 1.2,0 z"
           clip-path="url(#p261fdb2a17)"
           inkscape:connector-curvature="0" />
      </g>
      <g
         id="patch_4"
         style="stroke-linecap:butt;stroke-linejoin:round"
         transform="translate(106.42203,-60.472034)">
        <path
           id="path4510"
           style="fill:#4c72b0;stroke:#4c72b0;stroke-width:0.30000001;stroke-linecap:butt;stroke-linejoin:miter"
           d="m 9.6,43.2 -1.2,0 0,-6.107294 1.2,0 z"
           clip-path="url(#p261fdb2a17)"
           inkscape:connector-curvature="0" />
      </g>
      <g
         id="patch_5"
         style="stroke-linecap:butt;stroke-linejoin:round"
         transform="translate(106.42203,-60.472034)">
        <path
           id="path4513"
           style="fill:#4c72b0;stroke:#4c72b0;stroke-width:0.30000001;stroke-linecap:butt;stroke-linejoin:miter"
           d="m 10.8,43.2 -1.2,0 0,-6.183529 1.2,0 z"
           clip-path="url(#p261fdb2a17)"
           inkscape:connector-curvature="0" />
      </g>
      <g
         id="patch_6"
         style="stroke-linecap:butt;stroke-linejoin:round"
         transform="translate(106.42203,-60.472034)">
        <path
           id="path4516"
           style="fill:#4c72b0;stroke:#4c72b0;stroke-width:0.30000001;stroke-linecap:butt;stroke-linejoin:miter"
           d="m 12,43.2 -1.2,0 0,-5.823529 1.2,0 z"
           clip-path="url(#p261fdb2a17)"
           inkscape:connector-curvature="0" />
      </g>
      <g
         id="patch_7"
         style="stroke-linecap:butt;stroke-linejoin:round"
         transform="translate(106.42203,-60.472034)">
        <path
           id="path4519"
           style="fill:#4c72b0;stroke:#4c72b0;stroke-width:0.30000001;stroke-linecap:butt;stroke-linejoin:miter"
           d="m 13.2,43.2 -1.2,0 0,-5.832 1.2,0 z"
           clip-path="url(#p261fdb2a17)"
           inkscape:connector-curvature="0" />
      </g>
      <g
         id="patch_8"
         style="stroke-linecap:butt;stroke-linejoin:round"
         transform="translate(106.42203,-60.472034)">
        <path
           id="path4522"
           style="fill:#4c72b0;stroke:#4c72b0;stroke-width:0.30000001;stroke-linecap:butt;stroke-linejoin:miter"
           d="m 14.4,43.2 -1.2,0 0,-5.976 1.2,0 z"
           clip-path="url(#p261fdb2a17)"
           inkscape:connector-curvature="0" />
      </g>
      <g
         id="patch_9"
         style="stroke-linecap:butt;stroke-linejoin:round"
         transform="translate(106.42203,-60.472034)">
        <path
           id="path4525"
           style="fill:#4c72b0;stroke:#4c72b0;stroke-width:0.30000001;stroke-linecap:butt;stroke-linejoin:miter"
           d="m 15.6,43.2 -1.2,0 0,-5.929412 1.2,0 z"
           clip-path="url(#p261fdb2a17)"
           inkscape:connector-curvature="0" />
      </g>
      <g
         id="patch_10"
         style="stroke-linecap:butt;stroke-linejoin:round"
         transform="translate(106.42203,-60.472034)">
        <path
           id="path4528"
           style="fill:#4c72b0;stroke:#4c72b0;stroke-width:0.30000001;stroke-linecap:butt;stroke-linejoin:miter"
           d="m 16.8,43.2 -1.2,0 0,-6.077647 1.2,0 z"
           clip-path="url(#p261fdb2a17)"
           inkscape:connector-curvature="0" />
      </g>
      <g
         id="patch_11"
         style="stroke-linecap:butt;stroke-linejoin:round"
         transform="translate(106.42203,-60.472034)">
        <path
           id="path4531"
           style="fill:#4c72b0;stroke:#4c72b0;stroke-width:0.30000001;stroke-linecap:butt;stroke-linejoin:miter"
           d="m 18,43.2 -1.2,0 0,-5.925176 1.2,0 z"
           clip-path="url(#p261fdb2a17)"
           inkscape:connector-curvature="0" />
      </g>
      <g
         id="patch_12"
         style="stroke-linecap:butt;stroke-linejoin:round"
         transform="translate(106.42203,-60.472034)">
        <path
           id="path4534"
           style="fill:#4c72b0;stroke:#4c72b0;stroke-width:0.30000001;stroke-linecap:butt;stroke-linejoin:miter"
           d="m 19.2,43.2 -1.2,0 0,-6.018353 1.2,0 z"
           clip-path="url(#p261fdb2a17)"
           inkscape:connector-curvature="0" />
      </g>
      <g
         id="patch_13"
         style="stroke-linecap:butt;stroke-linejoin:round"
         transform="translate(106.42203,-60.472034)">
        <path
           id="path4537"
           style="fill:#4c72b0;stroke:#4c72b0;stroke-width:0.30000001;stroke-linecap:butt;stroke-linejoin:miter"
           d="m 20.4,43.2 -1.2,0 0,-6.204706 1.2,0 z"
           clip-path="url(#p261fdb2a17)"
           inkscape:connector-curvature="0" />
      </g>
      <g
         id="patch_14"
         style="stroke-linecap:butt;stroke-linejoin:round"
         transform="translate(106.42203,-60.472034)">
        <path
           id="path4540"
           style="fill:#4c72b0;stroke:#4c72b0;stroke-width:0.30000001;stroke-linecap:butt;stroke-linejoin:miter"
           d="m 21.6,43.2 -1.2,0 0,-6.192 1.2,0 z"
           clip-path="url(#p261fdb2a17)"
           inkscape:connector-curvature="0" />
      </g>
      <g
         id="patch_15"
         style="stroke-linecap:butt;stroke-linejoin:round"
         transform="translate(106.42203,-60.472034)">
        <path
           id="path4543"
           style="fill:#4c72b0;stroke:#4c72b0;stroke-width:0.30000001;stroke-linecap:butt;stroke-linejoin:miter"
           d="m 22.8,43.2 -1.2,0 0,-5.887059 1.2,0 z"
           clip-path="url(#p261fdb2a17)"
           inkscape:connector-curvature="0" />
      </g>
      <g
         id="patch_16"
         style="stroke-linecap:butt;stroke-linejoin:round"
         transform="translate(106.42203,-60.472034)">
        <path
           id="path4546"
           style="fill:#4c72b0;stroke:#4c72b0;stroke-width:0.30000001;stroke-linecap:butt;stroke-linejoin:miter"
           d="m 24,43.2 -1.2,0 0,-5.963294 1.2,0 z"
           clip-path="url(#p261fdb2a17)"
           inkscape:connector-curvature="0" />
      </g>
      <g
         id="patch_17"
         style="stroke-linecap:butt;stroke-linejoin:round"
         transform="translate(106.42203,-60.472034)">
        <path
           id="path4549"
           style="fill:#4c72b0;stroke:#4c72b0;stroke-width:0.30000001;stroke-linecap:butt;stroke-linejoin:miter"
           d="m 25.2,43.2 -1.2,0 0,-6.289412 1.2,0 z"
           clip-path="url(#p261fdb2a17)"
           inkscape:connector-curvature="0" />
      </g>
      <g
         id="patch_18"
         style="stroke-linecap:butt;stroke-linejoin:round"
         transform="translate(106.42203,-60.472034)">
        <path
           id="path4552"
           style="fill:#c44e52;stroke:#c44e52;stroke-width:0.30000001;stroke-linecap:butt;stroke-linejoin:miter"
           d="m 26.4,43.2 -1.2,0 0,-6.327529 1.2,0 z"
           clip-path="url(#p261fdb2a17)"
           inkscape:connector-curvature="0" />
      </g>
      <g
         id="patch_19"
         style="stroke-linecap:butt;stroke-linejoin:round"
         transform="translate(106.42203,-60.472034)">
        <path
           id="path4555"
           style="fill:#c44e52;stroke:#c44e52;stroke-width:0.30000001;stroke-linecap:butt;stroke-linejoin:miter"
           d="m 27.6,43.2 -1.2,0 0,-8.356235 1.2,0 z"
           clip-path="url(#p261fdb2a17)"
           inkscape:connector-curvature="0" />
      </g>
      <g
         id="patch_20"
         style="stroke-linecap:butt;stroke-linejoin:round"
         transform="translate(106.42203,-60.472034)">
        <path
           id="path4558"
           style="fill:#c44e52;stroke:#c44e52;stroke-width:0.30000001;stroke-linecap:butt;stroke-linejoin:miter"
           d="m 28.8,43.2 -1.2,0 0,-12.858353 1.2,0 z"
           clip-path="url(#p261fdb2a17)"
           inkscape:connector-curvature="0" />
      </g>
      <g
         id="patch_21"
         style="stroke-linecap:butt;stroke-linejoin:round"
         transform="translate(106.42203,-60.472034)">
        <path
           id="path4561"
           style="fill:#c44e52;stroke:#c44e52;stroke-width:0.30000001;stroke-linecap:butt;stroke-linejoin:miter"
           d="m 30,43.2 -1.2,0 0,-15.158118 1.2,0 z"
           clip-path="url(#p261fdb2a17)"
           inkscape:connector-curvature="0" />
      </g>
      <g
         id="patch_22"
         style="stroke-linecap:butt;stroke-linejoin:round"
         transform="translate(106.42203,-60.472034)">
        <path
           id="path4564"
           style="fill:#c44e52;stroke:#c44e52;stroke-width:0.30000001;stroke-linecap:butt;stroke-linejoin:miter"
           d="m 31.2,43.2 -1.2,0 0,-12.824471 1.2,0 z"
           clip-path="url(#p261fdb2a17)"
           inkscape:connector-curvature="0" />
      </g>
      <g
         id="patch_23"
         style="stroke-linecap:butt;stroke-linejoin:round"
         transform="translate(106.42203,-60.472034)">
        <path
           id="path4567"
           style="fill:#c44e52;stroke:#c44e52;stroke-width:0.30000001;stroke-linecap:butt;stroke-linejoin:miter"
           d="m 32.4,43.2 -1.2,0 0,-10.139294 1.2,0 z"
           clip-path="url(#p261fdb2a17)"
           inkscape:connector-curvature="0" />
      </g>
      <g
         id="patch_24"
         style="stroke-linecap:butt;stroke-linejoin:round"
         transform="translate(106.42203,-60.472034)">
        <path
           id="path4570"
           style="fill:#c44e52;stroke:#c44e52;stroke-width:0.30000001;stroke-linecap:butt;stroke-linejoin:miter"
           d="m 33.6,43.2 -1.2,0 0,-8.483294 1.2,0 z"
           clip-path="url(#p261fdb2a17)"
           inkscape:connector-curvature="0" />
      </g>
      <g
         id="patch_25"
         style="stroke-linecap:butt;stroke-linejoin:round"
         transform="translate(106.42203,-60.472034)">
        <path
           id="path4573"
           style="fill:#c44e52;stroke:#c44e52;stroke-width:0.30000001;stroke-linecap:butt;stroke-linejoin:miter"
           d="m 34.8,43.2 -1.2,0 0,-7.500706 1.2,0 z"
           clip-path="url(#p261fdb2a17)"
           inkscape:connector-curvature="0" />
      </g>
      <g
         id="patch_26"
         style="stroke-linecap:butt;stroke-linejoin:round"
         transform="translate(106.42203,-60.472034)">
        <path
           id="path4576"
           style="fill:#c44e52;stroke:#c44e52;stroke-width:0.30000001;stroke-linecap:butt;stroke-linejoin:miter"
           d="m 36,43.2 -1.2,0 0,-7.195765 1.2,0 z"
           clip-path="url(#p261fdb2a17)"
           inkscape:connector-curvature="0" />
      </g>
      <g
         id="patch_27"
         style="stroke-linecap:butt;stroke-linejoin:round"
         transform="translate(106.42203,-60.472034)">
        <path
           id="path4579"
           style="fill:#c44e52;stroke:#c44e52;stroke-width:0.30000001;stroke-linecap:butt;stroke-linejoin:miter"
           d="m 37.2,43.2 -1.2,0 0,-6.196235 1.2,0 z"
           clip-path="url(#p261fdb2a17)"
           inkscape:connector-curvature="0" />
      </g>
      <g
         id="patch_28"
         style="stroke-linecap:butt;stroke-linejoin:round"
         transform="translate(106.42203,-60.472034)">
        <path
           id="path4582"
           style="fill:#c44e52;stroke:#c44e52;stroke-width:0.30000001;stroke-linecap:butt;stroke-linejoin:miter"
           d="m 38.4,43.2 -1.2,0 0,-6.382588 1.2,0 z"
           clip-path="url(#p261fdb2a17)"
           inkscape:connector-curvature="0" />
      </g>
      <g
         id="patch_29"
         style="stroke-linecap:butt;stroke-linejoin:round"
         transform="translate(106.42203,-60.472034)">
        <path
           id="path4585"
           style="fill:#c44e52;stroke:#c44e52;stroke-width:0.30000001;stroke-linecap:butt;stroke-linejoin:miter"
           d="m 39.6,43.2 -1.2,0 0,-6.136941 1.2,0 z"
           clip-path="url(#p261fdb2a17)"
           inkscape:connector-curvature="0" />
      </g>
      <g
         id="patch_30"
         style="stroke-linecap:butt;stroke-linejoin:round"
         transform="translate(106.42203,-60.472034)">
        <path
           id="path4588"
           style="fill:#c44e52;stroke:#c44e52;stroke-width:0.30000001;stroke-linecap:butt;stroke-linejoin:miter"
           d="m 40.8,43.2 -1.2,0 0,-6.12 1.2,0 z"
           clip-path="url(#p261fdb2a17)"
           inkscape:connector-curvature="0" />
      </g>
      <g
         id="patch_31"
         style="stroke-linecap:butt;stroke-linejoin:round"
         transform="translate(106.42203,-60.472034)">
        <path
           id="path4591"
           style="fill:#c44e52;stroke:#c44e52;stroke-width:0.30000001;stroke-linecap:butt;stroke-linejoin:miter"
           d="m 42,43.2 -1.2,0 0,-5.895529 1.2,0 z"
           clip-path="url(#p261fdb2a17)"
           inkscape:connector-curvature="0" />
      </g>
      <g
         id="patch_32"
         style="stroke-linecap:butt;stroke-linejoin:round"
         transform="translate(106.42203,-60.472034)">
        <path
           id="path4594"
           style="fill:#c44e52;stroke:#c44e52;stroke-width:0.30000001;stroke-linecap:butt;stroke-linejoin:miter"
           d="m 43.2,43.2 -1.2,0 0,-6.230118 1.2,0 z"
           clip-path="url(#p261fdb2a17)"
           inkscape:connector-curvature="0" />
      </g>
    </g>
  </g>
</svg>
