<?xml version="1.0" encoding="UTF-8" standalone="no"?>
<!-- Created with matplotlib (http://matplotlib.org/) -->

<svg
   xmlns:dc="http://purl.org/dc/elements/1.1/"
   xmlns:cc="http://creativecommons.org/ns#"
   xmlns:rdf="http://www.w3.org/1999/02/22-rdf-syntax-ns#"
   xmlns:svg="http://www.w3.org/2000/svg"
   xmlns="http://www.w3.org/2000/svg"
   xmlns:xlink="http://www.w3.org/1999/xlink"
   xmlns:sodipodi="http://sodipodi.sourceforge.net/DTD/sodipodi-0.dtd"
   xmlns:inkscape="http://www.inkscape.org/namespaces/inkscape"
   height="152pt"
   version="1.1"
   viewBox="0 0 199 152"
   width="199pt"
   id="svg2"
   inkscape:version="0.91 r13725"
   sodipodi:docname="wald_BC.svg">
  <metadata
     id="metadata192">
    <rdf:RDF>
      <cc:Work
         rdf:about="">
        <dc:format>image/svg+xml</dc:format>
        <dc:type
           rdf:resource="http://purl.org/dc/dcmitype/StillImage" />
      </cc:Work>
    </rdf:RDF>
  </metadata>
  <sodipodi:namedview
     pagecolor="#ffffff"
     bordercolor="#666666"
     borderopacity="1"
     objecttolerance="10"
     gridtolerance="10"
     guidetolerance="10"
     inkscape:pageopacity="0"
     inkscape:pageshadow="2"
     inkscape:window-width="1867"
     inkscape:window-height="1056"
     id="namedview190"
     showgrid="false"
     inkscape:zoom="2.3959799"
     inkscape:cx="0.57212749"
     inkscape:cy="140.54938"
     inkscape:window-x="53"
     inkscape:window-y="24"
     inkscape:window-maximized="1"
     inkscape:current-layer="svg2" />
  <defs
     id="defs4">
    <style
       type="text/css"
       id="style6">
*{stroke-linecap:butt;stroke-linejoin:round;}
  </style>
    <style
       id="style4862"
       type="text/css">
*{stroke-linecap:butt;stroke-linejoin:round;}
  </style>
  </defs>
  <g
     id="figure_1">
    <g
       id="patch_1">
      <path
         d="M -0 152.716918  L 199.204599 152.716918  L 199.204599 0  L -0 0  z "
         style="fill:#ffffff;"
         id="path10" />
    </g>
    <g
       id="axes_1">
      <g
         id="patch_2">
        <path
           d="M 51.312006 115.92  L 186.085746 115.92  L 186.085746 7.2  L 51.312006 7.2  z "
           style="fill:#ffffff;"
           id="path14" />
      </g>
      <g
         id="matplotlib.axis_1">
        <g
           id="xtick_1">
          <g
             id="line2d_1" />
          <g
             id="text_1">
            <!-- $0$ -->
            <defs
               id="defs20">
              <path
                 d="M 42 31.640625  C 42 37.75 41.90625 48.125 37.703125 56.109375  C 34 63.109375 28.09375 65.59375 22.90625 65.59375  C 18.09375 65.59375 12 63.40625 8.203125 56.203125  C 4.203125 48.71875 3.796875 39.4375 3.796875 31.640625  C 3.796875 25.953125 3.90625 17.28125 7 9.671875  C 11.296875 -0.609375 19 -2 22.90625 -2  C 27.5 -2 34.5 -0.109375 38.59375 9.375  C 41.59375 16.28125 42 24.359375 42 31.640625  z M 22.90625 -0.40625  C 16.5 -0.40625 12.703125 5.078125 11.296875 12.6875  C 10.203125 18.5625 10.203125 27.15625 10.203125 32.75  C 10.203125 40.4375 10.203125 46.828125 11.5 52.921875  C 13.40625 61.390625 19 64 22.90625 64  C 27 64 32.296875 61.296875 34.203125 53.125  C 35.5 47.4375 35.59375 40.734375 35.59375 32.75  C 35.59375 26.25 35.59375 18.265625 34.40625 12.375  C 32.296875 1.484375 26.40625 -0.40625 22.90625 -0.40625  z "
                 id="CMR17-48" />
            </defs>
            <g
               style="fill:#262626;"
               transform="translate(54.539012 129.838498)scale(0.1 -0.1)"
               id="g23">
              <use
                 transform="scale(0.996264)"
                 xlink:href="#CMR17-48"
                 id="use25" />
            </g>
          </g>
        </g>
        <g
           id="xtick_2">
          <g
             id="line2d_2" />
          <g
             id="text_2">
            <!-- $10000$ -->
            <defs
               id="defs30">
              <path
                 d="M 26.59375 63.40625  C 26.59375 65.5 26.5 65.5 25.09375 65.5  C 21.203125 61.1875 15.296875 59.796875 9.703125 59.796875  C 9.40625 59.796875 8.90625 59.796875 8.796875 59.5  C 8.703125 59.296875 8.703125 59.09375 8.703125 57  C 11.796875 57 17 57.59375 21 59.984375  L 21 7.203125  C 21 3.6875 20.796875 2.5 12.203125 2.5  L 9.203125 2.5  L 9.203125 0  C 14 0 19 0 23.796875 0  C 28.59375 0 33.59375 0 38.40625 0  L 38.40625 2.5  L 35.40625 2.5  C 26.796875 2.5 26.59375 3.59375 26.59375 7.15625  z "
                 id="CMR17-49" />
            </defs>
            <g
               style="fill:#262626;"
               transform="translate(85.416868 129.838498)scale(0.1 -0.1)"
               id="g33">
              <use
                 transform="scale(0.996264)"
                 xlink:href="#CMR17-49"
                 id="use35" />
              <use
                 transform="translate(45.690477 0)scale(0.996264)"
                 xlink:href="#CMR17-48"
                 id="use37" />
              <use
                 transform="translate(91.380954 0)scale(0.996264)"
                 xlink:href="#CMR17-48"
                 id="use39" />
              <use
                 transform="translate(137.071431 0)scale(0.996264)"
                 xlink:href="#CMR17-48"
                 id="use41" />
              <use
                 transform="translate(182.761908 0)scale(0.996264)"
                 xlink:href="#CMR17-48"
                 id="use43" />
            </g>
          </g>
        </g>
        <g
           id="xtick_3">
          <g
             id="line2d_3" />
          <g
             id="text_3">
            <!-- $20000$ -->
            <defs
               id="defs48">
              <path
                 d="M 41.703125 15.453125  L 39.90625 15.453125  C 38.90625 8.375 38.09375 7.171875 37.703125 6.5625  C 37.203125 5.765625 30 5.765625 28.59375 5.765625  L 9.40625 5.765625  C 13 9.671875 20 16.75 28.5 24.953125  C 34.59375 30.734375 41.703125 37.53125 41.703125 47.421875  C 41.703125 59.21875 32.296875 66 21.796875 66  C 10.796875 66 4.09375 56.3125 4.09375 47.34375  C 4.09375 43.4375 7 42.9375 8.203125 42.9375  C 9.203125 42.9375 12.203125 43.546875 12.203125 47.03125  C 12.203125 50.109375 9.59375 51 8.203125 51  C 7.59375 51 7 50.90625 6.59375 50.703125  C 8.5 59.21875 14.296875 63.40625 20.40625 63.40625  C 29.09375 63.40625 34.796875 56.515625 34.796875 47.421875  C 34.796875 38.734375 29.703125 31.25 24 24.75  L 4.09375 2.28125  L 4.09375 0  L 39.296875 0  z "
                 id="CMR17-50" />
            </defs>
            <g
               style="fill:#262626;"
               transform="translate(126.257396 129.838498)scale(0.1 -0.1)"
               id="g51">
              <use
                 transform="scale(0.996264)"
                 xlink:href="#CMR17-50"
                 id="use53" />
              <use
                 transform="translate(45.690477 0)scale(0.996264)"
                 xlink:href="#CMR17-48"
                 id="use55" />
              <use
                 transform="translate(91.380954 0)scale(0.996264)"
                 xlink:href="#CMR17-48"
                 id="use57" />
              <use
                 transform="translate(137.071431 0)scale(0.996264)"
                 xlink:href="#CMR17-48"
                 id="use59" />
              <use
                 transform="translate(182.761908 0)scale(0.996264)"
                 xlink:href="#CMR17-48"
                 id="use61" />
            </g>
          </g>
        </g>
        <g
           id="xtick_4">
          <g
             id="line2d_4" />
          <g
             id="text_4">
            <!-- $30000$ -->
            <defs
               id="defs66">
              <path
                 d="M 22.09375 33.703125  C 31 33.703125 34.90625 25.96875 34.90625 17.03125  C 34.90625 5 28.5 0.390625 22.703125 0.390625  C 17.40625 0.390625 8.796875 3.03125 6.09375 10.828125  C 6.59375 10.625 7.09375 10.625 7.59375 10.625  C 10 10.625 11.796875 12.21875 11.796875 14.8125  C 11.796875 17.703125 9.59375 19 7.59375 19  C 5.90625 19 3.296875 18.203125 3.296875 14.46875  C 3.296875 5.234375 12.296875 -2 22.90625 -2  C 34 -2 42.5 6.71875 42.5 16.953125  C 42.5 26.671875 34.5 33.703125 25 34.796875  C 32.59375 36.375 39.90625 43.0625 39.90625 52.015625  C 39.90625 59.6875 32 65.296875 23 65.296875  C 13.90625 65.296875 5.90625 59.828125 5.90625 52.015625  C 5.90625 48.59375 8.5 48 9.796875 48  C 11.90625 48 13.703125 49.296875 13.703125 51.890625  C 13.703125 54.46875 11.90625 55.765625 9.796875 55.765625  C 9.40625 55.765625 8.90625 55.765625 8.5 55.578125  C 11.40625 61.859375 19.296875 63 22.796875 63  C 26.296875 63 32.90625 61.328125 32.90625 51.875  C 32.90625 49.109375 32.5 44.1875 29.09375 39.84375  C 26.09375 36 22.703125 36 19.40625 35.6875  C 18.90625 35.6875 16.59375 35.453125 16.203125 35.453125  C 15.5 35.359375 15.09375 35.265625 15.09375 34.5  C 15.09375 33.796875 15.203125 33.703125 17.203125 33.703125  z "
                 id="CMR17-51" />
            </defs>
            <g
               style="fill:#262626;"
               transform="translate(167.097923 129.838498)scale(0.1 -0.1)"
               id="g69">
              <use
                 transform="scale(0.996264)"
                 xlink:href="#CMR17-51"
                 id="use71" />
              <use
                 transform="translate(45.690477 0)scale(0.996264)"
                 xlink:href="#CMR17-48"
                 id="use73" />
              <use
                 transform="translate(91.380954 0)scale(0.996264)"
                 xlink:href="#CMR17-48"
                 id="use75" />
              <use
                 transform="translate(137.071431 0)scale(0.996264)"
                 xlink:href="#CMR17-48"
                 id="use77" />
              <use
                 transform="translate(182.761908 0)scale(0.996264)"
                 xlink:href="#CMR17-48"
                 id="use79" />
            </g>
          </g>
        </g>
        <g
           id="text_5">
          <!-- $N_{trials}$ -->
          <defs
             id="defs82">
            <path
               d="M 74 57.78125  C 75.09375 62.09375 76.703125 65.09375 84.296875 65.09375  C 84.59375 65.09375 85.796875 65.09375 85.796875 66.859375  C 85.796875 68 84.90625 68 84.5 68  C 82.5 68 77.40625 68 75.40625 68  L 70.59375 68  C 69.203125 68 67.40625 68 66 68  C 65.40625 68 64.203125 68 64.203125 66.09375  C 64.203125 65.09375 65 65.09375 65.703125 65.09375  C 71.703125 65.09375 72.09375 62.796875 72.09375 60.984375  C 72.09375 60.09375 72 59.78125 71.703125 58.390625  L 60.40625 13.28125  L 39 66.390625  C 38.296875 68 38.203125 68 36 68  L 23.796875 68  C 21.796875 68 20.90625 68 20.90625 66.09375  C 20.90625 65.09375 21.59375 65.09375 23.5 65.09375  C 24 65.09375 29.90625 65.09375 29.90625 64.296875  C 29.90625 64.09375 29.703125 63.296875 29.59375 63  L 16.296875 9.921875  C 15.09375 5 12.703125 2.90625 6.09375 2.90625  C 5.59375 2.90625 4.59375 2.90625 4.59375 1.046875  C 4.59375 0 5.59375 0 5.90625 0  C 7.90625 0 13 0 15 0  L 19.796875 0  C 21.203125 0 22.90625 0 24.296875 0  C 25 0 26.09375 0 26.09375 1.90625  C 26.09375 2.8125 25.09375 2.90625 24.703125 2.90625  C 21.40625 2.90625 18.203125 3.5 18.203125 7.09375  C 18.203125 7.890625 18.40625 8.78125 18.59375 9.578125  L 32.09375 63  C 32.703125 62 32.703125 61.8125 33.09375 60.90625  L 56.90625 1.796875  C 57.40625 0.59375 57.59375 0 58.5 0  C 59.5 0 59.59375 0.296875 60 2  z "
               id="CMMI12-78" />
            <path
               d="M 20.09375 40.09375  L 29.296875 40.09375  C 31.203125 40.09375 32.203125 40.09375 32.203125 41.890625  C 32.203125 43 31.59375 43 29.59375 43  L 20.796875 43  L 24.5 57.6875  C 24.90625 59.078125 24.90625 59.28125 24.90625 60  C 24.90625 61.609375 23.59375 62.5 22.296875 62.5  C 21.5 62.5 19.203125 62.203125 18.40625 58.984375  L 14.5 43  L 5.09375 43  C 3.09375 43 2.203125 43 2.203125 41.09375  C 2.203125 40.09375 2.90625 40.09375 4.796875 40.09375  L 13.703125 40.09375  L 7.09375 13.765625  C 6.296875 10.28125 6 9.28125 6 7.984375  C 6 3.296875 9.296875 -1 14.90625 -1  C 25 -1 30.40625 13.5625 30.40625 14.25  C 30.40625 14.859375 30 15.15625 29.40625 15.15625  C 29.203125 15.15625 28.796875 15.15625 28.59375 14.75  C 28.5 14.65625 28.40625 14.546875 27.703125 12.953125  C 25.59375 7.984375 21 1 15.203125 1  C 12.203125 1 12 3.5 12 5.6875  C 12 5.78125 12 7.6875 12.296875 8.875  z "
               id="CMMI12-116" />
            <path
               d="M 38.90625 40.8125  C 35.796875 40.21875 34.203125 38.015625 34.203125 35.828125  C 34.203125 33.421875 36.09375 32.625 37.5 32.625  C 40.296875 32.625 42.59375 35.03125 42.59375 38.015625  C 42.59375 41.21875 39.5 44 34.5 44  C 30.5 44 25.90625 42.203125 21.703125 36.125  C 21 41.40625 17 44 13 44  C 9.09375 44 7.09375 41.015625 5.90625 38.8125  C 4.203125 35.21875 2.703125 29.234375 2.703125 28.734375  C 2.703125 28.34375 3.09375 27.84375 3.796875 27.84375  C 4.59375 27.84375 4.703125 27.9375 5.296875 30.234375  C 6.796875 36.21875 8.703125 42.015625 12.703125 42.015625  C 15.09375 42.015625 15.796875 40.3125 15.796875 37.421875  C 15.796875 35.21875 14.796875 31.328125 14.09375 28.234375  L 11.296875 17.46875  C 10.90625 15.5625 9.796875 11.078125 9.296875 9.28125  C 8.59375 6.6875 7.5 2 7.5 1.5  C 7.5 0.09375 8.59375 -1 10.09375 -1  C 11.203125 -1 13.09375 -0.296875 13.703125 1.703125  C 14 2.5 17.703125 17.5625 18.296875 19.859375  C 18.796875 22.046875 19.40625 24.15625 19.90625 26.34375  C 20.296875 27.734375 20.703125 29.34375 21 30.640625  C 21.296875 31.53125 24 36.421875 26.5 38.625  C 27.703125 39.71875 30.296875 42.015625 34.40625 42.015625  C 36 42.015625 37.59375 41.71875 38.90625 40.8125  z "
               id="CMMI12-114" />
            <path
               d="M 28.296875 14.265625  C 28.296875 14.765625 27.90625 15.171875 27.296875 15.171875  C 26.40625 15.171875 26.296875 14.875 25.796875 13.171875  C 23.203125 4.09375 19.09375 1 15.796875 1  C 14.59375 1 13.203125 1.296875 13.203125 4.296875  C 13.203125 6.984375 14.40625 9.984375 15.5 12.96875  L 22.5 31.53125  C 22.796875 32.328125 23.5 34.125 23.5 36.015625  C 23.5 40.21875 20.5 44 15.59375 44  C 6.40625 44 2.703125 29.53125 2.703125 28.734375  C 2.703125 28.34375 3.09375 27.84375 3.796875 27.84375  C 4.703125 27.84375 4.796875 28.234375 5.203125 29.625  C 7.59375 37.9375 11.40625 41.90625 15.296875 41.90625  C 16.203125 41.90625 17.90625 41.90625 17.90625 38.71875  C 17.90625 36.125 16.59375 32.828125 15.796875 30.640625  L 8.796875 12.078125  C 8.203125 10.484375 7.59375 8.875 7.59375 7.078125  C 7.59375 2.59375 10.703125 -1 15.5 -1  C 24.703125 -1 28.296875 13.578125 28.296875 14.265625  z M 27.5 62.703125  C 27.5 64.203125 26.296875 66 24.09375 66  C 21.796875 66 19.203125 63.796875 19.203125 61.203125  C 19.203125 58.71875 21.296875 57.921875 22.5 57.921875  C 25.203125 57.921875 27.5 60.515625 27.5 62.703125  z "
               id="CMMI12-105" />
            <path
               d="M 30.09375 11.875  C 29.59375 10.171875 29.59375 9.984375 28.203125 8.078125  C 26 5.28125 21.59375 1 16.90625 1  C 12.796875 1 10.5 4.6875 10.5 10.578125  C 10.5 16.0625 13.59375 27.234375 15.5 31.4375  C 18.90625 38.421875 23.59375 42.015625 27.5 42.015625  C 34.09375 42.015625 35.40625 33.828125 35.40625 33.03125  C 35.40625 32.9375 35.09375 31.625 35 31.4375  z M 36.5 37.421875  C 35.40625 40.015625 32.703125 44 27.5 44  C 16.203125 44 4 29.4375 4 14.671875  C 4 4.796875 9.796875 -1 16.59375 -1  C 22.09375 -1 26.796875 3.296875 29.59375 6.59375  C 30.59375 0.703125 35.296875 -1 38.296875 -1  C 41.296875 -1 43.703125 0.796875 45.5 4.390625  C 47.09375 7.78125 48.5 13.875 48.5 14.265625  C 48.5 14.765625 48.09375 15.171875 47.5 15.171875  C 46.59375 15.171875 46.5 14.671875 46.09375 13.171875  C 44.59375 7.28125 42.703125 1 38.59375 1  C 35.703125 1 35.5 3.59375 35.5 5.59375  C 35.5 7.890625 35.796875 8.984375 36.703125 12.875  C 37.40625 15.375 37.90625 17.5625 38.703125 20.453125  C 42.40625 35.421875 43.296875 39.015625 43.296875 39.609375  C 43.296875 41.015625 42.203125 42.109375 40.703125 42.109375  C 37.5 42.109375 36.703125 38.625 36.5 37.421875  z "
               id="CMMI12-97" />
            <path
               d="M 25.40625 66.515625  C 25.5 66.90625 25.703125 67.5 25.703125 68  C 25.703125 69 24.703125 69 24.5 69  C 24.40625 69 20.796875 68.640625 19 68.390625  C 17.296875 68.390625 15.796875 68.09375 14 68.09375  C 11.59375 67.890625 10.90625 67.796875 10.90625 66  C 10.90625 65 11.90625 65 12.90625 65  C 18 65 18 64.09375 18 63.109375  C 18 62.71875 18 62.515625 17.5 60.734375  L 5.09375 11.421875  C 4.796875 10.328125 4.59375 9.53125 4.59375 7.953125  C 4.59375 2.984375 8.296875 -1 13.40625 -1  C 16.703125 -1 18.90625 1.1875 20.5 4.28125  C 22.203125 7.546875 23.59375 13.8125 23.59375 14.203125  C 23.59375 14.703125 23.203125 15.109375 22.59375 15.109375  C 21.703125 15.109375 21.59375 14.609375 21.203125 13.125  C 19.40625 6.265625 17.59375 1 13.59375 1  C 10.59375 1 10.59375 4.171875 10.59375 5.578125  C 10.59375 5.96875 10.59375 8.046875 11.296875 10.84375  z "
               id="CMMI12-108" />
            <path
               d="M 22.796875 20  C 24.5 19.703125 27.203125 19.109375 27.796875 19  C 29.09375 18.625 33.59375 17.03125 33.59375 12.234375  C 33.59375 9.15625 30.796875 1.09375 19.203125 1.09375  C 17.09375 1.09375 9.59375 1.09375 7.59375 6.8125  C 11.59375 6.3125 13.59375 9.421875 13.59375 11.640625  C 13.59375 13.75 12.203125 14.84375 10.203125 14.84375  C 8 14.84375 5.09375 13.140625 5.09375 8.625  C 5.09375 2.703125 11.09375 -1 19.09375 -1  C 34.296875 -1 38.796875 10.171875 38.796875 15.375  C 38.796875 16.859375 38.796875 19.65625 35.59375 22.84375  C 33.09375 25.25 30.703125 25.75 25.296875 26.84375  C 22.59375 27.4375 18.296875 28.34375 18.296875 32.828125  C 18.296875 34.828125 20.09375 42.015625 29.59375 42.015625  C 33.796875 42.015625 37.90625 40.453125 38.90625 37  C 34.5 37 34.296875 33.203125 34.296875 33.109375  C 34.296875 31 36.203125 30.40625 37.09375 30.40625  C 38.5 30.40625 41.296875 31.484375 41.296875 35.640625  C 41.296875 39.765625 37.5 44 29.703125 44  C 16.59375 44 13.09375 33.75 13.09375 29.671875  C 13.09375 22.09375 20.5 20.5 22.796875 20  z "
               id="CMMI12-115" />
          </defs>
          <g
             style="fill:#262626;"
             transform="translate(103.085467 143.386023)scale(0.11 -0.11)"
             id="g91">
            <use
               transform="translate(0 14.943915)scale(0.996264)"
               xlink:href="#CMMI12-78"
               id="use93" />
            <use
               transform="translate(78.115119 0)scale(0.697382)"
               xlink:href="#CMMI12-116"
               id="use95" />
            <use
               transform="translate(102.773428 0)scale(0.697382)"
               xlink:href="#CMMI12-114"
               id="use97" />
            <use
               transform="translate(135.442697 0)scale(0.697382)"
               xlink:href="#CMMI12-105"
               id="use99" />
            <use
               transform="translate(158.737604 0)scale(0.697382)"
               xlink:href="#CMMI12-97"
               id="use101" />
            <use
               transform="translate(194.582951 0)scale(0.697382)"
               xlink:href="#CMMI12-108"
               id="use103" />
            <use
               transform="translate(216.456735 0)scale(0.697382)"
               xlink:href="#CMMI12-115"
               id="use105" />
          </g>
        </g>
      </g>
      <g
         id="matplotlib.axis_2">
        <g
           id="ytick_1">
          <g
             id="line2d_5" />
          <g
             id="text_6">
            <!-- $-0.2$ -->
            <defs
               id="defs111">
              <path
                 d="M 65.90625 23  C 67.59375 23 69.40625 23 69.40625 25  C 69.40625 27 67.59375 27 65.90625 27  L 11.796875 27  C 10.09375 27 8.296875 27 8.296875 25  C 8.296875 23 10.09375 23 11.796875 23  z "
                 id="CMSY10-0" />
              <path
                 d="M 18.40625 4.796875  C 18.40625 7.6875 16 9.671875 13.59375 9.671875  C 10.703125 9.671875 8.703125 7.28125 8.703125 4.890625  C 8.703125 2 11.09375 0 13.5 0  C 16.40625 0 18.40625 2.390625 18.40625 4.796875  z "
                 id="CMMI12-58" />
            </defs>
            <g
               style="fill:#262626;"
               transform="translate(23.833183 119.379249)scale(0.1 -0.1)"
               id="g115">
              <use
                 transform="scale(0.996264)"
                 xlink:href="#CMSY10-0"
                 id="use117" />
              <use
                 transform="translate(77.487468 0)scale(0.996264)"
                 xlink:href="#CMR17-48"
                 id="use119" />
              <use
                 transform="translate(123.177945 0)scale(0.996264)"
                 xlink:href="#CMMI12-58"
                 id="use121" />
              <use
                 transform="translate(150.275122 0)scale(0.996264)"
                 xlink:href="#CMR17-50"
                 id="use123" />
            </g>
          </g>
        </g>
        <g
           id="ytick_2">
          <g
             id="line2d_6" />
          <g
             id="text_7">
            <!-- $0.0$ -->
            <g
               style="fill:#262626;"
               transform="translate(31.581927 79.844704)scale(0.1 -0.1)"
               id="g128">
              <use
                 transform="scale(0.996264)"
                 xlink:href="#CMR17-48"
                 id="use130" />
              <use
                 transform="translate(45.690477 0)scale(0.996264)"
                 xlink:href="#CMMI12-58"
                 id="use132" />
              <use
                 transform="translate(72.787654 0)scale(0.996264)"
                 xlink:href="#CMR17-48"
                 id="use134" />
            </g>
          </g>
        </g>
        <g
           id="ytick_3">
          <g
             id="line2d_7" />
          <g
             id="text_8">
            <!-- $0.2$ -->
            <g
               style="fill:#262626;"
               transform="translate(31.581927 40.310158)scale(0.1 -0.1)"
               id="g139">
              <use
                 transform="scale(0.996264)"
                 xlink:href="#CMR17-48"
                 id="use141" />
              <use
                 transform="translate(45.690477 0)scale(0.996264)"
                 xlink:href="#CMMI12-58"
                 id="use143" />
              <use
                 transform="translate(72.787654 0)scale(0.996264)"
                 xlink:href="#CMR17-50"
                 id="use145" />
            </g>
          </g>
        </g>
        <g
           id="text_9">
          <!-- Wald $\hat\beta_{IV}$ -->
          <defs
             id="defs148">
            <path
               d="M 86.296875 58.8125  C 87.203125 61.5 88.703125 65 94.5 65  L 94.5 67.59375  C 92.796875 67.59375 89.296875 67.59375 87.5 67.59375  C 85 67.59375 80.59375 67.59375 78.203125 67.6875  L 78.203125 65  C 82.703125 65 84.59375 62.5 84.59375 60.109375  C 84.59375 59.40625 84.5 59.015625 84.09375 57.921875  L 68.59375 8.671875  L 52.296875 60.515625  C 52 61.515625 51.90625 61.921875 51.90625 62.3125  C 51.90625 65 56.296875 65 58.203125 65  L 58.203125 67.59375  C 55.296875 67.59375 50.296875 67.59375 47.203125 67.59375  C 44.703125 67.59375 40.203125 67.59375 37.90625 67.6875  L 37.90625 65  C 42.5 65 43.703125 64.703125 44.703125 62.921875  C 45.09375 62.015625 46.703125 56.84375 46.703125 56.546875  C 46.703125 56.140625 46.5 55.546875 46.40625 55.25  L 31.703125 8.765625  L 15.40625 60.421875  C 14.90625 61.828125 14.90625 62.015625 14.90625 62.21875  C 14.90625 65 19.296875 65 21.296875 65  L 21.296875 67.59375  C 18.40625 67.59375 13.40625 67.59375 10.296875 67.59375  C 7.703125 67.59375 3.296875 67.59375 0.90625 67.6875  L 0.90625 65  C 6.90625 65 7.296875 64.40625 8.296875 61.21875  L 27.796875 -0.3125  C 28.296875 -1.796875 28.296875 -2 29.203125 -2  C 30 -2 30.296875 -1.796875 30.703125 -0.40625  L 47.703125 53.640625  L 64.703125 -0.40625  C 65.09375 -1.796875 65.40625 -2 66.203125 -2  C 67.09375 -2 67.09375 -1.796875 67.59375 -0.3125  z "
               id="CMR17-87" />
            <path
               d="M 36 25.828125  C 36 32.375 36 35.84375 31.796875 39.734375  C 28.09375 43 23.796875 44 20.40625 44  C 12.5 44 6.796875 37.609375 6.796875 30.796875  C 6.796875 27 9.796875 27 10.40625 27  C 11.703125 27 14 27.78125 14 30.53125  C 14 33 12.09375 34.078125 10.40625 34.078125  C 10 34.078125 9.5 33.96875 9.203125 33.875  C 11.296875 40.5 16.703125 42.40625 20.203125 42.40625  C 25.203125 42.40625 30.703125 37.953125 30.703125 29.453125  L 30.703125 25  C 24.796875 25 17.703125 24.203125 12.09375 21.203125  C 5.796875 17.703125 4 12.703125 4 8.90625  C 4 1.203125 13 -1 18.296875 -1  C 23.796875 -1 28.90625 2.171875 31.09375 7.984375  C 31.296875 3.640625 34.09375 -0.28125 38.5 -0.28125  C 40.59375 -0.28125 45.90625 1.09375 45.90625 8.859375  L 45.90625 14.375  L 44.09375 14.375  L 44.09375 8.78125  C 44.09375 2.78125 41.40625 2 40.09375 2  C 36 2 36 7.15625 36 11.53125  z M 30.703125 13.59375  C 30.703125 4.953125 24.5 0.59375 19 0.59375  C 14 0.59375 10.09375 4.296875 10.09375 8.90625  C 10.09375 11.890625 11.40625 17.1875 17.203125 20.390625  C 22 23.09375 27.5 23.5 30.703125 23.5  z "
               id="CMR17-97" />
            <path
               d="M 15.296875 68.6875  L 3.40625 67.59375  L 3.40625 65  C 9.296875 65 10.203125 64.40625 10.203125 59.640625  L 10.203125 6.65625  C 10.203125 2.875 9.796875 2.390625 3.40625 2.390625  L 3.40625 -0.203125  C 5.796875 0 10.203125 0 12.703125 0  C 15.296875 0 19.703125 0 22.09375 -0.203125  L 22.09375 2.390625  C 15.703125 2.390625 15.296875 2.78125 15.296875 6.65625  z "
               id="CMR17-108" />
            <path
               d="M 29.203125 67.59375  L 29.203125 65  C 35.09375 65 36 64.40625 36 59.6875  L 36 36.640625  C 35.59375 37.140625 31.5 43.59375 23.40625 43.59375  C 13.203125 43.59375 3.296875 34.5 3.296875 21.3125  C 3.296875 8.203125 12.59375 -1 22.40625 -1  C 30.90625 -1 35.296875 5.265625 35.796875 5.9375  L 35.796875 -0.984375  L 47.90625 -0.984375  L 47.90625 2  C 42 2 41.09375 2.59375 41.09375 7.390625  L 41.09375 68.6875  z M 35.796875 11.796875  C 35.796875 8.796875 34 6.09375 31.703125 4.09375  C 28.296875 1.09375 24.90625 0.59375 23 0.59375  C 20.09375 0.59375 9.703125 2.09375 9.703125 21.1875  C 9.703125 40.8125 21.296875 42 23.90625 42  C 28.5 42 32.203125 39.40625 34.5 35.796875  C 35.796875 33.703125 35.796875 33.40625 35.796875 31.609375  z "
               id="CMR17-100" />
            <path
               d="M 22.90625 69.078125  L 10.59375 55.546875  L 11.796875 54.34375  L 22.90625 65.09375  L 34 54.34375  L 35.203125 55.546875  z "
               id="CMR17-94" />
            <path
               d="M 56.59375 57.828125  C 56.59375 63.765625 51.5 70 42.40625 70  C 29.5 70 21.296875 54.328125 18.703125 44  L 2.90625 -18.3125  C 2.703125 -19.109375 3.296875 -19.3125 3.796875 -19.3125  C 4.5 -19.3125 5 -19.21875 5.09375 -18.71875  L 12.09375 9.15625  C 13.09375 3.578125 18.59375 -1 24.5 -1  C 38.796875 -1 52.296875 10.15625 52.296875 24.984375  C 52.296875 28.765625 51.40625 32.546875 49.296875 35.734375  C 48.09375 37.625 46.59375 39.015625 45 40.21875  C 52.203125 43.984375 56.59375 50 56.59375 57.828125  z M 39.203125 40.3125  C 37.59375 39.71875 36 39.515625 34.09375 39.515625  C 32.703125 39.515625 31.40625 39.421875 29.59375 40.015625  C 30.59375 40.71875 32.09375 40.90625 34.203125 40.90625  C 36 40.90625 37.796875 40.71875 39.203125 40.3125  z M 51.40625 58.71875  C 51.40625 53.28125 48.703125 45.359375 42.203125 41.703125  C 40.296875 42.46875 37.703125 43 35.5 43  C 33.40625 43 27.40625 43 27.40625 39.921875  C 27.40625 37.328125 32.90625 37.328125 34.59375 37.328125  C 37.203125 37.328125 39.5 38 41.90625 38.8125  C 45.09375 36.21875 46.5 32.828125 46.5 27.859375  C 46.5 22.078125 44.90625 17.421875 43 13.140625  C 39.703125 5.765625 31.90625 1 25 1  C 17.703125 1 13.90625 6.75 13.90625 13.5  C 13.90625 14.40625 13.90625 15.703125 14.296875 17.171875  L 20.796875 43.296875  C 24.09375 56.296875 32.5 68.015625 42.203125 68.015625  C 49.40625 68.015625 51.40625 63.0625 51.40625 58.71875  z "
               id="CMMI12-12" />
            <path
               d="M 36.796875 60.625  C 37.703125 64.109375 37.90625 65.109375 45.203125 65.109375  C 47.40625 65.109375 48.203125 65.109375 48.203125 67  C 48.203125 68 47.09375 68 46.796875 68  C 45 68 42.796875 68 41 68  L 28.703125 68  C 26.703125 68 24.40625 68 22.40625 68  C 21.59375 68 20.5 68 20.5 66.109375  C 20.5 65.109375 21.296875 65.109375 23.296875 65.109375  C 29.5 65.109375 29.5 64.3125 29.5 63.21875  C 29.5 62.53125 29.296875 61.921875 29.09375 61.03125  L 15.59375 7.375  C 14.703125 3.890625 14.5 2.890625 7.203125 2.890625  C 5 2.890625 4.09375 2.890625 4.09375 1  C 4.09375 0 5.09375 0 5.59375 0  C 7.40625 0 9.59375 0 11.40625 0  L 23.703125 0  C 25.703125 0 27.90625 0 29.90625 0  C 30.703125 0 31.90625 0 31.90625 1.796875  C 31.90625 2.890625 31.296875 2.890625 29.09375 2.890625  C 22.90625 2.890625 22.90625 3.6875 22.90625 4.875  C 22.90625 5.078125 22.90625 5.578125 23.296875 7.171875  z "
               id="CMMI12-73" />
            <path
               d="M 61.90625 56.875  C 65.296875 62.25 68.40625 64.625 73.5 65.03125  C 74.5 65.125 75.296875 65.125 75.296875 66.90625  C 75.296875 67.3125 75.09375 67.90625 74.203125 67.90625  C 72.40625 67.90625 68.09375 67.90625 66.296875 67.90625  C 63.40625 67.90625 60.40625 67.90625 57.59375 67.90625  C 56.796875 67.90625 55.796875 67.90625 55.796875 66.03125  C 55.796875 65.125 56.703125 65.03125 57.09375 65.03125  C 60.796875 64.734375 61.203125 62.953125 61.203125 61.75  C 61.203125 60.265625 59.796875 57.96875 59.703125 57.875  L 28.296875 8.4375  L 21.296875 62.015625  C 21.296875 65 26.5 65 27.59375 65  C 29.09375 65 30 65 30 66.90625  C 30 67.90625 28.90625 67.90625 28.59375 67.90625  C 26.90625 67.90625 24.90625 67.90625 23.203125 67.90625  L 17.59375 67.90625  C 10.296875 67.90625 7.296875 67.90625 7.203125 67.90625  C 6.59375 67.90625 5.40625 67.90625 5.40625 66.09375  C 5.40625 65 6.09375 65 7.703125 65  C 12.796875 65 13.09375 64.09375 13.40625 61.625  L 21.40625 0.375  C 21.703125 -1.703125 21.703125 -2 23.09375 -2  C 24.296875 -2 24.796875 -1.703125 25.796875 -0.125  z "
               id="CMMI12-86" />
          </defs>
          <g
             style="fill:#262626;"
             transform="translate(17.702288 83.794423)rotate(-90)scale(0.11 -0.11)"
             id="g158">
            <use
               transform="translate(0 14.943915)scale(0.996264)"
               xlink:href="#CMR17-87"
               id="use160" />
            <use
               transform="translate(87.289395 14.943915)scale(0.996264)"
               xlink:href="#CMR17-97"
               id="use162" />
            <use
               transform="translate(132.979872 14.943915)scale(0.996264)"
               xlink:href="#CMR17-108"
               id="use164" />
            <use
               transform="translate(157.85093 14.943915)scale(0.996264)"
               xlink:href="#CMR17-100"
               id="use166" />
            <use
               transform="translate(254.403196 41.240535)scale(0.996264)"
               xlink:href="#CMR17-94"
               id="use168" />
            <use
               transform="translate(238.822266 14.943915)scale(0.996264)"
               xlink:href="#CMMI12-12"
               id="use170" />
            <use
               transform="translate(293.893003 0)scale(0.697382)"
               xlink:href="#CMMI12-73"
               id="use172" />
            <use
               transform="translate(329.492385 0)scale(0.697382)"
               xlink:href="#CMMI12-86"
               id="use174" />
          </g>
        </g>
      </g>
      <g
         id="line2d_8">
        <path
           clip-path="url(#pfa819568ab)"
           d="M 57.438085 15.873395  L 61.522137 38.689725  L 65.60619 42.203277  L 69.690243 48.736768  L 73.774296 48.359807  L 77.858348 44.88593  L 81.942401 44.355495  L 86.026454 44.484755  L 90.110506 46.862552  L 94.194559 45.32525  L 98.278612 44.17023  L 102.362665 43.50219  L 106.446717 44.720508  L 110.53077 44.151094  L 114.614823 46.121962  L 118.698876 47.181331  L 122.782928 46.870878  L 126.866981 46.31949  L 130.951034 45.917379  L 135.035086 46.89204  L 139.119139 47.015461  L 143.203192 45.957866  L 147.287245 45.929753  L 151.371297 46.171328  L 155.45535 45.913185  L 159.539403 45.675972  L 163.623456 46.069728  L 167.707508 45.414375  L 171.791561 45.416135  L 175.875614 44.993678  L 179.959666 44.610607  "
           style="fill:none;stroke:#55a868;stroke-linecap:round;stroke-width:4;"
           id="path177" />
      </g>
      <g
         id="patch_3">
        <path
           d="M 51.312006 115.92  L 51.312006 7.2  "
           style="fill:none;stroke:#262626;stroke-linecap:square;stroke-linejoin:miter;stroke-width:1.25;"
           id="path180" />
      </g>
      <g
         id="patch_4">
        <path
           d="M 51.312006 115.92  L 186.085746 115.92  "
           style="fill:none;stroke:#262626;stroke-linecap:square;stroke-linejoin:miter;stroke-width:1.25;"
           id="path183" />
      </g>
    </g>
  </g>
  <defs
     id="defs185">
    <clipPath
       id="pfa819568ab">
      <rect
         height="108.72"
         width="134.77374"
         x="51.312006"
         y="7.2"
         id="rect188" />
    </clipPath>
  </defs>
  <g
     id="figure_1-6"
     style="stroke-linecap:butt;stroke-linejoin:round"
     transform="translate(43.219031,196.00422)">
    <g
       id="axes_1-2"
       style="stroke-linecap:butt;stroke-linejoin:round"
       transform="translate(99.5,-141.23658)">
      <g
         id="patch_2-0"
         style="stroke-linecap:butt;stroke-linejoin:round">
        <path
           id="path4870"
           style="fill:#ffffff;stroke-linecap:butt;stroke-linejoin:round"
           d="m 7.2,43.2 36,0 0,-36 -36,0 z"
           inkscape:connector-curvature="0" />
      </g>
      <g
         id="matplotlib.axis_1-6"
         style="stroke-linecap:butt;stroke-linejoin:round">
        <g
           id="xtick_1-1"
           style="stroke-linecap:butt;stroke-linejoin:round">
          <g
             id="line2d_1-5"
             style="stroke-linecap:butt;stroke-linejoin:round" />
        </g>
        <g
           id="xtick_2-5"
           style="stroke-linecap:butt;stroke-linejoin:round">
          <g
             id="line2d_2-4"
             style="stroke-linecap:butt;stroke-linejoin:round" />
        </g>
        <g
           id="xtick_3-7"
           style="stroke-linecap:butt;stroke-linejoin:round">
          <g
             id="line2d_3-6"
             style="stroke-linecap:butt;stroke-linejoin:round" />
        </g>
        <g
           id="text_1-5"
           style="stroke-linecap:butt;stroke-linejoin:round">
          <!-- B C -->
          <defs
             id="defs4880">
            <path
               id="CMR17-66"
               d="m 5.203125,68 0,-2.59375 c 6.890625,0 8,0 8,-4.46875 l 0,-53.875 c 0,-4.46875 -1.109375,-4.46875 -8,-4.46875 L 5.203125,0 39.59375,0 c 12.8125,0 21.109375,9.109375 21.109375,18.1875 0,9.015625 -8.203125,16.703125 -18.90625,16.703125 C 51.40625,36.8125 58.09375,43.296875 58.09375,51 58.09375,59.40625 49.90625,68 37,68 Z M 19.5,36 l 0,25.515625 c 0,3.40625 0.203125,3.890625 4.203125,3.890625 l 12.796875,0 c 9.90625,0 14.296875,-8 14.296875,-14.203125 C 50.796875,43.609375 44.703125,36 33.90625,36 Z M 23.703125,2.59375 c -4,0 -4.203125,0.484375 -4.203125,3.859375 l 0,27.953125 18.5,0 c 10.296875,0 15.296875,-9.015625 15.296875,-16.25 0,-7.234375 -5.703125,-15.5625 -16.59375,-15.5625 z"
               inkscape:connector-curvature="0"
               style="stroke-linecap:butt;stroke-linejoin:round" />
            <path
               id="CMR17-67"
               d="m 62.09375,67.015625 c 0,1.78125 -0.09375,1.890625 -0.6875,1.890625 -0.40625,0 -0.5,-0.109375 -1.203125,-1.296875 L 55.796875,59.25 C 50.90625,65.421875 44.90625,69 37.203125,69 20.09375,69 4.59375,54 4.59375,33.5625 4.59375,12.90625 20.09375,-2 37.296875,-2 52.59375,-2 62.09375,11.40625 62.09375,22.828125 c 0,0.984375 0,1.390625 -0.890625,1.390625 -0.796875,0 -0.796875,-0.296875 -0.90625,-1.1875 C 59.5,9.140625 49.5,0.59375 38.703125,0.59375 c -10.203125,0 -26.5,7.140625 -26.5,32.953125 0,25.90625 16.59375,32.859375 26.296875,32.859375 11.296875,0 19.5,-9.71875 21.40625,-23.515625 0.1875,-1.203125 0.1875,-1.40625 1.09375,-1.40625 1.09375,0 1.09375,0.203125 1.09375,2 z"
               inkscape:connector-curvature="0"
               style="stroke-linecap:butt;stroke-linejoin:round" />
          </defs>
          <g
             id="g4884"
             transform="matrix(0.11,0,0,-0.11,15.534836,54.810347)"
             style="fill:#262626;stroke-linecap:butt;stroke-linejoin:round">
            <use
               id="use4886"
               xlink:href="#CMR17-66"
               transform="scale(0.996264,0.996264)"
               style="stroke-linecap:butt;stroke-linejoin:round"
               x="0"
               y="0"
               width="100%"
               height="100%" />
            <use
               id="use4888"
               xlink:href="#CMR17-67"
               transform="matrix(0.996264,0,0,0.996264,95.264721,0)"
               style="stroke-linecap:butt;stroke-linejoin:round"
               x="0"
               y="0"
               width="100%"
               height="100%" />
          </g>
        </g>
      </g>
      <g
         id="matplotlib.axis_2-6"
         style="stroke-linecap:butt;stroke-linejoin:round">
        <g
           id="ytick_1-9"
           style="stroke-linecap:butt;stroke-linejoin:round">
          <g
             id="line2d_4-3"
             style="stroke-linecap:butt;stroke-linejoin:round" />
        </g>
        <g
           id="ytick_2-7"
           style="stroke-linecap:butt;stroke-linejoin:round">
          <g
             id="line2d_5-4"
             style="stroke-linecap:butt;stroke-linejoin:round" />
        </g>
      </g>
      <g
         id="patch_3-5"
         style="stroke-linecap:butt;stroke-linejoin:round">
        <path
           id="path4896"
           style="fill:#55a868;stroke:#55a868;stroke-width:0.30000001;stroke-linecap:butt;stroke-linejoin:miter"
           d="m 8.4,43.2 -1.2,0 0,-5.370353 1.2,0 z"
           clip-path="url(#pd026583ffd)"
           inkscape:connector-curvature="0" />
      </g>
      <g
         id="patch_4-2"
         style="stroke-linecap:butt;stroke-linejoin:round">
        <path
           id="path4899"
           style="fill:#55a868;stroke:#55a868;stroke-width:0.30000001;stroke-linecap:butt;stroke-linejoin:miter"
           d="m 9.6,43.2 -1.2,0 0,-5.531294 1.2,0 z"
           clip-path="url(#pd026583ffd)"
           inkscape:connector-curvature="0" />
      </g>
      <g
         id="patch_5"
         style="stroke-linecap:butt;stroke-linejoin:round">
        <path
           id="path4902"
           style="fill:#55a868;stroke:#55a868;stroke-width:0.30000001;stroke-linecap:butt;stroke-linejoin:miter"
           d="m 10.8,43.2 -1.2,0 0,-5.425412 1.2,0 z"
           clip-path="url(#pd026583ffd)"
           inkscape:connector-curvature="0" />
      </g>
      <g
         id="patch_6"
         style="stroke-linecap:butt;stroke-linejoin:round">
        <path
           id="path4905"
           style="fill:#55a868;stroke:#55a868;stroke-width:0.30000001;stroke-linecap:butt;stroke-linejoin:miter"
           d="m 12,43.2 -1.2,0 0,-5.442353 1.2,0 z"
           clip-path="url(#pd026583ffd)"
           inkscape:connector-curvature="0" />
      </g>
      <g
         id="patch_7"
         style="stroke-linecap:butt;stroke-linejoin:round">
        <path
           id="path4908"
           style="fill:#55a868;stroke:#55a868;stroke-width:0.30000001;stroke-linecap:butt;stroke-linejoin:miter"
           d="m 13.2,43.2 -1.2,0 0,-5.264471 1.2,0 z"
           clip-path="url(#pd026583ffd)"
           inkscape:connector-curvature="0" />
      </g>
      <g
         id="patch_8"
         style="stroke-linecap:butt;stroke-linejoin:round">
        <path
           id="path4911"
           style="fill:#55a868;stroke:#55a868;stroke-width:0.30000001;stroke-linecap:butt;stroke-linejoin:miter"
           d="m 14.4,43.2 -1.2,0 0,-5.205176 1.2,0 z"
           clip-path="url(#pd026583ffd)"
           inkscape:connector-curvature="0" />
      </g>
      <g
         id="patch_9"
         style="stroke-linecap:butt;stroke-linejoin:round">
        <path
           id="path4914"
           style="fill:#55a868;stroke:#55a868;stroke-width:0.30000001;stroke-linecap:butt;stroke-linejoin:miter"
           d="m 15.6,43.2 -1.2,0 0,-5.010353 1.2,0 z"
           clip-path="url(#pd026583ffd)"
           inkscape:connector-curvature="0" />
      </g>
      <g
         id="patch_10"
         style="stroke-linecap:butt;stroke-linejoin:round">
        <path
           id="path4917"
           style="fill:#55a868;stroke:#55a868;stroke-width:0.30000001;stroke-linecap:butt;stroke-linejoin:miter"
           d="m 16.8,43.2 -1.2,0 0,-4.976471 1.2,0 z"
           clip-path="url(#pd026583ffd)"
           inkscape:connector-curvature="0" />
      </g>
      <g
         id="patch_11"
         style="stroke-linecap:butt;stroke-linejoin:round">
        <path
           id="path4920"
           style="fill:#55a868;stroke:#55a868;stroke-width:0.30000001;stroke-linecap:butt;stroke-linejoin:miter"
           d="m 18,43.2 -1.2,0 0,-5.090824 1.2,0 z"
           clip-path="url(#pd026583ffd)"
           inkscape:connector-curvature="0" />
      </g>
      <g
         id="patch_12"
         style="stroke-linecap:butt;stroke-linejoin:round">
        <path
           id="path4923"
           style="fill:#55a868;stroke:#55a868;stroke-width:0.30000001;stroke-linecap:butt;stroke-linejoin:miter"
           d="m 19.2,43.2 -1.2,0 0,-5.510118 1.2,0 z"
           clip-path="url(#pd026583ffd)"
           inkscape:connector-curvature="0" />
      </g>
      <g
         id="patch_13"
         style="stroke-linecap:butt;stroke-linejoin:round">
        <path
           id="path4926"
           style="fill:#55a868;stroke:#55a868;stroke-width:0.30000001;stroke-linecap:butt;stroke-linejoin:miter"
           d="m 20.4,43.2 -1.2,0 0,-5.069647 1.2,0 z"
           clip-path="url(#pd026583ffd)"
           inkscape:connector-curvature="0" />
      </g>
      <g
         id="patch_14"
         style="stroke-linecap:butt;stroke-linejoin:round">
        <path
           id="path4929"
           style="fill:#55a868;stroke:#55a868;stroke-width:0.30000001;stroke-linecap:butt;stroke-linejoin:miter"
           d="m 21.6,43.2 -1.2,0 0,-5.476235 1.2,0 z"
           clip-path="url(#pd026583ffd)"
           inkscape:connector-curvature="0" />
      </g>
      <g
         id="patch_15"
         style="stroke-linecap:butt;stroke-linejoin:round">
        <path
           id="path4932"
           style="fill:#55a868;stroke:#55a868;stroke-width:0.30000001;stroke-linecap:butt;stroke-linejoin:miter"
           d="m 22.8,43.2 -1.2,0 0,-5.200941 1.2,0 z"
           clip-path="url(#pd026583ffd)"
           inkscape:connector-curvature="0" />
      </g>
      <g
         id="patch_16"
         style="stroke-linecap:butt;stroke-linejoin:round">
        <path
           id="path4935"
           style="fill:#55a868;stroke:#55a868;stroke-width:0.30000001;stroke-linecap:butt;stroke-linejoin:miter"
           d="m 24,43.2 -1.2,0 0,-5.213647 1.2,0 z"
           clip-path="url(#pd026583ffd)"
           inkscape:connector-curvature="0" />
      </g>
      <g
         id="patch_17"
         style="stroke-linecap:butt;stroke-linejoin:round">
        <path
           id="path4938"
           style="fill:#55a868;stroke:#55a868;stroke-width:0.30000001;stroke-linecap:butt;stroke-linejoin:miter"
           d="m 25.2,43.2 -1.2,0 0,-4.866353 1.2,0 z"
           clip-path="url(#pd026583ffd)"
           inkscape:connector-curvature="0" />
      </g>
      <g
         id="patch_18"
         style="stroke-linecap:butt;stroke-linejoin:round">
        <path
           id="path4941"
           style="fill:#c44e52;stroke:#c44e52;stroke-width:0.30000001;stroke-linecap:butt;stroke-linejoin:miter"
           d="m 26.4,43.2 -1.2,0 0,-4.908706 1.2,0 z"
           clip-path="url(#pd026583ffd)"
           inkscape:connector-curvature="0" />
      </g>
      <g
         id="patch_19"
         style="stroke-linecap:butt;stroke-linejoin:round">
        <path
           id="path4944"
           style="fill:#c44e52;stroke:#c44e52;stroke-width:0.30000001;stroke-linecap:butt;stroke-linejoin:miter"
           d="m 27.6,43.2 -1.2,0 0,-6.700235 1.2,0 z"
           clip-path="url(#pd026583ffd)"
           inkscape:connector-curvature="0" />
      </g>
      <g
         id="patch_20"
         style="stroke-linecap:butt;stroke-linejoin:round">
        <path
           id="path4947"
           style="fill:#c44e52;stroke:#c44e52;stroke-width:0.30000001;stroke-linecap:butt;stroke-linejoin:miter"
           d="m 28.8,43.2 -1.2,0 0,-27.609882 1.2,0 z"
           clip-path="url(#pd026583ffd)"
           inkscape:connector-curvature="0" />
      </g>
      <g
         id="patch_21"
         style="stroke-linecap:butt;stroke-linejoin:round">
        <path
           id="path4950"
           style="fill:#c44e52;stroke:#c44e52;stroke-width:0.30000001;stroke-linecap:butt;stroke-linejoin:miter"
           d="m 30,43.2 -1.2,0 0,-34.022118 1.2,0 z"
           clip-path="url(#pd026583ffd)"
           inkscape:connector-curvature="0" />
      </g>
      <g
         id="patch_22"
         style="stroke-linecap:butt;stroke-linejoin:round">
        <path
           id="path4953"
           style="fill:#c44e52;stroke:#c44e52;stroke-width:0.30000001;stroke-linecap:butt;stroke-linejoin:miter"
           d="m 31.2,43.2 -1.2,0 0,-24.213176 1.2,0 z"
           clip-path="url(#pd026583ffd)"
           inkscape:connector-curvature="0" />
      </g>
      <g
         id="patch_23"
         style="stroke-linecap:butt;stroke-linejoin:round">
        <path
           id="path4956"
           style="fill:#c44e52;stroke:#c44e52;stroke-width:0.30000001;stroke-linecap:butt;stroke-linejoin:miter"
           d="m 32.4,43.2 -1.2,0 0,-15.323294 1.2,0 z"
           clip-path="url(#pd026583ffd)"
           inkscape:connector-curvature="0" />
      </g>
      <g
         id="patch_24"
         style="stroke-linecap:butt;stroke-linejoin:round">
        <path
           id="path4959"
           style="fill:#c44e52;stroke:#c44e52;stroke-width:0.30000001;stroke-linecap:butt;stroke-linejoin:miter"
           d="m 33.6,43.2 -1.2,0 0,-11.473412 1.2,0 z"
           clip-path="url(#pd026583ffd)"
           inkscape:connector-curvature="0" />
      </g>
      <g
         id="patch_25"
         style="stroke-linecap:butt;stroke-linejoin:round">
        <path
           id="path4962"
           style="fill:#c44e52;stroke:#c44e52;stroke-width:0.30000001;stroke-linecap:butt;stroke-linejoin:miter"
           d="m 34.8,43.2 -1.2,0 0,-8.707765 1.2,0 z"
           clip-path="url(#pd026583ffd)"
           inkscape:connector-curvature="0" />
      </g>
      <g
         id="patch_26"
         style="stroke-linecap:butt;stroke-linejoin:round">
        <path
           id="path4965"
           style="fill:#c44e52;stroke:#c44e52;stroke-width:0.30000001;stroke-linecap:butt;stroke-linejoin:miter"
           d="m 36,43.2 -1.2,0 0,-7.763294 1.2,0 z"
           clip-path="url(#pd026583ffd)"
           inkscape:connector-curvature="0" />
      </g>
      <g
         id="patch_27"
         style="stroke-linecap:butt;stroke-linejoin:round">
        <path
           id="path4968"
           style="fill:#c44e52;stroke:#c44e52;stroke-width:0.30000001;stroke-linecap:butt;stroke-linejoin:miter"
           d="m 37.2,43.2 -1.2,0 0,-6.458824 1.2,0 z"
           clip-path="url(#pd026583ffd)"
           inkscape:connector-curvature="0" />
      </g>
      <g
         id="patch_28"
         style="stroke-linecap:butt;stroke-linejoin:round">
        <path
           id="path4971"
           style="fill:#c44e52;stroke:#c44e52;stroke-width:0.30000001;stroke-linecap:butt;stroke-linejoin:miter"
           d="m 38.4,43.2 -1.2,0 0,-5.950588 1.2,0 z"
           clip-path="url(#pd026583ffd)"
           inkscape:connector-curvature="0" />
      </g>
      <g
         id="patch_29"
         style="stroke-linecap:butt;stroke-linejoin:round">
        <path
           id="path4974"
           style="fill:#c44e52;stroke:#c44e52;stroke-width:0.30000001;stroke-linecap:butt;stroke-linejoin:miter"
           d="m 39.6,43.2 -1.2,0 0,-5.747294 1.2,0 z"
           clip-path="url(#pd026583ffd)"
           inkscape:connector-curvature="0" />
      </g>
      <g
         id="patch_30"
         style="stroke-linecap:butt;stroke-linejoin:round">
        <path
           id="path4977"
           style="fill:#c44e52;stroke:#c44e52;stroke-width:0.30000001;stroke-linecap:butt;stroke-linejoin:miter"
           d="m 40.8,43.2 -1.2,0 0,-5.294118 1.2,0 z"
           clip-path="url(#pd026583ffd)"
           inkscape:connector-curvature="0" />
      </g>
      <g
         id="patch_31"
         style="stroke-linecap:butt;stroke-linejoin:round">
        <path
           id="path4980"
           style="fill:#c44e52;stroke:#c44e52;stroke-width:0.30000001;stroke-linecap:butt;stroke-linejoin:miter"
           d="m 42,43.2 -1.2,0 0,-5.061176 1.2,0 z"
           clip-path="url(#pd026583ffd)"
           inkscape:connector-curvature="0" />
      </g>
      <g
         id="patch_32"
         style="stroke-linecap:butt;stroke-linejoin:round">
        <path
           id="path4983"
           style="fill:#c44e52;stroke:#c44e52;stroke-width:0.30000001;stroke-linecap:butt;stroke-linejoin:miter"
           d="m 43.2,43.2 -1.2,0 0,-5.027294 1.2,0 z"
           clip-path="url(#pd026583ffd)"
           inkscape:connector-curvature="0" />
      </g>
    </g>
  </g>
  <g
     transform="translate(56.426948,0.72510432)"
     style="stroke-linecap:butt;stroke-linejoin:round"
     id="line2d_9">
    <path
       inkscape:connector-curvature="0"
       id="path122"
       style="fill:none;stroke:#55a868;stroke-width:4;stroke-linecap:round;stroke-linejoin:round"
       d="m 81.794374,23.752288 21.999996,0" />
  </g>
  <g
     transform="translate(55.592844,0.72510432)"
     style="stroke-linecap:butt;stroke-linejoin:round"
     id="text_6-3">
    <!-- $\hat\beta_{BC}$ -->
    <defs
       id="defs126">
      <path
         style="stroke-linecap:butt;stroke-linejoin:round"
         inkscape:connector-curvature="0"
         id="CMR17-94-6"
         d="M 22.90625,69.078125 10.59375,55.546875 11.796875,54.34375 22.90625,65.09375 34,54.34375 35.203125,55.546875 Z" />
      <path
         style="stroke-linecap:butt;stroke-linejoin:round"
         inkscape:connector-curvature="0"
         id="CMMI12-12-7"
         d="M 56.59375,57.828125 C 56.59375,63.765625 51.5,70 42.40625,70 29.5,70 21.296875,54.328125 18.703125,44 L 2.90625,-18.3125 c -0.203125,-0.796875 0.390625,-1 0.890625,-1 0.703125,0 1.203125,0.09375 1.296875,0.59375 l 7,27.875 C 13.09375,3.578125 18.59375,-1 24.5,-1 c 14.296875,0 27.796875,11.15625 27.796875,25.984375 0,3.78125 -0.890625,7.5625 -3,10.75 C 48.09375,37.625 46.59375,39.015625 45,40.21875 52.203125,43.984375 56.59375,50 56.59375,57.828125 Z M 39.203125,40.3125 C 37.59375,39.71875 36,39.515625 34.09375,39.515625 c -1.390625,0 -2.6875,-0.09375 -4.5,0.5 1,0.703125 2.5,0.890625 4.609375,0.890625 1.796875,0 3.59375,-0.1875 5,-0.59375 z M 51.40625,58.71875 c 0,-5.4375 -2.703125,-13.359375 -9.203125,-17.015625 C 40.296875,42.46875 37.703125,43 35.5,43 c -2.09375,0 -8.09375,0 -8.09375,-3.078125 0,-2.59375 5.5,-2.59375 7.1875,-2.59375 2.609375,0 4.90625,0.671875 7.3125,1.484375 C 45.09375,36.21875 46.5,32.828125 46.5,27.859375 46.5,22.078125 44.90625,17.421875 43,13.140625 39.703125,5.765625 31.90625,1 25,1 17.703125,1 13.90625,6.75 13.90625,13.5 c 0,0.90625 0,2.203125 0.390625,3.671875 l 6.5,26.125 c 3.296875,13 11.703125,24.71875 21.40625,24.71875 7.203125,0 9.203125,-4.953125 9.203125,-9.296875 z" />
      <path
         style="stroke-linecap:butt;stroke-linejoin:round"
         inkscape:connector-curvature="0"
         id="CMMI12-66"
         d="M 36.59375,61.265625 C 37.5,65 37.90625,65 41.796875,65 l 13,0 C 66.09375,65 66.09375,55.375 66.09375,54.453125 66.09375,46.34375 58,36 44.796875,36 L 30.40625,36 Z M 53.5,35.546875 C 64.40625,37.53125 74.296875,45.09375 74.296875,54.265625 74.296875,62.03125 67.40625,68 56.09375,68 L 24,68 C 22.09375,68 21.203125,68 21.203125,66.03125 21.203125,65 22.09375,65 23.59375,65 c 6.109375,0 6.109375,-0.75 6.109375,-1.8125 0,-0.1875 0,-0.796875 -0.40625,-2.296875 L 15.796875,7.375 C 14.90625,3.890625 14.703125,2.890625 7.703125,2.890625 c -1.90625,0 -2.90625,0 -2.90625,-1.796875 C 4.796875,0 5.40625,0 7.40625,0 L 41.703125,0 C 57,0 68.796875,11.546875 68.796875,21.609375 68.796875,29.78125 61.59375,34.75 53.5,35.546875 Z m -14.203125,-32.65625 -13.5,0 c -1.390625,0 -1.59375,0 -2.203125,0.109375 -1.09375,0.09375 -1.1875,0.296875 -1.1875,1.078125 0,0.6875 0.1875,1.28125 0.390625,2.15625 l 7,27.765625 18.796875,0 c 11.8125,0 11.8125,-10.828125 11.8125,-11.609375 0,-9.453125 -8.703125,-19.5 -21.109375,-19.5 z" />
      <path
         style="stroke-linecap:butt;stroke-linejoin:round"
         inkscape:connector-curvature="0"
         id="CMMI12-67"
         d="M 74.703125,69.109375 C 74.703125,70 74,70 73.796875,70 73.59375,70 73.203125,70 72.40625,69 L 65.5,60.65625 C 62,66.625 56.5,70 49,70 27.40625,70 5,48.25 5,24.921875 5,8.328125 16.703125,-2 31.296875,-2 c 8,0 15,3.375 20.796875,8.25 8.703125,7.234375 11.3125,16.890625 11.3125,17.671875 0,0.890625 -0.8125,0.890625 -1.109375,0.890625 -0.890625,0 -1,-0.59375 -1.203125,-1 C 56.5,8.34375 43,0.890625 33,0.890625 c -10.59375,0 -19.796875,6.75 -19.796875,20.84375 0,3.1875 1,20.453125 12.296875,33.453125 5.5,6.359375 14.90625,11.921875 24.40625,11.921875 11,0 15.890625,-9.03125 15.890625,-19.171875 0,-2.578125 -0.296875,-4.75 -0.296875,-5.15625 0,-0.890625 1,-0.890625 1.296875,-0.890625 1.109375,0 1.203125,0.09375 1.609375,1.875 z" />
    </defs>
    <g
       id="g132"
       transform="matrix(0.11,0,0,-0.11,112.59437,27.602288)"
       style="fill:#262626;stroke-linecap:butt;stroke-linejoin:round">
      <use
         height="100%"
         width="100%"
         y="0"
         x="0"
         style="stroke-linecap:butt;stroke-linejoin:round"
         id="use134-5"
         xlink:href="#CMR17-94-6"
         transform="matrix(0.996264,0,0,0.996264,15.58093,41.240535)" />
      <use
         height="100%"
         width="100%"
         y="0"
         x="0"
         style="stroke-linecap:butt;stroke-linejoin:round"
         id="use136"
         xlink:href="#CMMI12-12-7"
         transform="matrix(0.996264,0,0,0.996264,0,14.943915)" />
      <use
         height="100%"
         width="100%"
         y="0"
         x="0"
         style="stroke-linecap:butt;stroke-linejoin:round"
         id="use138"
         xlink:href="#CMMI12-66"
         transform="matrix(0.697382,0,0,0.697382,55.070737,0)" />
      <use
         height="100%"
         width="100%"
         y="0"
         x="0"
         style="stroke-linecap:butt;stroke-linejoin:round"
         id="use140"
         xlink:href="#CMMI12-67"
         transform="matrix(0.697382,0,0,0.697382,110.46536,0)" />
    </g>
  </g>
</svg>
