<?xml version="1.0" encoding="UTF-8" standalone="no"?>
<!-- Created with Inkscape (http://www.inkscape.org/) -->

<svg
   xmlns:dc="http://purl.org/dc/elements/1.1/"
   xmlns:cc="http://creativecommons.org/ns#"
   xmlns:rdf="http://www.w3.org/1999/02/22-rdf-syntax-ns#"
   xmlns:svg="http://www.w3.org/2000/svg"
   xmlns="http://www.w3.org/2000/svg"
   xmlns:xlink="http://www.w3.org/1999/xlink"
   xmlns:sodipodi="http://sodipodi.sourceforge.net/DTD/sodipodi-0.dtd"
   xmlns:inkscape="http://www.inkscape.org/namespaces/inkscape"
   width="126.492mm"
   height="150.66962mm"
   viewBox="0 0 448.20003 533.86887"
   id="svg2"
   version="1.1"
   inkscape:version="0.92.4 (unknown)"
   sodipodi:docname="fig_1.svg"
   inkscape:export-filename="/home/mikkel/Dropbox/scripting/python/causal-opto-connecto/manuscript/simple.png"
   inkscape:export-xdpi="300"
   inkscape:export-ydpi="300">
  <defs
     id="defs4">
    <linearGradient
       inkscape:collect="always"
       id="linearGradient967">
      <stop
         style="stop-color:#000000;stop-opacity:1;"
         offset="0"
         id="stop963" />
      <stop
         style="stop-color:#000000;stop-opacity:0;"
         offset="1"
         id="stop965" />
    </linearGradient>
    <marker
       inkscape:stockid="Arrow1Mend"
       orient="auto"
       refY="0"
       refX="0"
       id="Arrow1Mend"
       style="overflow:visible"
       inkscape:isstock="true">
      <path
         id="path4203"
         d="M 0,0 5,-5 -12.5,0 5,5 Z"
         style="fill:#000000;fill-opacity:1;fill-rule:evenodd;stroke:#000000;stroke-width:1.00000003pt;stroke-opacity:1"
         transform="matrix(-0.4,0,0,-0.4,-4,0)"
         inkscape:connector-curvature="0" />
    </marker>
    <marker
       inkscape:stockid="Arrow1Lend"
       orient="auto"
       refY="0"
       refX="0"
       id="Arrow1Lend"
       style="overflow:visible"
       inkscape:isstock="true">
      <path
         id="path4197"
         d="M 0,0 5,-5 -12.5,0 5,5 Z"
         style="fill:#000000;fill-opacity:1;fill-rule:evenodd;stroke:#000000;stroke-width:1.00000003pt;stroke-opacity:1"
         transform="matrix(-0.8,0,0,-0.8,-10,0)"
         inkscape:connector-curvature="0" />
    </marker>
    <marker
       inkscape:stockid="Arrow1Lstart"
       orient="auto"
       refY="0"
       refX="0"
       id="marker4516"
       style="overflow:visible"
       inkscape:isstock="true">
      <path
         id="path4518"
         d="M 0,0 5,-5 -12.5,0 5,5 Z"
         style="fill:#000000;fill-opacity:1;fill-rule:evenodd;stroke:#000000;stroke-width:1.00000003pt;stroke-opacity:1"
         transform="matrix(0.8,0,0,0.8,10,0)"
         inkscape:connector-curvature="0" />
    </marker>
    <marker
       inkscape:stockid="Arrow1Lstart"
       orient="auto"
       refY="0"
       refX="0"
       id="Arrow1Lstart"
       style="overflow:visible"
       inkscape:isstock="true">
      <path
         id="path4194"
         d="M 0,0 5,-5 -12.5,0 5,5 Z"
         style="fill:#000000;fill-opacity:1;fill-rule:evenodd;stroke:#000000;stroke-width:1.00000003pt;stroke-opacity:1"
         transform="matrix(0.8,0,0,0.8,10,0)"
         inkscape:connector-curvature="0" />
    </marker>
    <linearGradient
       id="linearGradient5009">
      <stop
         id="stop5011"
         offset="0"
         style="stop-color:#1a1b1f;stop-opacity:1;" />
      <stop
         style="stop-color:#7e7e81;stop-opacity:1;"
         offset="0"
         id="stop5013" />
      <stop
         id="stop5015"
         offset="0.00000007"
         style="stop-color:#c7c9cb;stop-opacity:1;" />
      <stop
         id="stop5019"
         offset="0.67030871"
         style="stop-color:#555758;stop-opacity:1;" />
      <stop
         style="stop-color:#bbb9b5;stop-opacity:1;"
         offset="0.99999988"
         id="stop5021" />
      <stop
         id="stop5023"
         offset="1"
         style="stop-color:#949696;stop-opacity:1;" />
    </linearGradient>
    <linearGradient
       inkscape:collect="always"
       id="linearGradient4174">
      <stop
         style="stop-color:#00ffff;stop-opacity:1;"
         offset="0"
         id="stop4176" />
      <stop
         style="stop-color:#00ffff;stop-opacity:0;"
         offset="1"
         id="stop4178" />
    </linearGradient>
    <linearGradient
       inkscape:collect="always"
       xlink:href="#linearGradient4174"
       id="linearGradient4180"
       x1="605.71429"
       y1="733.79077"
       x2="435.06461"
       y2="565.51727"
       gradientUnits="userSpaceOnUse"
       gradientTransform="matrix(-0.35827798,0,0,-0.35827798,552.86082,678.62082)" />
    <linearGradient
       id="linearGradient4103">
      <stop
         style="stop-color:#1a1b1f;stop-opacity:1;"
         offset="0"
         id="stop4105" />
      <stop
         id="stop2163"
         offset="0.27772233"
         style="stop-color:#7e7e81;stop-opacity:1;" />
      <stop
         style="stop-color:#c7c9cb;stop-opacity:1;"
         offset="0.52451456"
         id="stop2165" />
      <stop
         id="stop2167"
         offset="0.66530502"
         style="stop-color:#f2f2f2;stop-opacity:1;" />
      <stop
         style="stop-color:#555758;stop-opacity:1;"
         offset="0.71358037"
         id="stop2169" />
      <stop
         id="stop2171"
         offset="0.87631881"
         style="stop-color:#bbb9b5;stop-opacity:1;" />
      <stop
         style="stop-color:#949696;stop-opacity:1;"
         offset="1"
         id="stop4107" />
    </linearGradient>
    <linearGradient
       inkscape:collect="always"
       xlink:href="#linearGradient4103"
       id="linearGradient4913"
       x1="166.35921"
       y1="791.67285"
       x2="166.42578"
       y2="798.26331"
       gradientUnits="userSpaceOnUse"
       gradientTransform="translate(-8.521,14.512328)" />
    <linearGradient
       inkscape:collect="always"
       xlink:href="#linearGradient4103"
       id="linearGradient4931"
       x1="165.34485"
       y1="791.84479"
       x2="165.21388"
       y2="794.77386"
       gradientUnits="userSpaceOnUse"
       spreadMethod="reflect"
       gradientTransform="translate(-8.521,14.512328)" />
    <radialGradient
       inkscape:collect="always"
       xlink:href="#linearGradient5009"
       id="radialGradient5065"
       cx="586.04224"
       cy="666.711"
       fx="586.04224"
       fy="666.711"
       r="121.07143"
       gradientTransform="matrix(0.31373904,0.261173,-3.2848908,3.946624,2363.4642,-2385.8465)"
       gradientUnits="userSpaceOnUse" />
    <radialGradient
       inkscape:collect="always"
       xlink:href="#linearGradient967"
       id="radialGradient969"
       cx="-78.37236"
       cy="546.20721"
       fx="-78.37236"
       fy="546.20721"
       r="21.414242"
       gradientTransform="matrix(-2.9735651,-2.8090152,1.4497709,-1.5346858,-691.25154,1033.5755)"
       gradientUnits="userSpaceOnUse" />
  </defs>
  <sodipodi:namedview
     id="base"
     pagecolor="#ffffff"
     bordercolor="#666666"
     borderopacity="1.0"
     inkscape:pageopacity="0.0"
     inkscape:pageshadow="2"
     inkscape:zoom="0.50000002"
     inkscape:cx="-176.39772"
     inkscape:cy="395.03962"
     inkscape:document-units="px"
     inkscape:current-layer="layer1"
     showgrid="false"
     inkscape:window-width="1873"
     inkscape:window-height="1176"
     inkscape:window-x="47"
     inkscape:window-y="24"
     inkscape:window-maximized="1"
     fit-margin-top="0"
     fit-margin-left="0"
     fit-margin-right="0"
     fit-margin-bottom="0"
     inkscape:snap-global="false" />
  <metadata
     id="metadata7">
    <rdf:RDF>
      <cc:Work
         rdf:about="">
        <dc:format>image/svg+xml</dc:format>
        <dc:type
           rdf:resource="http://purl.org/dc/dcmitype/StillImage" />
        <dc:title></dc:title>
      </cc:Work>
    </rdf:RDF>
  </metadata>
  <g
     inkscape:groupmode="layer"
     id="layer3"
     inkscape:label="connections"
     transform="translate(-176.87358,-340.84773)" />
  <g
     inkscape:label="network"
     inkscape:groupmode="layer"
     id="layer1"
     transform="translate(-176.87358,-340.84773)">
    <flowRoot
       xml:space="preserve"
       id="flowRoot4253"
       style="font-style:normal;font-weight:normal;line-height:0.01%;font-family:sans-serif;letter-spacing:0px;word-spacing:0px;fill:#4c72b0;fill-opacity:1;stroke:none;stroke-width:1px;stroke-linecap:butt;stroke-linejoin:miter;stroke-opacity:1"
       transform="matrix(-0.35827798,0,0,0.35827798,459.39226,334.17014)"><flowRegion
         id="flowRegion4255"><rect
           id="rect4257"
           width="52.753281"
           height="55.637646"
           x="97.580734"
           y="278.3606"
           style="fill:#4c72b0;fill-opacity:1" /></flowRegion><flowPara
         id="flowPara4259"
         style="font-style:normal;font-variant:normal;font-weight:normal;font-stretch:normal;font-size:34.88912201px;line-height:1.25;font-family:'CMU serif';-inkscape-font-specification:'CMU serif';fill:#000000;fill-opacity:1">A</flowPara></flowRoot>    <flowRoot
       xml:space="preserve"
       id="flowRoot4253-3"
       style="font-style:normal;font-weight:normal;line-height:0.01%;font-family:sans-serif;letter-spacing:0px;word-spacing:0px;fill:#55a868;fill-opacity:1;stroke:none;stroke-width:1px;stroke-linecap:butt;stroke-linejoin:miter;stroke-opacity:1"
       transform="matrix(0.35827798,0,0,0.35827798,349.93163,369.08336)"><flowRegion
         id="flowRegion4255-5"><rect
           id="rect4257-6"
           width="66.708931"
           height="47.264259"
           x="97.580734"
           y="278.3606"
           style="fill:#55a868;fill-opacity:1" /></flowRegion><flowPara
         id="flowPara4259-2"
         style="font-style:normal;font-variant:normal;font-weight:normal;font-stretch:normal;font-size:34.88912201px;line-height:1.25;font-family:'CMU serif';-inkscape-font-specification:'CMU serif';fill:#000000;fill-opacity:1">B</flowPara></flowRoot>    <flowRoot
       xml:space="preserve"
       id="flowRoot4253-9"
       style="font-style:normal;font-weight:normal;line-height:0.01%;font-family:sans-serif;letter-spacing:0px;word-spacing:0px;fill:#c44e52;fill-opacity:1;stroke:none;stroke-width:1px;stroke-linecap:butt;stroke-linejoin:miter;stroke-opacity:1"
       transform="matrix(0.35827798,0,0,0.35827798,418.44331,381.31082)"><flowRegion
         id="flowRegion4255-1"><rect
           id="rect4257-2"
           width="33.215374"
           height="52.846519"
           x="97.580734"
           y="278.3606"
           style="fill:#c44e52;fill-opacity:1" /></flowRegion><flowPara
         id="flowPara4259-7"
         style="font-style:normal;font-variant:normal;font-weight:normal;font-stretch:normal;font-size:34.88912201px;line-height:1.25;font-family:'CMU serif';-inkscape-font-specification:'CMU serif';fill:#000000;fill-opacity:1">C</flowPara></flowRoot>    <g
       id="g1116"
       transform="matrix(0.99988508,0,0,1.1194201,0.04851346,-51.978472)"
       style="fill:#1b9e77;fill-opacity:1;stroke:#1b9e77;stroke-opacity:1">
      <path
         sodipodi:nodetypes="cssssssssssssscccssssssssssssssssssssscccsssssssssssssssssssssssssssssssssssssssssssssssssssssssssssssssssssssssssssssssssscccssssssssssssssssssssssssssssssssccssssssssssscccccccccsscccsccssssc"
         id="path2408"
         d="m 434.9832,482.58079 c -0.01,-0.0738 0.31776,-0.20958 0.72701,-0.3017 0.70073,-0.15768 0.77486,-0.20752 1.27218,-0.85514 0.6063,-0.78958 0.97273,-1.68662 0.95044,-2.32695 -0.0271,-0.77762 -0.33429,-2.16007 -0.57782,-2.60015 -0.12962,-0.23423 -0.4546,-0.97495 -0.72219,-1.64608 -0.56563,-1.41856 -1.27999,-2.80098 -2.27434,-4.40126 -0.38914,-0.62627 -0.97097,-1.56846 -1.29293,-2.09372 -0.70687,-1.15317 -2.94791,-4.09743 -4.69741,-6.1714 -0.74905,-0.88799 -1.03514,-1.15684 -2.11133,-1.98422 -0.79685,-0.61261 -1.85235,-1.32908 -2.93314,-1.99043 -0.92855,-0.56832 -2.20981,-1.35756 -2.84724,-1.75383 -0.63744,-0.39626 -1.32567,-0.79183 -1.52942,-0.87905 -0.20374,-0.0872 -0.53124,-0.27466 -0.72775,-0.41656 -0.19651,-0.14191 -0.93327,-0.48848 -1.63724,-0.77017 l -1.27996,-0.51214 -1.83691,-1.38348 c -3.09618,-2.3319 -3.53529,-2.42999 -4.57371,-1.02147 -0.53234,0.722 -0.53935,0.74496 -0.53246,1.73887 0.009,1.21471 0.37128,2.35732 1.12684,3.54811 0.5539,0.87294 0.63294,1.20206 0.17758,0.73922 -0.31039,-0.31546 -1.05999,-1.53978 -1.30567,-2.13255 -0.30901,-0.74555 -0.5024,-1.85726 -0.49174,-2.82696 0.0126,-1.15353 -0.18122,-1.60342 -0.87386,-2.02768 -0.67997,-0.41652 -1.30574,-0.47766 -2.43423,-0.23794 -0.84468,0.17943 -1.01734,0.26514 -1.44216,0.71594 -0.63807,0.67708 -0.92327,0.82495 -1.5482,0.80271 -0.62008,-0.022 -1.34999,-0.30521 -2.32855,-0.90326 -0.58595,-0.35812 -0.69411,-0.45082 -0.59266,-0.50767 0.14074,-0.0789 0.43698,0.0414 1.4291,0.5804 0.84213,0.4575 1.62054,0.53533 2.10531,0.21047 0.52713,-0.35322 1.23716,-1.36155 1.21693,-1.72812 -0.0204,-0.36884 -0.55001,-0.97267 -1.14526,-1.30572 -0.2126,-0.11889 -1.09465,-0.70532 -1.96017,-1.30317 -0.86551,-0.59782 -1.73325,-1.14899 -1.92824,-1.22492 -0.195,-0.0759 -0.94952,-0.16527 -1.67669,-0.19861 -1.51178,-0.0692 -2.51459,-0.1907 -2.7037,-0.32726 -0.26955,-0.19465 0.12424,-0.2646 0.98057,-0.17408 0.48698,0.0514 1.42089,0.12672 2.07535,0.16724 l 1.18993,0.0737 1.17854,0.71267 c 0.66793,0.4039 1.24332,0.69813 1.32803,0.6791 0.19186,-0.043 0.43303,-0.73622 0.41431,-1.19068 -0.0276,-0.66982 0.15203,-0.52358 -4.29884,-3.50047 -1.16433,-0.77877 -1.27714,-0.87131 -1.05811,-0.86787 0.25398,0.005 2.46581,1.3618 3.87017,2.37591 0.59434,0.42917 0.67005,0.46286 0.5946,0.26466 -0.19301,-0.50717 -1.57353,-2.56481 -2.09496,-3.12252 -0.30677,-0.3281 -0.65827,-0.7189 -0.78111,-0.86843 -0.2033,-0.24738 -0.20097,-0.26592 0.0256,-0.20586 0.57443,0.1522 1.16743,0.86251 2.69408,3.22694 0.37491,0.58066 0.76091,1.11326 0.85774,1.18353 0.0968,0.0703 0.31237,0.12401 0.47895,0.1194 0.25735,-0.007 0.35681,-0.10707 0.66156,-0.66502 0.53389,-0.9774 0.4256,-1.28696 -1.01914,-2.91328 -1.3105,-1.47525 -1.52185,-1.75928 -1.41986,-1.9083 0.11143,-0.1628 0.65904,0.38137 1.40058,1.39172 0.33855,0.46129 0.70401,0.90259 0.81215,0.98067 0.56465,0.40773 0.23869,-0.72586 -0.43805,-1.52337 -0.84653,-0.99763 -1.57674,-1.97168 -1.56029,-2.08131 0.0389,-0.25896 0.69959,0.44048 1.61017,1.70446 0.94213,1.30781 0.97844,1.37995 1.10079,2.18633 0.20824,1.37254 0.59595,1.96657 1.27137,1.94797 0.46855,-0.0129 0.73608,-0.72035 0.5903,-1.56104 -0.0637,-0.36768 -0.062,-0.92319 0.003,-1.23449 0.14843,-0.70174 -0.003,-1.05056 -1.18178,-2.71865 -0.89036,-1.26014 -1.39427,-2.22899 -1.18391,-2.27625 0.15616,-0.035 0.38523,0.24899 0.6898,0.85539 0.14258,0.28389 0.6214,1.01015 1.06406,1.61391 0.44263,0.60377 0.84065,1.21181 0.88447,1.3512 0.0438,0.13939 0.0933,0.72594 0.10994,1.30344 0.0334,1.15974 0.29692,1.80264 0.88596,2.16188 0.45362,0.27663 0.89699,0.0971 1.80646,-0.73172 0.85197,-0.77636 1.68433,-2.10512 1.6618,-2.65277 -0.008,-0.18508 -0.0953,-0.63379 -0.19475,-0.99717 -0.26194,-0.95673 -0.36351,-2.01831 -0.20506,-2.14322 0.10471,-0.0826 0.16639,0.0451 0.26199,0.54293 0.32703,1.70278 0.46511,2.23134 0.61044,2.33628 0.0866,0.0625 0.3062,0.0283 0.48795,-0.076 0.61564,-0.35352 1.376,-0.55614 1.44023,-0.38379 0.0412,0.11032 -0.19377,0.27705 -0.74783,0.53057 -0.79806,0.36518 -0.81748,0.38395 -1.61397,1.55815 -0.44331,0.65376 -0.83346,1.30369 -0.86682,1.44444 -0.0879,0.37082 0.32959,0.86766 0.85935,1.02281 0.22144,0.0648 0.50889,0.11043 0.63878,0.10115 0.12987,-0.009 0.46308,0.0508 0.74042,0.13333 0.7902,0.23511 0.968,0.0965 2.05202,-1.60002 0.70615,-1.10524 0.98244,-1.46133 1.07926,-1.39141 0.16739,0.12086 0.0375,0.46878 -0.59645,1.59701 -0.28252,0.50282 -0.48126,0.93762 -0.44169,0.96622 0.0828,0.0597 1.34578,-0.40532 1.72224,-0.63413 0.31931,-0.19409 0.59556,-0.27591 0.42461,-0.0261 -0.20499,0.29951 -1.10152,0.92202 -2.21893,1.26096 -1.2636,0.3833 -1.60043,0.62629 -1.97279,1.4232 -0.32614,0.69799 -0.28864,1.10794 0.16102,1.76068 0.24594,0.35703 0.28631,0.52842 0.20138,0.85523 -0.24751,0.95239 -0.26565,1.17747 -0.12855,1.59498 0.12975,0.39508 0.25969,0.54187 1.27615,1.44159 1.67935,1.48646 3.37537,2.61229 4.92374,3.26844 1.86495,0.79028 8.68848,4.88748 10.06843,6.04559 0.91792,0.77038 3.73506,3.97599 4.31866,4.91423 0.207,0.33278 0.45884,0.55208 1.4874,1.29517 1.38699,1.00204 1.61798,1.13213 4.74627,2.67218 2.01302,0.99105 4.16325,1.95057 4.76981,2.12847 0.14136,0.0415 0.35928,-0.0506 0.5563,-0.23491 0.71513,-0.6692 2.41555,-1.3365 3.26044,-1.2795 0.58031,0.0391 0.38601,0.18871 -0.66226,0.50977 -1.72291,0.52769 -2.73019,1.23265 -2.3745,1.66182 0.13889,0.16764 1.66386,0.23105 3.36946,0.1402 0.30392,-0.0162 0.63477,0.0451 0.76976,0.14257 0.36635,0.26455 0.13661,0.4203 -0.41879,0.28392 -0.27226,-0.0668 -0.51619,-0.0907 -0.54204,-0.0529 -0.0258,0.0378 -0.56879,0.0707 -1.20655,0.0731 -0.63775,0.002 -1.17125,0.0216 -1.18557,0.0426 -0.0142,0.0209 0.49279,0.4477 1.1269,0.94836 1.39637,1.10254 2.56598,2.35665 2.82979,3.03423 0.22575,0.57979 0.0718,0.57751 -0.34375,-0.006 -0.1784,-0.25007 -0.69297,-0.86191 -1.1435,-1.35965 -0.75124,-0.82997 -0.93356,-0.98365 -2.2001,-1.85452 -1.15489,-0.79411 -1.52091,-1.00193 -2.23571,-1.26969 -1.81123,-0.6784 -3.87176,-1.65414 -6.58165,-3.11666 -0.94556,-0.51032 -1.73574,-0.90366 -1.75596,-0.87413 -0.0398,0.058 1.09814,2.02677 1.81524,3.14097 0.69857,1.08542 1.39577,2.51066 1.89206,3.8679 l 0.45888,1.25493 0.59879,0.43239 c 0.32931,0.23781 1.00458,0.61155 1.50055,0.83052 0.75343,0.33263 1.16741,0.5893 2.51639,1.56007 1.60814,1.15701 1.6166,1.16526 2.14149,1.91371 0.63338,0.90366 0.87732,1.09063 1.93218,1.48091 0.72545,0.26842 0.96743,0.413 2.29235,1.36974 1.1043,0.79744 1.49474,1.11838 1.53419,1.26119 0.0292,0.10533 0.005,0.19051 -0.0542,0.18929 -0.0589,-8.7e-4 -0.76771,-0.47923 -1.57504,-1.06222 -1.31048,-0.94633 -1.56621,-1.0989 -2.38502,-1.42343 -0.50443,-0.1999 -0.93626,-0.33555 -0.9596,-0.30143 -0.0919,0.13425 0.48981,1.16789 0.98772,1.75517 0.28949,0.34144 0.49353,0.66688 0.45416,0.72439 -0.10231,0.14954 -0.38391,-0.0909 -0.93754,-0.80078 -0.4564,-0.58515 -0.6485,-0.744 -0.73931,-0.61132 -0.0951,0.13885 0.16694,1.83502 0.37448,2.42458 0.32458,0.92204 0.0567,0.80095 -0.30075,-0.13598 -0.26294,-0.68904 -0.3665,-1.32067 -0.50859,-3.10207 -0.0905,-1.13392 -0.53522,-1.96616 -1.49457,-2.79655 -0.65359,-0.56573 -2.82938,-1.91811 -3.44303,-2.14006 -0.24747,-0.0896 -0.79774,-0.37877 -1.22281,-0.6428 -0.42509,-0.26401 -0.7735,-0.44807 -0.77428,-0.40896 -0.005,0.31372 0.32486,1.5671 0.64057,2.42529 0.23816,0.64739 0.35906,1.1914 0.31913,1.43589 -0.0926,0.56703 -0.0414,0.68784 0.73442,1.73229 0.385,0.5183 0.77873,1.14074 0.87495,1.3832 0.41965,1.05737 0.65514,2.48055 0.40085,2.42257 -0.14101,-0.0321 -0.26977,-0.39918 -0.28765,-0.81978 -0.0254,-0.59595 -0.52148,-1.79284 -1.02776,-2.47942 -0.67233,-0.91172 -0.85645,-1.04179 -1.05799,-0.74734 -0.25475,0.37222 -0.47099,0.0741 -0.30451,-0.4198 0.25341,-0.75179 -0.0367,-0.64396 -0.75722,0.28141 -0.60764,0.78046 -0.7416,0.89219 -1.21133,1.01034 -0.64637,0.16259 -1.15438,0.14358 -1.17826,-0.0441 z m -30.29315,-32.77852 c 0.36426,-0.0752 0.91696,-0.10011 1.22822,-0.0556 0.51773,0.0741 0.64669,0.13876 1.51412,0.75859 1.08918,0.77799 1.08987,0.77848 1.66163,-0.0122 0.26511,-0.36657 0.37491,-0.42438 0.7905,-0.41571 0.43059,0.009 0.4899,-0.0251 0.55013,-0.31525 0.0371,-0.17888 0.0151,-0.47925 -0.049,-0.66745 -0.0641,-0.18818 -0.0369,-0.71299 0.0602,-1.16625 0.10318,-0.48136 0.11976,-0.91271 0.0398,-1.03718 -0.33432,-0.5204 -0.56563,-1.19176 -0.5135,-1.49031 0.0312,-0.17852 0.20552,-0.61556 0.3874,-0.97116 0.36646,-0.71646 0.31867,-0.82588 -0.39362,-0.90097 -0.73984,-0.0781 -1.05815,-0.21084 -1.68262,-0.70232 l -0.59746,-0.47023 -0.38859,0.29059 c -0.75525,0.56479 -1.28804,0.61209 -1.90186,0.16883 l -0.44035,-0.31798 -0.21215,0.46299 c -0.25513,0.55679 -0.55537,0.62357 -1.33655,0.29726 l -0.51393,-0.21468 -0.44072,0.63483 c -0.326,0.47025 -0.5248,0.65066 -0.76553,0.69509 -0.31907,0.0589 -0.32228,0.0717 -0.17184,0.6886 0.12144,0.498 0.1011,0.7661 -0.098,1.29081 l -0.25136,0.66226 1.2566,0.96454 c 1.29046,0.99046 1.50508,1.23222 1.43929,1.62082 -0.0519,0.30677 0.11861,0.34829 0.82881,0.20182 z m -0.86338,-2.93411 c -0.48675,-0.55265 -0.77026,-1.28843 -0.59506,-1.54439 0.30608,-0.4472 0.68739,-0.50361 1.54132,-0.22801 1.83675,0.59278 3.20173,2.22505 2.59938,3.10837 -0.20271,0.29707 -0.92413,0.36595 -1.53194,0.14612 -0.56257,-0.20347 -1.48641,-0.88342 -2.01368,-1.48212 z"
         style="fill:#1b9e77;fill-opacity:1;stroke:#1b9e77;stroke-width:0.11238583;stroke-opacity:1"
         inkscape:connector-curvature="0" />
      <path
         transform="matrix(0.93750018,0,0,0.93750018,310.80076,352.16822)"
         inkscape:connector-curvature="0"
         id="path1101"
         d="m 103.00576,104.71265 -1.1108,-0.71875 -1.28279,0.0205 c -1.257614,0.0201 -1.282792,0.0149 -1.282792,-0.26421 0,-0.34489 -0.365835,-0.72435 -1.71875,-1.78278 -0.567187,-0.44373 -1.031249,-0.85129 -1.031249,-0.90569 0,-0.0544 0.08759,-0.34504 0.194645,-0.64588 0.138478,-0.38913 0.171007,-0.754369 0.112727,-1.265712 -0.06775,-0.594433 -0.0492,-0.71875 0.107231,-0.71875 0.191557,0 1.210396,-1.0684 1.210396,-1.269276 0,-0.05999 0.203745,-0.02395 0.452766,0.0801 0.249021,0.104048 0.644668,0.189177 0.879215,0.189177 0.355218,0 0.469751,-0.07339 0.685691,-0.439378 l 0.25924,-0.439379 0.40755,0.251879 c 0.56277,0.347814 1.22097,0.31946 1.93777,-0.08347 l 0.59658,-0.335354 0.52502,0.415825 c 0.56201,0.445118 1.24969,0.739315 1.75617,0.75131 0.63428,0.01502 0.68538,0.161708 0.32816,0.941984 -0.38779,0.84705 -0.40736,1.312559 -0.085,2.022574 0.2005,0.4416 0.23284,0.77398 0.20682,2.125 l -0.0308,1.60152 -0.45966,0.0388 c -0.36773,0.031 -0.55242,0.14978 -0.92353,0.59375 -0.25514,0.30522 -0.49985,0.55495 -0.54382,0.55495 -0.044,0 -0.5798,-0.32344 -1.19074,-0.71875 z m -0.16218,-2.03885 c 1.04903,-0.56143 0.0388,-2.4011 -1.81538,-3.305987 -1.195137,-0.583245 -1.782449,-0.665764 -2.230433,-0.313379 -0.637621,0.501552 -0.325656,1.411116 0.853669,2.488946 1.207354,1.10345 2.432114,1.53717 3.192144,1.13042 z"
         style="opacity:1;fill:#1b9e77;fill-opacity:1;stroke:#1b9e77;stroke-width:0.73249996;stroke-linecap:square;stroke-miterlimit:4;stroke-dasharray:none;stroke-dashoffset:0;stroke-opacity:1" />
    </g>
    <image
       sodipodi:absref="/home/mikkel/Dropbox (UiO)/writing/causal-optoconnectics-paper/manuscript/triple-response.png"
       xlink:href="triple-response.png"
       width="448.20007"
       height="360.00006"
       preserveAspectRatio="none"
       style="image-rendering:optimizeQuality"
       id="image4873"
       x="176.87358"
       y="514.71649" />
    <g
       id="g1112"
       transform="matrix(1.0313972,0,0,1.0758947,-13.710941,-32.761892)"
       style="fill:#7570b3;fill-opacity:1;stroke:#7570b3;stroke-opacity:1">
      <path
         sodipodi:nodetypes="cssssssssssssscccssssssssssssssssssssscccsssssssssssssssssssssssssssssssssssssssssssssssssssssssssssssssssssssssssssssssssscccssssssssssssssssssssssssssssssssccssssssssssscccccccccsscccsccssssc"
         id="path2408-5"
         d="m 473.79281,527.83685 c -0.0193,-0.0789 0.27396,-0.27639 0.65166,-0.43879 0.64672,-0.27807 0.71051,-0.34357 1.0946,-1.12409 0.46834,-0.95152 0.69258,-1.98369 0.58178,-2.67734 -0.13453,-0.84238 -0.62099,-2.3006 -0.91493,-2.74269 -0.15645,-0.23527 -0.57017,-0.99227 -0.91937,-1.68219 -0.73812,-1.45831 -1.61313,-2.8547 -2.78583,-4.44573 -0.45893,-0.62266 -1.14592,-1.55991 -1.52664,-2.08281 -0.83581,-1.14798 -3.3862,-4.0127 -5.34582,-6.0047 -0.83901,-0.85288 -1.14962,-1.10212 -2.29238,-1.83936 -0.84612,-0.54592 -1.95376,-1.16524 -3.07757,-1.72131 -0.96564,-0.4777 -2.29878,-1.14226 -2.96252,-1.47683 -0.66373,-0.33462 -1.3759,-0.66066 -1.58253,-0.72466 -0.20662,-0.0641 -0.5454,-0.21834 -0.75278,-0.34297 -0.20738,-0.12462 -0.95897,-0.39002 -1.67022,-0.58975 l -1.29317,-0.36316 -1.94647,-1.22711 c -3.28091,-2.06829 -3.71371,-2.1084 -4.50785,-0.41746 -0.40713,0.86679 -0.41056,0.89286 -0.26509,1.97373 0.17783,1.32102 0.68389,2.50972 1.57145,3.69125 0.65065,0.86615 0.7721,1.21241 0.2728,0.77771 -0.3403,-0.29631 -1.22686,-1.51518 -1.54421,-2.12315 -0.39914,-0.76466 -0.73911,-1.94546 -0.8645,-3.00265 -0.14916,-1.25761 -0.3971,-1.71793 -1.11744,-2.07456 -0.70719,-0.35016 -1.31295,-0.32171 -2.35644,0.11053 -0.78106,0.32357 -0.93385,0.4431 -1.27629,0.99834 -0.5143,0.83393 -0.76583,1.03819 -1.36536,1.10887 -0.59487,0.0701 -1.33106,-0.12725 -2.3486,-0.62968 -0.60929,-0.30081 -0.72546,-0.38529 -0.63659,-0.46258 0.12329,-0.10725 0.42284,-0.0212 1.44504,0.4148 0.86766,0.37015 1.62144,0.33669 2.03869,-0.0905 0.4537,-0.46457 0.99036,-1.67001 0.91982,-2.06598 -0.071,-0.39841 -0.66088,-0.97529 -1.27552,-1.24746 -0.21951,-0.0972 -1.1433,-0.60164 -2.05292,-1.12094 -0.90961,-0.51933 -1.8148,-0.98761 -2.01151,-1.0406 -0.19674,-0.0529 -0.92931,-0.0358 -1.62796,0.0383 -1.45251,0.15408 -2.42653,0.17422 -2.6261,0.0542 -0.28449,-0.17095 0.0817,-0.30685 0.91149,-0.3384 0.47197,-0.018 1.37379,-0.0779 2.00405,-0.13306 l 1.14594,-0.10046 1.22441,0.59683 c 0.69388,0.33829 1.28418,0.57118 1.36237,0.5376 0.17707,-0.0761 0.31033,-0.86719 0.22897,-1.35905 -0.11997,-0.72496 0.0719,-0.59302 -4.59207,-3.15774 -1.22007,-0.67094 -1.34069,-0.75452 -1.13114,-0.78409 0.24294,-0.0342 2.54367,1.10798 4.02574,1.99866 0.62721,0.37695 0.70419,0.40211 0.60448,0.19782 -0.25512,-0.52278 -1.8603,-2.55303 -2.43591,-3.08094 -0.33864,-0.31061 -0.72872,-0.68263 -0.86687,-0.82673 -0.22859,-0.23848 -0.22898,-0.25897 -0.004,-0.22801 0.5695,0.0785 1.23473,0.76164 3.02228,3.10365 0.43898,0.57518 0.88181,1.09632 0.98405,1.1581 0.10224,0.0618 0.31545,0.0876 0.4738,0.0573 0.24461,-0.0467 0.32556,-0.17072 0.53841,-0.82438 0.37289,-1.14503 0.22627,-1.46556 -1.37992,-3.01654 -1.45693,-1.40691 -1.69834,-1.684 -1.62182,-1.86171 0.0836,-0.19413 0.68227,0.31506 1.53122,1.30232 0.38758,0.45072 0.79807,0.87561 0.91218,0.94419 0.59589,0.3581 0.12633,-0.82639 -0.631,-1.59176 -0.9474,-0.95747 -1.78045,-1.9069 -1.78007,-2.02874 7.5e-4,-0.28781 0.72927,0.37322 1.77499,1.61093 1.08195,1.28057 1.1267,1.35358 1.35619,2.21282 0.39061,1.46245 0.84368,2.05023 1.48568,1.92742 0.44537,-0.0852 0.6018,-0.8959 0.34515,-1.78892 -0.11224,-0.39055 -0.18827,-0.99553 -0.16894,-1.3444 0.0436,-0.78642 -0.14993,-1.1431 -1.50793,-2.77996 -1.0259,-1.23657 -1.64226,-2.21472 -1.44811,-2.29809 0.14413,-0.0619 0.40251,0.21248 0.77792,0.82641 0.17575,0.28738 0.73426,1.00524 1.24112,1.59528 0.50685,0.59003 0.97171,1.19148 1.03301,1.33657 0.0614,0.14506 0.19051,0.77604 0.28714,1.40217 0.19403,1.25738 0.53537,1.91721 1.14777,2.21883 0.47156,0.2323 0.86963,-0.0306 1.62174,-1.07082 0.70457,-0.97452 1.31322,-2.54733 1.21514,-3.14006 -0.0331,-0.20031 -0.17951,-0.67547 -0.32525,-1.05591 -0.38373,-1.00168 -0.62907,-2.14187 -0.49529,-2.3019 0.0885,-0.1058 0.1651,0.0239 0.32592,0.55124 0.55013,1.80392 0.75582,2.35833 0.90917,2.45048 0.0914,0.055 0.2962,-0.0156 0.45508,-0.15685 0.53811,-0.4783 1.23548,-0.81432 1.32086,-0.63646 0.0547,0.11393 -0.14593,0.33116 -0.63952,0.69111 -0.71061,0.51871 -0.72653,0.54208 -1.32254,1.94122 -0.33196,0.77881 -0.61319,1.54571 -0.62535,1.70398 -0.032,0.417 0.43584,0.89445 0.96311,0.9829 0.2204,0.037 0.50112,0.0428 0.6238,0.0131 0.12267,-0.0297 0.44905,-0.0151 0.72528,0.0327 0.78702,0.13593 0.93732,-0.042 1.73472,-2.05333 0.51948,-1.31032 0.73336,-1.73992 0.83552,-1.67851 0.17664,0.10616 0.10128,0.50462 -0.34598,1.82901 -0.19932,0.59026 -0.32825,1.09374 -0.28647,1.11884 0.0873,0.0524 1.22771,-0.64554 1.55501,-0.95179 0.27762,-0.25976 0.52983,-0.39078 0.40159,-0.0929 -0.15377,0.35714 -0.92236,1.17091 -1.94143,1.70956 -1.15237,0.60911 -1.43986,0.92475 -1.68383,1.8488 -0.21368,0.80932 -0.1206,1.24988 0.3998,1.89215 0.28464,0.3513 0.34712,0.53176 0.31175,0.9004 -0.10308,1.07432 -0.0889,1.32208 0.10033,1.75574 0.17906,0.41039 0.32359,0.55045 1.41945,1.3755 1.81053,1.3631 3.58656,2.33111 5.15601,2.81026 1.89035,0.5771 8.97534,4.00105 10.45423,5.05218 0.98375,0.69922 4.12048,3.76098 4.80861,4.6937 0.24407,0.3308 0.51508,0.53129 1.60059,1.18401 1.46379,0.88018 1.70243,0.98678 4.90329,2.18816 2.05971,0.77314 4.246,1.49114 4.84975,1.59272 0.1407,0.0237 0.33582,-0.10968 0.49807,-0.34022 0.58897,-0.83703 2.11853,-1.82162 2.93284,-1.88789 0.55932,-0.0455 0.39477,0.14685 -0.56079,0.65549 -1.57055,0.83606 -2.4333,1.75637 -2.03385,2.16955 0.15598,0.16136 1.62025,-8.9e-4 3.23532,-0.35903 0.2878,-0.0638 0.61212,-0.0473 0.75459,0.0383 0.38662,0.23235 0.18913,0.43677 -0.36,0.37264 -0.26919,-0.0314 -0.50531,-0.0203 -0.5247,0.0247 -0.0194,0.045 -0.53297,0.16333 -1.14127,0.26287 -0.60831,0.0995 -1.11481,0.20138 -1.12555,0.22632 -0.0108,0.025 0.53289,0.41254 1.20808,0.86124 1.48677,0.98818 2.77834,2.17573 3.12485,2.87328 0.29649,0.59682 0.14929,0.61773 -0.3288,0.0467 -0.20521,-0.24512 -0.78184,-0.83302 -1.28137,-1.30642 -0.833,-0.7894 -1.02849,-0.92902 -2.35899,-1.68468 -1.21325,-0.68903 -1.59159,-0.85976 -2.31121,-1.04268 -1.82344,-0.46346 -3.92635,-1.21273 -6.71708,-2.3933 -0.97376,-0.41192 -1.78287,-0.72012 -1.79804,-0.68489 -0.0297,0.069 1.33138,2.03949 2.17151,3.14349 0.81844,1.07547 1.68305,2.52106 2.34644,3.92317 l 0.61339,1.29639 0.6319,0.37976 c 0.34754,0.20886 1.04424,0.51316 1.5482,0.67622 0.76555,0.24769 1.19653,0.46421 2.61966,1.31615 1.69641,1.01553 1.70604,1.02232 2.31133,1.75799 0.73082,0.88753 0.98976,1.05403 2.05107,1.31869 0.72987,0.18204 0.98102,0.30267 2.37924,1.14297 1.16539,0.70037 1.58288,0.99048 1.64049,1.13991 0.0426,0.11017 0.0311,0.20667 -0.0254,0.21427 -0.0565,0.008 -0.79969,-0.40505 -1.65169,-0.91708 -1.38299,-0.83114 -1.64837,-0.95844 -2.4752,-1.18734 -0.50936,-0.14101 -0.94044,-0.2231 -0.95796,-0.18242 -0.069,0.1601 0.63072,1.19696 1.18803,1.76065 0.32401,0.32771 0.56423,0.65099 0.5347,0.71957 -0.0767,0.17832 -0.37911,-0.0406 -1.00671,-0.72933 -0.51738,-0.56767 -0.72292,-0.71144 -0.79105,-0.55322 -0.0712,0.16559 0.41586,1.97219 0.69634,2.58244 0.43866,0.95442 0.16618,0.86328 -0.30601,-0.10241 -0.34727,-0.71012 -0.5344,-1.38196 -0.91904,-3.29956 -0.24484,-1.22062 -0.78565,-2.05903 -1.81733,-2.81728 -0.70285,-0.51656 -2.96844,-1.65837 -3.5851,-1.8068 -0.2487,-0.0598 -0.8143,-0.29116 -1.25689,-0.51405 -0.44258,-0.2229 -0.80086,-0.37029 -0.79612,-0.32761 0.0379,0.34243 0.5291,1.65657 0.95037,2.54283 0.3178,0.66856 0.50925,1.24238 0.50531,1.51458 -0.01,0.63133 0.0566,0.75506 0.94307,1.77421 0.4399,0.50575 0.90268,1.12352 1.0284,1.37282 0.54832,1.08732 0.972,2.60078 0.72122,2.57625 -0.13907,-0.0136 -0.31327,-0.39356 -0.38913,-0.84868 -0.1075,-0.6449 -0.74831,-1.87246 -1.32747,-2.54293 -0.76912,-0.8904 -0.96302,-1.00403 -1.11417,-0.65296 -0.19111,0.44387 -0.43915,0.15221 -0.3493,-0.41075 0.13673,-0.85683 -0.12512,-0.69538 -0.68335,0.42133 -0.47079,0.94186 -0.58304,1.08381 -1.01482,1.28377 -0.59416,0.27511 -1.08165,0.33157 -1.13066,0.13091 z m -33.49334,-31.08167 c 0.33714,-0.13711 0.86115,-0.24823 1.16442,-0.24697 0.5045,10e-4 0.6366,0.0529 1.5511,0.59586 1.14803,0.68201 1.1491,0.68167 1.58411,-0.26561 0.20179,-0.4393 0.29849,-0.51889 0.69632,-0.57257 0.4122,-0.0556 0.46406,-0.10167 0.48097,-0.4267 0.0106,-0.2004 -0.0526,-0.52401 -0.14001,-0.71913 -0.0874,-0.19514 -0.13493,-0.77056 -0.10552,-1.2787 0.0312,-0.53966 -0.0133,-1.01172 -0.10698,-1.13507 -0.39181,-0.51575 -0.70642,-1.21143 -0.6984,-1.54433 0.004,-0.19911 0.11007,-0.7013 0.23395,-1.11601 0.24959,-0.83556 0.18867,-0.9474 -0.50161,-0.92097 -0.71697,0.0274 -1.03935,-0.0688 -1.70404,-0.50904 l -0.63591,-0.42118 -0.33024,0.37533 c -0.64184,0.72949 -1.14372,0.86187 -1.79151,0.47258 l -0.4647,-0.27928 -0.13775,0.53619 c -0.16565,0.64487 -0.44285,0.76313 -1.23402,0.52655 l -0.52048,-0.15564 -0.33147,0.7582 c -0.24513,0.56155 -0.4099,0.78798 -0.63343,0.87289 -0.29629,0.1126 -0.29756,0.12704 -0.0677,0.77567 0.18552,0.52368 0.20358,0.8186 0.0869,1.42004 l -0.1473,0.75907 1.33408,0.85919 c 1.37002,0.88225 1.60868,1.11283 1.60021,1.54584 -0.006,0.34179 0.16189,0.36112 0.81921,0.0938 z m -1.23415,-3.06287 c -0.5418,-0.52768 -0.91522,-1.28559 -0.78381,-1.59082 0.22961,-0.53327 0.58563,-0.65258 1.43913,-0.48224 1.83582,0.36637 3.36671,1.93596 2.91533,2.98897 -0.15194,0.35414 -0.83081,0.53868 -1.44162,0.39167 -0.56537,-0.13608 -1.54211,-0.73596 -2.12902,-1.30762 z"
         style="fill:#7570b3;fill-opacity:1;stroke:#7570b3;stroke-width:0.11571532;stroke-opacity:1"
         inkscape:connector-curvature="0" />
      <path
         transform="matrix(0.93750018,0,0,0.93750018,310.80076,352.16822)"
         inkscape:connector-curvature="0"
         id="path1103"
         d="m 140.96551,154.43457 c -1.17862,-0.71773 -1.42052,-0.73065 -3.35488,-0.1792 -0.23806,0.0679 -0.28125,0.0322 -0.28125,-0.23235 0,-0.39857 -0.60339,-0.94871 -2.00405,-1.82721 l -1.06655,-0.66894 0.12345,-0.74644 c 0.0965,-0.58325 0.0815,-0.90759 -0.0686,-1.48352 -0.18316,-0.70299 -0.18116,-0.74052 0.0431,-0.81172 0.12936,-0.041 0.41375,-0.43674 0.63199,-0.87931 0.29295,-0.59407 0.44669,-0.7844 0.58744,-0.72726 0.87616,0.35574 1.53699,0.12739 1.69349,-0.58519 0.0902,-0.41058 0.12677,-0.42199 0.55966,-0.17453 0.6423,0.36717 1.44922,0.1261 1.97583,-0.5903 0.21851,-0.29725 0.25673,-0.28974 1.09542,0.2153 0.60848,0.3664 0.84453,0.4375 1.45264,0.4375 0.84651,0 0.83746,-0.0237 0.52268,1.37011 l -0.20342,0.90078 0.44465,0.8958 c 0.37764,0.76082 0.45533,1.06533 0.51557,2.02081 0.039,0.61875 0.10406,1.35295 0.14455,1.63157 0.073,0.50248 0.0698,0.50752 -0.4059,0.625 -0.3966,0.0979 -0.53357,0.22104 -0.79202,0.71181 -0.38613,0.7332 -0.55308,0.74327 -1.61387,0.0973 z m -0.5057,-2.16058 c 0.6219,-0.38838 0.30964,-1.6803 -0.59896,-2.47806 -0.89451,-0.7854 -2.57124,-1.38215 -3.34079,-1.189 -0.17189,0.0431 -0.40575,0.22072 -0.51969,0.39462 -0.17334,0.26455 -0.18387,0.39395 -0.0645,0.79247 0.26972,0.90025 1.63956,2.13817 2.86793,2.59173 0.50051,0.18481 1.26356,0.13331 1.65598,-0.11176 z"
         style="opacity:1;fill:#7570b3;fill-opacity:1;stroke:#7570b3;stroke-width:0.73249996;stroke-linecap:square;stroke-miterlimit:4;stroke-dasharray:none;stroke-dashoffset:0;stroke-opacity:1" />
    </g>
    <path
       style="fill:none;fill-rule:evenodd;stroke:#1b9e77;stroke-width:0.50484282px;stroke-linecap:butt;stroke-linejoin:miter;stroke-opacity:1"
       d="m 429.87405,453.73433 c 0,0 2.37498,0.84778 2.4208,1.85906 0.0852,1.8807 -4.35614,5.50823 -4.35614,5.50823 2.66719,-1.28208 6.06645,-5.74259 9.18532,-4.37945 1.08383,0.47369 0.3799,2.10238 0.54786,3.1564 0.0574,0.36009 -0.0323,-0.18705 0.15707,1.08204 0.18932,1.26909 1.43003,2.07051 1.43003,2.07051 v 0"
       id="path1120"
       inkscape:connector-curvature="0"
       sodipodi:nodetypes="cscaazcc" />
    <path
       style="fill:none;fill-rule:evenodd;stroke:#d95f02;stroke-width:0.50484288px;stroke-linecap:butt;stroke-linejoin:miter;stroke-opacity:1"
       d="m 398.25921,486.31938 c 0,0 2.37498,0.84778 2.4208,1.85906 0.0852,1.8807 -4.35614,5.50823 -4.35614,5.50823 2.66719,-1.28208 6.06645,-5.74259 9.18532,-4.37945 1.08383,0.47369 0.3799,2.10238 0.54786,3.1564 0.0574,0.36009 -0.0323,-0.18705 0.15707,1.08204 0.18932,1.26909 1.43003,2.07051 1.43003,2.07051 v 0"
       id="path1120-3"
       inkscape:connector-curvature="0"
       sodipodi:nodetypes="cscaazcc" />
    <path
       style="fill:none;fill-rule:evenodd;stroke:#7570b3;stroke-width:0.50484288px;stroke-linecap:butt;stroke-linejoin:miter;stroke-opacity:1"
       d="m 468.57172,502.60499 c 0,0 2.37498,0.84778 2.4208,1.85906 0.0852,1.8807 -4.35614,5.50823 -4.35614,5.50823 2.66719,-1.28208 6.06645,-5.74259 9.18532,-4.37945 1.08383,0.47369 0.3799,2.10238 0.54786,3.1564 0.0574,0.36009 -0.0323,-0.18705 0.15707,1.08204 0.18932,1.26909 1.43003,2.07051 1.43003,2.07051 v 0"
       id="path1120-5"
       inkscape:connector-curvature="0"
       sodipodi:nodetypes="cscaazcc" />
  </g>
  <g
     inkscape:groupmode="layer"
     id="layer2"
     inkscape:label="light"
     style="display:inline"
     transform="translate(-176.87358,-340.84773)">
    <path
       style="opacity:1;fill:url(#linearGradient4180);fill-opacity:1;stroke:none;stroke-width:11.34200001;stroke-miterlimit:4;stroke-dasharray:none;stroke-dashoffset:0;stroke-opacity:1"
       d="m 443.51032,432.06891 -89.67109,90.2202 -31.29766,-93.52036 25.38576,-25.6761 z"
       id="rect4163"
       inkscape:connector-curvature="0"
       sodipodi:nodetypes="ccccc" />
    <path
       style="opacity:0.6;fill:url(#radialGradient969);fill-opacity:1;stroke:none;stroke-width:2.50031304;stroke-linecap:square;stroke-miterlimit:4;stroke-dasharray:0.25003131, 0.25003131;stroke-dashoffset:0;stroke-opacity:1"
       d="m 258.44446,365.11718 24.12079,-24.26945 65.36208,62.2465 -25.38576,25.6761 z"
       id="rect928"
       inkscape:connector-curvature="0"
       sodipodi:nodetypes="ccccc" />
    <g
       id="g1108"
       style="fill:#d95f02;fill-opacity:1;stroke:#d95f02;stroke-opacity:1"
       transform="matrix(1.0956821,0,0,1.0544981,-34.478953,-28.701474)">
      <path
         sodipodi:nodetypes="cssssssssssssscccssssssssssssssssssssscccsssssssssssssssssssssssssssssssssssssssssssssssssssssssssssssssssssssssssssssssssscccssssssssssssssssssssssssssssssssccssssssssssscccccccccsscccsccssssc"
         id="path2408-7"
         d="m 398.07817,522.15277 c 0.002,-0.0779 0.37314,-0.20336 0.82471,-0.27873 0.7732,-0.12906 0.86041,-0.17749 1.49664,-0.83108 0.77566,-0.79684 1.31294,-1.71897 1.3937,-2.39191 0.0981,-0.81724 -0.004,-2.28359 -0.1918,-2.75795 -0.10001,-0.25247 -0.32571,-1.0465 -0.50157,-1.76449 -0.37171,-1.51767 -0.90797,-3.00513 -1.70732,-4.73572 -0.31283,-0.67727 -0.77961,-1.69598 -1.03728,-2.26379 -0.5657,-1.24656 -2.47541,-4.45194 -4.0029,-6.71874 -0.65396,-0.97057 -0.91557,-1.26724 -1.92811,-2.19143 -0.74991,-0.68416 -1.75874,-1.49074 -2.80366,-2.24063 -0.89765,-0.64453 -2.13547,-1.5391 -2.7507,-1.98796 -0.61525,-0.44883 -1.28476,-0.89963 -1.48785,-1.00171 -0.2031,-0.10209 -0.52179,-0.31577 -0.70823,-0.47486 -0.18648,-0.15905 -0.91573,-0.56096 -1.62065,-0.89306 l -1.28165,-0.60382 -1.73346,-1.54693 c -2.92176,-2.60742 -3.3742,-2.73311 -4.7118,-1.30932 -0.68572,0.72981 -0.69688,0.75356 -0.85186,1.79664 -0.18938,1.27486 0.0111,2.49246 0.62264,3.78104 0.44829,0.9446 0.47887,1.29401 0.0687,0.78478 -0.27955,-0.34714 -0.87922,-1.67053 -1.04451,-2.3052 -0.20788,-0.79825 -0.23267,-1.97463 -0.063,-2.99142 0.20186,-1.20955 0.0685,-1.69166 -0.60101,-2.17272 -0.65735,-0.47231 -1.31481,-0.56901 -2.55766,-0.37613 -0.93028,0.14433 -1.12845,0.22526 -1.6552,0.67619 -0.79111,0.67727 -1.11934,0.81774 -1.78246,0.76171 -0.65781,-0.0554 -1.39017,-0.39036 -2.33629,-1.06865 -0.56655,-0.40615 -0.6668,-0.50898 -0.54926,-0.56343 0.16296,-0.0755 0.45935,0.0661 1.4296,0.68319 0.82357,0.52374 1.64115,0.64583 2.21128,0.33019 0.61997,-0.34317 1.54193,-1.36418 1.5802,-1.74981 0.0385,-0.38802 -0.42786,-1.04905 -1.00835,-1.42944 -0.2073,-0.13583 -1.05243,-0.79688 -1.87806,-1.46904 -0.82561,-0.67215 -1.66117,-1.29555 -1.85678,-1.3853 -0.19557,-0.0898 -0.98583,-0.22274 -1.75603,-0.29551 -1.60124,-0.15129 -2.65109,-0.33073 -2.8305,-0.48382 -0.25571,-0.21825 0.17575,-0.27113 1.07437,-0.13171 0.51103,0.0793 1.4949,0.20677 2.18637,0.28328 l 1.25721,0.13912 1.14074,0.80895 c 0.6465,0.45845 1.21223,0.79703 1.3057,0.78147 0.21168,-0.0354 0.58208,-0.74991 0.63633,-1.22767 0.0799,-0.70417 0.24766,-0.5414 -4.01387,-3.89586 -1.11482,-0.8775 -1.22003,-0.98045 -0.9869,-0.96552 0.27025,0.0174 2.4078,1.55683 3.74022,2.69375 0.56387,0.48115 0.63912,0.52047 0.59104,0.30856 -0.1231,-0.5421 -1.25967,-2.7726 -1.72481,-3.38479 -0.27353,-0.36027 -0.58518,-0.78816 -0.69173,-0.95143 -0.17646,-0.27013 -0.1709,-0.2895 0.061,-0.21467 0.58788,0.18954 1.10443,0.96554 2.34678,3.5255 0.30509,0.62869 0.62986,1.2075 0.72169,1.28625 0.0918,0.0787 0.31293,0.14635 0.49139,0.15016 0.27565,0.006 0.39806,-0.0938 0.81423,-0.66331 0.72906,-0.99772 0.6641,-1.32811 -0.61139,-3.10941 -1.15707,-1.61579 -1.33609,-1.92478 -1.20293,-2.07585 0.14544,-0.16495 0.64068,0.43436 1.26673,1.53287 0.28576,0.50155 0.60361,0.98347 0.70614,1.07107 0.5357,0.45712 0.37309,-0.74912 -0.21848,-1.621 -0.74006,-1.09066 -1.35993,-2.1505 -1.32447,-2.26466 0.0838,-0.26967 0.6743,0.49848 1.43914,1.87194 0.7914,1.42101 0.81835,1.49859 0.81718,2.35096 -0.002,1.45079 0.31462,2.09417 1.03809,2.10974 0.5019,0.0108 0.90274,-0.71751 0.88454,-1.60707 -0.008,-0.38906 0.0845,-0.97179 0.20559,-1.29496 0.2729,-0.72851 0.16812,-1.10235 -0.81666,-2.91365 -0.74398,-1.36833 -1.12329,-2.41095 -0.89118,-2.44963 0.1722,-0.029 0.37026,0.28125 0.59611,0.93327 0.10577,0.30521 0.4979,1.09206 0.87149,1.74851 0.37357,0.65643 0.69884,1.31504 0.72279,1.46355 0.0238,0.14857 -0.019,0.76646 -0.0955,1.3732 -0.15369,1.21848 0.0224,1.90667 0.59205,2.31415 0.43871,0.31376 0.94094,0.14842 2.04634,-0.67381 1.0355,-0.77029 2.14033,-2.12104 2.20569,-2.69678 0.0221,-0.19456 0.002,-0.6699 -0.0449,-1.0563 -0.12322,-1.01736 -0.0582,-2.13639 0.13121,-2.2592 0.12576,-0.0805 0.17013,0.056 0.19081,0.58323 0.0708,1.80344 0.1318,2.36515 0.2695,2.48281 0.0822,0.0702 0.32201,0.0457 0.53291,-0.0544 0.71439,-0.3389 1.55853,-0.51196 1.59889,-0.32782 0.0258,0.11798 -0.25201,0.28054 -0.88428,0.5178 -0.91089,0.34167 -0.93469,0.36035 -1.97597,1.55091 -0.57944,0.66296 -1.10187,1.32443 -1.16041,1.47036 -0.15426,0.38448 0.20988,0.92742 0.74963,1.11772 0.2256,0.0796 0.52478,0.14226 0.66483,0.13937 0.14007,-0.003 0.48565,0.0774 0.768,0.17835 0.80448,0.28771 1.01678,0.15149 2.45006,-1.57202 0.9337,-1.12283 1.28651,-1.48212 1.37839,-1.40372 0.15873,0.13555 -0.0366,0.49376 -0.89696,1.6445 -0.38342,0.51287 -0.66645,0.95869 -0.6289,0.99074 0.0784,0.067 1.50168,-0.35531 1.94059,-0.57581 0.37226,-0.18701 0.68031,-0.25852 0.45716,-0.005 -0.26751,0.30359 -1.32539,0.91017 -2.57272,1.20763 -1.4104,0.33646 -1.80936,0.57389 -2.33666,1.39062 -0.46184,0.71535 -0.48878,1.1474 -0.11571,1.85557 0.20405,0.38733 0.2191,0.56926 0.0752,0.90771 -0.41951,0.98634 -0.47561,1.22153 -0.39752,1.66668 0.0739,0.42124 0.18853,0.582 1.12578,1.57879 1.54859,1.64677 3.17384,2.91605 4.71828,3.68488 1.86024,0.92603 8.46967,5.57911 9.75251,6.86582 0.85335,0.85593 3.3349,4.36544 3.80425,5.38007 0.16639,0.35992 0.39919,0.60311 1.37507,1.4361 1.31584,1.12334 1.54099,1.27186 4.62635,3.05013 1.9854,1.14433 4.1223,2.26271 4.74025,2.48089 0.14405,0.0509 0.39149,-0.0344 0.63173,-0.21756 0.8721,-0.66488 2.79479,-1.27666 3.68669,-1.17298 0.6126,0.0712 0.38093,0.21807 -0.78965,0.50042 -1.92393,0.4641 -3.11344,1.15136 -2.8041,1.6201 0.12074,0.1831 1.73705,0.32885 3.57116,0.32215 0.32683,-0.001 0.66972,0.0803 0.7978,0.18958 0.3476,0.29658 0.0771,0.44803 -0.49305,0.2761 -0.27951,-0.0843 -0.53579,-0.12194 -0.56954,-0.0837 -0.0338,0.0382 -0.61825,0.0446 -1.29892,0.0141 -0.68068,-0.0305 -1.25287,-0.0382 -1.27156,-0.017 -0.0181,0.0219 0.45253,0.49528 1.04719,1.05353 1.30942,1.22926 2.35222,2.60577 2.52301,3.33035 0.14612,0.62001 -0.0177,0.60962 -0.36585,-0.0232 -0.14939,-0.27169 -0.5984,-0.94031 -0.99765,-1.48592 -0.66617,-0.90954 -0.83513,-1.08054 -2.04398,-2.05996 -1.10224,-0.89314 -1.45869,-1.13022 -2.17743,-1.44826 -1.82119,-0.80586 -3.85977,-1.93661 -6.51152,-3.6118 -0.92527,-0.58451 -1.70391,-1.03826 -1.73029,-1.0083 -0.0518,0.0588 0.84044,2.1834 1.42341,3.38961 0.56792,1.17506 1.07888,2.70656 1.38665,4.15629 l 0.28459,1.34045 0.56809,0.48475 c 0.31245,0.2666 0.97169,0.69378 1.46498,0.94929 0.74934,0.38813 1.14901,0.67891 2.42941,1.7675 1.52638,1.29745 1.53411,1.30652 1.9718,2.11901 0.52804,0.98097 0.75782,1.18975 1.81914,1.65412 0.72999,0.31928 0.96449,0.48356 2.22151,1.55614 1.04772,0.89401 1.41176,1.25104 1.43055,1.40287 0.0143,0.11197 -0.0261,0.20012 -0.0888,0.1958 -0.0627,-0.004 -0.74063,-0.54268 -1.50659,-1.19624 -1.24335,-1.06092 -1.49117,-1.23433 -2.31161,-1.61731 -0.50543,-0.23592 -0.94388,-0.40069 -0.97436,-0.3661 -0.11992,0.13608 0.33177,1.25073 0.767,1.89275 0.25304,0.37323 0.41754,0.72528 0.36615,0.78358 -0.13355,0.15158 -0.39464,-0.11539 -0.86927,-0.88884 -0.3913,-0.63762 -0.5703,-0.81425 -0.6888,-0.67979 -0.124,0.14079 -0.12154,1.93387 0.004,2.56318 0.1957,0.9842 -0.0702,0.84327 -0.29862,-0.15826 -0.16797,-0.73654 -0.17524,-1.40461 -0.036,-3.28094 0.0886,-1.19436 -0.24985,-2.0906 -1.13761,-3.01163 -0.60478,-0.6275 -2.7048,-2.15937 -3.32312,-2.42412 -0.24934,-0.10676 -0.78907,-0.43882 -1.19937,-0.73792 -0.41031,-0.29909 -0.75191,-0.51028 -0.75912,-0.46929 -0.0578,0.32882 0.0907,1.66098 0.2875,2.57774 0.14837,0.69156 0.18851,1.26858 0.10598,1.52301 -0.19137,0.59009 -0.15647,0.71949 0.50054,1.85559 0.3261,0.56374 0.64439,1.23726 0.70744,1.49662 0.27498,1.13115 0.29393,2.63648 0.032,2.56244 -0.14519,-0.041 -0.22258,-0.43281 -0.17303,-0.87501 0.0703,-0.62655 -0.26348,-1.90803 -0.69144,-2.65463 -0.56824,-0.99151 -0.74348,-1.13747 -1.00648,-0.83905 -0.33253,0.37729 -0.51451,0.0532 -0.25633,-0.45622 0.39304,-0.77556 0.0659,-0.67749 -0.85365,0.25591 -0.77554,0.78725 -0.93672,0.8975 -1.457,0.99712 -0.71601,0.13698 -1.25479,0.0906 -1.24959,-0.10747 z m -26.96062,-35.96328 c 0.40076,-0.0603 0.99443,-0.0574 1.31916,0.006 0.54014,0.1047 0.66715,0.17917 1.49119,0.87454 1.03467,0.87291 1.03594,0.87277 1.77439,0.0735 0.34264,-0.37081 0.4692,-0.42575 0.91108,-0.39507 0.45782,0.0318 0.52666,-8e-4 0.63828,-0.30215 0.0688,-0.1858 0.0943,-0.50204 0.0568,-0.7028 -0.0376,-0.20076 0.077,-0.74995 0.2547,-1.22044 0.18867,-0.49966 0.27675,-0.95133 0.21179,-1.08606 -0.2716,-0.56337 -0.40873,-1.27972 -0.30439,-1.59023 0.0624,-0.18573 0.31972,-0.63514 0.57178,-0.99875 0.50788,-0.73265 0.47476,-0.84991 -0.27276,-0.96571 -0.77641,-0.12026 -1.09425,-0.27618 -1.6801,-0.82427 l -0.56049,-0.52439 -0.46195,0.28463 c -0.89779,0.55332 -1.47385,0.57524 -2.05623,0.0783 l -0.41782,-0.35646 -0.30183,0.47474 c -0.36306,0.57091 -0.69421,0.62538 -1.47419,0.24242 l -0.51313,-0.25191 -0.57329,0.64353 c -0.42465,0.47627 -0.66598,0.65537 -0.9299,0.68966 -0.34991,0.0457 -0.35546,0.0585 -0.29574,0.71349 0.0483,0.52879 -0.0173,0.809 -0.31535,1.34916 l -0.37623,0.68174 1.18287,1.07724 c 1.21473,1.10619 1.40421,1.37098 1.2706,1.77524 -0.10549,0.31915 0.0697,0.37158 0.85112,0.2548 z m -0.44187,-3.12315 c -0.42937,-0.60481 -0.61124,-1.39177 -0.38257,-1.6512 0.3995,-0.45328 0.81545,-0.49261 1.68131,-0.15911 1.86239,0.71735 3.05187,2.50074 2.26514,3.3962 -0.26476,0.30109 -1.0455,0.33592 -1.65794,0.0737 -0.56685,-0.2427 -1.44124,-1.00406 -1.90596,-1.65954 z"
         style="fill:#d95f02;fill-opacity:1;stroke:#d95f02;stroke-width:0.11933871;stroke-opacity:1"
         inkscape:connector-curvature="0"
         transform="translate(-1.6130357e-6)" />
      <path
         transform="matrix(0.93750018,0,0,0.93750018,310.80076,352.16822)"
         inkscape:connector-curvature="0"
         id="path1099"
         d="m 67.370974,143.85489 c -0.469752,-0.38583 -0.994719,-0.75963 -1.166594,-0.83067 -0.171875,-0.071 -0.864084,-0.12328 -1.538242,-0.1161 -1.085725,0.0116 -1.223299,-0.0113 -1.204355,-0.20058 0.05933,-0.59265 -0.03307,-0.71739 -1.680706,-2.26896 l -0.855174,-0.80531 0.326739,-0.6662 c 0.237731,-0.48473 0.326738,-0.86293 0.326738,-1.38833 0,-0.71052 0.007,-0.72464 0.433433,-0.87885 0.238389,-0.0862 0.654458,-0.41531 0.924599,-0.73135 l 0.491165,-0.57461 0.515431,0.20623 c 0.918524,0.36752 1.456716,0.22664 1.855344,-0.48567 0.113927,-0.20357 0.155781,-0.19524 0.557153,0.1109 0.568131,0.43333 1.204429,0.43339 2.060648,1.8e-4 l 0.653862,-0.33082 0.496715,0.44875 c 0.621597,0.56158 1.093212,0.80801 1.746168,0.91242 0.773533,0.12369 0.803081,0.25995 0.253039,1.16689 -0.540575,0.89132 -0.607788,1.38638 -0.304814,2.2451 0.167527,0.47483 0.161429,0.58696 -0.07325,1.34675 -0.140794,0.45584 -0.272742,1.13026 -0.293217,1.49871 -0.04652,0.83714 -0.211625,1.04303 -0.836414,1.04303 -0.401053,0 -0.583567,0.0904 -1.009876,0.5 -0.286192,0.275 -0.588739,0.5 -0.672325,0.5 -0.08359,0 -0.536318,-0.31568 -1.00607,-0.70151 z m -0.05761,-2.31164 c 1.378068,-0.4804 0.421666,-2.67524 -1.606715,-3.68725 -2.556806,-1.27564 -3.259418,0.69053 -0.982936,2.75063 0.493347,0.44645 0.990656,0.77149 1.349676,0.88214 0.7147,0.22028 0.758808,0.22221 1.239975,0.0545 z"
         style="opacity:1;fill:#d95f02;fill-opacity:1;stroke:#d95f02;stroke-width:0.73249996;stroke-linecap:square;stroke-miterlimit:4;stroke-dasharray:none;stroke-dashoffset:0;stroke-opacity:1" />
    </g>
  </g>
</svg>
