<?xml version="1.0" encoding="utf-8" standalone="no"?>
<!DOCTYPE svg PUBLIC "-//W3C//DTD SVG 1.1//EN"
  "http://www.w3.org/Graphics/SVG/1.1/DTD/svg11.dtd">
<!-- Created with matplotlib (https://matplotlib.org/) -->
<svg height="144pt" version="1.1" viewBox="0 0 358.56 144" width="358.56pt" xmlns="http://www.w3.org/2000/svg" xmlns:xlink="http://www.w3.org/1999/xlink">
 <defs>
  <style type="text/css">
*{stroke-linecap:butt;stroke-linejoin:round;}
  </style>
 </defs>
 <g id="figure_1">
  <g id="patch_1">
   <path d="M 0 144 
L 358.56 144 
L 358.56 0 
L 0 0 
z
" style="fill:#ffffff;"/>
  </g>
  <g id="axes_1">
   <g id="patch_2">
    <path d="M 44.82 126 
L 171.130909 126 
L 171.130909 17.28 
L 44.82 17.28 
z
" style="fill:#ffffff;"/>
   </g>
   <g id="matplotlib.axis_1">
    <g id="xtick_1">
     <g id="line2d_1">
      <defs>
       <path d="M 0 0 
L 0 6 
" id="m73147af797" style="stroke:#262626;stroke-width:1.25;"/>
      </defs>
      <g>
       <use style="fill:#262626;stroke:#262626;stroke-width:1.25;" x="50.561405" xlink:href="#m73147af797" y="126"/>
      </g>
     </g>
     <g id="text_1">
      <!-- $0$ -->
      <defs>
       <path d="M 42 31.640625 
C 42 37.75 41.90625 48.125 37.703125 56.109375 
C 34 63.109375 28.09375 65.59375 22.90625 65.59375 
C 18.09375 65.59375 12 63.40625 8.203125 56.203125 
C 4.203125 48.71875 3.796875 39.4375 3.796875 31.640625 
C 3.796875 25.953125 3.90625 17.28125 7 9.671875 
C 11.296875 -0.609375 19 -2 22.90625 -2 
C 27.5 -2 34.5 -0.109375 38.59375 9.375 
C 41.59375 16.28125 42 24.359375 42 31.640625 
z
M 22.90625 -0.40625 
C 16.5 -0.40625 12.703125 5.078125 11.296875 12.6875 
C 10.203125 18.5625 10.203125 27.15625 10.203125 32.75 
C 10.203125 40.4375 10.203125 46.828125 11.5 52.921875 
C 13.40625 61.390625 19 64 22.90625 64 
C 27 64 32.296875 61.296875 34.203125 53.125 
C 35.5 47.4375 35.59375 40.734375 35.59375 32.75 
C 35.59375 26.25 35.59375 18.265625 34.40625 12.375 
C 32.296875 1.484375 26.40625 -0.40625 22.90625 -0.40625 
z
" id="CMR17-48"/>
      </defs>
      <g style="fill:#262626;" transform="translate(47.821671 143.110347)scale(0.11 -0.11)">
       <use transform="scale(0.996264)" xlink:href="#CMR17-48"/>
      </g>
     </g>
    </g>
    <g id="xtick_2">
     <g id="line2d_2">
      <g>
       <use style="fill:#262626;stroke:#262626;stroke-width:1.25;" x="165.389504" xlink:href="#m73147af797" y="126"/>
      </g>
     </g>
     <g id="text_2">
      <!-- $7$ -->
      <defs>
       <path d="M 45.09375 61.578125 
L 45.09375 63.765625 
L 21.59375 63.765625 
C 9.90625 63.765625 9.703125 65.078125 9.296875 67 
L 7.5 67 
L 4.59375 48.34375 
L 6.40625 48.34375 
C 6.703125 50.234375 7.40625 55.3125 8.59375 57.203125 
C 9.203125 58 16.59375 58 18.296875 58 
L 40.296875 58 
L 29.203125 41.578125 
C 21.796875 30.53125 16.703125 15.609375 16.703125 2.578125 
C 16.703125 1.390625 16.703125 -2 20.296875 -2 
C 23.90625 -2 23.90625 1.390625 23.90625 2.671875 
L 23.90625 7.265625 
C 23.90625 23.5625 26.703125 34.3125 31.296875 41.1875 
z
" id="CMR17-55"/>
      </defs>
      <g style="fill:#262626;" transform="translate(162.649771 143.110347)scale(0.11 -0.11)">
       <use transform="scale(0.996264)" xlink:href="#CMR17-55"/>
      </g>
     </g>
    </g>
    <g id="text_3">
     <!-- True weight (pA) -->
     <defs>
      <path d="M 62.203125 67.59375 
L 4.5 67.59375 
L 2.796875 45.59375 
L 4.59375 45.59375 
C 5.90625 62.125 7.296875 65 22.703125 65 
C 24.5 65 27.40625 65 28.203125 64.90625 
C 30.09375 64.609375 30.09375 63.40625 30.09375 61.125 
L 30.09375 7.171875 
C 30.09375 3.59375 29.796875 2.5 21.5 2.5 
L 18.703125 2.5 
L 18.703125 0 
C 23.5 0 28.5 0 33.40625 0 
C 38.296875 0 43.296875 0 48.09375 0 
L 48.09375 2.5 
L 45.296875 2.5 
C 37 2.5 36.703125 3.59375 36.703125 7.171875 
L 36.703125 61.125 
C 36.703125 63.3125 36.703125 64.515625 38.5 64.90625 
C 39.296875 65 42.203125 65 44 65 
C 59.296875 65 60.796875 62.125 62.09375 45.59375 
L 63.90625 45.59375 
z
" id="CMR17-84"/>
      <path d="M 15 23.390625 
C 15 33 19.09375 42 26.59375 42 
C 27.296875 42 28 41.90625 28.703125 41.59375 
C 28.703125 41.59375 26.5 40.890625 26.5 38.3125 
C 26.5 35.90625 28.40625 34.90625 29.90625 34.90625 
C 31.09375 34.90625 33.296875 35.609375 33.296875 38.40625 
C 33.296875 41.609375 30.09375 43.59375 26.703125 43.59375 
C 19.09375 43.59375 15.796875 36.203125 14.796875 32.703125 
L 14.703125 32.703125 
L 14.703125 43.59375 
L 3.09375 42.5 
L 3.09375 39.90625 
C 9 39.90625 9.90625 39.296875 9.90625 34.5 
L 9.90625 6.6875 
C 9.90625 2.875 9.5 2.390625 3.09375 2.390625 
L 3.09375 -0.203125 
C 5.5 0 10.09375 0 12.703125 0 
C 15.59375 0 20.703125 0 23.40625 -0.203125 
L 23.40625 2.390625 
C 16.203125 2.390625 15 2.390625 15 6.875 
z
" id="CMR17-114"/>
      <path d="M 29.40625 42.078125 
L 29.40625 39.5 
C 35.296875 39.5 36.203125 38.890625 36.203125 34.15625 
L 36.203125 16.125 
C 36.203125 7.8125 31.703125 0.59375 24.296875 0.59375 
C 16.09375 0.59375 15.40625 5.4375 15.40625 10.59375 
L 15.40625 43.171875 
L 3.296875 42.078125 
L 3.296875 39.5 
C 7.296875 39.5 10 39.5 10.09375 35.53125 
L 10.09375 16.53125 
C 10.09375 9.890625 10.09375 5.640625 12.703125 2.859375 
C 14 1.578125 16.5 -1 23.703125 -1 
C 32.203125 -1 35.5 5.890625 36.296875 7.90625 
L 36.40625 7.90625 
L 36.40625 -0.984375 
L 48.296875 -0.984375 
L 48.296875 2 
C 42.40625 2 41.5 2.59375 41.5 7.390625 
L 41.5 43.171875 
z
" id="CMR17-117"/>
      <path d="M 38.09375 23 
C 38.5 23.40625 38.5 23.609375 38.5 24.625 
C 38.5 34.96875 33.09375 44 21.703125 44 
C 11.09375 44 2.703125 33.890625 2.703125 21.609375 
C 2.703125 8.609375 12.203125 -1 22.796875 -1 
C 34 -1 38.40625 9.484375 38.40625 11.5625 
C 38.40625 12.25 37.796875 12.25 37.59375 12.25 
C 36.90625 12.25 36.796875 12.046875 36.40625 10.875 
C 34.203125 4.140625 28.703125 0.796875 23.5 0.796875 
C 19.203125 0.796875 14.90625 3.171875 12.203125 7.5 
C 9.09375 12.546875 9.09375 18.375 9.09375 23 
z
M 9.203125 24.5 
C 9.90625 39.140625 17.59375 42.40625 21.59375 42.40625 
C 28.40625 42.40625 33 35.890625 33.09375 24.5 
z
" id="CMR17-101"/>
      <path d="M 58.203125 34.109375 
C 60.203125 40 64.203125 40 65.703125 40 
L 65.703125 42.6875 
C 63.703125 42.6875 61.703125 42.6875 59.703125 42.6875 
C 57.796875 42.6875 53.5 42.6875 51.796875 42.78125 
L 51.796875 40 
C 54.90625 40 56.59375 38.203125 56.59375 35.71875 
C 56.59375 35.015625 56.40625 34.125 56.203125 33.4375 
L 46.796875 6.359375 
L 36.59375 35.546875 
C 36.40625 36.234375 36.09375 37.03125 36.09375 37.421875 
C 36.09375 40 39.5 40 41.09375 40 
L 41.09375 42.78125 
C 38.796875 42.6875 34.59375 42.6875 32.203125 42.6875 
C 29.703125 42.6875 27.09375 42.6875 24.796875 42.78125 
L 24.796875 40 
C 30.296875 40 30.296875 39.796875 32.40625 33.578125 
L 23.203125 7.046875 
L 13.296875 35.640625 
C 12.796875 36.921875 12.796875 37.125 12.796875 37.421875 
C 12.796875 40 16.203125 40 17.796875 40 
L 17.796875 42.78125 
C 15.40625 42.6875 11.203125 42.6875 8.703125 42.6875 
C 6.5 42.6875 3.09375 42.6875 1 42.78125 
L 1 40 
C 5.40625 40 6.5 39.703125 7.59375 36.421875 
L 19.90625 0.765625 
C 20.296875 -0.515625 20.59375 -0.8125 21.40625 -0.8125 
C 22.09375 -0.8125 22.5 -0.609375 23 0.875 
L 33.296875 30.9375 
L 43.703125 0.875 
C 44.203125 -0.609375 44.59375 -0.8125 45.296875 -0.8125 
C 46.09375 -0.8125 46.40625 -0.515625 46.796875 0.78125 
z
" id="CMR17-119"/>
      <path d="M 15.5 61.078125 
C 15.5 63.265625 13.703125 65.15625 11.40625 65.15625 
C 9.203125 65.15625 7.296875 63.375 7.296875 61.078125 
C 7.296875 58.890625 9.09375 57 11.40625 57 
C 13.59375 57 15.5 58.796875 15.5 61.078125 
z
M 3.796875 42.28125 
L 3.796875 39.703125 
C 9.40625 39.703125 10.203125 39.09375 10.203125 34.328125 
L 10.203125 6.671875 
C 10.203125 2.875 9.796875 2.390625 3.40625 2.390625 
L 3.40625 -0.203125 
C 5.796875 0 10.09375 0 12.59375 0 
C 15 0 19.09375 0 21.40625 -0.203125 
L 21.40625 2.390625 
C 15.5 2.390625 15.296875 2.984375 15.296875 6.5625 
L 15.296875 43.375 
z
" id="CMR17-105"/>
      <path d="M 11.09375 18.1875 
C 13 16.6875 16.296875 15 20.296875 15 
C 28.203125 15 35 21.203125 35 29.5 
C 35 32.09375 34.203125 36.09375 31.203125 39.203125 
C 34 42.0625 38.09375 43 40.40625 43 
C 40.796875 43 41.40625 43 41.90625 42.71875 
C 41.5 42.625 40.59375 42.234375 40.59375 40.703125 
C 40.59375 39.484375 41.5 38.609375 42.796875 38.609375 
C 44.296875 38.609375 45.09375 39.578125 45.09375 40.84375 
C 45.09375 42.671875 43.59375 44.59375 40.40625 44.59375 
C 36.40625 44.59375 32.90625 42.78125 30.09375 40.3125 
C 27.09375 43.015625 23.5 44 20.296875 44 
C 12.40625 44 5.59375 37.796875 5.59375 29.5 
C 5.59375 23.78125 8.90625 20.1875 9.90625 19.1875 
C 6.90625 15.6875 6.90625 11.609375 6.90625 11.109375 
C 6.90625 8.515625 7.90625 4.71875 11.296875 2.625 
C 6.09375 1.328125 2 -2.640625 2 -7.59375 
C 2 -14.734375 11.5 -20 22.90625 -20 
C 33.90625 -20 43.796875 -14.9375 43.796875 -7.484375 
C 43.796875 6 29 6 21.296875 6 
C 19 6 14.90625 6 14.40625 6.109375 
C 11.296875 6.609375 9.203125 9.40625 9.203125 12.90625 
C 9.203125 13.796875 9.203125 16 11.09375 18.1875 
z
M 20.296875 16.6875 
C 11.5 16.6875 11.5 27.5 11.5 29.515625 
C 11.5 31.5 11.5 42.3125 20.296875 42.3125 
C 29.09375 42.3125 29.09375 31.5 29.09375 29.515625 
C 29.09375 27.5 29.09375 16.6875 20.296875 16.6875 
z
M 22.90625 -18.296875 
C 12.90625 -18.296875 6 -13.046875 6 -7.59375 
C 6 -4.515625 7.703125 -1.640625 9.90625 -0.0625 
C 12.40625 1.625 13.40625 1.625 20.203125 1.625 
C 28.40625 1.625 39.796875 1.625 39.796875 -7.59375 
C 39.796875 -13.046875 32.90625 -18.296875 22.90625 -18.296875 
z
" id="CMR17-103"/>
      <path d="M 41.5 30.203125 
C 41.5 35.296875 40.5 43.59375 28.703125 43.59375 
C 20.5 43.59375 16.5 37 15.296875 33.703125 
L 15.203125 33.703125 
L 15.203125 68.6875 
L 3.296875 67.59375 
L 3.296875 65 
C 9.203125 65 10.09375 64.40625 10.09375 59.640625 
L 10.09375 6.65625 
C 10.09375 2.875 9.703125 2.390625 3.296875 2.390625 
L 3.296875 -0.203125 
C 5.703125 0 10.09375 0 12.703125 0 
C 15.296875 0 19.796875 0 22.203125 -0.203125 
L 22.203125 2.390625 
C 15.796875 2.390625 15.40625 2.78125 15.40625 6.6875 
L 15.40625 25.90625 
C 15.40625 35.109375 21 42 28 42 
C 35.40625 42 36.203125 35.40625 36.203125 30.59375 
L 36.203125 6.6875 
C 36.203125 2.875 35.796875 2.390625 29.40625 2.390625 
L 29.40625 -0.203125 
C 31.796875 0 36.203125 0 38.796875 0 
C 41.40625 0 45.90625 0 48.296875 -0.203125 
L 48.296875 2.390625 
C 41.90625 2.390625 41.5 2.78125 41.5 6.6875 
z
" id="CMR17-104"/>
      <path d="M 15.09375 40 
L 29.09375 40 
L 29.09375 42.578125 
L 15.09375 42.578125 
L 15.09375 61 
L 13.296875 61 
C 13.09375 50.703125 9.59375 41.6875 1.09375 41.6875 
L 1.09375 40 
L 9.796875 40 
L 9.796875 12.046875 
C 9.796875 10.15625 9.796875 -1 21.40625 -1 
C 27.296875 -1 30.703125 4.78125 30.703125 12.140625 
L 30.703125 17.8125 
L 28.90625 17.8125 
L 28.90625 12.234375 
C 28.90625 5.375 26.203125 0.796875 22 0.796875 
C 19.09375 0.796875 15.09375 2.78125 15.09375 11.84375 
z
" id="CMR17-116"/>
      <path d="M 30.59375 -24.390625 
C 30.59375 -24.296875 30.59375 -24.09375 30.296875 -23.796875 
C 25.703125 -19.125 13.40625 -6.359375 13.40625 24.703125 
C 13.40625 55.765625 25.5 68.421875 30.40625 73.390625 
C 30.40625 73.5 30.59375 73.703125 30.59375 74 
C 30.59375 74.296875 30.296875 74.5 29.90625 74.5 
C 28.796875 74.5 20.296875 67.125 15.40625 56.15625 
C 10.40625 45.109375 9 34.359375 9 24.8125 
C 9 17.625 9.703125 5.484375 15.703125 -7.359375 
C 20.5 -17.734375 28.703125 -25 29.90625 -25 
C 30.40625 -25 30.59375 -24.796875 30.59375 -24.390625 
z
" id="CMR17-40"/>
      <path d="M 22 -16.609375 
C 15.59375 -16.609375 15.203125 -16.203125 15.203125 -12.328125 
L 15.203125 6.28125 
C 18.09375 2.09375 22.296875 -0.59375 27.59375 -0.59375 
C 37.59375 -0.59375 47.703125 8.171875 47.703125 21.6875 
C 47.703125 34.234375 39 43.78125 28.703125 43.78125 
C 22.703125 43.78125 17.796875 40.5 15 36.53125 
L 15 43.78125 
L 3.09375 42.6875 
L 3.09375 40.109375 
C 9 40.109375 9.90625 39.5 9.90625 34.734375 
L 9.90625 -12.328125 
C 9.90625 -16.109375 9.5 -16.609375 3.09375 -16.609375 
L 3.09375 -19.1875 
C 5.5 -19 9.90625 -19 12.5 -19 
C 15.09375 -19 19.59375 -19 22 -19.1875 
z
M 15.203125 31.4375 
C 15.203125 32.84375 15.203125 34.921875 19.09375 38.609375 
C 19.59375 39.015625 23 42 28 42 
C 35.296875 42 41.296875 32.9375 41.296875 21.59375 
C 41.296875 10.25 34.90625 1 27 1 
C 23.40625 1 19.5 2.6875 16.5 7.375 
C 15.203125 9.5625 15.203125 10.15625 15.203125 11.75 
z
" id="CMR17-112"/>
      <path d="M 36.296875 68.40625 
C 35.796875 69.703125 35.59375 70 34.59375 70 
C 33.59375 70 33.40625 69.703125 32.90625 68.40625 
L 11.703125 8.84375 
C 9.796875 3.484375 5.796875 2.390625 2.296875 2.390625 
L 2.296875 -0.203125 
C 4.09375 0 8.09375 0 10 0 
C 12.5 0 16.5 0 18.90625 -0.203125 
L 18.90625 2.390625 
C 14.203125 2.390625 13.5 5.640625 13.5 6.859375 
C 13.5 7.765625 13.703125 8.28125 13.90625 8.890625 
L 19.203125 24 
L 45.40625 24 
L 51.40625 6.90625 
C 51.90625 5.703125 51.90625 5.5 51.90625 5.109375 
C 51.90625 2.390625 47.59375 2.390625 45.703125 2.390625 
L 45.703125 0 
C 48.59375 0 53.796875 0 56.90625 0 
C 59.5 0 64.5 0 66.90625 -0.203125 
L 66.90625 2.390625 
C 61.59375 2.390625 59.796875 2.390625 58.5 6.046875 
z
M 32.296875 60.828125 
L 44.5 26.59375 
L 20.09375 26.59375 
z
" id="CMR17-65"/>
      <path d="M 26.296875 24.703125 
C 26.296875 31.875 25.59375 44.015625 19.59375 56.859375 
C 14.796875 67.234375 6.59375 74.5 5.40625 74.5 
C 5.09375 74.5 4.703125 74.390625 4.703125 73.890625 
C 4.703125 73.703125 4.796875 73.59375 4.90625 73.390625 
C 9.703125 68.40625 21.90625 55.75 21.90625 24.75 
C 21.90625 -6.359375 9.796875 -19.015625 4.90625 -24.015625 
C 4.796875 -24.203125 4.703125 -24.3125 4.703125 -24.5 
C 4.703125 -25 5.09375 -25 5.40625 -25 
C 6.5 -25 15 -17.625 19.90625 -6.65625 
C 24.90625 4.390625 26.296875 15.140625 26.296875 24.703125 
z
" id="CMR17-41"/>
     </defs>
     <g style="fill:#262626;" transform="translate(63.42977 158.207617)scale(0.12 -0.12)">
      <use transform="scale(0.996264)" xlink:href="#CMR17-84"/>
      <use transform="translate(58.702625 0)scale(0.996264)" xlink:href="#CMR17-114"/>
      <use transform="translate(93.983393 0)scale(0.996264)" xlink:href="#CMR17-117"/>
      <use transform="translate(144.878763 0)scale(0.996264)" xlink:href="#CMR17-101"/>
      <use transform="translate(215.44039 0)scale(0.996264)" xlink:href="#CMR17-119"/>
      <use transform="translate(279.347816 0)scale(0.996264)" xlink:href="#CMR17-101"/>
      <use transform="translate(319.833477 0)scale(0.996264)" xlink:href="#CMR17-105"/>
      <use transform="translate(344.704535 0)scale(0.996264)" xlink:href="#CMR17-103"/>
      <use transform="translate(390.395012 0)scale(0.996264)" xlink:href="#CMR17-104"/>
      <use transform="translate(438.687928 0)scale(0.996264)" xlink:href="#CMR17-116"/>
      <use transform="translate(504.044662 0)scale(0.996264)" xlink:href="#CMR17-40"/>
      <use transform="translate(539.32543 0)scale(0.996264)" xlink:href="#CMR17-112"/>
      <use transform="translate(590.2208 0)scale(0.996264)" xlink:href="#CMR17-65"/>
      <use transform="translate(659.29323 0)scale(0.996264)" xlink:href="#CMR17-41"/>
     </g>
    </g>
   </g>
   <g id="matplotlib.axis_2">
    <g id="ytick_1">
     <g id="line2d_3">
      <defs>
       <path d="M 0 0 
L -6 0 
" id="m66f407b604" style="stroke:#262626;stroke-width:1.25;"/>
      </defs>
      <g>
       <use style="fill:#262626;stroke:#262626;stroke-width:1.25;" x="44.82" xlink:href="#m66f407b604" y="111.81913"/>
      </g>
     </g>
     <g id="text_4">
      <!-- $0.0$ -->
      <defs>
       <path d="M 18.40625 4.796875 
C 18.40625 7.6875 16 9.671875 13.59375 9.671875 
C 10.703125 9.671875 8.703125 7.28125 8.703125 4.890625 
C 8.703125 2 11.09375 0 13.5 0 
C 16.40625 0 18.40625 2.390625 18.40625 4.796875 
z
" id="CMMI12-58"/>
      </defs>
      <g style="fill:#262626;" transform="translate(21.316924 115.624304)scale(0.11 -0.11)">
       <use transform="scale(0.996264)" xlink:href="#CMR17-48"/>
       <use transform="translate(45.690477 0)scale(0.996264)" xlink:href="#CMMI12-58"/>
       <use transform="translate(72.787654 0)scale(0.996264)" xlink:href="#CMR17-48"/>
      </g>
     </g>
    </g>
    <g id="ytick_2">
     <g id="line2d_4">
      <g>
       <use style="fill:#262626;stroke:#262626;stroke-width:1.25;" x="44.82" xlink:href="#m66f407b604" y="36.187826"/>
      </g>
     </g>
     <g id="text_5">
      <!-- $0.8$ -->
      <defs>
       <path d="M 27.203125 35.375 
C 33.5 38.546875 39.90625 43.328125 39.90625 50.984375 
C 39.90625 60.015625 31.09375 65.296875 23 65.296875 
C 13.90625 65.296875 5.90625 58.734375 5.90625 49.6875 
C 5.90625 47.203125 6.5 42.921875 10.40625 39.140625 
C 11.40625 38.15625 15.59375 35.171875 18.296875 33.28125 
C 13.796875 30.984375 3.296875 25.53125 3.296875 14.59375 
C 3.296875 4.359375 13.09375 -2 22.796875 -2 
C 33.5 -2 42.5 5.65625 42.5 15.78125 
C 42.5 24.84375 36.40625 29.015625 32.40625 31.703125 
z
M 14.09375 44.09375 
C 13.296875 44.59375 9.296875 47.671875 9.296875 52.359375 
C 9.296875 58.421875 15.59375 63 22.796875 63 
C 30.703125 63 36.5 57.4375 36.5 50.96875 
C 36.5 41.703125 26.09375 36.421875 25.59375 36.421875 
C 25.5 36.421875 25.40625 36.421875 24.59375 37.03125 
z
M 32.5 23.734375 
C 34 22.640625 38.796875 19.375 38.796875 13.296875 
C 38.796875 5.953125 31.40625 0.390625 23 0.390625 
C 13.90625 0.390625 7 6.84375 7 14.6875 
C 7 22.546875 13.09375 29.09375 20 32.1875 
z
" id="CMR17-56"/>
      </defs>
      <g style="fill:#262626;" transform="translate(21.316924 39.992999)scale(0.11 -0.11)">
       <use transform="scale(0.996264)" xlink:href="#CMR17-48"/>
       <use transform="translate(45.690477 0)scale(0.996264)" xlink:href="#CMMI12-58"/>
       <use transform="translate(72.787654 0)scale(0.996264)" xlink:href="#CMR17-56"/>
      </g>
     </g>
    </g>
    <g id="text_6">
     <!-- Transmission probability -->
     <defs>
      <path d="M 36 25.828125 
C 36 32.375 36 35.84375 31.796875 39.734375 
C 28.09375 43 23.796875 44 20.40625 44 
C 12.5 44 6.796875 37.609375 6.796875 30.796875 
C 6.796875 27 9.796875 27 10.40625 27 
C 11.703125 27 14 27.78125 14 30.53125 
C 14 33 12.09375 34.078125 10.40625 34.078125 
C 10 34.078125 9.5 33.96875 9.203125 33.875 
C 11.296875 40.5 16.703125 42.40625 20.203125 42.40625 
C 25.203125 42.40625 30.703125 37.953125 30.703125 29.453125 
L 30.703125 25 
C 24.796875 25 17.703125 24.203125 12.09375 21.203125 
C 5.796875 17.703125 4 12.703125 4 8.90625 
C 4 1.203125 13 -1 18.296875 -1 
C 23.796875 -1 28.90625 2.171875 31.09375 7.984375 
C 31.296875 3.640625 34.09375 -0.28125 38.5 -0.28125 
C 40.59375 -0.28125 45.90625 1.09375 45.90625 8.859375 
L 45.90625 14.375 
L 44.09375 14.375 
L 44.09375 8.78125 
C 44.09375 2.78125 41.40625 2 40.09375 2 
C 36 2 36 7.15625 36 11.53125 
z
M 30.703125 13.59375 
C 30.703125 4.953125 24.5 0.59375 19 0.59375 
C 14 0.59375 10.09375 4.296875 10.09375 8.90625 
C 10.09375 11.890625 11.40625 17.1875 17.203125 20.390625 
C 22 23.09375 27.5 23.5 30.703125 23.5 
z
" id="CMR17-97"/>
      <path d="M 41.5 30.203125 
C 41.5 35.296875 40.5 43.59375 28.703125 43.59375 
C 20.796875 43.59375 16.703125 37.5 15.203125 33.5 
L 15.09375 33.5 
L 15.09375 43.59375 
L 3.296875 42.5 
L 3.296875 39.90625 
C 9.203125 39.90625 10.09375 39.296875 10.09375 34.5 
L 10.09375 6.6875 
C 10.09375 2.875 9.703125 2.390625 3.296875 2.390625 
L 3.296875 -0.203125 
C 5.703125 0 10.09375 0 12.703125 0 
C 15.296875 0 19.796875 0 22.203125 -0.203125 
L 22.203125 2.390625 
C 15.796875 2.390625 15.40625 2.78125 15.40625 6.6875 
L 15.40625 25.90625 
C 15.40625 35.109375 21 42 28 42 
C 35.40625 42 36.203125 35.40625 36.203125 30.59375 
L 36.203125 6.6875 
C 36.203125 2.875 35.796875 2.390625 29.40625 2.390625 
L 29.40625 -0.203125 
C 31.796875 0 36.203125 0 38.796875 0 
C 41.40625 0 45.90625 0 48.296875 -0.203125 
L 48.296875 2.390625 
C 41.90625 2.390625 41.5 2.78125 41.5 6.6875 
z
" id="CMR17-110"/>
      <path d="M 30.90625 42.140625 
C 30.90625 43.953125 30.796875 44.046875 30.203125 44.046875 
C 29.796875 44.046875 29.703125 43.953125 28.5 42.453125 
C 28.203125 42.046875 27.296875 41.03125 27 40.640625 
C 23.796875 44.046875 19.296875 44.046875 17.59375 44.046875 
C 6.5 44.046875 2.5 38.234375 2.5 32.4375 
C 2.5 23.40625 12.703125 21.328125 15.59375 20.703125 
C 21.90625 19.421875 24.09375 19.015625 26.203125 17.203125 
C 27.5 16.015625 29.703125 13.8125 29.703125 10.21875 
C 29.703125 6 27.296875 0.59375 18.09375 0.59375 
C 9.40625 0.59375 6.296875 7.1875 4.5 15.953125 
C 4.203125 17.34375 4.203125 17.453125 3.40625 17.453125 
C 2.59375 17.453125 2.5 17.34375 2.5 15.359375 
L 2.5 0.984375 
C 2.5 -0.796875 2.59375 -0.90625 3.203125 -0.90625 
C 3.703125 -0.90625 3.796875 -0.796875 4.296875 0 
C 4.90625 0.890625 6.40625 3.296875 7 4.3125 
C 9 1.609375 12.5 -1 18.09375 -1 
C 28 -1 33.296875 4.421875 33.296875 12.25 
C 33.296875 17.375 30.59375 20.078125 29.296875 21.28125 
C 26.296875 24.390625 22.796875 25.09375 18.59375 25.890625 
C 13.09375 27.109375 6.09375 28.515625 6.09375 34.640625 
C 6.09375 37.234375 7.5 42.765625 17.59375 42.765625 
C 28.296875 42.765625 28.90625 32.71875 29.09375 29.5 
C 29.203125 29 29.703125 28.890625 30 28.890625 
C 30.90625 28.890625 30.90625 29.203125 30.90625 30.90625 
z
" id="CMR17-115"/>
      <path d="M 67.59375 30.203125 
C 67.59375 35.1875 66.703125 43.59375 54.796875 43.59375 
C 48 43.59375 43.296875 39 41.5 33.609375 
L 41.40625 33.609375 
C 40.203125 41.8125 34.296875 43.59375 28.703125 43.59375 
C 20.796875 43.59375 16.703125 37.5 15.203125 33.5 
L 15.09375 33.5 
L 15.09375 43.59375 
L 3.296875 42.5 
L 3.296875 39.90625 
C 9.203125 39.90625 10.09375 39.296875 10.09375 34.5 
L 10.09375 6.6875 
C 10.09375 2.875 9.703125 2.390625 3.296875 2.390625 
L 3.296875 -0.203125 
C 5.703125 0 10.09375 0 12.703125 0 
C 15.296875 0 19.796875 0 22.203125 -0.203125 
L 22.203125 2.390625 
C 15.796875 2.390625 15.40625 2.78125 15.40625 6.6875 
L 15.40625 25.90625 
C 15.40625 35.109375 21 42 28 42 
C 35.40625 42 36.203125 35.40625 36.203125 30.59375 
L 36.203125 6.6875 
C 36.203125 2.875 35.796875 2.390625 29.40625 2.390625 
L 29.40625 -0.203125 
C 31.796875 0 36.203125 0 38.796875 0 
C 41.40625 0 45.90625 0 48.296875 -0.203125 
L 48.296875 2.390625 
C 41.90625 2.390625 41.5 2.78125 41.5 6.6875 
L 41.5 25.90625 
C 41.5 35.109375 47.09375 42 54.09375 42 
C 61.5 42 62.296875 35.40625 62.296875 30.59375 
L 62.296875 6.6875 
C 62.296875 2.875 61.90625 2.390625 55.5 2.390625 
L 55.5 -0.203125 
C 57.90625 0 62.296875 0 64.90625 0 
C 67.5 0 72 0 74.40625 -0.203125 
L 74.40625 2.390625 
C 68 2.390625 67.59375 2.78125 67.59375 6.6875 
z
" id="CMR17-109"/>
      <path d="M 43.09375 21.1875 
C 43.09375 34 33.796875 44 22.90625 44 
C 12 44 2.703125 34 2.703125 21.1875 
C 2.703125 8.609375 12 -1 22.90625 -1 
C 33.796875 -1 43.09375 8.609375 43.09375 21.1875 
z
M 22.90625 0.796875 
C 18.203125 0.796875 14.203125 3.59375 11.90625 7.5 
C 9.40625 11.984375 9.09375 17.59375 9.09375 22 
C 9.09375 26.203125 9.296875 31.40625 11.90625 35.90625 
C 13.90625 39.203125 17.796875 42.40625 22.90625 42.40625 
C 27.40625 42.40625 31.203125 39.90625 33.59375 36.40625 
C 36.703125 31.703125 36.703125 25.109375 36.703125 22 
C 36.703125 18.09375 36.5 12.109375 33.796875 7.296875 
C 31 2.703125 26.703125 0.796875 22.90625 0.796875 
z
" id="CMR17-111"/>
      <path d="M 15 68.6875 
L 3.09375 67.59375 
L 3.09375 65 
C 9 65 9.90625 64.40625 9.90625 59.640625 
L 9.90625 -0.203125 
L 11.703125 -0.203125 
L 14.59375 6.890625 
C 17.5 2.203125 21.796875 -1 27.59375 -1 
C 37.59375 -1 47.703125 7.8125 47.703125 21.40625 
C 47.703125 34.1875 38.703125 43.59375 28.59375 43.59375 
C 22.40625 43.59375 18 40.296875 15 36.40625 
z
M 15.203125 31.3125 
C 15.203125 33.09375 15.203125 33.40625 16.59375 35.5 
C 20.5 41.515625 26.09375 42 28 42 
C 31 42 41.296875 40.390625 41.296875 21.5 
C 41.296875 1.6875 29.5 0.59375 27.09375 0.59375 
C 24 0.59375 19.5 1.78125 16.296875 7.59375 
C 15.203125 9.5 15.203125 9.703125 15.203125 11.484375 
z
" id="CMR17-98"/>
      <path d="M 15.296875 68.6875 
L 3.40625 67.59375 
L 3.40625 65 
C 9.296875 65 10.203125 64.40625 10.203125 59.640625 
L 10.203125 6.65625 
C 10.203125 2.875 9.796875 2.390625 3.40625 2.390625 
L 3.40625 -0.203125 
C 5.796875 0 10.203125 0 12.703125 0 
C 15.296875 0 19.703125 0 22.09375 -0.203125 
L 22.09375 2.390625 
C 15.703125 2.390625 15.296875 2.78125 15.296875 6.65625 
z
" id="CMR17-108"/>
      <path d="M 39 34.328125 
C 41.5 40.40625 46 40.40625 47.40625 40.40625 
L 47.40625 43 
C 45.5 43 43 43 41.09375 43 
C 39 43 35.703125 43 33.703125 43.09375 
L 33.703125 40.5 
C 37.5 40.203125 37.59375 37.40625 37.59375 36.609375 
C 37.59375 35.625 37.40625 35.125 36.90625 33.921875 
L 26 7.015625 
L 14.09375 36.03125 
C 13.59375 37.21875 13.59375 37.90625 13.59375 38.015625 
C 13.59375 40.203125 15.90625 40.40625 18.296875 40.40625 
L 18.296875 43.09375 
C 15.90625 43 11.59375 43 9.09375 43 
C 6.40625 43 3.203125 43 1 43.09375 
L 1 40.40625 
C 6.40625 40.40625 7 39.90625 8.296875 36.71875 
L 23.203125 0.234375 
C 18.703125 -11.53125 16.09375 -18.40625 9.796875 -18.40625 
C 8.703125 -18.40625 6.203125 -18.109375 4.40625 -16.3125 
C 6.703125 -16.109375 7.703125 -14.71875 7.703125 -13.015625 
C 7.703125 -11.328125 6.5 -9.828125 4.5 -9.828125 
C 2.296875 -9.828125 1.203125 -11.328125 1.203125 -13.125 
C 1.203125 -17.109375 5.296875 -20 9.796875 -20 
C 15.59375 -20 19.203125 -14.40625 21.203125 -9.4375 
z
" id="CMR17-121"/>
     </defs>
     <g style="fill:#262626;" transform="translate(14.992328 134.982361)rotate(-90)scale(0.12 -0.12)">
      <use transform="scale(0.996264)" xlink:href="#CMR17-84"/>
      <use transform="translate(58.702625 0)scale(0.996264)" xlink:href="#CMR17-114"/>
      <use transform="translate(93.983393 0)scale(0.996264)" xlink:href="#CMR17-97"/>
      <use transform="translate(139.67387 0)scale(0.996264)" xlink:href="#CMR17-110"/>
      <use transform="translate(190.56924 0)scale(0.996264)" xlink:href="#CMR17-115"/>
      <use transform="translate(226.370577 0)scale(0.996264)" xlink:href="#CMR17-109"/>
      <use transform="translate(303.290167 0)scale(0.996264)" xlink:href="#CMR17-105"/>
      <use transform="translate(328.161226 0)scale(0.996264)" xlink:href="#CMR17-115"/>
      <use transform="translate(363.962563 0)scale(0.996264)" xlink:href="#CMR17-115"/>
      <use transform="translate(399.763901 0)scale(0.996264)" xlink:href="#CMR17-105"/>
      <use transform="translate(424.63496 0)scale(0.996264)" xlink:href="#CMR17-111"/>
      <use transform="translate(470.325437 0)scale(0.996264)" xlink:href="#CMR17-110"/>
      <use transform="translate(551.296773 0)scale(0.996264)" xlink:href="#CMR17-112"/>
      <use transform="translate(602.192143 0)scale(0.996264)" xlink:href="#CMR17-114"/>
      <use transform="translate(637.47291 0)scale(0.996264)" xlink:href="#CMR17-111"/>
      <use transform="translate(683.163388 0)scale(0.996264)" xlink:href="#CMR17-98"/>
      <use transform="translate(734.058757 0)scale(0.996264)" xlink:href="#CMR17-97"/>
      <use transform="translate(779.749234 0)scale(0.996264)" xlink:href="#CMR17-98"/>
      <use transform="translate(830.644604 0)scale(0.996264)" xlink:href="#CMR17-105"/>
      <use transform="translate(855.515663 0)scale(0.996264)" xlink:href="#CMR17-108"/>
      <use transform="translate(880.386721 0)scale(0.996264)" xlink:href="#CMR17-105"/>
      <use transform="translate(905.25778 0)scale(0.996264)" xlink:href="#CMR17-116"/>
      <use transform="translate(937.936094 0)scale(0.996264)" xlink:href="#CMR17-121"/>
     </g>
    </g>
   </g>
   <g id="line2d_5">
    <path clip-path="url(#p8a694e8875)" d="M 50.561405 115.833884 
L 52.201806 114.316637 
L 53.842208 114.785272 
L 55.482609 112.846367 
L 57.123011 114.930417 
L 58.763412 113.64974 
L 60.403813 110.910042 
L 62.044215 109.1812 
L 63.684616 109.937222 
L 65.325018 107.983853 
L 66.965419 106.401387 
L 68.605821 105.559933 
L 70.246222 105.887721 
L 71.886623 104.135667 
L 73.527025 105.329435 
L 75.167426 104.214237 
L 76.807828 101.594974 
L 78.448229 101.454719 
L 80.08863 97.841251 
L 81.729032 98.709526 
L 83.369433 98.060746 
L 85.009835 95.937122 
L 86.650236 94.892161 
L 88.290638 92.834633 
L 89.931039 89.880193 
L 91.57144 90.730243 
L 93.211842 88.595534 
L 94.852243 87.961336 
L 96.492645 86.517861 
L 98.133046 86.933256 
L 99.773447 84.993062 
L 101.413849 83.353567 
L 103.05425 82.638421 
L 104.694652 79.473835 
L 106.335053 78.501534 
L 107.975455 79.33023 
L 109.615856 77.96302 
L 111.256257 75.148717 
L 112.896659 75.275206 
L 114.53706 74.060679 
L 116.177462 72.612653 
L 117.817863 71.706016 
L 119.458264 70.054791 
L 121.098666 69.545654 
L 122.739067 69.068744 
L 124.379469 66.773366 
L 126.01987 64.860343 
L 127.660272 65.147615 
L 129.300673 62.689524 
L 130.941074 62.785457 
L 132.581476 59.571049 
L 134.221877 61.470891 
L 135.862279 58.912119 
L 137.50268 58.495613 
L 139.143081 57.322546 
L 140.783483 57.655952 
L 142.423884 55.712684 
L 144.064286 55.102065 
L 145.704687 53.294838 
L 147.345089 52.695567 
L 148.98549 52.003323 
L 150.625891 51.466579 
L 152.266293 51.161334 
L 153.906694 49.644005 
L 155.547096 50.490705 
L 157.187497 49.986206 
L 158.827898 48.304834 
L 160.4683 47.125492 
L 162.108701 46.826644 
L 163.749103 44.247367 
L 165.389504 45.059662 
" style="fill:none;stroke:#e41a1c;stroke-linecap:round;stroke-width:2;"/>
   </g>
   <g id="line2d_6">
    <path clip-path="url(#p8a694e8875)" d="M 50.561405 110.64139 
L 52.201806 110.292219 
L 53.842208 109.425793 
L 55.482609 108.613122 
L 57.123011 107.956143 
L 58.763412 106.988879 
L 60.403813 106.180559 
L 62.044215 105.978242 
L 63.684616 104.130919 
L 65.325018 103.823094 
L 66.965419 102.832656 
L 68.605821 101.879828 
L 70.246222 100.919915 
L 71.886623 99.235815 
L 73.527025 98.683617 
L 75.167426 97.418968 
L 76.807828 96.289327 
L 78.448229 95.106017 
L 80.08863 93.819885 
L 81.729032 92.731212 
L 83.369433 91.118442 
L 85.009835 89.857642 
L 86.650236 89.013816 
L 88.290638 87.798079 
L 89.931039 85.942597 
L 91.57144 85.077129 
L 93.211842 84.174458 
L 94.852243 82.449546 
L 96.492645 81.356765 
L 98.133046 80.379156 
L 99.773447 78.501248 
L 101.413849 77.497828 
L 103.05425 76.441228 
L 104.694652 74.921011 
L 106.335053 73.297239 
L 107.975455 72.053569 
L 109.615856 71.094264 
L 111.256257 69.370948 
L 112.896659 68.343028 
L 114.53706 66.692604 
L 116.177462 65.155772 
L 117.817863 64.637786 
L 119.458264 63.134901 
L 121.098666 61.581257 
L 122.739067 59.987986 
L 124.379469 58.807389 
L 126.01987 57.77573 
L 127.660272 56.53224 
L 129.300673 54.817931 
L 130.941074 53.535871 
L 132.581476 53.046708 
L 134.221877 51.822536 
L 135.862279 50.387604 
L 137.50268 49.314545 
L 139.143081 48.187058 
L 140.783483 47.043188 
L 142.423884 45.900136 
L 144.064286 44.863561 
L 145.704687 43.81678 
L 147.345089 42.900574 
L 148.98549 41.953712 
L 150.625891 41.093787 
L 152.266293 39.530634 
L 153.906694 39.10899 
L 155.547096 38.012612 
L 157.187497 37.819626 
L 158.827898 36.67938 
L 160.4683 35.859952 
L 162.108701 34.997901 
L 163.749103 34.169366 
L 165.389504 33.810895 
" style="fill:none;stroke:#377eb8;stroke-linecap:round;stroke-width:2;"/>
   </g>
   <g id="line2d_7">
    <path clip-path="url(#p8a694e8875)" d="M 50.561405 110.509333 
L 52.201806 110.107531 
L 53.842208 109.570792 
L 55.482609 109.09404 
L 57.123011 108.436266 
L 58.763412 108.024045 
L 60.403813 107.151531 
L 62.044215 106.660325 
L 63.684616 105.844056 
L 65.325018 105.246553 
L 66.965419 104.494241 
L 68.605821 103.668464 
L 70.246222 102.962914 
L 71.886623 101.985157 
L 73.527025 101.269825 
L 75.167426 100.31641 
L 76.807828 99.404932 
L 78.448229 98.650529 
L 80.08863 97.671218 
L 81.729032 96.686013 
L 83.369433 95.783298 
L 85.009835 94.863681 
L 86.650236 93.897836 
L 88.290638 92.969462 
L 89.931039 91.89114 
L 91.57144 90.989475 
L 93.211842 89.981999 
L 94.852243 89.156933 
L 96.492645 88.24631 
L 98.133046 87.033706 
L 99.773447 86.141222 
L 101.413849 85.328737 
L 103.05425 84.157402 
L 104.694652 83.05757 
L 106.335053 82.148611 
L 107.975455 81.214291 
L 109.615856 80.150963 
L 111.256257 79.158736 
L 112.896659 78.235103 
L 114.53706 77.380884 
L 116.177462 77.348188 
L 117.817863 76.374007 
L 119.458264 75.269779 
L 121.098666 74.607176 
L 122.739067 73.408039 
L 124.379469 72.482 
L 126.01987 71.557272 
L 127.660272 70.658408 
L 129.300673 69.853583 
L 130.941074 68.83783 
L 132.581476 68.189662 
L 134.221877 67.022867 
L 135.862279 66.302247 
L 137.50268 65.348796 
L 139.143081 64.477004 
L 140.783483 63.850087 
L 142.423884 62.821446 
L 144.064286 62.160707 
L 145.704687 61.130404 
L 147.345089 60.48194 
L 148.98549 59.679903 
L 150.625891 58.997904 
L 152.266293 58.255894 
L 153.906694 57.394184 
L 155.547096 56.629892 
L 157.187497 56.088837 
L 158.827898 55.378462 
L 160.4683 54.45454 
L 162.108701 53.916536 
L 163.749103 53.348939 
L 165.389504 52.609568 
" style="fill:none;stroke:#e6ab02;stroke-linecap:round;stroke-width:2;"/>
   </g>
   <g id="line2d_8">
    <path clip-path="url(#p8a694e8875)" d="M 44.82 111.81913 
L 171.130909 111.81913 
" style="fill:none;stroke:#1a1a1a;stroke-dasharray:3.7,1.6;stroke-dashoffset:0;"/>
   </g>
   <g id="patch_3">
    <path d="M 44.82 126 
L 44.82 17.28 
" style="fill:none;stroke:#262626;stroke-linecap:square;stroke-linejoin:miter;stroke-width:1.25;"/>
   </g>
   <g id="patch_4">
    <path d="M 44.82 126 
L 171.130909 126 
" style="fill:none;stroke:#262626;stroke-linecap:square;stroke-linejoin:miter;stroke-width:1.25;"/>
   </g>
   <g id="text_7">
    <!-- AC -->
    <defs>
     <path d="M 62.09375 67.015625 
C 62.09375 68.796875 62 68.90625 61.40625 68.90625 
C 61 68.90625 60.90625 68.796875 60.203125 67.609375 
L 55.796875 59.25 
C 50.90625 65.421875 44.90625 69 37.203125 69 
C 20.09375 69 4.59375 54 4.59375 33.5625 
C 4.59375 12.90625 20.09375 -2 37.296875 -2 
C 52.59375 -2 62.09375 11.40625 62.09375 22.828125 
C 62.09375 23.8125 62.09375 24.21875 61.203125 24.21875 
C 60.40625 24.21875 60.40625 23.921875 60.296875 23.03125 
C 59.5 9.140625 49.5 0.59375 38.703125 0.59375 
C 28.5 0.59375 12.203125 7.734375 12.203125 33.546875 
C 12.203125 59.453125 28.796875 66.40625 38.5 66.40625 
C 49.796875 66.40625 58 56.6875 59.90625 42.890625 
C 60.09375 41.6875 60.09375 41.484375 61 41.484375 
C 62.09375 41.484375 62.09375 41.6875 62.09375 43.484375 
z
" id="CMR17-67"/>
    </defs>
    <g style="fill:#262626;" transform="translate(99.52321 11.28)scale(0.12 -0.12)">
     <use transform="scale(0.996264)" xlink:href="#CMR17-65"/>
     <use transform="translate(66.469976 0)scale(0.996264)" xlink:href="#CMR17-67"/>
    </g>
   </g>
  </g>
  <g id="axes_2">
   <g id="patch_5">
    <path d="M 196.393091 126 
L 322.704 126 
L 322.704 17.28 
L 196.393091 17.28 
z
" style="fill:#ffffff;"/>
   </g>
   <g id="matplotlib.axis_3">
    <g id="xtick_3">
     <g id="line2d_9">
      <g>
       <use style="fill:#262626;stroke:#262626;stroke-width:1.25;" x="202.134496" xlink:href="#m73147af797" y="126"/>
      </g>
     </g>
     <g id="text_8">
      <!-- $0$ -->
      <g style="fill:#262626;" transform="translate(199.394762 143.110347)scale(0.11 -0.11)">
       <use transform="scale(0.996264)" xlink:href="#CMR17-48"/>
      </g>
     </g>
    </g>
    <g id="xtick_4">
     <g id="line2d_10">
      <g>
       <use style="fill:#262626;stroke:#262626;stroke-width:1.25;" x="316.962595" xlink:href="#m73147af797" y="126"/>
      </g>
     </g>
     <g id="text_9">
      <!-- $7$ -->
      <g style="fill:#262626;" transform="translate(314.222861 143.110347)scale(0.11 -0.11)">
       <use transform="scale(0.996264)" xlink:href="#CMR17-55"/>
      </g>
     </g>
    </g>
    <g id="text_10">
     <!-- True weight (pA) -->
     <g style="fill:#262626;" transform="translate(215.002861 158.207617)scale(0.12 -0.12)">
      <use transform="scale(0.996264)" xlink:href="#CMR17-84"/>
      <use transform="translate(58.702625 0)scale(0.996264)" xlink:href="#CMR17-114"/>
      <use transform="translate(93.983393 0)scale(0.996264)" xlink:href="#CMR17-117"/>
      <use transform="translate(144.878763 0)scale(0.996264)" xlink:href="#CMR17-101"/>
      <use transform="translate(215.44039 0)scale(0.996264)" xlink:href="#CMR17-119"/>
      <use transform="translate(279.347816 0)scale(0.996264)" xlink:href="#CMR17-101"/>
      <use transform="translate(319.833477 0)scale(0.996264)" xlink:href="#CMR17-105"/>
      <use transform="translate(344.704535 0)scale(0.996264)" xlink:href="#CMR17-103"/>
      <use transform="translate(390.395012 0)scale(0.996264)" xlink:href="#CMR17-104"/>
      <use transform="translate(438.687928 0)scale(0.996264)" xlink:href="#CMR17-116"/>
      <use transform="translate(504.044662 0)scale(0.996264)" xlink:href="#CMR17-40"/>
      <use transform="translate(539.32543 0)scale(0.996264)" xlink:href="#CMR17-112"/>
      <use transform="translate(590.2208 0)scale(0.996264)" xlink:href="#CMR17-65"/>
      <use transform="translate(659.29323 0)scale(0.996264)" xlink:href="#CMR17-41"/>
     </g>
    </g>
   </g>
   <g id="matplotlib.axis_4">
    <g id="ytick_3">
     <g id="line2d_11">
      <g>
       <use style="fill:#262626;stroke:#262626;stroke-width:1.25;" x="196.393091" xlink:href="#m66f407b604" y="111.81913"/>
      </g>
     </g>
    </g>
    <g id="ytick_4">
     <g id="line2d_12">
      <g>
       <use style="fill:#262626;stroke:#262626;stroke-width:1.25;" x="196.393091" xlink:href="#m66f407b604" y="36.187826"/>
      </g>
     </g>
    </g>
   </g>
   <g id="line2d_13">
    <path clip-path="url(#pb0d266ce90)" d="M 202.134496 116.723333 
L 203.774897 115.18423 
L 205.415299 114.988551 
L 207.0557 117.068126 
L 208.696102 115.338774 
L 210.336503 116.23432 
L 211.976904 114.69423 
L 213.617306 116.423106 
L 215.257707 113.260078 
L 216.898109 114.663731 
L 218.53851 115.026441 
L 220.178911 114.342111 
L 221.819313 113.834266 
L 223.459714 114.351575 
L 225.100116 115.39119 
L 226.740517 113.884024 
L 228.380919 113.553012 
L 230.02132 113.85531 
L 231.661721 112.659285 
L 233.302123 114.119317 
L 234.942524 112.683617 
L 236.582926 113.095254 
L 238.223327 113.300376 
L 239.863728 112.789511 
L 241.50413 113.367729 
L 243.144531 112.542987 
L 244.784933 111.882771 
L 246.425334 114.541081 
L 248.065736 113.20935 
L 249.706137 112.779123 
L 251.346538 113.681126 
L 252.98694 112.089191 
L 254.627341 114.924305 
L 256.267743 111.900275 
L 257.908144 112.965807 
L 259.548545 111.558204 
L 261.188947 111.794795 
L 262.829348 115.003003 
L 264.46975 112.334447 
L 266.110151 113.253931 
L 267.750553 113.531061 
L 269.390954 114.289594 
L 271.031355 113.701607 
L 272.671757 114.259413 
L 274.312158 114.907344 
L 275.95256 115.405347 
L 277.592961 113.556588 
L 279.233362 113.340807 
L 280.873764 116.138718 
L 282.514165 115.869359 
L 284.154567 116.526576 
L 285.794968 113.932395 
L 287.43537 116.027236 
L 289.075771 114.35511 
L 290.716172 115.703761 
L 292.356574 115.039867 
L 293.996975 114.467621 
L 295.637377 115.200912 
L 297.277778 114.823622 
L 298.918179 114.012572 
L 300.558581 116.39254 
L 302.198982 114.824489 
L 303.839384 114.643105 
L 305.479785 115.204324 
L 307.120187 114.232784 
L 308.760588 113.987893 
L 310.400989 115.732532 
L 312.041391 115.817299 
L 313.681792 117.371928 
L 315.322194 113.018 
L 316.962595 115.267382 
" style="fill:none;stroke:#e41a1c;stroke-linecap:round;stroke-width:2;"/>
   </g>
   <g id="line2d_14">
    <path clip-path="url(#pb0d266ce90)" d="M 202.134496 110.759435 
L 203.774897 110.161052 
L 205.415299 109.967637 
L 207.0557 109.197629 
L 208.696102 109.028625 
L 210.336503 108.481194 
L 211.976904 107.792249 
L 213.617306 107.291073 
L 215.257707 106.636779 
L 216.898109 106.30504 
L 218.53851 105.676478 
L 220.178911 105.551365 
L 221.819313 104.223065 
L 223.459714 103.748695 
L 225.100116 103.507542 
L 226.740517 102.531 
L 228.380919 102.032795 
L 230.02132 101.018054 
L 231.661721 100.438446 
L 233.302123 100.056557 
L 234.942524 99.403686 
L 236.582926 98.257174 
L 238.223327 98.077681 
L 239.863728 97.389432 
L 241.50413 96.716155 
L 243.144531 95.976935 
L 244.784933 95.381067 
L 246.425334 94.534183 
L 248.065736 93.843917 
L 249.706137 93.809815 
L 251.346538 93.103492 
L 252.98694 92.561841 
L 254.627341 91.889354 
L 256.267743 90.802253 
L 257.908144 90.040083 
L 259.548545 89.654944 
L 261.188947 89.64471 
L 262.829348 88.407709 
L 264.46975 88.266854 
L 266.110151 87.872713 
L 267.750553 86.895952 
L 269.390954 86.788903 
L 271.031355 86.308184 
L 272.671757 85.545025 
L 274.312158 84.93764 
L 275.95256 84.611775 
L 277.592961 84.234355 
L 279.233362 83.362926 
L 280.873764 83.047741 
L 282.514165 82.094928 
L 284.154567 82.598767 
L 285.794968 82.025267 
L 287.43537 81.551401 
L 289.075771 80.894826 
L 290.716172 80.554629 
L 292.356574 79.987705 
L 293.996975 79.555874 
L 295.637377 79.343574 
L 297.277778 79.305296 
L 298.918179 79.400642 
L 300.558581 78.330205 
L 302.198982 77.898947 
L 303.839384 78.107183 
L 305.479785 77.884156 
L 307.120187 76.769722 
L 308.760588 77.095606 
L 310.400989 76.782328 
L 312.041391 76.605213 
L 313.681792 76.556563 
L 315.322194 76.295032 
L 316.962595 76.001304 
" style="fill:none;stroke:#377eb8;stroke-linecap:round;stroke-width:2;"/>
   </g>
   <g id="line2d_15">
    <path clip-path="url(#pb0d266ce90)" d="M 202.134496 110.667729 
L 203.774897 110.326952 
L 205.415299 110.240132 
L 207.0557 110.148159 
L 208.696102 110.093803 
L 210.336503 109.899044 
L 211.976904 109.765085 
L 213.617306 109.546244 
L 215.257707 109.347879 
L 216.898109 109.283757 
L 218.53851 109.059267 
L 220.178911 108.99769 
L 221.819313 108.767811 
L 223.459714 108.60135 
L 225.100116 108.530588 
L 226.740517 108.197453 
L 228.380919 108.050485 
L 230.02132 107.839717 
L 231.661721 107.605607 
L 233.302123 107.445534 
L 234.942524 107.366544 
L 236.582926 106.940431 
L 238.223327 106.929734 
L 239.863728 106.61116 
L 241.50413 106.588151 
L 243.144531 106.39265 
L 244.784933 106.058774 
L 246.425334 105.911868 
L 248.065736 105.82287 
L 249.706137 105.49814 
L 251.346538 105.387842 
L 252.98694 105.251294 
L 254.627341 105.018163 
L 256.267743 104.627288 
L 257.908144 104.504902 
L 259.548545 104.472171 
L 261.188947 104.109008 
L 262.829348 103.850228 
L 264.46975 103.89387 
L 266.110151 103.513472 
L 267.750553 103.325595 
L 269.390954 103.137381 
L 271.031355 102.982007 
L 272.671757 102.970755 
L 274.312158 102.472924 
L 275.95256 102.437374 
L 277.592961 102.20964 
L 279.233362 101.934466 
L 280.873764 101.900161 
L 282.514165 101.556043 
L 284.154567 101.530127 
L 285.794968 101.390555 
L 287.43537 101.148417 
L 289.075771 100.973551 
L 290.716172 100.869325 
L 292.356574 100.680832 
L 293.996975 100.389679 
L 295.637377 100.194939 
L 297.277778 99.953633 
L 298.918179 100.130345 
L 300.558581 99.92062 
L 302.198982 99.678843 
L 303.839384 99.438801 
L 305.479785 99.458286 
L 307.120187 99.272936 
L 308.760588 99.124235 
L 310.400989 99.012956 
L 312.041391 98.539186 
L 313.681792 98.61928 
L 315.322194 98.423867 
L 316.962595 98.435429 
" style="fill:none;stroke:#e6ab02;stroke-linecap:round;stroke-width:2;"/>
   </g>
   <g id="line2d_16">
    <path clip-path="url(#pb0d266ce90)" d="M 196.393091 111.81913 
L 322.704 111.81913 
" style="fill:none;stroke:#1a1a1a;stroke-dasharray:3.7,1.6;stroke-dashoffset:0;"/>
   </g>
   <g id="patch_6">
    <path d="M 196.393091 126 
L 196.393091 17.28 
" style="fill:none;stroke:#262626;stroke-linecap:square;stroke-linejoin:miter;stroke-width:1.25;"/>
   </g>
   <g id="patch_7">
    <path d="M 196.393091 126 
L 322.704 126 
" style="fill:none;stroke:#262626;stroke-linecap:square;stroke-linejoin:miter;stroke-width:1.25;"/>
   </g>
   <g id="text_11">
    <!-- BC -->
    <defs>
     <path d="M 5.203125 68 
L 5.203125 65.40625 
C 12.09375 65.40625 13.203125 65.40625 13.203125 60.9375 
L 13.203125 7.0625 
C 13.203125 2.59375 12.09375 2.59375 5.203125 2.59375 
L 5.203125 0 
L 39.59375 0 
C 52.40625 0 60.703125 9.109375 60.703125 18.1875 
C 60.703125 27.203125 52.5 34.890625 41.796875 34.890625 
C 51.40625 36.8125 58.09375 43.296875 58.09375 51 
C 58.09375 59.40625 49.90625 68 37 68 
z
M 19.5 36 
L 19.5 61.515625 
C 19.5 64.921875 19.703125 65.40625 23.703125 65.40625 
L 36.5 65.40625 
C 46.40625 65.40625 50.796875 57.40625 50.796875 51.203125 
C 50.796875 43.609375 44.703125 36 33.90625 36 
z
M 23.703125 2.59375 
C 19.703125 2.59375 19.5 3.078125 19.5 6.453125 
L 19.5 34.40625 
L 38 34.40625 
C 48.296875 34.40625 53.296875 25.390625 53.296875 18.15625 
C 53.296875 10.921875 47.59375 2.59375 36.703125 2.59375 
z
" id="CMR17-66"/>
    </defs>
    <g style="fill:#262626;" transform="translate(251.176551 11.28)scale(0.12 -0.12)">
     <use transform="scale(0.996264)" xlink:href="#CMR17-66"/>
     <use transform="translate(65.188754 0)scale(0.996264)" xlink:href="#CMR17-67"/>
    </g>
   </g>
   <g id="legend_1">
    <g id="line2d_17">
     <path d="M 206.293091 33.832288 
L 228.293091 33.832288 
" style="fill:none;stroke:#e41a1c;stroke-linecap:round;stroke-width:2;"/>
    </g>
    <g id="line2d_18"/>
    <g id="text_12">
     <!-- $\hat{\beta}_{IV}$ -->
     <defs>
      <path d="M 22.90625 69.078125 
L 10.59375 55.546875 
L 11.796875 54.34375 
L 22.90625 65.09375 
L 34 54.34375 
L 35.203125 55.546875 
z
" id="CMR17-94"/>
      <path d="M 56.59375 57.828125 
C 56.59375 63.765625 51.5 70 42.40625 70 
C 29.5 70 21.296875 54.328125 18.703125 44 
L 2.90625 -18.3125 
C 2.703125 -19.109375 3.296875 -19.3125 3.796875 -19.3125 
C 4.5 -19.3125 5 -19.21875 5.09375 -18.71875 
L 12.09375 9.15625 
C 13.09375 3.578125 18.59375 -1 24.5 -1 
C 38.796875 -1 52.296875 10.15625 52.296875 24.984375 
C 52.296875 28.765625 51.40625 32.546875 49.296875 35.734375 
C 48.09375 37.625 46.59375 39.015625 45 40.21875 
C 52.203125 43.984375 56.59375 50 56.59375 57.828125 
z
M 39.203125 40.3125 
C 37.59375 39.71875 36 39.515625 34.09375 39.515625 
C 32.703125 39.515625 31.40625 39.421875 29.59375 40.015625 
C 30.59375 40.71875 32.09375 40.90625 34.203125 40.90625 
C 36 40.90625 37.796875 40.71875 39.203125 40.3125 
z
M 51.40625 58.71875 
C 51.40625 53.28125 48.703125 45.359375 42.203125 41.703125 
C 40.296875 42.46875 37.703125 43 35.5 43 
C 33.40625 43 27.40625 43 27.40625 39.921875 
C 27.40625 37.328125 32.90625 37.328125 34.59375 37.328125 
C 37.203125 37.328125 39.5 38 41.90625 38.8125 
C 45.09375 36.21875 46.5 32.828125 46.5 27.859375 
C 46.5 22.078125 44.90625 17.421875 43 13.140625 
C 39.703125 5.765625 31.90625 1 25 1 
C 17.703125 1 13.90625 6.75 13.90625 13.5 
C 13.90625 14.40625 13.90625 15.703125 14.296875 17.171875 
L 20.796875 43.296875 
C 24.09375 56.296875 32.5 68.015625 42.203125 68.015625 
C 49.40625 68.015625 51.40625 63.0625 51.40625 58.71875 
z
" id="CMMI12-12"/>
      <path d="M 36.796875 60.625 
C 37.703125 64.109375 37.90625 65.109375 45.203125 65.109375 
C 47.40625 65.109375 48.203125 65.109375 48.203125 67 
C 48.203125 68 47.09375 68 46.796875 68 
C 45 68 42.796875 68 41 68 
L 28.703125 68 
C 26.703125 68 24.40625 68 22.40625 68 
C 21.59375 68 20.5 68 20.5 66.109375 
C 20.5 65.109375 21.296875 65.109375 23.296875 65.109375 
C 29.5 65.109375 29.5 64.3125 29.5 63.21875 
C 29.5 62.53125 29.296875 61.921875 29.09375 61.03125 
L 15.59375 7.375 
C 14.703125 3.890625 14.5 2.890625 7.203125 2.890625 
C 5 2.890625 4.09375 2.890625 4.09375 1 
C 4.09375 0 5.09375 0 5.59375 0 
C 7.40625 0 9.59375 0 11.40625 0 
L 23.703125 0 
C 25.703125 0 27.90625 0 29.90625 0 
C 30.703125 0 31.90625 0 31.90625 1.796875 
C 31.90625 2.890625 31.296875 2.890625 29.09375 2.890625 
C 22.90625 2.890625 22.90625 3.6875 22.90625 4.875 
C 22.90625 5.078125 22.90625 5.578125 23.296875 7.171875 
z
" id="CMMI12-73"/>
      <path d="M 61.90625 56.875 
C 65.296875 62.25 68.40625 64.625 73.5 65.03125 
C 74.5 65.125 75.296875 65.125 75.296875 66.90625 
C 75.296875 67.3125 75.09375 67.90625 74.203125 67.90625 
C 72.40625 67.90625 68.09375 67.90625 66.296875 67.90625 
C 63.40625 67.90625 60.40625 67.90625 57.59375 67.90625 
C 56.796875 67.90625 55.796875 67.90625 55.796875 66.03125 
C 55.796875 65.125 56.703125 65.03125 57.09375 65.03125 
C 60.796875 64.734375 61.203125 62.953125 61.203125 61.75 
C 61.203125 60.265625 59.796875 57.96875 59.703125 57.875 
L 28.296875 8.4375 
L 21.296875 62.015625 
C 21.296875 65 26.5 65 27.59375 65 
C 29.09375 65 30 65 30 66.90625 
C 30 67.90625 28.90625 67.90625 28.59375 67.90625 
C 26.90625 67.90625 24.90625 67.90625 23.203125 67.90625 
L 17.59375 67.90625 
C 10.296875 67.90625 7.296875 67.90625 7.203125 67.90625 
C 6.59375 67.90625 5.40625 67.90625 5.40625 66.09375 
C 5.40625 65 6.09375 65 7.703125 65 
C 12.796875 65 13.09375 64.09375 13.40625 61.625 
L 21.40625 0.375 
C 21.703125 -1.703125 21.703125 -2 23.09375 -2 
C 24.296875 -2 24.796875 -1.703125 25.796875 -0.125 
z
" id="CMMI12-86"/>
     </defs>
     <g style="fill:#262626;" transform="translate(237.093091 37.682288)scale(0.11 -0.11)">
      <use transform="translate(15.58093 41.240535)scale(0.996264)" xlink:href="#CMR17-94"/>
      <use transform="translate(0 14.943915)scale(0.996264)" xlink:href="#CMMI12-12"/>
      <use transform="translate(55.070737 0)scale(0.697382)" xlink:href="#CMMI12-73"/>
      <use transform="translate(90.670119 0)scale(0.697382)" xlink:href="#CMMI12-86"/>
     </g>
    </g>
    <g id="line2d_19">
     <path d="M 206.293091 51.965471 
L 228.293091 51.965471 
" style="fill:none;stroke:#377eb8;stroke-linecap:round;stroke-width:2;"/>
    </g>
    <g id="line2d_20"/>
    <g id="text_13">
     <!-- $\hat{\beta}$ -->
     <g style="fill:#262626;" transform="translate(237.093091 55.815471)scale(0.11 -0.11)">
      <use transform="translate(15.58093 26.296621)scale(0.996264)" xlink:href="#CMR17-94"/>
      <use transform="scale(0.996264)" xlink:href="#CMMI12-12"/>
     </g>
    </g>
    <g id="line2d_21">
     <path d="M 206.293091 67.296366 
L 228.293091 67.296366 
" style="fill:none;stroke:#e6ab02;stroke-linecap:round;stroke-width:2;"/>
    </g>
    <g id="line2d_22"/>
    <g id="text_14">
     <!-- $p_{trans}$ -->
     <defs>
      <path d="M 4.296875 -12.328125 
C 3.59375 -15.3125 3.203125 -16.109375 -0.90625 -16.109375 
C -2.09375 -16.109375 -3.09375 -16.109375 -3.09375 -18 
C -3.09375 -18.203125 -3 -19 -1.90625 -19 
C -0.59375 -19 0.796875 -19 2.09375 -19 
L 6.40625 -19 
C 8.5 -19 13.59375 -19 15.703125 -19 
C 16.296875 -19 17.5 -19 17.5 -17.203125 
C 17.5 -16.109375 16.796875 -16.109375 15.09375 -16.109375 
C 10.5 -16.109375 10.203125 -15.421875 10.203125 -14.640625 
C 10.203125 -13.453125 14.703125 3.421875 15.296875 5.6875 
C 16.40625 2.890625 19.09375 -1 24.296875 -1 
C 35.59375 -1 47.796875 13.671875 47.796875 28.34375 
C 47.796875 37.515625 42.59375 44 35.09375 44 
C 28.703125 44 23.296875 37.8125 22.203125 36.421875 
C 21.40625 41.40625 17.5 44 13.5 44 
C 10.59375 44 8.296875 42.609375 6.40625 38.8125 
C 4.59375 35.21875 3.203125 29.140625 3.203125 28.734375 
C 3.203125 28.34375 3.59375 27.84375 4.296875 27.84375 
C 5.09375 27.84375 5.203125 27.9375 5.796875 30.234375 
C 7.296875 36.125 9.203125 42.015625 13.203125 42.015625 
C 15.5 42.015625 16.296875 40.421875 16.296875 37.453125 
C 16.296875 35.078125 16 34.078125 15.59375 32.296875 
z
M 21.59375 31.140625 
C 22.296875 33.921875 25.09375 36.828125 26.703125 38.21875 
C 27.796875 39.21875 31.09375 42.015625 34.90625 42.015625 
C 39.296875 42.015625 41.296875 37.625 41.296875 32.4375 
C 41.296875 27.640625 38.5 16.359375 36 11.171875 
C 33.5 5.78125 28.90625 1 24.296875 1 
C 17.5 1 16.40625 9.578125 16.40625 9.984375 
C 16.40625 10.28125 16.59375 11.078125 16.703125 11.578125 
z
" id="CMMI12-112"/>
      <path d="M 20.09375 40.09375 
L 29.296875 40.09375 
C 31.203125 40.09375 32.203125 40.09375 32.203125 41.890625 
C 32.203125 43 31.59375 43 29.59375 43 
L 20.796875 43 
L 24.5 57.6875 
C 24.90625 59.078125 24.90625 59.28125 24.90625 60 
C 24.90625 61.609375 23.59375 62.5 22.296875 62.5 
C 21.5 62.5 19.203125 62.203125 18.40625 58.984375 
L 14.5 43 
L 5.09375 43 
C 3.09375 43 2.203125 43 2.203125 41.09375 
C 2.203125 40.09375 2.90625 40.09375 4.796875 40.09375 
L 13.703125 40.09375 
L 7.09375 13.765625 
C 6.296875 10.28125 6 9.28125 6 7.984375 
C 6 3.296875 9.296875 -1 14.90625 -1 
C 25 -1 30.40625 13.5625 30.40625 14.25 
C 30.40625 14.859375 30 15.15625 29.40625 15.15625 
C 29.203125 15.15625 28.796875 15.15625 28.59375 14.75 
C 28.5 14.65625 28.40625 14.546875 27.703125 12.953125 
C 25.59375 7.984375 21 1 15.203125 1 
C 12.203125 1 12 3.5 12 5.6875 
C 12 5.78125 12 7.6875 12.296875 8.875 
z
" id="CMMI12-116"/>
      <path d="M 38.90625 40.8125 
C 35.796875 40.21875 34.203125 38.015625 34.203125 35.828125 
C 34.203125 33.421875 36.09375 32.625 37.5 32.625 
C 40.296875 32.625 42.59375 35.03125 42.59375 38.015625 
C 42.59375 41.21875 39.5 44 34.5 44 
C 30.5 44 25.90625 42.203125 21.703125 36.125 
C 21 41.40625 17 44 13 44 
C 9.09375 44 7.09375 41.015625 5.90625 38.8125 
C 4.203125 35.21875 2.703125 29.234375 2.703125 28.734375 
C 2.703125 28.34375 3.09375 27.84375 3.796875 27.84375 
C 4.59375 27.84375 4.703125 27.9375 5.296875 30.234375 
C 6.796875 36.21875 8.703125 42.015625 12.703125 42.015625 
C 15.09375 42.015625 15.796875 40.3125 15.796875 37.421875 
C 15.796875 35.21875 14.796875 31.328125 14.09375 28.234375 
L 11.296875 17.46875 
C 10.90625 15.5625 9.796875 11.078125 9.296875 9.28125 
C 8.59375 6.6875 7.5 2 7.5 1.5 
C 7.5 0.09375 8.59375 -1 10.09375 -1 
C 11.203125 -1 13.09375 -0.296875 13.703125 1.703125 
C 14 2.5 17.703125 17.5625 18.296875 19.859375 
C 18.796875 22.046875 19.40625 24.15625 19.90625 26.34375 
C 20.296875 27.734375 20.703125 29.34375 21 30.640625 
C 21.296875 31.53125 24 36.421875 26.5 38.625 
C 27.703125 39.71875 30.296875 42.015625 34.40625 42.015625 
C 36 42.015625 37.59375 41.71875 38.90625 40.8125 
z
" id="CMMI12-114"/>
      <path d="M 30.09375 11.875 
C 29.59375 10.171875 29.59375 9.984375 28.203125 8.078125 
C 26 5.28125 21.59375 1 16.90625 1 
C 12.796875 1 10.5 4.6875 10.5 10.578125 
C 10.5 16.0625 13.59375 27.234375 15.5 31.4375 
C 18.90625 38.421875 23.59375 42.015625 27.5 42.015625 
C 34.09375 42.015625 35.40625 33.828125 35.40625 33.03125 
C 35.40625 32.9375 35.09375 31.625 35 31.4375 
z
M 36.5 37.421875 
C 35.40625 40.015625 32.703125 44 27.5 44 
C 16.203125 44 4 29.4375 4 14.671875 
C 4 4.796875 9.796875 -1 16.59375 -1 
C 22.09375 -1 26.796875 3.296875 29.59375 6.59375 
C 30.59375 0.703125 35.296875 -1 38.296875 -1 
C 41.296875 -1 43.703125 0.796875 45.5 4.390625 
C 47.09375 7.78125 48.5 13.875 48.5 14.265625 
C 48.5 14.765625 48.09375 15.171875 47.5 15.171875 
C 46.59375 15.171875 46.5 14.671875 46.09375 13.171875 
C 44.59375 7.28125 42.703125 1 38.59375 1 
C 35.703125 1 35.5 3.59375 35.5 5.59375 
C 35.5 7.890625 35.796875 8.984375 36.703125 12.875 
C 37.40625 15.375 37.90625 17.5625 38.703125 20.453125 
C 42.40625 35.421875 43.296875 39.015625 43.296875 39.609375 
C 43.296875 41.015625 42.203125 42.109375 40.703125 42.109375 
C 37.5 42.109375 36.703125 38.625 36.5 37.421875 
z
" id="CMMI12-97"/>
      <path d="M 20.59375 29.234375 
C 20.796875 29.84375 23.296875 34.828125 27 38.015625 
C 29.59375 40.40625 33 42.015625 36.90625 42.015625 
C 40.90625 42.015625 42.296875 39.015625 42.296875 35.03125 
C 42.296875 29.34375 38.203125 17.96875 36.203125 12.578125 
C 35.296875 10.171875 34.796875 8.875 34.796875 7.078125 
C 34.796875 2.59375 37.90625 -1 42.703125 -1 
C 52 -1 55.5 13.671875 55.5 14.265625 
C 55.5 14.765625 55.09375 15.171875 54.5 15.171875 
C 53.59375 15.171875 53.5 14.875 53 13.171875 
C 50.703125 4.984375 46.90625 1 43 1 
C 42 1 40.40625 1 40.40625 4.203125 
C 40.40625 6.703125 41.5 9.703125 42.09375 11.09375 
C 44.09375 16.609375 48.296875 27.8125 48.296875 33.515625 
C 48.296875 39.5 44.796875 44 37.203125 44 
C 28.296875 44 23.59375 37.734375 21.796875 35.234375 
C 21.5 40.90625 17.40625 44 13 44 
C 9.796875 44 7.59375 42.109375 5.90625 38.71875 
C 4.09375 35.125 2.703125 29.140625 2.703125 28.734375 
C 2.703125 28.34375 3.09375 27.84375 3.796875 27.84375 
C 4.59375 27.84375 4.703125 27.9375 5.296875 30.234375 
C 6.90625 36.328125 8.703125 42.015625 12.703125 42.015625 
C 15 42.015625 15.796875 40.40625 15.796875 37.421875 
C 15.796875 35.21875 14.796875 31.328125 14.09375 28.234375 
L 11.296875 17.46875 
C 10.90625 15.5625 9.796875 11.078125 9.296875 9.28125 
C 8.59375 6.6875 7.5 2 7.5 1.5 
C 7.5 0.09375 8.59375 -1 10.09375 -1 
C 11.296875 -1 12.703125 -0.40625 13.5 1.09375 
C 13.703125 1.59375 14.59375 5.09375 15.09375 7.078125 
L 17.296875 16.0625 
z
" id="CMMI12-110"/>
      <path d="M 22.796875 20 
C 24.5 19.703125 27.203125 19.109375 27.796875 19 
C 29.09375 18.625 33.59375 17.03125 33.59375 12.234375 
C 33.59375 9.15625 30.796875 1.09375 19.203125 1.09375 
C 17.09375 1.09375 9.59375 1.09375 7.59375 6.8125 
C 11.59375 6.3125 13.59375 9.421875 13.59375 11.640625 
C 13.59375 13.75 12.203125 14.84375 10.203125 14.84375 
C 8 14.84375 5.09375 13.140625 5.09375 8.625 
C 5.09375 2.703125 11.09375 -1 19.09375 -1 
C 34.296875 -1 38.796875 10.171875 38.796875 15.375 
C 38.796875 16.859375 38.796875 19.65625 35.59375 22.84375 
C 33.09375 25.25 30.703125 25.75 25.296875 26.84375 
C 22.59375 27.4375 18.296875 28.34375 18.296875 32.828125 
C 18.296875 34.828125 20.09375 42.015625 29.59375 42.015625 
C 33.796875 42.015625 37.90625 40.453125 38.90625 37 
C 34.5 37 34.296875 33.203125 34.296875 33.109375 
C 34.296875 31 36.203125 30.40625 37.09375 30.40625 
C 38.5 30.40625 41.296875 31.484375 41.296875 35.640625 
C 41.296875 39.765625 37.5 44 29.703125 44 
C 16.59375 44 13.09375 33.75 13.09375 29.671875 
C 13.09375 22.09375 20.5 20.5 22.796875 20 
z
" id="CMMI12-115"/>
     </defs>
     <g style="fill:#262626;" transform="translate(237.093091 71.146366)scale(0.11 -0.11)">
      <use transform="translate(0 14.943915)scale(0.996264)" xlink:href="#CMMI12-112"/>
      <use transform="translate(48.959514 0)scale(0.697382)" xlink:href="#CMMI12-116"/>
      <use transform="translate(73.617824 0)scale(0.697382)" xlink:href="#CMMI12-114"/>
      <use transform="translate(106.287092 0)scale(0.697382)" xlink:href="#CMMI12-97"/>
      <use transform="translate(142.132439 0)scale(0.697382)" xlink:href="#CMMI12-110"/>
      <use transform="translate(182.893282 0)scale(0.697382)" xlink:href="#CMMI12-115"/>
     </g>
    </g>
   </g>
  </g>
 </g>
 <defs>
  <clipPath id="p8a694e8875">
   <rect height="108.72" width="126.310909" x="44.82" y="17.28"/>
  </clipPath>
  <clipPath id="pb0d266ce90">
   <rect height="108.72" width="126.310909" x="196.393091" y="17.28"/>
  </clipPath>
 </defs>
</svg>
