<?xml version="1.0" encoding="utf-8" standalone="no"?>
<!DOCTYPE svg PUBLIC "-//W3C//DTD SVG 1.1//EN"
  "http://www.w3.org/Graphics/SVG/1.1/DTD/svg11.dtd">
<!-- Created with matplotlib (http://matplotlib.org/) -->
<svg height="144pt" version="1.1" viewBox="0 0 358.56 144" width="358.56pt" xmlns="http://www.w3.org/2000/svg" xmlns:xlink="http://www.w3.org/1999/xlink">
 <defs>
  <style type="text/css">
*{stroke-linecap:butt;stroke-linejoin:round;}
  </style>
 </defs>
 <g id="figure_1">
  <g id="patch_1">
   <path d="M 0 144 
L 358.56 144 
L 358.56 0 
L 0 0 
z
" style="fill:#ffffff;"/>
  </g>
  <g id="axes_1">
   <g id="patch_2">
    <path d="M 44.82 126 
L 171.130909 126 
L 171.130909 17.28 
L 44.82 17.28 
z
" style="fill:#ffffff;"/>
   </g>
   <g id="matplotlib.axis_1">
    <g id="xtick_1">
     <g id="line2d_1"/>
     <g id="text_1">
      <!-- 0 -->
      <defs>
       <path d="M 42 31.640625 
C 42 37.75 41.90625 48.125 37.703125 56.109375 
C 34 63.109375 28.09375 65.59375 22.90625 65.59375 
C 18.09375 65.59375 12 63.40625 8.203125 56.203125 
C 4.203125 48.71875 3.796875 39.4375 3.796875 31.640625 
C 3.796875 25.953125 3.90625 17.28125 7 9.671875 
C 11.296875 -0.609375 19 -2 22.90625 -2 
C 27.5 -2 34.5 -0.109375 38.59375 9.375 
C 41.59375 16.28125 42 24.359375 42 31.640625 
z
M 22.90625 -0.40625 
C 16.5 -0.40625 12.703125 5.078125 11.296875 12.6875 
C 10.203125 18.5625 10.203125 27.15625 10.203125 32.75 
C 10.203125 40.4375 10.203125 46.828125 11.5 52.921875 
C 13.40625 61.390625 19 64 22.90625 64 
C 27 64 32.296875 61.296875 34.203125 53.125 
C 35.5 47.4375 35.59375 40.734375 35.59375 32.75 
C 35.59375 26.25 35.59375 18.265625 34.40625 12.375 
C 32.296875 1.484375 26.40625 -0.40625 22.90625 -0.40625 
z
" id="CMR17-48"/>
      </defs>
      <g style="fill:#262626;" transform="translate(42.329332 139.918498)scale(0.1 -0.1)">
       <use transform="scale(0.996264)" xlink:href="#CMR17-48"/>
      </g>
     </g>
    </g>
    <g id="xtick_2">
     <g id="line2d_2"/>
     <g id="text_2">
      <!-- $\tau_0^C$ -->
      <defs>
       <path d="M 28.703125 37.625 
L 45.296875 37.625 
C 46.59375 37.625 49.90625 37.625 49.90625 40.8125 
C 49.90625 43 48 43 46.203125 43 
L 18.703125 43 
C 16.40625 43 13 43 8.40625 38.125 
C 5.796875 35.234375 2.59375 29.953125 2.59375 29.359375 
C 2.59375 28.765625 3.09375 28.5625 3.703125 28.5625 
C 4.40625 28.5625 4.5 28.859375 5 29.453125 
C 10.203125 37.625 15.40625 37.625 17.90625 37.625 
L 26.203125 37.625 
L 15.796875 3.484375 
C 15.296875 1.984375 15.296875 1.78125 15.296875 1.484375 
C 15.296875 0.390625 16 -1 18 -1 
C 21.09375 -1 21.59375 1.6875 21.90625 3.171875 
z
" id="CMMI12-28"/>
       <path d="M 74.703125 69.109375 
C 74.703125 70 74 70 73.796875 70 
C 73.59375 70 73.203125 70 72.40625 69 
L 65.5 60.65625 
C 62 66.625 56.5 70 49 70 
C 27.40625 70 5 48.25 5 24.921875 
C 5 8.328125 16.703125 -2 31.296875 -2 
C 39.296875 -2 46.296875 1.375 52.09375 6.25 
C 60.796875 13.484375 63.40625 23.140625 63.40625 23.921875 
C 63.40625 24.8125 62.59375 24.8125 62.296875 24.8125 
C 61.40625 24.8125 61.296875 24.21875 61.09375 23.8125 
C 56.5 8.34375 43 0.890625 33 0.890625 
C 22.40625 0.890625 13.203125 7.640625 13.203125 21.734375 
C 13.203125 24.921875 14.203125 42.1875 25.5 55.1875 
C 31 61.546875 40.40625 67.109375 49.90625 67.109375 
C 60.90625 67.109375 65.796875 58.078125 65.796875 47.9375 
C 65.796875 45.359375 65.5 43.1875 65.5 42.78125 
C 65.5 41.890625 66.5 41.890625 66.796875 41.890625 
C 67.90625 41.890625 68 41.984375 68.40625 43.765625 
z
" id="CMMI12-67"/>
      </defs>
      <g style="fill:#262626;" transform="translate(51.852487 141.916484)scale(0.1 -0.1)">
       <use transform="translate(0 24.740171)scale(0.996264)" xlink:href="#CMMI12-28"/>
       <use transform="translate(53.491165 60.89381)scale(0.697382)" xlink:href="#CMMI12-67"/>
       <use transform="translate(42.363841 0)scale(0.697382)" xlink:href="#CMR17-48"/>
      </g>
     </g>
    </g>
    <g id="xtick_3">
     <g id="line2d_3"/>
     <g id="text_3">
      <!-- $\tau_1^C$ -->
      <defs>
       <path d="M 26.59375 63.40625 
C 26.59375 65.5 26.5 65.5 25.09375 65.5 
C 21.203125 61.1875 15.296875 59.796875 9.703125 59.796875 
C 9.40625 59.796875 8.90625 59.796875 8.796875 59.5 
C 8.703125 59.296875 8.703125 59.09375 8.703125 57 
C 11.796875 57 17 57.59375 21 59.984375 
L 21 7.203125 
C 21 3.6875 20.796875 2.5 12.203125 2.5 
L 9.203125 2.5 
L 9.203125 0 
C 14 0 19 0 23.796875 0 
C 28.59375 0 33.59375 0 38.40625 0 
L 38.40625 2.5 
L 35.40625 2.5 
C 26.796875 2.5 26.59375 3.59375 26.59375 7.15625 
z
" id="CMR17-49"/>
      </defs>
      <g style="fill:#262626;" transform="translate(81.325033 141.916484)scale(0.1 -0.1)">
       <use transform="translate(0 24.740171)scale(0.996264)" xlink:href="#CMMI12-28"/>
       <use transform="translate(53.491165 60.89381)scale(0.697382)" xlink:href="#CMMI12-67"/>
       <use transform="translate(42.363841 0)scale(0.697382)" xlink:href="#CMR17-49"/>
      </g>
     </g>
    </g>
    <g id="xtick_4">
     <g id="line2d_4"/>
     <g id="text_4">
      <!-- 30 -->
      <defs>
       <path d="M 22.09375 33.703125 
C 31 33.703125 34.90625 25.96875 34.90625 17.03125 
C 34.90625 5 28.5 0.390625 22.703125 0.390625 
C 17.40625 0.390625 8.796875 3.03125 6.09375 10.828125 
C 6.59375 10.625 7.09375 10.625 7.59375 10.625 
C 10 10.625 11.796875 12.21875 11.796875 14.8125 
C 11.796875 17.703125 9.59375 19 7.59375 19 
C 5.90625 19 3.296875 18.203125 3.296875 14.46875 
C 3.296875 5.234375 12.296875 -2 22.90625 -2 
C 34 -2 42.5 6.71875 42.5 16.953125 
C 42.5 26.671875 34.5 33.703125 25 34.796875 
C 32.59375 36.375 39.90625 43.0625 39.90625 52.015625 
C 39.90625 59.6875 32 65.296875 23 65.296875 
C 13.90625 65.296875 5.90625 59.828125 5.90625 52.015625 
C 5.90625 48.59375 8.5 48 9.796875 48 
C 11.90625 48 13.703125 49.296875 13.703125 51.890625 
C 13.703125 54.46875 11.90625 55.765625 9.796875 55.765625 
C 9.40625 55.765625 8.90625 55.765625 8.5 55.578125 
C 11.40625 61.859375 19.296875 63 22.796875 63 
C 26.296875 63 32.90625 61.328125 32.90625 51.875 
C 32.90625 49.109375 32.5 44.1875 29.09375 39.84375 
C 26.09375 36 22.703125 36 19.40625 35.6875 
C 18.90625 35.6875 16.59375 35.453125 16.203125 35.453125 
C 15.5 35.359375 15.09375 35.265625 15.09375 34.5 
C 15.09375 33.796875 15.203125 33.703125 17.203125 33.703125 
z
" id="CMR17-51"/>
      </defs>
      <g style="fill:#262626;" transform="translate(166.149574 139.918498)scale(0.1 -0.1)">
       <use transform="scale(0.996264)" xlink:href="#CMR17-51"/>
       <use transform="translate(45.690477 0)scale(0.996264)" xlink:href="#CMR17-48"/>
      </g>
     </g>
    </g>
    <g id="text_5">
     <!-- Time (ms) -->
     <defs>
      <path d="M 62.203125 67.59375 
L 4.5 67.59375 
L 2.796875 45.59375 
L 4.59375 45.59375 
C 5.90625 62.125 7.296875 65 22.703125 65 
C 24.5 65 27.40625 65 28.203125 64.90625 
C 30.09375 64.609375 30.09375 63.40625 30.09375 61.125 
L 30.09375 7.171875 
C 30.09375 3.59375 29.796875 2.5 21.5 2.5 
L 18.703125 2.5 
L 18.703125 0 
C 23.5 0 28.5 0 33.40625 0 
C 38.296875 0 43.296875 0 48.09375 0 
L 48.09375 2.5 
L 45.296875 2.5 
C 37 2.5 36.703125 3.59375 36.703125 7.171875 
L 36.703125 61.125 
C 36.703125 63.3125 36.703125 64.515625 38.5 64.90625 
C 39.296875 65 42.203125 65 44 65 
C 59.296875 65 60.796875 62.125 62.09375 45.59375 
L 63.90625 45.59375 
z
" id="CMR17-84"/>
      <path d="M 15.5 61.078125 
C 15.5 63.265625 13.703125 65.15625 11.40625 65.15625 
C 9.203125 65.15625 7.296875 63.375 7.296875 61.078125 
C 7.296875 58.890625 9.09375 57 11.40625 57 
C 13.59375 57 15.5 58.796875 15.5 61.078125 
z
M 3.796875 42.28125 
L 3.796875 39.703125 
C 9.40625 39.703125 10.203125 39.09375 10.203125 34.328125 
L 10.203125 6.671875 
C 10.203125 2.875 9.796875 2.390625 3.40625 2.390625 
L 3.40625 -0.203125 
C 5.796875 0 10.09375 0 12.59375 0 
C 15 0 19.09375 0 21.40625 -0.203125 
L 21.40625 2.390625 
C 15.5 2.390625 15.296875 2.984375 15.296875 6.5625 
L 15.296875 43.375 
z
" id="CMR17-105"/>
      <path d="M 67.59375 30.203125 
C 67.59375 35.1875 66.703125 43.59375 54.796875 43.59375 
C 48 43.59375 43.296875 39 41.5 33.609375 
L 41.40625 33.609375 
C 40.203125 41.8125 34.296875 43.59375 28.703125 43.59375 
C 20.796875 43.59375 16.703125 37.5 15.203125 33.5 
L 15.09375 33.5 
L 15.09375 43.59375 
L 3.296875 42.5 
L 3.296875 39.90625 
C 9.203125 39.90625 10.09375 39.296875 10.09375 34.5 
L 10.09375 6.6875 
C 10.09375 2.875 9.703125 2.390625 3.296875 2.390625 
L 3.296875 -0.203125 
C 5.703125 0 10.09375 0 12.703125 0 
C 15.296875 0 19.796875 0 22.203125 -0.203125 
L 22.203125 2.390625 
C 15.796875 2.390625 15.40625 2.78125 15.40625 6.6875 
L 15.40625 25.90625 
C 15.40625 35.109375 21 42 28 42 
C 35.40625 42 36.203125 35.40625 36.203125 30.59375 
L 36.203125 6.6875 
C 36.203125 2.875 35.796875 2.390625 29.40625 2.390625 
L 29.40625 -0.203125 
C 31.796875 0 36.203125 0 38.796875 0 
C 41.40625 0 45.90625 0 48.296875 -0.203125 
L 48.296875 2.390625 
C 41.90625 2.390625 41.5 2.78125 41.5 6.6875 
L 41.5 25.90625 
C 41.5 35.109375 47.09375 42 54.09375 42 
C 61.5 42 62.296875 35.40625 62.296875 30.59375 
L 62.296875 6.6875 
C 62.296875 2.875 61.90625 2.390625 55.5 2.390625 
L 55.5 -0.203125 
C 57.90625 0 62.296875 0 64.90625 0 
C 67.5 0 72 0 74.40625 -0.203125 
L 74.40625 2.390625 
C 68 2.390625 67.59375 2.78125 67.59375 6.6875 
z
" id="CMR17-109"/>
      <path d="M 38.09375 23 
C 38.5 23.40625 38.5 23.609375 38.5 24.625 
C 38.5 34.96875 33.09375 44 21.703125 44 
C 11.09375 44 2.703125 33.890625 2.703125 21.609375 
C 2.703125 8.609375 12.203125 -1 22.796875 -1 
C 34 -1 38.40625 9.484375 38.40625 11.5625 
C 38.40625 12.25 37.796875 12.25 37.59375 12.25 
C 36.90625 12.25 36.796875 12.046875 36.40625 10.875 
C 34.203125 4.140625 28.703125 0.796875 23.5 0.796875 
C 19.203125 0.796875 14.90625 3.171875 12.203125 7.5 
C 9.09375 12.546875 9.09375 18.375 9.09375 23 
z
M 9.203125 24.5 
C 9.90625 39.140625 17.59375 42.40625 21.59375 42.40625 
C 28.40625 42.40625 33 35.890625 33.09375 24.5 
z
" id="CMR17-101"/>
      <path d="M 30.59375 -24.390625 
C 30.59375 -24.296875 30.59375 -24.09375 30.296875 -23.796875 
C 25.703125 -19.125 13.40625 -6.359375 13.40625 24.703125 
C 13.40625 55.765625 25.5 68.421875 30.40625 73.390625 
C 30.40625 73.5 30.59375 73.703125 30.59375 74 
C 30.59375 74.296875 30.296875 74.5 29.90625 74.5 
C 28.796875 74.5 20.296875 67.125 15.40625 56.15625 
C 10.40625 45.109375 9 34.359375 9 24.8125 
C 9 17.625 9.703125 5.484375 15.703125 -7.359375 
C 20.5 -17.734375 28.703125 -25 29.90625 -25 
C 30.40625 -25 30.59375 -24.796875 30.59375 -24.390625 
z
" id="CMR17-40"/>
      <path d="M 30.90625 42.140625 
C 30.90625 43.953125 30.796875 44.046875 30.203125 44.046875 
C 29.796875 44.046875 29.703125 43.953125 28.5 42.453125 
C 28.203125 42.046875 27.296875 41.03125 27 40.640625 
C 23.796875 44.046875 19.296875 44.046875 17.59375 44.046875 
C 6.5 44.046875 2.5 38.234375 2.5 32.4375 
C 2.5 23.40625 12.703125 21.328125 15.59375 20.703125 
C 21.90625 19.421875 24.09375 19.015625 26.203125 17.203125 
C 27.5 16.015625 29.703125 13.8125 29.703125 10.21875 
C 29.703125 6 27.296875 0.59375 18.09375 0.59375 
C 9.40625 0.59375 6.296875 7.1875 4.5 15.953125 
C 4.203125 17.34375 4.203125 17.453125 3.40625 17.453125 
C 2.59375 17.453125 2.5 17.34375 2.5 15.359375 
L 2.5 0.984375 
C 2.5 -0.796875 2.59375 -0.90625 3.203125 -0.90625 
C 3.703125 -0.90625 3.796875 -0.796875 4.296875 0 
C 4.90625 0.890625 6.40625 3.296875 7 4.3125 
C 9 1.609375 12.5 -1 18.09375 -1 
C 28 -1 33.296875 4.421875 33.296875 12.25 
C 33.296875 17.375 30.59375 20.078125 29.296875 21.28125 
C 26.296875 24.390625 22.796875 25.09375 18.59375 25.890625 
C 13.09375 27.109375 6.09375 28.515625 6.09375 34.640625 
C 6.09375 37.234375 7.5 42.765625 17.59375 42.765625 
C 28.296875 42.765625 28.90625 32.71875 29.09375 29.5 
C 29.203125 29 29.703125 28.890625 30 28.890625 
C 30.90625 28.890625 30.90625 29.203125 30.90625 30.90625 
z
" id="CMR17-115"/>
      <path d="M 26.296875 24.703125 
C 26.296875 31.875 25.59375 44.015625 19.59375 56.859375 
C 14.796875 67.234375 6.59375 74.5 5.40625 74.5 
C 5.09375 74.5 4.703125 74.390625 4.703125 73.890625 
C 4.703125 73.703125 4.796875 73.59375 4.90625 73.390625 
C 9.703125 68.40625 21.90625 55.75 21.90625 24.75 
C 21.90625 -6.359375 9.796875 -19.015625 4.90625 -24.015625 
C 4.796875 -24.203125 4.703125 -24.3125 4.703125 -24.5 
C 4.703125 -25 5.09375 -25 5.40625 -25 
C 6.5 -25 15 -17.625 19.90625 -6.65625 
C 24.90625 4.390625 26.296875 15.140625 26.296875 24.703125 
z
" id="CMR17-41"/>
     </defs>
     <g style="fill:#262626;" transform="translate(82.678602 156.07284)scale(0.11 -0.11)">
      <use transform="scale(0.996264)" xlink:href="#CMR17-84"/>
      <use transform="translate(66.509881 0)scale(0.996264)" xlink:href="#CMR17-105"/>
      <use transform="translate(91.380939 0)scale(0.996264)" xlink:href="#CMR17-109"/>
      <use transform="translate(168.300529 0)scale(0.996264)" xlink:href="#CMR17-101"/>
      <use transform="translate(238.862156 0)scale(0.996264)" xlink:href="#CMR17-40"/>
      <use transform="translate(274.142924 0)scale(0.996264)" xlink:href="#CMR17-109"/>
      <use transform="translate(351.062513 0)scale(0.996264)" xlink:href="#CMR17-115"/>
      <use transform="translate(386.863851 0)scale(0.996264)" xlink:href="#CMR17-41"/>
     </g>
    </g>
   </g>
   <g id="matplotlib.axis_2">
    <g id="ytick_1"/>
    <g id="ytick_2"/>
    <g id="ytick_3"/>
    <g id="ytick_4"/>
    <g id="ytick_5"/>
    <g id="ytick_6"/>
    <g id="ytick_7"/>
    <g id="ytick_8"/>
    <g id="text_6">
     <!-- Density -->
     <defs>
      <path d="M 5.203125 68 
L 5.203125 65.40625 
C 12.09375 65.40625 13.203125 65.40625 13.203125 60.9375 
L 13.203125 7.0625 
C 13.203125 2.59375 12.09375 2.59375 5.203125 2.59375 
L 5.203125 0 
L 37 0 
C 53.09375 0 66 14.734375 66 33.453125 
C 66 52.28125 53.296875 68 37 68 
z
M 23.796875 2.59375 
C 19.796875 2.59375 19.59375 3.078125 19.59375 6.46875 
L 19.59375 61.53125 
C 19.59375 64.921875 19.796875 65.40625 23.796875 65.40625 
L 35 65.40625 
C 43.296875 65.40625 58.59375 60.53125 58.59375 33.453125 
C 58.59375 19.40625 54.5 13.734375 52.59375 11.046875 
C 50.203125 7.96875 44.5 2.59375 35 2.59375 
z
" id="CMR17-68"/>
      <path d="M 41.5 30.203125 
C 41.5 35.296875 40.5 43.59375 28.703125 43.59375 
C 20.796875 43.59375 16.703125 37.5 15.203125 33.5 
L 15.09375 33.5 
L 15.09375 43.59375 
L 3.296875 42.5 
L 3.296875 39.90625 
C 9.203125 39.90625 10.09375 39.296875 10.09375 34.5 
L 10.09375 6.6875 
C 10.09375 2.875 9.703125 2.390625 3.296875 2.390625 
L 3.296875 -0.203125 
C 5.703125 0 10.09375 0 12.703125 0 
C 15.296875 0 19.796875 0 22.203125 -0.203125 
L 22.203125 2.390625 
C 15.796875 2.390625 15.40625 2.78125 15.40625 6.6875 
L 15.40625 25.90625 
C 15.40625 35.109375 21 42 28 42 
C 35.40625 42 36.203125 35.40625 36.203125 30.59375 
L 36.203125 6.6875 
C 36.203125 2.875 35.796875 2.390625 29.40625 2.390625 
L 29.40625 -0.203125 
C 31.796875 0 36.203125 0 38.796875 0 
C 41.40625 0 45.90625 0 48.296875 -0.203125 
L 48.296875 2.390625 
C 41.90625 2.390625 41.5 2.78125 41.5 6.6875 
z
" id="CMR17-110"/>
      <path d="M 15.09375 40 
L 29.09375 40 
L 29.09375 42.578125 
L 15.09375 42.578125 
L 15.09375 61 
L 13.296875 61 
C 13.09375 50.703125 9.59375 41.6875 1.09375 41.6875 
L 1.09375 40 
L 9.796875 40 
L 9.796875 12.046875 
C 9.796875 10.15625 9.796875 -1 21.40625 -1 
C 27.296875 -1 30.703125 4.78125 30.703125 12.140625 
L 30.703125 17.8125 
L 28.90625 17.8125 
L 28.90625 12.234375 
C 28.90625 5.375 26.203125 0.796875 22 0.796875 
C 19.09375 0.796875 15.09375 2.78125 15.09375 11.84375 
z
" id="CMR17-116"/>
      <path d="M 39 34.328125 
C 41.5 40.40625 46 40.40625 47.40625 40.40625 
L 47.40625 43 
C 45.5 43 43 43 41.09375 43 
C 39 43 35.703125 43 33.703125 43.09375 
L 33.703125 40.5 
C 37.5 40.203125 37.59375 37.40625 37.59375 36.609375 
C 37.59375 35.625 37.40625 35.125 36.90625 33.921875 
L 26 7.015625 
L 14.09375 36.03125 
C 13.59375 37.21875 13.59375 37.90625 13.59375 38.015625 
C 13.59375 40.203125 15.90625 40.40625 18.296875 40.40625 
L 18.296875 43.09375 
C 15.90625 43 11.59375 43 9.09375 43 
C 6.40625 43 3.203125 43 1 43.09375 
L 1 40.40625 
C 6.40625 40.40625 7 39.90625 8.296875 36.71875 
L 23.203125 0.234375 
C 18.703125 -11.53125 16.09375 -18.40625 9.796875 -18.40625 
C 8.703125 -18.40625 6.203125 -18.109375 4.40625 -16.3125 
C 6.703125 -16.109375 7.703125 -14.71875 7.703125 -13.015625 
C 7.703125 -11.328125 6.5 -9.828125 4.5 -9.828125 
C 2.296875 -9.828125 1.203125 -11.328125 1.203125 -13.125 
C 1.203125 -17.109375 5.296875 -20 9.796875 -20 
C 15.59375 -20 19.203125 -14.40625 21.203125 -9.4375 
z
" id="CMR17-121"/>
     </defs>
     <g style="fill:#262626;" transform="translate(35.289105 89.859215)rotate(-90)scale(0.11 -0.11)">
      <use transform="scale(0.996264)" xlink:href="#CMR17-68"/>
      <use transform="translate(70.393556 0)scale(0.996264)" xlink:href="#CMR17-101"/>
      <use transform="translate(110.879216 0)scale(0.996264)" xlink:href="#CMR17-110"/>
      <use transform="translate(161.774586 0)scale(0.996264)" xlink:href="#CMR17-115"/>
      <use transform="translate(197.575924 0)scale(0.996264)" xlink:href="#CMR17-105"/>
      <use transform="translate(222.446982 0)scale(0.996264)" xlink:href="#CMR17-116"/>
      <use transform="translate(255.125296 0)scale(0.996264)" xlink:href="#CMR17-121"/>
     </g>
    </g>
   </g>
   <g id="line2d_5">
    <path clip-path="url(#p8c69ca8bbe)" d="M -1 121.058182 
L 42.354472 120.951015 
L 43.113096 120.691683 
L 43.87172 120.118138 
L 44.630344 119.207128 
L 46.147592 117.276073 
L 46.906216 116.708736 
L 47.66484 116.436965 
L 48.423464 116.385224 
L 51.457961 116.508967 
L 54.998206 115.978961 
L 55.503956 115.647557 
L 56.009705 115.032292 
L 56.515455 113.977119 
L 57.021204 112.318602 
L 57.526953 109.920618 
L 58.285577 104.781791 
L 59.044201 97.847045 
L 60.0557 86.466214 
L 62.584447 56.643916 
L 63.595946 47.172662 
L 64.35457 41.561152 
L 65.113194 37.507852 
L 65.618943 35.741866 
L 66.124693 34.740044 
L 66.377568 34.529441 
L 66.630442 34.516487 
L 66.883317 34.70552 
L 67.136192 35.100879 
L 67.641941 36.519466 
L 68.14769 38.75492 
L 68.906314 43.445787 
L 69.917813 51.543662 
L 71.435061 65.968164 
L 73.710934 87.480097 
L 74.722432 95.210305 
L 75.733931 101.363743 
L 76.74543 106.170805 
L 77.756929 109.78866 
L 78.768428 112.406133 
L 79.779926 114.274846 
L 80.791425 115.602112 
L 82.308673 117.1108 
L 83.573047 118.090857 
L 84.584545 118.615306 
L 86.101794 119.101152 
L 89.13629 119.794621 
L 91.412162 120.107633 
L 95.205283 120.31013 
L 98.492654 120.519403 
L 100.768526 120.6152 
L 107.596143 120.661782 
L 110.630639 120.710476 
L 117.458256 120.635013 
L 120.745627 120.486392 
L 125.297371 120.290416 
L 129.090491 119.992628 
L 133.895111 119.206367 
L 138.446855 118.990638 
L 140.975602 118.485322 
L 146.79172 117.994759 
L 149.573342 117.759653 
L 151.849214 117.862993 
L 155.389459 117.514235 
L 161.205577 117.712019 
L 162.469951 117.778088 
L 165.504447 118.113828 
L 168.033194 118.353574 
L 169.550442 118.620704 
L 170.309066 118.962012 
L 171.320565 119.716824 
L 172.584939 120.624938 
L 173.343563 120.905869 
L 174.355061 121.034567 
L 177.642432 121.058181 
L 234.286364 121.058182 
L 234.286364 121.058182 
" style="fill:none;stroke:#1b9e77;stroke-linecap:round;stroke-width:2;"/>
   </g>
   <g id="line2d_6">
    <path clip-path="url(#p8c69ca8bbe)" d="M -1 121.058182 
L 41.342973 120.996844 
L 41.848722 120.848594 
L 42.354472 120.440303 
L 42.860221 119.480609 
L 43.365971 117.550648 
L 43.87172 114.213495 
L 44.377469 109.204633 
L 45.136093 98.729447 
L 46.147592 80.936744 
L 47.917715 48.165524 
L 48.676339 38.710514 
L 49.434963 32.796978 
L 50.446462 27.234031 
L 51.205086 23.817373 
L 51.710835 22.459154 
L 51.96371 22.221818 
L 52.216585 22.326646 
L 52.469459 22.786261 
L 52.975209 24.740639 
L 53.480958 27.953733 
L 54.239582 34.925355 
L 54.998206 44.384192 
L 57.274079 75.255103 
L 58.032703 82.190428 
L 58.791327 87.535287 
L 59.802826 92.958109 
L 62.331572 104.230033 
L 63.090197 106.925983 
L 63.848821 108.96879 
L 65.366069 112.200027 
L 66.377568 114.001175 
L 67.136192 115.002496 
L 68.14769 115.901694 
L 70.929312 117.813338 
L 71.687936 117.906286 
L 72.95231 118.013139 
L 73.963808 118.45044 
L 76.239681 119.634335 
L 76.998305 119.797748 
L 79.274177 120.03646 
L 80.791425 120.430685 
L 82.055799 120.413866 
L 83.320172 120.490498 
L 84.584545 120.565307 
L 88.630541 120.33472 
L 90.906413 120.524233 
L 92.170786 120.358693 
L 93.43516 120.194125 
L 94.699533 120.304483 
L 96.216781 120.470721 
L 99.251278 120.460772 
L 100.515651 120.495727 
L 102.538649 120.347742 
L 103.803022 120.62533 
L 104.814521 120.81407 
L 105.82602 120.740062 
L 109.366265 119.850682 
L 110.630639 119.548006 
L 111.389263 119.612496 
L 112.653636 119.833675 
L 113.41226 119.726063 
L 117.205381 118.617575 
L 117.964005 118.608832 
L 118.722629 118.810455 
L 120.745627 119.555434 
L 121.504251 119.43343 
L 122.515749 118.911634 
L 123.527248 118.472007 
L 124.285872 118.363832 
L 125.80312 118.456259 
L 127.320369 118.711704 
L 128.837617 119.26343 
L 130.860614 120.061603 
L 131.619238 120.089668 
L 132.377862 119.890746 
L 134.40086 119.216529 
L 136.929607 118.792768 
L 137.941106 118.598695 
L 138.69973 118.701351 
L 139.964103 119.2535 
L 140.722727 119.482312 
L 141.481351 119.477399 
L 143.504349 119.245068 
L 146.538845 119.300752 
L 148.308968 118.950688 
L 149.573342 118.76261 
L 150.58484 118.787383 
L 153.366462 119.148011 
L 154.630835 119.127085 
L 155.895209 119.119492 
L 157.412457 118.9145 
L 158.171081 119.080183 
L 159.18258 119.61142 
L 160.194079 120.118385 
L 160.952703 120.246884 
L 161.711327 120.129817 
L 163.228575 119.525112 
L 163.987199 119.324889 
L 164.745823 119.314589 
L 165.757322 119.521612 
L 167.780319 120.037376 
L 170.309066 120.273629 
L 172.837813 120.965116 
L 174.607936 121.054396 
L 191.550541 121.058182 
L 234.286364 121.058182 
L 234.286364 121.058182 
" style="fill:none;stroke:#1b9e77;stroke-dasharray:7.4,3.2;stroke-dashoffset:0;stroke-width:2;"/>
   </g>
   <g id="line2d_7">
    <path clip-path="url(#p8c69ca8bbe)" d="M -1 121.058182 
L 40.584349 120.95437 
L 41.595848 120.664 
L 42.354472 120.155931 
L 43.113096 119.266107 
L 43.87172 117.946243 
L 45.136093 115.102817 
L 46.147592 112.922998 
L 46.906216 111.709705 
L 47.66484 110.947529 
L 48.423464 110.57396 
L 49.182088 110.459744 
L 50.699337 110.541603 
L 54.745332 111.045006 
L 56.009705 111.36193 
L 57.021204 111.852143 
L 58.032703 112.62765 
L 59.549951 114.184034 
L 61.572948 116.250405 
L 62.837322 117.195731 
L 63.848821 117.655022 
L 64.607445 117.7901 
L 65.366069 117.723134 
L 66.124693 117.440399 
L 66.883317 116.943588 
L 67.894816 116.000372 
L 73.205184 110.399526 
L 74.216683 109.68413 
L 75.228182 109.244301 
L 76.239681 109.081037 
L 77.504054 109.143725 
L 79.527052 109.529779 
L 84.078796 110.531195 
L 86.101794 110.65782 
L 92.423661 110.871691 
L 95.711032 111.419876 
L 97.481155 111.315289 
L 100.768526 111.116349 
L 105.067396 111.061522 
L 110.883514 111.079167 
L 113.159386 111.198231 
L 120.492752 111.114235 
L 125.550246 111.414015 
L 128.837617 111.127403 
L 131.619238 111.228569 
L 133.389361 111.209771 
L 135.665233 110.862395 
L 137.941106 110.629693 
L 142.9986 110.315665 
L 145.527346 109.827377 
L 154.377961 108.877376 
L 157.918206 108.100491 
L 159.941204 108.015885 
L 161.458452 107.860605 
L 163.987199 107.507042 
L 165.504447 107.598821 
L 167.021695 107.915674 
L 167.780319 108.228526 
L 168.538943 108.790032 
L 169.297568 109.757078 
L 170.056192 111.228997 
L 171.06769 113.851752 
L 172.584939 117.867947 
L 173.343563 119.295618 
L 174.102187 120.208811 
L 174.860811 120.703613 
L 175.619435 120.93063 
L 176.883808 121.041679 
L 181.941302 121.058182 
L 234.286364 121.058182 
L 234.286364 121.058182 
" style="fill:none;stroke:#1b9e77;stroke-dasharray:12.8,3.2,2,3.2;stroke-dashoffset:0;stroke-width:2;"/>
   </g>
   <g id="patch_3">
    <path d="M 44.82 126 
L 44.82 17.28 
" style="fill:none;stroke:#262626;stroke-linecap:square;stroke-linejoin:miter;stroke-width:1.25;"/>
   </g>
   <g id="patch_4">
    <path d="M 44.82 126 
L 171.130909 126 
" style="fill:none;stroke:#262626;stroke-linecap:square;stroke-linejoin:miter;stroke-width:1.25;"/>
   </g>
   <g id="legend_1">
    <g id="line2d_8">
     <path d="M 57.233263 31.549178 
L 79.233263 31.549178 
" style="fill:none;stroke:#1b9e77;stroke-linecap:round;stroke-width:2;"/>
    </g>
    <g id="line2d_9"/>
    <g id="text_7">
     <!-- $C|A=1,Z=0$ -->
     <defs>
      <path d="M 15.90625 71.40625 
C 15.90625 73.203125 15.90625 75 13.90625 75 
C 11.90625 75 11.90625 73.203125 11.90625 71.40625 
L 11.90625 -21.40625 
C 11.90625 -23.203125 11.90625 -25 13.90625 -25 
C 15.90625 -25 15.90625 -23.203125 15.90625 -21.40625 
z
" id="CMSY10-106"/>
      <path d="M 17 10.796875 
C 13.5 4.90625 10.09375 2.90625 5.296875 2.90625 
C 4.203125 2.8125 3.40625 2.8125 3.40625 0.90625 
C 3.40625 0.375 3.90625 0 4.59375 0 
C 6.40625 0 10.90625 0 12.703125 0 
C 15.59375 0 18.796875 0 21.59375 0 
C 22.203125 0 23.40625 0 23.40625 1.90625 
C 23.40625 2.8125 22.59375 2.90625 22 2.90625 
C 19.703125 2.90625 17.796875 3.6875 17.796875 6.0625 
C 17.796875 7.4375 18.40625 8.53125 19.703125 10.703125 
L 27.296875 23.109375 
L 52.796875 23.109375 
C 52.90625 22.234375 52.90625 21.453125 53 20.5625 
C 53.296875 18 54.5 7.734375 54.5 5.875 
C 54.5 2.90625 49.40625 2.90625 47.796875 2.90625 
C 46.703125 2.90625 45.59375 2.90625 45.59375 1.09375 
C 45.59375 0 46.5 0 47.09375 0 
C 48.796875 0 50.796875 0 52.5 0 
L 58.203125 0 
C 64.296875 0 68.703125 0 68.796875 0 
C 69.5 0 70.59375 0 70.59375 1.90625 
C 70.59375 2.90625 69.703125 2.90625 68.203125 2.90625 
C 62.703125 2.90625 62.59375 3.8125 62.296875 6.78125 
L 56.203125 68.8125 
C 56 70.796875 55.59375 71 54.5 71 
C 53.5 71 52.90625 70.796875 52 69.296875 
z
M 29 26 
L 49.09375 59.671875 
L 52.5 26 
z
" id="CMMI12-65"/>
      <path d="M 64.296875 31.515625 
C 65.796875 31.515625 67.296875 31.515625 67.296875 33.203125 
C 67.296875 35 65.59375 35 63.90625 35 
L 8 35 
C 6.296875 35 4.59375 35 4.59375 33.203125 
C 4.59375 31.515625 6.09375 31.515625 7.59375 31.515625 
z
M 63.90625 14 
C 65.59375 14 67.296875 14 67.296875 15.796875 
C 67.296875 17.484375 65.796875 17.484375 64.296875 17.484375 
L 7.59375 17.484375 
C 6.09375 17.484375 4.59375 17.484375 4.59375 15.796875 
C 4.59375 14 6.296875 14 8 14 
z
" id="CMR17-61"/>
      <path d="M 19.5 -0.484375 
C 19.5 5.359375 17.59375 9.671875 13.5 9.671875 
C 10.296875 9.671875 8.703125 7.078125 8.703125 4.890625 
C 8.703125 2.6875 10.203125 0 13.59375 0 
C 14.90625 0 16 0.40625 16.90625 1.296875 
C 17.09375 1.5 17.203125 1.5 17.296875 1.5 
C 17.5 1.5 17.5 0.078125 17.5 -0.421875 
C 17.5 -3.75 16.90625 -10.296875 11.09375 -16.875 
C 10 -18.078125 10 -18.28125 10 -18.484375 
C 10 -19 10.5 -19.5 11 -19.5 
C 11.796875 -19.5 19.5 -12.046875 19.5 -0.484375 
z
" id="CMMI12-59"/>
      <path d="M 70 64.90625 
C 70.59375 65.609375 71.09375 66.203125 71.09375 67.203125 
C 71.09375 67.90625 71 68 68.703125 68 
L 27.40625 68 
C 25.09375 68 25 67.90625 24.40625 66.109375 
L 18.90625 48.1875 
C 18.59375 47.1875 18.59375 46.984375 18.59375 46.796875 
C 18.59375 46.390625 18.90625 45.796875 19.59375 45.796875 
C 20.40625 45.796875 20.59375 46.1875 21 47.484375 
C 24.703125 58.234375 29.59375 65.109375 45.40625 65.109375 
L 61.796875 65.109375 
L 7 3.375 
C 6.09375 2.296875 5.703125 1.890625 5.703125 0.796875 
C 5.703125 0 6.203125 0 8.09375 0 
L 50.796875 0 
C 53.09375 0 53.203125 0.09375 53.796875 1.890625 
L 60.796875 23.890625 
C 60.90625 24.1875 61.09375 24.890625 61.09375 25.28125 
C 61.09375 25.78125 60.703125 26.28125 60.09375 26.28125 
C 59.296875 26.28125 59.203125 26.1875 58.40625 23.6875 
C 54.203125 10.859375 49.796875 3.09375 32.40625 3.09375 
L 15.09375 3.09375 
z
" id="CMMI12-90"/>
     </defs>
     <g style="fill:#262626;" transform="translate(88.033263 35.399178)scale(0.11 -0.11)">
      <use transform="scale(0.996264)" xlink:href="#CMMI12-67"/>
      <use transform="translate(76.946847 0)scale(0.996264)" xlink:href="#CMSY10-106"/>
      <use transform="translate(104.620931 0)scale(0.996264)" xlink:href="#CMMI12-65"/>
      <use transform="translate(205.422825 0)scale(0.996264)" xlink:href="#CMR17-61"/>
      <use transform="translate(304.811623 0)scale(0.996264)" xlink:href="#CMR17-49"/>
      <use transform="translate(350.5021 0)scale(0.996264)" xlink:href="#CMMI12-59"/>
      <use transform="translate(394.203682 0)scale(0.996264)" xlink:href="#CMMI12-90"/>
      <use transform="translate(495.801283 0)scale(0.996264)" xlink:href="#CMR17-61"/>
      <use transform="translate(595.19008 0)scale(0.996264)" xlink:href="#CMR17-48"/>
     </g>
    </g>
    <g id="line2d_10">
     <path d="M 57.233263 48.008082 
L 79.233263 48.008082 
" style="fill:none;stroke:#1b9e77;stroke-dasharray:7.4,3.2;stroke-dashoffset:0;stroke-width:2;"/>
    </g>
    <g id="line2d_11"/>
    <g id="text_8">
     <!-- $C|A=0,Z=1$ -->
     <g style="fill:#262626;" transform="translate(88.033263 51.858082)scale(0.11 -0.11)">
      <use transform="scale(0.996264)" xlink:href="#CMMI12-67"/>
      <use transform="translate(76.946847 0)scale(0.996264)" xlink:href="#CMSY10-106"/>
      <use transform="translate(104.620931 0)scale(0.996264)" xlink:href="#CMMI12-65"/>
      <use transform="translate(205.422825 0)scale(0.996264)" xlink:href="#CMR17-61"/>
      <use transform="translate(304.811623 0)scale(0.996264)" xlink:href="#CMR17-48"/>
      <use transform="translate(350.5021 0)scale(0.996264)" xlink:href="#CMMI12-59"/>
      <use transform="translate(394.203682 0)scale(0.996264)" xlink:href="#CMMI12-90"/>
      <use transform="translate(495.801283 0)scale(0.996264)" xlink:href="#CMR17-61"/>
      <use transform="translate(595.19008 0)scale(0.996264)" xlink:href="#CMR17-49"/>
     </g>
    </g>
    <g id="line2d_12">
     <path d="M 57.233263 64.466986 
L 79.233263 64.466986 
" style="fill:none;stroke:#1b9e77;stroke-dasharray:12.8,3.2,2,3.2;stroke-dashoffset:0;stroke-width:2;"/>
    </g>
    <g id="line2d_13"/>
    <g id="text_9">
     <!-- $C|A=0$ -->
     <g style="fill:#262626;" transform="translate(88.033263 68.316986)scale(0.11 -0.11)">
      <use transform="scale(0.996264)" xlink:href="#CMMI12-67"/>
      <use transform="translate(76.946847 0)scale(0.996264)" xlink:href="#CMSY10-106"/>
      <use transform="translate(104.620931 0)scale(0.996264)" xlink:href="#CMMI12-65"/>
      <use transform="translate(205.422825 0)scale(0.996264)" xlink:href="#CMR17-61"/>
      <use transform="translate(304.811623 0)scale(0.996264)" xlink:href="#CMR17-48"/>
     </g>
    </g>
   </g>
  </g>
  <g id="axes_2">
   <g id="patch_5">
    <path d="M 196.393091 126 
L 322.704 126 
L 322.704 17.28 
L 196.393091 17.28 
z
" style="fill:#ffffff;"/>
   </g>
   <g id="matplotlib.axis_3">
    <g id="xtick_5">
     <g id="line2d_14"/>
     <g id="text_10">
      <!-- 0 -->
      <g style="fill:#262626;" transform="translate(193.902423 139.918498)scale(0.1 -0.1)">
       <use transform="scale(0.996264)" xlink:href="#CMR17-48"/>
      </g>
     </g>
    </g>
    <g id="xtick_6">
     <g id="line2d_15"/>
     <g id="text_11">
      <!-- $\tau_0^C$ -->
      <g style="fill:#262626;" transform="translate(203.425578 141.916484)scale(0.1 -0.1)">
       <use transform="translate(0 24.740171)scale(0.996264)" xlink:href="#CMMI12-28"/>
       <use transform="translate(53.491165 60.89381)scale(0.697382)" xlink:href="#CMMI12-67"/>
       <use transform="translate(42.363841 0)scale(0.697382)" xlink:href="#CMR17-48"/>
      </g>
     </g>
    </g>
    <g id="xtick_7">
     <g id="line2d_16"/>
     <g id="text_12">
      <!-- $\tau_1^C$ -->
      <g style="fill:#262626;" transform="translate(232.898124 141.916484)scale(0.1 -0.1)">
       <use transform="translate(0 24.740171)scale(0.996264)" xlink:href="#CMMI12-28"/>
       <use transform="translate(53.491165 60.89381)scale(0.697382)" xlink:href="#CMMI12-67"/>
       <use transform="translate(42.363841 0)scale(0.697382)" xlink:href="#CMR17-49"/>
      </g>
     </g>
    </g>
    <g id="xtick_8">
     <g id="line2d_17"/>
     <g id="text_13">
      <!-- 30 -->
      <g style="fill:#262626;" transform="translate(317.722665 139.918498)scale(0.1 -0.1)">
       <use transform="scale(0.996264)" xlink:href="#CMR17-51"/>
       <use transform="translate(45.690477 0)scale(0.996264)" xlink:href="#CMR17-48"/>
      </g>
     </g>
    </g>
    <g id="text_14">
     <!-- Time (ms) -->
     <g style="fill:#262626;" transform="translate(234.251693 156.07284)scale(0.11 -0.11)">
      <use transform="scale(0.996264)" xlink:href="#CMR17-84"/>
      <use transform="translate(66.509881 0)scale(0.996264)" xlink:href="#CMR17-105"/>
      <use transform="translate(91.380939 0)scale(0.996264)" xlink:href="#CMR17-109"/>
      <use transform="translate(168.300529 0)scale(0.996264)" xlink:href="#CMR17-101"/>
      <use transform="translate(238.862156 0)scale(0.996264)" xlink:href="#CMR17-40"/>
      <use transform="translate(274.142924 0)scale(0.996264)" xlink:href="#CMR17-109"/>
      <use transform="translate(351.062513 0)scale(0.996264)" xlink:href="#CMR17-115"/>
      <use transform="translate(386.863851 0)scale(0.996264)" xlink:href="#CMR17-41"/>
     </g>
    </g>
   </g>
   <g id="matplotlib.axis_4">
    <g id="ytick_9"/>
    <g id="ytick_10"/>
    <g id="ytick_11"/>
    <g id="ytick_12"/>
    <g id="ytick_13"/>
    <g id="ytick_14"/>
    <g id="ytick_15"/>
    <g id="ytick_16"/>
   </g>
   <g id="line2d_18">
    <path clip-path="url(#pd1fab9d243)" d="M 133.237636 121.058182 
L 193.168939 120.962449 
L 193.927563 120.707147 
L 194.433312 120.331845 
L 194.939061 119.708452 
L 195.697686 118.234758 
L 198.226432 112.305668 
L 198.985057 111.503272 
L 199.743681 111.161679 
L 200.502305 111.117364 
L 203.283926 111.23632 
L 206.318423 111.184095 
L 207.077047 110.801029 
L 207.582796 110.284634 
L 208.088545 109.446985 
L 208.594295 108.182924 
L 209.100044 106.402493 
L 209.858668 102.659995 
L 210.617292 97.678763 
L 211.881666 87.400565 
L 214.157538 68.217994 
L 215.169037 61.394612 
L 215.927661 57.5157 
L 216.43341 55.689255 
L 216.93916 54.540074 
L 217.444909 54.080281 
L 217.697784 54.103668 
L 217.950658 54.291322 
L 218.456408 55.145939 
L 218.962157 56.617993 
L 219.720781 59.894227 
L 220.73228 65.786596 
L 225.284025 94.850833 
L 226.295523 99.811537 
L 227.307022 103.7649 
L 228.318521 106.816807 
L 229.33002 109.111239 
L 230.341518 110.799876 
L 231.353017 112.017182 
L 232.364516 112.880816 
L 234.893263 114.591036 
L 235.904762 115.092594 
L 236.91626 115.371598 
L 243.743877 116.693599 
L 247.789872 117.394871 
L 255.123238 117.637319 
L 258.663484 117.832826 
L 260.433607 118.108958 
L 262.456604 118.372866 
L 265.238226 118.49862 
L 277.123337 118.743095 
L 279.652084 118.849609 
L 281.675081 118.654066 
L 285.721076 118.287767 
L 290.272821 118.046497 
L 291.790069 117.826168 
L 293.307317 117.853834 
L 296.594688 117.97603 
L 299.629184 117.723592 
L 301.652182 117.570925 
L 304.939553 117.60925 
L 307.4683 117.456407 
L 314.548791 117.820863 
L 316.318914 117.972504 
L 319.100536 118.106659 
L 320.617784 118.360235 
L 321.629283 118.810998 
L 322.893656 119.736124 
L 324.158029 120.582572 
L 325.169528 120.922753 
L 326.433902 121.042917 
L 331.491396 121.058182 
L 359.56 121.058182 
L 359.56 121.058182 
" style="fill:none;stroke:#d95f02;stroke-linecap:round;stroke-width:2;"/>
   </g>
   <g id="line2d_19">
    <path clip-path="url(#pd1fab9d243)" d="M 134.290227 121.058182 
L 193.622216 120.991592 
L 194.122908 120.807689 
L 194.6236 120.286617 
L 195.124292 119.100001 
L 195.624984 116.92695 
L 196.376022 111.854297 
L 197.377406 104.879263 
L 197.878098 102.998063 
L 198.128443 102.633664 
L 198.378789 102.644847 
L 198.629135 102.992008 
L 199.129827 104.434436 
L 200.381557 108.838449 
L 200.882249 109.767534 
L 201.132595 109.957896 
L 201.382941 109.964804 
L 201.633287 109.801672 
L 202.133979 109.080526 
L 203.135362 107.263377 
L 203.636054 106.718244 
L 204.136746 106.454486 
L 205.388476 105.975711 
L 206.139514 105.32344 
L 206.640206 104.63358 
L 207.391243 103.110084 
L 208.142281 101.01823 
L 208.893319 98.315497 
L 209.644357 94.658899 
L 210.395395 89.571521 
L 211.146433 82.502851 
L 213.1492 60.678844 
L 213.649892 57.749851 
L 214.150584 56.13503 
L 214.651276 55.360685 
L 215.151968 55.061042 
L 215.402314 55.064282 
L 215.65266 55.18694 
L 216.153352 55.833748 
L 216.904389 57.607733 
L 218.156119 61.359994 
L 218.656811 63.531562 
L 219.658195 69.432528 
L 220.409233 73.439908 
L 221.160271 75.958971 
L 221.911308 78.408924 
L 222.412 80.939981 
L 224.665114 94.280327 
L 225.666498 97.87587 
L 227.168573 103.045519 
L 228.169957 106.274073 
L 229.171341 108.631909 
L 232.676184 115.565239 
L 233.176876 116.093791 
L 233.677568 116.299174 
L 234.678952 116.307614 
L 235.680335 116.154309 
L 236.431373 115.733987 
L 237.683103 114.91709 
L 238.183795 114.823143 
L 239.185179 114.974305 
L 239.936216 114.990865 
L 240.9376 114.90167 
L 241.438292 115.081133 
L 242.439676 115.848587 
L 243.190714 116.326879 
L 244.192098 116.684066 
L 244.943135 116.792343 
L 245.694173 116.697523 
L 247.196249 116.349219 
L 247.696941 116.457747 
L 248.447979 116.894201 
L 250.450746 118.432316 
L 250.951438 118.473891 
L 251.45213 118.291121 
L 252.70386 117.59255 
L 253.204552 117.584613 
L 253.705243 117.790231 
L 255.708011 119.029624 
L 256.208703 119.042171 
L 256.959741 118.793034 
L 257.710779 118.542176 
L 258.461816 118.551359 
L 259.963892 118.79217 
L 260.464584 118.674156 
L 261.215622 118.229409 
L 261.96666 117.798953 
L 262.467352 117.792464 
L 262.968043 118.075823 
L 264.470119 119.285444 
L 264.970811 119.355861 
L 265.972195 119.125983 
L 266.973579 118.987429 
L 270.478422 118.962779 
L 271.479806 119.230338 
L 272.981881 119.725711 
L 273.732919 119.708508 
L 275.234995 119.609174 
L 276.236379 119.780631 
L 277.488108 120.262366 
L 278.239146 120.486314 
L 278.739838 120.464694 
L 279.490876 120.193224 
L 280.742606 119.732784 
L 284.998487 118.939032 
L 285.749525 118.844045 
L 286.250216 118.97055 
L 288.252984 119.890463 
L 289.004022 119.791161 
L 290.756443 119.392303 
L 291.757827 119.514825 
L 292.759211 119.681304 
L 293.510249 119.573677 
L 295.012325 119.108927 
L 295.763362 119.196027 
L 297.265438 119.505414 
L 299.01786 119.472715 
L 300.019243 119.299057 
L 301.771665 118.785785 
L 302.272357 118.87948 
L 303.023395 119.277151 
L 304.275125 120.002078 
L 305.276508 120.354464 
L 306.277892 120.491237 
L 307.279276 120.361661 
L 310.033081 119.676296 
L 315.04 119.93825 
L 316.29173 119.720391 
L 317.042768 119.855209 
L 319.295881 120.549028 
L 320.297265 120.574886 
L 321.799341 120.496956 
L 322.800725 120.737392 
L 324.052454 121.004709 
L 325.804876 121.05769 
L 359.56 121.058182 
L 359.56 121.058182 
" style="fill:none;stroke:#d95f02;stroke-dasharray:7.4,3.2;stroke-dashoffset:0;stroke-width:2;"/>
   </g>
   <g id="line2d_20">
    <path clip-path="url(#pd1fab9d243)" d="M 133.237636 121.058182 
L 192.410314 120.971652 
L 193.421813 120.777098 
L 194.433312 120.336286 
L 195.444811 119.572122 
L 198.732182 116.637452 
L 199.490806 116.369011 
L 200.502305 116.2567 
L 205.812673 116.135456 
L 206.824172 115.829483 
L 207.582796 115.376025 
L 208.34142 114.631012 
L 209.100044 113.50838 
L 209.858668 111.946455 
L 210.870167 109.164038 
L 212.134541 104.796652 
L 215.169037 93.903457 
L 216.43341 90.276977 
L 217.444909 87.929507 
L 218.203533 86.577957 
L 218.962157 85.678591 
L 219.467907 85.381843 
L 219.973656 85.360323 
L 220.479405 85.634226 
L 220.985155 86.211806 
L 221.490904 87.085736 
L 222.249528 88.893772 
L 223.261027 91.987531 
L 226.801273 103.540882 
L 228.065646 106.759613 
L 229.077145 108.848149 
L 230.088644 110.514756 
L 231.100143 111.818785 
L 232.364516 113.050671 
L 233.628889 113.943339 
L 234.893263 114.569683 
L 236.410511 115.050595 
L 238.433509 115.41671 
L 240.456506 115.559618 
L 249.81287 115.478903 
L 254.11174 115.316176 
L 258.410609 115.149256 
L 263.720978 114.802714 
L 266.755474 114.633079 
L 271.307219 114.414706 
L 276.870462 114.318916 
L 281.169332 113.640966 
L 288.755572 112.904339 
L 293.813066 112.28319 
L 298.111936 111.291746 
L 302.916555 110.834306 
L 305.192428 110.537136 
L 309.491297 109.81526 
L 316.318914 109.382969 
L 318.089037 109.679364 
L 319.100536 110.007388 
L 319.85916 110.43909 
L 320.617784 111.15517 
L 321.376408 112.249936 
L 322.387907 114.279203 
L 324.410904 118.634897 
L 325.169528 119.723298 
L 325.928152 120.411094 
L 326.686776 120.783708 
L 327.698275 120.98763 
L 329.721273 121.056008 
L 359.56 121.058182 
L 359.56 121.058182 
" style="fill:none;stroke:#d95f02;stroke-dasharray:12.8,3.2,2,3.2;stroke-dashoffset:0;stroke-width:2;"/>
   </g>
   <g id="patch_6">
    <path d="M 196.393091 126 
L 196.393091 17.28 
" style="fill:none;stroke:#262626;stroke-linecap:square;stroke-linejoin:miter;stroke-width:1.25;"/>
   </g>
   <g id="patch_7">
    <path d="M 196.393091 126 
L 322.704 126 
" style="fill:none;stroke:#262626;stroke-linecap:square;stroke-linejoin:miter;stroke-width:1.25;"/>
   </g>
   <g id="legend_2">
    <g id="line2d_21">
     <path d="M 208.163288 31.549178 
L 230.163288 31.549178 
" style="fill:none;stroke:#d95f02;stroke-linecap:round;stroke-width:2;"/>
    </g>
    <g id="line2d_22"/>
    <g id="text_15">
     <!-- $C|B=1,Z=0$ -->
     <defs>
      <path d="M 36.59375 61.265625 
C 37.5 65 37.90625 65 41.796875 65 
L 54.796875 65 
C 66.09375 65 66.09375 55.375 66.09375 54.453125 
C 66.09375 46.34375 58 36 44.796875 36 
L 30.40625 36 
z
M 53.5 35.546875 
C 64.40625 37.53125 74.296875 45.09375 74.296875 54.265625 
C 74.296875 62.03125 67.40625 68 56.09375 68 
L 24 68 
C 22.09375 68 21.203125 68 21.203125 66.03125 
C 21.203125 65 22.09375 65 23.59375 65 
C 29.703125 65 29.703125 64.25 29.703125 63.1875 
C 29.703125 63 29.703125 62.390625 29.296875 60.890625 
L 15.796875 7.375 
C 14.90625 3.890625 14.703125 2.890625 7.703125 2.890625 
C 5.796875 2.890625 4.796875 2.890625 4.796875 1.09375 
C 4.796875 0 5.40625 0 7.40625 0 
L 41.703125 0 
C 57 0 68.796875 11.546875 68.796875 21.609375 
C 68.796875 29.78125 61.59375 34.75 53.5 35.546875 
z
M 39.296875 2.890625 
L 25.796875 2.890625 
C 24.40625 2.890625 24.203125 2.890625 23.59375 3 
C 22.5 3.09375 22.40625 3.296875 22.40625 4.078125 
C 22.40625 4.765625 22.59375 5.359375 22.796875 6.234375 
L 29.796875 34 
L 48.59375 34 
C 60.40625 34 60.40625 23.171875 60.40625 22.390625 
C 60.40625 12.9375 51.703125 2.890625 39.296875 2.890625 
z
" id="CMMI12-66"/>
     </defs>
     <g style="fill:#262626;" transform="translate(238.963288 35.399178)scale(0.11 -0.11)">
      <use transform="scale(0.996264)" xlink:href="#CMMI12-67"/>
      <use transform="translate(76.946847 0)scale(0.996264)" xlink:href="#CMSY10-106"/>
      <use transform="translate(104.620931 0)scale(0.996264)" xlink:href="#CMMI12-66"/>
      <use transform="translate(211.430463 0)scale(0.996264)" xlink:href="#CMR17-61"/>
      <use transform="translate(310.819261 0)scale(0.996264)" xlink:href="#CMR17-49"/>
      <use transform="translate(356.509738 0)scale(0.996264)" xlink:href="#CMMI12-59"/>
      <use transform="translate(400.21132 0)scale(0.996264)" xlink:href="#CMMI12-90"/>
      <use transform="translate(501.808921 0)scale(0.996264)" xlink:href="#CMR17-61"/>
      <use transform="translate(601.197718 0)scale(0.996264)" xlink:href="#CMR17-48"/>
     </g>
    </g>
    <g id="line2d_23">
     <path d="M 208.163288 48.008082 
L 230.163288 48.008082 
" style="fill:none;stroke:#d95f02;stroke-dasharray:7.4,3.2;stroke-dashoffset:0;stroke-width:2;"/>
    </g>
    <g id="line2d_24"/>
    <g id="text_16">
     <!-- $C|B=0,Z=1$ -->
     <g style="fill:#262626;" transform="translate(238.963288 51.858082)scale(0.11 -0.11)">
      <use transform="scale(0.996264)" xlink:href="#CMMI12-67"/>
      <use transform="translate(76.946847 0)scale(0.996264)" xlink:href="#CMSY10-106"/>
      <use transform="translate(104.620931 0)scale(0.996264)" xlink:href="#CMMI12-66"/>
      <use transform="translate(211.430463 0)scale(0.996264)" xlink:href="#CMR17-61"/>
      <use transform="translate(310.819261 0)scale(0.996264)" xlink:href="#CMR17-48"/>
      <use transform="translate(356.509738 0)scale(0.996264)" xlink:href="#CMMI12-59"/>
      <use transform="translate(400.21132 0)scale(0.996264)" xlink:href="#CMMI12-90"/>
      <use transform="translate(501.808921 0)scale(0.996264)" xlink:href="#CMR17-61"/>
      <use transform="translate(601.197718 0)scale(0.996264)" xlink:href="#CMR17-49"/>
     </g>
    </g>
    <g id="line2d_25">
     <path d="M 208.163288 64.466986 
L 230.163288 64.466986 
" style="fill:none;stroke:#d95f02;stroke-dasharray:12.8,3.2,2,3.2;stroke-dashoffset:0;stroke-width:2;"/>
    </g>
    <g id="line2d_26"/>
    <g id="text_17">
     <!-- $C|B=0$ -->
     <g style="fill:#262626;" transform="translate(238.963288 68.316986)scale(0.11 -0.11)">
      <use transform="scale(0.996264)" xlink:href="#CMMI12-67"/>
      <use transform="translate(76.946847 0)scale(0.996264)" xlink:href="#CMSY10-106"/>
      <use transform="translate(104.620931 0)scale(0.996264)" xlink:href="#CMMI12-66"/>
      <use transform="translate(211.430463 0)scale(0.996264)" xlink:href="#CMR17-61"/>
      <use transform="translate(310.819261 0)scale(0.996264)" xlink:href="#CMR17-48"/>
     </g>
    </g>
   </g>
  </g>
 </g>
 <defs>
  <clipPath id="p8c69ca8bbe">
   <rect height="108.72" width="126.310909" x="44.82" y="17.28"/>
  </clipPath>
  <clipPath id="pd1fab9d243">
   <rect height="108.72" width="126.310909" x="196.393091" y="17.28"/>
  </clipPath>
 </defs>
</svg>
