<?xml version="1.0" encoding="utf-8" standalone="no"?>
<!DOCTYPE svg PUBLIC "-//W3C//DTD SVG 1.1//EN"
  "http://www.w3.org/Graphics/SVG/1.1/DTD/svg11.dtd">
<!-- Created with matplotlib (https://matplotlib.org/) -->
<svg height="144pt" version="1.1" viewBox="0 0 358.56 144" width="358.56pt" xmlns="http://www.w3.org/2000/svg" xmlns:xlink="http://www.w3.org/1999/xlink">
 <defs>
  <style type="text/css">
*{stroke-linecap:butt;stroke-linejoin:round;}
  </style>
 </defs>
 <g id="figure_1">
  <g id="patch_1">
   <path d="M 0 144 
L 358.56 144 
L 358.56 0 
L 0 0 
z
" style="fill:#ffffff;"/>
  </g>
  <g id="axes_1">
   <g id="patch_2">
    <path d="M 44.82 126 
L 171.130909 126 
L 171.130909 17.28 
L 44.82 17.28 
z
" style="fill:#ffffff;"/>
   </g>
   <g id="matplotlib.axis_1">
    <g id="xtick_1">
     <g id="line2d_1">
      <defs>
       <path d="M 0 0 
L 0 6 
" id="ma0bf45a2be" style="stroke:#262626;stroke-width:1.25;"/>
      </defs>
      <g>
       <use style="fill:#262626;stroke:#262626;stroke-width:1.25;" x="44.82" xlink:href="#ma0bf45a2be" y="126"/>
      </g>
     </g>
     <g id="text_1">
      <!-- 0 -->
      <defs>
       <path d="M 42 31.640625 
C 42 37.75 41.90625 48.125 37.703125 56.109375 
C 34 63.109375 28.09375 65.59375 22.90625 65.59375 
C 18.09375 65.59375 12 63.40625 8.203125 56.203125 
C 4.203125 48.71875 3.796875 39.4375 3.796875 31.640625 
C 3.796875 25.953125 3.90625 17.28125 7 9.671875 
C 11.296875 -0.609375 19 -2 22.90625 -2 
C 27.5 -2 34.5 -0.109375 38.59375 9.375 
C 41.59375 16.28125 42 24.359375 42 31.640625 
z
M 22.90625 -0.40625 
C 16.5 -0.40625 12.703125 5.078125 11.296875 12.6875 
C 10.203125 18.5625 10.203125 27.15625 10.203125 32.75 
C 10.203125 40.4375 10.203125 46.828125 11.5 52.921875 
C 13.40625 61.390625 19 64 22.90625 64 
C 27 64 32.296875 61.296875 34.203125 53.125 
C 35.5 47.4375 35.59375 40.734375 35.59375 32.75 
C 35.59375 26.25 35.59375 18.265625 34.40625 12.375 
C 32.296875 1.484375 26.40625 -0.40625 22.90625 -0.40625 
z
" id="CMR17-48"/>
      </defs>
      <g style="fill:#262626;" transform="translate(42.080266 143.110347)scale(0.11 -0.11)">
       <use transform="scale(0.996264)" xlink:href="#CMR17-48"/>
      </g>
     </g>
    </g>
    <g id="xtick_2">
     <g id="line2d_2">
      <g>
       <use style="fill:#262626;stroke:#262626;stroke-width:1.25;" x="57.451091" xlink:href="#ma0bf45a2be" y="126"/>
      </g>
     </g>
     <g id="text_2">
      <!-- $\tau_0^C$ -->
      <defs>
       <path d="M 28.703125 37.625 
L 45.296875 37.625 
C 46.59375 37.625 49.90625 37.625 49.90625 40.8125 
C 49.90625 43 48 43 46.203125 43 
L 18.703125 43 
C 16.40625 43 13 43 8.40625 38.125 
C 5.796875 35.234375 2.59375 29.953125 2.59375 29.359375 
C 2.59375 28.765625 3.09375 28.5625 3.703125 28.5625 
C 4.40625 28.5625 4.5 28.859375 5 29.453125 
C 10.203125 37.625 15.40625 37.625 17.90625 37.625 
L 26.203125 37.625 
L 15.796875 3.484375 
C 15.296875 1.984375 15.296875 1.78125 15.296875 1.484375 
C 15.296875 0.390625 16 -1 18 -1 
C 21.09375 -1 21.59375 1.6875 21.90625 3.171875 
z
" id="CMMI12-28"/>
       <path d="M 74.703125 69.109375 
C 74.703125 70 74 70 73.796875 70 
C 73.59375 70 73.203125 70 72.40625 69 
L 65.5 60.65625 
C 62 66.625 56.5 70 49 70 
C 27.40625 70 5 48.25 5 24.921875 
C 5 8.328125 16.703125 -2 31.296875 -2 
C 39.296875 -2 46.296875 1.375 52.09375 6.25 
C 60.796875 13.484375 63.40625 23.140625 63.40625 23.921875 
C 63.40625 24.8125 62.59375 24.8125 62.296875 24.8125 
C 61.40625 24.8125 61.296875 24.21875 61.09375 23.8125 
C 56.5 8.34375 43 0.890625 33 0.890625 
C 22.40625 0.890625 13.203125 7.640625 13.203125 21.734375 
C 13.203125 24.921875 14.203125 42.1875 25.5 55.1875 
C 31 61.546875 40.40625 67.109375 49.90625 67.109375 
C 60.90625 67.109375 65.796875 58.078125 65.796875 47.9375 
C 65.796875 45.359375 65.5 43.1875 65.5 42.78125 
C 65.5 41.890625 66.5 41.890625 66.796875 41.890625 
C 67.90625 41.890625 68 41.984375 68.40625 43.765625 
z
" id="CMMI12-67"/>
      </defs>
      <g style="fill:#262626;" transform="translate(51.292636 145.308114)scale(0.11 -0.11)">
       <use transform="translate(0 24.740171)scale(0.996264)" xlink:href="#CMMI12-28"/>
       <use transform="translate(53.491165 60.89381)scale(0.697382)" xlink:href="#CMMI12-67"/>
       <use transform="translate(42.363841 0)scale(0.697382)" xlink:href="#CMR17-48"/>
      </g>
     </g>
    </g>
    <g id="xtick_3">
     <g id="line2d_3">
      <g>
       <use style="fill:#262626;stroke:#262626;stroke-width:1.25;" x="86.923636" xlink:href="#ma0bf45a2be" y="126"/>
      </g>
     </g>
     <g id="text_3">
      <!-- $\tau_1^C$ -->
      <defs>
       <path d="M 26.59375 63.40625 
C 26.59375 65.5 26.5 65.5 25.09375 65.5 
C 21.203125 61.1875 15.296875 59.796875 9.703125 59.796875 
C 9.40625 59.796875 8.90625 59.796875 8.796875 59.5 
C 8.703125 59.296875 8.703125 59.09375 8.703125 57 
C 11.796875 57 17 57.59375 21 59.984375 
L 21 7.203125 
C 21 3.6875 20.796875 2.5 12.203125 2.5 
L 9.203125 2.5 
L 9.203125 0 
C 14 0 19 0 23.796875 0 
C 28.59375 0 33.59375 0 38.40625 0 
L 38.40625 2.5 
L 35.40625 2.5 
C 26.796875 2.5 26.59375 3.59375 26.59375 7.15625 
z
" id="CMR17-49"/>
      </defs>
      <g style="fill:#262626;" transform="translate(80.765181 145.308114)scale(0.11 -0.11)">
       <use transform="translate(0 24.740171)scale(0.996264)" xlink:href="#CMMI12-28"/>
       <use transform="translate(53.491165 60.89381)scale(0.697382)" xlink:href="#CMMI12-67"/>
       <use transform="translate(42.363841 0)scale(0.697382)" xlink:href="#CMR17-49"/>
      </g>
     </g>
    </g>
    <g id="xtick_4">
     <g id="line2d_4">
      <g>
       <use style="fill:#262626;stroke:#262626;stroke-width:1.25;" x="171.130909" xlink:href="#ma0bf45a2be" y="126"/>
      </g>
     </g>
     <g id="text_4">
      <!-- 30 -->
      <defs>
       <path d="M 22.09375 33.703125 
C 31 33.703125 34.90625 25.96875 34.90625 17.03125 
C 34.90625 5 28.5 0.390625 22.703125 0.390625 
C 17.40625 0.390625 8.796875 3.03125 6.09375 10.828125 
C 6.59375 10.625 7.09375 10.625 7.59375 10.625 
C 10 10.625 11.796875 12.21875 11.796875 14.8125 
C 11.796875 17.703125 9.59375 19 7.59375 19 
C 5.90625 19 3.296875 18.203125 3.296875 14.46875 
C 3.296875 5.234375 12.296875 -2 22.90625 -2 
C 34 -2 42.5 6.71875 42.5 16.953125 
C 42.5 26.671875 34.5 33.703125 25 34.796875 
C 32.59375 36.375 39.90625 43.0625 39.90625 52.015625 
C 39.90625 59.6875 32 65.296875 23 65.296875 
C 13.90625 65.296875 5.90625 59.828125 5.90625 52.015625 
C 5.90625 48.59375 8.5 48 9.796875 48 
C 11.90625 48 13.703125 49.296875 13.703125 51.890625 
C 13.703125 54.46875 11.90625 55.765625 9.796875 55.765625 
C 9.40625 55.765625 8.90625 55.765625 8.5 55.578125 
C 11.40625 61.859375 19.296875 63 22.796875 63 
C 26.296875 63 32.90625 61.328125 32.90625 51.875 
C 32.90625 49.109375 32.5 44.1875 29.09375 39.84375 
C 26.09375 36 22.703125 36 19.40625 35.6875 
C 18.90625 35.6875 16.59375 35.453125 16.203125 35.453125 
C 15.5 35.359375 15.09375 35.265625 15.09375 34.5 
C 15.09375 33.796875 15.203125 33.703125 17.203125 33.703125 
z
" id="CMR17-51"/>
      </defs>
      <g style="fill:#262626;" transform="translate(165.651442 143.110347)scale(0.11 -0.11)">
       <use transform="scale(0.996264)" xlink:href="#CMR17-51"/>
       <use transform="translate(45.690477 0)scale(0.996264)" xlink:href="#CMR17-48"/>
      </g>
     </g>
    </g>
    <g id="text_5">
     <!-- Time (ms) -->
     <defs>
      <path d="M 62.203125 67.59375 
L 4.5 67.59375 
L 2.796875 45.59375 
L 4.59375 45.59375 
C 5.90625 62.125 7.296875 65 22.703125 65 
C 24.5 65 27.40625 65 28.203125 64.90625 
C 30.09375 64.609375 30.09375 63.40625 30.09375 61.125 
L 30.09375 7.171875 
C 30.09375 3.59375 29.796875 2.5 21.5 2.5 
L 18.703125 2.5 
L 18.703125 0 
C 23.5 0 28.5 0 33.40625 0 
C 38.296875 0 43.296875 0 48.09375 0 
L 48.09375 2.5 
L 45.296875 2.5 
C 37 2.5 36.703125 3.59375 36.703125 7.171875 
L 36.703125 61.125 
C 36.703125 63.3125 36.703125 64.515625 38.5 64.90625 
C 39.296875 65 42.203125 65 44 65 
C 59.296875 65 60.796875 62.125 62.09375 45.59375 
L 63.90625 45.59375 
z
" id="CMR17-84"/>
      <path d="M 15.5 61.078125 
C 15.5 63.265625 13.703125 65.15625 11.40625 65.15625 
C 9.203125 65.15625 7.296875 63.375 7.296875 61.078125 
C 7.296875 58.890625 9.09375 57 11.40625 57 
C 13.59375 57 15.5 58.796875 15.5 61.078125 
z
M 3.796875 42.28125 
L 3.796875 39.703125 
C 9.40625 39.703125 10.203125 39.09375 10.203125 34.328125 
L 10.203125 6.671875 
C 10.203125 2.875 9.796875 2.390625 3.40625 2.390625 
L 3.40625 -0.203125 
C 5.796875 0 10.09375 0 12.59375 0 
C 15 0 19.09375 0 21.40625 -0.203125 
L 21.40625 2.390625 
C 15.5 2.390625 15.296875 2.984375 15.296875 6.5625 
L 15.296875 43.375 
z
" id="CMR17-105"/>
      <path d="M 67.59375 30.203125 
C 67.59375 35.1875 66.703125 43.59375 54.796875 43.59375 
C 48 43.59375 43.296875 39 41.5 33.609375 
L 41.40625 33.609375 
C 40.203125 41.8125 34.296875 43.59375 28.703125 43.59375 
C 20.796875 43.59375 16.703125 37.5 15.203125 33.5 
L 15.09375 33.5 
L 15.09375 43.59375 
L 3.296875 42.5 
L 3.296875 39.90625 
C 9.203125 39.90625 10.09375 39.296875 10.09375 34.5 
L 10.09375 6.6875 
C 10.09375 2.875 9.703125 2.390625 3.296875 2.390625 
L 3.296875 -0.203125 
C 5.703125 0 10.09375 0 12.703125 0 
C 15.296875 0 19.796875 0 22.203125 -0.203125 
L 22.203125 2.390625 
C 15.796875 2.390625 15.40625 2.78125 15.40625 6.6875 
L 15.40625 25.90625 
C 15.40625 35.109375 21 42 28 42 
C 35.40625 42 36.203125 35.40625 36.203125 30.59375 
L 36.203125 6.6875 
C 36.203125 2.875 35.796875 2.390625 29.40625 2.390625 
L 29.40625 -0.203125 
C 31.796875 0 36.203125 0 38.796875 0 
C 41.40625 0 45.90625 0 48.296875 -0.203125 
L 48.296875 2.390625 
C 41.90625 2.390625 41.5 2.78125 41.5 6.6875 
L 41.5 25.90625 
C 41.5 35.109375 47.09375 42 54.09375 42 
C 61.5 42 62.296875 35.40625 62.296875 30.59375 
L 62.296875 6.6875 
C 62.296875 2.875 61.90625 2.390625 55.5 2.390625 
L 55.5 -0.203125 
C 57.90625 0 62.296875 0 64.90625 0 
C 67.5 0 72 0 74.40625 -0.203125 
L 74.40625 2.390625 
C 68 2.390625 67.59375 2.78125 67.59375 6.6875 
z
" id="CMR17-109"/>
      <path d="M 38.09375 23 
C 38.5 23.40625 38.5 23.609375 38.5 24.625 
C 38.5 34.96875 33.09375 44 21.703125 44 
C 11.09375 44 2.703125 33.890625 2.703125 21.609375 
C 2.703125 8.609375 12.203125 -1 22.796875 -1 
C 34 -1 38.40625 9.484375 38.40625 11.5625 
C 38.40625 12.25 37.796875 12.25 37.59375 12.25 
C 36.90625 12.25 36.796875 12.046875 36.40625 10.875 
C 34.203125 4.140625 28.703125 0.796875 23.5 0.796875 
C 19.203125 0.796875 14.90625 3.171875 12.203125 7.5 
C 9.09375 12.546875 9.09375 18.375 9.09375 23 
z
M 9.203125 24.5 
C 9.90625 39.140625 17.59375 42.40625 21.59375 42.40625 
C 28.40625 42.40625 33 35.890625 33.09375 24.5 
z
" id="CMR17-101"/>
      <path d="M 30.59375 -24.390625 
C 30.59375 -24.296875 30.59375 -24.09375 30.296875 -23.796875 
C 25.703125 -19.125 13.40625 -6.359375 13.40625 24.703125 
C 13.40625 55.765625 25.5 68.421875 30.40625 73.390625 
C 30.40625 73.5 30.59375 73.703125 30.59375 74 
C 30.59375 74.296875 30.296875 74.5 29.90625 74.5 
C 28.796875 74.5 20.296875 67.125 15.40625 56.15625 
C 10.40625 45.109375 9 34.359375 9 24.8125 
C 9 17.625 9.703125 5.484375 15.703125 -7.359375 
C 20.5 -17.734375 28.703125 -25 29.90625 -25 
C 30.40625 -25 30.59375 -24.796875 30.59375 -24.390625 
z
" id="CMR17-40"/>
      <path d="M 30.90625 42.140625 
C 30.90625 43.953125 30.796875 44.046875 30.203125 44.046875 
C 29.796875 44.046875 29.703125 43.953125 28.5 42.453125 
C 28.203125 42.046875 27.296875 41.03125 27 40.640625 
C 23.796875 44.046875 19.296875 44.046875 17.59375 44.046875 
C 6.5 44.046875 2.5 38.234375 2.5 32.4375 
C 2.5 23.40625 12.703125 21.328125 15.59375 20.703125 
C 21.90625 19.421875 24.09375 19.015625 26.203125 17.203125 
C 27.5 16.015625 29.703125 13.8125 29.703125 10.21875 
C 29.703125 6 27.296875 0.59375 18.09375 0.59375 
C 9.40625 0.59375 6.296875 7.1875 4.5 15.953125 
C 4.203125 17.34375 4.203125 17.453125 3.40625 17.453125 
C 2.59375 17.453125 2.5 17.34375 2.5 15.359375 
L 2.5 0.984375 
C 2.5 -0.796875 2.59375 -0.90625 3.203125 -0.90625 
C 3.703125 -0.90625 3.796875 -0.796875 4.296875 0 
C 4.90625 0.890625 6.40625 3.296875 7 4.3125 
C 9 1.609375 12.5 -1 18.09375 -1 
C 28 -1 33.296875 4.421875 33.296875 12.25 
C 33.296875 17.375 30.59375 20.078125 29.296875 21.28125 
C 26.296875 24.390625 22.796875 25.09375 18.59375 25.890625 
C 13.09375 27.109375 6.09375 28.515625 6.09375 34.640625 
C 6.09375 37.234375 7.5 42.765625 17.59375 42.765625 
C 28.296875 42.765625 28.90625 32.71875 29.09375 29.5 
C 29.203125 29 29.703125 28.890625 30 28.890625 
C 30.90625 28.890625 30.90625 29.203125 30.90625 30.90625 
z
" id="CMR17-115"/>
      <path d="M 26.296875 24.703125 
C 26.296875 31.875 25.59375 44.015625 19.59375 56.859375 
C 14.796875 67.234375 6.59375 74.5 5.40625 74.5 
C 5.09375 74.5 4.703125 74.390625 4.703125 73.890625 
C 4.703125 73.703125 4.796875 73.59375 4.90625 73.390625 
C 9.703125 68.40625 21.90625 55.75 21.90625 24.75 
C 21.90625 -6.359375 9.796875 -19.015625 4.90625 -24.015625 
C 4.796875 -24.203125 4.703125 -24.3125 4.703125 -24.5 
C 4.703125 -25 5.09375 -25 5.40625 -25 
C 6.5 -25 15 -17.625 19.90625 -6.65625 
C 24.90625 4.390625 26.296875 15.140625 26.296875 24.703125 
z
" id="CMR17-41"/>
     </defs>
     <g style="fill:#262626;" transform="translate(80.95415 160.405385)scale(0.12 -0.12)">
      <use transform="scale(0.996264)" xlink:href="#CMR17-84"/>
      <use transform="translate(66.509881 0)scale(0.996264)" xlink:href="#CMR17-105"/>
      <use transform="translate(91.380939 0)scale(0.996264)" xlink:href="#CMR17-109"/>
      <use transform="translate(168.300529 0)scale(0.996264)" xlink:href="#CMR17-101"/>
      <use transform="translate(238.862156 0)scale(0.996264)" xlink:href="#CMR17-40"/>
      <use transform="translate(274.142924 0)scale(0.996264)" xlink:href="#CMR17-109"/>
      <use transform="translate(351.062513 0)scale(0.996264)" xlink:href="#CMR17-115"/>
      <use transform="translate(386.863851 0)scale(0.996264)" xlink:href="#CMR17-41"/>
     </g>
    </g>
   </g>
   <g id="matplotlib.axis_2">
    <g id="ytick_1"/>
    <g id="ytick_2"/>
    <g id="ytick_3"/>
    <g id="text_6">
     <!-- Density -->
     <defs>
      <path d="M 5.203125 68 
L 5.203125 65.40625 
C 12.09375 65.40625 13.203125 65.40625 13.203125 60.9375 
L 13.203125 7.0625 
C 13.203125 2.59375 12.09375 2.59375 5.203125 2.59375 
L 5.203125 0 
L 37 0 
C 53.09375 0 66 14.734375 66 33.453125 
C 66 52.28125 53.296875 68 37 68 
z
M 23.796875 2.59375 
C 19.796875 2.59375 19.59375 3.078125 19.59375 6.46875 
L 19.59375 61.53125 
C 19.59375 64.921875 19.796875 65.40625 23.796875 65.40625 
L 35 65.40625 
C 43.296875 65.40625 58.59375 60.53125 58.59375 33.453125 
C 58.59375 19.40625 54.5 13.734375 52.59375 11.046875 
C 50.203125 7.96875 44.5 2.59375 35 2.59375 
z
" id="CMR17-68"/>
      <path d="M 41.5 30.203125 
C 41.5 35.296875 40.5 43.59375 28.703125 43.59375 
C 20.796875 43.59375 16.703125 37.5 15.203125 33.5 
L 15.09375 33.5 
L 15.09375 43.59375 
L 3.296875 42.5 
L 3.296875 39.90625 
C 9.203125 39.90625 10.09375 39.296875 10.09375 34.5 
L 10.09375 6.6875 
C 10.09375 2.875 9.703125 2.390625 3.296875 2.390625 
L 3.296875 -0.203125 
C 5.703125 0 10.09375 0 12.703125 0 
C 15.296875 0 19.796875 0 22.203125 -0.203125 
L 22.203125 2.390625 
C 15.796875 2.390625 15.40625 2.78125 15.40625 6.6875 
L 15.40625 25.90625 
C 15.40625 35.109375 21 42 28 42 
C 35.40625 42 36.203125 35.40625 36.203125 30.59375 
L 36.203125 6.6875 
C 36.203125 2.875 35.796875 2.390625 29.40625 2.390625 
L 29.40625 -0.203125 
C 31.796875 0 36.203125 0 38.796875 0 
C 41.40625 0 45.90625 0 48.296875 -0.203125 
L 48.296875 2.390625 
C 41.90625 2.390625 41.5 2.78125 41.5 6.6875 
z
" id="CMR17-110"/>
      <path d="M 15.09375 40 
L 29.09375 40 
L 29.09375 42.578125 
L 15.09375 42.578125 
L 15.09375 61 
L 13.296875 61 
C 13.09375 50.703125 9.59375 41.6875 1.09375 41.6875 
L 1.09375 40 
L 9.796875 40 
L 9.796875 12.046875 
C 9.796875 10.15625 9.796875 -1 21.40625 -1 
C 27.296875 -1 30.703125 4.78125 30.703125 12.140625 
L 30.703125 17.8125 
L 28.90625 17.8125 
L 28.90625 12.234375 
C 28.90625 5.375 26.203125 0.796875 22 0.796875 
C 19.09375 0.796875 15.09375 2.78125 15.09375 11.84375 
z
" id="CMR17-116"/>
      <path d="M 39 34.328125 
C 41.5 40.40625 46 40.40625 47.40625 40.40625 
L 47.40625 43 
C 45.5 43 43 43 41.09375 43 
C 39 43 35.703125 43 33.703125 43.09375 
L 33.703125 40.5 
C 37.5 40.203125 37.59375 37.40625 37.59375 36.609375 
C 37.59375 35.625 37.40625 35.125 36.90625 33.921875 
L 26 7.015625 
L 14.09375 36.03125 
C 13.59375 37.21875 13.59375 37.90625 13.59375 38.015625 
C 13.59375 40.203125 15.90625 40.40625 18.296875 40.40625 
L 18.296875 43.09375 
C 15.90625 43 11.59375 43 9.09375 43 
C 6.40625 43 3.203125 43 1 43.09375 
L 1 40.40625 
C 6.40625 40.40625 7 39.90625 8.296875 36.71875 
L 23.203125 0.234375 
C 18.703125 -11.53125 16.09375 -18.40625 9.796875 -18.40625 
C 8.703125 -18.40625 6.203125 -18.109375 4.40625 -16.3125 
C 6.703125 -16.109375 7.703125 -14.71875 7.703125 -13.015625 
C 7.703125 -11.328125 6.5 -9.828125 4.5 -9.828125 
C 2.296875 -9.828125 1.203125 -11.328125 1.203125 -13.125 
C 1.203125 -17.109375 5.296875 -20 9.796875 -20 
C 15.59375 -20 19.203125 -14.40625 21.203125 -9.4375 
z
" id="CMR17-121"/>
     </defs>
     <g style="fill:#262626;" transform="translate(38.495404 91.100159)rotate(-90)scale(0.12 -0.12)">
      <use transform="scale(0.996264)" xlink:href="#CMR17-68"/>
      <use transform="translate(70.393556 0)scale(0.996264)" xlink:href="#CMR17-101"/>
      <use transform="translate(110.879216 0)scale(0.996264)" xlink:href="#CMR17-110"/>
      <use transform="translate(161.774586 0)scale(0.996264)" xlink:href="#CMR17-115"/>
      <use transform="translate(197.575924 0)scale(0.996264)" xlink:href="#CMR17-105"/>
      <use transform="translate(222.446982 0)scale(0.996264)" xlink:href="#CMR17-116"/>
      <use transform="translate(255.125296 0)scale(0.996264)" xlink:href="#CMR17-121"/>
     </g>
    </g>
   </g>
   <g id="line2d_5">
    <path clip-path="url(#pc8bc2e73a0)" d="M -1 121.058182 
L 41.595848 120.983513 
L 42.354472 120.760814 
L 42.860221 120.414762 
L 43.365971 119.817315 
L 43.87172 118.914025 
L 44.630344 117.033118 
L 46.147592 112.985125 
L 46.906216 111.7002 
L 47.411966 111.205573 
L 47.917715 110.951816 
L 48.676339 110.872635 
L 51.205086 110.945925 
L 52.975209 110.873025 
L 54.492457 110.83341 
L 55.251081 110.490073 
L 55.75683 110.026324 
L 56.26258 109.302466 
L 56.768329 108.232139 
L 57.274079 106.712457 
L 57.779828 104.645245 
L 58.538452 100.382552 
L 59.297076 94.734562 
L 60.56145 83.050041 
L 63.343071 56.282474 
L 64.101695 50.663977 
L 64.860319 46.582885 
L 65.366069 44.791132 
L 65.871818 43.691963 
L 66.377568 43.202137 
L 66.630442 43.159827 
L 67.136192 43.436795 
L 67.641941 44.147008 
L 68.14769 45.239066 
L 68.906314 47.513524 
L 69.664939 50.518594 
L 70.676437 55.632605 
L 71.940811 63.369684 
L 74.216683 77.730588 
L 75.481057 83.887933 
L 77.504054 92.545169 
L 78.515553 95.791501 
L 79.527052 98.240894 
L 81.0443 101.263277 
L 82.308673 103.256971 
L 83.825921 105.148424 
L 85.848919 107.39724 
L 90.147789 111.412768 
L 90.906413 111.718779 
L 93.43516 112.392438 
L 94.952408 113.036872 
L 96.469656 113.321222 
L 98.492654 113.785853 
L 101.274275 114.38977 
L 102.538649 114.326008 
L 103.550147 114.334625 
L 104.308771 114.537586 
L 106.584644 115.373106 
L 111.895012 116.176047 
L 113.665135 116.752207 
L 114.423759 116.748084 
L 116.446757 116.504421 
L 117.458256 116.685397 
L 120.239877 117.311489 
L 121.757125 117.431481 
L 124.791622 117.356182 
L 126.30887 117.414342 
L 128.331867 117.51968 
L 131.619238 117.197042 
L 133.389361 117.048061 
L 134.906609 117.187037 
L 137.688231 117.447957 
L 138.952604 117.356236 
L 140.469853 116.93853 
L 141.481351 116.760161 
L 142.49285 116.820212 
L 146.285971 117.3295 
L 148.308968 117.197125 
L 150.079091 117.110642 
L 152.607838 117.134955 
L 156.148084 116.706294 
L 160.699828 116.607593 
L 162.722826 116.860992 
L 164.998698 116.759898 
L 167.021695 116.691305 
L 168.286069 116.91573 
L 169.297568 117.318236 
L 170.056192 117.821299 
L 171.06769 118.819942 
L 172.332064 120.154983 
L 173.090688 120.671324 
L 173.849312 120.929892 
L 175.113686 121.047056 
L 181.182678 121.058182 
L 234.286364 121.058182 
L 234.286364 121.058182 
" style="fill:none;stroke:#1b9e77;stroke-linecap:round;stroke-width:2;"/>
   </g>
   <g id="line2d_6">
    <path clip-path="url(#pc8bc2e73a0)" d="M -1 121.058182 
L 41.595848 120.978959 
L 42.101597 120.784396 
L 42.607346 120.247778 
L 43.113096 118.993305 
L 43.618845 116.501511 
L 44.124595 112.281971 
L 44.630344 106.157482 
L 45.641843 89.939196 
L 47.411966 61.545686 
L 48.676339 44.238843 
L 49.434963 36.248642 
L 50.193587 30.731014 
L 50.952211 27.114028 
L 51.710835 24.552511 
L 52.469459 22.832438 
L 52.975209 22.284864 
L 53.228084 22.221818 
L 53.480958 22.310633 
L 53.733833 22.562139 
L 54.239582 23.6138 
L 54.745332 25.508281 
L 55.251081 28.314278 
L 56.009705 34.042694 
L 57.779828 50.50885 
L 60.814324 76.811732 
L 61.825823 83.500149 
L 63.343071 91.976314 
L 64.101695 95.022626 
L 64.860319 96.878224 
L 66.377568 99.856818 
L 67.389066 102.009405 
L 68.14769 103.107821 
L 69.412064 104.717854 
L 70.170688 106.214519 
L 71.435061 109.548062 
L 72.193686 111.271077 
L 72.699435 111.936651 
L 73.205184 112.150667 
L 73.710934 112.012158 
L 74.722432 111.535658 
L 75.228182 111.583316 
L 76.74543 112.180034 
L 77.251179 111.959565 
L 78.009803 111.504526 
L 78.515553 111.516714 
L 79.021302 111.886716 
L 80.032801 112.783423 
L 80.53855 112.78538 
L 81.0443 112.451504 
L 81.802924 111.839495 
L 82.308673 111.708009 
L 82.814423 111.901225 
L 83.573047 112.626492 
L 84.584545 113.702216 
L 85.34317 114.210088 
L 86.354668 114.809348 
L 87.113292 115.673688 
L 88.124791 116.951769 
L 88.630541 117.277339 
L 89.13629 117.336686 
L 89.894914 117.123594 
L 91.159287 116.732268 
L 91.917912 116.75009 
L 92.92941 116.798712 
L 93.43516 116.558256 
L 94.699533 115.652564 
L 95.205283 115.730166 
L 95.711032 116.138497 
L 96.722531 117.099565 
L 97.22828 117.316227 
L 98.239779 117.383037 
L 101.274275 117.645097 
L 102.285774 118.204022 
L 103.044398 118.539276 
L 103.803022 118.584359 
L 105.573145 118.53145 
L 106.584644 118.49284 
L 107.596143 118.211977 
L 109.872015 117.196845 
L 112.653636 117.250186 
L 113.41226 117.649195 
L 114.170885 118.081859 
L 114.676634 118.195068 
L 116.193882 118.185388 
L 116.952506 118.591482 
L 117.71113 118.964414 
L 118.469754 119.005424 
L 119.481253 118.967871 
L 120.998501 119.098295 
L 121.757125 118.877489 
L 122.515749 118.401188 
L 124.285872 117.035822 
L 124.791622 117.052634 
L 125.550246 117.42761 
L 126.30887 117.779526 
L 126.814619 117.828272 
L 127.573243 117.647986 
L 128.584742 117.364057 
L 129.343366 117.388248 
L 130.10199 117.648721 
L 132.124988 118.622697 
L 132.883612 118.59141 
L 134.147985 118.493936 
L 135.159484 118.492083 
L 135.918108 118.281783 
L 136.929607 117.95121 
L 137.435356 117.934544 
L 137.941106 118.073234 
L 138.69973 118.543723 
L 139.711229 119.21883 
L 140.216978 119.324361 
L 140.722727 119.220355 
L 142.239975 118.601442 
L 142.9986 118.676392 
L 144.262973 118.984543 
L 145.021597 118.886146 
L 146.538845 118.498558 
L 147.297469 118.531346 
L 148.308968 118.805405 
L 150.58484 119.731176 
L 151.596339 119.62861 
L 153.113587 119.429933 
L 154.630835 119.419198 
L 155.389459 119.653776 
L 157.159582 120.485222 
L 157.918206 120.50383 
L 158.929705 120.175392 
L 159.941204 119.879516 
L 160.699828 119.886514 
L 162.722826 120.055686 
L 164.745823 120.010134 
L 165.504447 119.70601 
L 166.768821 119.144571 
L 167.27457 119.153854 
L 168.033194 119.464035 
L 169.803317 120.36554 
L 171.06769 120.642882 
L 174.102187 121.04512 
L 179.66543 121.058182 
L 234.286364 121.058182 
L 234.286364 121.058182 
" style="fill:none;stroke:#1b9e77;stroke-dasharray:7.4,3.2;stroke-dashoffset:0;stroke-width:2;"/>
   </g>
   <g id="patch_3">
    <path d="M 44.82 126 
L 44.82 17.28 
" style="fill:none;stroke:#262626;stroke-linecap:square;stroke-linejoin:miter;stroke-width:1.25;"/>
   </g>
   <g id="patch_4">
    <path d="M 44.82 126 
L 171.130909 126 
" style="fill:none;stroke:#262626;stroke-linecap:square;stroke-linejoin:miter;stroke-width:1.25;"/>
   </g>
   <g id="legend_1">
    <g id="line2d_7">
     <path d="M 57.233263 31.549178 
L 79.233263 31.549178 
" style="fill:none;stroke:#1b9e77;stroke-linecap:round;stroke-width:2;"/>
    </g>
    <g id="line2d_8"/>
    <g id="text_7">
     <!-- $C|A=1,Z=0$ -->
     <defs>
      <path d="M 15.90625 71.40625 
C 15.90625 73.203125 15.90625 75 13.90625 75 
C 11.90625 75 11.90625 73.203125 11.90625 71.40625 
L 11.90625 -21.40625 
C 11.90625 -23.203125 11.90625 -25 13.90625 -25 
C 15.90625 -25 15.90625 -23.203125 15.90625 -21.40625 
z
" id="CMSY10-106"/>
      <path d="M 17 10.796875 
C 13.5 4.90625 10.09375 2.90625 5.296875 2.90625 
C 4.203125 2.8125 3.40625 2.8125 3.40625 0.90625 
C 3.40625 0.375 3.90625 0 4.59375 0 
C 6.40625 0 10.90625 0 12.703125 0 
C 15.59375 0 18.796875 0 21.59375 0 
C 22.203125 0 23.40625 0 23.40625 1.90625 
C 23.40625 2.8125 22.59375 2.90625 22 2.90625 
C 19.703125 2.90625 17.796875 3.6875 17.796875 6.0625 
C 17.796875 7.4375 18.40625 8.53125 19.703125 10.703125 
L 27.296875 23.109375 
L 52.796875 23.109375 
C 52.90625 22.234375 52.90625 21.453125 53 20.5625 
C 53.296875 18 54.5 7.734375 54.5 5.875 
C 54.5 2.90625 49.40625 2.90625 47.796875 2.90625 
C 46.703125 2.90625 45.59375 2.90625 45.59375 1.09375 
C 45.59375 0 46.5 0 47.09375 0 
C 48.796875 0 50.796875 0 52.5 0 
L 58.203125 0 
C 64.296875 0 68.703125 0 68.796875 0 
C 69.5 0 70.59375 0 70.59375 1.90625 
C 70.59375 2.90625 69.703125 2.90625 68.203125 2.90625 
C 62.703125 2.90625 62.59375 3.8125 62.296875 6.78125 
L 56.203125 68.8125 
C 56 70.796875 55.59375 71 54.5 71 
C 53.5 71 52.90625 70.796875 52 69.296875 
z
M 29 26 
L 49.09375 59.671875 
L 52.5 26 
z
" id="CMMI12-65"/>
      <path d="M 64.296875 31.515625 
C 65.796875 31.515625 67.296875 31.515625 67.296875 33.203125 
C 67.296875 35 65.59375 35 63.90625 35 
L 8 35 
C 6.296875 35 4.59375 35 4.59375 33.203125 
C 4.59375 31.515625 6.09375 31.515625 7.59375 31.515625 
z
M 63.90625 14 
C 65.59375 14 67.296875 14 67.296875 15.796875 
C 67.296875 17.484375 65.796875 17.484375 64.296875 17.484375 
L 7.59375 17.484375 
C 6.09375 17.484375 4.59375 17.484375 4.59375 15.796875 
C 4.59375 14 6.296875 14 8 14 
z
" id="CMR17-61"/>
      <path d="M 19.5 -0.484375 
C 19.5 5.359375 17.59375 9.671875 13.5 9.671875 
C 10.296875 9.671875 8.703125 7.078125 8.703125 4.890625 
C 8.703125 2.6875 10.203125 0 13.59375 0 
C 14.90625 0 16 0.40625 16.90625 1.296875 
C 17.09375 1.5 17.203125 1.5 17.296875 1.5 
C 17.5 1.5 17.5 0.078125 17.5 -0.421875 
C 17.5 -3.75 16.90625 -10.296875 11.09375 -16.875 
C 10 -18.078125 10 -18.28125 10 -18.484375 
C 10 -19 10.5 -19.5 11 -19.5 
C 11.796875 -19.5 19.5 -12.046875 19.5 -0.484375 
z
" id="CMMI12-59"/>
      <path d="M 70 64.90625 
C 70.59375 65.609375 71.09375 66.203125 71.09375 67.203125 
C 71.09375 67.90625 71 68 68.703125 68 
L 27.40625 68 
C 25.09375 68 25 67.90625 24.40625 66.109375 
L 18.90625 48.1875 
C 18.59375 47.1875 18.59375 46.984375 18.59375 46.796875 
C 18.59375 46.390625 18.90625 45.796875 19.59375 45.796875 
C 20.40625 45.796875 20.59375 46.1875 21 47.484375 
C 24.703125 58.234375 29.59375 65.109375 45.40625 65.109375 
L 61.796875 65.109375 
L 7 3.375 
C 6.09375 2.296875 5.703125 1.890625 5.703125 0.796875 
C 5.703125 0 6.203125 0 8.09375 0 
L 50.796875 0 
C 53.09375 0 53.203125 0.09375 53.796875 1.890625 
L 60.796875 23.890625 
C 60.90625 24.1875 61.09375 24.890625 61.09375 25.28125 
C 61.09375 25.78125 60.703125 26.28125 60.09375 26.28125 
C 59.296875 26.28125 59.203125 26.1875 58.40625 23.6875 
C 54.203125 10.859375 49.796875 3.09375 32.40625 3.09375 
L 15.09375 3.09375 
z
" id="CMMI12-90"/>
     </defs>
     <g style="fill:#262626;" transform="translate(88.033263 35.399178)scale(0.11 -0.11)">
      <use transform="scale(0.996264)" xlink:href="#CMMI12-67"/>
      <use transform="translate(76.946847 0)scale(0.996264)" xlink:href="#CMSY10-106"/>
      <use transform="translate(104.620931 0)scale(0.996264)" xlink:href="#CMMI12-65"/>
      <use transform="translate(205.422825 0)scale(0.996264)" xlink:href="#CMR17-61"/>
      <use transform="translate(304.811623 0)scale(0.996264)" xlink:href="#CMR17-49"/>
      <use transform="translate(350.5021 0)scale(0.996264)" xlink:href="#CMMI12-59"/>
      <use transform="translate(394.203682 0)scale(0.996264)" xlink:href="#CMMI12-90"/>
      <use transform="translate(495.801283 0)scale(0.996264)" xlink:href="#CMR17-61"/>
      <use transform="translate(595.19008 0)scale(0.996264)" xlink:href="#CMR17-48"/>
     </g>
    </g>
    <g id="line2d_9">
     <path d="M 57.233263 48.008082 
L 79.233263 48.008082 
" style="fill:none;stroke:#1b9e77;stroke-dasharray:7.4,3.2;stroke-dashoffset:0;stroke-width:2;"/>
    </g>
    <g id="line2d_10"/>
    <g id="text_8">
     <!-- $C|A=0,Z=1$ -->
     <g style="fill:#262626;" transform="translate(88.033263 51.858082)scale(0.11 -0.11)">
      <use transform="scale(0.996264)" xlink:href="#CMMI12-67"/>
      <use transform="translate(76.946847 0)scale(0.996264)" xlink:href="#CMSY10-106"/>
      <use transform="translate(104.620931 0)scale(0.996264)" xlink:href="#CMMI12-65"/>
      <use transform="translate(205.422825 0)scale(0.996264)" xlink:href="#CMR17-61"/>
      <use transform="translate(304.811623 0)scale(0.996264)" xlink:href="#CMR17-48"/>
      <use transform="translate(350.5021 0)scale(0.996264)" xlink:href="#CMMI12-59"/>
      <use transform="translate(394.203682 0)scale(0.996264)" xlink:href="#CMMI12-90"/>
      <use transform="translate(495.801283 0)scale(0.996264)" xlink:href="#CMR17-61"/>
      <use transform="translate(595.19008 0)scale(0.996264)" xlink:href="#CMR17-49"/>
     </g>
    </g>
   </g>
  </g>
  <g id="axes_2">
   <g id="patch_5">
    <path d="M 196.393091 126 
L 322.704 126 
L 322.704 17.28 
L 196.393091 17.28 
z
" style="fill:#ffffff;"/>
   </g>
   <g id="matplotlib.axis_3">
    <g id="xtick_5">
     <g id="line2d_11">
      <g>
       <use style="fill:#262626;stroke:#262626;stroke-width:1.25;" x="196.393091" xlink:href="#ma0bf45a2be" y="126"/>
      </g>
     </g>
     <g id="text_9">
      <!-- 0 -->
      <g style="fill:#262626;" transform="translate(193.653357 143.110347)scale(0.11 -0.11)">
       <use transform="scale(0.996264)" xlink:href="#CMR17-48"/>
      </g>
     </g>
    </g>
    <g id="xtick_6">
     <g id="line2d_12">
      <g>
       <use style="fill:#262626;stroke:#262626;stroke-width:1.25;" x="209.024182" xlink:href="#ma0bf45a2be" y="126"/>
      </g>
     </g>
     <g id="text_10">
      <!-- $\tau_0^C$ -->
      <g style="fill:#262626;" transform="translate(202.865727 145.308114)scale(0.11 -0.11)">
       <use transform="translate(0 24.740171)scale(0.996264)" xlink:href="#CMMI12-28"/>
       <use transform="translate(53.491165 60.89381)scale(0.697382)" xlink:href="#CMMI12-67"/>
       <use transform="translate(42.363841 0)scale(0.697382)" xlink:href="#CMR17-48"/>
      </g>
     </g>
    </g>
    <g id="xtick_7">
     <g id="line2d_13">
      <g>
       <use style="fill:#262626;stroke:#262626;stroke-width:1.25;" x="238.496727" xlink:href="#ma0bf45a2be" y="126"/>
      </g>
     </g>
     <g id="text_11">
      <!-- $\tau_1^C$ -->
      <g style="fill:#262626;" transform="translate(232.338272 145.308114)scale(0.11 -0.11)">
       <use transform="translate(0 24.740171)scale(0.996264)" xlink:href="#CMMI12-28"/>
       <use transform="translate(53.491165 60.89381)scale(0.697382)" xlink:href="#CMMI12-67"/>
       <use transform="translate(42.363841 0)scale(0.697382)" xlink:href="#CMR17-49"/>
      </g>
     </g>
    </g>
    <g id="xtick_8">
     <g id="line2d_14">
      <g>
       <use style="fill:#262626;stroke:#262626;stroke-width:1.25;" x="322.704" xlink:href="#ma0bf45a2be" y="126"/>
      </g>
     </g>
     <g id="text_12">
      <!-- 30 -->
      <g style="fill:#262626;" transform="translate(317.224533 143.110347)scale(0.11 -0.11)">
       <use transform="scale(0.996264)" xlink:href="#CMR17-51"/>
       <use transform="translate(45.690477 0)scale(0.996264)" xlink:href="#CMR17-48"/>
      </g>
     </g>
    </g>
    <g id="text_13">
     <!-- Time (ms) -->
     <g style="fill:#262626;" transform="translate(232.52724 160.405385)scale(0.12 -0.12)">
      <use transform="scale(0.996264)" xlink:href="#CMR17-84"/>
      <use transform="translate(66.509881 0)scale(0.996264)" xlink:href="#CMR17-105"/>
      <use transform="translate(91.380939 0)scale(0.996264)" xlink:href="#CMR17-109"/>
      <use transform="translate(168.300529 0)scale(0.996264)" xlink:href="#CMR17-101"/>
      <use transform="translate(238.862156 0)scale(0.996264)" xlink:href="#CMR17-40"/>
      <use transform="translate(274.142924 0)scale(0.996264)" xlink:href="#CMR17-109"/>
      <use transform="translate(351.062513 0)scale(0.996264)" xlink:href="#CMR17-115"/>
      <use transform="translate(386.863851 0)scale(0.996264)" xlink:href="#CMR17-41"/>
     </g>
    </g>
   </g>
   <g id="matplotlib.axis_4">
    <g id="ytick_4"/>
    <g id="ytick_5"/>
    <g id="ytick_6"/>
   </g>
   <g id="line2d_15">
    <path clip-path="url(#pb55fe18f33)" d="M 133.237636 121.058182 
L 192.916064 120.950893 
L 193.674688 120.650552 
L 194.180437 120.190611 
L 194.686187 119.394598 
L 195.191936 118.173124 
L 195.95056 115.538332 
L 197.973558 107.678838 
L 198.732182 105.950338 
L 199.490806 104.916906 
L 200.24943 104.338844 
L 201.008054 104.074847 
L 201.766678 104.06616 
L 202.778177 104.355424 
L 205.306924 105.355998 
L 206.065548 105.37822 
L 206.824172 105.127027 
L 207.582796 104.530371 
L 208.088545 103.884732 
L 208.594295 102.979809 
L 209.352919 101.00662 
L 210.111543 98.176344 
L 211.123042 93.122001 
L 212.387415 85.373376 
L 215.169037 67.614655 
L 215.927661 63.969319 
L 216.686285 61.292679 
L 217.192034 60.079338 
L 217.697784 59.325886 
L 218.203533 59.028827 
L 218.709283 59.179175 
L 219.215032 59.759045 
L 219.720781 60.739021 
L 220.479405 62.863679 
L 221.490904 66.607192 
L 223.261027 74.343885 
L 225.789774 85.440325 
L 227.054147 89.626047 
L 229.33002 96.30318 
L 230.088644 97.931046 
L 231.100143 99.581179 
L 233.376015 102.796993 
L 234.134639 103.484783 
L 235.146138 104.071201 
L 236.663386 104.946183 
L 238.180634 106.177586 
L 241.468005 109.015305 
L 242.479504 109.551028 
L 243.743877 109.943715 
L 247.031248 110.624762 
L 249.054246 110.952464 
L 253.100241 111.855331 
L 255.881862 111.809887 
L 257.399111 112.242694 
L 261.445106 113.486549 
L 264.226727 113.904975 
L 265.491101 114.157491 
L 268.525597 114.503975 
L 270.801469 115.079231 
L 272.318717 115.273082 
L 274.341715 115.205531 
L 276.364713 115.232153 
L 277.881961 115.462326 
L 281.169332 116.137338 
L 283.192329 116.101246 
L 285.468201 116.203735 
L 287.238324 116.167235 
L 291.284319 115.870795 
L 292.801568 115.70392 
L 294.065941 115.834481 
L 296.847563 116.228038 
L 298.617686 116.489942 
L 301.399307 116.958306 
L 302.916555 117.065755 
L 303.928054 116.940093 
L 305.951052 116.563499 
L 306.96255 116.64838 
L 308.732673 116.873635 
L 309.997047 116.787824 
L 312.525794 116.549269 
L 314.295916 116.760666 
L 319.35341 117.341545 
L 320.364909 117.507303 
L 321.123533 117.802043 
L 321.882157 118.299283 
L 323.146531 119.484874 
L 324.158029 120.355225 
L 324.916654 120.758902 
L 325.928152 120.991585 
L 327.698275 121.056524 
L 359.56 121.058182 
L 359.56 121.058182 
" style="fill:none;stroke:#d95f02;stroke-linecap:round;stroke-width:2;"/>
   </g>
   <g id="line2d_16">
    <path clip-path="url(#pb55fe18f33)" d="M 134.500745 121.058182 
L 193.481239 120.962362 
L 193.976873 120.717363 
L 194.472508 120.044134 
L 194.968142 118.525903 
L 195.463776 115.724798 
L 195.959411 111.515468 
L 197.446314 97.576434 
L 197.941948 95.350701 
L 198.189766 94.789609 
L 198.437583 94.516434 
L 198.6854 94.46402 
L 199.181034 94.79116 
L 201.163572 97.022191 
L 201.659206 97.142052 
L 202.154841 96.97351 
L 202.898292 96.272695 
L 203.641744 95.588943 
L 204.385196 95.283651 
L 204.88083 95.065964 
L 205.376464 94.609614 
L 205.872099 93.838861 
L 206.863368 92.00652 
L 207.111185 91.747579 
L 207.359002 91.649728 
L 207.606819 91.717445 
L 208.102454 92.211221 
L 208.598088 92.728029 
L 208.845905 92.80698 
L 209.093722 92.690495 
L 209.34154 92.345981 
L 209.837174 90.90732 
L 210.332808 88.376332 
L 210.828443 84.590641 
L 211.571894 76.465636 
L 213.058798 58.404564 
L 213.554432 54.803904 
L 214.050066 52.633839 
L 216.032604 46.777091 
L 216.528238 45.713029 
L 217.023873 45.284005 
L 217.27169 45.335142 
L 217.519507 45.589843 
L 217.767324 46.087757 
L 218.262959 48.009023 
L 218.758593 51.308424 
L 219.997679 61.316013 
L 220.493314 63.682969 
L 221.484582 66.886139 
L 221.980217 69.609979 
L 222.723668 75.768857 
L 223.714937 84.418825 
L 224.458389 88.818939 
L 224.954023 90.548476 
L 225.449657 91.378553 
L 225.697475 91.491958 
L 226.193109 91.299068 
L 226.688743 90.983811 
L 226.936561 90.975644 
L 227.184378 91.159846 
L 227.432195 91.580628 
L 227.927829 93.16346 
L 229.910367 101.568252 
L 230.406001 102.374674 
L 232.140722 104.250697 
L 232.636356 104.54616 
L 233.627625 104.902792 
L 234.123259 105.395512 
L 235.114528 106.926114 
L 236.353614 108.775208 
L 236.849249 109.204135 
L 238.336152 110.011759 
L 239.327421 111.332614 
L 240.070872 112.212248 
L 240.566507 112.589266 
L 241.062141 112.722191 
L 241.557775 112.529159 
L 242.301227 111.744865 
L 242.796861 111.251179 
L 243.292496 111.103645 
L 243.78813 111.37789 
L 245.027216 112.563011 
L 245.522851 112.641899 
L 246.018485 112.460247 
L 247.753205 111.527038 
L 248.24884 111.451621 
L 248.744474 111.682922 
L 249.240109 112.305563 
L 251.222646 115.559723 
L 251.718281 115.777591 
L 252.213915 115.672368 
L 252.957367 115.116598 
L 253.700818 114.570437 
L 254.196453 114.42409 
L 254.939904 114.496621 
L 256.426807 114.870801 
L 257.170259 115.306268 
L 259.400614 116.891017 
L 259.896248 116.786255 
L 260.391883 116.342612 
L 261.383151 115.266897 
L 261.878786 115.19418 
L 262.37442 115.517235 
L 263.861323 116.865014 
L 265.100409 117.469784 
L 265.596044 117.444102 
L 266.091678 117.05463 
L 267.578581 115.0564 
L 267.826399 115.004333 
L 268.074216 115.097285 
L 268.56985 115.659082 
L 269.808936 117.52306 
L 270.304571 117.791559 
L 270.800205 117.773533 
L 272.039291 117.54327 
L 273.278377 117.528052 
L 273.774011 117.261236 
L 274.517463 116.407007 
L 275.260914 115.56584 
L 275.756549 115.406756 
L 276.252183 115.606926 
L 277.243452 116.463744 
L 278.482538 117.494239 
L 278.978172 117.71007 
L 279.473807 117.725709 
L 280.96071 117.474043 
L 281.456344 117.669814 
L 283.438882 118.919797 
L 284.182334 118.85326 
L 286.660506 118.293621 
L 288.147409 118.282419 
L 289.386495 117.868063 
L 289.882129 118.005087 
L 290.377764 118.426579 
L 291.369032 119.404753 
L 291.864667 119.581209 
L 292.360301 119.506609 
L 294.095022 118.900479 
L 294.838473 119.135692 
L 295.829742 119.589073 
L 296.573194 119.673184 
L 298.307914 119.675975 
L 299.794817 119.760686 
L 300.786086 119.491512 
L 301.529538 119.286978 
L 302.272989 119.347863 
L 303.264258 119.564711 
L 304.00771 119.423885 
L 304.751161 119.228323 
L 305.246796 119.309677 
L 305.990247 119.806903 
L 306.981516 120.58573 
L 307.724968 120.887741 
L 308.468419 120.925997 
L 309.211871 120.722409 
L 309.955322 120.250719 
L 311.93786 118.697347 
L 312.433494 118.684456 
L 312.929129 118.87336 
L 315.159484 120.137128 
L 316.646387 120.266994 
L 317.637656 120.312524 
L 318.381107 120.073221 
L 319.372376 119.620336 
L 319.86801 119.62999 
L 320.363645 119.858727 
L 321.850548 120.809562 
L 322.594 120.996026 
L 324.080903 121.057042 
L 359.56 121.058182 
L 359.56 121.058182 
" style="fill:none;stroke:#d95f02;stroke-dasharray:7.4,3.2;stroke-dashoffset:0;stroke-width:2;"/>
   </g>
   <g id="patch_6">
    <path d="M 196.393091 126 
L 196.393091 17.28 
" style="fill:none;stroke:#262626;stroke-linecap:square;stroke-linejoin:miter;stroke-width:1.25;"/>
   </g>
   <g id="patch_7">
    <path d="M 196.393091 126 
L 322.704 126 
" style="fill:none;stroke:#262626;stroke-linecap:square;stroke-linejoin:miter;stroke-width:1.25;"/>
   </g>
   <g id="legend_2">
    <g id="line2d_17">
     <path d="M 208.163288 31.549178 
L 230.163288 31.549178 
" style="fill:none;stroke:#d95f02;stroke-linecap:round;stroke-width:2;"/>
    </g>
    <g id="line2d_18"/>
    <g id="text_14">
     <!-- $C|B=1,Z=0$ -->
     <defs>
      <path d="M 36.59375 61.265625 
C 37.5 65 37.90625 65 41.796875 65 
L 54.796875 65 
C 66.09375 65 66.09375 55.375 66.09375 54.453125 
C 66.09375 46.34375 58 36 44.796875 36 
L 30.40625 36 
z
M 53.5 35.546875 
C 64.40625 37.53125 74.296875 45.09375 74.296875 54.265625 
C 74.296875 62.03125 67.40625 68 56.09375 68 
L 24 68 
C 22.09375 68 21.203125 68 21.203125 66.03125 
C 21.203125 65 22.09375 65 23.59375 65 
C 29.703125 65 29.703125 64.25 29.703125 63.1875 
C 29.703125 63 29.703125 62.390625 29.296875 60.890625 
L 15.796875 7.375 
C 14.90625 3.890625 14.703125 2.890625 7.703125 2.890625 
C 5.796875 2.890625 4.796875 2.890625 4.796875 1.09375 
C 4.796875 0 5.40625 0 7.40625 0 
L 41.703125 0 
C 57 0 68.796875 11.546875 68.796875 21.609375 
C 68.796875 29.78125 61.59375 34.75 53.5 35.546875 
z
M 39.296875 2.890625 
L 25.796875 2.890625 
C 24.40625 2.890625 24.203125 2.890625 23.59375 3 
C 22.5 3.09375 22.40625 3.296875 22.40625 4.078125 
C 22.40625 4.765625 22.59375 5.359375 22.796875 6.234375 
L 29.796875 34 
L 48.59375 34 
C 60.40625 34 60.40625 23.171875 60.40625 22.390625 
C 60.40625 12.9375 51.703125 2.890625 39.296875 2.890625 
z
" id="CMMI12-66"/>
     </defs>
     <g style="fill:#262626;" transform="translate(238.963288 35.399178)scale(0.11 -0.11)">
      <use transform="scale(0.996264)" xlink:href="#CMMI12-67"/>
      <use transform="translate(76.946847 0)scale(0.996264)" xlink:href="#CMSY10-106"/>
      <use transform="translate(104.620931 0)scale(0.996264)" xlink:href="#CMMI12-66"/>
      <use transform="translate(211.430463 0)scale(0.996264)" xlink:href="#CMR17-61"/>
      <use transform="translate(310.819261 0)scale(0.996264)" xlink:href="#CMR17-49"/>
      <use transform="translate(356.509738 0)scale(0.996264)" xlink:href="#CMMI12-59"/>
      <use transform="translate(400.21132 0)scale(0.996264)" xlink:href="#CMMI12-90"/>
      <use transform="translate(501.808921 0)scale(0.996264)" xlink:href="#CMR17-61"/>
      <use transform="translate(601.197718 0)scale(0.996264)" xlink:href="#CMR17-48"/>
     </g>
    </g>
    <g id="line2d_19">
     <path d="M 208.163288 48.008082 
L 230.163288 48.008082 
" style="fill:none;stroke:#d95f02;stroke-dasharray:7.4,3.2;stroke-dashoffset:0;stroke-width:2;"/>
    </g>
    <g id="line2d_20"/>
    <g id="text_15">
     <!-- $C|B=0,Z=1$ -->
     <g style="fill:#262626;" transform="translate(238.963288 51.858082)scale(0.11 -0.11)">
      <use transform="scale(0.996264)" xlink:href="#CMMI12-67"/>
      <use transform="translate(76.946847 0)scale(0.996264)" xlink:href="#CMSY10-106"/>
      <use transform="translate(104.620931 0)scale(0.996264)" xlink:href="#CMMI12-66"/>
      <use transform="translate(211.430463 0)scale(0.996264)" xlink:href="#CMR17-61"/>
      <use transform="translate(310.819261 0)scale(0.996264)" xlink:href="#CMR17-48"/>
      <use transform="translate(356.509738 0)scale(0.996264)" xlink:href="#CMMI12-59"/>
      <use transform="translate(400.21132 0)scale(0.996264)" xlink:href="#CMMI12-90"/>
      <use transform="translate(501.808921 0)scale(0.996264)" xlink:href="#CMR17-61"/>
      <use transform="translate(601.197718 0)scale(0.996264)" xlink:href="#CMR17-49"/>
     </g>
    </g>
   </g>
  </g>
 </g>
 <defs>
  <clipPath id="pc8bc2e73a0">
   <rect height="108.72" width="126.310909" x="44.82" y="17.28"/>
  </clipPath>
  <clipPath id="pb55fe18f33">
   <rect height="108.72" width="126.310909" x="196.393091" y="17.28"/>
  </clipPath>
 </defs>
</svg>
